<svg width="47" height="56" viewBox="0 0 47 56" fill="none" xmlns="http://www.w3.org/2000/svg">
<path d="M39.4414 37.4071C38.7181 39.084 37.862 40.6277 36.8701 42.0469C35.518 43.9817 34.4109 45.3209 33.5577 46.0646C32.2351 47.2853 30.818 47.9104 29.3006 47.946C28.2113 47.946 26.8975 47.6349 25.3683 47.0038C23.834 46.3757 22.424 46.0646 21.1348 46.0646C19.7827 46.0646 18.3326 46.3757 16.7815 47.0038C15.2281 47.6349 13.9766 47.9638 13.0198 47.9964C11.5647 48.0586 10.1142 47.4156 8.66649 46.0646C7.74245 45.2557 6.58666 43.8691 5.20208 41.9047C3.71653 39.807 2.4952 37.3745 1.53839 34.6012C0.513683 31.6058 0 28.7051 0 25.8969C0 22.6801 0.692587 19.9057 2.07983 17.5807C3.17008 15.7132 4.62049 14.2401 6.4358 13.1586C8.25111 12.0772 10.2126 11.5261 12.3249 11.4908C13.4806 11.4908 14.9963 11.8496 16.8798 12.5548C18.758 13.2623 19.964 13.6211 20.4927 13.6211C20.888 13.6211 22.2277 13.2016 24.4989 12.3652C26.6466 11.5895 28.4592 11.2683 29.9442 11.3948C33.968 11.7207 36.9911 13.3127 39.0016 16.1807C35.4028 18.3691 33.6226 21.4342 33.6581 25.3662C33.6905 28.429 34.7976 30.9776 36.9734 33.0013C37.9594 33.9405 39.0606 34.6664 40.2858 35.1819C40.0201 35.9553 39.7396 36.696 39.4414 37.4071ZM30.2128 0.960762C30.2128 3.36131 29.339 5.60269 27.5972 7.6773C25.4952 10.1436 22.9528 11.5687 20.1957 11.3439C20.1606 11.0559 20.1402 10.7528 20.1402 10.4343C20.1402 8.12973 21.1398 5.66343 22.915 3.6469C23.8012 2.6259 24.9284 1.77694 26.2953 1.09972C27.6592 0.432598 28.9493 0.0636663 30.1627 0.000488281C30.1981 0.321404 30.2128 0.64234 30.2128 0.96073V0.960762Z" fill="white"/>
</svg>
