<svg xmlns="http://www.w3.org/2000/svg" viewBox="0 0 68.13 22.97"><defs><style>.cls-1{fill:#fff;}</style></defs><g id="Слой_2" data-name="Слой 2"><g id="_1200" data-name="1200"><path class="cls-1" d="M0,13.26V0H2.46V5.47H9V0h2.46V13.26H9V7.6H2.46v5.66Z"/><path class="cls-1" d="M16.54,13.26H14L19.65,0h2.64L28,13.26H25.4L23.89,9.64H19.48l.85-2.13H23l-2.09-5Z"/><path class="cls-1" d="M30.61,13.26V0H35.8q6.59,0,6.58,6.27,0,7-6.58,7Zm5.19-2.14c2.75,0,4.13-1.61,4.13-4.85q0-4.14-4.13-4.14H33.07v9Z"/><path class="cls-1" d="M46.78,13.26H44.26L49.89,0h2.64l5.75,13.26H55.64L54.13,9.64H49.72l.85-2.13h2.66l-2.08-5Z"/><path class="cls-1" d="M68.13,0V2.13h-3.8V13.26H61.87V2.13h-3.8V0Z"/><path class="cls-1" d="M21.11,22.83a2.37,2.37,0,0,1-.87.14,1.4,1.4,0,0,1-1.61-1.55c0-1,.54-1.47,1.61-1.47a2.6,2.6,0,0,1,.87.14v.5a2,2,0,0,0-.83-.16q-1.08,0-1.08,1a1,1,0,0,0,1.08,1.07,2,2,0,0,0,.83-.16Z"/><path class="cls-1" d="M22.38,21.47A1.34,1.34,0,0,1,23.89,20c1,0,1.47.5,1.47,1.52A1.31,1.31,0,0,1,23.89,23,1.37,1.37,0,0,1,22.38,21.47Zm1.51,1c.59,0,.9-.34.9-1s-.31-1-.9-1-.93.34-.93,1S23.27,22.49,23.89,22.49Z"/><path class="cls-1" d="M26.68,22.83v-.5a3,3,0,0,0,1,.16c.45,0,.68-.15.68-.46s-.14-.33-.42-.33H27.5c-.62,0-.92-.28-.92-.83S27,20,27.88,20a3.26,3.26,0,0,1,.95.14v.5a2.71,2.71,0,0,0-.95-.16c-.5,0-.75.14-.75.44s.12.33.37.33H28c.65,0,1,.28,1,.83s-.42.94-1.24.94A3.23,3.23,0,0,1,26.68,22.83Z"/><path class="cls-1" d="M30.26,23V20h.58l1,2.26,1-2.26h.55v3h-.51V20.88L32.07,23H31.6l-.83-2.07V23Z"/><path class="cls-1" d="M36.92,20v.47h-1.5v.76h1.42v.49H35.42v.78h1.52V23H34.87V20Z"/><path class="cls-1" d="M40.26,20v.48h-.85V23h-.55v-2.5H38V20Z"/><path class="cls-1" d="M42,20v3h-.55V20Z"/><path class="cls-1" d="M45.84,22.83A2.34,2.34,0,0,1,45,23c-1.08,0-1.61-.52-1.61-1.55S43.89,20,45,20a2.56,2.56,0,0,1,.87.14v.5a2,2,0,0,0-.83-.16c-.72,0-1.07.33-1.07,1A.94.94,0,0,0,45,22.49a2,2,0,0,0,.83-.16Z"/><path class="cls-1" d="M47.17,22.83v-.5a2.93,2.93,0,0,0,1,.16c.46,0,.69-.15.69-.46s-.14-.33-.42-.33H48c-.61,0-.92-.28-.92-.83S47.5,20,48.37,20a3.31,3.31,0,0,1,1,.14v.5a2.75,2.75,0,0,0-1-.16c-.5,0-.75.14-.75.44s.12.33.36.33h.47c.65,0,1,.28,1,.83S49,23,48.18,23A3.2,3.2,0,0,1,47.17,22.83Z"/></g></g></svg>