<svg xmlns="http://www.w3.org/2000/svg" width="25" height="28" viewBox="0 0 25 28"><g><g opacity=".3"><path fill="#616162" d="M25.003 11.583v8.16c0 .867-.71 1.57-1.583 1.57h-.678V26.9c0 .605-.497 1.098-1.107 1.098H3.365c-.61 0-1.107-.493-1.107-1.098v-5.587H1.58a1.577 1.577 0 0 1-1.583-1.57v-8.16c0-.867.709-1.57 1.583-1.57h.678V1.095C2.258.491 2.754 0 3.365 0h13.38a.55.55 0 0 1 .126.014.56.56 0 0 1 .139.055l.036.022c.04.027.078.056.11.092.002 0 .003.002.005.004l5.444 6.166c.089.1.13.228.131.356.003.02.006.04.006.061v3.244h.678c.874 0 1.583.703 1.583 1.57zm-21.638-1.57h18.27v-2.75h-4.89a.551.551 0 0 1-.555-.55V1.097H3.365zm18.27 11.3H3.365v5.29h18.27z"/></g></g></svg>