<svg xmlns="http://www.w3.org/2000/svg" width="32" height="30" viewBox="0 0 32 30"><g><g opacity=".3"><path fill="#616162" d="M15.998 14.533c2.17 0 3.93 1.83 3.93 4.085 0 2.256-1.76 4.084-3.93 4.084-2.171 0-3.932-1.828-3.932-4.084 0-2.255 1.76-4.085 3.932-4.085zM23.045 3.61c.639 0 1.157.539 1.157 1.203 0 .665-.518 1.203-1.157 1.203-.64 0-1.158-.538-1.158-1.203 0-.664.518-1.203 1.158-1.203zm4.017 0c.639 0 1.157.539 1.157 1.203 0 .665-.518 1.203-1.157 1.203-.64 0-1.158-.538-1.158-1.203 0-.664.519-1.203 1.158-1.203zm4.897-2.55v27.889c0 .587-.458 1.06-1.022 1.06H1.021C.457 30.01 0 29.537 0 28.95V1.059C0 .473.457 0 1.021 0h29.916c.564 0 1.022.474 1.022 1.06zm-7.977 18.972v-2.58c0-.46-.359-.832-.8-.832h-.918a6.901 6.901 0 0 0-.372-.931l.65-.674a.854.854 0 0 0 0-1.176l-1.757-1.825a.78.78 0 0 0-1.132 0l-.649.674a6.373 6.373 0 0 0-.896-.385v-.954c0-.459-.359-.832-.801-.832h-2.483c-.443 0-.801.373-.801.832v.954c-.31.105-.61.235-.896.385l-.65-.674a.78.78 0 0 0-1.132 0L9.59 13.839a.854.854 0 0 0 0 1.176l.65.674c-.146.3-.27.61-.372.931h-.918c-.442 0-.8.372-.8.832v2.58c0 .46.358.832.8.832h.918c.102.321.226.632.371.932l-.649.673a.854.854 0 0 0 0 1.176l1.756 1.825a.78.78 0 0 0 1.133 0l.649-.674c.287.15.586.28.896.386v.953c0 .46.358.832.8.832h2.484c.442 0 .8-.373.8-.832v-.953c.31-.105.61-.235.897-.386l.649.674a.78.78 0 0 0 1.132 0l1.756-1.825a.854.854 0 0 0 0-1.176l-.649-.673c.145-.299.27-.61.372-.932h.917c.442 0 .8-.371.8-.832zm5.934-12.586V2.119H2.042v5.327z"/></g></g></svg>