<svg xmlns="http://www.w3.org/2000/svg" width="27" height="31" viewBox="0 0 27 31"><g><g opacity=".3"><path fill="#616162" d="M26.374 12.267v16.141c0 1.426-1.294 2.583-2.886 2.583H3.284c-1.591 0-2.886-1.157-2.886-2.582V12.267c0-.358.323-.646.722-.646h2.164V9.038c0-4.984 4.532-9.04 10.102-9.04s10.102 4.056 10.102 9.04v2.583h2.165c.399 0 .721.288.721.646zm-11.282 9.179c.739-.481 1.18-1.243 1.18-2.078 0-1.424-1.294-2.582-2.886-2.582S10.5 17.944 10.5 19.368c0 .835.442 1.597 1.181 2.078l-.455 3.663a.603.603 0 0 0 .18.501.763.763 0 0 0 .537.217h2.886c.206 0 .401-.08.538-.217a.603.603 0 0 0 .18-.501zm4.067-12.408c0-2.849-2.59-5.166-5.773-5.166S7.614 6.19 7.614 9.038v2.583h11.545z"/></g></g></svg>