<svg xmlns="http://www.w3.org/2000/svg" width="31" height="31" viewBox="0 0 31 31"><g><g opacity=".3"><path fill="#616162" d="M23.795 11.865v11.928H11.867v-4.662H7.205V7.204h11.928v4.66zm-11.928 0h4.844v-2.24H9.627v7.084h2.24zm2.422 2.421v2.423h2.422v-2.423zm7.084 0h-2.24v4.845h-4.844v2.24h7.084zM0-.002h4.844v4.844H0zm26.156 0H31v4.844h-4.844zm-9.445 2.423h2.422v2.42H16.71zm4.723 0h2.421v2.42h-2.421zm-9.446 0h2.422v2.42h-2.422zm-4.722 0h2.421v2.42H7.266zm18.89 23.734H31v4.843h-4.844zm0-9.446h2.422v2.422h-2.422zm0 4.722h2.422v2.423h-2.422zm0-9.445h2.422v2.422h-2.422zm0-4.723h2.422v2.422h-2.422zM0 26.155h4.844v4.843H0zm2.422-9.446h2.422v2.422H2.422zm0 4.722h2.422v2.423H2.422zm0-9.445h2.422v2.422H2.422zm0-4.723h2.422v2.422H2.422zM16.71 26.155h2.422v2.42H16.71zm4.723 0h2.421v2.42h-2.421zm-9.446 0h2.422v2.42h-2.422zm-4.722 0h2.421v2.42H7.266z"/></g></g></svg>