<svg xmlns="http://www.w3.org/2000/svg" xmlns:xlink="http://www.w3.org/1999/xlink" viewBox="0 0 94 122">
  <g id="container">
    <path fill="#fff" d="M8.1 89.9L47.6 110l38-20.1V11.3H8.1z"/>
    <path fill="#f2f3f2" d="M86.4 11.6L7.3 91.3l41 20.3 38.1-19.5z"/>
    <path d="M5.5 37.5v54.1l1.4.7 39.5 20.1 1.2.6 1.2-.6 38.1-20.1 1.4-.7V8.7H5.5v28.8zm2.6 52.6V11.3h77.6v78.8l-38.1 20.1L8.1 90.1z" fill="#dcdedc"/>
    <path d="M46.9 12.6c.4 0 .8 0 1.2.1L46.9 15c-1.8-.1-3.4 1.3-3.5 3.1-.1 1.8 1.3 3.4 3.1 3.5h.4c.8 0 1.6-.3 2.2-.8l1.3 2.2c-1 .7-2.2 1.1-3.5 1.1-3.2.1-5.9-2.3-6-5.5-.1-3.2 2.3-5.9 5.5-6h.5zm4.1 4.9l1.5 2.5-1.5 2.4-1.4-2.4h-2.9l1.5-2.5H51zm-2.4-.9c0-.4.1-.8.3-1.1.2-.3.6-.6.9-.8l.2-.1c.4-.2.5-.3.5-.5s-.3-.4-.5-.4c-.4 0-.7.2-.9.6l-.5-.5c.1-.2.3-.4.5-.6.3-.2.6-.2.9-.2.3 0 .7.1.9.3.2.2.4.5.4.8 0 .5-.3.9-.9 1.1l-.3.2c-.3.2-.5.3-.6.6h1.8v.7l-2.7-.1zm-1.7 12.5l9.5-5.4v-15H37.3v14.9l9.6 5.5z" fill="#ff492c"/>
    <path id="banner" d="M90.2 64.5H3.6l-3.2 7 3.2 7h86.6l3.1-7z" fill="#ff492c"/>
  <path fill="#252530" transform="translate(11.62, 60)" d="M5.25-10.51L5.25-10.51Q6.24-10.51 6.99-10.11L6.99-10.11L6.99-10.11Q7.74-9.71 8.15-8.96L8.15-8.96L8.15-8.96Q8.56-8.22 8.56-7.26L8.56-7.26L8.56-7.26Q8.56-6.31 8.14-5.59L8.14-5.59L8.14-5.59Q7.71-4.88 6.94-4.48L6.94-4.48L6.94-4.48Q6.17-4.08 5.16-4.08L5.16-4.08L3.03-4.08L3.03-4.08Q2.96-4.08 2.96-4.00L2.96-4.00L2.96-0.18L2.96-0.18Q2.96-0.10 2.90-0.05L2.90-0.05L2.90-0.05Q2.85 0 2.77 0L2.77 0L1.02 0L1.02 0Q0.94 0 0.89-0.05L0.89-0.05L0.89-0.05Q0.84-0.10 0.84-0.18L0.84-0.18L0.84-10.33L0.84-10.33Q0.84-10.41 0.89-10.46L0.89-10.46L0.89-10.46Q0.94-10.51 1.02-10.51L1.02-10.51L5.25-10.51ZM4.93-5.77L4.93-5.77Q5.63-5.77 6.04-6.17L6.04-6.17L6.04-6.17Q6.46-6.57 6.46-7.21L6.46-7.21L6.46-7.21Q6.46-7.88 6.04-8.28L6.04-8.28L6.04-8.28Q5.63-8.69 4.93-8.69L4.93-8.69L3.03-8.69L3.03-8.69Q2.96-8.69 2.96-8.61L2.96-8.61L2.96-5.85L2.96-5.85Q2.96-5.77 3.03-5.77L3.03-5.77L4.93-5.77ZM16.56-4.65L16.56-4.65Q16.65-4.08 16.62-3.38L16.62-3.38L16.62-3.38Q16.61-3.19 16.43-3.19L16.43-3.19L11.79-3.19L11.79-3.19Q11.70-3.19 11.73-3.12L11.73-3.12L11.73-3.12Q11.78-2.82 11.89-2.52L11.89-2.52L11.89-2.52Q12.29-1.68 13.48-1.68L13.48-1.68L13.48-1.68Q14.45-1.69 15-2.46L15-2.46L15-2.46Q15.06-2.55 15.13-2.55L15.13-2.55L15.13-2.55Q15.18-2.55 15.24-2.49L15.24-2.49L16.32-1.43L16.32-1.43Q16.39-1.35 16.39-1.29L16.39-1.29L16.39-1.29Q16.39-1.26 16.34-1.17L16.34-1.17L16.34-1.17Q15.84-0.55 15.06-0.22L15.06-0.22L15.06-0.22Q14.28 0.12 13.35 0.12L13.35 0.12L13.35 0.12Q12.06 0.12 11.17-0.46L11.17-0.46L11.17-0.46Q10.28-1.05 9.88-2.10L9.88-2.10L9.88-2.10Q9.57-2.85 9.57-4.06L9.57-4.06L9.57-4.06Q9.57-4.89 9.79-5.52L9.79-5.52L9.79-5.52Q10.14-6.58 11.00-7.21L11.00-7.21L11.00-7.21Q11.87-7.84 13.05-7.84L13.05-7.84L13.05-7.84Q14.55-7.84 15.46-6.97L15.46-6.97L15.46-6.97Q16.37-6.10 16.56-4.65L16.56-4.65ZM13.06-6.01L13.06-6.01Q12.12-6.01 11.82-5.13L11.82-5.13L11.82-5.13Q11.76-4.93 11.71-4.65L11.71-4.65L11.71-4.65Q11.71-4.58 11.79-4.58L11.79-4.58L14.38-4.58L14.38-4.58Q14.47-4.58 14.45-4.65L14.45-4.65L14.45-4.65Q14.37-5.08 14.37-5.07L14.37-5.07L14.37-5.07Q14.23-5.52 13.90-5.77L13.90-5.77L13.90-5.77Q13.56-6.01 13.06-6.01L13.06-6.01ZM21.77-7.81L21.77-7.81Q22.30-7.81 22.62-7.60L22.62-7.60L22.62-7.60Q22.74-7.54 22.71-7.38L22.71-7.38L22.39-5.67L22.39-5.67Q22.38-5.49 22.18-5.56L22.18-5.56L22.18-5.56Q21.96-5.64 21.66-5.64L21.66-5.64L21.66-5.64Q21.54-5.64 21.33-5.61L21.33-5.61L21.33-5.61Q20.79-5.56 20.41-5.21L20.41-5.21L20.41-5.21Q20.04-4.86 20.04-4.27L20.04-4.27L20.04-0.18L20.04-0.18Q20.04-0.10 19.99-0.05L19.99-0.05L19.99-0.05Q19.93 0 19.86 0L19.86 0L18.11 0L18.11 0Q18.03 0 17.98-0.05L17.98-0.05L17.98-0.05Q17.93-0.10 17.93-0.18L17.93-0.18L17.93-7.53L17.93-7.53Q17.93-7.60 17.98-7.66L17.98-7.66L17.98-7.66Q18.03-7.71 18.11-7.71L18.11-7.71L19.86-7.71L19.86-7.71Q19.93-7.71 19.99-7.66L19.99-7.66L19.99-7.66Q20.04-7.60 20.04-7.53L20.04-7.53L20.04-6.96L20.04-6.96Q20.04-6.92 20.07-6.90L20.07-6.90L20.07-6.90Q20.10-6.88 20.11-6.92L20.11-6.92L20.11-6.92Q20.73-7.81 21.77-7.81L21.77-7.81ZM28.07-7.72L28.07-7.72Q28.14-7.72 28.19-7.67L28.19-7.67L28.19-7.67Q28.25-7.62 28.25-7.54L28.25-7.54L28.25-6.12L28.25-6.12Q28.25-6.04 28.19-5.99L28.19-5.99L28.19-5.99Q28.14-5.94 28.07-5.94L28.07-5.94L26.61-5.94L26.61-5.94Q26.54-5.94 26.54-5.87L26.54-5.87L26.54-0.18L26.54-0.18Q26.54-0.10 26.48-0.05L26.48-0.05L26.48-0.05Q26.43 0 26.36 0L26.36 0L24.60 0L24.60 0Q24.53 0 24.47-0.05L24.47-0.05L24.47-0.05Q24.42-0.10 24.42-0.18L24.42-0.18L24.42-5.87L24.42-5.87Q24.42-5.94 24.34-5.94L24.34-5.94L23.46-5.94L23.46-5.94Q23.39-5.94 23.33-5.99L23.33-5.99L23.33-5.99Q23.28-6.04 23.28-6.12L23.28-6.12L23.28-7.54L23.28-7.54Q23.28-7.62 23.33-7.67L23.33-7.67L23.33-7.67Q23.39-7.72 23.46-7.72L23.46-7.72L24.34-7.72L24.34-7.72Q24.42-7.72 24.42-7.80L24.42-7.80L24.42-8.13L24.42-8.13Q24.42-9.06 24.71-9.58L24.71-9.58L24.71-9.58Q24.99-10.09 25.63-10.31L25.63-10.31L25.63-10.31Q26.27-10.53 27.39-10.50L27.39-10.50L27.96-10.50L27.96-10.50Q28.04-10.50 28.09-10.45L28.09-10.45L28.09-10.45Q28.14-10.39 28.14-10.32L28.14-10.32L28.14-9.11L28.14-9.11Q28.14-9.03 28.09-8.98L28.09-8.98L28.09-8.98Q28.04-8.92 27.96-8.92L27.96-8.92L27.46-8.92L27.46-8.92Q26.94-8.91 26.74-8.71L26.74-8.71L26.74-8.71Q26.54-8.50 26.54-7.96L26.54-7.96L26.54-7.80L26.54-7.80Q26.54-7.72 26.61-7.72L26.61-7.72L28.07-7.72ZM32.88 0.12L32.88 0.12Q31.62 0.12 30.72-0.54L30.72-0.54L30.72-0.54Q29.82-1.20 29.49-2.34L29.49-2.34L29.49-2.34Q29.28-3.04 29.28-3.87L29.28-3.87L29.28-3.87Q29.28-4.75 29.49-5.46L29.49-5.46L29.49-5.46Q29.84-6.57 30.73-7.20L30.73-7.20L30.73-7.20Q31.64-7.83 32.90-7.83L32.90-7.83L32.90-7.83Q34.13-7.83 34.99-7.21L34.99-7.21L34.99-7.21Q35.87-6.58 36.23-5.47L36.23-5.47L36.23-5.47Q36.47-4.72 36.47-3.90L36.47-3.90L36.47-3.90Q36.47-3.09 36.26-2.38L36.26-2.38L36.26-2.38Q35.92-1.21 35.03-0.55L35.03-0.55L35.03-0.55Q34.14 0.12 32.88 0.12L32.88 0.12ZM32.88-1.69L32.88-1.69Q33.38-1.69 33.72-1.99L33.72-1.99L33.72-1.99Q34.06-2.29 34.22-2.82L34.22-2.82L34.22-2.82Q34.34-3.30 34.34-3.87L34.34-3.87L34.34-3.87Q34.34-4.50 34.22-4.93L34.22-4.93L34.22-4.93Q34.05-5.44 33.70-5.73L33.70-5.73L33.70-5.73Q33.36-6.01 32.87-6.01L32.87-6.01L32.87-6.01Q32.35-6.01 32.02-5.73L32.02-5.73L32.02-5.73Q31.68-5.44 31.53-4.93L31.53-4.93L31.53-4.93Q31.41-4.58 31.41-3.87L31.41-3.87L31.41-3.87Q31.41-3.19 31.52-2.82L31.52-2.82L31.52-2.82Q31.66-2.29 32.02-1.99L32.02-1.99L32.02-1.99Q32.37-1.69 32.88-1.69L32.88-1.69ZM41.67-7.81L41.67-7.81Q42.21-7.81 42.52-7.60L42.52-7.60L42.52-7.60Q42.64-7.54 42.61-7.38L42.61-7.38L42.30-5.67L42.30-5.67Q42.28-5.49 42.09-5.56L42.09-5.56L42.09-5.56Q41.86-5.64 41.56-5.64L41.56-5.64L41.56-5.64Q41.44-5.64 41.23-5.61L41.23-5.61L41.23-5.61Q40.70-5.56 40.32-5.21L40.32-5.21L40.32-5.21Q39.95-4.86 39.95-4.27L39.95-4.27L39.95-0.18L39.95-0.18Q39.95-0.10 39.89-0.05L39.89-0.05L39.89-0.05Q39.84 0 39.77 0L39.77 0L38.01 0L38.01 0Q37.93 0 37.88-0.05L37.88-0.05L37.88-0.05Q37.83-0.10 37.83-0.18L37.83-0.18L37.83-7.53L37.83-7.53Q37.83-7.60 37.88-7.66L37.88-7.66L37.88-7.66Q37.93-7.71 38.01-7.71L38.01-7.71L39.77-7.71L39.77-7.71Q39.84-7.71 39.89-7.66L39.89-7.66L39.89-7.66Q39.95-7.60 39.95-7.53L39.95-7.53L39.95-6.96L39.95-6.96Q39.95-6.92 39.97-6.90L39.97-6.90L39.97-6.90Q40.00-6.88 40.02-6.92L40.02-6.92L40.02-6.92Q40.63-7.81 41.67-7.81L41.67-7.81ZM52.12-7.83L52.12-7.83Q53.29-7.83 53.95-7.13L53.95-7.13L53.95-7.13Q54.61-6.42 54.61-5.14L54.61-5.14L54.61-0.18L54.61-0.18Q54.61-0.10 54.56-0.05L54.56-0.05L54.56-0.05Q54.51 0 54.43 0L54.43 0L52.68 0L52.68 0Q52.60 0 52.55-0.05L52.55-0.05L52.55-0.05Q52.50-0.10 52.50-0.18L52.50-0.18L52.50-4.68L52.50-4.68Q52.50-5.29 52.18-5.65L52.18-5.65L52.18-5.65Q51.87-6.01 51.34-6.01L51.34-6.01L51.34-6.01Q50.82-6.01 50.49-5.65L50.49-5.65L50.49-5.65Q50.16-5.29 50.16-4.69L50.16-4.69L50.16-0.18L50.16-0.18Q50.16-0.10 50.11-0.05L50.11-0.05L50.11-0.05Q50.05 0 49.98 0L49.98 0L48.24 0L48.24 0Q48.16 0 48.11-0.05L48.11-0.05L48.11-0.05Q48.06-0.10 48.06-0.18L48.06-0.18L48.06-4.68L48.06-4.68Q48.06-5.28 47.73-5.65L47.73-5.65L47.73-5.65Q47.40-6.01 46.87-6.01L46.87-6.01L46.87-6.01Q46.39-6.01 46.07-5.73L46.07-5.73L46.07-5.73Q45.75-5.44 45.69-4.93L45.69-4.93L45.69-0.18L45.69-0.18Q45.69-0.10 45.64-0.05L45.64-0.05L45.64-0.05Q45.58 0 45.51 0L45.51 0L43.75 0L43.75 0Q43.68 0 43.63-0.05L43.63-0.05L43.63-0.05Q43.57-0.10 43.57-0.18L43.57-0.18L43.57-7.53L43.57-7.53Q43.57-7.60 43.63-7.66L43.63-7.66L43.63-7.66Q43.68-7.71 43.75-7.71L43.75-7.71L45.51-7.71L45.51-7.71Q45.58-7.71 45.64-7.66L45.64-7.66L45.64-7.66Q45.69-7.60 45.69-7.53L45.69-7.53L45.69-6.94L45.69-6.94Q45.69-6.90 45.72-6.88L45.72-6.88L45.72-6.88Q45.75-6.87 45.78-6.92L45.78-6.92L45.78-6.92Q46.39-7.83 47.68-7.83L47.68-7.83L47.68-7.83Q48.43-7.83 49.00-7.51L49.00-7.51L49.00-7.51Q49.56-7.20 49.86-6.61L49.86-6.61L49.86-6.61Q49.90-6.52 49.96-6.61L49.96-6.61L49.96-6.61Q50.29-7.23 50.86-7.53L50.86-7.53L50.86-7.53Q51.42-7.83 52.12-7.83L52.12-7.83ZM62.92-4.65L62.92-4.65Q63.01-4.08 62.98-3.38L62.98-3.38L62.98-3.38Q62.97-3.19 62.79-3.19L62.79-3.19L58.15-3.19L58.15-3.19Q58.06-3.19 58.09-3.12L58.09-3.12L58.09-3.12Q58.14-2.82 58.26-2.52L58.26-2.52L58.26-2.52Q58.65-1.68 59.85-1.68L59.85-1.68L59.85-1.68Q60.81-1.69 61.36-2.46L61.36-2.46L61.36-2.46Q61.42-2.55 61.50-2.55L61.50-2.55L61.50-2.55Q61.54-2.55 61.60-2.49L61.60-2.49L62.68-1.43L62.68-1.43Q62.76-1.35 62.76-1.29L62.76-1.29L62.76-1.29Q62.76-1.26 62.70-1.17L62.70-1.17L62.70-1.17Q62.20-0.55 61.42-0.22L61.42-0.22L61.42-0.22Q60.64 0.12 59.71 0.12L59.71 0.12L59.71 0.12Q58.42 0.12 57.53-0.46L57.53-0.46L57.53-0.46Q56.64-1.05 56.25-2.10L56.25-2.10L56.25-2.10Q55.93-2.85 55.93-4.06L55.93-4.06L55.93-4.06Q55.93-4.89 56.16-5.52L56.16-5.52L56.16-5.52Q56.50-6.58 57.37-7.21L57.37-7.21L57.37-7.21Q58.23-7.84 59.41-7.84L59.41-7.84L59.41-7.84Q60.91-7.84 61.82-6.97L61.82-6.97L61.82-6.97Q62.73-6.10 62.92-4.65L62.92-4.65ZM59.43-6.01L59.43-6.01Q58.48-6.01 58.18-5.13L58.18-5.13L58.18-5.13Q58.12-4.93 58.08-4.65L58.08-4.65L58.08-4.65Q58.08-4.58 58.15-4.58L58.15-4.58L60.75-4.58L60.75-4.58Q60.84-4.58 60.81-4.65L60.81-4.65L60.81-4.65Q60.73-5.08 60.73-5.07L60.73-5.07L60.73-5.07Q60.60-5.52 60.26-5.77L60.26-5.77L60.26-5.77Q59.92-6.01 59.43-6.01L59.43-6.01ZM68.13-7.81L68.13-7.81Q68.67-7.81 68.98-7.60L68.98-7.60L68.98-7.60Q69.10-7.54 69.07-7.38L69.07-7.38L68.76-5.67L68.76-5.67Q68.74-5.49 68.55-5.56L68.55-5.56L68.55-5.56Q68.32-5.64 68.02-5.64L68.02-5.64L68.02-5.64Q67.90-5.64 67.69-5.61L67.69-5.61L67.69-5.61Q67.15-5.56 66.78-5.21L66.78-5.21L66.78-5.21Q66.40-4.86 66.40-4.27L66.40-4.27L66.40-0.18L66.40-0.18Q66.40-0.10 66.35-0.05L66.35-0.05L66.35-0.05Q66.30 0 66.22 0L66.22 0L64.47 0L64.47 0Q64.39 0 64.34-0.05L64.34-0.05L64.34-0.05Q64.29-0.10 64.29-0.18L64.29-0.18L64.29-7.53L64.29-7.53Q64.29-7.60 64.34-7.66L64.34-7.66L64.34-7.66Q64.39-7.71 64.47-7.71L64.47-7.71L66.22-7.71L66.22-7.71Q66.30-7.71 66.35-7.66L66.35-7.66L66.35-7.66Q66.40-7.60 66.40-7.53L66.40-7.53L66.40-6.96L66.40-6.96Q66.40-6.92 66.43-6.90L66.43-6.90L66.43-6.90Q66.46-6.88 66.48-6.92L66.48-6.92L66.48-6.92Q67.09-7.81 68.13-7.81L68.13-7.81Z"/><path fill="#252530" transform="translate(31.56, 45)" d="M6.50-10.32L6.50-10.32Q6.50-10.39 6.55-10.45L6.55-10.45L6.55-10.45Q6.60-10.50 6.67-10.50L6.67-10.50L8.43-10.50L8.43-10.50Q8.50-10.50 8.56-10.45L8.56-10.45L8.56-10.45Q8.61-10.39 8.61-10.32L8.61-10.32L8.61-0.18L8.61-0.18Q8.61-0.10 8.56-0.05L8.56-0.05L8.56-0.05Q8.50 0 8.43 0L8.43 0L6.67 0L6.67 0Q6.60 0 6.55-0.05L6.55-0.05L6.55-0.05Q6.50-0.10 6.50-0.18L6.50-0.18L6.50-4.32L6.50-4.32Q6.50-4.39 6.42-4.39L6.42-4.39L3.10-4.39L3.10-4.39Q3.03-4.39 3.03-4.32L3.03-4.32L3.03-0.18L3.03-0.18Q3.03-0.10 2.98-0.05L2.98-0.05L2.98-0.05Q2.92 0 2.85 0L2.85 0L1.09 0L1.09 0Q1.02 0 0.97-0.05L0.97-0.05L0.97-0.05Q0.91-0.10 0.91-0.18L0.91-0.18L0.91-10.32L0.91-10.32Q0.91-10.39 0.97-10.45L0.97-10.45L0.97-10.45Q1.02-10.50 1.09-10.50L1.09-10.50L2.85-10.50L2.85-10.50Q2.92-10.50 2.98-10.45L2.98-10.45L2.98-10.45Q3.03-10.39 3.03-10.32L3.03-10.32L3.03-6.29L3.03-6.29Q3.03-6.21 3.10-6.21L3.10-6.21L6.42-6.21L6.42-6.21Q6.50-6.21 6.50-6.29L6.50-6.29L6.50-10.32ZM11.34-8.58L11.34-8.58Q10.83-8.58 10.49-8.92L10.49-8.92L10.49-8.92Q10.15-9.25 10.15-9.76L10.15-9.76L10.15-9.76Q10.15-10.29 10.48-10.62L10.48-10.62L10.48-10.62Q10.81-10.95 11.34-10.95L11.34-10.95L11.34-10.95Q11.87-10.95 12.20-10.62L12.20-10.62L12.20-10.62Q12.53-10.29 12.53-9.76L12.53-9.76L12.53-9.76Q12.53-9.25 12.19-8.92L12.19-8.92L12.19-8.92Q11.85-8.58 11.34-8.58L11.34-8.58ZM10.44 0L10.44 0Q10.37 0 10.31-0.05L10.31-0.05L10.31-0.05Q10.26-0.10 10.26-0.18L10.26-0.18L10.26-7.54L10.26-7.54Q10.26-7.62 10.31-7.67L10.31-7.67L10.31-7.67Q10.37-7.72 10.44-7.72L10.44-7.72L12.20-7.72L12.20-7.72Q12.27-7.72 12.32-7.67L12.32-7.67L12.32-7.67Q12.38-7.62 12.38-7.54L12.38-7.54L12.38-0.18L12.38-0.18Q12.38-0.10 12.32-0.05L12.32-0.05L12.32-0.05Q12.27 0 12.20 0L12.20 0L10.44 0ZM18.73-7.53L18.73-7.53Q18.73-7.60 18.79-7.66L18.79-7.66L18.79-7.66Q18.84-7.71 18.91-7.71L18.91-7.71L20.67-7.71L20.67-7.71Q20.74-7.71 20.80-7.66L20.80-7.66L20.80-7.66Q20.85-7.60 20.85-7.53L20.85-7.53L20.85-0.69L20.85-0.69Q20.85 1.27 19.72 2.11L19.72 2.11L19.72 2.11Q18.59 2.96 16.80 2.96L16.80 2.96L16.80 2.96Q16.27 2.96 15.63 2.88L15.63 2.88L15.63 2.88Q15.48 2.86 15.48 2.69L15.48 2.69L15.54 1.14L15.54 1.14Q15.54 0.94 15.75 0.97L15.75 0.97L15.75 0.97Q16.29 1.06 16.74 1.06L16.74 1.06L16.74 1.06Q17.70 1.06 18.22 0.65L18.22 0.65L18.22 0.65Q18.73 0.22 18.73-0.70L18.73-0.70L18.73-0.70Q18.73-0.75 18.70-0.76L18.70-0.76L18.70-0.76Q18.67-0.77 18.64-0.73L18.64-0.73L18.64-0.73Q18.07-0.12 16.98-0.12L16.98-0.12L16.98-0.12Q16.00-0.12 15.19-0.59L15.19-0.59L15.19-0.59Q14.37-1.06 14.02-2.11L14.02-2.11L14.02-2.11Q13.80-2.80 13.80-3.90L13.80-3.90L13.80-3.90Q13.80-5.07 14.07-5.80L14.07-5.80L14.07-5.80Q14.38-6.72 15.13-7.27L15.13-7.27L15.13-7.27Q15.88-7.83 16.88-7.83L16.88-7.83L16.88-7.83Q18.03-7.83 18.64-7.14L18.64-7.14L18.64-7.14Q18.67-7.11 18.70-7.12L18.70-7.12L18.70-7.12Q18.73-7.13 18.73-7.17L18.73-7.17L18.73-7.53ZM18.61-2.69L18.61-2.69Q18.73-3.13 18.73-3.92L18.73-3.92L18.73-3.92Q18.73-4.38 18.70-4.63L18.70-4.63L18.70-4.63Q18.67-4.89 18.60-5.12L18.60-5.12L18.60-5.12Q18.46-5.52 18.15-5.77L18.15-5.77L18.15-5.77Q17.84-6.01 17.37-6.01L17.37-6.01L17.37-6.01Q16.92-6.01 16.61-5.77L16.61-5.77L16.61-5.77Q16.29-5.52 16.14-5.12L16.14-5.12L16.14-5.12Q15.93-4.67 15.93-3.90L15.93-3.90L15.93-3.90Q15.93-3.06 16.11-2.70L16.11-2.70L16.11-2.70Q16.24-2.29 16.58-2.05L16.58-2.05L16.58-2.05Q16.92-1.80 17.38-1.80L17.38-1.80L17.38-1.80Q17.86-1.80 18.18-2.05L18.18-2.05L18.18-2.05Q18.49-2.29 18.61-2.69L18.61-2.69ZM26.39-7.83L26.39-7.83Q27.59-7.83 28.32-7.09L28.32-7.09L28.32-7.09Q29.05-6.36 29.05-5.10L29.05-5.10L29.05-0.18L29.05-0.18Q29.05-0.10 29.00-0.05L29.00-0.05L29.00-0.05Q28.95 0 28.88 0L28.88 0L27.12 0L27.12 0Q27.05 0 26.99-0.05L26.99-0.05L26.99-0.05Q26.94-0.10 26.94-0.18L26.94-0.18L26.94-4.67L26.94-4.67Q26.94-5.26 26.60-5.64L26.60-5.64L26.60-5.64Q26.27-6.01 25.71-6.01L25.71-6.01L25.71-6.01Q25.16-6.01 24.82-5.64L24.82-5.64L24.82-5.64Q24.48-5.26 24.48-4.67L24.48-4.67L24.48-0.18L24.48-0.18Q24.48-0.10 24.43-0.05L24.43-0.05L24.43-0.05Q24.38 0 24.30 0L24.30 0L22.55 0L22.55 0Q22.47 0 22.42-0.05L22.42-0.05L22.42-0.05Q22.37-0.10 22.37-0.18L22.37-0.18L22.37-10.32L22.37-10.32Q22.37-10.39 22.42-10.45L22.42-10.45L22.42-10.45Q22.47-10.50 22.55-10.50L22.55-10.50L24.30-10.50L24.30-10.50Q24.38-10.50 24.43-10.45L24.43-10.45L24.43-10.45Q24.48-10.39 24.48-10.32L24.48-10.32L24.48-7.00L24.48-7.00Q24.48-6.96 24.51-6.94L24.51-6.94L24.51-6.94Q24.54-6.93 24.55-6.96L24.55-6.96L24.55-6.96Q25.17-7.83 26.39-7.83L26.39-7.83Z"/><path fill="#fff" transform="translate(13.75, 75.4)" d="M2.99 0.08L2.99 0.08Q2.21 0.08 1.63-0.17L1.63-0.17L1.63-0.17Q1.05-0.42 0.73-0.87L0.73-0.87L0.73-0.87Q0.42-1.32 0.42-1.93L0.42-1.93L0.42-2.18L0.42-2.18Q0.42-2.23 0.46-2.27L0.46-2.27L0.46-2.27Q0.49-2.30 0.54-2.30L0.54-2.30L1.43-2.30L1.43-2.30Q1.48-2.30 1.52-2.27L1.52-2.27L1.52-2.27Q1.55-2.23 1.55-2.18L1.55-2.18L1.55-1.99L1.55-1.99Q1.55-1.53 1.96-1.23L1.96-1.23L1.96-1.23Q2.37-0.92 3.08-0.92L3.08-0.92L3.08-0.92Q3.69-0.92 4-1.18L4-1.18L4-1.18Q4.31-1.44 4.31-1.85L4.31-1.85L4.31-1.85Q4.31-2.13 4.14-2.33L4.14-2.33L4.14-2.33Q3.97-2.52 3.66-2.68L3.66-2.68L3.66-2.68Q3.34-2.84 2.71-3.08L2.71-3.08L2.71-3.08Q2-3.34 1.56-3.57L1.56-3.57L1.56-3.57Q1.12-3.80 0.83-4.20L0.83-4.20L0.83-4.20Q0.53-4.59 0.53-5.18L0.53-5.18L0.53-5.18Q0.53-6.06 1.17-6.57L1.17-6.57L1.17-6.57Q1.81-7.08 2.88-7.08L2.88-7.08L2.88-7.08Q3.63-7.08 4.21-6.82L4.21-6.82L4.21-6.82Q4.78-6.56 5.10-6.09L5.10-6.09L5.10-6.09Q5.42-5.63 5.42-5.02L5.42-5.02L5.42-4.85L5.42-4.85Q5.42-4.80 5.38-4.76L5.38-4.76L5.38-4.76Q5.35-4.73 5.30-4.73L5.30-4.73L4.40-4.73L4.40-4.73Q4.35-4.73 4.32-4.76L4.32-4.76L4.32-4.76Q4.28-4.80 4.28-4.85L4.28-4.85L4.28-4.96L4.28-4.96Q4.28-5.43 3.90-5.75L3.90-5.75L3.90-5.75Q3.51-6.08 2.83-6.08L2.83-6.08L2.83-6.08Q2.28-6.08 1.98-5.85L1.98-5.85L1.98-5.85Q1.67-5.62 1.67-5.20L1.67-5.20L1.67-5.20Q1.67-4.90 1.83-4.71L1.83-4.71L1.83-4.71Q1.99-4.52 2.31-4.37L2.31-4.37L2.31-4.37Q2.63-4.21 3.30-3.97L3.30-3.97L3.30-3.97Q4.01-3.70 4.44-3.48L4.44-3.48L4.44-3.48Q4.86-3.26 5.17-2.87L5.17-2.87L5.17-2.87Q5.47-2.47 5.47-1.88L5.47-1.88L5.47-1.88Q5.47-0.98 4.80-0.45L4.80-0.45L4.80-0.45Q4.14 0.08 2.99 0.08L2.99 0.08ZM12-5.19L12-5.19Q12.77-5.19 13.21-4.73L13.21-4.73L13.21-4.73Q13.64-4.26 13.64-3.43L13.64-3.43L13.64-0.12L13.64-0.12Q13.64-0.07 13.61-0.04L13.61-0.04L13.61-0.04Q13.57 0 13.52 0L13.52 0L12.61 0L12.61 0Q12.56 0 12.53-0.04L12.53-0.04L12.53-0.04Q12.49-0.07 12.49-0.12L12.49-0.12L12.49-3.19L12.49-3.19Q12.49-3.65 12.25-3.92L12.25-3.92L12.25-3.92Q12-4.19 11.59-4.19L11.59-4.19L11.59-4.19Q11.18-4.19 10.92-3.92L10.92-3.92L10.92-3.92Q10.66-3.65 10.66-3.20L10.66-3.20L10.66-0.12L10.66-0.12Q10.66-0.07 10.63-0.04L10.63-0.04L10.63-0.04Q10.59 0 10.54 0L10.54 0L9.63 0L9.63 0Q9.58 0 9.54-0.04L9.54-0.04L9.54-0.04Q9.51-0.07 9.51-0.12L9.51-0.12L9.51-3.19L9.51-3.19Q9.51-3.65 9.26-3.92L9.26-3.92L9.26-3.92Q9.01-4.19 8.60-4.19L8.60-4.19L8.60-4.19Q8.22-4.19 7.97-3.97L7.97-3.97L7.97-3.97Q7.73-3.75 7.69-3.37L7.69-3.37L7.69-0.12L7.69-0.12Q7.69-0.07 7.66-0.04L7.66-0.04L7.66-0.04Q7.62 0 7.57 0L7.57 0L6.65 0L6.65 0Q6.60 0 6.57-0.04L6.57-0.04L6.57-0.04Q6.53-0.07 6.53-0.12L6.53-0.12L6.53-4.99L6.53-4.99Q6.53-5.04 6.57-5.08L6.57-5.08L6.57-5.08Q6.60-5.11 6.65-5.11L6.65-5.11L7.57-5.11L7.57-5.11Q7.62-5.11 7.66-5.08L7.66-5.08L7.66-5.08Q7.69-5.04 7.69-4.99L7.69-4.99L7.69-4.66L7.69-4.66Q7.69-4.63 7.71-4.62L7.71-4.62L7.71-4.62Q7.73-4.61 7.75-4.64L7.75-4.64L7.75-4.64Q7.97-4.92 8.29-5.05L8.29-5.05L8.29-5.05Q8.62-5.19 9.02-5.19L9.02-5.19L9.02-5.19Q9.51-5.19 9.88-4.99L9.88-4.99L9.88-4.99Q10.25-4.79 10.45-4.41L10.45-4.41L10.45-4.41Q10.48-4.37 10.52-4.41L10.52-4.41L10.52-4.41Q10.74-4.81 11.13-5L11.13-5L11.13-5Q11.52-5.19 12-5.19L12-5.19ZM16.77-5.19L16.77-5.19Q17.40-5.19 17.88-4.97L17.88-4.97L17.88-4.97Q18.36-4.75 18.62-4.37L18.62-4.37L18.62-4.37Q18.88-3.98 18.88-3.49L18.88-3.49L18.88-0.12L18.88-0.12Q18.88-0.07 18.85-0.04L18.85-0.04L18.85-0.04Q18.81 0 18.76 0L18.76 0L17.84 0L17.84 0Q17.79 0 17.76-0.04L17.76-0.04L17.76-0.04Q17.72-0.07 17.72-0.12L17.72-0.12L17.72-0.44L17.72-0.44Q17.72-0.47 17.70-0.48L17.70-0.48L17.70-0.48Q17.68-0.48 17.66-0.46L17.66-0.46L17.66-0.46Q17.17 0.08 16.24 0.08L16.24 0.08L16.24 0.08Q15.49 0.08 15.01-0.30L15.01-0.30L15.01-0.30Q14.52-0.68 14.52-1.43L14.52-1.43L14.52-1.43Q14.52-2.21 15.07-2.65L15.07-2.65L15.07-2.65Q15.61-3.08 16.60-3.08L16.60-3.08L17.67-3.08L17.67-3.08Q17.72-3.08 17.72-3.13L17.72-3.13L17.72-3.37L17.72-3.37Q17.72-3.76 17.49-3.98L17.49-3.98L17.49-3.98Q17.26-4.19 16.80-4.19L16.80-4.19L16.80-4.19Q16.42-4.19 16.19-4.05L16.19-4.05L16.19-4.05Q15.95-3.92 15.89-3.68L15.89-3.68L15.89-3.68Q15.86-3.56 15.75-3.58L15.75-3.58L14.78-3.70L14.78-3.70Q14.73-3.71 14.70-3.73L14.70-3.73L14.70-3.73Q14.66-3.76 14.67-3.80L14.67-3.80L14.67-3.80Q14.75-4.41 15.33-4.80L15.33-4.80L15.33-4.80Q15.90-5.19 16.77-5.19L16.77-5.19ZM16.53-0.84L16.53-0.84Q17.02-0.84 17.37-1.10L17.37-1.10L17.37-1.10Q17.72-1.36 17.72-1.76L17.72-1.76L17.72-2.23L17.72-2.23Q17.72-2.28 17.67-2.28L17.67-2.28L16.83-2.28L16.83-2.28Q16.30-2.28 16.00-2.08L16.00-2.08L16.00-2.08Q15.69-1.88 15.69-1.51L15.69-1.51L15.69-1.51Q15.69-1.19 15.93-1.02L15.93-1.02L15.93-1.02Q16.16-0.84 16.53-0.84L16.53-0.84ZM20.16 0L20.16 0Q20.11 0 20.08-0.04L20.08-0.04L20.08-0.04Q20.04-0.07 20.04-0.12L20.04-0.12L20.04-6.88L20.04-6.88Q20.04-6.93 20.08-6.96L20.08-6.96L20.08-6.96Q20.11-7 20.16-7L20.16-7L21.08-7L21.08-7Q21.13-7 21.17-6.96L21.17-6.96L21.17-6.96Q21.20-6.93 21.20-6.88L21.20-6.88L21.20-0.12L21.20-0.12Q21.20-0.07 21.17-0.04L21.17-0.04L21.17-0.04Q21.13 0 21.08 0L21.08 0L20.16 0ZM22.55 0L22.55 0Q22.50 0 22.47-0.04L22.47-0.04L22.47-0.04Q22.43-0.07 22.43-0.12L22.43-0.12L22.43-6.88L22.43-6.88Q22.43-6.93 22.47-6.96L22.47-6.96L22.47-6.96Q22.50-7 22.55-7L22.55-7L23.47-7L23.47-7Q23.52-7 23.56-6.96L23.56-6.96L23.56-6.96Q23.59-6.93 23.59-6.88L23.59-6.88L23.59-0.12L23.59-0.12Q23.59-0.07 23.56-0.04L23.56-0.04L23.56-0.04Q23.52 0 23.47 0L23.47 0L22.55 0ZM30.84-3.65L30.84-3.65Q30.78-3.62 30.84-3.59L30.84-3.59L30.84-3.59Q31.86-3.11 31.86-1.94L31.86-1.94L31.86-1.94Q31.86-0.99 31.23-0.49L31.23-0.49L31.23-0.49Q30.59 0 29.57 0L29.57 0L27.05 0L27.05 0Q27.00 0 26.97-0.04L26.97-0.04L26.97-0.04Q26.93-0.07 26.93-0.12L26.93-0.12L26.93-6.88L26.93-6.88Q26.93-6.93 26.97-6.96L26.97-6.96L26.97-6.96Q27.00-7 27.05-7L27.05-7L29.49-7L29.49-7Q30.58-7 31.17-6.53L31.17-6.53L31.17-6.53Q31.76-6.06 31.76-5.11L31.76-5.11L31.76-5.11Q31.76-4.06 30.84-3.65L30.84-3.65ZM28.14-6L28.14-6Q28.09-6 28.09-5.95L28.09-5.95L28.09-4.10L28.09-4.10Q28.09-4.05 28.14-4.05L28.14-4.05L29.49-4.05L29.49-4.05Q30.02-4.05 30.33-4.30L30.33-4.30L30.33-4.30Q30.63-4.56 30.63-5.01L30.63-5.01L30.63-5.01Q30.63-5.47 30.33-5.74L30.33-5.74L30.33-5.74Q30.02-6 29.49-6L29.49-6L28.14-6ZM29.57-1.01L29.57-1.01Q30.09-1.01 30.40-1.29L30.40-1.29L30.40-1.29Q30.70-1.57 30.70-2.05L30.70-2.05L30.70-2.05Q30.70-2.54 30.39-2.81L30.39-2.81L30.39-2.81Q30.08-3.09 29.55-3.09L29.55-3.09L28.14-3.09L28.14-3.09Q28.09-3.09 28.09-3.04L28.09-3.04L28.09-1.06L28.09-1.06Q28.09-1.01 28.14-1.01L28.14-1.01L29.57-1.01ZM36.06-4.99L36.06-4.99Q36.06-5.04 36.09-5.08L36.09-5.08L36.09-5.08Q36.13-5.11 36.18-5.11L36.18-5.11L37.09-5.11L37.09-5.11Q37.14-5.11 37.18-5.08L37.18-5.08L37.18-5.08Q37.21-5.04 37.21-4.99L37.21-4.99L37.21-0.12L37.21-0.12Q37.21-0.07 37.18-0.04L37.18-0.04L37.18-0.04Q37.14 0 37.09 0L37.09 0L36.18 0L36.18 0Q36.13 0 36.09-0.04L36.09-0.04L36.09-0.04Q36.06-0.07 36.06-0.12L36.06-0.12L36.06-0.44L36.06-0.44Q36.06-0.47 36.04-0.48L36.04-0.48L36.04-0.48Q36.02-0.49 36-0.46L36-0.46L36-0.46Q35.59 0.07 34.77 0.07L34.77 0.07L34.77 0.07Q34.01 0.07 33.50-0.37L33.50-0.37L33.50-0.37Q32.98-0.81 32.98-1.62L32.98-1.62L32.98-4.99L32.98-4.99Q32.98-5.04 33.02-5.08L33.02-5.08L33.02-5.08Q33.05-5.11 33.10-5.11L33.10-5.11L34.02-5.11L34.02-5.11Q34.07-5.11 34.11-5.08L34.11-5.08L34.11-5.08Q34.14-5.04 34.14-4.99L34.14-4.99L34.14-1.95L34.14-1.95Q34.14-1.48 34.39-1.20L34.39-1.20L34.39-1.20Q34.63-0.92 35.07-0.92L35.07-0.92L35.07-0.92Q35.52-0.92 35.79-1.20L35.79-1.20L35.79-1.20Q36.06-1.48 36.06-1.95L36.06-1.95L36.06-4.99ZM40.35 0.06L40.35 0.06Q39.72 0.06 39.24-0.13L39.24-0.13L39.24-0.13Q38.77-0.31 38.51-0.64L38.51-0.64L38.51-0.64Q38.25-0.96 38.25-1.36L38.25-1.36L38.25-1.45L38.25-1.45Q38.25-1.50 38.28-1.54L38.28-1.54L38.28-1.54Q38.32-1.57 38.37-1.57L38.37-1.57L39.25-1.57L39.25-1.57Q39.30-1.57 39.34-1.54L39.34-1.54L39.34-1.54Q39.37-1.50 39.37-1.45L39.37-1.45L39.37-1.43L39.37-1.43Q39.37-1.18 39.64-0.99L39.64-0.99L39.64-0.99Q39.92-0.81 40.34-0.81L40.34-0.81L40.34-0.81Q40.74-0.81 40.99-0.97L40.99-0.97L40.99-0.97Q41.24-1.14 41.24-1.39L41.24-1.39L41.24-1.39Q41.24-1.62 41.03-1.74L41.03-1.74L41.03-1.74Q40.83-1.85 40.37-1.98L40.37-1.98L39.99-2.10L39.99-2.10Q39.48-2.25 39.13-2.42L39.13-2.42L39.13-2.42Q38.78-2.59 38.54-2.89L38.54-2.89L38.54-2.89Q38.30-3.18 38.30-3.64L38.30-3.64L38.30-3.64Q38.30-4.34 38.85-4.75L38.85-4.75L38.85-4.75Q39.40-5.17 40.30-5.17L40.30-5.17L40.30-5.17Q40.91-5.17 41.37-4.98L41.37-4.98L41.37-4.98Q41.83-4.78 42.08-4.44L42.08-4.44L42.08-4.44Q42.33-4.09 42.33-3.65L42.33-3.65L42.33-3.65Q42.33-3.60 42.30-3.56L42.30-3.56L42.30-3.56Q42.26-3.53 42.21-3.53L42.21-3.53L41.36-3.53L41.36-3.53Q41.31-3.53 41.27-3.56L41.27-3.56L41.27-3.56Q41.24-3.60 41.24-3.65L41.24-3.65L41.24-3.65Q41.24-3.91 40.98-4.08L40.98-4.08L40.98-4.08Q40.73-4.26 40.29-4.26L40.29-4.26L40.29-4.26Q39.90-4.26 39.66-4.12L39.66-4.12L39.66-4.12Q39.41-3.97 39.41-3.71L39.41-3.71L39.41-3.71Q39.41-3.47 39.64-3.35L39.64-3.35L39.64-3.35Q39.88-3.22 40.43-3.07L40.43-3.07L40.65-3.01L40.65-3.01Q41.18-2.85 41.54-2.69L41.54-2.69L41.54-2.69Q41.90-2.52 42.15-2.23L42.15-2.23L42.15-2.23Q42.40-1.93 42.40-1.46L42.40-1.46L42.40-1.46Q42.40-0.75 41.84-0.35L41.84-0.35L41.84-0.35Q41.28 0.06 40.35 0.06L40.35 0.06ZM44.04-5.81L44.04-5.81Q43.73-5.81 43.53-6.01L43.53-6.01L43.53-6.01Q43.33-6.21 43.33-6.52L43.33-6.52L43.33-6.52Q43.33-6.83 43.53-7.03L43.53-7.03L43.53-7.03Q43.73-7.23 44.04-7.23L44.04-7.23L44.04-7.23Q44.35-7.23 44.55-7.03L44.55-7.03L44.55-7.03Q44.75-6.83 44.75-6.52L44.75-6.52L44.75-6.52Q44.75-6.21 44.55-6.01L44.55-6.01L44.55-6.01Q44.35-5.81 44.04-5.81L44.04-5.81ZM43.56 0L43.56 0Q43.51 0 43.48-0.04L43.48-0.04L43.48-0.04Q43.44-0.07 43.44-0.12L43.44-0.12L43.44-5L43.44-5Q43.44-5.05 43.48-5.08L43.48-5.08L43.48-5.08Q43.51-5.12 43.56-5.12L43.56-5.12L44.48-5.12L44.48-5.12Q44.53-5.12 44.56-5.08L44.56-5.08L44.56-5.08Q44.60-5.05 44.60-5L44.60-5L44.60-0.12L44.60-0.12Q44.60-0.07 44.56-0.04L44.56-0.04L44.56-0.04Q44.53 0 44.48 0L44.48 0L43.56 0ZM48.38-5.19L48.38-5.19Q49.19-5.19 49.67-4.71L49.67-4.71L49.67-4.71Q50.16-4.23 50.16-3.40L50.16-3.40L50.16-0.12L50.16-0.12Q50.16-0.07 50.12-0.04L50.12-0.04L50.12-0.04Q50.09 0 50.04 0L50.04 0L49.12 0L49.12 0Q49.07 0 49.03-0.04L49.03-0.04L49.03-0.04Q49.00-0.07 49.00-0.12L49.00-0.12L49.00-3.16L49.00-3.16Q49.00-3.62 48.74-3.91L48.74-3.91L48.74-3.91Q48.48-4.19 48.05-4.19L48.05-4.19L48.05-4.19Q47.62-4.19 47.35-3.91L47.35-3.91L47.35-3.91Q47.09-3.63 47.09-3.17L47.09-3.17L47.09-0.12L47.09-0.12Q47.09-0.07 47.05-0.04L47.05-0.04L47.05-0.04Q47.02 0 46.97 0L46.97 0L46.05 0L46.05 0Q46.00 0 45.96-0.04L45.96-0.04L45.96-0.04Q45.93-0.07 45.93-0.12L45.93-0.12L45.93-4.99L45.93-4.99Q45.93-5.04 45.96-5.08L45.96-5.08L45.96-5.08Q46.00-5.11 46.05-5.11L46.05-5.11L46.97-5.11L46.97-5.11Q47.02-5.11 47.05-5.08L47.05-5.08L47.05-5.08Q47.09-5.04 47.09-4.99L47.09-4.99L47.09-4.67L47.09-4.67Q47.09-4.64 47.11-4.63L47.11-4.63L47.11-4.63Q47.13-4.62 47.14-4.65L47.14-4.65L47.14-4.65Q47.55-5.19 48.38-5.19L48.38-5.19ZM55.68-3.13L55.68-3.13Q55.72-2.88 55.72-2.57L55.72-2.57L55.71-2.26L55.71-2.26Q55.71-2.14 55.59-2.14L55.59-2.14L52.46-2.14L52.46-2.14Q52.41-2.14 52.41-2.09L52.41-2.09L52.41-2.09Q52.44-1.76 52.50-1.64L52.50-1.64L52.50-1.64Q52.74-0.92 53.67-0.91L53.67-0.91L53.67-0.91Q54.35-0.91 54.75-1.47L54.75-1.47L54.75-1.47Q54.79-1.53 54.85-1.53L54.85-1.53L54.85-1.53Q54.89-1.53 54.92-1.50L54.92-1.50L55.54-0.99L55.54-0.99Q55.63-0.92 55.57-0.83L55.57-0.83L55.57-0.83Q55.26-0.39 54.74-0.15L54.74-0.15L54.74-0.15Q54.23 0.09 53.60 0.09L53.60 0.09L53.60 0.09Q52.82 0.09 52.27-0.26L52.27-0.26L52.27-0.26Q51.73-0.61 51.48-1.24L51.48-1.24L51.48-1.24Q51.25-1.78 51.25-2.74L51.25-2.74L51.25-2.74Q51.25-3.32 51.37-3.68L51.37-3.68L51.37-3.68Q51.57-4.38 52.12-4.79L52.12-4.79L52.12-4.79Q52.68-5.19 53.46-5.19L53.46-5.19L53.46-5.19Q55.43-5.19 55.68-3.13L55.68-3.13ZM53.46-4.19L53.46-4.19Q53.09-4.19 52.84-4.00L52.84-4.00L52.84-4.00Q52.60-3.82 52.50-3.49L52.50-3.49L52.50-3.49Q52.44-3.32 52.42-3.05L52.42-3.05L52.42-3.05Q52.40-3 52.46-3L52.46-3L54.49-3L54.49-3Q54.54-3 54.54-3.05L54.54-3.05L54.54-3.05Q54.52-3.30 54.48-3.43L54.48-3.43L54.48-3.43Q54.39-3.79 54.12-3.99L54.12-3.99L54.12-3.99Q53.86-4.19 53.46-4.19L53.46-4.19ZM58.68 0.06L58.68 0.06Q58.05 0.06 57.57-0.13L57.57-0.13L57.57-0.13Q57.10-0.31 56.84-0.64L56.84-0.64L56.84-0.64Q56.58-0.96 56.58-1.36L56.58-1.36L56.58-1.45L56.58-1.45Q56.58-1.50 56.61-1.54L56.61-1.54L56.61-1.54Q56.65-1.57 56.70-1.57L56.70-1.57L57.58-1.57L57.58-1.57Q57.63-1.57 57.66-1.54L57.66-1.54L57.66-1.54Q57.70-1.50 57.70-1.45L57.70-1.45L57.70-1.43L57.70-1.43Q57.70-1.18 57.97-0.99L57.97-0.99L57.97-0.99Q58.25-0.81 58.67-0.81L58.67-0.81L58.67-0.81Q59.07-0.81 59.32-0.97L59.32-0.97L59.32-0.97Q59.57-1.14 59.57-1.39L59.57-1.39L59.57-1.39Q59.57-1.62 59.36-1.74L59.36-1.74L59.36-1.74Q59.16-1.85 58.70-1.98L58.70-1.98L58.32-2.10L58.32-2.10Q57.81-2.25 57.46-2.42L57.46-2.42L57.46-2.42Q57.11-2.59 56.87-2.89L56.87-2.89L56.87-2.89Q56.63-3.18 56.63-3.64L56.63-3.64L56.63-3.64Q56.63-4.34 57.18-4.75L57.18-4.75L57.18-4.75Q57.73-5.17 58.63-5.17L58.63-5.17L58.63-5.17Q59.24-5.17 59.70-4.98L59.70-4.98L59.70-4.98Q60.16-4.78 60.41-4.44L60.41-4.44L60.41-4.44Q60.66-4.09 60.66-3.65L60.66-3.65L60.66-3.65Q60.66-3.60 60.63-3.56L60.63-3.56L60.63-3.56Q60.59-3.53 60.54-3.53L60.54-3.53L59.69-3.53L59.69-3.53Q59.64-3.53 59.60-3.56L59.60-3.56L59.60-3.56Q59.57-3.60 59.57-3.65L59.57-3.65L59.57-3.65Q59.57-3.91 59.31-4.08L59.31-4.08L59.31-4.08Q59.06-4.26 58.62-4.26L58.62-4.26L58.62-4.26Q58.23-4.26 57.98-4.12L57.98-4.12L57.98-4.12Q57.74-3.97 57.74-3.71L57.74-3.71L57.74-3.71Q57.74-3.47 57.97-3.35L57.97-3.35L57.97-3.35Q58.21-3.22 58.76-3.07L58.76-3.07L58.98-3.01L58.98-3.01Q59.51-2.85 59.87-2.69L59.87-2.69L59.87-2.69Q60.23-2.52 60.48-2.23L60.48-2.23L60.48-2.23Q60.73-1.93 60.73-1.46L60.73-1.46L60.73-1.46Q60.73-0.75 60.17-0.35L60.17-0.35L60.17-0.35Q59.61 0.06 58.68 0.06L58.68 0.06ZM63.61 0.06L63.61 0.06Q62.98 0.06 62.50-0.13L62.50-0.13L62.50-0.13Q62.03-0.31 61.77-0.64L61.77-0.64L61.77-0.64Q61.51-0.96 61.51-1.36L61.51-1.36L61.51-1.45L61.51-1.45Q61.51-1.50 61.54-1.54L61.54-1.54L61.54-1.54Q61.58-1.57 61.63-1.57L61.63-1.57L62.51-1.57L62.51-1.57Q62.56-1.57 62.59-1.54L62.59-1.54L62.59-1.54Q62.63-1.50 62.63-1.45L62.63-1.45L62.63-1.43L62.63-1.43Q62.63-1.18 62.90-0.99L62.90-0.99L62.90-0.99Q63.18-0.81 63.60-0.81L63.60-0.81L63.60-0.81Q64-0.81 64.25-0.97L64.25-0.97L64.25-0.97Q64.50-1.14 64.50-1.39L64.50-1.39L64.50-1.39Q64.50-1.62 64.30-1.74L64.30-1.74L64.30-1.74Q64.09-1.85 63.63-1.98L63.63-1.98L63.25-2.10L63.25-2.10Q62.74-2.25 62.39-2.42L62.39-2.42L62.39-2.42Q62.04-2.59 61.80-2.89L61.80-2.89L61.80-2.89Q61.56-3.18 61.56-3.64L61.56-3.64L61.56-3.64Q61.56-4.34 62.11-4.75L62.11-4.75L62.11-4.75Q62.66-5.17 63.56-5.17L63.56-5.17L63.56-5.17Q64.17-5.17 64.63-4.98L64.63-4.98L64.63-4.98Q65.09-4.78 65.34-4.44L65.34-4.44L65.34-4.44Q65.59-4.09 65.59-3.65L65.59-3.65L65.59-3.65Q65.59-3.60 65.55-3.56L65.55-3.56L65.55-3.56Q65.52-3.53 65.47-3.53L65.47-3.53L64.62-3.53L64.62-3.53Q64.57-3.53 64.53-3.56L64.53-3.56L64.53-3.56Q64.50-3.60 64.50-3.65L64.50-3.65L64.50-3.65Q64.50-3.91 64.24-4.08L64.24-4.08L64.24-4.08Q63.99-4.26 63.55-4.26L63.55-4.26L63.55-4.26Q63.16-4.26 62.91-4.12L62.91-4.12L62.91-4.12Q62.67-3.97 62.67-3.71L62.67-3.71L62.67-3.71Q62.67-3.47 62.90-3.35L62.90-3.35L62.90-3.35Q63.14-3.22 63.69-3.07L63.69-3.07L63.91-3.01L63.91-3.01Q64.44-2.85 64.80-2.69L64.80-2.69L64.80-2.69Q65.16-2.52 65.41-2.23L65.41-2.23L65.41-2.23Q65.66-1.93 65.66-1.46L65.66-1.46L65.66-1.46Q65.66-0.75 65.10-0.35L65.10-0.35L65.10-0.35Q64.54 0.06 63.61 0.06L63.61 0.06Z"/><path fill="#252530" transform="translate(34.64, 89.5)" d="M5.46-5.91L5.46-5.91Q5.46-5.86 5.42-5.83L5.42-5.83L5.42-5.83Q5.39-5.79 5.34-5.79L5.34-5.79L2.07-5.79L2.07-5.79Q2.02-5.79 2.02-5.74L2.02-5.74L2.02-4.19L2.02-4.19Q2.02-4.14 2.07-4.14L2.07-4.14L4.22-4.14L4.22-4.14Q4.27-4.14 4.30-4.11L4.30-4.11L4.30-4.11Q4.34-4.07 4.34-4.02L4.34-4.02L4.34-3.05L4.34-3.05Q4.34-3 4.30-2.96L4.30-2.96L4.30-2.96Q4.27-2.93 4.22-2.93L4.22-2.93L2.07-2.93L2.07-2.93Q2.02-2.93 2.02-2.88L2.02-2.88L2.02-0.12L2.02-0.12Q2.02-0.07 1.99-0.04L1.99-0.04L1.99-0.04Q1.95 0 1.90 0L1.90 0L0.73 0L0.73 0Q0.68 0 0.65-0.04L0.65-0.04L0.65-0.04Q0.61-0.07 0.61-0.12L0.61-0.12L0.61-6.88L0.61-6.88Q0.61-6.93 0.65-6.96L0.65-6.96L0.65-6.96Q0.68-7 0.73-7L0.73-7L5.34-7L5.34-7Q5.39-7 5.42-6.96L5.42-6.96L5.42-6.96Q5.46-6.93 5.46-6.88L5.46-6.88L5.46-5.91ZM10.66 0L10.66 0Q10.56 0 10.53-0.10L10.53-0.10L10.23-1.08L10.23-1.08Q10.21-1.12 10.18-1.12L10.18-1.12L7.72-1.12L7.72-1.12Q7.69-1.12 7.67-1.08L7.67-1.08L7.38-0.10L7.38-0.10Q7.35 0 7.25 0L7.25 0L5.98 0L5.98 0Q5.92 0 5.89-0.04L5.89-0.04L5.89-0.04Q5.86-0.07 5.88-0.14L5.88-0.14L8.04-6.90L8.04-6.90Q8.07-7 8.17-7L8.17-7L9.74-7L9.74-7Q9.84-7 9.87-6.90L9.87-6.90L12.03-0.14L12.03-0.14Q12.04-0.12 12.04-0.09L12.04-0.09L12.04-0.09Q12.04 0 11.93 0L11.93 0L10.66 0ZM8.03-2.27L8.03-2.27Q8.02-2.21 8.07-2.21L8.07-2.21L9.83-2.21L9.83-2.21Q9.89-2.21 9.87-2.27L9.87-2.27L8.97-5.24L8.97-5.24Q8.96-5.28 8.94-5.28L8.94-5.28L8.94-5.28Q8.92-5.27 8.91-5.24L8.91-5.24L8.03-2.27ZM13.04 0L13.04 0Q12.99 0 12.96-0.04L12.96-0.04L12.96-0.04Q12.92-0.07 12.92-0.12L12.92-0.12L12.92-6.88L12.92-6.88Q12.92-6.93 12.96-6.96L12.96-6.96L12.96-6.96Q12.99-7 13.04-7L13.04-7L14.21-7L14.21-7Q14.26-7 14.29-6.96L14.29-6.96L14.29-6.96Q14.33-6.93 14.33-6.88L14.33-6.88L14.33-1.26L14.33-1.26Q14.33-1.21 14.38-1.21L14.38-1.21L17.65-1.21L17.65-1.21Q17.70-1.21 17.73-1.18L17.73-1.18L17.73-1.18Q17.77-1.14 17.77-1.09L17.77-1.09L17.77-0.12L17.77-0.12Q17.77-0.07 17.73-0.04L17.73-0.04L17.73-0.04Q17.70 0 17.65 0L17.65 0L13.04 0ZM18.76 0L18.76 0Q18.71 0 18.68-0.04L18.68-0.04L18.68-0.04Q18.64-0.07 18.64-0.12L18.64-0.12L18.64-6.88L18.64-6.88Q18.64-6.93 18.68-6.96L18.68-6.96L18.68-6.96Q18.71-7 18.76-7L18.76-7L19.93-7L19.93-7Q19.98-7 20.02-6.96L20.02-6.96L20.02-6.96Q20.05-6.93 20.05-6.88L20.05-6.88L20.05-1.26L20.05-1.26Q20.05-1.21 20.10-1.21L20.10-1.21L23.37-1.21L23.37-1.21Q23.42-1.21 23.46-1.18L23.46-1.18L23.46-1.18Q23.49-1.14 23.49-1.09L23.49-1.09L23.49-0.12L23.49-0.12Q23.49-0.07 23.46-0.04L23.46-0.04L23.46-0.04Q23.42 0 23.37 0L23.37 0L18.76 0Z"/><path fill="#252530" transform="translate(36.79, 98.9)" d="M2.33-1.27L2.33-1.27Q2.31-1.25 2.32-1.23L2.32-1.23L2.32-1.23Q2.33-1.21 2.36-1.21L2.36-1.21L5.07-1.21L5.07-1.21Q5.12-1.21 5.16-1.18L5.16-1.18L5.16-1.18Q5.19-1.14 5.19-1.09L5.19-1.09L5.19-0.12L5.19-0.12Q5.19-0.07 5.16-0.04L5.16-0.04L5.16-0.04Q5.12 0 5.07 0L5.07 0L0.57 0L0.57 0Q0.52 0 0.48-0.04L0.48-0.04L0.48-0.04Q0.45-0.07 0.45-0.12L0.45-0.12L0.45-1.04L0.45-1.04Q0.45-1.13 0.51-1.19L0.51-1.19L0.51-1.19Q1-1.67 1.51-2.23L1.51-2.23L1.51-2.23Q2.02-2.80 2.15-2.94L2.15-2.94L2.15-2.94Q2.43-3.27 2.72-3.57L2.72-3.57L2.72-3.57Q3.63-4.58 3.63-5.07L3.63-5.07L3.63-5.07Q3.63-5.42 3.38-5.65L3.38-5.65L3.38-5.65Q3.13-5.87 2.73-5.87L2.73-5.87L2.73-5.87Q2.33-5.87 2.08-5.65L2.08-5.65L2.08-5.65Q1.83-5.42 1.83-5.05L1.83-5.05L1.83-4.80L1.83-4.80Q1.83-4.75 1.79-4.71L1.79-4.71L1.79-4.71Q1.76-4.68 1.71-4.68L1.71-4.68L0.53-4.68L0.53-4.68Q0.48-4.68 0.45-4.71L0.45-4.71L0.45-4.71Q0.41-4.75 0.41-4.80L0.41-4.80L0.41-5.27L0.41-5.27Q0.44-5.81 0.75-6.23L0.75-6.23L0.75-6.23Q1.06-6.64 1.57-6.86L1.57-6.86L1.57-6.86Q2.09-7.08 2.73-7.08L2.73-7.08L2.73-7.08Q3.44-7.08 3.97-6.82L3.97-6.82L3.97-6.82Q4.49-6.55 4.78-6.10L4.78-6.10L4.78-6.10Q5.06-5.65 5.06-5.10L5.06-5.10L5.06-5.10Q5.06-4.68 4.85-4.24L4.85-4.24L4.85-4.24Q4.64-3.80 4.22-3.29L4.22-3.29L4.22-3.29Q3.91-2.90 3.55-2.52L3.55-2.52L3.55-2.52Q3.19-2.14 2.48-1.42L2.48-1.42L2.33-1.27ZM8.44 0.11L8.44 0.11Q7.34 0.11 6.70-0.51L6.70-0.51L6.70-0.51Q6.06-1.12 6.06-2.18L6.06-2.18L6.06-4.82L6.06-4.82Q6.06-5.86 6.70-6.47L6.70-6.47L6.70-6.47Q7.34-7.08 8.44-7.08L8.44-7.08L8.44-7.08Q9.54-7.08 10.19-6.47L10.19-6.47L10.19-6.47Q10.83-5.86 10.83-4.82L10.83-4.82L10.83-2.18L10.83-2.18Q10.83-1.12 10.19-0.51L10.19-0.51L10.19-0.51Q9.54 0.11 8.44 0.11L8.44 0.11ZM8.44-1.10L8.44-1.10Q8.89-1.10 9.16-1.38L9.16-1.38L9.16-1.38Q9.42-1.65 9.42-2.11L9.42-2.11L9.42-4.86L9.42-4.86Q9.42-5.32 9.16-5.59L9.16-5.59L9.16-5.59Q8.89-5.87 8.44-5.87L8.44-5.87L8.44-5.87Q8-5.87 7.74-5.59L7.74-5.59L7.74-5.59Q7.47-5.32 7.47-4.86L7.47-4.86L7.47-2.11L7.47-2.11Q7.47-1.65 7.74-1.38L7.74-1.38L7.74-1.38Q8-1.10 8.44-1.10L8.44-1.10ZM12.69-6.97L12.69-6.97Q12.74-7 12.84-7L12.84-7L14.05-7L14.05-7Q14.10-7 14.14-6.96L14.14-6.96L14.14-6.96Q14.17-6.93 14.17-6.88L14.17-6.88L14.17-0.12L14.17-0.12Q14.17-0.07 14.14-0.04L14.14-0.04L14.14-0.04Q14.10 0 14.05 0L14.05 0L12.88 0L12.88 0Q12.83 0 12.80-0.04L12.80-0.04L12.80-0.04Q12.76-0.07 12.76-0.12L12.76-0.12L12.76-5.60L12.76-5.60Q12.76-5.62 12.74-5.64L12.74-5.64L12.74-5.64Q12.72-5.66 12.70-5.65L12.70-5.65L11.71-5.38L11.67-5.37L11.67-5.37Q11.58-5.37 11.58-5.48L11.58-5.48L11.55-6.34L11.55-6.34Q11.55-6.44 11.64-6.48L11.64-6.48L12.69-6.97ZM19.44-5.73L19.44-5.73Q19.61-5.32 19.61-4.75L19.61-4.75L19.61-1.74L19.61-1.74Q19.61-1.20 19.33-0.79L19.33-0.79L19.33-0.79Q19.05-0.37 18.54-0.14L18.54-0.14L18.54-0.14Q18.03 0.08 17.37 0.08L17.37 0.08L17.37 0.08Q16.72 0.08 16.22-0.14L16.22-0.14L16.22-0.14Q15.72-0.37 15.44-0.78L15.44-0.78L15.44-0.78Q15.16-1.18 15.16-1.71L15.16-1.71L15.16-1.99L15.16-1.99Q15.16-2.04 15.20-2.08L15.20-2.08L15.20-2.08Q15.23-2.11 15.28-2.11L15.28-2.11L16.45-2.11L16.45-2.11Q16.50-2.11 16.54-2.08L16.54-2.08L16.54-2.08Q16.57-2.04 16.57-1.99L16.57-1.99L16.57-1.90L16.57-1.90Q16.57-1.57 16.80-1.35L16.80-1.35L16.80-1.35Q17.02-1.13 17.37-1.13L17.37-1.13L17.37-1.13Q17.74-1.13 17.97-1.35L17.97-1.35L17.97-1.35Q18.20-1.58 18.20-1.93L18.20-1.93L18.20-2.86L18.20-2.86Q18.20-2.89 18.18-2.90L18.18-2.90L18.18-2.90Q18.16-2.91 18.14-2.89L18.14-2.89L18.14-2.89Q17.73-2.54 17.06-2.54L17.06-2.54L17.06-2.54Q16.46-2.54 15.99-2.81L15.99-2.81L15.99-2.81Q15.51-3.09 15.24-3.61L15.24-3.61L15.24-3.61Q14.99-4.08 14.99-4.76L14.99-4.76L14.99-4.76Q14.99-5.35 15.19-5.80L15.19-5.80L15.19-5.80Q15.44-6.39 16.00-6.73L16.00-6.73L16.00-6.73Q16.55-7.07 17.30-7.07L17.30-7.07L17.30-7.07Q18.06-7.07 18.63-6.71L18.63-6.71L18.63-6.71Q19.19-6.36 19.44-5.73L19.44-5.73ZM17.30-3.72L17.30-3.72Q17.82-3.72 18.05-4.13L18.05-4.13L18.05-4.13Q18.20-4.39 18.20-4.80L18.20-4.80L18.20-4.80Q18.20-5.13 18.07-5.41L18.07-5.41L18.07-5.41Q17.85-5.85 17.31-5.85L17.31-5.85L17.31-5.85Q16.79-5.85 16.55-5.41L16.55-5.41L16.55-5.41Q16.40-5.13 16.40-4.78L16.40-4.78L16.40-4.78Q16.40-4.40 16.57-4.12L16.57-4.12L16.57-4.12Q16.82-3.72 17.30-3.72L17.30-3.72Z"/></g>
</svg>
