<svg xmlns="http://www.w3.org/2000/svg" xmlns:xlink="http://www.w3.org/1999/xlink" viewBox="0 0 94 122">
  <g id="container">
    <path fill="#fff" d="M8.1 89.9L47.6 110l38-20.1V11.3H8.1z"/>
    <path fill="#f2f3f2" d="M86.4 11.6L7.3 91.3l41 20.3 38.1-19.5z"/>
    <path d="M5.5 37.5v54.1l1.4.7 39.5 20.1 1.2.6 1.2-.6 38.1-20.1 1.4-.7V8.7H5.5v28.8zm2.6 52.6V11.3h77.6v78.8l-38.1 20.1L8.1 90.1z" fill="#dcdedc"/>
    <path d="M46.9 12.6c.4 0 .8 0 1.2.1L46.9 15c-1.8-.1-3.4 1.3-3.5 3.1-.1 1.8 1.3 3.4 3.1 3.5h.4c.8 0 1.6-.3 2.2-.8l1.3 2.2c-1 .7-2.2 1.1-3.5 1.1-3.2.1-5.9-2.3-6-5.5-.1-3.2 2.3-5.9 5.5-6h.5zm4.1 4.9l1.5 2.5-1.5 2.4-1.4-2.4h-2.9l1.5-2.5H51zm-2.4-.9c0-.4.1-.8.3-1.1.2-.3.6-.6.9-.8l.2-.1c.4-.2.5-.3.5-.5s-.3-.4-.5-.4c-.4 0-.7.2-.9.6l-.5-.5c.1-.2.3-.4.5-.6.3-.2.6-.2.9-.2.3 0 .7.1.9.3.2.2.4.5.4.8 0 .5-.3.9-.9 1.1l-.3.2c-.3.2-.5.3-.6.6h1.8v.7l-2.7-.1zm-1.7 12.5l9.5-5.4v-15H37.3v14.9l9.6 5.5z" fill="#ff492c"/>
    <path id="banner" d="M90.2 64.5H3.6l-3.2 7 3.2 7h86.6l3.1-7z" fill="#ff492c"/>
  <path fill="#252530" transform="translate(11.62, 60)" d="M5.25-10.51L5.25-10.51Q6.24-10.51 6.99-10.11L6.99-10.11L6.99-10.11Q7.74-9.71 8.15-8.96L8.15-8.96L8.15-8.96Q8.56-8.22 8.56-7.26L8.56-7.26L8.56-7.26Q8.56-6.31 8.14-5.59L8.14-5.59L8.14-5.59Q7.71-4.88 6.94-4.48L6.94-4.48L6.94-4.48Q6.17-4.08 5.16-4.08L5.16-4.08L3.03-4.08L3.03-4.08Q2.96-4.08 2.96-4.00L2.96-4.00L2.96-0.18L2.96-0.18Q2.96-0.10 2.90-0.05L2.90-0.05L2.90-0.05Q2.85 0 2.77 0L2.77 0L1.02 0L1.02 0Q0.94 0 0.89-0.05L0.89-0.05L0.89-0.05Q0.84-0.10 0.84-0.18L0.84-0.18L0.84-10.33L0.84-10.33Q0.84-10.41 0.89-10.46L0.89-10.46L0.89-10.46Q0.94-10.51 1.02-10.51L1.02-10.51L5.25-10.51ZM4.93-5.77L4.93-5.77Q5.63-5.77 6.04-6.17L6.04-6.17L6.04-6.17Q6.46-6.57 6.46-7.21L6.46-7.21L6.46-7.21Q6.46-7.88 6.04-8.28L6.04-8.28L6.04-8.28Q5.63-8.69 4.93-8.69L4.93-8.69L3.03-8.69L3.03-8.69Q2.96-8.69 2.96-8.61L2.96-8.61L2.96-5.85L2.96-5.85Q2.96-5.77 3.03-5.77L3.03-5.77L4.93-5.77ZM16.56-4.65L16.56-4.65Q16.65-4.08 16.62-3.38L16.62-3.38L16.62-3.38Q16.61-3.19 16.43-3.19L16.43-3.19L11.79-3.19L11.79-3.19Q11.70-3.19 11.73-3.12L11.73-3.12L11.73-3.12Q11.78-2.82 11.89-2.52L11.89-2.52L11.89-2.52Q12.29-1.68 13.48-1.68L13.48-1.68L13.48-1.68Q14.45-1.69 15-2.46L15-2.46L15-2.46Q15.06-2.55 15.13-2.55L15.13-2.55L15.13-2.55Q15.18-2.55 15.24-2.49L15.24-2.49L16.32-1.43L16.32-1.43Q16.39-1.35 16.39-1.29L16.39-1.29L16.39-1.29Q16.39-1.26 16.34-1.17L16.34-1.17L16.34-1.17Q15.84-0.55 15.06-0.22L15.06-0.22L15.06-0.22Q14.28 0.12 13.35 0.12L13.35 0.12L13.35 0.12Q12.06 0.12 11.17-0.46L11.17-0.46L11.17-0.46Q10.28-1.05 9.88-2.10L9.88-2.10L9.88-2.10Q9.57-2.85 9.57-4.06L9.57-4.06L9.57-4.06Q9.57-4.89 9.79-5.52L9.79-5.52L9.79-5.52Q10.14-6.58 11.00-7.21L11.00-7.21L11.00-7.21Q11.87-7.84 13.05-7.84L13.05-7.84L13.05-7.84Q14.55-7.84 15.46-6.97L15.46-6.97L15.46-6.97Q16.37-6.10 16.56-4.65L16.56-4.65ZM13.06-6.01L13.06-6.01Q12.12-6.01 11.82-5.13L11.82-5.13L11.82-5.13Q11.76-4.93 11.71-4.65L11.71-4.65L11.71-4.65Q11.71-4.58 11.79-4.58L11.79-4.58L14.38-4.58L14.38-4.58Q14.47-4.58 14.45-4.65L14.45-4.65L14.45-4.65Q14.37-5.08 14.37-5.07L14.37-5.07L14.37-5.07Q14.23-5.52 13.90-5.77L13.90-5.77L13.90-5.77Q13.56-6.01 13.06-6.01L13.06-6.01ZM21.77-7.81L21.77-7.81Q22.30-7.81 22.62-7.60L22.62-7.60L22.62-7.60Q22.74-7.54 22.71-7.38L22.71-7.38L22.39-5.67L22.39-5.67Q22.38-5.49 22.18-5.56L22.18-5.56L22.18-5.56Q21.96-5.64 21.66-5.64L21.66-5.64L21.66-5.64Q21.54-5.64 21.33-5.61L21.33-5.61L21.33-5.61Q20.79-5.56 20.41-5.21L20.41-5.21L20.41-5.21Q20.04-4.86 20.04-4.27L20.04-4.27L20.04-0.18L20.04-0.18Q20.04-0.10 19.99-0.05L19.99-0.05L19.99-0.05Q19.93 0 19.86 0L19.86 0L18.11 0L18.11 0Q18.03 0 17.98-0.05L17.98-0.05L17.98-0.05Q17.93-0.10 17.93-0.18L17.93-0.18L17.93-7.53L17.93-7.53Q17.93-7.60 17.98-7.66L17.98-7.66L17.98-7.66Q18.03-7.71 18.11-7.71L18.11-7.71L19.86-7.71L19.86-7.71Q19.93-7.71 19.99-7.66L19.99-7.66L19.99-7.66Q20.04-7.60 20.04-7.53L20.04-7.53L20.04-6.96L20.04-6.96Q20.04-6.92 20.07-6.90L20.07-6.90L20.07-6.90Q20.10-6.88 20.11-6.92L20.11-6.92L20.11-6.92Q20.73-7.81 21.77-7.81L21.77-7.81ZM28.07-7.72L28.07-7.72Q28.14-7.72 28.19-7.67L28.19-7.67L28.19-7.67Q28.25-7.62 28.25-7.54L28.25-7.54L28.25-6.12L28.25-6.12Q28.25-6.04 28.19-5.99L28.19-5.99L28.19-5.99Q28.14-5.94 28.07-5.94L28.07-5.94L26.61-5.94L26.61-5.94Q26.54-5.94 26.54-5.87L26.54-5.87L26.54-0.18L26.54-0.18Q26.54-0.10 26.48-0.05L26.48-0.05L26.48-0.05Q26.43 0 26.36 0L26.36 0L24.60 0L24.60 0Q24.53 0 24.47-0.05L24.47-0.05L24.47-0.05Q24.42-0.10 24.42-0.18L24.42-0.18L24.42-5.87L24.42-5.87Q24.42-5.94 24.34-5.94L24.34-5.94L23.46-5.94L23.46-5.94Q23.39-5.94 23.33-5.99L23.33-5.99L23.33-5.99Q23.28-6.04 23.28-6.12L23.28-6.12L23.28-7.54L23.28-7.54Q23.28-7.62 23.33-7.67L23.33-7.67L23.33-7.67Q23.39-7.72 23.46-7.72L23.46-7.72L24.34-7.72L24.34-7.72Q24.42-7.72 24.42-7.80L24.42-7.80L24.42-8.13L24.42-8.13Q24.42-9.06 24.71-9.58L24.71-9.58L24.71-9.58Q24.99-10.09 25.63-10.31L25.63-10.31L25.63-10.31Q26.27-10.53 27.39-10.50L27.39-10.50L27.96-10.50L27.96-10.50Q28.04-10.50 28.09-10.45L28.09-10.45L28.09-10.45Q28.14-10.39 28.14-10.32L28.14-10.32L28.14-9.11L28.14-9.11Q28.14-9.03 28.09-8.98L28.09-8.98L28.09-8.98Q28.04-8.92 27.96-8.92L27.96-8.92L27.46-8.92L27.46-8.92Q26.94-8.91 26.74-8.71L26.74-8.71L26.74-8.71Q26.54-8.50 26.54-7.96L26.54-7.96L26.54-7.80L26.54-7.80Q26.54-7.72 26.61-7.72L26.61-7.72L28.07-7.72ZM32.88 0.12L32.88 0.12Q31.62 0.12 30.72-0.54L30.72-0.54L30.72-0.54Q29.82-1.20 29.49-2.34L29.49-2.34L29.49-2.34Q29.28-3.04 29.28-3.87L29.28-3.87L29.28-3.87Q29.28-4.75 29.49-5.46L29.49-5.46L29.49-5.46Q29.84-6.57 30.73-7.20L30.73-7.20L30.73-7.20Q31.64-7.83 32.90-7.83L32.90-7.83L32.90-7.83Q34.13-7.83 34.99-7.21L34.99-7.21L34.99-7.21Q35.87-6.58 36.23-5.47L36.23-5.47L36.23-5.47Q36.47-4.72 36.47-3.90L36.47-3.90L36.47-3.90Q36.47-3.09 36.26-2.38L36.26-2.38L36.26-2.38Q35.92-1.21 35.03-0.55L35.03-0.55L35.03-0.55Q34.14 0.12 32.88 0.12L32.88 0.12ZM32.88-1.69L32.88-1.69Q33.38-1.69 33.72-1.99L33.72-1.99L33.72-1.99Q34.06-2.29 34.22-2.82L34.22-2.82L34.22-2.82Q34.34-3.30 34.34-3.87L34.34-3.87L34.34-3.87Q34.34-4.50 34.22-4.93L34.22-4.93L34.22-4.93Q34.05-5.44 33.70-5.73L33.70-5.73L33.70-5.73Q33.36-6.01 32.87-6.01L32.87-6.01L32.87-6.01Q32.35-6.01 32.02-5.73L32.02-5.73L32.02-5.73Q31.68-5.44 31.53-4.93L31.53-4.93L31.53-4.93Q31.41-4.58 31.41-3.87L31.41-3.87L31.41-3.87Q31.41-3.19 31.52-2.82L31.52-2.82L31.52-2.82Q31.66-2.29 32.02-1.99L32.02-1.99L32.02-1.99Q32.37-1.69 32.88-1.69L32.88-1.69ZM41.67-7.81L41.67-7.81Q42.21-7.81 42.52-7.60L42.52-7.60L42.52-7.60Q42.64-7.54 42.61-7.38L42.61-7.38L42.30-5.67L42.30-5.67Q42.28-5.49 42.09-5.56L42.09-5.56L42.09-5.56Q41.86-5.64 41.56-5.64L41.56-5.64L41.56-5.64Q41.44-5.64 41.23-5.61L41.23-5.61L41.23-5.61Q40.70-5.56 40.32-5.21L40.32-5.21L40.32-5.21Q39.95-4.86 39.95-4.27L39.95-4.27L39.95-0.18L39.95-0.18Q39.95-0.10 39.89-0.05L39.89-0.05L39.89-0.05Q39.84 0 39.77 0L39.77 0L38.01 0L38.01 0Q37.93 0 37.88-0.05L37.88-0.05L37.88-0.05Q37.83-0.10 37.83-0.18L37.83-0.18L37.83-7.53L37.83-7.53Q37.83-7.60 37.88-7.66L37.88-7.66L37.88-7.66Q37.93-7.71 38.01-7.71L38.01-7.71L39.77-7.71L39.77-7.71Q39.84-7.71 39.89-7.66L39.89-7.66L39.89-7.66Q39.95-7.60 39.95-7.53L39.95-7.53L39.95-6.96L39.95-6.96Q39.95-6.92 39.97-6.90L39.97-6.90L39.97-6.90Q40.00-6.88 40.02-6.92L40.02-6.92L40.02-6.92Q40.63-7.81 41.67-7.81L41.67-7.81ZM52.12-7.83L52.12-7.83Q53.29-7.83 53.95-7.13L53.95-7.13L53.95-7.13Q54.61-6.42 54.61-5.14L54.61-5.14L54.61-0.18L54.61-0.18Q54.61-0.10 54.56-0.05L54.56-0.05L54.56-0.05Q54.51 0 54.43 0L54.43 0L52.68 0L52.68 0Q52.60 0 52.55-0.05L52.55-0.05L52.55-0.05Q52.50-0.10 52.50-0.18L52.50-0.18L52.50-4.68L52.50-4.68Q52.50-5.29 52.18-5.65L52.18-5.65L52.18-5.65Q51.87-6.01 51.34-6.01L51.34-6.01L51.34-6.01Q50.82-6.01 50.49-5.65L50.49-5.65L50.49-5.65Q50.16-5.29 50.16-4.69L50.16-4.69L50.16-0.18L50.16-0.18Q50.16-0.10 50.11-0.05L50.11-0.05L50.11-0.05Q50.05 0 49.98 0L49.98 0L48.24 0L48.24 0Q48.16 0 48.11-0.05L48.11-0.05L48.11-0.05Q48.06-0.10 48.06-0.18L48.06-0.18L48.06-4.68L48.06-4.68Q48.06-5.28 47.73-5.65L47.73-5.65L47.73-5.65Q47.40-6.01 46.87-6.01L46.87-6.01L46.87-6.01Q46.39-6.01 46.07-5.73L46.07-5.73L46.07-5.73Q45.75-5.44 45.69-4.93L45.69-4.93L45.69-0.18L45.69-0.18Q45.69-0.10 45.64-0.05L45.64-0.05L45.64-0.05Q45.58 0 45.51 0L45.51 0L43.75 0L43.75 0Q43.68 0 43.63-0.05L43.63-0.05L43.63-0.05Q43.57-0.10 43.57-0.18L43.57-0.18L43.57-7.53L43.57-7.53Q43.57-7.60 43.63-7.66L43.63-7.66L43.63-7.66Q43.68-7.71 43.75-7.71L43.75-7.71L45.51-7.71L45.51-7.71Q45.58-7.71 45.64-7.66L45.64-7.66L45.64-7.66Q45.69-7.60 45.69-7.53L45.69-7.53L45.69-6.94L45.69-6.94Q45.69-6.90 45.72-6.88L45.72-6.88L45.72-6.88Q45.75-6.87 45.78-6.92L45.78-6.92L45.78-6.92Q46.39-7.83 47.68-7.83L47.68-7.83L47.68-7.83Q48.43-7.83 49.00-7.51L49.00-7.51L49.00-7.51Q49.56-7.20 49.86-6.61L49.86-6.61L49.86-6.61Q49.90-6.52 49.96-6.61L49.96-6.61L49.96-6.61Q50.29-7.23 50.86-7.53L50.86-7.53L50.86-7.53Q51.42-7.83 52.12-7.83L52.12-7.83ZM62.92-4.65L62.92-4.65Q63.01-4.08 62.98-3.38L62.98-3.38L62.98-3.38Q62.97-3.19 62.79-3.19L62.79-3.19L58.15-3.19L58.15-3.19Q58.06-3.19 58.09-3.12L58.09-3.12L58.09-3.12Q58.14-2.82 58.26-2.52L58.26-2.52L58.26-2.52Q58.65-1.68 59.85-1.68L59.85-1.68L59.85-1.68Q60.81-1.69 61.36-2.46L61.36-2.46L61.36-2.46Q61.42-2.55 61.50-2.55L61.50-2.55L61.50-2.55Q61.54-2.55 61.60-2.49L61.60-2.49L62.68-1.43L62.68-1.43Q62.76-1.35 62.76-1.29L62.76-1.29L62.76-1.29Q62.76-1.26 62.70-1.17L62.70-1.17L62.70-1.17Q62.20-0.55 61.42-0.22L61.42-0.22L61.42-0.22Q60.64 0.12 59.71 0.12L59.71 0.12L59.71 0.12Q58.42 0.12 57.53-0.46L57.53-0.46L57.53-0.46Q56.64-1.05 56.25-2.10L56.25-2.10L56.25-2.10Q55.93-2.85 55.93-4.06L55.93-4.06L55.93-4.06Q55.93-4.89 56.16-5.52L56.16-5.52L56.16-5.52Q56.50-6.58 57.37-7.21L57.37-7.21L57.37-7.21Q58.23-7.84 59.41-7.84L59.41-7.84L59.41-7.84Q60.91-7.84 61.82-6.97L61.82-6.97L61.82-6.97Q62.73-6.10 62.92-4.65L62.92-4.65ZM59.43-6.01L59.43-6.01Q58.48-6.01 58.18-5.13L58.18-5.13L58.18-5.13Q58.12-4.93 58.08-4.65L58.08-4.65L58.08-4.65Q58.08-4.58 58.15-4.58L58.15-4.58L60.75-4.58L60.75-4.58Q60.84-4.58 60.81-4.65L60.81-4.65L60.81-4.65Q60.73-5.08 60.73-5.07L60.73-5.07L60.73-5.07Q60.60-5.52 60.26-5.77L60.26-5.77L60.26-5.77Q59.92-6.01 59.43-6.01L59.43-6.01ZM68.13-7.81L68.13-7.81Q68.67-7.81 68.98-7.60L68.98-7.60L68.98-7.60Q69.10-7.54 69.07-7.38L69.07-7.38L68.76-5.67L68.76-5.67Q68.74-5.49 68.55-5.56L68.55-5.56L68.55-5.56Q68.32-5.64 68.02-5.64L68.02-5.64L68.02-5.64Q67.90-5.64 67.69-5.61L67.69-5.61L67.69-5.61Q67.15-5.56 66.78-5.21L66.78-5.21L66.78-5.21Q66.40-4.86 66.40-4.27L66.40-4.27L66.40-0.18L66.40-0.18Q66.40-0.10 66.35-0.05L66.35-0.05L66.35-0.05Q66.30 0 66.22 0L66.22 0L64.47 0L64.47 0Q64.39 0 64.34-0.05L64.34-0.05L64.34-0.05Q64.29-0.10 64.29-0.18L64.29-0.18L64.29-7.53L64.29-7.53Q64.29-7.60 64.34-7.66L64.34-7.66L64.34-7.66Q64.39-7.71 64.47-7.71L64.47-7.71L66.22-7.71L66.22-7.71Q66.30-7.71 66.35-7.66L66.35-7.66L66.35-7.66Q66.40-7.60 66.40-7.53L66.40-7.53L66.40-6.96L66.40-6.96Q66.40-6.92 66.43-6.90L66.43-6.90L66.43-6.90Q66.46-6.88 66.48-6.92L66.48-6.92L66.48-6.92Q67.09-7.81 68.13-7.81L68.13-7.81Z"/><path fill="#252530" transform="translate(31.56, 45)" d="M6.50-10.32L6.50-10.32Q6.50-10.39 6.55-10.45L6.55-10.45L6.55-10.45Q6.60-10.50 6.67-10.50L6.67-10.50L8.43-10.50L8.43-10.50Q8.50-10.50 8.56-10.45L8.56-10.45L8.56-10.45Q8.61-10.39 8.61-10.32L8.61-10.32L8.61-0.18L8.61-0.18Q8.61-0.10 8.56-0.05L8.56-0.05L8.56-0.05Q8.50 0 8.43 0L8.43 0L6.67 0L6.67 0Q6.60 0 6.55-0.05L6.55-0.05L6.55-0.05Q6.50-0.10 6.50-0.18L6.50-0.18L6.50-4.32L6.50-4.32Q6.50-4.39 6.42-4.39L6.42-4.39L3.10-4.39L3.10-4.39Q3.03-4.39 3.03-4.32L3.03-4.32L3.03-0.18L3.03-0.18Q3.03-0.10 2.98-0.05L2.98-0.05L2.98-0.05Q2.92 0 2.85 0L2.85 0L1.09 0L1.09 0Q1.02 0 0.97-0.05L0.97-0.05L0.97-0.05Q0.91-0.10 0.91-0.18L0.91-0.18L0.91-10.32L0.91-10.32Q0.91-10.39 0.97-10.45L0.97-10.45L0.97-10.45Q1.02-10.50 1.09-10.50L1.09-10.50L2.85-10.50L2.85-10.50Q2.92-10.50 2.98-10.45L2.98-10.45L2.98-10.45Q3.03-10.39 3.03-10.32L3.03-10.32L3.03-6.29L3.03-6.29Q3.03-6.21 3.10-6.21L3.10-6.21L6.42-6.21L6.42-6.21Q6.50-6.21 6.50-6.29L6.50-6.29L6.50-10.32ZM11.34-8.58L11.34-8.58Q10.83-8.58 10.49-8.92L10.49-8.92L10.49-8.92Q10.15-9.25 10.15-9.76L10.15-9.76L10.15-9.76Q10.15-10.29 10.48-10.62L10.48-10.62L10.48-10.62Q10.81-10.95 11.34-10.95L11.34-10.95L11.34-10.95Q11.87-10.95 12.20-10.62L12.20-10.62L12.20-10.62Q12.53-10.29 12.53-9.76L12.53-9.76L12.53-9.76Q12.53-9.25 12.19-8.92L12.19-8.92L12.19-8.92Q11.85-8.58 11.34-8.58L11.34-8.58ZM10.44 0L10.44 0Q10.37 0 10.31-0.05L10.31-0.05L10.31-0.05Q10.26-0.10 10.26-0.18L10.26-0.18L10.26-7.54L10.26-7.54Q10.26-7.62 10.31-7.67L10.31-7.67L10.31-7.67Q10.37-7.72 10.44-7.72L10.44-7.72L12.20-7.72L12.20-7.72Q12.27-7.72 12.32-7.67L12.32-7.67L12.32-7.67Q12.38-7.62 12.38-7.54L12.38-7.54L12.38-0.18L12.38-0.18Q12.38-0.10 12.32-0.05L12.32-0.05L12.32-0.05Q12.27 0 12.20 0L12.20 0L10.44 0ZM18.73-7.53L18.73-7.53Q18.73-7.60 18.79-7.66L18.79-7.66L18.79-7.66Q18.84-7.71 18.91-7.71L18.91-7.71L20.67-7.71L20.67-7.71Q20.74-7.71 20.80-7.66L20.80-7.66L20.80-7.66Q20.85-7.60 20.85-7.53L20.85-7.53L20.85-0.69L20.85-0.69Q20.85 1.27 19.72 2.11L19.72 2.11L19.72 2.11Q18.59 2.96 16.80 2.96L16.80 2.96L16.80 2.96Q16.27 2.96 15.63 2.88L15.63 2.88L15.63 2.88Q15.48 2.86 15.48 2.69L15.48 2.69L15.54 1.14L15.54 1.14Q15.54 0.94 15.75 0.97L15.75 0.97L15.75 0.97Q16.29 1.06 16.74 1.06L16.74 1.06L16.74 1.06Q17.70 1.06 18.22 0.65L18.22 0.65L18.22 0.65Q18.73 0.22 18.73-0.70L18.73-0.70L18.73-0.70Q18.73-0.75 18.70-0.76L18.70-0.76L18.70-0.76Q18.67-0.77 18.64-0.73L18.64-0.73L18.64-0.73Q18.07-0.12 16.98-0.12L16.98-0.12L16.98-0.12Q16.00-0.12 15.19-0.59L15.19-0.59L15.19-0.59Q14.37-1.06 14.02-2.11L14.02-2.11L14.02-2.11Q13.80-2.80 13.80-3.90L13.80-3.90L13.80-3.90Q13.80-5.07 14.07-5.80L14.07-5.80L14.07-5.80Q14.38-6.72 15.13-7.27L15.13-7.27L15.13-7.27Q15.88-7.83 16.88-7.83L16.88-7.83L16.88-7.83Q18.03-7.83 18.64-7.14L18.64-7.14L18.64-7.14Q18.67-7.11 18.70-7.12L18.70-7.12L18.70-7.12Q18.73-7.13 18.73-7.17L18.73-7.17L18.73-7.53ZM18.61-2.69L18.61-2.69Q18.73-3.13 18.73-3.92L18.73-3.92L18.73-3.92Q18.73-4.38 18.70-4.63L18.70-4.63L18.70-4.63Q18.67-4.89 18.60-5.12L18.60-5.12L18.60-5.12Q18.46-5.52 18.15-5.77L18.15-5.77L18.15-5.77Q17.84-6.01 17.37-6.01L17.37-6.01L17.37-6.01Q16.92-6.01 16.61-5.77L16.61-5.77L16.61-5.77Q16.29-5.52 16.14-5.12L16.14-5.12L16.14-5.12Q15.93-4.67 15.93-3.90L15.93-3.90L15.93-3.90Q15.93-3.06 16.11-2.70L16.11-2.70L16.11-2.70Q16.24-2.29 16.58-2.05L16.58-2.05L16.58-2.05Q16.92-1.80 17.38-1.80L17.38-1.80L17.38-1.80Q17.86-1.80 18.18-2.05L18.18-2.05L18.18-2.05Q18.49-2.29 18.61-2.69L18.61-2.69ZM26.39-7.83L26.39-7.83Q27.59-7.83 28.32-7.09L28.32-7.09L28.32-7.09Q29.05-6.36 29.05-5.10L29.05-5.10L29.05-0.18L29.05-0.18Q29.05-0.10 29.00-0.05L29.00-0.05L29.00-0.05Q28.95 0 28.88 0L28.88 0L27.12 0L27.12 0Q27.05 0 26.99-0.05L26.99-0.05L26.99-0.05Q26.94-0.10 26.94-0.18L26.94-0.18L26.94-4.67L26.94-4.67Q26.94-5.26 26.60-5.64L26.60-5.64L26.60-5.64Q26.27-6.01 25.71-6.01L25.71-6.01L25.71-6.01Q25.16-6.01 24.82-5.64L24.82-5.64L24.82-5.64Q24.48-5.26 24.48-4.67L24.48-4.67L24.48-0.18L24.48-0.18Q24.48-0.10 24.43-0.05L24.43-0.05L24.43-0.05Q24.38 0 24.30 0L24.30 0L22.55 0L22.55 0Q22.47 0 22.42-0.05L22.42-0.05L22.42-0.05Q22.37-0.10 22.37-0.18L22.37-0.18L22.37-10.32L22.37-10.32Q22.37-10.39 22.42-10.45L22.42-10.45L22.42-10.45Q22.47-10.50 22.55-10.50L22.55-10.50L24.30-10.50L24.30-10.50Q24.38-10.50 24.43-10.45L24.43-10.45L24.43-10.45Q24.48-10.39 24.48-10.32L24.48-10.32L24.48-7.00L24.48-7.00Q24.48-6.96 24.51-6.94L24.51-6.94L24.51-6.94Q24.54-6.93 24.55-6.96L24.55-6.96L24.55-6.96Q25.17-7.83 26.39-7.83L26.39-7.83Z"/><path fill="#fff" transform="translate(21.56, 75.4)" d="M5.24-6.92L5.24-6.92Q5.29-7 5.38-7L5.38-7L6.30-7L6.30-7Q6.35-7 6.38-6.96L6.38-6.96L6.38-6.96Q6.42-6.93 6.42-6.88L6.42-6.88L6.42-0.12L6.42-0.12Q6.42-0.07 6.38-0.04L6.38-0.04L6.38-0.04Q6.35 0 6.30 0L6.30 0L5.38 0L5.38 0Q5.33 0 5.29-0.04L5.29-0.04L5.29-0.04Q5.26-0.07 5.26-0.12L5.26-0.12L5.26-4.89L5.26-4.89Q5.26-4.92 5.24-4.93L5.24-4.93L5.24-4.93Q5.21-4.94 5.20-4.91L5.20-4.91L3.95-2.99L3.95-2.99Q3.90-2.91 3.81-2.91L3.81-2.91L3.35-2.91L3.35-2.91Q3.26-2.91 3.21-2.99L3.21-2.99L1.95-4.90L1.95-4.90Q1.94-4.93 1.92-4.92L1.92-4.92L1.92-4.92Q1.89-4.91 1.89-4.88L1.89-4.88L1.89-0.12L1.89-0.12Q1.89-0.07 1.85-0.04L1.85-0.04L1.85-0.04Q1.82 0 1.77 0L1.77 0L0.85 0L0.85 0Q0.80 0 0.77-0.04L0.77-0.04L0.77-0.04Q0.73-0.07 0.73-0.12L0.73-0.12L0.73-6.88L0.73-6.88Q0.73-6.93 0.77-6.96L0.77-6.96L0.77-6.96Q0.80-7 0.85-7L0.85-7L1.77-7L1.77-7Q1.86-7 1.91-6.92L1.91-6.92L3.54-4.45L3.54-4.45Q3.56-4.43 3.58-4.43L3.58-4.43L3.58-4.43Q3.60-4.43 3.61-4.45L3.61-4.45L5.24-6.92ZM8.43-5.81L8.43-5.81Q8.12-5.81 7.92-6.01L7.92-6.01L7.92-6.01Q7.72-6.21 7.72-6.52L7.72-6.52L7.72-6.52Q7.72-6.83 7.92-7.03L7.92-7.03L7.92-7.03Q8.12-7.23 8.43-7.23L8.43-7.23L8.43-7.23Q8.74-7.23 8.94-7.03L8.94-7.03L8.94-7.03Q9.14-6.83 9.14-6.52L9.14-6.52L9.14-6.52Q9.14-6.21 8.94-6.01L8.94-6.01L8.94-6.01Q8.74-5.81 8.43-5.81L8.43-5.81ZM7.95 0L7.95 0Q7.90 0 7.87-0.04L7.87-0.04L7.87-0.04Q7.83-0.07 7.83-0.12L7.83-0.12L7.83-5L7.83-5Q7.83-5.05 7.87-5.08L7.87-5.08L7.87-5.08Q7.90-5.12 7.95-5.12L7.95-5.12L8.87-5.12L8.87-5.12Q8.92-5.12 8.96-5.08L8.96-5.08L8.96-5.08Q8.99-5.05 8.99-5L8.99-5L8.99-0.12L8.99-0.12Q8.99-0.07 8.96-0.04L8.96-0.04L8.96-0.04Q8.92 0 8.87 0L8.87 0L7.95 0ZM13.49-6.88L13.49-6.88Q13.49-6.93 13.53-6.96L13.53-6.96L13.53-6.96Q13.56-7 13.61-7L13.61-7L14.53-7L14.53-7Q14.58-7 14.62-6.96L14.62-6.96L14.62-6.96Q14.65-6.93 14.65-6.88L14.65-6.88L14.65-0.12L14.65-0.12Q14.65-0.07 14.62-0.04L14.62-0.04L14.62-0.04Q14.58 0 14.53 0L14.53 0L13.61 0L13.61 0Q13.56 0 13.53-0.04L13.53-0.04L13.53-0.04Q13.49-0.07 13.49-0.12L13.49-0.12L13.49-0.42L13.49-0.42Q13.49-0.45 13.47-0.46L13.47-0.46L13.47-0.46Q13.45-0.47 13.43-0.44L13.43-0.44L13.43-0.44Q12.99 0.08 12.28 0.08L12.28 0.08L12.28 0.08Q11.57 0.08 11.08-0.29L11.08-0.29L11.08-0.29Q10.59-0.66 10.37-1.32L10.37-1.32L10.37-1.32Q10.19-1.88 10.19-2.57L10.19-2.57L10.19-2.57Q10.19-3.28 10.36-3.79L10.36-3.79L10.36-3.79Q10.58-4.45 11.07-4.82L11.07-4.82L11.07-4.82Q11.56-5.19 12.30-5.19L12.30-5.19L12.30-5.19Q12.99-5.19 13.43-4.69L13.43-4.69L13.43-4.69Q13.45-4.67 13.47-4.67L13.47-4.67L13.47-4.67Q13.49-4.68 13.49-4.71L13.49-4.71L13.49-6.88ZM13.25-1.40L13.25-1.40Q13.48-1.81 13.48-2.56L13.48-2.56L13.48-2.56Q13.48-3.34 13.23-3.75L13.23-3.75L13.23-3.75Q12.96-4.19 12.47-4.19L12.47-4.19L12.47-4.19Q11.96-4.19 11.67-3.77L11.67-3.77L11.67-3.77Q11.37-3.33 11.37-2.55L11.37-2.55L11.37-2.55Q11.37-1.85 11.61-1.40L11.61-1.40L11.61-1.40Q11.89-0.92 12.46-0.92L12.46-0.92L12.46-0.92Q12.97-0.92 13.25-1.40L13.25-1.40ZM15.73-2.51L15.73-2.51Q15.68-2.51 15.65-2.54L15.65-2.54L15.65-2.54Q15.61-2.58 15.61-2.63L15.61-2.63L15.61-3.39L15.61-3.39Q15.61-3.44 15.65-3.48L15.65-3.48L15.65-3.48Q15.68-3.51 15.73-3.51L15.73-3.51L18.88-3.51L18.88-3.51Q18.93-3.51 18.96-3.48L18.96-3.48L18.96-3.48Q19-3.44 19-3.39L19-3.39L19-2.63L19-2.63Q19-2.58 18.96-2.54L18.96-2.54L18.96-2.54Q18.93-2.51 18.88-2.51L18.88-2.51L15.73-2.51ZM24.57-6.92L24.57-6.92Q24.62-7 24.71-7L24.71-7L25.63-7L25.63-7Q25.68-7 25.72-6.96L25.72-6.96L25.72-6.96Q25.75-6.93 25.75-6.88L25.75-6.88L25.75-0.12L25.75-0.12Q25.75-0.07 25.72-0.04L25.72-0.04L25.72-0.04Q25.68 0 25.63 0L25.63 0L24.71 0L24.71 0Q24.66 0 24.63-0.04L24.63-0.04L24.63-0.04Q24.59-0.07 24.59-0.12L24.59-0.12L24.59-4.89L24.59-4.89Q24.59-4.92 24.57-4.93L24.57-4.93L24.57-4.93Q24.54-4.94 24.53-4.91L24.53-4.91L23.28-2.99L23.28-2.99Q23.23-2.91 23.14-2.91L23.14-2.91L22.68-2.91L22.68-2.91Q22.59-2.91 22.54-2.99L22.54-2.99L21.28-4.90L21.28-4.90Q21.27-4.93 21.25-4.92L21.25-4.92L21.25-4.92Q21.22-4.91 21.22-4.88L21.22-4.88L21.22-0.12L21.22-0.12Q21.22-0.07 21.19-0.04L21.19-0.04L21.19-0.04Q21.15 0 21.10 0L21.10 0L20.18 0L20.18 0Q20.13 0 20.10-0.04L20.10-0.04L20.10-0.04Q20.06-0.07 20.06-0.12L20.06-0.12L20.06-6.88L20.06-6.88Q20.06-6.93 20.10-6.96L20.10-6.96L20.10-6.96Q20.13-7 20.18-7L20.18-7L21.10-7L21.10-7Q21.19-7 21.24-6.92L21.24-6.92L22.87-4.45L22.87-4.45Q22.89-4.43 22.91-4.43L22.91-4.43L22.91-4.43Q22.93-4.43 22.94-4.45L22.94-4.45L24.57-6.92ZM29.05-5.19L29.05-5.19Q29.68-5.19 30.16-4.97L30.16-4.97L30.16-4.97Q30.64-4.75 30.90-4.37L30.90-4.37L30.90-4.37Q31.16-3.98 31.16-3.49L31.16-3.49L31.16-0.12L31.16-0.12Q31.16-0.07 31.13-0.04L31.13-0.04L31.13-0.04Q31.09 0 31.04 0L31.04 0L30.12 0L30.12 0Q30.07 0 30.04-0.04L30.04-0.04L30.04-0.04Q30.00-0.07 30.00-0.12L30.00-0.12L30.00-0.44L30.00-0.44Q30.00-0.47 29.98-0.48L29.98-0.48L29.98-0.48Q29.96-0.48 29.94-0.46L29.94-0.46L29.94-0.46Q29.45 0.08 28.52 0.08L28.52 0.08L28.52 0.08Q27.77 0.08 27.29-0.30L27.29-0.30L27.29-0.30Q26.80-0.68 26.80-1.43L26.80-1.43L26.80-1.43Q26.80-2.21 27.35-2.65L27.35-2.65L27.35-2.65Q27.89-3.08 28.88-3.08L28.88-3.08L29.95-3.08L29.95-3.08Q30.00-3.08 30.00-3.13L30.00-3.13L30.00-3.37L30.00-3.37Q30.00-3.76 29.77-3.98L29.77-3.98L29.77-3.98Q29.54-4.19 29.08-4.19L29.08-4.19L29.08-4.19Q28.70-4.19 28.47-4.05L28.47-4.05L28.47-4.05Q28.23-3.92 28.17-3.68L28.17-3.68L28.17-3.68Q28.14-3.56 28.03-3.58L28.03-3.58L27.06-3.70L27.06-3.70Q27.01-3.71 26.98-3.73L26.98-3.73L26.98-3.73Q26.94-3.76 26.95-3.80L26.95-3.80L26.95-3.80Q27.03-4.41 27.61-4.80L27.61-4.80L27.61-4.80Q28.18-5.19 29.05-5.19L29.05-5.19ZM28.81-0.84L28.81-0.84Q29.30-0.84 29.65-1.10L29.65-1.10L29.65-1.10Q30.00-1.36 30.00-1.76L30.00-1.76L30.00-2.23L30.00-2.23Q30.00-2.28 29.95-2.28L29.95-2.28L29.11-2.28L29.11-2.28Q28.58-2.28 28.28-2.08L28.28-2.08L28.28-2.08Q27.97-1.88 27.97-1.51L27.97-1.51L27.97-1.51Q27.97-1.19 28.21-1.02L28.21-1.02L28.21-1.02Q28.44-0.84 28.81-0.84L28.81-0.84ZM34.70-5.17L34.70-5.17Q35.02-5.17 35.26-5.04L35.26-5.04L35.26-5.04Q35.34-5 35.32-4.89L35.32-4.89L35.15-3.99L35.15-3.99Q35.14-3.87 35.01-3.92L35.01-3.92L35.01-3.92Q34.86-3.97 34.66-3.97L34.66-3.97L34.66-3.97Q34.53-3.97 34.46-3.96L34.46-3.96L34.46-3.96Q34.04-3.94 33.76-3.67L33.76-3.67L33.76-3.67Q33.48-3.39 33.48-2.95L33.48-2.95L33.48-0.12L33.48-0.12Q33.48-0.07 33.45-0.04L33.45-0.04L33.45-0.04Q33.41 0 33.36 0L33.36 0L32.44 0L32.44 0Q32.39 0 32.36-0.04L32.36-0.04L32.36-0.04Q32.32-0.07 32.32-0.12L32.32-0.12L32.32-4.99L32.32-4.99Q32.32-5.04 32.36-5.08L32.36-5.08L32.36-5.08Q32.39-5.11 32.44-5.11L32.44-5.11L33.36-5.11L33.36-5.11Q33.41-5.11 33.45-5.08L33.45-5.08L33.45-5.08Q33.48-5.04 33.48-4.99L33.48-4.99L33.48-4.54L33.48-4.54Q33.48-4.50 33.50-4.50L33.50-4.50L33.50-4.50Q33.51-4.49 33.53-4.52L33.53-4.52L33.53-4.52Q33.95-5.17 34.70-5.17L34.70-5.17ZM36.20 0L36.20 0Q36.15 0 36.12-0.04L36.12-0.04L36.12-0.04Q36.08-0.07 36.08-0.12L36.08-0.12L36.08-6.88L36.08-6.88Q36.08-6.93 36.12-6.96L36.12-6.96L36.12-6.96Q36.15-7 36.20-7L36.20-7L37.12-7L37.12-7Q37.17-7 37.20-6.96L37.20-6.96L37.20-6.96Q37.24-6.93 37.24-6.88L37.24-6.88L37.24-3.27L37.24-3.27Q37.24-3.24 37.26-3.23L37.26-3.23L37.26-3.23Q37.28-3.22 37.30-3.25L37.30-3.25L38.92-5.04L38.92-5.04Q38.99-5.11 39.07-5.11L39.07-5.11L40.13-5.11L40.13-5.11Q40.23-5.11 40.23-5.04L40.23-5.04L40.23-5.04Q40.23-5.01 40.20-4.96L40.20-4.96L38.93-3.44L38.93-3.44Q38.90-3.41 38.92-3.37L38.92-3.37L40.42-0.14L40.42-0.14Q40.44-0.10 40.44-0.08L40.44-0.08L40.44-0.08Q40.44 0 40.33 0L40.33 0L39.36 0L39.36 0Q39.26 0 39.22-0.09L39.22-0.09L38.13-2.63L38.13-2.63Q38.12-2.65 38.09-2.66L38.09-2.66L38.09-2.66Q38.07-2.66 38.06-2.64L38.06-2.64L37.26-1.72L37.26-1.72Q37.24-1.68 37.24-1.65L37.24-1.65L37.24-0.12L37.24-0.12Q37.24-0.07 37.20-0.04L37.20-0.04L37.20-0.04Q37.17 0 37.12 0L37.12 0L36.20 0ZM45.61-3.13L45.61-3.13Q45.65-2.88 45.65-2.57L45.65-2.57L45.64-2.26L45.64-2.26Q45.64-2.14 45.52-2.14L45.52-2.14L42.39-2.14L42.39-2.14Q42.34-2.14 42.34-2.09L42.34-2.09L42.34-2.09Q42.37-1.76 42.43-1.64L42.43-1.64L42.43-1.64Q42.67-0.92 43.60-0.91L43.60-0.91L43.60-0.91Q44.28-0.91 44.68-1.47L44.68-1.47L44.68-1.47Q44.72-1.53 44.78-1.53L44.78-1.53L44.78-1.53Q44.82-1.53 44.85-1.50L44.85-1.50L45.47-0.99L45.47-0.99Q45.56-0.92 45.50-0.83L45.50-0.83L45.50-0.83Q45.19-0.39 44.67-0.15L44.67-0.15L44.67-0.15Q44.16 0.09 43.53 0.09L43.53 0.09L43.53 0.09Q42.75 0.09 42.20-0.26L42.20-0.26L42.20-0.26Q41.66-0.61 41.41-1.24L41.41-1.24L41.41-1.24Q41.18-1.78 41.18-2.74L41.18-2.74L41.18-2.74Q41.18-3.32 41.30-3.68L41.30-3.68L41.30-3.68Q41.50-4.38 42.05-4.79L42.05-4.79L42.05-4.79Q42.61-5.19 43.39-5.19L43.39-5.19L43.39-5.19Q45.36-5.19 45.61-3.13L45.61-3.13ZM43.39-4.19L43.39-4.19Q43.02-4.19 42.77-4.00L42.77-4.00L42.77-4.00Q42.53-3.82 42.43-3.49L42.43-3.49L42.43-3.49Q42.37-3.32 42.35-3.05L42.35-3.05L42.35-3.05Q42.33-3 42.39-3L42.39-3L44.42-3L44.42-3Q44.47-3 44.47-3.05L44.47-3.05L44.47-3.05Q44.45-3.30 44.41-3.43L44.41-3.43L44.41-3.43Q44.32-3.79 44.05-3.99L44.05-3.99L44.05-3.99Q43.79-4.19 43.39-4.19L43.39-4.19ZM49.42-4.29L49.42-4.29Q49.42-4.24 49.39-4.21L49.39-4.21L49.39-4.21Q49.35-4.17 49.30-4.17L49.30-4.17L48.28-4.17L48.28-4.17Q48.23-4.17 48.23-4.12L48.23-4.12L48.23-1.71L48.23-1.71Q48.23-1.33 48.40-1.16L48.40-1.16L48.40-1.16Q48.56-0.99 48.92-0.99L48.92-0.99L49.22-0.99L49.22-0.99Q49.27-0.99 49.31-0.96L49.31-0.96L49.31-0.96Q49.34-0.92 49.34-0.87L49.34-0.87L49.34-0.12L49.34-0.12Q49.34-0.01 49.22 0.01L49.22 0.01L48.70 0.02L48.70 0.02Q47.91 0.02 47.52-0.25L47.52-0.25L47.52-0.25Q47.13-0.52 47.12-1.27L47.12-1.27L47.12-4.12L47.12-4.12Q47.12-4.17 47.07-4.17L47.07-4.17L46.50-4.17L46.50-4.17Q46.45-4.17 46.42-4.21L46.42-4.21L46.42-4.21Q46.38-4.24 46.38-4.29L46.38-4.29L46.38-4.99L46.38-4.99Q46.38-5.04 46.42-5.08L46.42-5.08L46.42-5.08Q46.45-5.11 46.50-5.11L46.50-5.11L47.07-5.11L47.07-5.11Q47.12-5.11 47.12-5.16L47.12-5.16L47.12-6.33L47.12-6.33Q47.12-6.38 47.16-6.42L47.16-6.42L47.16-6.42Q47.19-6.45 47.24-6.45L47.24-6.45L48.11-6.45L48.11-6.45Q48.16-6.45 48.20-6.42L48.20-6.42L48.20-6.42Q48.23-6.38 48.23-6.33L48.23-6.33L48.23-5.16L48.23-5.16Q48.23-5.11 48.28-5.11L48.28-5.11L49.30-5.11L49.30-5.11Q49.35-5.11 49.39-5.08L49.39-5.08L49.39-5.08Q49.42-5.04 49.42-4.99L49.42-4.99L49.42-4.29Z"/><path fill="#252530" transform="translate(34.64, 89.5)" d="M5.46-5.91L5.46-5.91Q5.46-5.86 5.42-5.83L5.42-5.83L5.42-5.83Q5.39-5.79 5.34-5.79L5.34-5.79L2.07-5.79L2.07-5.79Q2.02-5.79 2.02-5.74L2.02-5.74L2.02-4.19L2.02-4.19Q2.02-4.14 2.07-4.14L2.07-4.14L4.22-4.14L4.22-4.14Q4.27-4.14 4.30-4.11L4.30-4.11L4.30-4.11Q4.34-4.07 4.34-4.02L4.34-4.02L4.34-3.05L4.34-3.05Q4.34-3 4.30-2.96L4.30-2.96L4.30-2.96Q4.27-2.93 4.22-2.93L4.22-2.93L2.07-2.93L2.07-2.93Q2.02-2.93 2.02-2.88L2.02-2.88L2.02-0.12L2.02-0.12Q2.02-0.07 1.99-0.04L1.99-0.04L1.99-0.04Q1.95 0 1.90 0L1.90 0L0.73 0L0.73 0Q0.68 0 0.65-0.04L0.65-0.04L0.65-0.04Q0.61-0.07 0.61-0.12L0.61-0.12L0.61-6.88L0.61-6.88Q0.61-6.93 0.65-6.96L0.65-6.96L0.65-6.96Q0.68-7 0.73-7L0.73-7L5.34-7L5.34-7Q5.39-7 5.42-6.96L5.42-6.96L5.42-6.96Q5.46-6.93 5.46-6.88L5.46-6.88L5.46-5.91ZM10.66 0L10.66 0Q10.56 0 10.53-0.10L10.53-0.10L10.23-1.08L10.23-1.08Q10.21-1.12 10.18-1.12L10.18-1.12L7.72-1.12L7.72-1.12Q7.69-1.12 7.67-1.08L7.67-1.08L7.38-0.10L7.38-0.10Q7.35 0 7.25 0L7.25 0L5.98 0L5.98 0Q5.92 0 5.89-0.04L5.89-0.04L5.89-0.04Q5.86-0.07 5.88-0.14L5.88-0.14L8.04-6.90L8.04-6.90Q8.07-7 8.17-7L8.17-7L9.74-7L9.74-7Q9.84-7 9.87-6.90L9.87-6.90L12.03-0.14L12.03-0.14Q12.04-0.12 12.04-0.09L12.04-0.09L12.04-0.09Q12.04 0 11.93 0L11.93 0L10.66 0ZM8.03-2.27L8.03-2.27Q8.02-2.21 8.07-2.21L8.07-2.21L9.83-2.21L9.83-2.21Q9.89-2.21 9.87-2.27L9.87-2.27L8.97-5.24L8.97-5.24Q8.96-5.28 8.94-5.28L8.94-5.28L8.94-5.28Q8.92-5.27 8.91-5.24L8.91-5.24L8.03-2.27ZM13.04 0L13.04 0Q12.99 0 12.96-0.04L12.96-0.04L12.96-0.04Q12.92-0.07 12.92-0.12L12.92-0.12L12.92-6.88L12.92-6.88Q12.92-6.93 12.96-6.96L12.96-6.96L12.96-6.96Q12.99-7 13.04-7L13.04-7L14.21-7L14.21-7Q14.26-7 14.29-6.96L14.29-6.96L14.29-6.96Q14.33-6.93 14.33-6.88L14.33-6.88L14.33-1.26L14.33-1.26Q14.33-1.21 14.38-1.21L14.38-1.21L17.65-1.21L17.65-1.21Q17.70-1.21 17.73-1.18L17.73-1.18L17.73-1.18Q17.77-1.14 17.77-1.09L17.77-1.09L17.77-0.12L17.77-0.12Q17.77-0.07 17.73-0.04L17.73-0.04L17.73-0.04Q17.70 0 17.65 0L17.65 0L13.04 0ZM18.76 0L18.76 0Q18.71 0 18.68-0.04L18.68-0.04L18.68-0.04Q18.64-0.07 18.64-0.12L18.64-0.12L18.64-6.88L18.64-6.88Q18.64-6.93 18.68-6.96L18.68-6.96L18.68-6.96Q18.71-7 18.76-7L18.76-7L19.93-7L19.93-7Q19.98-7 20.02-6.96L20.02-6.96L20.02-6.96Q20.05-6.93 20.05-6.88L20.05-6.88L20.05-1.26L20.05-1.26Q20.05-1.21 20.10-1.21L20.10-1.21L23.37-1.21L23.37-1.21Q23.42-1.21 23.46-1.18L23.46-1.18L23.46-1.18Q23.49-1.14 23.49-1.09L23.49-1.09L23.49-0.12L23.49-0.12Q23.49-0.07 23.46-0.04L23.46-0.04L23.46-0.04Q23.42 0 23.37 0L23.37 0L18.76 0Z"/><path fill="#252530" transform="translate(36.79, 98.9)" d="M2.33-1.27L2.33-1.27Q2.31-1.25 2.32-1.23L2.32-1.23L2.32-1.23Q2.33-1.21 2.36-1.21L2.36-1.21L5.07-1.21L5.07-1.21Q5.12-1.21 5.16-1.18L5.16-1.18L5.16-1.18Q5.19-1.14 5.19-1.09L5.19-1.09L5.19-0.12L5.19-0.12Q5.19-0.07 5.16-0.04L5.16-0.04L5.16-0.04Q5.12 0 5.07 0L5.07 0L0.57 0L0.57 0Q0.52 0 0.48-0.04L0.48-0.04L0.48-0.04Q0.45-0.07 0.45-0.12L0.45-0.12L0.45-1.04L0.45-1.04Q0.45-1.13 0.51-1.19L0.51-1.19L0.51-1.19Q1-1.67 1.51-2.23L1.51-2.23L1.51-2.23Q2.02-2.80 2.15-2.94L2.15-2.94L2.15-2.94Q2.43-3.27 2.72-3.57L2.72-3.57L2.72-3.57Q3.63-4.58 3.63-5.07L3.63-5.07L3.63-5.07Q3.63-5.42 3.38-5.65L3.38-5.65L3.38-5.65Q3.13-5.87 2.73-5.87L2.73-5.87L2.73-5.87Q2.33-5.87 2.08-5.65L2.08-5.65L2.08-5.65Q1.83-5.42 1.83-5.05L1.83-5.05L1.83-4.80L1.83-4.80Q1.83-4.75 1.79-4.71L1.79-4.71L1.79-4.71Q1.76-4.68 1.71-4.68L1.71-4.68L0.53-4.68L0.53-4.68Q0.48-4.68 0.45-4.71L0.45-4.71L0.45-4.71Q0.41-4.75 0.41-4.80L0.41-4.80L0.41-5.27L0.41-5.27Q0.44-5.81 0.75-6.23L0.75-6.23L0.75-6.23Q1.06-6.64 1.57-6.86L1.57-6.86L1.57-6.86Q2.09-7.08 2.73-7.08L2.73-7.08L2.73-7.08Q3.44-7.08 3.97-6.82L3.97-6.82L3.97-6.82Q4.49-6.55 4.78-6.10L4.78-6.10L4.78-6.10Q5.06-5.65 5.06-5.10L5.06-5.10L5.06-5.10Q5.06-4.68 4.85-4.24L4.85-4.24L4.85-4.24Q4.64-3.80 4.22-3.29L4.22-3.29L4.22-3.29Q3.91-2.90 3.55-2.52L3.55-2.52L3.55-2.52Q3.19-2.14 2.48-1.42L2.48-1.42L2.33-1.27ZM8.44 0.11L8.44 0.11Q7.34 0.11 6.70-0.51L6.70-0.51L6.70-0.51Q6.06-1.12 6.06-2.18L6.06-2.18L6.06-4.82L6.06-4.82Q6.06-5.86 6.70-6.47L6.70-6.47L6.70-6.47Q7.34-7.08 8.44-7.08L8.44-7.08L8.44-7.08Q9.54-7.08 10.19-6.47L10.19-6.47L10.19-6.47Q10.83-5.86 10.83-4.82L10.83-4.82L10.83-2.18L10.83-2.18Q10.83-1.12 10.19-0.51L10.19-0.51L10.19-0.51Q9.54 0.11 8.44 0.11L8.44 0.11ZM8.44-1.10L8.44-1.10Q8.89-1.10 9.16-1.38L9.16-1.38L9.16-1.38Q9.42-1.65 9.42-2.11L9.42-2.11L9.42-4.86L9.42-4.86Q9.42-5.32 9.16-5.59L9.16-5.59L9.16-5.59Q8.89-5.87 8.44-5.87L8.44-5.87L8.44-5.87Q8-5.87 7.74-5.59L7.74-5.59L7.74-5.59Q7.47-5.32 7.47-4.86L7.47-4.86L7.47-2.11L7.47-2.11Q7.47-1.65 7.74-1.38L7.74-1.38L7.74-1.38Q8-1.10 8.44-1.10L8.44-1.10ZM12.69-6.97L12.69-6.97Q12.74-7 12.84-7L12.84-7L14.05-7L14.05-7Q14.10-7 14.14-6.96L14.14-6.96L14.14-6.96Q14.17-6.93 14.17-6.88L14.17-6.88L14.17-0.12L14.17-0.12Q14.17-0.07 14.14-0.04L14.14-0.04L14.14-0.04Q14.10 0 14.05 0L14.05 0L12.88 0L12.88 0Q12.83 0 12.80-0.04L12.80-0.04L12.80-0.04Q12.76-0.07 12.76-0.12L12.76-0.12L12.76-5.60L12.76-5.60Q12.76-5.62 12.74-5.64L12.74-5.64L12.74-5.64Q12.72-5.66 12.70-5.65L12.70-5.65L11.71-5.38L11.67-5.37L11.67-5.37Q11.58-5.37 11.58-5.48L11.58-5.48L11.55-6.34L11.55-6.34Q11.55-6.44 11.64-6.48L11.64-6.48L12.69-6.97ZM19.44-5.73L19.44-5.73Q19.61-5.32 19.61-4.75L19.61-4.75L19.61-1.74L19.61-1.74Q19.61-1.20 19.33-0.79L19.33-0.79L19.33-0.79Q19.05-0.37 18.54-0.14L18.54-0.14L18.54-0.14Q18.03 0.08 17.37 0.08L17.37 0.08L17.37 0.08Q16.72 0.08 16.22-0.14L16.22-0.14L16.22-0.14Q15.72-0.37 15.44-0.78L15.44-0.78L15.44-0.78Q15.16-1.18 15.16-1.71L15.16-1.71L15.16-1.99L15.16-1.99Q15.16-2.04 15.20-2.08L15.20-2.08L15.20-2.08Q15.23-2.11 15.28-2.11L15.28-2.11L16.45-2.11L16.45-2.11Q16.50-2.11 16.54-2.08L16.54-2.08L16.54-2.08Q16.57-2.04 16.57-1.99L16.57-1.99L16.57-1.90L16.57-1.90Q16.57-1.57 16.80-1.35L16.80-1.35L16.80-1.35Q17.02-1.13 17.37-1.13L17.37-1.13L17.37-1.13Q17.74-1.13 17.97-1.35L17.97-1.35L17.97-1.35Q18.20-1.58 18.20-1.93L18.20-1.93L18.20-2.86L18.20-2.86Q18.20-2.89 18.18-2.90L18.18-2.90L18.18-2.90Q18.16-2.91 18.14-2.89L18.14-2.89L18.14-2.89Q17.73-2.54 17.06-2.54L17.06-2.54L17.06-2.54Q16.46-2.54 15.99-2.81L15.99-2.81L15.99-2.81Q15.51-3.09 15.24-3.61L15.24-3.61L15.24-3.61Q14.99-4.08 14.99-4.76L14.99-4.76L14.99-4.76Q14.99-5.35 15.19-5.80L15.19-5.80L15.19-5.80Q15.44-6.39 16.00-6.73L16.00-6.73L16.00-6.73Q16.55-7.07 17.30-7.07L17.30-7.07L17.30-7.07Q18.06-7.07 18.63-6.71L18.63-6.71L18.63-6.71Q19.19-6.36 19.44-5.73L19.44-5.73ZM17.30-3.72L17.30-3.72Q17.82-3.72 18.05-4.13L18.05-4.13L18.05-4.13Q18.20-4.39 18.20-4.80L18.20-4.80L18.20-4.80Q18.20-5.13 18.07-5.41L18.07-5.41L18.07-5.41Q17.85-5.85 17.31-5.85L17.31-5.85L17.31-5.85Q16.79-5.85 16.55-5.41L16.55-5.41L16.55-5.41Q16.40-5.13 16.40-4.78L16.40-4.78L16.40-4.78Q16.40-4.40 16.57-4.12L16.57-4.12L16.57-4.12Q16.82-3.72 17.30-3.72L17.30-3.72Z"/></g>
</svg>
