<svg xmlns="http://www.w3.org/2000/svg" viewBox="0 0 468 608">
  <style type="text/css">
    .st0{fill:#fff}.st2{fill:#90d7ee}.st3{fill:#456473;stroke:#e75925;stroke-width:6.1656;stroke-miterlimit:10}
  </style>
  <g id="container">
    <path class="st3" d="M104.1 339.8L18.1 531l108-38.4 42.1 105.6 85.9-191z"/>
    <path class="st3" d="M364 339.8L449.9 531l-108-38.4-42.1 105.6-85.8-191z"/>
    <circle cx="234" cy="240.1" r="230.3" fill="#456473" stroke="#e75925" stroke-width="6.166" stroke-miterlimit="10"/>
    <path fill="#e75925" d="M33 181.1h401.9v118H33z"/>
    <path class="st0" d="M99.1 264.1v-48.2h6v42.8h22.3v5.3l-28.3.1zM139.6 264.1v-48.2h31.5v5.3h-25.6v15.5h25v5.3h-25v16.6h25.6v5.3h-31.5v.2zM218.5 264.1l-4.3-10.7h-23.9l-4.3 10.7h-6.9l19.3-48.2h7.4l19.5 48.2h-6.8zm-16.2-41.8l-10.2 25.9h20.4l-10.2-25.9zM235.3 264.1v-48.2h16.5c14.9 0 24.7 10.4 24.7 24s-9.8 24-24.7 24l-16.5.2zm34.9-24c0-10.4-6.6-18.7-18.4-18.7h-10.4v37.5h10.4c11.6-.1 18.4-8.6 18.4-18.8zM289.4 264.1v-48.2h31.5v5.3h-25.6v15.5h25v5.3h-25v16.6h25.6v5.3h-31.5v.2zM361.8 264.1l-12.4-19.2h-9.7v19.2h-6v-48.2H353c8.8 0 15.1 5.7 15.1 14.6 0 8.6-6 13.4-12.5 14l12.9 19.6h-6.7zm.4-33.6c0-5.3-3.9-9.2-9.7-9.2h-12.6v18.4h12.6c5.7.1 9.7-3.7 9.7-9.2z"/>
    <circle class="st2" cx="71.2" cy="240.1" r="10.5"/>
    <circle class="st2" cx="396.8" cy="240.1" r="10.5"/>
    <circle cx="234" cy="240.1" r="205.7" fill="none" stroke="#90d7ee" stroke-width="9.167" stroke-miterlimit="10"/>
    <path class="st0" d="M174.5 102.9c.9-1.1 1.4-2.2 1.4-3.4 0-1.9-1.6-3.3-3.6-3.3-1.7 0-3.4 1.2-3.7 3.3l-2.7-.6c.6-3.3 3.3-5.3 6.4-5.3 3.6 0 6.4 2.4 6.4 6.1 0 1.9-.9 3.7-2.2 5.3-2.7 3.1-2.7 3.1-5.5 6.6h7.7v2.8h-12.6v-1.5l8.4-10z"/>
    <path class="st0" d="M166.3 127.9v-10.2h22.3c.3 1.4.3 2.8.3 4.3 0 15.4-12.6 28.1-28.1 28.1s-28.1-12.6-28.1-28.1 12.6-28.1 28.1-28.1v9.9c-10.1 0-18.2 8.2-18.2 18.2s8.2 18.2 18.2 18.2c8 0 14.9-5.2 17.3-12.4M209.8 120.9c0-7.4.5-10.4 1.6-12.2 1.4-2.2 4.4-3.6 8.3-3.6 3.4 0 6.3 1.1 7.7 2.8 1.2 1.4 1.6 3.1 1.6 5.8v1.6h-6.3c-.2-3.1-.2-3.7-.6-4.4-.5-.8-1.4-1.2-2.5-1.2-1.2 0-2.2.6-2.7 1.4-.6 1.4-.9 3.6-.9 9.8 0 5 .3 8 .6 9.2.3 1.1 1.4 1.6 2.8 1.6 2.5 0 3.1-1.2 3.3-6h6.3c0 4.1-.3 5.5-1.1 7.1-1.2 2.2-4.2 3.4-8.6 3.4-5 0-8.2-1.9-9.2-5.5-.2-1.3-.3-4.9-.3-9.8zM232.7 105.6h9.8c4.7 0 5.5.2 7.1 1.4 1.4 1.2 2.2 3.1 2.2 6.1 0 2.5-.5 4.3-1.4 5.7-.9 1.1-1.7 1.6-4.1 2.1 4.1.5 5.5 2.4 5.5 7.6 0 .9.2 2.5.2 4.6.2 1.4.2 1.7.5 3h-6.7c-.3-1.9-.3-1.9-.3-5.8 0-3.6-.3-5.5-1.1-6.3-.5-.6-1.1-.8-2.7-.8h-3.1v12.6h-6.3v-30.1l.4-.1zm8.8 13.1c2.8 0 3.9-1.2 3.9-4.3 0-1.6-.5-3.1-1.2-3.7-.6-.5-.9-.6-2.5-.6H239v8.6h2.5zM255.8 120.8c0-7 .3-9.6 1.4-11.6 1.4-2.5 4.4-4.1 8.8-4.1 4.7 0 8 1.7 9.2 5 .6 1.6.9 4.7.9 10.7 0 6.4-.3 9.4-1.2 11.1-1.4 2.8-4.6 4.4-8.9 4.4s-7.2-1.4-8.8-4.1c-1.1-1.9-1.4-4.5-1.4-11.4zm10.1 11c1.9 0 3-.9 3.4-2.7.3-1.2.5-5 .5-9.4 0-4.6-.3-7.2-.8-8.3-.5-1.1-1.6-1.6-3.1-1.6-1.7 0-3 .8-3.3 2.1-.3 1.4-.5 4.4-.5 9.2 0 4.1.2 6.7.3 7.9.5 1.8 1.7 2.8 3.5 2.8zM278.3 105.6h6.4l2.1 11c.8 4.1.9 7.6 1.2 14.7 1.4-9.2 1.6-11.9 2.2-14.7l2.4-11h7.1l2.2 11c1.1 5 1.4 8.5 1.6 14.7.5-5.2.9-8.9 1.7-14.7l1.9-11h5.5l-6.1 30.3h-6.9l-2.8-14.1c-.5-2.5-1.1-8.2-1.2-11.3-.9 6.9-.9 7.7-1.6 11.3l-3 14.1h-7l-5.7-30.3zM315.6 105.6h8.5c4.9 0 6.4.3 8 1.4 1.9 1.4 2.8 3.9 3.3 8.6.2 1.9.3 4.3.3 6.4 0 5.5-.3 8.2-1.4 9.9-1.4 2.5-4.2 4.1-8 4.1h-10.7v-30.4zm9 25.6c2.2 0 3.4-.5 3.9-1.6s.6-3 .6-7.9c0-5.3-.2-7.7-.8-9.2-.5-1.4-1.6-1.9-3.6-1.9h-2.8v20.9h2.7v-.3zM198.5 93.6h2.1v56h-2.1z"/>
  <path fill="#FFFFFF" transform="translate(99.48, 370)" d="M4.02-31.28L9.73-8.44L10.70-3.59L11.88-8.23L18.67-31.28L21.05-31.28L27.76-8.23L28.92-3.54L29.95-8.44L35.60-31.28L38.31-31.28L30.29 0L27.76 0L20.67-24.47L19.87-27.56L19.10-24.47L11.84 0L9.30 0L1.31-31.28L4.02-31.28ZM46.62-31.28L46.62 0L43.98 0L43.98-31.28L46.62-31.28ZM78.40-31.28L78.40 0L75.75 0L57.77-26.77L57.77 0L55.11 0L55.11-31.28L57.77-31.28L75.78-4.49L75.78-31.28L78.40-31.28ZM106.95-31.28L106.95-29.03L96.23-29.03L96.23 0L93.59 0L93.59-29.03L82.89-29.03L82.89-31.28L106.95-31.28ZM129.27-17.23L129.27-15.00L114.64-15.00L114.64-2.23L131.46-2.23L131.46 0L112.00 0L112.00-31.28L131.36-31.28L131.36-29.03L114.64-29.03L114.64-17.23L129.27-17.23ZM156.28 0L148.71-13.02L139.63-13.02L139.63 0L136.96 0L136.96-31.28L147.13-31.28L147.13-31.28Q152.13-31.28 154.95-28.85L154.95-28.85L154.95-28.85Q157.76-26.43 157.76-22.06L157.76-22.06L157.76-22.06Q157.76-19.06 156.00-16.76L156.00-16.76L156.00-16.76Q154.24-14.46 151.27-13.58L151.27-13.58L159.09-0.28L159.09 0L156.28 0ZM139.63-29.03L139.63-15.28L147.73-15.28L147.73-15.28Q151.06-15.28 153.08-17.17L153.08-17.17L153.08-17.17Q155.10-19.06 155.10-22.06L155.10-22.06L155.10-22.06Q155.10-25.37 152.99-27.20L152.99-27.20L152.99-27.20Q150.88-29.03 147.08-29.03L147.08-29.03L139.63-29.03ZM194.24-2.17L194.24 0L174.65 0L174.65-1.98L185.37-14.14L185.37-14.14Q188.03-17.21 189.06-19.21L189.06-19.21L189.06-19.21Q190.09-21.21 190.09-23.10L190.09-23.10L190.09-23.10Q190.09-26.06 188.35-27.79L188.35-27.79L188.35-27.79Q186.61-29.52 183.56-29.52L183.56-29.52L183.56-29.52Q180.40-29.52 178.46-27.50L178.46-27.50L178.46-27.50Q176.52-25.48 176.52-22.26L176.52-22.26L173.96-22.26L173.96-22.26Q173.96-24.90 175.15-27.07L175.15-27.07L175.15-27.07Q176.34-29.24 178.55-30.48L178.55-30.48L178.55-30.48Q180.75-31.71 183.56-31.71L183.56-31.71L183.56-31.71Q187.86-31.71 190.28-29.46L190.28-29.46L190.28-29.46Q192.69-27.20 192.69-23.31L192.69-23.31L192.69-23.31Q192.69-21.12 191.33-18.52L191.33-18.52L191.33-18.52Q189.96-15.92 186.53-12.03L186.53-12.03L177.80-2.17L194.24-2.17ZM217.89-18.78L217.89-13.04L217.89-13.04Q217.89-6.42 215.47-3.00L215.47-3.00L215.47-3.00Q213.04 0.43 208.31 0.43L208.31 0.43L208.31 0.43Q203.67 0.43 201.20-2.93L201.20-2.93L201.20-2.93Q198.73-6.29 198.67-12.72L198.67-12.72L198.67-18.33L198.67-18.33Q198.67-24.92 201.12-28.32L201.12-28.32L201.12-28.32Q203.56-31.71 208.27-31.71L208.27-31.71L208.27-31.71Q212.91-31.71 215.36-28.43L215.36-28.43L215.36-28.43Q217.81-25.16 217.89-18.78L217.89-18.78ZM215.32-12.63L215.32-18.65L215.32-18.65Q215.32-24.02 213.57-26.77L213.57-26.77L213.57-26.77Q211.81-29.52 208.27-29.52L208.27-29.52L208.27-29.52Q204.79-29.52 203.03-26.83L203.03-26.83L203.03-26.83Q201.27-24.15 201.22-18.91L201.22-18.91L201.22-12.76L201.22-12.76Q201.22-7.41 203.04-4.58L203.04-4.58L203.04-4.58Q204.85-1.74 208.31-1.74L208.31-1.74L208.31-1.74Q211.75-1.74 213.52-4.51L213.52-4.51L213.52-4.51Q215.29-7.28 215.32-12.63L215.32-12.63ZM235.38-31.39L235.38 0L232.80 0L232.80-28.19L224.30-25.03L224.30-27.44L234.95-31.39L235.38-31.39ZM263.85-14.48L263.85-14.48L263.85-14.48Q262.47-12.46 260.43-11.35L260.43-11.35L260.43-11.35Q258.39-10.25 256.01-10.25L256.01-10.25L256.01-10.25Q253.34-10.25 251.30-11.62L251.30-11.62L251.30-11.62Q249.26-13.00 248.14-15.43L248.14-15.43L248.14-15.43Q247.03-17.85 247.03-20.73L247.03-20.73L247.03-20.73Q247.03-23.83 248.22-26.36L248.22-26.36L248.22-26.36Q249.41-28.90 251.55-30.30L251.55-30.30L251.55-30.30Q253.69-31.71 256.48-31.71L256.48-31.71L256.48-31.71Q261.19-31.71 263.81-28.41L263.81-28.41L263.81-28.41Q266.43-25.12 266.43-19.06L266.43-19.06L266.43-16.74L266.43-16.74Q266.43-8.27 262.82-4.02L262.82-4.02L262.82-4.02Q259.21 0.24 251.80 0.24L251.80 0.24L251.32 0.24L251.35-2.00L252.25-2.00L252.25-2.00Q257.86-2.08 260.78-5.18L260.78-5.18L260.78-5.18Q263.70-8.27 263.85-14.48ZM256.33-12.46L256.33-12.46L256.33-12.46Q258.91-12.46 260.96-14.00L260.96-14.00L260.96-14.00Q263.01-15.53 263.87-17.98L263.87-17.98L263.87-19.46L263.87-19.46Q263.87-24.23 261.88-26.87L261.88-26.87L261.88-26.87Q259.90-29.50 256.52-29.50L256.52-29.50L256.52-29.50Q253.47-29.50 251.52-27.04L251.52-27.04L251.52-27.04Q249.56-24.58 249.56-20.84L249.56-20.84L249.56-20.84Q249.56-17.25 251.44-14.86L251.44-14.86L251.44-14.86Q253.32-12.46 256.33-12.46Z"/></g>
</svg>
