<svg width="48" height="48" viewBox="0 0 48 48" fill="none" xmlns="http://www.w3.org/2000/svg">
<g clip-path="url(#clip0)">
<path d="M36.4795 11.8015L17.0862 0.604656C15.8613 -0.102594 14.7514 -0.168313 13.9499 0.297437L8.47604 3.47847C8.47857 3.47697 8.48138 3.47584 8.484 3.47425C7.68825 3.93212 7.19438 4.91134 7.19035 6.30559L7.12716 28.5902C7.11919 31.3872 9.08635 34.7943 11.5205 36.1997L30.9139 47.3964C32.174 48.1238 33.3113 48.171 34.1173 47.6606C34.0949 47.6748 34.0731 47.69 34.05 47.7035L39.5237 44.5226C40.3149 44.0627 40.8054 43.0851 40.8095 41.6956L40.8727 19.411C40.8808 16.6133 38.9137 13.2068 36.4795 11.8015Z" fill="#155C92"/>
<path d="M39.5239 44.5223L34.0502 47.7033C34.8414 47.2434 35.3321 46.2658 35.336 44.8762L40.8096 41.6953C40.8057 43.0848 40.315 44.0625 39.5239 44.5223Z" fill="#1A6FB0"/>
<path d="M8.47601 3.47837L13.9497 0.297437C14.7512 -0.168313 15.8611 -0.102594 17.086 0.604656L11.6123 3.78559C10.3874 3.07834 9.27758 3.01253 8.47601 3.47837Z" fill="#1D81CD"/>
<path d="M35.3991 22.5919L40.8728 19.4109L40.8096 41.6955L35.3359 44.8764L35.3991 22.5919Z" fill="#1D81CD"/>
<path d="M11.6124 3.78552L17.0862 0.604492L36.4795 11.8013L31.0058 14.9823L11.6124 3.78552Z" fill="#3D99E2"/>
<path d="M31.0058 14.9825L36.4795 11.8015C38.9137 13.2068 40.8807 16.6134 40.8728 19.411L35.3991 22.592C35.4071 19.7944 33.44 16.3879 31.0058 14.9825Z" fill="#5AAAE7"/>
<path d="M18.5229 27.7352L18.5367 22.8668L22.1951 24.9789L22.2054 21.3883C22.2172 17.2213 24.4386 16.232 27.6733 18.0996C29.2225 18.9939 30.5536 19.8949 30.942 20.1785L30.9296 24.5327L28.6858 23.2387C26.9271 22.2233 26.5838 22.9873 26.5797 24.3966L26.5709 27.5054L30.766 29.9274L30.2062 34.4807L26.5569 32.3738L26.5217 44.8656L22.1459 42.3392L22.1814 29.8475L18.5229 27.7352Z" fill="#3D5A98"/>
<path d="M22.2054 21.4862L22.1951 25.0768L18.5367 22.9647L18.5229 27.8331L22.1814 29.9453L22.1462 42.3344L26.522 44.8608L26.5571 32.4717L30.2063 34.5785L30.766 30.0253L26.5709 27.6032L26.5797 24.4944C26.5838 23.0851 26.927 22.3211 28.6858 23.3365L30.9296 24.6305L30.942 20.2763C30.5537 19.9926 29.2225 19.0918 27.6733 18.1974C24.4386 16.3299 22.2172 17.3193 22.2054 21.4862Z" fill="white"/>
</g>
<defs>
<clipPath id="clip0">
<rect width="48" height="48" fill="white"/>
</clipPath>
</defs>
</svg>
