<svg width="175" height="27" viewBox="0 0 175 27" fill="none" xmlns="http://www.w3.org/2000/svg">
<path fill-rule="evenodd" clip-rule="evenodd" d="M38.2928 13.276L32.951 13.276L32.951 15.0347C32.951 15.0347 33.8221 15.6362 34.3724 16.5619C34.9226 17.4875 35.2434 19.5701 35.2434 19.5701C35.2434 19.5701 36.0458 18.9915 37.1006 18.737C38.1554 18.4825 39.5077 18.5983 39.5077 18.5983C39.5077 18.5983 40.1957 17.7188 41.5023 17.3488C42.8092 16.9786 43.9554 17.1869 43.9554 17.1869C43.9554 17.1869 44.6891 16.2148 46.1791 15.8678C47.6695 15.5204 48.655 15.7752 48.655 15.7752C48.655 15.7752 49.6868 14.8496 50.1453 14.5025C50.6038 14.1555 52.0712 13.415 52.0712 13.415C52.0712 13.415 50.902 12.9751 50.2143 12.628C49.5266 12.281 48.4948 11.2628 48.4948 11.2628C48.4948 11.2628 47.3486 11.6101 45.9957 11.147C44.6431 10.6842 43.8637 9.66597 43.8637 9.66597C43.8637 9.66597 42.9006 10.2443 41.3879 9.8511C39.8746 9.45793 39.5307 8.4165 39.5307 8.4165C39.5307 8.4165 38.5222 8.64776 37.1236 8.27751C35.725 7.90755 35.0603 7.14352 35.0603 7.14352C35.0603 7.14352 34.9456 8.85611 34.5788 9.59632C34.2119 10.3368 33.1114 11.6095 33.1114 11.6095C33.1114 11.6095 34.6245 11.6789 35.4271 11.7714C36.2295 11.864 36.7338 12.0491 37.2383 12.3268C37.7429 12.6048 38.2928 13.276 38.2928 13.276ZM29.5124 13.3918L29.5124 14.9883C29.5124 14.9883 28.8017 15.3121 28.5496 15.7288C28.2975 16.1452 28.1828 17.2327 28.1828 17.2327L25.8214 17.2327L25.8214 15.0344L0.24656 15.0344L0.24656 13.3915L29.5124 13.3915L29.5124 13.3918ZM32.8369 15.0347L32.8369 11.6098L32.3327 11.6098L32.3327 15.0347L32.8369 15.0347ZM31.9658 15.0347L31.9658 11.6098L31.4616 11.6098L31.4616 15.0347L31.9658 15.0347ZM31.0487 15.0347L31.0487 11.6098L30.5445 11.6098L30.5445 15.0347L31.0487 15.0347Z" fill="white"/>
<path fill-rule="evenodd" clip-rule="evenodd" d="M19.0385 4.53869C20.0165 4.60591 21.6935 4.94231 21.6935 4.94231C21.6935 4.94231 20.4177 5.60935 19.7109 6.16416L20.1333 6.33323C20.3623 6.42411 20.5786 6.51239 20.7841 6.5975C21.123 6.40766 21.5197 6.37275 21.5197 6.37275C21.5197 6.37275 21.3306 6.54471 21.1826 6.76513C21.9263 7.0822 22.515 7.35975 23.0136 7.61682C23.5367 7.341 24.4689 7.25618 24.4689 7.25618C24.4689 7.25618 23.9961 7.50949 23.505 7.87936C24.5432 8.4535 25.2149 8.95522 26.3526 9.63005C26.6369 9.79883 26.9225 9.96761 27.2077 10.1332C27.8899 9.90356 28.663 9.86433 28.663 9.86433C28.663 9.86433 28.0901 10.1032 27.658 10.3923C29.2269 11.2847 30.7519 12.0368 31.9199 12.1421C33.3311 12.2694 34.4082 12.1961 34.855 12.0737L34.855 14.8564L35.3673 14.8564L35.3673 11.5371C35.3673 11.5371 35.1111 11.2904 35.018 11.0885C34.9248 10.8868 34.3426 9.89981 34.3426 9.89981L33.9231 10.124C33.9231 10.124 33.9231 10.3259 34.0166 10.5726C34.1098 10.8193 34.366 11.201 34.366 11.201C34.366 11.201 33.9468 10.999 33.4575 10.5279C32.8694 9.96155 32.6689 9.24316 31.6056 8.06113L31.4812 8.4134C31.4812 8.4134 31.3949 8.11912 31.332 7.76742C31.1957 7.62576 31.0474 7.47776 30.8847 7.32311C30.8643 7.68433 30.891 8.09806 30.891 8.09806C30.891 8.09806 30.6336 7.65 30.6213 7.07874C30.3915 6.86981 30.1566 6.66625 29.9166 6.46825C28.3319 5.1561 26.8841 4.20084 25.0624 3.59871C25.0783 3.86486 25.0989 4.13071 25.1244 4.39616C25.1244 4.39616 24.7095 3.805 24.4578 3.41638C23.6749 3.20057 22.8198 3.04362 21.8565 2.94668C21.4751 2.9083 21.1074 2.87917 20.7515 2.85839C20.8648 3.07802 20.9848 3.2944 21.1113 3.50726C21.3672 3.93368 21.8795 4.51676 21.8795 4.51676C21.8795 4.51676 20.8776 4.3148 19.5269 4.22507C18.1756 4.13506 16.522 4.42674 16.522 4.42674C16.522 4.42674 18.06 4.47146 19.0385 4.53869Z" fill="white"/>
<path fill-rule="evenodd" clip-rule="evenodd" d="M38.3997 12.9833L33.0429 12.9833L33.0429 14.7252L32.9285 14.7252L32.9285 11.333L33.2041 11.333C33.2041 11.333 34.7214 11.4017 35.5263 11.4934C36.3309 11.5851 36.8366 11.7684 37.3425 12.0435C37.8482 12.3185 38.3997 12.9833 38.3997 12.9833ZM29.5946 14.7252L29.5946 13.0979L0.246518 13.0979L0.246518 11.333L24.8245 11.333C25.5597 11.6664 26.2442 11.8967 26.8359 11.9518C28.2287 12.0818 29.2918 12.0069 29.7327 11.8819L29.7327 14.7252L29.5946 14.7252ZM32.4228 11.333L32.4228 14.7252L32.0549 14.7252L32.0549 11.333L32.4228 11.333ZM31.5493 11.333L31.5493 14.7252L31.1353 14.7252L31.1353 11.333L31.5493 11.333ZM30.6296 11.333L30.6296 14.7252L30.2384 14.7252L30.2384 11.333L30.6296 11.333ZM10.6739 4.27387C11.6125 4.50764 13.0212 5.11079 14.786 5.84306C15.4836 5.27588 16.7427 4.59461 16.7427 4.59461C16.7427 4.59461 15.0874 4.25088 14.1224 4.18219C13.1567 4.1138 11.6397 4.06752 11.6397 4.06752C11.6397 4.06752 13.272 3.76948 14.6053 3.86145C15.9384 3.95313 16.9273 4.15949 16.9273 4.15949C16.9273 4.15949 16.4213 3.56371 16.1691 3.12801C16.0431 2.91222 15.9133 2.66223 15.8139 2.46501C12.8879 2.28961 10.8152 2.7604 8.92651 4.0908C9.43218 4.04481 9.66195 4.02182 10.6739 4.27387ZM18.5309 7.59591C19.0156 7.21798 19.4822 6.95915 19.4822 6.95915C19.4822 6.95915 18.5622 7.04582 18.0459 7.32764C18.2089 7.41476 18.3705 7.50419 18.5309 7.59591ZM26.4027 8.14098L26.5254 7.78104C26.4412 7.68435 26.3516 7.58411 26.2555 7.48064C26.2942 7.70293 26.3433 7.92328 26.4027 8.14098ZM25.554 6.77726C25.5662 7.36096 25.8202 7.81877 25.8202 7.81877C25.8202 7.81877 25.7936 7.39603 25.814 7.02695C25.7315 6.94559 25.6448 6.86246 25.554 6.77726ZM20.1289 4.03597C20.1289 4.03597 20.0858 3.5755 20.0677 3.22116C19.8737 3.15454 19.675 3.09263 19.471 3.03485C19.7197 3.43194 20.1289 4.03597 20.1289 4.03597ZM22.6298 10.1639C23.0559 9.86848 23.6216 9.62439 23.6216 9.62439C23.6216 9.62439 22.8586 9.66448 22.1853 9.89913C22.3335 9.98816 22.4819 10.0766 22.6298 10.1639ZM15.8453 6.28584C15.9816 6.34421 16.112 6.4014 16.2386 6.45712C16.3846 6.2316 16.5712 6.0562 16.5712 6.0562C16.5712 6.0562 16.1797 6.09187 15.8453 6.28584ZM49.2668 12.7572C49.2858 12.7287 49.2928 12.6939 49.2862 12.6604C49.2795 12.6268 49.2598 12.5973 49.2313 12.5782C49.2289 12.5767 48.9726 12.4028 48.7611 12.0868C48.5441 11.7622 48.4098 11.3651 48.4086 11.3613C48.3978 11.3288 48.3744 11.302 48.3437 11.2867C48.313 11.2713 48.2774 11.2688 48.2448 11.2797C48.2122 11.2905 48.1853 11.3138 48.1699 11.3444C48.1546 11.375 48.152 11.4105 48.1629 11.443C48.1688 11.4607 48.3093 11.876 48.5458 12.2301C48.7871 12.5912 49.0755 12.7849 49.0876 12.7931C49.1162 12.8118 49.151 12.8185 49.1846 12.8118C49.2181 12.8051 49.2477 12.7854 49.2668 12.7572ZM47.8772 12.3786C47.8994 12.3533 47.9106 12.3202 47.9084 12.2867C47.9063 12.2531 47.8909 12.2218 47.8657 12.1994C47.8409 12.1773 47.6061 11.9845 46.9801 11.9603C46.367 11.9368 45.9868 12.0529 45.9711 12.0579C45.9383 12.0681 45.911 12.0908 45.8951 12.1211C45.8791 12.1513 45.8759 12.1867 45.8861 12.2193C45.8963 12.252 45.9191 12.2792 45.9494 12.2951C45.9798 12.311 46.0152 12.3142 46.048 12.3041C46.0515 12.3032 46.4055 12.1965 46.9703 12.218C47.5011 12.2383 47.6939 12.3919 47.6957 12.3934C47.7219 12.4151 47.7555 12.4257 47.7895 12.423C47.8234 12.4202 47.8549 12.4043 47.8772 12.3786ZM45.0845 12.6667C45.0972 12.6554 45.1075 12.6417 45.1149 12.6264C45.1222 12.6111 45.1264 12.5945 45.1274 12.5776C45.1283 12.5607 45.1258 12.5437 45.1201 12.5278C45.1145 12.5118 45.1057 12.4971 45.0943 12.4845C45.0905 12.4798 44.6853 12.0293 44.3967 11.5426C44.106 11.0521 43.7645 10.2376 43.7612 10.2293C43.748 10.1977 43.7228 10.1727 43.691 10.1596C43.6593 10.1466 43.6236 10.1467 43.5919 10.1599C43.5603 10.1731 43.5351 10.1982 43.5221 10.2299C43.509 10.2615 43.5091 10.2971 43.5223 10.3286C43.5365 10.3626 43.8739 11.1676 44.1741 11.6738C44.476 12.1835 44.8846 12.6381 44.9018 12.6569C44.9248 12.6824 44.9569 12.6977 44.9912 12.6995C45.0254 12.7013 45.059 12.6895 45.0845 12.6667ZM43.25 11.8088C43.2789 11.7909 43.2995 11.7623 43.3075 11.7293C43.3154 11.6963 43.3099 11.6615 43.2922 11.6325C43.2807 11.6142 43.003 11.175 42.0704 10.8891C41.1421 10.6043 40.5625 10.8136 40.5383 10.8227C40.4718 10.8475 40.438 10.9215 40.4629 10.9881C40.4877 11.0547 40.5619 11.0886 40.6288 11.0645C40.6341 11.0624 41.1572 10.8787 41.9944 11.1355C42.8224 11.3896 43.0699 11.7643 43.0722 11.7681C43.0906 11.7968 43.1195 11.8171 43.1528 11.8247C43.186 11.8323 43.2209 11.8266 43.25 11.8088ZM39.3957 11.9244C39.4067 11.892 39.4044 11.8566 39.3892 11.8259C39.3741 11.7953 39.3474 11.7718 39.3149 11.7608C39.3099 11.759 38.7992 11.5806 38.2143 11.0114C37.2899 10.1117 36.9892 8.66336 36.9862 8.64862C36.9795 8.61508 36.9596 8.58558 36.9311 8.56662C36.9025 8.54766 36.8676 8.54078 36.8339 8.5475C36.8003 8.55423 36.7707 8.574 36.7517 8.60247C36.7326 8.63094 36.7257 8.66578 36.7325 8.69932C36.7449 8.76182 37.0504 10.2393 38.0333 11.1959C38.6638 11.8094 39.2091 11.9975 39.2318 12.0051C39.2479 12.0106 39.2649 12.0128 39.2819 12.0117C39.2988 12.0106 39.3154 12.0062 39.3306 11.9987C39.3458 11.9912 39.3594 11.9808 39.3706 11.968C39.3817 11.9552 39.3903 11.9404 39.3957 11.9244ZM38.3997 12.9833C38.3997 12.9833 38.8137 13.2123 39.5953 13.2123C40.3771 13.2123 41.2279 12.8471 41.6185 12.7999C42.377 12.7082 43.3419 13.1531 44.0327 13.2123C45.3661 13.327 46.6997 13.052 46.6997 13.052C46.6997 13.052 47.0901 13.3412 47.4585 13.35C48.424 13.3727 49.2517 13.0979 49.8955 13.052C50.5392 13.006 51.6428 13.1436 51.6428 13.1436C51.6428 13.1436 50.9302 13.4417 50.1714 13.9688C49.4129 14.4959 48.6999 15.1376 48.6999 15.1376C48.6999 15.1376 47.5502 14.9083 46.263 15.2523C44.9754 15.596 44.0099 16.4898 44.0099 16.4898C44.0099 16.4898 42.5385 16.3295 41.5499 16.6272C40.5614 16.9253 39.4578 17.9108 39.4578 17.9108C39.4578 17.9108 38.4 17.8191 37.5495 17.9794C36.6988 18.1398 35.5721 18.7129 35.5721 18.7129C35.5721 18.7129 35.3882 17.223 34.8364 16.2378C34.2846 15.2523 33.6639 14.6335 33.6639 14.6335C33.6639 14.6335 34.5147 14.7252 35.3193 14.6105C36.1239 14.4959 36.7218 14.4042 37.2506 14.0604C37.779 13.7167 38.3997 12.9833 38.3997 12.9833Z" fill="white"/>
<path fill-rule="evenodd" clip-rule="evenodd" d="M27.4083 16.0886C27.4101 16.0829 27.5888 15.5266 27.8222 15.2591C28.0544 14.9925 28.5373 14.7828 28.5421 14.7806C28.5719 14.7653 28.5951 14.7386 28.607 14.706C28.6188 14.6734 28.6184 14.6373 28.6058 14.605C28.5932 14.5726 28.5694 14.5466 28.5392 14.532C28.509 14.5175 28.4747 14.5155 28.4432 14.5266C28.4211 14.536 27.9017 14.7614 27.6295 15.0735C27.3581 15.3843 27.1684 15.9765 27.1603 16.0016C27.1493 16.0362 27.1519 16.0739 27.1674 16.1065C27.1829 16.1391 27.21 16.1638 27.2429 16.1754C27.2758 16.1869 27.3117 16.1842 27.3427 16.168C27.3738 16.1517 27.3974 16.1231 27.4083 16.0886ZM26.7808 14.6446C27.1881 14.6192 27.6767 14.4497 27.6973 14.4425C27.7136 14.4367 27.7286 14.4277 27.7416 14.4159C27.7546 14.4041 27.7652 14.3897 27.7729 14.3735C27.7805 14.3574 27.7851 14.3398 27.7863 14.3218C27.7875 14.3039 27.7854 14.2858 27.7799 14.2687C27.7745 14.2516 27.7659 14.2357 27.7546 14.2221C27.7434 14.2085 27.7297 14.1973 27.7143 14.1893C27.699 14.1812 27.6823 14.1764 27.6651 14.1751C27.648 14.1739 27.6308 14.1762 27.6145 14.1819C27.6097 14.1834 27.1379 14.3473 26.7656 14.3706C26.4028 14.3928 25.9166 14.2095 25.9118 14.2076C25.8792 14.1952 25.8433 14.1968 25.8119 14.2122C25.7805 14.2276 25.7562 14.2555 25.7443 14.2897C25.7325 14.3239 25.734 14.3617 25.7487 14.3947C25.7633 14.4277 25.7899 14.4532 25.8224 14.4657C25.8446 14.4739 26.3636 14.6704 26.7808 14.6446ZM22.6435 17.34C22.6477 17.329 23.0616 16.2264 23.6237 15.4707C24.1723 14.7326 24.9275 14.4443 24.9349 14.4415C24.9511 14.4355 24.966 14.4262 24.9788 14.4141C24.9915 14.402 25.0019 14.3874 25.0093 14.3712C25.0167 14.3549 25.021 14.3372 25.0219 14.3192C25.0228 14.3012 25.0203 14.2832 25.0146 14.2662C25.0088 14.2492 25 14.2335 24.9885 14.2201C24.977 14.2067 24.9631 14.1958 24.9476 14.188C24.9321 14.1802 24.9153 14.1758 24.8982 14.1748C24.881 14.1739 24.8639 14.1765 24.8477 14.1825C24.8139 14.1951 24.0148 14.498 23.4175 15.3015C22.8318 16.0892 22.417 17.1931 22.3997 17.2399C22.3934 17.2567 22.3904 17.2746 22.3907 17.2927C22.3911 17.3108 22.3948 17.3286 22.4017 17.3451C22.4086 17.3617 22.4185 17.3766 22.4309 17.3891C22.4433 17.4016 22.4579 17.4115 22.4739 17.418C22.4899 17.4246 22.507 17.4278 22.5242 17.4275C22.5414 17.4271 22.5584 17.4232 22.5741 17.4159C22.5898 17.4087 22.6041 17.3983 22.616 17.3852C22.6279 17.3722 22.6373 17.3569 22.6435 17.34ZM20.4952 16.0047C21.0657 15.8051 21.5779 15.4161 21.5994 15.3997C21.6274 15.3782 21.6461 15.346 21.6515 15.3101C21.657 15.2742 21.6486 15.2374 21.6284 15.2079C21.608 15.1785 21.5773 15.1588 21.5431 15.1531C21.5089 15.1474 21.4739 15.1562 21.4458 15.1774C21.4407 15.1812 20.9435 15.558 20.4125 15.7441C19.8847 15.9291 19.2336 15.908 19.227 15.908C19.2099 15.9074 19.1928 15.9104 19.1767 15.9167C19.1606 15.923 19.1459 15.9326 19.1334 15.9449C19.1208 15.9572 19.1107 15.972 19.1036 15.9884C19.0965 16.0048 19.0925 16.0225 19.0919 16.0405C19.0914 16.0585 19.0941 16.0765 19.1002 16.0934C19.1062 16.1103 19.1153 16.1257 19.127 16.1389C19.1387 16.1521 19.1528 16.1627 19.1684 16.1702C19.184 16.1777 19.2009 16.1818 19.218 16.1824C19.2464 16.1834 19.9218 16.2054 20.4952 16.0047ZM32.0817 14.8315C32.0823 14.8283 32.1489 14.5297 32.2544 14.3301C32.339 14.1702 32.6444 13.9006 32.755 13.8104C32.7793 13.7871 32.7943 13.7549 32.7971 13.7204C32.7999 13.6859 32.7902 13.6516 32.7699 13.6242C32.7497 13.5969 32.7204 13.5785 32.6879 13.5729C32.6554 13.5672 32.6221 13.5745 32.5945 13.5935C32.5494 13.6302 32.1516 13.9596 32.0261 14.1966C31.9024 14.4305 31.8301 14.7558 31.8271 14.7693C31.8193 14.8048 31.8251 14.8421 31.8435 14.873C31.8618 14.9039 31.8911 14.9259 31.9248 14.9341C31.9586 14.9424 31.9941 14.9362 32.0235 14.9169C32.0529 14.8977 32.0739 14.8669 32.0817 14.8315Z" fill="white"/>
<path d="M66.04 17.38L66.66 19H69.18L63.58 4.6L58 19H60.52L61.12 17.38H66.04ZM61.88 15.36L63.58 10.5L65.28 15.36H61.88ZM77.7319 12.02C78.9319 11.72 80.0719 10.78 80.0719 8.94C80.0719 4.9 75.4119 5 75.4119 5H70.7519V19H75.4119C76.3519 19 80.2719 18.82 80.2719 14.98C80.2719 14.98 80.3719 12.56 77.7319 12.02ZM73.0719 10.84V7.32H75.4119C75.4119 7.32 77.7319 7.22 77.7319 9.1C77.7319 10.84 75.4119 10.84 75.4119 10.84H73.0719ZM75.4119 16.68H73.0719V13.18H75.4119C75.4119 13.18 77.9319 13.04 77.9319 14.92C77.9319 16.44 76.3919 16.68 75.4119 16.68ZM87.5627 15.2C90.4227 15.2 92.7627 12.86 92.7627 10C92.7627 7.14 90.4227 4.8 87.5627 4.8C84.7027 4.8 82.3627 7.14 82.3627 10C82.3627 12.86 84.7027 15.2 87.5627 15.2ZM87.5627 7.12C89.1627 7.12 90.4427 8.4 90.4427 10C90.4427 11.6 89.1627 12.88 87.5627 12.88C85.9627 12.88 84.6827 11.6 84.6827 10C84.6827 8.4 85.9627 7.12 87.5627 7.12ZM92.1227 19V16.68H82.8827V19H92.1227ZM102.897 19H105.637L101.837 12.92C103.197 12.54 104.917 11.56 104.917 9.08C104.917 5 100.237 5 100.237 5H95.5766V7.34L97.7966 10.84H95.5766V19H97.9166V13.16H99.2566L102.897 19ZM100.537 10.82L98.3566 7.34H100.237C100.237 7.34 102.577 7.34 102.577 9.08C102.577 10.46 101.157 10.76 100.537 10.82ZM110.863 7.14H112.423V5H106.963V7.14H108.523V16.86H106.883V19H112.503V16.86H110.863V7.14ZM127.215 11.04H122.535V13.26H124.875V15.28C124.015 16.26 122.775 16.86 121.375 16.86C118.795 16.86 116.715 15.42 116.715 12C116.715 8.94 118.795 7.14 121.375 7.14C122.655 7.14 123.835 7.66 124.675 8.5L126.315 6.86C125.055 5.58 123.315 4.8 121.375 4.8C117.515 4.8 114.375 7.84 114.375 12C114.375 16.58 117.315 19.2 121.075 19.2C122.735 19.2 123.915 18.8 125.055 17.74L125.175 19.06H127.215V11.04ZM132.604 7.34H139.604V5H130.264V19H139.604V16.66H132.604V13.16H138.424V10.84H132.604V7.34ZM153.681 19V5H151.361V14.96L144.381 5H142.021V19H144.361V9.04L151.321 19H153.681Z" fill="white"/>
</svg>
