<svg class="marker" xmlns="http://www.w3.org/2000/svg" viewBox="82 139 20 28" width="38" height="46"><g transform="translate(83.000000, 140.000000)"><path d="M9,0 C4.02428571,0 0,3.9125 0,8.75 C0,15.3125 9,25 9,25 C9,25 18,15.3125 18,8.75 C18,3.9125 13.9757143,0 9,0 L9,0 Z" stroke="#fff"></path><path d="M9,0 C4.02428571,0 0,3.9125 0,8.75 C0,15.3125 9,25 9,25 C9,25 18,15.3125 18,8.75 C18,3.9125 13.9757143,0 9,0 L9,0 Z" fill="#57A4FF"></path><path d="M9,11.9565217 C7.137,11.9565217 5.625,10.4956522 5.625,8.69565217 C5.625,6.89565217 7.137,5.43478261 9,5.43478261 C10.863,5.43478261 12.375,6.89565217 12.375,8.69565217 C12.375,10.4956522 10.863,11.9565217 9,11.9565217 L9,11.9565217 Z" stroke="none" fill="#fff"></path></g></svg>