<svg width="48" height="48" viewBox="0 0 48 48" fill="none" xmlns="http://www.w3.org/2000/svg">
<path d="M24 48C37.2548 48 48 37.2548 48 24C48 10.7452 37.2548 -9.39371e-07 24 -2.09815e-06C10.7452 -3.25692e-06 3.25692e-06 10.7452 2.09815e-06 24C9.39371e-07 37.2548 10.7452 48 24 48ZM18.4394 22.9393L25.1894 16.1893C25.4823 15.8964 25.8662 15.7499 26.25 15.7499C27.5743 15.7499 28.2582 17.363 27.3106 18.3105L21.6213 23.9999L27.3106 29.6893C27.8964 30.2751 27.8964 31.2248 27.3106 31.8106C26.7248 32.3963 25.7751 32.3963 25.1893 31.8106L18.4393 25.0606C17.8536 24.4747 17.8536 23.5251 18.4394 22.9393Z" fill="#258EFA"/>
</svg>
