<svg width="254" height="32" viewBox="0 0 254 32" fill="none" xmlns="http://www.w3.org/2000/svg">
<path fill-rule="evenodd" clip-rule="evenodd" d="M55.7943 15.8807L47.9606 15.8807L47.9606 18.4558C47.9606 18.4558 49.2381 19.3365 50.045 20.6918C50.8519 22.0472 51.3224 25.0964 51.3224 25.0964C51.3224 25.0964 52.4991 24.2492 54.0459 23.8766C55.5928 23.504 57.5759 23.6736 57.5759 23.6736C57.5759 23.6736 58.5848 22.3858 60.5009 21.8441C62.4175 21.302 64.0984 21.607 64.0984 21.607C64.0984 21.607 65.1743 20.1837 67.3594 19.6756C69.545 19.167 70.9902 19.54 70.9902 19.54C70.9902 19.54 72.5033 18.1847 73.1757 17.6766C73.8482 17.1684 76 16.0842 76 16.0842C76 16.0842 74.2854 15.4401 73.2769 14.9319C72.2685 14.4238 70.7554 12.933 70.7554 12.933C70.7554 12.933 69.0745 13.4415 67.0905 12.7634C65.1069 12.0858 63.9639 10.5949 63.9639 10.5949C63.9639 10.5949 62.5516 11.4417 60.3332 10.866C58.1139 10.2903 57.6097 8.76544 57.6097 8.76544C57.6097 8.76544 56.1307 9.10405 54.0797 8.56192C52.0286 8.02023 51.0539 6.90154 51.0539 6.90154C51.0539 6.90154 50.8857 9.40911 50.3477 10.4929C49.8097 11.5772 48.1959 13.4407 48.1959 13.4407C48.1959 13.4407 50.4147 13.5422 51.5918 13.6777C52.7685 13.8133 53.508 14.0843 54.2479 14.4909C54.9878 14.898 55.7943 15.8807 55.7943 15.8807ZM42.918 16.0502L42.918 18.3878C42.918 18.3878 41.8758 18.8619 41.506 19.4721C41.1363 20.0817 40.9681 21.6741 40.9681 21.6741L37.5051 21.6741L37.5051 18.4553L9.2134e-05 18.4553L9.23445e-05 16.0498L42.918 16.0498L42.918 16.0502ZM47.7933 18.4558L47.7933 13.4411L47.0538 13.4411L47.0538 18.4558L47.7933 18.4558ZM46.5159 18.4558L46.5159 13.4411L45.7764 13.4411L45.7764 18.4558L46.5159 18.4558ZM45.171 18.4558L45.171 13.4411L44.4315 13.4411L44.4315 18.4558L45.171 18.4558Z" fill="white"/>
<path fill-rule="evenodd" clip-rule="evenodd" d="M27.5582 3.08761C28.9924 3.18604 31.4516 3.6786 31.4516 3.6786C31.4516 3.6786 29.5807 4.65528 28.5442 5.46762L29.1637 5.71518C29.4994 5.84824 29.8167 5.97751 30.1181 6.10213C30.615 5.82416 31.1968 5.77305 31.1968 5.77305C31.1968 5.77305 30.9195 6.02482 30.7025 6.34756C31.793 6.81182 32.6565 7.21821 33.3876 7.5946C34.1548 7.19075 35.5217 7.06655 35.5217 7.06655C35.5217 7.06655 34.8284 7.43745 34.1082 7.97902C35.6307 8.81967 36.6158 9.55429 38.2842 10.5424C38.7011 10.7895 39.1199 11.0366 39.5382 11.2791C40.5387 10.9428 41.6723 10.8854 41.6723 10.8854C41.6723 10.8854 40.8322 11.2352 40.1986 11.6584C42.4992 12.965 44.7357 14.0663 46.4485 14.2205C48.518 14.4068 50.0976 14.2995 50.7527 14.1204L50.7527 18.1948L51.5041 18.1948L51.5041 13.3347C51.5041 13.3347 51.1284 12.9735 50.9918 12.6778C50.8551 12.3825 50.0014 10.9373 50.0014 10.9373L49.3862 11.2656C49.3862 11.2656 49.3862 11.5613 49.5233 11.9225C49.66 12.2837 50.0356 12.8425 50.0356 12.8425C50.0356 12.8425 49.4209 12.5468 48.7034 11.857C47.8409 11.0277 47.5469 9.97588 45.9875 8.24515L45.8052 8.76095C45.8052 8.76095 45.6787 8.33006 45.5864 7.81511C45.3865 7.60769 45.169 7.39099 44.9304 7.16456C44.9005 7.69345 44.9396 8.29923 44.9396 8.29923C44.9396 8.29923 44.5622 7.64318 44.5442 6.80676C44.2072 6.50084 43.8626 6.20279 43.5107 5.91288C41.1868 3.99163 39.0636 2.59294 36.3921 1.71131C36.4154 2.101 36.4457 2.49026 36.4831 2.87893C36.4831 2.87893 35.8745 2.01336 35.5055 1.44433C34.3573 1.12835 33.1033 0.898543 31.6907 0.756603C31.1313 0.700419 30.5922 0.657753 30.0702 0.627337C30.2364 0.948906 30.4124 1.26573 30.5979 1.5774C30.9731 2.20176 31.7245 3.05551 31.7245 3.05551C31.7245 3.05551 30.2552 2.7598 28.2744 2.62842C26.2928 2.49662 23.8678 2.92371 23.8678 2.92371C23.8678 2.92371 26.1232 2.98919 27.5582 3.08761Z" fill="white"/>
<path fill-rule="evenodd" clip-rule="evenodd" d="M55.951 15.4523L48.0954 15.4523L48.0954 18.0028L47.9275 18.0028L47.9275 13.036L48.3317 13.036C48.3317 13.036 50.5568 13.1365 51.7372 13.2708C52.9172 13.405 53.6587 13.6735 54.4007 14.0762C55.1423 14.4789 55.951 15.4523 55.951 15.4523ZM43.0385 18.0028L43.0385 15.6202L1.59783e-05 15.6202L1.62045e-05 13.036L36.0432 13.036C37.1213 13.5242 38.1252 13.8613 38.993 13.942C41.0355 14.1323 42.5945 14.0227 43.241 13.8397L43.241 18.0028L43.0385 18.0028ZM47.186 13.036L47.186 18.0028L46.6465 18.0028L46.6465 13.036L47.186 13.036ZM45.905 13.036L45.905 18.0028L45.2979 18.0028L45.2979 13.036L45.905 13.036ZM44.5563 13.036L44.5563 18.0028L43.9826 18.0028L43.9826 13.036L44.5563 13.036ZM15.2916 2.70001C16.668 3.0423 18.7339 3.92543 21.322 4.99761C22.3449 4.16715 24.1915 3.16963 24.1915 3.16963C24.1915 3.16963 21.7639 2.66635 20.3488 2.56578C18.9325 2.46564 16.7079 2.39787 16.7079 2.39787C16.7079 2.39787 19.1016 1.96148 21.057 2.09616C23.0119 2.23039 24.4621 2.53254 24.4621 2.53254C24.4621 2.53254 23.7201 1.6602 23.3502 1.02224C23.1654 0.706289 22.9751 0.340261 22.8293 0.0514957C18.5383 -0.205327 15.4988 0.483994 12.7291 2.43197C13.4706 2.36463 13.8076 2.33097 15.2916 2.70001ZM26.8138 7.56412C27.5245 7.01076 28.2088 6.63179 28.2088 6.63179C28.2088 6.63179 26.8597 6.75869 26.1026 7.17133C26.3415 7.29889 26.5786 7.42983 26.8138 7.56412ZM38.3577 8.36222L38.5376 7.83519C38.414 7.69362 38.2826 7.54686 38.1417 7.39535C38.1985 7.72082 38.2705 8.04347 38.3577 8.36222ZM37.1131 6.36547C37.1308 7.22011 37.5034 7.89044 37.5034 7.89044C37.5034 7.89044 37.4643 7.27147 37.4942 6.73106C37.3733 6.61193 37.2462 6.49021 37.1131 6.36547ZM29.1572 2.35169C29.1572 2.35169 29.0939 1.67747 29.0675 1.15864C28.783 1.06109 28.4916 0.970449 28.1924 0.885849C28.5571 1.46726 29.1572 2.35169 29.1572 2.35169ZM32.8247 11.3241C33.4495 10.8916 34.2791 10.5342 34.2791 10.5342C34.2791 10.5342 33.1603 10.5929 32.1729 10.9365C32.3901 11.0668 32.6078 11.1963 32.8247 11.3241ZM22.8753 5.64593C23.0752 5.73139 23.2665 5.81513 23.4521 5.89671C23.6663 5.56651 23.9399 5.30969 23.9399 5.30969C23.9399 5.30969 23.3658 5.36191 22.8753 5.64593ZM71.8874 15.1212C71.9154 15.0796 71.9256 15.0286 71.9158 14.9795C71.9061 14.9304 71.8771 14.8871 71.8354 14.8592C71.8319 14.857 71.4559 14.6024 71.1459 14.1397C70.8276 13.6644 70.6307 13.083 70.6289 13.0774C70.613 13.0298 70.5788 12.9905 70.5337 12.9681C70.4886 12.9457 70.4365 12.942 70.3887 12.9578C70.3409 12.9737 70.3014 13.0078 70.2789 13.0527C70.2564 13.0975 70.2526 13.1494 70.2686 13.197C70.2773 13.2229 70.4832 13.831 70.8302 14.3494C71.184 14.8782 71.6068 15.1618 71.6246 15.1739C71.6666 15.2012 71.7177 15.2111 71.7669 15.2012C71.8161 15.1914 71.8594 15.1626 71.8874 15.1212ZM69.8497 14.567C69.8821 14.5298 69.8986 14.4815 69.8954 14.4323C69.8923 14.3832 69.8697 14.3373 69.8328 14.3046C69.7963 14.2722 69.452 13.9899 68.534 13.9545C67.635 13.92 67.0773 14.09 67.0543 14.0974C67.0063 14.1122 66.9662 14.1455 66.9428 14.1898C66.9194 14.2341 66.9147 14.2859 66.9297 14.3337C66.9446 14.3815 66.978 14.4214 67.0225 14.4447C67.0671 14.468 67.1191 14.4727 67.1671 14.4578C67.1723 14.4565 67.6914 14.3002 68.5196 14.3317C69.2981 14.3615 69.5808 14.5864 69.5834 14.5886C69.6218 14.6204 69.6712 14.6359 69.721 14.6319C69.7707 14.6279 69.817 14.6046 69.8497 14.567ZM65.7542 14.9887C65.7728 14.9721 65.7879 14.9521 65.7987 14.9297C65.8094 14.9073 65.8157 14.8831 65.817 14.8583C65.8183 14.8335 65.8147 14.8087 65.8064 14.7853C65.7981 14.7619 65.7852 14.7404 65.7685 14.7219C65.7629 14.715 65.1688 14.0555 64.7455 13.3429C64.3193 12.6246 63.8184 11.432 63.8136 11.4199C63.7942 11.3737 63.7572 11.337 63.7106 11.3179C63.6641 11.2989 63.6118 11.299 63.5654 11.3183C63.5189 11.3376 63.482 11.3744 63.4629 11.4208C63.4437 11.4671 63.4439 11.5191 63.4632 11.5654C63.484 11.615 63.9788 12.7938 64.419 13.5349C64.8618 14.2812 65.4611 14.9468 65.4862 14.9745C65.5199 15.0117 65.567 15.0341 65.6173 15.0368C65.6675 15.0394 65.7168 15.0221 65.7542 14.9887ZM63.0638 13.7326C63.1062 13.7064 63.1366 13.6646 63.1482 13.6163C63.1598 13.5679 63.1518 13.517 63.1258 13.4745C63.1089 13.4478 62.7017 12.8046 61.334 12.3859C59.9727 11.969 59.1228 12.2754 59.0872 12.2888C58.9896 12.3251 58.9402 12.4334 58.9766 12.531C59.0131 12.6285 59.1219 12.6781 59.2199 12.6428C59.2277 12.6397 59.9949 12.3708 61.2225 12.7468C62.4368 13.1188 62.7997 13.6675 62.8032 13.6731C62.8301 13.715 62.8725 13.7448 62.9213 13.7559C62.97 13.767 63.0212 13.7587 63.0638 13.7326ZM57.4116 13.9018C57.4277 13.8544 57.4243 13.8026 57.4021 13.7577C57.3799 13.7128 57.3408 13.6785 57.2932 13.6623C57.2858 13.6597 56.5369 13.3985 55.6791 12.5651C54.3235 11.2477 53.8825 9.12708 53.8782 9.1055C53.8683 9.05639 53.8392 9.0132 53.7973 8.98543C53.7554 8.95767 53.7042 8.9476 53.6548 8.95745C53.6055 8.96729 53.5621 8.99624 53.5342 9.03793C53.5063 9.07962 53.4962 9.13063 53.5061 9.17974C53.5243 9.27125 53.9723 11.4346 55.4137 12.8353C56.3383 13.7335 57.1379 14.0089 57.1713 14.0201C57.1949 14.0281 57.2198 14.0314 57.2447 14.0298C57.2695 14.0281 57.2938 14.0217 57.3161 14.0107C57.3385 13.9997 57.3584 13.9844 57.3748 13.9657C57.3911 13.947 57.4037 13.9253 57.4116 13.9018ZM55.951 15.4523C55.951 15.4523 56.5581 15.7877 57.7043 15.7877C58.8509 15.7877 60.0985 15.2529 60.6714 15.1838C61.7837 15.0496 63.1987 15.7009 64.2117 15.7877C66.1671 15.9556 68.1229 15.5528 68.1229 15.5528C68.1229 15.5528 68.6953 15.9763 69.2356 15.9892C70.6515 16.0225 71.8653 15.6202 72.8094 15.5528C73.7534 15.4855 75.3718 15.6871 75.3718 15.6871C75.3718 15.6871 74.3267 16.1235 73.214 16.8952C72.1016 17.667 71.0561 18.6067 71.0561 18.6067C71.0561 18.6067 69.37 18.2709 67.4823 18.7746C65.5942 19.2779 64.1783 20.5866 64.1783 20.5866C64.1783 20.5866 62.0205 20.3518 60.5708 20.7877C59.121 21.2241 57.5026 22.6671 57.5026 22.6671C57.5026 22.6671 55.9515 22.5328 54.7043 22.7676C53.4566 23.0025 51.8044 23.8416 51.8044 23.8416C51.8044 23.8416 51.5347 21.6601 50.7255 20.2175C49.9163 18.7746 49.006 17.8686 49.006 17.8686C49.006 17.8686 50.2537 18.0028 51.4336 17.8349C52.6136 17.667 53.4905 17.5328 54.2658 17.0295C55.0408 16.5262 55.951 15.4523 55.951 15.4523Z" fill="white"/>
<path fill-rule="evenodd" clip-rule="evenodd" d="M39.8323 19.999C39.8349 19.9908 40.097 19.1762 40.4392 18.7845C40.7797 18.3942 41.4879 18.0871 41.4949 18.0839C41.5387 18.0615 41.5727 18.0224 41.59 17.9747C41.6074 17.9269 41.6068 17.874 41.5883 17.8267C41.5699 17.7794 41.535 17.7413 41.4907 17.72C41.4464 17.6987 41.3961 17.6958 41.3499 17.712C41.3174 17.7258 40.5558 18.0559 40.1566 18.5128C39.7587 18.9679 39.4804 19.8349 39.4686 19.8717C39.4525 19.9223 39.4562 19.9775 39.4789 20.0252C39.5016 20.073 39.5415 20.1093 39.5897 20.1261C39.638 20.143 39.6906 20.1391 39.7361 20.1153C39.7816 20.0914 39.8162 20.0496 39.8323 19.999ZM38.912 17.8848C39.5093 17.8476 40.2258 17.5994 40.256 17.5888C40.2799 17.5804 40.302 17.5672 40.321 17.5499C40.34 17.5326 40.3556 17.5115 40.3669 17.4879C40.3781 17.4643 40.3848 17.4386 40.3866 17.4122C40.3884 17.3859 40.3852 17.3594 40.3772 17.3344C40.3692 17.3093 40.3567 17.2861 40.3401 17.2662C40.3236 17.2462 40.3036 17.2299 40.281 17.2181C40.2585 17.2063 40.234 17.1993 40.2089 17.1974C40.1838 17.1955 40.1585 17.1989 40.1347 17.2072C40.1276 17.2095 39.4357 17.4495 38.8897 17.4835C38.3576 17.5162 37.6447 17.2477 37.6376 17.2449C37.5899 17.2267 37.5372 17.2291 37.4911 17.2517C37.445 17.2742 37.4094 17.315 37.392 17.3652C37.3746 17.4153 37.377 17.4706 37.3984 17.5189C37.4199 17.5672 37.4588 17.6046 37.5066 17.6228C37.539 17.6348 38.3002 17.9225 38.912 17.8848ZM32.8448 21.8314C32.8509 21.8153 33.4578 20.2008 34.2821 19.0943C35.0867 18.0136 36.1941 17.5916 36.2051 17.5874C36.2288 17.5786 36.2507 17.565 36.2694 17.5473C36.2881 17.5296 36.3033 17.5083 36.3142 17.4844C36.325 17.4606 36.3313 17.4347 36.3326 17.4084C36.3339 17.382 36.3303 17.3556 36.3219 17.3307C36.3135 17.3058 36.3005 17.2828 36.2836 17.2632C36.2668 17.2436 36.2464 17.2276 36.2237 17.2162C36.201 17.2049 36.1763 17.1983 36.1512 17.1969C36.126 17.1955 36.1009 17.1993 36.0771 17.2082C36.0276 17.2266 34.8558 17.6702 33.9798 18.8465C33.1208 19.9999 32.5126 21.6163 32.4872 21.6848C32.478 21.7094 32.4735 21.7357 32.474 21.7621C32.4745 21.7886 32.48 21.8146 32.4901 21.8389C32.5002 21.8631 32.5148 21.885 32.533 21.9033C32.5511 21.9216 32.5726 21.936 32.5961 21.9456C32.6195 21.9553 32.6446 21.96 32.6698 21.9594C32.695 21.9589 32.7199 21.9532 32.743 21.9426C32.7661 21.932 32.7869 21.9167 32.8044 21.8976C32.8219 21.8785 32.8356 21.856 32.8448 21.8314ZM29.6943 19.8763C30.5309 19.5839 31.282 19.0143 31.3136 18.9904C31.3546 18.959 31.3821 18.9118 31.39 18.8592C31.398 18.8066 31.3858 18.7528 31.3561 18.7096C31.3261 18.6666 31.2811 18.6377 31.231 18.6294C31.1808 18.621 31.1296 18.6338 31.0883 18.665C31.0809 18.6705 30.3517 19.2221 29.573 19.4947C28.7991 19.7655 27.8442 19.7347 27.8345 19.7347C27.8094 19.7338 27.7843 19.7381 27.7607 19.7474C27.7372 19.7566 27.7156 19.7706 27.6972 19.7887C27.6788 19.8067 27.664 19.8283 27.6535 19.8523C27.6431 19.8764 27.6373 19.9023 27.6364 19.9287C27.6356 19.9551 27.6397 19.9814 27.6485 20.0061C27.6573 20.0308 27.6707 20.0535 27.6879 20.0728C27.7051 20.0921 27.7257 20.1076 27.7486 20.1185C27.7715 20.1295 27.7962 20.1356 27.8214 20.1365C27.863 20.1379 28.8534 20.17 29.6943 19.8763ZM46.6857 18.1584C46.6866 18.1538 46.7843 17.7166 46.939 17.4242C47.063 17.1902 47.5109 16.7953 47.673 16.6634C47.7087 16.6292 47.7307 16.5821 47.7348 16.5316C47.7389 16.4811 47.7247 16.4308 47.695 16.3908C47.6653 16.3507 47.6224 16.3239 47.5747 16.3155C47.5271 16.3072 47.4781 16.318 47.4377 16.3458C47.3715 16.3995 46.7883 16.8818 46.6042 17.2288C46.4228 17.5713 46.3167 18.0476 46.3123 18.0674C46.3008 18.1193 46.3095 18.1739 46.3363 18.2192C46.3632 18.2644 46.4061 18.2966 46.4556 18.3087C46.5051 18.3208 46.5572 18.3117 46.6004 18.2835C46.6435 18.2553 46.6742 18.2103 46.6857 18.1584Z" fill="white"/>
<path d="M104.864 24.408L105.856 27H109.888L100.928 3.96L92 27H96.032L96.992 24.408H104.864ZM98.208 21.176L100.928 13.4L103.648 21.176H98.208ZM123.571 15.832C125.491 15.352 127.315 13.848 127.315 10.904C127.315 4.44 119.859 4.6 119.859 4.6H112.403V27H119.859C121.363 27 127.635 26.712 127.635 20.568C127.635 20.568 127.795 16.696 123.571 15.832ZM116.115 13.944V8.312H119.859C119.859 8.312 123.571 8.152 123.571 11.16C123.571 13.944 119.859 13.944 119.859 13.944H116.115ZM119.859 23.288H116.115V17.688H119.859C119.859 17.688 123.891 17.464 123.891 20.472C123.891 22.904 121.427 23.288 119.859 23.288ZM139.3 20.92C143.876 20.92 147.62 17.176 147.62 12.6C147.62 8.024 143.876 4.28 139.3 4.28C134.724 4.28 130.98 8.024 130.98 12.6C130.98 17.176 134.724 20.92 139.3 20.92ZM139.3 7.992C141.86 7.992 143.908 10.04 143.908 12.6C143.908 15.16 141.86 17.208 139.3 17.208C136.74 17.208 134.692 15.16 134.692 12.6C134.692 10.04 136.74 7.992 139.3 7.992ZM146.596 27V23.288H131.812V27H146.596ZM163.835 27H168.219L162.139 17.272C164.315 16.664 167.067 15.096 167.067 11.128C167.067 4.6 159.579 4.6 159.579 4.6H152.123V8.344L155.675 13.944H152.123V27H155.867V17.656H158.01L163.835 27ZM160.059 13.912L156.571 8.344H159.579C159.579 8.344 163.323 8.344 163.323 11.128C163.323 13.336 161.051 13.816 160.059 13.912ZM176.58 8.024H179.076V4.6H170.34V8.024H172.836V23.576H170.212V27H179.204V23.576H176.58V8.024ZM202.744 14.264H195.256V17.816H199V21.048C197.624 22.616 195.64 23.576 193.4 23.576C189.272 23.576 185.944 21.272 185.944 15.8C185.944 10.904 189.272 8.024 193.4 8.024C195.448 8.024 197.336 8.856 198.68 10.2L201.304 7.576C199.288 5.528 196.504 4.28 193.4 4.28C187.224 4.28 182.2 9.144 182.2 15.8C182.2 23.128 186.904 27.32 192.92 27.32C195.576 27.32 197.464 26.68 199.288 24.984L199.48 27.096H202.744V14.264ZM211.366 8.344H222.566V4.6H207.622V27H222.566V23.256H211.366V17.656H220.678V13.944H211.366V8.344ZM245.09 27V4.6H241.378V20.536L230.21 4.6H226.434V27H230.178V11.064L241.314 27H245.09Z" fill="white"/>
</svg>
