<svg width="48" height="48" viewBox="0 0 48 48" fill="none" xmlns="http://www.w3.org/2000/svg">
<g clip-path="url(#clip0)">
<path d="M36.4796 11.8015L17.0863 0.604657C15.8613 -0.102594 14.7514 -0.168313 13.95 0.297438L8.4761 3.47847C8.47863 3.47697 8.48144 3.47585 8.48407 3.47426C7.68832 3.93213 7.19444 4.91135 7.19041 6.3056L7.12722 28.5902C7.11925 31.3872 9.08641 34.7944 11.5205 36.1997L30.9139 47.3965C32.174 48.1239 33.3114 48.1711 34.1174 47.6607C34.095 47.6748 34.0731 47.6901 34.0501 47.7036L39.5238 44.5227C40.315 44.0628 40.8055 43.0852 40.8095 41.6956L40.8727 19.411C40.8809 16.6133 38.9137 13.2068 36.4796 11.8015Z" fill="#6F75E3"/>
<path d="M22.1161 19.7619L18.8616 17.883C18.4276 17.6324 18.2093 17.7004 17.977 17.8785C17.8427 17.9815 17.8019 18.0754 18.0766 18.2948C18.6158 18.7236 18.9192 19.3016 18.9978 19.9689C19.1251 21.0398 19.1129 22.031 19.0356 22.9871C19.0123 23.2642 18.9674 23.5313 18.8668 23.7447C18.7684 23.9543 18.6326 24.0104 18.4637 23.9129C18.3613 23.8538 18.2468 23.7383 18.121 23.5664C17.8201 23.1545 17.6083 22.6952 17.4017 22.2378C16.6248 20.5205 16.0066 18.7948 15.5021 17.0649C15.3558 16.565 15.1041 16.1682 14.722 15.9411C14.2515 15.6603 13.7815 15.3839 13.3117 15.1126C12.842 14.8414 12.3723 14.5752 11.9024 14.3147C11.3367 13.9988 11.1673 14.2183 11.3957 14.9404C12.4118 18.1461 13.544 21.3483 15.0238 24.5222C15.7843 26.1517 16.6595 27.7094 17.7887 29.1064C18.9238 30.5108 20.1376 31.496 21.4128 32.2323C21.5764 32.3267 21.7412 32.4172 21.9066 32.5038C22.5881 32.8615 22.7934 32.7744 22.8268 32.0135C22.8507 31.492 22.9043 30.9918 23.1343 30.6441C23.2739 30.4335 23.4571 30.3935 23.6691 30.516C23.8009 30.592 23.9437 30.7307 24.0942 30.9302C24.2905 31.1909 24.4542 31.4711 24.6113 31.7592C24.9934 32.4626 25.3609 33.1726 25.7581 33.8699C26.2116 34.6654 26.7441 35.3058 27.399 35.6839C27.4613 35.7198 27.5248 35.7536 27.5893 35.7846L30.4697 37.4492C30.9327 37.6808 31.1762 37.167 30.911 36.4194C30.724 35.8928 30.4791 35.3791 30.2206 34.8694C29.6347 33.7202 28.9445 32.6282 28.2913 31.5143C27.7015 30.5102 27.665 30.1037 28.1431 29.6155C28.6633 29.0792 29.2249 28.6 29.7494 28.0703C30.2399 27.5743 30.7419 27.0889 31.0013 26.3079C31.1665 25.8097 31.0226 25.4652 30.4948 25.0572C30.4052 24.9872 30.3111 24.9312 30.2178 24.8774L27.0857 23.0664C27.077 23.0613 27.0683 23.0561 27.0598 23.0511C26.6898 22.8376 26.4824 22.9118 26.3484 23.2201C26.1632 23.6451 25.9715 24.0665 25.7501 24.4506C25.2499 25.3265 24.6904 26.1284 23.908 26.6289C23.7628 26.7213 23.6048 26.8453 23.3879 26.72C23.3466 26.6962 23.3032 26.6634 23.2574 26.6197C22.8982 26.2609 22.7946 25.5192 22.8011 25.2931L22.81 21.1371C22.7414 20.5043 22.6286 20.1744 22.1161 19.7619Z" fill="white"/>
<path d="M39.5237 44.5223L34.05 47.7033C34.8413 47.2434 35.332 46.2658 35.3358 44.8763L40.8095 41.6953C40.8056 43.0848 40.3149 44.0625 39.5237 44.5223Z" fill="#7C84E7"/>
<path d="M8.47601 3.47837L13.9497 0.297437C14.7512 -0.168313 15.8611 -0.102594 17.086 0.604656L11.6123 3.78559C10.3874 3.07834 9.27758 3.01253 8.47601 3.47837Z" fill="#989FED"/>
<path d="M35.3991 22.5919L40.8728 19.4109L40.8096 41.6955L35.3359 44.8764L35.3991 22.5919Z" fill="#989FED"/>
<path d="M11.6124 3.78552L17.0861 0.604492L36.4795 11.8013L31.0058 14.9823L11.6124 3.78552Z" fill="#A8ADEF"/>
<path d="M31.0059 14.9825L36.4796 11.8015C38.9138 13.2068 40.8808 16.6134 40.8729 19.411L35.3992 22.592C35.4072 19.7944 33.44 16.3879 31.0059 14.9825Z" fill="#C5C8F5"/>
</g>
<defs>
<clipPath id="clip0">
<rect width="48" height="48" fill="white"/>
</clipPath>
</defs>
</svg>
