<svg width="48" height="48" viewBox="0 0 48 48" fill="none" xmlns="http://www.w3.org/2000/svg">
<g clip-path="url(#clip0)">
<path d="M36.4796 11.8018L17.0863 0.604901C15.8613 -0.10235 14.7514 -0.168068 13.95 0.297682L8.4761 3.47871C8.47863 3.47721 8.48144 3.47609 8.48407 3.4745C7.68832 3.93237 7.19444 4.91159 7.19041 6.30584L7.12722 28.5904C7.11925 31.3874 9.08641 34.7946 11.5205 36.1999L30.9139 47.3967C32.174 48.1241 33.3114 48.1712 34.1174 47.6609C34.095 47.675 34.0731 47.6903 34.0501 47.7038L39.5238 44.5229C40.315 44.063 40.8055 43.0854 40.8095 41.6958L40.8727 19.4113C40.8809 16.6136 38.9137 13.2071 36.4796 11.8018Z" fill="#40A559"/>
<path d="M39.5236 44.5223L34.0499 47.7033C34.8412 47.2434 35.3319 46.2658 35.3357 44.8762L40.8094 41.6953C40.8055 43.0848 40.3148 44.0625 39.5236 44.5223Z" fill="#4DBA69"/>
<path d="M8.47595 3.47837L13.9497 0.297437C14.7511 -0.168313 15.8611 -0.102594 17.086 0.604656L11.6123 3.78559C10.3873 3.07834 9.27752 3.01253 8.47595 3.47837Z" fill="#65C27C"/>
<path d="M35.3991 22.5919L40.8727 19.4109L40.8096 41.6955L35.3359 44.8764L35.3991 22.5919Z" fill="#65C27C"/>
<path d="M11.6124 3.78552L17.0861 0.604492L36.4795 11.8013L31.0058 14.9823L11.6124 3.78552Z" fill="#7BCC92"/>
<path d="M31.0058 14.9825L36.4795 11.8015C38.9137 13.2068 40.8807 16.6134 40.8728 19.411L35.3991 22.592C35.4071 19.7944 33.4399 16.3879 31.0058 14.9825Z" fill="#94D6A8"/>
<path d="M27.061 21.937C25.4139 19.0818 23.2184 16.7643 20.8771 15.4115C16.0507 12.6251 12.1103 14.8707 12.0926 20.4152C12.0876 22.1891 12.4858 24.1521 13.247 26.1201L11.9907 30.6165L16.6354 31.896C17.9126 33.4362 19.3512 34.6905 20.8161 35.5362L20.8201 35.5384C25.6445 38.3238 29.585 36.0782 29.6037 30.5341C29.6113 27.8461 28.7091 24.7926 27.061 21.937ZM20.8249 33.8394L20.822 33.8377C19.5163 33.084 18.236 31.9412 17.121 30.5337L16.8563 30.1997L14.0999 29.4402L14.8431 26.7787L14.6711 26.3618C13.9472 24.6111 13.5659 22.849 13.5714 21.27C13.5864 16.6607 16.8613 14.7945 20.8754 17.1121C22.8184 18.235 24.6432 20.1607 26.0125 22.5345C27.3818 24.9082 28.1326 27.446 28.1252 29.6792C28.1099 34.2886 24.8351 36.1548 20.8249 33.8394Z" fill="white"/>
<path d="M24.8335 29.8822C24.6152 29.6298 23.5416 28.4006 23.3416 28.2013C23.2543 28.1145 23.1776 28.0416 23.1065 28.0005C23.0141 27.9472 22.9316 27.948 22.8487 28.0432C22.7022 28.2102 22.2809 28.5339 22.1532 28.629C22.0802 28.6827 22.007 28.6885 21.9171 28.6364C21.8495 28.5974 21.7725 28.5259 21.679 28.4178C21.4607 28.1654 20.7562 27.4926 19.9231 26.154C19.2751 25.1124 18.8383 24.036 18.7118 23.7103C18.5843 23.3851 18.6992 23.3151 18.8084 23.2528C18.9079 23.1973 19.0279 23.0854 19.1381 23.0015C19.2483 22.9186 19.2845 22.8344 19.3579 22.7091C19.4313 22.5826 19.3957 22.4156 19.3407 22.2575C19.2866 22.0999 18.8529 20.6107 18.6717 20.0018C18.5235 19.5055 18.3732 19.3989 18.2504 19.3279C18.2439 19.3242 18.2374 19.3205 18.2309 19.3168C18.2134 19.3066 18.1969 19.2972 18.1813 19.287C18.0531 19.2053 17.9074 19.1199 17.7617 19.0358C17.6159 18.9516 17.3787 18.8773 17.177 19.0123C16.9762 19.1491 16.409 19.431 16.4055 20.6679C16.4021 21.9047 17.1826 23.5529 17.2919 23.7837C17.4003 24.0151 18.827 27.3815 21.0185 29.737C21.5395 30.2982 21.9461 30.6874 22.2634 30.9868C22.5647 31.2707 22.8505 31.4735 23.1106 31.6238C23.303 31.7349 23.4814 31.8172 23.6416 31.8821C24.0614 32.0518 24.9373 32.0208 25.1207 31.5386C25.3049 31.0568 25.3064 30.5533 25.2523 30.4181C25.1982 30.2816 25.0517 30.1333 24.8335 29.8822Z" fill="white"/>
</g>
<defs>
<clipPath id="clip0">
<rect width="48" height="48" fill="white"/>
</clipPath>
</defs>
</svg>
