<svg width="36" height="36" viewBox="0 0 36 36" fill="none" xmlns="http://www.w3.org/2000/svg">
<path d="M30.7475 5.25299L30.7514 17.1341C30.7514 17.8668 30.7514 17.7078 30.7514 17.9986C30.7514 25.0381 25.0415 30.748 18.0019 30.748C10.9624 30.748 5.2525 25.0381 5.2525 17.9986C5.2525 10.9552 10.9624 5.24912 18.0019 5.24912C20.8046 5.24912 23.3979 6.15619 25.5027 7.68736V1.63245C23.2157 0.585823 20.6766 0.000488281 17.9981 0.000488281C8.05901 0.000488281 0 8.05949 0 18.0024C0 27.9415 8.05901 36.0005 17.9981 36.0005C27.9371 36.0005 35.9961 27.9415 35.9961 18.0024C36 13.0251 34.0075 8.50916 30.7475 5.25299Z" fill="#F9FCFF"/>
<path d="M17.9979 10.5017C13.854 10.5017 10.4971 13.8587 10.4971 18.0025C10.4971 22.1464 13.854 25.5033 17.9979 25.5033C22.1418 25.5033 25.4987 22.1464 25.4987 18.0025C25.4987 13.8587 22.1418 10.5017 17.9979 10.5017Z" fill="#F9FCFF"/>
</svg>
