<svg width="40" height="26" viewBox="0 0 40 26" fill="none" xmlns="http://www.w3.org/2000/svg">
<path d="M15.1153 7.58372V7.58248L23.438 12.5677L28.3972 10.4802C29.4052 10.0448 30.4918 9.82089 31.5898 9.82235C31.7731 9.82235 31.954 9.83102 32.1336 9.84217C31.5376 7.51714 30.2791 5.4153 28.5109 3.79214C26.7427 2.16899 24.5412 1.09441 22.1737 0.69903C19.8063 0.303652 17.375 0.604498 15.1754 1.565C12.9757 2.5255 11.1024 4.1043 9.78326 6.10948L9.90963 6.10576C11.7487 6.10335 13.5519 6.61528 15.1153 7.58372Z" fill="#0364B8"/>
<path d="M15.1166 7.58245C13.5526 6.61423 11.749 6.10272 9.90963 6.10573L9.78326 6.10944C7.9832 6.13196 6.2233 6.64451 4.69263 7.59203C3.16197 8.53955 1.9184 9.88622 1.09555 11.4874C0.272688 13.0885 -0.0983588 14.8836 0.0222709 16.6797C0.142901 18.4759 0.750648 20.2052 1.78021 21.6819L9.11676 18.5935L12.3799 17.2208L19.6434 14.1633L23.4368 12.5676L15.1166 7.58245Z" fill="#0078D4"/>
<path d="M32.1335 9.84209C31.9525 9.82943 31.7711 9.82282 31.5897 9.82227C30.4921 9.82137 29.4059 10.0457 28.3984 10.4813L23.438 12.5676L24.8764 13.4286L29.5902 16.252L31.6467 17.4834L38.6796 21.6955C39.3187 20.5093 39.6498 19.1817 39.6428 17.8344C39.6358 16.487 39.2908 15.1629 38.6394 13.9834C37.988 12.804 37.0511 11.8068 35.9145 11.0833C34.7779 10.3597 33.4779 9.93297 32.1335 9.84209Z" fill="#1490DF"/>
<path d="M31.6469 17.4832L29.5904 16.2518L24.8765 13.4272L23.4395 12.5674L19.6448 14.163L12.3814 17.2206L9.11697 18.5932L1.77795 21.6817C2.69016 22.9931 3.90624 24.0642 5.32232 24.8036C6.73839 25.5429 8.31239 25.9284 9.90984 25.9273H31.5899C33.0437 25.9279 34.4705 25.5347 35.7188 24.7896C36.9672 24.0445 37.9904 22.9752 38.6799 21.6953L31.6469 17.4832Z" fill="#28A8EA"/>
</svg>
