<svg width="36" height="36" viewBox="0 0 36 36" fill="none" xmlns="http://www.w3.org/2000/svg">
<path d="M33.4 5.00049H31L33.6 11.0005H36V7.69013C36 6.21127 34.8304 5.00049 33.4 5.00049Z" fill="#E89330"/>
<path d="M33 7.69013V11.0005H16V5.00049H30.4597C31.8573 5.00049 33 6.21127 33 7.69013Z" fill="#F3A933"/>
<path d="M33.4 8.00049H31L33.6 33.0005H36V10.5679C36 9.15626 34.8296 8.00049 33.4 8.00049Z" fill="#FFBE35"/>
<path d="M31.4 8.7787H18.2V5.5907C18.2 4.16644 17.0296 3.00049 15.6 3.00049H4.99981H2.59997C1.16963 3.00049 0 4.16644 0 5.5907V34.0005H34V11.3689C34 9.94473 32.8296 8.7787 31.4 8.7787Z" fill="#FFCD60"/>
<path d="M30 26.0005H28.5473L26 22.0005C28.1826 22.0005 30 23.7914 30 26.0005Z" fill="#E89330"/>
<path d="M26.2768 22.0005C23.9435 22.0005 22 23.7914 22 26.0005H29C28.9999 23.7914 27.7621 22.0005 26.2768 22.0005Z" fill="#F3A933"/>
<path d="M26 15.0005V20.0005C27.1046 20.0005 28 18.881 28 17.5009C28 16.12 27.1045 15.0005 26 15.0005Z" fill="#E89330"/>
<path d="M14 26.0005H12.5473L10 22.0005C12.1827 22.0005 14 23.7914 14 26.0005Z" fill="#E89330"/>
<path d="M10.2768 22.0005C7.94349 22.0005 6 23.7914 6 26.0005H13C13.0001 23.7914 11.7624 22.0005 10.2768 22.0005Z" fill="#F3A933"/>
<path d="M10 15.0005V20.0005C11.1046 20.0005 12 18.881 12 17.5009C11.9999 16.12 11.1045 15.0005 10 15.0005Z" fill="#E89330"/>
<path d="M18 22.0005L21.5663 28.0005H24C24 24.6865 21.3141 22.0005 18 22.0005Z" fill="#D97F13"/>
<path d="M17.6448 22.0005C14.5269 22.0006 12 24.6866 12 28.0005H21C21 24.6865 19.4981 22.0005 17.6448 22.0005Z" fill="#E89330"/>
<path d="M18 14.0005V20.0005C19.6605 19.9799 21 18.6446 21 17.0005C21 15.3564 19.6605 14.0211 18 14.0005Z" fill="#D97F13"/>
<path d="M18.3553 14.0012C18.3406 14.0005 18.3261 14.0005 18.3114 14.0005C18.2968 14.0005 18.2822 14.0005 18.2676 14.0012C16.459 14.0218 15 15.3568 15 17.0005C15 18.6442 16.4589 19.9792 18.2676 19.9998C18.2822 20.0005 18.2968 20.0005 18.3114 20.0005C18.3261 20.0005 18.3406 20.0005 18.3553 19.9998C19.2673 19.9586 20 18.6317 20 17.0005C20 15.3692 19.2673 14.0424 18.3553 14.0012Z" fill="#E89330"/>
<path d="M10.2493 15.0005C10.6636 15.0005 11 16.12 11 17.5009C11 18.8811 10.6636 20.0005 10.2493 20.0005C9.00701 20.0005 8 18.881 8 17.5009C8.00007 16.12 9.00701 15.0005 10.2493 15.0005Z" fill="#F3A933"/>
<path d="M26.2493 15.0005C26.6636 15.0005 27 16.12 27 17.5009C27 18.8811 26.6636 20.0005 26.2493 20.0005C25.007 20.0005 24 18.881 24 17.5009C23.9999 16.12 25.0069 15.0005 26.2493 15.0005Z" fill="#F3A933"/>
</svg>
