<svg width="24" height="24" viewBox="0 0 24 24" fill="none" xmlns="http://www.w3.org/2000/svg">
<path d="M14.8604 19C14.4382 20.1832 13.3006 21 11.9997 21C10.6959 21 9.55989 20.1802 9.13886 19H7.52788C6.13177 19 5 17.8807 5 16.5C5 16.1502 5.07422 15.8043 5.21787 15.4847L5.93276 13.8939V11C5.93276 8.38756 7.621 6.16508 9.97738 5.34141V5C9.97738 3.89543 10.8828 3 11.9997 3C13.1166 3 14.022 3.89543 14.022 5V5.34141C16.3784 6.16508 18.0666 8.38756 18.0666 11V13.8939L18.7815 15.4847C19.3485 16.7464 18.7739 18.2238 17.4982 18.7845C17.1749 18.9266 16.8252 19 16.4715 19H14.8604ZM13.7519 19H10.2474C10.6 19.6033 11.2594 20 11.9997 20C12.7386 20 13.3987 19.6045 13.7519 19ZM13.0108 5.08296V5C13.0108 4.44772 12.5581 4 11.9997 4C11.4412 4 10.9885 4.44772 10.9885 5V5.08296C11.3174 5.0284 11.6552 5 11.9997 5C12.3442 5 12.682 5.0284 13.0108 5.08296ZM11.9997 6C9.20746 6 6.94392 8.23858 6.94392 11V14L6.90034 14.2031L6.14188 15.8908C6.05569 16.0826 6.01115 16.2901 6.01115 16.5C6.01115 17.3284 6.69022 18 7.52788 18H16.4715C16.6837 18 16.8936 17.956 17.0875 17.8707C17.853 17.5343 18.1977 16.6478 17.8575 15.8908L17.099 14.2031L17.0555 14V11C17.0555 8.23858 14.7919 6 11.9997 6Z" fill="#4D627C"/>
</svg>
