<svg width="24" height="24" viewBox="0 0 24 24" fill="none" xmlns="http://www.w3.org/2000/svg">
<path d="M11.9997 20.5C12.919 20.5 13.7421 20.0079 14.1836 19.2522L14.2911 19.0683C13.8814 19.9237 12.9999 20.5 11.9997 20.5ZM11.9997 20.5C11.0787 20.5 10.2565 20.0064 9.81576 19.2523L9.70818 19.0682C10.1169 19.9218 10.9975 20.5 11.9997 20.5ZM11.9997 3.5C11.1703 3.5 10.4885 4.16636 10.4885 5V5.08296V5.67275L11.0704 5.57622C11.3484 5.53009 11.6336 5.50428 11.9246 5.50049C8.89593 5.54026 6.44392 7.98212 6.44392 11V13.947L6.43276 13.9989V13.8939V11C6.43276 8.60954 7.97758 6.57011 10.1424 5.81341L10.4774 5.6963V5.34141V5C10.4774 4.17679 11.1537 3.5 11.9997 3.5ZM11.9997 3.5C12.829 3.5 13.5108 4.16636 13.5108 5V5.08296V5.67275L12.929 5.57622C12.646 5.52926 12.3554 5.50336 12.059 5.50031C15.0949 5.53181 17.5555 7.9769 17.5555 11V13.947L17.5666 13.9989V13.8939V11C17.5666 8.60954 16.0218 6.57011 13.857 5.81341L13.522 5.6963V5.34141V5C13.522 4.17679 12.8457 3.5 11.9997 3.5ZM6.38883 14.0988L6.43188 14.003L6.42258 14.0464L5.68581 15.6858C5.57072 15.9419 5.51115 16.2193 5.51115 16.5C5.51115 17.6098 6.41932 18.5 7.52788 18.5C6.40267 18.5 5.5 17.5994 5.5 16.5C5.5 16.221 5.55919 15.9449 5.67394 15.6896L6.38883 14.0988ZM17.5768 14.0464L17.5675 14.003L17.6105 14.0988L18.3254 15.6896C18.7771 16.6947 18.3217 17.8764 17.297 18.3268C17.0373 18.4409 16.756 18.5 16.4715 18.5C16.7528 18.5 17.0312 18.4416 17.2887 18.3285C18.3052 17.8817 18.7691 16.6994 18.3136 15.6858L17.5768 14.0464Z" fill="#1436E5" stroke="#4D627C"/>
</svg>
