<svg width="48" height="48" viewBox="0 0 48 48" fill="none" xmlns="http://www.w3.org/2000/svg">
<path d="M44 0H4.00003C1.79091 0 0 1.79091 0 4.00003V34C0 36.2092 1.79091 38.0001 4.00003 38.0001H29.0001V36H4.00003C2.89547 36 2.00006 35.1046 2.00006 34V4.00003C2.00006 2.89547 2.89547 2.00006 4.00003 2.00006H44.0001C45.1046 2.00006 46 2.89547 46 4.00003V21H48V4.00003C48 1.79091 46.2092 0 44 0Z" fill="#2F74C8"/>
<path d="M10 46C9.44772 46 8.99997 45.5523 8.99997 45C8.99997 44.4477 9.44772 44 10 44H29V42H10C8.34316 42 7 43.3432 7 45C7 46.6568 8.34316 48 10 48H30V46H10Z" fill="#2F74C8"/>
<path d="M29 36H18C17.4478 36 17 36.4477 17 37V43C17 43.5523 17.4478 44.0001 18 44.0001H29C29.5523 44.0001 30 43.5523 30 43V37C30 36.4477 29.5523 36 29 36ZM28.0001 42H19.0001V38H28.0001V42Z" fill="#2F74C8"/>
<path d="M26 30H0V32H26V30Z" fill="#2F74C8"/>
<path d="M23 33H17V35H23V33Z" fill="#2F74C8"/>
<path d="M30 33H25V35H30V33Z" fill="#2F74C8"/>
<path d="M36 8C29.3726 8 24 13.3726 24 20C24 26.6274 29.3726 32 36 32C42.6245 31.9929 47.9929 26.6245 48 20C48 13.3726 42.6275 8 36 8ZM36 30C30.4772 30 26 25.5229 26 20C26 14.4772 30.4771 9.99997 36 9.99997C41.5204 10.0061 45.9939 14.4796 46 20C46 25.5229 41.5228 30 36 30Z" fill="#2F74C8"/>
<path d="M36 11V13C39.8642 13.0044 42.9956 16.1358 43 20H45C44.9945 15.0317 40.9683 11.0055 36 11Z" fill="#2F74C8"/>
<path d="M29 20H27C27.0055 24.9683 31.0317 28.9945 36 29V27C32.1358 26.9956 29.0044 23.8642 29 20Z" fill="#2F74C8"/>
<path d="M30 20H32C32 17.7909 33.7908 16 36 16V14C32.6876 14.0034 30.0033 16.6877 30 20Z" fill="#2F74C8"/>
<path d="M40 20C40 22.2091 38.2091 24 36 24V26C39.3124 25.9967 41.9967 23.3124 42 20H40Z" fill="#2F74C8"/>
<path d="M39.9002 37.5531L39.0002 35.764V31C39.0002 30.4477 38.5524 30 38.0002 30H34.0001C33.4478 30 33.0001 30.4477 33.0001 31V35.764L32.1001 37.5531C32.0326 37.6923 31.9984 37.8454 32.0001 38.0001V47.0001C32.0001 47.5524 32.4478 48.0001 33.0001 48.0001H39.0001C39.5524 48.0001 40.0001 47.5524 40.0001 47.0001V38.0001C40.0019 37.8454 39.9677 37.6924 39.9002 37.5531ZM38.0002 46.0001H34.0001V38.2361L34.9001 36.4471C34.9676 36.3079 35.0018 36.1548 35.0002 36.0001V32.0001H37.0001V36.0001C36.9984 36.1548 37.0327 36.3079 37.1002 36.4471L38.0002 38.2361V46.0001Z" fill="#2F74C8"/>
<path d="M29 7.00006V5H6.00003C5.44775 5 5 5.44775 5 6.00003V11C5 11.5523 5.44775 12 6.00003 12H24V10.0001H7.00006V7.00006H29Z" fill="#2F74C8"/>
<path d="M16 15H5V17H16V15Z" fill="#2F74C8"/>
<path d="M22 15H18V17H22V15Z" fill="#2F74C8"/>
<path d="M11 19H5V21H11V19Z" fill="#2F74C8"/>
<path d="M19 19H13V21H19V19Z" fill="#2F74C8"/>
<path d="M8 23H5V25H8V23Z" fill="#2F74C8"/>
<path d="M16 23H10V25H16V23Z" fill="#2F74C8"/>
</g>
<defs>
<path d="M0 0H48V48H0V0Z" fill="white"/>
</clipPath>
</defs>
</svg>
