<svg width="24" height="24" viewBox="0 0 24 24" fill="none" xmlns="http://www.w3.org/2000/svg">
<path d="M16 3.99923H8V4.49903C8 4.77507 7.77614 4.99884 7.5 4.99884C7.22386 4.99884 7 4.77507 7 4.49903V3.99923H5.5C4.67157 3.99923 4 4.67054 4 5.49865V7.99768H20V5.49865C20 4.67054 19.3284 3.99923 18.5 3.99923H17V4.49903C17 4.77507 16.7761 4.99884 16.5 4.99884C16.2239 4.99884 16 4.77507 16 4.49903V3.99923ZM17 2.99961H18.5C19.8807 2.99961 21 4.11847 21 5.49865V18.501C21 19.8811 19.8807 21 18.5 21H5.5C4.11929 21 3 19.8811 3 18.501V5.49865C3 4.11847 4.11929 2.99961 5.5 2.99961H7V2.49981C7 2.22377 7.22386 2 7.5 2C7.77614 2 8 2.22377 8 2.49981V2.99961H16V2.49981C16 2.22377 16.2239 2 16.5 2C16.7761 2 17 2.22377 17 2.49981V2.99961ZM20 8.99729H4V18.501C4 19.3291 4.67157 20.0004 5.5 20.0004H18.5C19.3284 20.0004 20 19.3291 20 18.501V8.99729ZM5 10.4967C5 10.2207 5.22386 9.99691 5.5 9.99691H7.5C7.77614 9.99691 8 10.2207 8 10.4967V12.4959C8 12.772 7.77614 12.9957 7.5 12.9957H5.5C5.22386 12.9957 5 12.772 5 12.4959V10.4967ZM6 10.9965V11.9961H7V10.9965H6Z" fill="#4D627C"/>
</svg>
