<svg width="24" height="24" viewBox="0 0 24 24" fill="none" xmlns="http://www.w3.org/2000/svg">
<mask id="path-2-inside-1" fill="white">
<path d="M16 3.99923H8V4.49903C8 4.77507 7.77614 4.99884 7.5 4.99884C7.22386 4.99884 7 4.77507 7 4.49903V3.99923H5.5C4.67157 3.99923 4 4.67054 4 5.49865V7.99768H20V5.49865C20 4.67054 19.3284 3.99923 18.5 3.99923H17V4.49903C17 4.77507 16.7761 4.99884 16.5 4.99884C16.2239 4.99884 16 4.77507 16 4.49903V3.99923ZM17 2.99961H18.5C19.8807 2.99961 21 4.11847 21 5.49865V18.501C21 19.8811 19.8807 21 18.5 21H5.5C4.11929 21 3 19.8811 3 18.501V5.49865C3 4.11847 4.11929 2.99961 5.5 2.99961H7V2.49981C7 2.22377 7.22386 2 7.5 2C7.77614 2 8 2.22377 8 2.49981V2.99961H16V2.49981C16 2.22377 16.2239 2 16.5 2C16.7761 2 17 2.22377 17 2.49981V2.99961ZM20 8.99729H4V18.501C4 19.3291 4.67157 20.0004 5.5 20.0004H18.5C19.3284 20.0004 20 19.3291 20 18.501V8.99729ZM5 10.4967C5 10.2207 5.22386 9.99691 5.5 9.99691H7.5C7.77614 9.99691 8 10.2207 8 10.4967V12.4959C8 12.772 7.77614 12.9957 7.5 12.9957H5.5C5.22386 12.9957 5 12.772 5 12.4959V10.4967ZM6 10.9965V11.9961H7V10.9965H6Z"/>
</mask>
<path d="M16 3.99923H8V4.49903C8 4.77507 7.77614 4.99884 7.5 4.99884C7.22386 4.99884 7 4.77507 7 4.49903V3.99923H5.5C4.67157 3.99923 4 4.67054 4 5.49865V7.99768H20V5.49865C20 4.67054 19.3284 3.99923 18.5 3.99923H17V4.49903C17 4.77507 16.7761 4.99884 16.5 4.99884C16.2239 4.99884 16 4.77507 16 4.49903V3.99923ZM17 2.99961H18.5C19.8807 2.99961 21 4.11847 21 5.49865V18.501C21 19.8811 19.8807 21 18.5 21H5.5C4.11929 21 3 19.8811 3 18.501V5.49865C3 4.11847 4.11929 2.99961 5.5 2.99961H7V2.49981C7 2.22377 7.22386 2 7.5 2C7.77614 2 8 2.22377 8 2.49981V2.99961H16V2.49981C16 2.22377 16.2239 2 16.5 2C16.7761 2 17 2.22377 17 2.49981V2.99961ZM20 8.99729H4V18.501C4 19.3291 4.67157 20.0004 5.5 20.0004H18.5C19.3284 20.0004 20 19.3291 20 18.501V8.99729ZM5 10.4967C5 10.2207 5.22386 9.99691 5.5 9.99691H7.5C7.77614 9.99691 8 10.2207 8 10.4967V12.4959C8 12.772 7.77614 12.9957 7.5 12.9957H5.5C5.22386 12.9957 5 12.772 5 12.4959V10.4967ZM6 10.9965V11.9961H7V10.9965H6Z" fill="#1436E5"/>
<path d="M16 3.99923H17V2.99923H16V3.99923ZM8 3.99923V2.99923H7V3.99923H8ZM7 3.99923H8V2.99923H7V3.99923ZM4 7.99768H3V8.99768H4V7.99768ZM20 7.99768V8.99768H21V7.99768H20ZM17 3.99923V2.99923H16V3.99923H17ZM17 2.99961H16V3.99961H17V2.99961ZM7 2.99961V3.99961H8V2.99961H7ZM8 2.99961H7V3.99961H8V2.99961ZM16 2.99961V3.99961H17V2.99961H16ZM20 8.99729H21V7.99729H20V8.99729ZM4 8.99729V7.99729H3V8.99729H4ZM6 10.9965V9.99652H5V10.9965H6ZM6 11.9961H5V12.9961H6V11.9961ZM7 11.9961V12.9961H8V11.9961H7ZM7 10.9965H8V9.99652H7V10.9965ZM16 2.99923H8V4.99923H16V2.99923ZM7 3.99923V4.49903H9V3.99923H7ZM7 4.49903C7 4.22242 7.22422 3.99884 7.5 3.99884V5.99884C8.32806 5.99884 9 5.32772 9 4.49903H7ZM7.5 3.99884C7.77578 3.99884 8 4.22242 8 4.49903H6C6 5.32772 6.67194 5.99884 7.5 5.99884V3.99884ZM8 4.49903V3.99923H6V4.49903H8ZM7 2.99923H5.5V4.99923H7V2.99923ZM5.5 2.99923C4.11965 2.99923 3 4.11789 3 5.49865H5C5 5.22319 5.22349 4.99923 5.5 4.99923V2.99923ZM3 5.49865V7.99768H5V5.49865H3ZM4 8.99768H20V6.99768H4V8.99768ZM21 7.99768V5.49865H19V7.99768H21ZM21 5.49865C21 4.11789 19.8803 2.99923 18.5 2.99923V4.99923C18.7765 4.99923 19 5.22319 19 5.49865H21ZM18.5 2.99923H17V4.99923H18.5V2.99923ZM16 3.99923V4.49903H18V3.99923H16ZM16 4.49903C16 4.22242 16.2242 3.99884 16.5 3.99884V5.99884C17.3281 5.99884 18 5.32772 18 4.49903H16ZM16.5 3.99884C16.7758 3.99884 17 4.22242 17 4.49903H15C15 5.32772 15.6719 5.99884 16.5 5.99884V3.99884ZM17 4.49903V3.99923H15V4.49903H17ZM17 3.99961H18.5V1.99961H17V3.99961ZM18.5 3.99961C19.3288 3.99961 20 4.67112 20 5.49865H22C22 3.56582 20.4326 1.99961 18.5 1.99961V3.99961ZM20 5.49865V18.501H22V5.49865H20ZM20 18.501C20 19.3285 19.3288 20 18.5 20V22C20.4326 22 22 20.4338 22 18.501H20ZM18.5 20H5.5V22H18.5V20ZM5.5 20C4.67121 20 4 19.3285 4 18.501H2C2 20.4338 3.56737 22 5.5 22V20ZM4 18.501V5.49865H2V18.501H4ZM4 5.49865C4 4.67112 4.67121 3.99961 5.5 3.99961V1.99961C3.56737 1.99961 2 3.56582 2 5.49865H4ZM5.5 3.99961H7V1.99961H5.5V3.99961ZM8 2.99961V2.49981H6V2.99961H8ZM8 2.49981C8 2.77642 7.77578 3 7.5 3V1C6.67194 1 6 1.67112 6 2.49981H8ZM7.5 3C7.22422 3 7 2.77642 7 2.49981H9C9 1.67112 8.32806 1 7.5 1V3ZM7 2.49981V2.99961H9V2.49981H7ZM8 3.99961H16V1.99961H8V3.99961ZM17 2.99961V2.49981H15V2.99961H17ZM17 2.49981C17 2.77642 16.7758 3 16.5 3V1C15.6719 1 15 1.67112 15 2.49981H17ZM16.5 3C16.2242 3 16 2.77642 16 2.49981H18C18 1.67112 17.3281 1 16.5 1V3ZM16 2.49981V2.99961H18V2.49981H16ZM20 7.99729H4V9.99729H20V7.99729ZM3 8.99729V18.501H5V8.99729H3ZM3 18.501C3 19.8817 4.11965 21.0004 5.5 21.0004V19.0004C5.22349 19.0004 5 18.7764 5 18.501H3ZM5.5 21.0004H18.5V19.0004H5.5V21.0004ZM18.5 21.0004C19.8803 21.0004 21 19.8817 21 18.501H19C19 18.7764 18.7765 19.0004 18.5 19.0004V21.0004ZM21 18.501V8.99729H19V18.501H21ZM6 10.4967C6 10.7733 5.77578 10.9969 5.5 10.9969V8.99691C4.67194 8.99691 4 9.66803 4 10.4967H6ZM5.5 10.9969H7.5V8.99691H5.5V10.9969ZM7.5 10.9969C7.22422 10.9969 7 10.7733 7 10.4967H9C9 9.66803 8.32806 8.99691 7.5 8.99691V10.9969ZM7 10.4967V12.4959H9V10.4967H7ZM7 12.4959C7 12.2193 7.22422 11.9957 7.5 11.9957V13.9957C8.32806 13.9957 9 13.3246 9 12.4959H7ZM7.5 11.9957H5.5V13.9957H7.5V11.9957ZM5.5 11.9957C5.77578 11.9957 6 12.2193 6 12.4959H4C4 13.3246 4.67194 13.9957 5.5 13.9957V11.9957ZM6 12.4959V10.4967H4V12.4959H6ZM5 10.9965V11.9961H7V10.9965H5ZM6 12.9961H7V10.9961H6V12.9961ZM8 11.9961V10.9965H6V11.9961H8ZM7 9.99652H6V11.9965H7V9.99652Z" fill="#4D627C" mask="url(#path-2-inside-1)"/>
</svg>
