<svg width="24" height="24" viewBox="0 0 24 24" fill="none" xmlns="http://www.w3.org/2000/svg">
<path d="M5.5 3H18.5C19.8807 3 21 4.11929 21 5.5V18.5C21 19.8807 19.8807 21 18.5 21H5.5C4.11929 21 3 19.8807 3 18.5V5.5C3 4.11929 4.11929 3 5.5 3ZM5.5 4C4.67157 4 4 4.67157 4 5.5V18.5C4 19.3284 4.67157 20 5.5 20H18.5C19.3284 20 20 19.3284 20 18.5V5.5C20 4.67157 19.3284 4 18.5 4H5.5ZM15.1464 9.14645C15.3417 8.95118 15.6583 8.95118 15.8536 9.14645C16.0488 9.34171 16.0488 9.65829 15.8536 9.85355L10.8536 14.8536C10.6583 15.0488 10.3417 15.0488 10.1464 14.8536L8.14645 12.8536C7.95118 12.6583 7.95118 12.3417 8.14645 12.1464C8.34171 11.9512 8.65829 11.9512 8.85355 12.1464L10.5 13.7929L15.1464 9.14645Z" fill="#4D627C"/>
</svg>
