<svg width="24" height="24" viewBox="0 0 24 24" fill="none" xmlns="http://www.w3.org/2000/svg">
<mask id="path-2-inside-1" fill="white">
<path d="M5.5 3H18.5C19.8807 3 21 4.11929 21 5.5V18.5C21 19.8807 19.8807 21 18.5 21H5.5C4.11929 21 3 19.8807 3 18.5V5.5C3 4.11929 4.11929 3 5.5 3ZM5.5 4C4.67157 4 4 4.67157 4 5.5V18.5C4 19.3284 4.67157 20 5.5 20H18.5C19.3284 20 20 19.3284 20 18.5V5.5C20 4.67157 19.3284 4 18.5 4H5.5ZM15.1464 9.14645C15.3417 8.95118 15.6583 8.95118 15.8536 9.14645C16.0488 9.34171 16.0488 9.65829 15.8536 9.85355L10.8536 14.8536C10.6583 15.0488 10.3417 15.0488 10.1464 14.8536L8.14645 12.8536C7.95118 12.6583 7.95118 12.3417 8.14645 12.1464C8.34171 11.9512 8.65829 11.9512 8.85355 12.1464L10.5 13.7929L15.1464 9.14645Z"/>
</mask>
<path d="M5.5 3H18.5C19.8807 3 21 4.11929 21 5.5V18.5C21 19.8807 19.8807 21 18.5 21H5.5C4.11929 21 3 19.8807 3 18.5V5.5C3 4.11929 4.11929 3 5.5 3ZM5.5 4C4.67157 4 4 4.67157 4 5.5V18.5C4 19.3284 4.67157 20 5.5 20H18.5C19.3284 20 20 19.3284 20 18.5V5.5C20 4.67157 19.3284 4 18.5 4H5.5ZM15.1464 9.14645C15.3417 8.95118 15.6583 8.95118 15.8536 9.14645C16.0488 9.34171 16.0488 9.65829 15.8536 9.85355L10.8536 14.8536C10.6583 15.0488 10.3417 15.0488 10.1464 14.8536L8.14645 12.8536C7.95118 12.6583 7.95118 12.3417 8.14645 12.1464C8.34171 11.9512 8.65829 11.9512 8.85355 12.1464L10.5 13.7929L15.1464 9.14645Z" fill="#1436E5"/>
<path d="M15.1464 9.14645L14.4393 8.43934V8.43934L15.1464 9.14645ZM15.8536 9.14645L16.5607 8.43934V8.43934L15.8536 9.14645ZM15.8536 9.85355L16.5607 10.5607L15.8536 9.85355ZM10.8536 14.8536L11.5607 15.5607L10.8536 14.8536ZM10.1464 14.8536L9.43934 15.5607L10.1464 14.8536ZM8.14645 12.8536L7.43934 13.5607H7.43934L8.14645 12.8536ZM8.14645 12.1464L7.43934 11.4393H7.43934L8.14645 12.1464ZM8.85355 12.1464L9.56066 11.4393H9.56066L8.85355 12.1464ZM10.5 13.7929L9.79289 14.5L10.5 15.2071L11.2071 14.5L10.5 13.7929ZM5.5 4H18.5V2H5.5V4ZM18.5 4C19.3284 4 20 4.67157 20 5.5H22C22 3.567 20.433 2 18.5 2V4ZM20 5.5V18.5H22V5.5H20ZM20 18.5C20 19.3284 19.3284 20 18.5 20V22C20.433 22 22 20.433 22 18.5H20ZM18.5 20H5.5V22H18.5V20ZM5.5 20C4.67157 20 4 19.3284 4 18.5H2C2 20.433 3.567 22 5.5 22V20ZM4 18.5V5.5H2V18.5H4ZM4 5.5C4 4.67157 4.67157 4 5.5 4V2C3.567 2 2 3.567 2 5.5H4ZM5.5 3C4.11929 3 3 4.11929 3 5.5H5C5 5.22386 5.22386 5 5.5 5V3ZM3 5.5V18.5H5V5.5H3ZM3 18.5C3 19.8807 4.11929 21 5.5 21V19C5.22386 19 5 18.7761 5 18.5H3ZM5.5 21H18.5V19H5.5V21ZM18.5 21C19.8807 21 21 19.8807 21 18.5H19C19 18.7761 18.7761 19 18.5 19V21ZM21 18.5V5.5H19V18.5H21ZM21 5.5C21 4.11929 19.8807 3 18.5 3V5C18.7761 5 19 5.22386 19 5.5H21ZM18.5 3H5.5V5H18.5V3ZM15.8536 9.85355C15.6583 10.0488 15.3417 10.0488 15.1464 9.85355L16.5607 8.43934C15.9749 7.85355 15.0251 7.85355 14.4393 8.43934L15.8536 9.85355ZM15.1464 9.85355C14.9512 9.65829 14.9512 9.34171 15.1464 9.14645L16.5607 10.5607C17.1464 9.97487 17.1464 9.02513 16.5607 8.43934L15.1464 9.85355ZM15.1464 9.14645L10.1464 14.1464L11.5607 15.5607L16.5607 10.5607L15.1464 9.14645ZM10.1464 14.1464C10.3417 13.9512 10.6583 13.9512 10.8536 14.1464L9.43934 15.5607C10.0251 16.1464 10.9749 16.1464 11.5607 15.5607L10.1464 14.1464ZM10.8536 14.1464L8.85355 12.1464L7.43934 13.5607L9.43934 15.5607L10.8536 14.1464ZM8.85355 12.1464C9.04882 12.3417 9.04882 12.6583 8.85355 12.8536L7.43934 11.4393C6.85355 12.0251 6.85355 12.9749 7.43934 13.5607L8.85355 12.1464ZM8.85355 12.8536C8.65829 13.0488 8.34171 13.0488 8.14645 12.8536L9.56066 11.4393C8.97487 10.8536 8.02513 10.8536 7.43934 11.4393L8.85355 12.8536ZM8.14645 12.8536L9.79289 14.5L11.2071 13.0858L9.56066 11.4393L8.14645 12.8536ZM11.2071 14.5L15.8536 9.85355L14.4393 8.43934L9.79289 13.0858L11.2071 14.5Z" fill="#4D627C" mask="url(#path-2-inside-1)"/>
</svg>
