<svg width="24" height="24" viewBox="0 0 24 24" fill="none" xmlns="http://www.w3.org/2000/svg">
<mask id="path-2-inside-1" fill="white">
<path d="M5.5 3H18.5C19.8807 3 21 4.11929 21 5.5V18.5C21 19.8807 19.8807 21 18.5 21H5.5C4.11929 21 3 19.8807 3 18.5V5.5C3 4.11929 4.11929 3 5.5 3ZM5.5 4C4.67157 4 4 4.67157 4 5.5V18.5C4 19.3284 4.67157 20 5.5 20H18.5C19.3284 20 20 19.3284 20 18.5V5.5C20 4.67157 19.3284 4 18.5 4H5.5Z"/>
</mask>
<path d="M5.5 3H18.5C19.8807 3 21 4.11929 21 5.5V18.5C21 19.8807 19.8807 21 18.5 21H5.5C4.11929 21 3 19.8807 3 18.5V5.5C3 4.11929 4.11929 3 5.5 3ZM5.5 4C4.67157 4 4 4.67157 4 5.5V18.5C4 19.3284 4.67157 20 5.5 20H18.5C19.3284 20 20 19.3284 20 18.5V5.5C20 4.67157 19.3284 4 18.5 4H5.5Z" fill="#1436E5"/>
<path d="M5.5 4H18.5V2H5.5V4ZM18.5 4C19.3284 4 20 4.67157 20 5.5H22C22 3.567 20.433 2 18.5 2V4ZM20 5.5V18.5H22V5.5H20ZM20 18.5C20 19.3284 19.3284 20 18.5 20V22C20.433 22 22 20.433 22 18.5H20ZM18.5 20H5.5V22H18.5V20ZM5.5 20C4.67157 20 4 19.3284 4 18.5H2C2 20.433 3.567 22 5.5 22V20ZM4 18.5V5.5H2V18.5H4ZM4 5.5C4 4.67157 4.67157 4 5.5 4V2C3.567 2 2 3.567 2 5.5H4ZM5.5 3C4.11929 3 3 4.11929 3 5.5H5C5 5.22386 5.22386 5 5.5 5V3ZM3 5.5V18.5H5V5.5H3ZM3 18.5C3 19.8807 4.11929 21 5.5 21V19C5.22386 19 5 18.7761 5 18.5H3ZM5.5 21H18.5V19H5.5V21ZM18.5 21C19.8807 21 21 19.8807 21 18.5H19C19 18.7761 18.7761 19 18.5 19V21ZM21 18.5V5.5H19V18.5H21ZM21 5.5C21 4.11929 19.8807 3 18.5 3V5C18.7761 5 19 5.22386 19 5.5H21ZM18.5 3H5.5V5H18.5V3Z" fill="#4D627C" mask="url(#path-2-inside-1)"/>
</svg>
