<svg width="24" height="24" viewBox="0 0 24 24" fill="none" xmlns="http://www.w3.org/2000/svg">
<path d="M12.1204 8.8254C11.9407 8.61574 11.965 8.30009 12.1746 8.12038C12.3843 7.94067 12.6999 7.96495 12.8796 8.17461L15.8796 11.6746C16.0401 11.8619 16.0401 12.1382 15.8796 12.3254L12.8796 15.8254C12.6999 16.0351 12.3843 16.0593 12.1746 15.8796C11.965 15.6999 11.9407 15.3843 12.1204 15.1746L14.8415 12L12.1204 8.8254Z" fill="#4D627C"/>
<path d="M8.12038 8.8254C7.94067 8.61574 7.96495 8.30009 8.17461 8.12038C8.38428 7.94067 8.69993 7.96495 8.87964 8.17461L11.8796 11.6746C12.0401 11.8619 12.0401 12.1382 11.8796 12.3254L8.87964 15.8254C8.69993 16.0351 8.38428 16.0593 8.17461 15.8796C7.96495 15.6999 7.94067 15.3843 8.12038 15.1746L10.8415 12L8.12038 8.8254Z" fill="#4D627C"/>
</svg>
