<svg width="24" height="24" viewBox="0 0 24 24" fill="none" xmlns="http://www.w3.org/2000/svg">
<mask id="path-2-inside-1" fill="white">
<path d="M12.1204 8.8254C11.9407 8.61574 11.965 8.30009 12.1746 8.12038C12.3843 7.94067 12.6999 7.96495 12.8796 8.17461L15.8796 11.6746C16.0401 11.8619 16.0401 12.1382 15.8796 12.3254L12.8796 15.8254C12.6999 16.0351 12.3843 16.0593 12.1746 15.8796C11.965 15.6999 11.9407 15.3843 12.1204 15.1746L14.8415 12L12.1204 8.8254Z"/>
</mask>
<path d="M12.1204 8.8254C11.9407 8.61574 11.965 8.30009 12.1746 8.12038C12.3843 7.94067 12.6999 7.96495 12.8796 8.17461L15.8796 11.6746C16.0401 11.8619 16.0401 12.1382 15.8796 12.3254L12.8796 15.8254C12.6999 16.0351 12.3843 16.0593 12.1746 15.8796C11.965 15.6999 11.9407 15.3843 12.1204 15.1746L14.8415 12L12.1204 8.8254Z" fill="#1436E5"/>
<path d="M12.1204 8.8254L12.8796 8.17461L12.8796 8.17461L12.1204 8.8254ZM12.8796 8.17461L13.6389 7.52382L13.6389 7.52382L12.8796 8.17461ZM15.8796 11.6746L16.6389 11.0238L16.6389 11.0238L15.8796 11.6746ZM15.8796 12.3254L16.6389 12.9762H16.6389L15.8796 12.3254ZM12.8796 15.8254L13.6389 16.4762H13.6389L12.8796 15.8254ZM12.1204 15.1746L12.8796 15.8254L12.8796 15.8254L12.1204 15.1746ZM14.8415 12L15.6007 12.6508L16.1585 12L15.6007 11.3492L14.8415 12ZM12.8796 8.17461C13.0593 8.38428 13.0351 8.69993 12.8254 8.87964L11.5238 7.36112C10.8948 7.90026 10.822 8.84721 11.3611 9.4762L12.8796 8.17461ZM12.8254 8.87964C12.6157 9.05935 12.3001 9.03507 12.1204 8.8254L13.6389 7.52382C13.0998 6.89483 12.1528 6.82199 11.5238 7.36112L12.8254 8.87964ZM12.1204 8.8254L15.1204 12.3254L16.6389 11.0238L13.6389 7.52382L12.1204 8.8254ZM15.1204 12.3254C14.9599 12.1382 14.9599 11.8619 15.1204 11.6746L16.6389 12.9762C17.1204 12.4145 17.1204 11.5856 16.6389 11.0238L15.1204 12.3254ZM15.1204 11.6746L12.1204 15.1746L13.6389 16.4762L16.6389 12.9762L15.1204 11.6746ZM12.1204 15.1746C12.3001 14.965 12.6157 14.9407 12.8254 15.1204L11.5238 16.6389C12.1528 17.178 13.0998 17.1052 13.6389 16.4762L12.1204 15.1746ZM12.8254 15.1204C13.0351 15.3001 13.0593 15.6157 12.8796 15.8254L11.3611 14.5238C10.822 15.1528 10.8948 16.0998 11.5238 16.6389L12.8254 15.1204ZM12.8796 15.8254L15.6007 12.6508L14.0822 11.3492L11.3611 14.5238L12.8796 15.8254ZM15.6007 11.3492L12.8796 8.17461L11.3611 9.4762L14.0822 12.6508L15.6007 11.3492Z" fill="#4D627C" mask="url(#path-2-inside-1)"/>
<mask id="path-4-inside-2" fill="white">
<path d="M8.12038 8.8254C7.94067 8.61574 7.96495 8.30009 8.17461 8.12038C8.38428 7.94067 8.69993 7.96495 8.87964 8.17461L11.8796 11.6746C12.0401 11.8619 12.0401 12.1382 11.8796 12.3254L8.87964 15.8254C8.69993 16.0351 8.38428 16.0593 8.17461 15.8796C7.96495 15.6999 7.94067 15.3843 8.12038 15.1746L10.8415 12L8.12038 8.8254Z"/>
</mask>
<path d="M8.12038 8.8254C7.94067 8.61574 7.96495 8.30009 8.17461 8.12038C8.38428 7.94067 8.69993 7.96495 8.87964 8.17461L11.8796 11.6746C12.0401 11.8619 12.0401 12.1382 11.8796 12.3254L8.87964 15.8254C8.69993 16.0351 8.38428 16.0593 8.17461 15.8796C7.96495 15.6999 7.94067 15.3843 8.12038 15.1746L10.8415 12L8.12038 8.8254Z" fill="#1436E5"/>
<path d="M8.12038 8.8254L8.87964 8.17461V8.17461L8.12038 8.8254ZM8.87964 8.17461L9.63889 7.52382L8.87964 8.17461ZM11.8796 11.6746L12.6389 11.0238L12.6389 11.0238L11.8796 11.6746ZM11.8796 12.3254L12.6389 12.9762H12.6389L11.8796 12.3254ZM8.87964 15.8254L9.63889 16.4762L8.87964 15.8254ZM8.12038 15.1746L8.87964 15.8254L8.12038 15.1746ZM10.8415 12L11.6007 12.6508L12.1585 12L11.6007 11.3492L10.8415 12ZM8.87964 8.17461C9.05935 8.38428 9.03507 8.69993 8.8254 8.87964L7.52382 7.36112C6.89483 7.90026 6.82199 8.84721 7.36112 9.4762L8.87964 8.17461ZM8.8254 8.87964C8.61574 9.05935 8.30009 9.03507 8.12038 8.8254L9.63889 7.52382C9.09976 6.89483 8.15281 6.82199 7.52382 7.36112L8.8254 8.87964ZM8.12038 8.8254L11.1204 12.3254L12.6389 11.0238L9.63889 7.52382L8.12038 8.8254ZM11.1204 12.3254C10.9599 12.1382 10.9599 11.8619 11.1204 11.6746L12.6389 12.9762C13.1204 12.4145 13.1204 11.5856 12.6389 11.0238L11.1204 12.3254ZM11.1204 11.6746L8.12038 15.1746L9.63889 16.4762L12.6389 12.9762L11.1204 11.6746ZM8.12038 15.1746C8.30009 14.965 8.61574 14.9407 8.8254 15.1204L7.52382 16.6389C8.15281 17.178 9.09976 17.1052 9.63889 16.4762L8.12038 15.1746ZM8.8254 15.1204C9.03507 15.3001 9.05935 15.6157 8.87964 15.8254L7.36112 14.5238C6.82199 15.1528 6.89483 16.0998 7.52382 16.6389L8.8254 15.1204ZM8.87964 15.8254L11.6007 12.6508L10.0822 11.3492L7.36112 14.5238L8.87964 15.8254ZM11.6007 11.3492L8.87964 8.17461L7.36112 9.4762L10.0822 12.6508L11.6007 11.3492Z" fill="#4D627C" mask="url(#path-4-inside-2)"/>
</svg>
