<svg width="24" height="24" viewBox="0 0 24 24" fill="none" xmlns="http://www.w3.org/2000/svg">
<mask id="path-2-inside-1" fill="white">
<path d="M15.1746 10.1204C15.3843 9.94067 15.6999 9.96495 15.8796 10.1746C16.0593 10.3843 16.0351 10.6999 15.8254 10.8796L12.3254 13.8796C12.1382 14.0401 11.8619 14.0401 11.6746 13.8796L8.17461 10.8796C7.96495 10.6999 7.94067 10.3843 8.12038 10.1746C8.30009 9.96495 8.61574 9.94067 8.8254 10.1204L12 12.8415L15.1746 10.1204Z"/>
</mask>
<path d="M15.1746 10.1204C15.3843 9.94067 15.6999 9.96495 15.8796 10.1746C16.0593 10.3843 16.0351 10.6999 15.8254 10.8796L12.3254 13.8796C12.1382 14.0401 11.8619 14.0401 11.6746 13.8796L8.17461 10.8796C7.96495 10.6999 7.94067 10.3843 8.12038 10.1746C8.30009 9.96495 8.61574 9.94067 8.8254 10.1204L12 12.8415L15.1746 10.1204Z" fill="#1436E5"/>
<path d="M15.1746 10.1204L15.8254 10.8796H15.8254L15.1746 10.1204ZM15.8796 10.1746L15.1204 10.8254L15.8796 10.1746ZM15.8254 10.8796L16.4762 11.6389V11.6389L15.8254 10.8796ZM12.3254 13.8796L12.9762 14.6389V14.6389L12.3254 13.8796ZM11.6746 13.8796L11.0238 14.6389L11.0238 14.6389L11.6746 13.8796ZM8.17461 10.8796L7.52382 11.6389H7.52382L8.17461 10.8796ZM8.12038 10.1746L8.87964 10.8254L8.12038 10.1746ZM8.8254 10.1204L8.17461 10.8796H8.17461L8.8254 10.1204ZM12 12.8415L11.3492 13.6007L12 14.1585L12.6508 13.6007L12 12.8415ZM15.8254 10.8796C15.6157 11.0593 15.3001 11.0351 15.1204 10.8254L16.6389 9.52382C16.0998 8.89483 15.1528 8.82199 14.5238 9.36112L15.8254 10.8796ZM15.1204 10.8254C14.9407 10.6157 14.965 10.3001 15.1746 10.1204L16.4762 11.6389C17.1052 11.0998 17.178 10.1528 16.6389 9.52382L15.1204 10.8254ZM15.1746 10.1204L11.6746 13.1204L12.9762 14.6389L16.4762 11.6389L15.1746 10.1204ZM11.6746 13.1204C11.8619 12.9599 12.1382 12.9599 12.3254 13.1204L11.0238 14.6389C11.5856 15.1204 12.4145 15.1204 12.9762 14.6389L11.6746 13.1204ZM12.3254 13.1204L8.8254 10.1204L7.52382 11.6389L11.0238 14.6389L12.3254 13.1204ZM8.8254 10.1204C9.03507 10.3001 9.05935 10.6157 8.87964 10.8254L7.36112 9.52382C6.82199 10.1528 6.89483 11.0998 7.52382 11.6389L8.8254 10.1204ZM8.87964 10.8254C8.69993 11.0351 8.38428 11.0593 8.17461 10.8796L9.4762 9.36112C8.84721 8.82199 7.90026 8.89483 7.36112 9.52382L8.87964 10.8254ZM8.17461 10.8796L11.3492 13.6007L12.6508 12.0822L9.4762 9.36112L8.17461 10.8796ZM12.6508 13.6007L15.8254 10.8796L14.5238 9.36112L11.3492 12.0822L12.6508 13.6007Z" fill="#4D627C" mask="url(#path-2-inside-1)"/>
</svg>
