<svg width="24" height="24" viewBox="0 0 24 24" fill="none" xmlns="http://www.w3.org/2000/svg">
<mask id="path-3-inside-1" fill="white">
<path d="M15.1746 13.8796C15.3843 14.0593 15.6999 14.035 15.8796 13.8254C16.0593 13.6157 16.0351 13.3001 15.8254 13.1204L12.3254 10.1204C12.1382 9.95987 11.8619 9.95987 11.6746 10.1204L8.17461 13.1204C7.96495 13.3001 7.94067 13.6157 8.12038 13.8254C8.30009 14.035 8.61574 14.0593 8.8254 13.8796L12 11.1585L15.1746 13.8796Z"/>
</mask>
<path d="M15.1746 13.8796C15.3843 14.0593 15.6999 14.035 15.8796 13.8254C16.0593 13.6157 16.0351 13.3001 15.8254 13.1204L12.3254 10.1204C12.1382 9.95987 11.8619 9.95987 11.6746 10.1204L8.17461 13.1204C7.96495 13.3001 7.94067 13.6157 8.12038 13.8254C8.30009 14.035 8.61574 14.0593 8.8254 13.8796L12 11.1585L15.1746 13.8796Z" fill="#1436E5"/>
<path d="M15.1746 13.8796L15.8254 13.1204H15.8254L15.1746 13.8796ZM15.8796 13.8254L15.1204 13.1746L15.8796 13.8254ZM15.8254 13.1204L16.4762 12.3611V12.3611L15.8254 13.1204ZM12.3254 10.1204L12.9762 9.36111V9.36111L12.3254 10.1204ZM11.6746 10.1204L11.0238 9.36111L11.0238 9.36111L11.6746 10.1204ZM8.17461 13.1204L7.52382 12.3611H7.52382L8.17461 13.1204ZM8.12038 13.8254L8.87964 13.1746L8.12038 13.8254ZM8.8254 13.8796L8.17461 13.1204H8.17461L8.8254 13.8796ZM12 11.1585L11.3492 10.3993L12 9.84145L12.6508 10.3993L12 11.1585ZM15.8254 13.1204C15.6157 12.9407 15.3001 12.9649 15.1204 13.1746L16.6389 14.4762C16.0998 15.1052 15.1528 15.178 14.5238 14.6389L15.8254 13.1204ZM15.1204 13.1746C14.9407 13.3843 14.965 13.6999 15.1746 13.8796L16.4762 12.3611C17.1052 12.9002 17.178 13.8472 16.6389 14.4762L15.1204 13.1746ZM15.1746 13.8796L11.6746 10.8796L12.9762 9.36111L16.4762 12.3611L15.1746 13.8796ZM11.6746 10.8796C11.8619 11.0401 12.1382 11.0401 12.3254 10.8796L11.0238 9.36111C11.5856 8.87962 12.4145 8.87962 12.9762 9.36111L11.6746 10.8796ZM12.3254 10.8796L8.8254 13.8796L7.52382 12.3611L11.0238 9.36111L12.3254 10.8796ZM8.8254 13.8796C9.03507 13.6999 9.05935 13.3843 8.87964 13.1746L7.36112 14.4762C6.82199 13.8472 6.89483 12.9002 7.52382 12.3611L8.8254 13.8796ZM8.87964 13.1746C8.69993 12.9649 8.38428 12.9407 8.17461 13.1204L9.4762 14.6389C8.84721 15.178 7.90026 15.1052 7.36112 14.4762L8.87964 13.1746ZM8.17461 13.1204L11.3492 10.3993L12.6508 11.9178L9.4762 14.6389L8.17461 13.1204ZM12.6508 10.3993L15.8254 13.1204L14.5238 14.6389L11.3492 11.9178L12.6508 10.3993Z" fill="#4D627C" mask="url(#path-3-inside-1)"/>
</svg>
