<svg width="24" height="24" viewBox="0 0 24 24" fill="none" xmlns="http://www.w3.org/2000/svg">
<mask id="path-2-inside-1" fill="white">
<path d="M12 22C6.47715 22 2 17.5228 2 12C2 6.47715 6.47715 2 12 2C17.5228 2 22 6.47715 22 12C22 17.5228 17.5228 22 12 22ZM12 21C16.9706 21 21 16.9706 21 12C21 7.02944 16.9706 3 12 3C7.02944 3 3 7.02944 3 12C3 16.9706 7.02944 21 12 21ZM15.7906 14.0931C16.0153 14.2536 16.0674 14.5659 15.9069 14.7906C15.7464 15.0153 15.4341 15.0674 15.2094 14.9069L11.7094 12.4069C11.6157 12.3399 11.5479 12.2427 11.5176 12.1316L10.0176 6.63156C9.94496 6.36515 10.102 6.09028 10.3684 6.01762C10.6349 5.94496 10.9097 6.10203 10.9824 6.36844L12.4355 11.6966L15.7906 14.0931Z"/>
</mask>
<path d="M12 22C6.47715 22 2 17.5228 2 12C2 6.47715 6.47715 2 12 2C17.5228 2 22 6.47715 22 12C22 17.5228 17.5228 22 12 22ZM12 21C16.9706 21 21 16.9706 21 12C21 7.02944 16.9706 3 12 3C7.02944 3 3 7.02944 3 12C3 16.9706 7.02944 21 12 21ZM15.7906 14.0931C16.0153 14.2536 16.0674 14.5659 15.9069 14.7906C15.7464 15.0153 15.4341 15.0674 15.2094 14.9069L11.7094 12.4069C11.6157 12.3399 11.5479 12.2427 11.5176 12.1316L10.0176 6.63156C9.94496 6.36515 10.102 6.09028 10.3684 6.01762C10.6349 5.94496 10.9097 6.10203 10.9824 6.36844L12.4355 11.6966L15.7906 14.0931Z" fill="#1436E5"/>
<path d="M15.7906 14.0931L16.3719 13.2794L15.7906 14.0931ZM11.7094 12.4069L12.2906 11.5931V11.5931L11.7094 12.4069ZM11.5176 12.1316L12.4824 11.8684V11.8684L11.5176 12.1316ZM10.0176 6.63156L10.9824 6.36844L10.0176 6.63156ZM10.3684 6.01762L10.6316 6.98238L10.3684 6.01762ZM10.9824 6.36844L11.9471 6.10532L10.9824 6.36844ZM12.4355 11.6966L11.4708 11.9598L11.5645 12.3034L11.8543 12.5104L12.4355 11.6966ZM12 21C7.02944 21 3 16.9706 3 12H1C1 18.0751 5.92487 23 12 23V21ZM3 12C3 7.02944 7.02944 3 12 3V1C5.92487 1 1 5.92487 1 12H3ZM12 3C16.9706 3 21 7.02944 21 12H23C23 5.92487 18.0751 1 12 1V3ZM21 12C21 16.9706 16.9706 21 12 21V23C18.0751 23 23 18.0751 23 12H21ZM12 22C17.5228 22 22 17.5228 22 12H20C20 16.4183 16.4183 20 12 20V22ZM22 12C22 6.47715 17.5228 2 12 2V4C16.4183 4 20 7.58172 20 12H22ZM12 2C6.47715 2 2 6.47715 2 12H4C4 7.58172 7.58172 4 12 4V2ZM2 12C2 17.5228 6.47715 22 12 22V20C7.58172 20 4 16.4183 4 12H2ZM15.2094 14.9069C14.9847 14.7464 14.9326 14.4341 15.0931 14.2094L16.7206 15.3719C17.2021 14.6977 17.046 13.7609 16.3719 13.2794L15.2094 14.9069ZM15.0931 14.2094C15.2536 13.9847 15.5659 13.9326 15.7906 14.0931L14.6281 15.7206C15.3023 16.2021 16.2391 16.046 16.7206 15.3719L15.0931 14.2094ZM15.7906 14.0931L12.2906 11.5931L11.1281 13.2206L14.6281 15.7206L15.7906 14.0931ZM12.2906 11.5931C12.3843 11.6601 12.4521 11.7573 12.4824 11.8684L10.5529 12.3947C10.6438 12.728 10.847 13.0198 11.1281 13.2206L12.2906 11.5931ZM12.4824 11.8684L10.9824 6.36844L9.05285 6.89468L10.5529 12.3947L12.4824 11.8684ZM10.9824 6.36844C11.055 6.63485 10.898 6.90972 10.6316 6.98238L10.1053 5.05285C9.30609 5.27083 8.83488 6.09544 9.05285 6.89468L10.9824 6.36844ZM10.6316 6.98238C10.3651 7.05504 10.0903 6.89797 10.0176 6.63156L11.9471 6.10532C11.7292 5.30609 10.9046 4.83488 10.1053 5.05285L10.6316 6.98238ZM10.0176 6.63156L11.4708 11.9598L13.4003 11.4335L11.9471 6.10532L10.0176 6.63156ZM11.8543 12.5104L15.2094 14.9069L16.3719 13.2794L13.0168 10.8829L11.8543 12.5104Z" fill="#4D627C" mask="url(#path-2-inside-1)"/>
</svg>
