<svg width="24" height="24" viewBox="0 0 24 24" fill="none" xmlns="http://www.w3.org/2000/svg">
<mask id="path-2-inside-1" fill="white">
<path d="M12 11.2929L16.1464 7.14645C16.3417 6.95118 16.6583 6.95118 16.8536 7.14645C17.0488 7.34171 17.0488 7.65829 16.8536 7.85355L12.7071 12L16.8536 16.1464C17.0488 16.3417 17.0488 16.6583 16.8536 16.8536C16.6583 17.0488 16.3417 17.0488 16.1464 16.8536L12 12.7071L7.85355 16.8536C7.65829 17.0488 7.34171 17.0488 7.14645 16.8536C6.95118 16.6583 6.95118 16.3417 7.14645 16.1464L11.2929 12L7.14645 7.85355C6.95118 7.65829 6.95118 7.34171 7.14645 7.14645C7.34171 6.95118 7.65829 6.95118 7.85355 7.14645L12 11.2929Z"/>
</mask>
<path d="M12 11.2929L16.1464 7.14645C16.3417 6.95118 16.6583 6.95118 16.8536 7.14645C17.0488 7.34171 17.0488 7.65829 16.8536 7.85355L12.7071 12L16.8536 16.1464C17.0488 16.3417 17.0488 16.6583 16.8536 16.8536C16.6583 17.0488 16.3417 17.0488 16.1464 16.8536L12 12.7071L7.85355 16.8536C7.65829 17.0488 7.34171 17.0488 7.14645 16.8536C6.95118 16.6583 6.95118 16.3417 7.14645 16.1464L11.2929 12L7.14645 7.85355C6.95118 7.65829 6.95118 7.34171 7.14645 7.14645C7.34171 6.95118 7.65829 6.95118 7.85355 7.14645L12 11.2929Z" fill="#1436E5"/>
<path d="M12 11.2929L11.2929 12L12 12.7071L12.7071 12L12 11.2929ZM16.1464 7.14645L15.4393 6.43934V6.43934L16.1464 7.14645ZM16.8536 7.14645L17.5607 6.43934V6.43934L16.8536 7.14645ZM16.8536 7.85355L17.5607 8.56066V8.56066L16.8536 7.85355ZM12.7071 12L12 11.2929L11.2929 12L12 12.7071L12.7071 12ZM16.8536 16.1464L17.5607 15.4393L16.8536 16.1464ZM16.8536 16.8536L17.5607 17.5607L16.8536 16.8536ZM16.1464 16.8536L15.4393 17.5607L16.1464 16.8536ZM12 12.7071L12.7071 12L12 11.2929L11.2929 12L12 12.7071ZM7.85355 16.8536L8.56066 17.5607H8.56066L7.85355 16.8536ZM7.14645 16.8536L6.43934 17.5607H6.43934L7.14645 16.8536ZM7.14645 16.1464L6.43934 15.4393H6.43934L7.14645 16.1464ZM11.2929 12L12 12.7071L12.7071 12L12 11.2929L11.2929 12ZM7.14645 7.85355L7.85355 7.14645L7.14645 7.85355ZM7.85355 7.14645L7.14645 7.85355L7.85355 7.14645ZM12.7071 12L16.8536 7.85355L15.4393 6.43934L11.2929 10.5858L12.7071 12ZM16.8536 7.85355C16.6583 8.04882 16.3417 8.04882 16.1464 7.85355L17.5607 6.43934C16.9749 5.85355 16.0251 5.85355 15.4393 6.43934L16.8536 7.85355ZM16.1464 7.85355C15.9512 7.65829 15.9512 7.34171 16.1464 7.14645L17.5607 8.56066C18.1464 7.97487 18.1464 7.02513 17.5607 6.43934L16.1464 7.85355ZM16.1464 7.14645L12 11.2929L13.4142 12.7071L17.5607 8.56066L16.1464 7.14645ZM12 12.7071L16.1464 16.8536L17.5607 15.4393L13.4142 11.2929L12 12.7071ZM16.1464 16.8536C15.9512 16.6583 15.9512 16.3417 16.1464 16.1464L17.5607 17.5607C18.1464 16.9749 18.1464 16.0251 17.5607 15.4393L16.1464 16.8536ZM16.1464 16.1464C16.3417 15.9512 16.6583 15.9512 16.8536 16.1464L15.4393 17.5607C16.0251 18.1464 16.9749 18.1464 17.5607 17.5607L16.1464 16.1464ZM16.8536 16.1464L12.7071 12L11.2929 13.4142L15.4393 17.5607L16.8536 16.1464ZM11.2929 12L7.14645 16.1464L8.56066 17.5607L12.7071 13.4142L11.2929 12ZM7.14645 16.1464C7.34171 15.9512 7.65829 15.9512 7.85355 16.1464L6.43934 17.5607C7.02513 18.1464 7.97487 18.1464 8.56066 17.5607L7.14645 16.1464ZM7.85355 16.1464C8.04882 16.3417 8.04882 16.6583 7.85355 16.8536L6.43934 15.4393C5.85355 16.0251 5.85355 16.9749 6.43934 17.5607L7.85355 16.1464ZM7.85355 16.8536L12 12.7071L10.5858 11.2929L6.43934 15.4393L7.85355 16.8536ZM12 11.2929L7.85355 7.14645L6.43934 8.56066L10.5858 12.7071L12 11.2929ZM7.85355 7.14645C8.04882 7.34171 8.04882 7.65829 7.85355 7.85355L6.43934 6.43934C5.85355 7.02513 5.85355 7.97487 6.43934 8.56066L7.85355 7.14645ZM7.85355 7.85355C7.65829 8.04882 7.34171 8.04882 7.14645 7.85355L8.56066 6.43934C7.97487 5.85355 7.02513 5.85355 6.43934 6.43934L7.85355 7.85355ZM7.14645 7.85355L11.2929 12L12.7071 10.5858L8.56066 6.43934L7.14645 7.85355Z" fill="#4D627C" mask="url(#path-2-inside-1)"/>
</svg>
