<svg width="24" height="24" viewBox="0 0 24 24" fill="none" xmlns="http://www.w3.org/2000/svg">
<path d="M15.7439 9H16.5C18.9853 9 21 11.0147 21 13.5C21 15.9853 18.9853 18 16.5 18H6.5C4.567 18 3 16.433 3 14.5C3 12.7368 4.30385 11.2781 6 11.0354C6 8.23858 8.23858 6 11 6H11.5C13.4593 6 15.1262 7.25221 15.7439 9ZM15.9725 10C15.9907 10.1642 16 10.331 16 10.5C16 10.7761 15.7761 11 15.5 11C15.2239 11 15 10.7761 15 10.5C15 8.567 13.433 7 11.5 7H11C8.79086 7 7 8.79086 7 11V11.5C7 11.7761 6.77614 12 6.5 12C5.11929 12 4 13.1193 4 14.5C4 15.8807 5.11929 17 6.5 17H16.5C18.433 17 20 15.433 20 13.5C20 11.567 18.433 10 16.5 10H15.9725Z" fill="#4D627C"/>
</svg>
