<svg width="24" height="24" viewBox="0 0 24 24" fill="none" xmlns="http://www.w3.org/2000/svg">
<path d="M12 11.7071V19.5C12 19.7761 11.7761 20 11.5 20C11.2239 20 11 19.7761 11 19.5V11.7071L8.85355 13.8536C8.65829 14.0488 8.34171 14.0488 8.14645 13.8536C7.95118 13.6583 7.95118 13.3417 8.14645 13.1464L11.1464 10.1464C11.3417 9.95118 11.6583 9.95118 11.8536 10.1464L14.8536 13.1464C15.0488 13.3417 15.0488 13.6583 14.8536 13.8536C14.6583 14.0488 14.3417 14.0488 14.1464 13.8536L12 11.7071ZM15.7439 7H16.5C18.9853 7 21 9.01472 21 11.5C21 13.9853 18.9853 16 16.5 16C16.2239 16 16 15.7761 16 15.5C16 15.2239 16.2239 15 16.5 15C18.433 15 20 13.433 20 11.5C20 9.567 18.433 8 16.5 8H15.9725C15.9907 8.16417 16 8.331 16 8.5C16 8.77614 15.7761 9 15.5 9C15.2239 9 15 8.77614 15 8.5C15 6.567 13.433 5 11.5 5H11C8.79086 5 7 6.79086 7 9V9.5C7 9.77614 6.77614 10 6.5 10C5.11929 10 4 11.1193 4 12.5C4 13.8807 5.11929 15 6.5 15C6.77614 15 7 15.2239 7 15.5C7 15.7761 6.77614 16 6.5 16C4.567 16 3 14.433 3 12.5C3 10.7368 4.30385 9.27806 6 9.03544C6 6.23858 8.23858 4 11 4H11.5C13.4593 4 15.1262 5.25221 15.7439 7Z" fill="#4D627C"/>
</svg>
