<svg width="48" height="48" viewBox="0 0 48 48" fill="none" xmlns="http://www.w3.org/2000/svg">
<g clip-path="url(#clip0)">
<path d="M38 33V39C38 39.5523 37.5522 40 36.9999 40H3C2.44772 40 1.99997 39.5523 1.99997 39V15C1.99997 14.4477 2.44772 14 3 14H15V12H3C1.34316 12 0 13.3432 0 15V39C0 40.6568 1.34316 42 3 42H37C38.6569 42 40 40.6568 40 39V33H38Z" fill="#2F74C8"/>
<path d="M25 41V46H15V41H13V47C13 47.5523 13.4477 48 14 48H26C26.5523 48 27.0001 47.5523 27.0001 47V41H25Z" fill="#2F74C8"/>
<path d="M29 46H11V48H29V46Z" fill="#2F74C8"/>
<path d="M45 0H17C15.3432 0 14 1.34316 14 3V31C14 32.6569 15.3432 34 17 34H45C46.6569 34 48 32.6569 48 31V3C48 1.34316 46.6569 0 45 0ZM46.0001 31C46.0001 31.5523 45.5523 32.0001 45 32.0001H17C16.4477 32.0001 16 31.5523 16 31V3C16 2.44772 16.4477 1.99997 17 1.99997H45C45.5523 1.99997 46.0001 2.44772 46.0001 3V31Z" fill="#2F74C8"/>
<path d="M20 4H18V5.99997H20V4Z" fill="#2F74C8"/>
<path d="M24 4H22V5.99997H24V4Z" fill="#2F74C8"/>
<path d="M28 4H26V5.99997H28V4Z" fill="#2F74C8"/>
<path d="M40 8H15V9.99997H40V8Z" fill="#2F74C8"/>
<path d="M13 34H1V36H13V34Z" fill="#2F74C8"/>
<path d="M7 16C5.34316 16 4 17.3432 4 19V21H5.99997V19C5.99997 18.4477 6.44772 18 7 18H8.99997V16H7Z" fill="#2F74C8"/>
<path d="M5.99997 23H4V25H5.99997V23Z" fill="#2F74C8"/>
<path d="M27 12H21C19.3432 12 18 13.3432 18 15V17C18 18.6568 19.3432 20 21 20H27C28.6568 20 30 18.6568 30 17V15C30 13.3432 28.6568 12 27 12ZM28 17C28 17.5522 27.5523 18 27 18H21C20.4477 18 20 17.5522 20 17V15C20 14.4477 20.4477 14 21 14H27C27.5523 14 28 14.4477 28 15V17Z" fill="#2F74C8"/>
<path d="M41 12H35C33.3432 12 32 13.3432 32 15V17C32 18.6568 33.3432 20 35 20H41C42.6568 20 44 18.6568 44 17V15C44 13.3432 42.6568 12 41 12ZM42 17C42 17.5522 41.5523 18 41 18H35C34.4477 18 34 17.5522 34 17V15C34 14.4477 34.4477 14 35 14H41C41.5523 14 42 14.4477 42 15V17Z" fill="#2F74C8"/>
<path d="M27 22H21C19.3432 22 18 23.3432 18 25V27C18 28.6568 19.3432 30 21 30H27C28.6568 30 30 28.6568 30 27V25C30 23.3432 28.6568 22 27 22ZM28 27C28 27.5522 27.5523 28 27 28H21C20.4477 28 20 27.5522 20 27V25C20 24.4477 20.4477 24 21 24H27C27.5523 24 28 24.4477 28 25V27Z" fill="#2F74C8"/>
<path d="M41 22H35C33.3432 22 32 23.3432 32 25V27C32 28.6568 33.3432 30 35 30H41C42.6568 30 44 28.6568 44 27V25C44 23.3432 42.6568 22 41 22ZM42 27C42 27.5522 41.5523 28 41 28H35C34.4477 28 34 27.5522 34 27V25C34 24.4477 34.4477 24 35 24H41C41.5523 24 42 24.4477 42 25V27Z" fill="#2F74C8"/>
<path d="M44 8H42V9.99997H44V8Z" fill="#2F74C8"/>
</g>
<defs>
<clipPath id="clip0">
<path d="M0 0H48V48H0V0Z" fill="white"/>
</clipPath>
</defs>
</svg>
