<svg width="58" height="44" viewBox="0 0 58 44" fill="none" xmlns="http://www.w3.org/2000/svg">
<rect y="0.000976562" width="58" height="44" fill="white"/>
<path d="M58 21.0197V22.9835C57.9818 23.0901 57.9589 23.1947 57.947 23.3007C57.8482 24.155 57.7842 25.0147 57.6477 25.8626C57.2018 28.6184 56.238 31.1798 54.8059 33.5483C52.6311 37.1441 49.691 39.8862 45.9961 41.7588C43.8637 42.8447 41.5644 43.5425 39.2004 43.8213C38.6753 43.8837 38.1506 43.9396 37.6255 43.9991H17.2496C17.147 43.9794 17.0448 43.948 16.9412 43.9416C14.8867 43.8086 12.9099 43.3269 11.0257 42.479C6.92372 40.633 3.86523 37.641 1.86316 33.5227C0.978478 31.7062 0.405951 29.746 0.170897 27.7288C0.113136 27.2383 0.0568066 26.7483 0 26.2583V24.3529C0.019572 24.2473 0.0496461 24.1417 0.0558518 24.0357C0.162305 22.2049 0.52749 20.4271 1.1705 18.7185C2.90095 14.121 5.91743 10.7112 10.2042 8.50434C12.4282 7.3589 14.7988 6.75697 17.2783 6.62343C18.4922 6.55862 19.7052 6.62834 20.912 6.79478C21.0213 6.81 21.1788 6.75992 21.2547 6.67989C22.99 4.85691 24.9658 3.37615 27.1936 2.25379C29.3547 1.16531 31.6289 0.46371 34.0228 0.182874C34.5861 0.116593 35.1509 0.0620957 35.7151 0.00219727H37.4522C37.5659 0.0203632 37.6799 0.0409839 37.7936 0.0547311C38.6542 0.157835 39.5197 0.222643 40.3723 0.369443C43.0322 0.828501 45.5083 1.81044 47.7996 3.26912C51.313 5.50598 53.9906 8.53379 55.8199 12.3457C56.8778 14.54 57.557 16.9066 57.8272 19.3401C57.8892 19.9003 57.9422 20.4604 58 21.0197ZM25.5701 8.31188C25.605 8.35901 25.6136 8.3811 25.6284 8.38847C26.8213 8.99323 27.9615 9.70235 29.0363 10.508C29.1041 10.5586 29.2721 10.5374 29.3542 10.4844C32.3081 8.55932 35.5103 7.89504 38.9502 8.5225C42.3209 9.1372 45.0638 10.8693 47.1595 13.636C49.5325 16.7669 50.4371 20.3073 49.7821 24.2463C49.343 26.8863 48.3147 29.2547 46.5671 31.2387C43.3783 34.8557 39.3851 36.3517 34.6845 35.7183C31.7907 35.3285 29.2926 34.0446 27.2251 31.8956C24.5715 29.1388 21.9006 26.4002 19.2393 23.6508C18.8846 23.2845 18.4898 22.9899 17.979 22.9256C17.0868 22.8132 16.2772 23.2713 15.892 24.0956C15.5483 24.8316 15.5927 25.6613 16.3383 26.4154C19.3052 29.4108 22.2457 32.4338 25.2092 35.4321C25.7164 35.9479 26.2604 36.424 26.8366 36.8564C29.0014 38.4732 31.4422 39.3672 34.0854 39.7271C36.16 40.0089 38.2184 39.9485 40.2611 39.4762C44.1573 38.5763 47.3848 36.5309 49.9268 33.3749C52.0258 30.7669 53.2951 27.77 53.7376 24.4054C53.994 22.4867 53.9405 20.5377 53.5791 18.637C52.9896 15.5291 51.7112 12.7483 49.6628 10.3813C45.7546 5.86782 40.8377 3.85288 34.9866 4.30261C32.7359 4.47543 30.6068 5.15542 28.6033 6.23409C27.5222 6.81182 26.5051 7.50849 25.5701 8.31188ZM24.1385 39.8204C24.058 39.7437 23.9778 39.6666 23.8979 39.5892C22.6849 38.4113 21.4652 37.2408 20.2666 36.0478C20.0346 35.817 19.8212 35.7046 19.4928 35.7125C18.2788 35.7429 17.0639 35.7483 15.8677 35.4704C9.91967 34.0868 6.46592 27.4357 8.65799 21.5833C10.387 16.9687 15.1736 14.1584 19.8938 15.0249C22.0094 15.4133 23.8664 16.3343 25.3906 17.9511C27.2495 19.9248 29.1637 21.842 31.0426 23.7956C31.4704 24.2404 31.9616 24.4432 32.554 24.3563C33.3197 24.2439 33.9293 23.8688 34.2062 23.0965C34.4773 22.3364 34.346 21.6167 33.7865 21.0339C31.8145 18.9792 29.8893 16.8729 27.8376 14.9056C23.8583 11.0883 19.1658 9.95319 13.9759 11.5763C6.99532 13.7577 2.91002 21.1714 4.5049 28.4868C5.95848 35.1523 11.6263 39.8302 18.2583 39.8361C20.11 39.8381 21.9622 39.8371 23.8139 39.8361C23.9055 39.8361 23.9972 39.8278 24.1385 39.8204Z" fill="#CDD9E8"/>
</g>
<defs>
<rect y="0.000976562" width="58" height="44" fill="white"/>
</clipPath>
</defs>
</svg>
