<svg width="28" height="26" viewBox="0 0 28 26" fill="none" xmlns="http://www.w3.org/2000/svg">
<g clip-path="url(#clip0)">
<path d="M8.23772 0.000488281L0.00216675 5.36945L5.69657 9.92255L14.0005 4.80274L8.23772 0.000488281ZM0.00216675 14.476L8.23772 19.8449L14.0005 15.0421L5.69657 9.92259L0.00216675 14.476ZM14.0005 15.0421L19.7634 19.8449L27.9989 14.476L22.3045 9.92255L14.0005 15.0421Z" fill="#007EE5"/>
<path d="M27.9982 5.36945L19.7627 0.000488281L13.9999 4.80278L22.3038 9.92258L27.9982 5.36945ZM14.0168 16.0755L8.23706 20.8641L5.76379 19.2517V21.0592L14.0168 26.0005L22.2698 21.0592V19.2517L19.7965 20.8641L14.0168 16.0755Z" fill="#007EE5"/>
</g>
<defs>
<clipPath id="clip0">
<rect y="0.000488281" width="28" height="26" fill="white"/>
</clipPath>
</defs>
</svg>
