<svg width="24" height="24" viewBox="0 0 24 24" fill="none" xmlns="http://www.w3.org/2000/svg">
<path d="M19.999 6.52875V19.5001C19.999 20.8808 18.8798 22 17.4992 22H6.49984C5.11922 22 4 20.8808 4 19.5001V4.50088C4 3.12023 5.11922 2.001 6.49984 2.001H15.4713C15.604 1.99258 15.7422 2.03684 15.8528 2.14744L19.8526 6.14724C19.9632 6.25784 20.0074 6.39601 19.999 6.52875ZM14.9993 3.00095H6.49984C5.67147 3.00095 4.99994 3.67249 4.99994 4.50088V19.5001C4.99994 20.3285 5.67147 21 6.49984 21H17.4992C18.3275 21 18.9991 20.3285 18.9991 19.5001V7.00075H15.4993C15.2232 7.00075 14.9993 6.7769 14.9993 6.50078V3.00095ZM15.9992 3.70802V6.0008H18.292L15.9992 3.70802ZM11.9995 16.2932L14.1458 14.1468C14.3411 13.9516 14.6576 13.9516 14.8529 14.1468C15.0481 14.3421 15.0481 14.6587 14.8529 14.8539L11.9193 17.7875C11.8302 17.9249 11.6755 18.0158 11.4995 18.0158C11.3236 18.0158 11.1688 17.9249 11.0797 17.7875L8.14619 14.8539C7.95094 14.6587 7.95094 14.3421 8.14619 14.1468C8.34144 13.9516 8.658 13.9516 8.85325 14.1468L10.9996 16.2932V9.50063C10.9996 9.2245 11.2234 9.00065 11.4995 9.00065C11.7757 9.00065 11.9995 9.2245 11.9995 9.50063V16.2932Z" fill="#4D627C"/>
</svg>
