<svg width="24" height="24" viewBox="0 0 24 24" fill="none" xmlns="http://www.w3.org/2000/svg">
<path d="M19.999 6.52875V19.5001C19.999 20.8808 18.8798 22 17.4992 22H6.49984C5.11922 22 4 20.8808 4 19.5001V4.50088C4 3.12023 5.11922 2.001 6.49984 2.001H15.4713C15.604 1.99258 15.7422 2.03684 15.8528 2.14744L19.8526 6.14724C19.9632 6.25784 20.0074 6.39601 19.999 6.52875ZM14.9993 3.00095H6.49984C5.67147 3.00095 4.99994 3.67249 4.99994 4.50088V19.5001C4.99994 20.3285 5.67147 21 6.49984 21H17.4992C18.3275 21 18.9991 20.3285 18.9991 19.5001V7.00075H15.4993C15.2232 7.00075 14.9993 6.7769 14.9993 6.50078V3.00095ZM15.9992 3.70802V6.0008H18.292L15.9992 3.70802Z" fill="#4D627C"/>
</svg>
