<svg width="24" height="24" viewBox="0 0 24 24" fill="none" xmlns="http://www.w3.org/2000/svg">
<path d="M19.4991 6.50075L19.4998 6.49998L19.4991 6.50075ZM19.4991 6.50085C19.4993 6.50108 19.4995 6.50131 19.4997 6.50152L19.4991 6.51192V6.50085ZM15.4985 2.50028C15.4987 2.50049 15.499 2.50071 15.4992 2.50095H15.4879L15.4985 2.50028ZM15.5028 2.49746L15.5006 2.4997L15.5028 2.49746ZM19.5025 6.49726L19.5003 6.4995L19.5025 6.49726ZM11.4995 17.5003L11.4996 17.5003V17.5002L11.5283 17.4714L11.4998 17.5155L11.4995 17.5158L11.4993 17.5155L11.4707 17.4714L11.4995 17.5002V17.5003L11.4995 17.5003Z" fill="#1436E5" stroke="#4D627C"/>
</svg>
