<svg width="160" height="32" viewBox="0 0 160 32" fill="none" xmlns="http://www.w3.org/2000/svg">
<rect y="0.500977" width="160" height="31" fill="white"/>
<path d="M18.56 6.32627L9.28 12.1516L18.56 17.9769L9.28 23.8021L0 17.9454L9.28 12.1201L0 6.32627L9.28 0.500977L18.56 6.32627ZM9.232 25.6757L18.512 19.8504L27.792 25.6757L18.512 31.501L9.232 25.6757ZM18.56 17.9454L27.84 12.1201L18.56 6.32627L27.792 0.500977L37.072 6.32627L27.792 12.1516L37.072 17.9769L27.792 23.8021L18.56 17.9454Z" fill="#CDD9E8"/>
<path d="M44.352 6.32612H51.856C56.64 6.32612 60.592 9.04984 60.592 15.2687V16.5755C60.592 22.8416 56.896 25.6598 52 25.6598H44.352V6.32612ZM48.544 9.83704V22.1331H51.76C54.48 22.1331 56.304 20.3855 56.304 16.4968V15.4734C56.304 11.5846 54.384 9.83704 51.616 9.83704H48.544ZM62.816 10.026H66.176L66.72 13.6628C67.36 11.191 68.992 9.86853 71.952 9.86853H72.992V14.0407H71.264C67.856 14.0407 67.024 15.2058 67.024 18.512V25.707H62.88V10.026H62.816ZM73.824 18.1814V17.7405C73.824 12.4978 77.232 9.63237 81.872 9.63237C86.608 9.63237 89.92 12.4978 89.92 17.7405V18.1814C89.92 23.3297 86.704 26.1006 81.872 26.1006C76.736 26.0534 73.824 23.3454 73.824 18.1814ZM85.68 18.1341V17.7405C85.68 14.8279 84.192 13.0803 81.824 13.0803C79.504 13.0803 77.968 14.6862 77.968 17.7405V18.1341C77.968 20.9523 79.456 22.5582 81.824 22.5582C84.192 22.511 85.68 20.9523 85.68 18.1341ZM92.096 10.026H95.552L95.952 12.9858C96.784 11.0021 98.56 9.63237 101.184 9.63237C105.232 9.63237 107.904 12.4978 107.904 17.8035V18.2444C107.904 23.3927 104.944 26.1164 101.184 26.1164C98.672 26.1164 96.944 24.9985 96.096 23.2037V31.123H92.048L92.096 10.026ZM103.696 18.1341V17.7878C103.696 14.6705 102.064 13.1275 99.888 13.1275C97.568 13.1275 96.032 14.8751 96.032 17.7878V18.0869C96.032 20.8579 97.52 22.6054 99.84 22.6054C102.224 22.5582 103.696 21.0625 103.696 18.1341ZM114.032 22.8101L113.68 25.6755H110.128V4.7832H114.176V12.7969C115.072 10.7502 116.848 9.63237 119.36 9.63237C123.168 9.6796 125.984 12.2616 125.984 17.4572V17.9452C125.984 23.1407 123.312 26.1164 119.264 26.1164C116.592 26.0534 114.864 24.8411 114.032 22.8101ZM121.728 17.9452V17.5516C121.728 14.6862 120.144 13.0803 117.92 13.0803C115.648 13.0803 114.064 14.8751 114.064 17.5988V17.9452C114.064 20.8579 115.6 22.5582 117.872 22.5582C120.304 22.5582 121.728 21.0625 121.728 17.9452ZM127.76 18.1814V17.7405C127.76 12.4978 131.168 9.63237 135.808 9.63237C140.544 9.63237 143.856 12.4978 143.856 17.7405V18.1814C143.856 23.3297 140.592 26.1006 135.808 26.1006C130.672 26.0534 127.76 23.3454 127.76 18.1814ZM139.648 18.1341V17.7405C139.648 14.8279 138.16 13.0803 135.792 13.0803C133.472 13.0803 131.936 14.6862 131.936 17.7405V18.1341C131.936 20.9523 133.424 22.5582 135.792 22.5582C138.176 22.511 139.648 20.9523 139.648 18.1341ZM149.28 17.5516L143.696 10.026H148.48L151.696 14.7334L154.96 10.026H159.696L154.032 17.5044L160 25.6755H155.312L151.664 20.48L148.112 25.6755H143.216L149.28 17.5516Z" fill="#CDD9E8"/>
</g>
<defs>
<rect y="0.500977" width="160" height="31" fill="white"/>
</clipPath>
</defs>
</svg>
