<svg width="85" height="85" viewBox="0 0 85 85" fill="none" xmlns="http://www.w3.org/2000/svg">
<path d="M73.9171 25.1041H61.2188C61.5638 23.1092 62.7914 21.9966 65.2853 20.7307L67.6256 19.5412C71.8073 17.3933 74.032 14.9761 74.032 11.0245C74.032 8.53091 73.073 6.57425 71.155 5.15481C69.2752 3.73538 66.9734 3.04492 64.3264 3.04492C62.216 3.04492 60.298 3.58165 58.5331 4.69429C56.8069 5.76874 55.5024 7.14966 54.697 8.87589L58.3799 12.5594C59.7993 9.68189 61.871 8.26246 64.595 8.26246C66.8967 8.26246 68.3161 9.45196 68.3161 11.1013C68.3161 12.4826 67.6256 13.6334 64.9787 14.9761L63.4824 15.7051C60.2212 17.3545 57.9577 19.2344 56.6532 21.383C55.3491 23.4929 54.697 26.2167 54.697 29.4779V30.3601H73.9171V25.1041ZM72.2196 36.4302H51.1924L40.6787 54.6403H61.706L72.2196 72.8503L82.7332 54.6403L72.2196 36.4302Z" fill="#FB4F37"/>
<path d="M42.4902 66.7799C29.1022 66.7799 18.2103 55.888 18.2103 42.5C18.2103 29.112 29.1022 18.2199 42.4902 18.2199L50.8028 0.824903C48.0652 0.282129 45.281 0.00911013 42.4902 0.00976681C19.0236 0.00976681 0 19.0333 0 42.5C0 65.9666 19.0236 84.9902 42.4902 84.9902C51.8463 84.9902 60.4944 81.9637 67.5139 76.8398L58.309 60.8965C54.0564 64.5586 48.5295 66.7799 42.4902 66.7799Z" fill="#FB4F37"/>
</svg>
