<svg width="24" height="24" viewBox="0 0 24 24" fill="none" xmlns="http://www.w3.org/2000/svg">
<mask id="path-2-inside-1" fill="white">
<path d="M3.5 7C3.22386 7 3 6.77614 3 6.5C3 6.22386 3.22386 6 3.5 6H20.5C20.7761 6 21 6.22386 21 6.5C21 6.77614 20.7761 7 20.5 7H3.5ZM3.5 12C3.22386 12 3 11.7761 3 11.5C3 11.2239 3.22386 11 3.5 11H20.5C20.7761 11 21 11.2239 21 11.5C21 11.7761 20.7761 12 20.5 12H3.5ZM3.5 17C3.22386 17 3 16.7761 3 16.5C3 16.2239 3.22386 16 3.5 16H20.5C20.7761 16 21 16.2239 21 16.5C21 16.7761 20.7761 17 20.5 17H3.5Z"/>
</mask>
<path d="M3.5 7C3.22386 7 3 6.77614 3 6.5C3 6.22386 3.22386 6 3.5 6H20.5C20.7761 6 21 6.22386 21 6.5C21 6.77614 20.7761 7 20.5 7H3.5ZM3.5 12C3.22386 12 3 11.7761 3 11.5C3 11.2239 3.22386 11 3.5 11H20.5C20.7761 11 21 11.2239 21 11.5C21 11.7761 20.7761 12 20.5 12H3.5ZM3.5 17C3.22386 17 3 16.7761 3 16.5C3 16.2239 3.22386 16 3.5 16H20.5C20.7761 16 21 16.2239 21 16.5C21 16.7761 20.7761 17 20.5 17H3.5Z" fill="#1436E5"/>
<path d="M3.5 6C3.77614 6 4 6.22386 4 6.5H2C2 7.32843 2.67157 8 3.5 8V6ZM4 6.5C4 6.77614 3.77614 7 3.5 7V5C2.67157 5 2 5.67157 2 6.5H4ZM3.5 7H20.5V5H3.5V7ZM20.5 7C20.2239 7 20 6.77614 20 6.5H22C22 5.67157 21.3284 5 20.5 5V7ZM20 6.5C20 6.22386 20.2239 6 20.5 6V8C21.3284 8 22 7.32843 22 6.5H20ZM20.5 6H3.5V8H20.5V6ZM3.5 11C3.77614 11 4 11.2239 4 11.5H2C2 12.3284 2.67157 13 3.5 13V11ZM4 11.5C4 11.7761 3.77614 12 3.5 12V10C2.67157 10 2 10.6716 2 11.5H4ZM3.5 12H20.5V10H3.5V12ZM20.5 12C20.2239 12 20 11.7761 20 11.5H22C22 10.6716 21.3284 10 20.5 10V12ZM20 11.5C20 11.2239 20.2239 11 20.5 11V13C21.3284 13 22 12.3284 22 11.5H20ZM20.5 11H3.5V13H20.5V11ZM3.5 16C3.77614 16 4 16.2239 4 16.5H2C2 17.3284 2.67157 18 3.5 18V16ZM4 16.5C4 16.7761 3.77614 17 3.5 17V15C2.67157 15 2 15.6716 2 16.5H4ZM3.5 17H20.5V15H3.5V17ZM20.5 17C20.2239 17 20 16.7761 20 16.5H22C22 15.6716 21.3284 15 20.5 15V17ZM20 16.5C20 16.2239 20.2239 16 20.5 16V18C21.3284 18 22 17.3284 22 16.5H20ZM20.5 16H3.5V18H20.5V16Z" fill="#4D627C" mask="url(#path-2-inside-1)"/>
</svg>
