<svg width="24" height="24" viewBox="0 0 24 24" fill="none" xmlns="http://www.w3.org/2000/svg">
<mask id="path-2-inside-1" fill="white">
<path d="M12 22C6.47715 22 2 17.5228 2 12C2 6.47715 6.47715 2 12 2C17.5228 2 22 6.47715 22 12C22 17.5228 17.5228 22 12 22ZM12 21C16.9706 21 21 16.9706 21 12C21 7.02944 16.9706 3 12 3C7.02944 3 3 7.02944 3 12C3 16.9706 7.02944 21 12 21Z"/>
</mask>
<path d="M12 22C6.47715 22 2 17.5228 2 12C2 6.47715 6.47715 2 12 2C17.5228 2 22 6.47715 22 12C22 17.5228 17.5228 22 12 22ZM12 21C16.9706 21 21 16.9706 21 12C21 7.02944 16.9706 3 12 3C7.02944 3 3 7.02944 3 12C3 16.9706 7.02944 21 12 21Z" fill="#1436E5"/>
<path d="M12 21C7.02944 21 3 16.9706 3 12H1C1 18.0751 5.92487 23 12 23V21ZM3 12C3 7.02944 7.02944 3 12 3V1C5.92487 1 1 5.92487 1 12H3ZM12 3C16.9706 3 21 7.02944 21 12H23C23 5.92487 18.0751 1 12 1V3ZM21 12C21 16.9706 16.9706 21 12 21V23C18.0751 23 23 18.0751 23 12H21ZM12 22C17.5228 22 22 17.5228 22 12H20C20 16.4183 16.4183 20 12 20V22ZM22 12C22 6.47715 17.5228 2 12 2V4C16.4183 4 20 7.58172 20 12H22ZM12 2C6.47715 2 2 6.47715 2 12H4C4 7.58172 7.58172 4 12 4V2ZM2 12C2 17.5228 6.47715 22 12 22V20C7.58172 20 4 16.4183 4 12H2Z" fill="#4D627C" mask="url(#path-2-inside-1)"/>
<path d="M12.5 6.64286C10.9448 6.64286 9.74618 7.92849 9.53362 9.5H9.52992C9.74099 7.75676 11.04 6.5 12.5 6.5C13.96 6.5 15.259 7.75676 15.4701 9.5H15.4664C15.2538 7.92849 14.0552 6.64286 12.5 6.64286Z" fill="#1436E5" stroke="#4D627C"/>
<path d="M15.3202 9.5C15.1031 10.9538 13.9538 12.1031 12.5 12.3202V12.4646C14.0328 12.2453 15.2453 11.0328 15.4646 9.5H15.3202Z" fill="#1436E5" stroke="#4D627C"/>
<mask id="path-6-inside-2" fill="white">
<path d="M11 16H12V17H11V16Z"/>
</mask>
<path d="M11 16H12V17H11V16Z" fill="#1436E5"/>
<path d="M11 16V15H10V16H11ZM12 16H13V15H12V16ZM12 17V18H13V17H12ZM11 17H10V18H11V17ZM11 17H12V15H11V17ZM11 16V17H13V16H11ZM12 16H11V18H12V16ZM12 17V16H10V17H12Z" fill="#4D627C" mask="url(#path-6-inside-2)"/>
<path fill-rule="evenodd" clip-rule="evenodd" d="M11 15L11 12L12 12L12 15L11 15Z" fill="#4D627C"/>
</svg>
