<svg width="24" height="24" viewBox="0 0 24 24" fill="none" xmlns="http://www.w3.org/2000/svg">
<path d="M12 22C6.47715 22 2 17.5228 2 12C2 6.47715 6.47715 2 12 2C17.5228 2 22 6.47715 22 12C22 17.5228 17.5228 22 12 22ZM12 21C16.9706 21 21 16.9706 21 12C21 7.02944 16.9706 3 12 3C7.02944 3 3 7.02944 3 12C3 16.9706 7.02944 21 12 21Z" fill="#4D627C"/>
<path fill-rule="evenodd" clip-rule="evenodd" d="M12.5 7.14286C11.1193 7.14286 10 8.42204 10 10H9C9 7.79086 10.567 6 12.5 6C14.433 6 16 7.79086 16 10H15C15 8.42204 13.8807 7.14286 12.5 7.14286Z" fill="#4D627C"/>
<path fill-rule="evenodd" clip-rule="evenodd" d="M14.8571 9C14.8571 10.578 13.578 11.8571 12 11.8571V13C14.2091 13 16 11.2091 16 9H14.8571Z" fill="#4D627C"/>
<path d="M11 16H12V17H11V16Z" fill="#4D627C"/>
<path fill-rule="evenodd" clip-rule="evenodd" d="M11 15L11 12L12 12L12 15L11 15Z" fill="#4D627C"/>
</svg>
