<svg width="24" height="24" viewBox="0 0 24 24" fill="none" xmlns="http://www.w3.org/2000/svg">
<path d="M2.58538 13.2787L2.58991 13.3123C2.54506 12.9878 2.51661 12.658 2.50542 12.3238C2.51623 12.6463 2.54313 12.9649 2.58538 13.2787ZM12 21.5C7.60775 21.5 3.9117 18.5193 2.82434 14.4703L2.83714 14.5169C3.94033 18.5418 7.62406 21.5 12 21.5ZM20.2276 16.7524L20.2476 16.7178C18.8136 19.2193 16.2743 21.0062 13.2957 21.4124C16.2612 21.0079 18.7907 19.2349 20.2276 16.7524ZM21.4837 12.5613C21.4168 13.7087 21.1464 14.8014 20.7078 15.8038L20.7272 15.759C21.1544 14.7684 21.4178 13.6909 21.4837 12.5613Z" fill="#1436E5" stroke="#4D627C"/>
</svg>
