<svg width="24" height="24" viewBox="0 0 24 24" fill="none" xmlns="http://www.w3.org/2000/svg">
<path d="M3.31935 14.3848C4.36454 18.198 7.85504 21 12 21C15.3305 21 18.2384 19.191 19.7948 16.5019L16.5 13.2071L13.8536 15.8536C13.6583 16.0488 13.3417 16.0488 13.1464 15.8536L7.5 10.2071L3.35355 14.3536C3.34252 14.3646 3.33111 14.375 3.31935 14.3848ZM3.08091 13.212L7.14645 9.14645C7.34171 8.95118 7.65829 8.95118 7.85355 9.14645L13.5 14.7929L16.1464 12.1464C16.3417 11.9512 16.6583 11.9512 16.8536 12.1464L20.2681 15.561C20.7391 14.4688 21 13.2649 21 12C21 7.02944 16.9706 3 12 3C7.02944 3 3 7.02944 3 12C3 12.411 3.02755 12.8156 3.08091 13.212ZM12 22C6.47715 22 2 17.5228 2 12C2 6.47715 6.47715 2 12 2C17.5228 2 22 6.47715 22 12C22 17.5228 17.5228 22 12 22ZM15 6H17C17.5523 6 18 6.44772 18 7V9C18 9.55228 17.5523 10 17 10H15C14.4477 10 14 9.55228 14 9V7C14 6.44772 14.4477 6 15 6ZM15 7V9H17V7H15Z" fill="#4D627C"/>
</svg>
