<svg width="270" height="270" viewBox="0 0 270 270" fill="none" xmlns="http://www.w3.org/2000/svg">
<g clip-path="url(#clidadasp0)">
<path d="M90.0966 192.398C87.9081 192.398 85.8462 192.139 83.9267 191.617C83.3835 191.47 83.0618 190.911 83.2095 190.368C83.3572 189.824 83.9109 189.508 84.4593 189.65C87.5443 190.489 91.0722 190.584 94.9482 189.94C98.6079 189.329 102.247 188.121 105.374 187.035C106.381 186.687 110.552 184.293 111.407 183.57L120.603 175.839C123.288 173.582 126.336 171.019 127.612 167.597C127.791 167.122 127.744 166.975 127.738 166.969C127.712 166.98 127.427 166.954 126.984 167.096C125.476 167.576 124.073 168.493 123.034 169.685C122.57 170.223 121.837 170.872 120.994 170.924C120.535 170.972 120.108 170.808 119.765 170.497C119.143 169.938 119.137 169.158 119.137 168.63C119.058 168.757 118.974 168.936 118.937 169.137C118.874 169.511 118.916 169.944 118.963 170.408C118.995 170.698 119.021 170.988 119.027 171.278C119.09 173.466 118.025 175.771 116.105 177.59C114.465 179.146 112.493 180.174 110.584 181.165L102.668 185.284C101.466 185.911 100.222 186.56 98.8769 187.014C97.3054 187.546 95.7023 187.789 94.1519 188.026C90.7241 188.548 86.0361 189.26 82.2286 187.156C81.7382 186.882 81.5589 186.265 81.8331 185.774C82.1073 185.284 82.7296 185.11 83.2148 185.379C86.1732 187.019 89.7802 186.639 93.846 186.022C95.3068 185.801 96.8255 185.569 98.223 185.094C99.42 184.688 100.543 184.103 101.73 183.486L109.645 179.367C111.428 178.439 113.268 177.479 114.702 176.124C116.2 174.7 117.033 172.955 116.986 171.341C116.981 171.098 116.954 170.856 116.928 170.608C116.875 170.06 116.812 169.443 116.923 168.799C117.118 167.639 118.056 166.405 119.412 166.405C119.422 166.405 119.438 166.405 119.443 166.405C119.717 166.405 119.986 166.468 120.229 166.59C121.173 167.08 121.168 168.082 121.168 168.62C121.168 168.636 121.168 168.657 121.168 168.678C121.263 168.599 121.373 168.488 121.489 168.356C122.792 166.864 124.474 165.756 126.357 165.161C127.68 164.739 128.793 164.971 129.394 165.804C130.09 166.769 129.653 167.929 129.51 168.314C128.05 172.243 124.643 175.106 121.906 177.405L112.709 185.136C111.649 186.022 107.283 188.527 106.033 188.965C102.827 190.078 99.0878 191.322 95.2698 191.955C93.4874 192.245 91.7525 192.398 90.0966 192.398Z" fill="#153051"/>
<path d="M36.5765 200.382C30.6597 200.382 23.4457 199.986 16.6693 197.84C15.4564 197.455 14.1328 196.886 13.5263 195.599C13.2838 195.093 13.5052 194.486 14.0115 194.244C14.523 194.006 15.1242 194.223 15.3668 194.729C15.641 195.309 16.49 195.646 17.2863 195.899C24.5953 198.215 32.5107 198.425 38.6226 198.336C45.2355 198.246 52.94 197.777 59.9326 194.971C67.2099 192.05 72.6205 186.856 74.772 180.723C75.2625 179.336 75.4576 178.212 75.389 177.2C75.2994 177.242 75.1992 177.295 75.1043 177.379C74.3502 178.038 73.8439 178.982 73.3113 179.984C72.8578 180.823 72.3937 181.693 71.7451 182.468C71.3232 182.969 70.5638 183.454 69.8097 183.359C69.314 183.312 68.8869 183.027 68.6496 182.595C68.3912 182.12 68.4545 181.645 68.4914 181.366C68.523 181.123 68.5388 180.875 68.5388 180.633C68.5336 180.659 68.523 180.68 68.5177 180.707C68.2963 181.477 68.0748 182.247 67.79 182.995C66.2027 187.14 62.6537 190.616 57.8021 192.788C53.5412 194.692 48.8056 195.393 44.3285 195.863C41.0379 196.211 37.6681 196.464 34.309 196.617C30.5332 196.785 27.3586 196.791 24.184 196.242C20.3554 195.583 17.165 194.191 14.6918 192.113C14.2646 191.749 14.2066 191.111 14.5705 190.679C14.9343 190.246 15.5777 190.194 16.0049 190.557C18.167 192.377 21.1148 193.648 24.532 194.238C27.5273 194.755 30.5701 194.75 34.2193 194.586C37.5363 194.433 40.8638 194.186 44.1123 193.843C49.1009 193.315 53.1931 192.625 56.9742 190.937C61.272 189.018 64.5205 185.859 65.8968 182.273C66.1605 181.577 66.3662 180.865 66.5666 180.153C66.7195 179.61 66.8777 179.072 67.0517 178.539C67.4947 177.216 68.3806 177.121 68.734 177.11C69.4828 177.131 70.0734 177.69 70.3213 178.603C70.4953 179.267 70.5849 179.963 70.5797 180.654C70.9172 180.164 71.2125 179.61 71.5183 179.035C72.1142 177.917 72.7365 176.762 73.7701 175.86C74.2447 175.449 75.0357 175.038 75.832 175.133C76.333 175.191 76.7707 175.449 77.0554 175.85C77.3244 176.235 77.3877 176.646 77.4193 176.994C77.5195 178.318 77.2927 179.715 76.6968 181.408C74.3502 188.095 68.5177 193.727 60.6972 196.87C53.3988 199.802 45.457 200.292 38.6543 200.382C37.9793 200.377 37.2884 200.382 36.5765 200.382Z" fill="#153051"/>
<path d="M32.1363 142.943C31.3347 142.943 30.6914 142.722 30.2167 142.284C29.5681 141.688 29.4099 140.86 29.3097 140.307C29.1832 139.626 28.988 138.598 29.5048 137.659C29.7052 137.296 30.0005 136.974 30.3749 136.705C30.7863 136.415 31.2609 136.241 31.7355 136.172C31.957 136.109 32.1732 136.067 32.3736 136.035C32.8746 135.956 33.3755 135.914 33.8818 135.909C34.2615 135.898 34.7203 135.93 35.158 136.172C36.1124 136.71 36.2443 137.834 36.297 138.313C36.3761 138.983 36.4816 139.89 36.1125 140.755C35.6115 141.926 34.3722 142.706 32.7058 142.896C32.5107 142.933 32.3208 142.943 32.1363 142.943Z" fill="#153051"/>
<path d="M54.6538 139.6C54.3638 139.6 54.079 139.569 53.8101 139.505C53.4304 139.421 53.114 139.278 52.845 139.078C52.4654 138.788 52.2491 138.414 52.1173 138.15C51.8905 137.702 51.7323 137.18 51.6743 136.631C51.379 136.172 51.2155 135.624 51.2314 135.054C51.2683 133.984 51.9222 132.961 52.9347 132.391C53.7362 131.943 54.7171 131.785 55.7665 131.917C56.9109 132.064 57.8021 132.544 58.3452 133.298C58.8515 134 58.957 134.817 58.9991 135.445C59.0308 135.993 59.0308 136.716 58.6933 137.391C58.4085 137.965 57.9181 138.451 57.1904 138.867C56.3519 139.347 55.4765 139.6 54.6538 139.6Z" fill="#153051"/>
<path d="M44.4392 161.274C41.0378 161.274 37.8421 160.646 35.0736 159.407C30.8812 157.54 27.6169 154.25 26.114 150.368C25.9083 149.841 26.172 149.256 26.6941 149.05C27.2214 148.85 27.8068 149.108 28.0124 149.63C29.3255 153.01 32.1995 155.895 35.9015 157.54C39.1921 159.006 43.163 159.534 47.387 159.064C48.3257 158.959 49.0851 158.832 49.7706 158.653C52.381 157.967 54.9597 156.269 57.665 153.475C58.2292 152.894 58.7724 152.293 59.2681 151.66C60.8027 149.693 61.8837 147.357 62.3794 144.905C62.4902 144.351 63.0439 143.998 63.5818 144.109C64.1302 144.22 64.4888 144.758 64.3781 145.311C63.8138 148.075 62.6009 150.701 60.8712 152.916C60.3861 153.538 59.8165 154.181 59.1257 154.893C56.162 157.962 53.2669 159.834 50.2874 160.62C49.5017 160.826 48.6527 160.973 47.6138 161.089C46.538 161.216 45.4781 161.274 44.4392 161.274Z" fill="#153051"/>
<path d="M111.755 164.359C111.739 164.359 111.723 164.359 111.707 164.359L105.316 164.048C105.057 164.037 104.667 164.016 104.277 163.8C103.549 163.405 103.349 162.608 103.254 162.223C101.065 153.527 99.1142 145.016 99.2092 136.436C99.2144 136.03 99.2197 135.418 99.5572 134.854C99.842 134.38 100.28 134.09 100.543 133.916C101.74 133.13 103.011 132.444 104.335 131.88C104.704 131.722 105.838 131.237 106.766 131.949C107.378 132.418 107.51 133.135 107.578 133.52C109.144 141.989 110.584 150.601 111.844 159.101C111.997 160.119 112.155 161.174 112.625 162.002C112.788 162.292 112.794 162.624 112.672 162.904C112.746 163.051 112.778 163.215 112.767 163.389C112.741 163.937 112.293 164.359 111.755 164.359ZM105.511 133.599C105.463 133.631 105.337 133.668 105.131 133.752C103.918 134.269 102.753 134.896 101.661 135.614C101.561 135.677 101.35 135.819 101.303 135.898C101.245 135.993 101.245 136.31 101.239 136.463C101.145 144.81 102.985 152.842 105.221 161.728C105.268 161.923 105.311 162.044 105.337 162.086L110.494 162.266C110.115 161.311 109.962 160.309 109.83 159.402C108.57 150.922 107.14 142.342 105.574 133.889C105.553 133.763 105.532 133.662 105.511 133.599Z" fill="#153051"/>
<path d="M115.33 168.33C114.998 168.33 114.655 168.288 114.307 168.161C113.168 167.75 112.588 166.669 112.25 165.894C111.829 164.918 111.512 163.895 111.312 162.856C111.254 162.566 111.328 162.281 111.491 162.065C110.948 161.227 111.291 160.161 111.955 159.597C112.504 159.133 113.184 159.001 113.627 158.912C117.018 158.231 120.488 157.715 123.841 157.219C127.796 156.628 131.889 156.022 135.844 155.146C136.366 155.03 136.93 154.904 137.563 154.983C138.127 155.051 138.602 155.268 139.082 155.505C140.405 156.164 141.708 156.902 142.947 157.704C143.227 157.883 143.401 158.189 143.411 158.516L143.532 161.39C143.548 161.754 143.575 162.429 143.126 162.993C142.773 163.436 142.288 163.594 141.998 163.689C139.931 164.359 137.8 164.813 135.649 165.034L135.258 165.076C134.768 165.124 134.272 165.166 133.792 165.271C133.328 165.366 132.875 165.519 132.427 165.667C132.005 165.804 131.588 165.941 131.156 166.052C130.127 166.31 129.088 166.389 128.087 166.463L127.649 166.495C123.957 166.795 120.287 167.465 116.527 168.188C116.195 168.251 115.778 168.33 115.33 168.33ZM113.189 162.144C113.247 162.244 113.289 162.355 113.316 162.471C113.484 163.368 113.759 164.248 114.122 165.087C114.413 165.762 114.703 166.142 115.003 166.247C115.293 166.347 115.752 166.263 116.158 166.184C119.971 165.451 123.71 164.765 127.501 164.465L127.944 164.428C128.904 164.354 129.811 164.285 130.676 164.069C131.055 163.974 131.43 163.853 131.804 163.726C132.326 163.558 132.848 163.389 133.386 163.273C133.945 163.157 134.51 163.099 135.079 163.041L135.459 163.004C137.463 162.798 139.456 162.376 141.376 161.749C141.423 161.733 141.523 161.701 141.576 161.675C141.523 161.675 141.513 161.527 141.507 161.469L141.413 159.128C140.368 158.474 139.287 157.867 138.185 157.324C137.863 157.161 137.573 157.029 137.32 156.997C137.041 156.96 136.682 157.04 136.303 157.124C132.268 158.015 128.139 158.632 124.153 159.223C120.825 159.718 117.381 160.23 114.033 160.9C113.79 160.947 113.463 161.01 113.305 161.126C113.447 161.464 113.405 161.854 113.189 162.144Z" fill="#153051"/>
<path d="M115.994 165.029C115.646 165.029 115.293 164.997 114.94 164.923C113.242 164.559 111.665 162.93 112.034 161.074C112.145 160.52 112.672 160.156 113.231 160.272C113.78 160.377 114.143 160.915 114.033 161.469C113.911 162.097 114.66 162.787 115.367 162.935C116.358 163.146 117.518 162.777 118.536 162.455C122.106 161.321 126.151 160.04 130.27 159.761C131.161 159.702 132.068 159.687 132.98 159.671C135.765 159.623 138.396 159.576 140.563 158.294C141.038 158.01 141.671 158.168 141.956 158.653C142.24 159.138 142.082 159.761 141.597 160.045C138.971 161.596 135.944 161.654 133.017 161.701C132.142 161.717 131.266 161.733 130.407 161.791C126.531 162.054 122.776 163.246 119.153 164.396C118.23 164.681 117.139 165.029 115.994 165.029Z" fill="#153051"/>
<path d="M125.07 161.601C124.706 161.601 124.358 161.406 124.174 161.068C121.342 155.816 121.083 149.166 123.504 143.708C123.625 143.434 123.915 142.785 124.622 142.548C124.975 142.432 125.893 142.279 126.779 143.455C130.169 147.953 131.277 154.297 129.732 160.425C129.595 160.968 129.041 161.29 128.498 161.163C127.955 161.026 127.622 160.473 127.759 159.929C129.141 154.456 128.202 148.829 125.26 144.826C123.214 149.789 123.504 155.537 125.972 160.103C126.241 160.599 126.051 161.216 125.56 161.485C125.402 161.559 125.239 161.601 125.07 161.601Z" fill="#153051"/>
<path d="M124.195 144.879C123.989 144.879 123.783 144.816 123.604 144.689C121.479 143.176 119.132 142.047 116.617 141.346C114.845 140.855 114.85 139.7 114.898 139.358C114.94 139.025 115.087 138.767 115.177 138.614C115.805 137.549 116.527 136.536 117.329 135.608C117.819 135.034 118.389 134.453 119.18 134.137C119.76 133.905 120.34 133.868 120.851 133.842L121.242 133.815C121.885 133.757 122.507 133.604 123.093 133.357C123.583 133.14 124.01 132.951 124.516 132.919C125.007 132.877 125.481 133.014 125.903 133.167C128.039 133.916 130.006 135.176 131.583 136.8C131.715 136.932 132.026 137.254 132.094 137.744C132.189 138.372 131.82 138.841 131.683 139.02C130.075 141.124 127.986 142.896 125.645 144.151C125.481 144.241 125.302 144.283 125.133 144.273C125.107 144.331 125.07 144.394 125.033 144.447C124.828 144.731 124.511 144.879 124.195 144.879ZM117.097 139.368C117.118 139.374 117.139 139.379 117.165 139.389C119.723 140.107 122.122 141.219 124.311 142.701C124.4 142.564 124.527 142.448 124.68 142.364C126.689 141.293 128.487 139.79 129.901 138.002C128.545 136.684 126.953 135.698 125.228 135.092C125.012 135.012 124.785 134.949 124.648 134.954C124.501 134.965 124.29 135.055 124.063 135.155C123.108 135.561 122.28 135.767 121.426 135.846L120.973 135.877C120.577 135.904 120.208 135.925 119.929 136.035C119.549 136.183 119.195 136.558 118.869 136.937C118.22 137.697 117.624 138.514 117.097 139.368Z" fill="#153051"/>
<path d="M178.775 56.8653C178.685 56.8653 178.59 56.8548 178.5 56.8284C177.957 56.6755 177.646 56.1112 177.799 55.5734C178.174 54.255 178.722 52.9999 179.429 51.8345C180.225 50.5214 181.106 49.5405 182.118 48.8392C184.143 47.4364 186.891 47.0884 189.464 47.9216C191.658 48.6282 193.662 50.1312 195.265 52.2669C195.602 52.7151 195.513 53.3532 195.064 53.6907C194.616 54.0282 193.978 53.9386 193.641 53.4903C192.697 52.2405 191.104 50.59 188.842 49.8622C186.891 49.2347 184.765 49.4825 183.278 50.5161C182.503 51.054 181.817 51.8292 181.169 52.8997C180.557 53.9017 180.083 54.9933 179.761 56.1271C179.629 56.57 179.218 56.8653 178.775 56.8653Z" fill="#153051"/>
<path d="M179.597 53.4217C179.392 53.4217 179.186 53.3584 179.007 53.2372C178.242 52.694 177.456 52.1719 176.66 51.6762C176.185 51.3809 176.038 50.7534 176.338 50.2735C176.639 49.7936 177.272 49.6512 177.741 49.9518C178.569 50.4686 179.386 51.0118 180.188 51.576C180.647 51.903 180.752 52.5358 180.431 52.9946C180.23 53.2741 179.919 53.4217 179.597 53.4217Z" fill="#153051"/>
<path d="M182.313 50.7849C181.876 50.7849 181.475 50.5054 181.343 50.0677C181.037 49.0815 180.663 48.1218 180.22 47.2095C179.972 46.7032 180.183 46.0968 180.689 45.8489C181.19 45.6063 181.802 45.812 182.05 46.3182C182.54 47.3202 182.957 48.3802 183.289 49.4665C183.452 50.0044 183.152 50.5739 182.614 50.7374C182.514 50.769 182.413 50.7849 182.313 50.7849Z" fill="#153051"/>
<path d="M186.569 49.145C186.078 49.145 185.646 48.7917 185.567 48.2907C185.509 47.9426 185.635 47.6051 185.878 47.3784C185.978 46.4661 186.184 45.6276 186.5 44.8313C186.711 44.3092 187.302 44.0508 187.819 44.2565C188.341 44.4622 188.599 45.0528 188.393 45.5749C188.13 46.2446 187.961 46.9407 187.898 47.6473C187.787 48.8233 187.049 49.0712 186.738 49.1239C186.68 49.1397 186.627 49.145 186.569 49.145Z" fill="#153051"/>
<path d="M191.473 50.8745C191.12 50.8745 190.777 50.6899 190.593 50.3682C190.313 49.8831 190.482 49.2608 190.967 48.976C191.336 48.7651 191.652 48.3432 191.985 47.9003C192.364 47.3993 192.792 46.8245 193.409 46.4079C193.873 46.0968 194.505 46.2128 194.822 46.6768C195.138 47.1409 195.017 47.7737 194.553 48.0901C194.215 48.3169 193.925 48.7071 193.614 49.1184C193.192 49.6774 192.718 50.3155 191.985 50.7374C191.821 50.8323 191.647 50.8745 191.473 50.8745Z" fill="#153051"/>
<path d="M214.297 52.752C213.801 52.752 213.369 52.3881 213.295 51.8872C212.91 49.3348 213.632 46.9565 215.23 45.5221C216.084 44.7575 217.118 44.3092 218.104 43.919C219.085 43.534 220.14 43.1438 221.268 43.0805C223.578 42.9434 226.009 44.1616 227.802 46.3553C229.068 47.911 229.579 49.4983 229.279 50.9379C229.162 51.4864 228.625 51.8502 228.071 51.7237C227.522 51.6077 227.169 51.0698 227.285 50.5161C227.501 49.4825 226.826 48.3856 226.225 47.642C224.849 45.9545 223.014 45.0001 221.395 45.1108C220.561 45.1583 219.718 45.4747 218.853 45.8122C218.004 46.1497 217.192 46.4924 216.591 47.0356C215.309 48.1852 215.088 50.1364 215.309 51.5813C215.394 52.1403 215.009 52.6571 214.455 52.7415C214.402 52.752 214.349 52.752 214.297 52.752Z" fill="#153051"/>
<path d="M227.907 48.549C227.58 48.549 227.259 48.3908 227.064 48.1007C226.747 47.6314 226.874 47.0039 227.338 46.6874L230.644 44.462C231.108 44.1509 231.741 44.2669 232.058 44.7363C232.374 45.2056 232.247 45.8331 231.783 46.1495L228.477 48.3749C228.303 48.4962 228.102 48.549 227.907 48.549Z" fill="#153051"/>
<path d="M224.575 45.3058C224.48 45.3058 224.379 45.29 224.284 45.2636C223.747 45.1002 223.441 44.5359 223.599 43.998C223.958 42.8062 224.448 41.6461 225.065 40.5597C225.344 40.0693 225.967 39.8953 226.452 40.1748C226.942 40.4543 227.116 41.0713 226.837 41.5617C226.294 42.5162 225.861 43.5339 225.55 44.5834C225.418 45.0211 225.012 45.3058 224.575 45.3058Z" fill="#153051"/>
<path d="M218.911 45.2636C218.468 45.2636 218.057 44.9683 217.93 44.5201C217.603 43.3599 217.302 42.1945 217.028 41.0291C216.902 40.4806 217.239 39.9322 217.782 39.8056C218.315 39.6685 218.874 40.0113 219.006 40.5597C219.28 41.6988 219.57 42.8378 219.892 43.9664C220.045 44.5095 219.728 45.0685 219.19 45.2214C219.09 45.2531 219 45.2636 218.911 45.2636Z" fill="#153051"/>
<path d="M214.882 48.0428C214.65 48.0428 214.423 47.9637 214.233 47.8107L212.667 46.5029C212.282 46.1812 211.628 45.6381 211.502 44.7627C211.423 44.2037 211.808 43.6922 212.367 43.6131C212.941 43.534 213.442 43.9189 213.516 44.4779C213.537 44.5518 213.69 44.71 213.97 44.942L215.536 46.2445C215.968 46.6031 216.026 47.2465 215.668 47.6789C215.462 47.9162 215.172 48.0428 214.882 48.0428Z" fill="#153051"/>
<path d="M209.783 68.0027C209.297 68.0027 208.807 67.9605 208.327 67.8762C205.775 67.4174 203.449 65.7035 202.252 63.4043C201.783 62.5025 201.487 61.5375 201.229 60.6832C201.066 60.1453 201.366 59.5758 201.904 59.4123C202.437 59.2488 203.012 59.5494 203.175 60.0873C203.423 60.8941 203.676 61.7273 204.061 62.4656C204.973 64.2164 206.75 65.5242 208.691 65.8723C210.642 66.2203 212.757 65.6139 214.223 64.2902C214.908 63.668 215.473 62.8928 215.974 62.1492C216.78 60.9574 217.54 59.6707 217.582 58.3207C217.603 57.7617 218.083 57.3609 218.637 57.3398C219.196 57.3609 219.639 57.8303 219.618 58.3945C219.554 60.2613 218.589 61.9172 217.656 63.2936C217.081 64.1426 216.427 65.0338 215.583 65.7984C214.022 67.2117 211.892 68.0027 209.783 68.0027Z" fill="#153051"/>
<path d="M240.833 117.52C240.706 117.52 240.585 117.499 240.458 117.447C239.936 117.241 239.678 116.65 239.883 116.128C243.169 107.796 244.603 99.0845 244.034 90.937C243.68 85.8903 242.562 80.8489 241.476 75.9762C241.054 74.0725 240.616 72.1003 239.846 70.3284C239.145 68.72 238.138 67.196 237.157 65.7194L234.177 61.2212C233.255 59.829 232.395 58.6425 231.182 58.2259C230.924 58.1362 230.787 58.1468 230.76 58.1626C230.734 58.2522 230.792 58.7585 231.156 59.4124L235.206 66.6475C235.401 66.9956 235.375 67.4333 235.132 67.755C234.895 68.0766 234.489 68.2296 234.093 68.1399L229.463 67.1011C229.495 67.1643 229.537 67.2223 229.584 67.2698C230.207 67.8815 231.135 68.1821 232.121 68.4985C232.928 68.7569 233.766 69.0259 234.547 69.4952C235.928 70.3231 236.846 71.6362 237.415 72.5538C239.556 75.9815 240.743 80.2425 240.949 85.2206C241.133 89.5712 240.564 93.9165 240.01 98.1141L237.843 114.689C237.769 115.248 237.257 115.643 236.703 115.569C236.144 115.495 235.754 114.984 235.823 114.43L237.99 97.8557C238.528 93.7372 239.087 89.4815 238.913 85.3102C238.723 80.6854 237.637 76.762 235.691 73.6348C234.958 72.4641 234.262 71.7048 233.502 71.246C232.922 70.8979 232.232 70.6764 231.499 70.4444C230.328 70.07 229.126 69.685 228.155 68.7305C227.533 68.1188 227.217 67.1485 227.385 66.3733C227.512 65.7827 227.902 65.3239 228.461 65.1235C229.004 64.9231 229.51 65.0391 229.811 65.1077L232.321 65.672L229.384 60.4249C228.414 58.6899 228.556 57.1184 229.748 56.4223C230.328 56.0848 231.056 56.0479 231.852 56.3274C233.814 57.0024 235.011 58.8059 235.881 60.1243L238.85 64.6067C239.883 66.1729 240.943 67.7761 241.713 69.5427C242.562 71.4938 243.021 73.561 243.464 75.5596C244.561 80.5061 245.7 85.6214 246.064 90.821C246.654 99.2743 245.173 108.292 241.777 116.903C241.624 117.278 241.239 117.52 240.833 117.52Z" fill="#153051"/>
<path d="M193.641 123.094C193.345 123.094 193.05 122.968 192.85 122.72C190.508 119.846 189.148 116.276 187.945 113.122L183.262 100.877C182.245 98.2195 181.195 95.4668 180.947 92.5137C180.821 91.0055 180.905 89.5236 181.005 88.1367C181.459 81.8877 182.355 75.6229 183.679 69.5057C184.333 66.4682 185.393 63.1617 188.256 61.7063C188.594 61.5375 189.095 61.3266 189.728 61.3424C190.735 61.4057 191.616 62.1809 191.937 63.2619C192.175 64.074 192.074 64.8809 191.99 65.5295L191.341 70.7449C191.631 70.5445 191.916 70.3389 192.222 70.1807C193.108 69.7008 194.294 69.7008 195.112 70.1912C195.713 70.5551 196.056 71.151 196.056 71.8313C196.05 72.675 195.507 73.2867 195.096 73.6717C194.743 74.0039 194.363 74.3098 193.983 74.6156C193.525 74.9795 193.066 75.3486 192.665 75.7758C191.051 77.4897 190.566 80.0262 190.208 82.4783C189.759 85.5317 189.353 89.1176 189.728 92.6033C189.986 94.9869 190.592 97.3231 191.304 99.907C192.327 103.63 193.387 107.237 195.049 110.528C195.507 111.43 196.008 112.315 196.515 113.201C197.527 114.979 198.571 116.814 199.251 118.823C199.431 119.355 199.146 119.936 198.613 120.115C198.075 120.294 197.501 120.009 197.321 119.477C196.704 117.652 195.755 115.98 194.748 114.214C194.231 113.302 193.709 112.389 193.234 111.451C191.489 107.996 190.397 104.279 189.343 100.455C188.61 97.7818 187.977 95.3613 187.703 92.8301C187.302 89.1123 187.729 85.3682 188.193 82.1883C188.583 79.5357 189.169 76.5246 191.183 74.3836C191.668 73.8721 192.196 73.4449 192.707 73.0336C193.045 72.7594 193.387 72.4852 193.709 72.1899C193.983 71.9315 194.02 71.826 194.025 71.8049C193.967 71.8576 193.509 71.8049 193.198 71.9736C192.96 72.1002 192.728 72.269 192.501 72.4272C191.858 72.8859 191.125 73.4027 190.139 73.4291C189.812 73.4555 189.559 73.3131 189.358 73.0969C189.158 72.8754 189.068 72.5801 189.105 72.29L189.975 65.2922C190.039 64.7807 190.102 64.2533 189.986 63.8473C189.907 63.5731 189.707 63.3938 189.606 63.3885C189.554 63.3885 189.438 63.4043 189.19 63.5309C187.08 64.6067 186.226 67.3752 185.672 69.9486C184.37 75.9709 183.484 82.1461 183.041 88.3002C182.946 89.608 182.862 90.9949 182.978 92.3608C183.204 95.0291 184.201 97.6447 185.166 100.171L189.849 112.416C191.051 115.574 192.301 118.833 194.432 121.454C194.785 121.892 194.722 122.53 194.284 122.883C194.094 123.021 193.867 123.094 193.641 123.094Z" fill="#153051"/>
<path d="M124.237 146.15C124.701 146.508 125.128 146.909 125.508 147.352C125.919 146.82 126.33 146.287 126.742 145.754C126.394 145.496 126.051 145.238 125.703 144.979C124.891 144.373 123.746 145.559 124.311 146.371C124.933 147.263 125.55 148.154 126.172 149.05C126.636 148.586 127.1 148.122 127.564 147.658C126.752 147.057 125.935 146.45 125.123 145.849C124.274 145.222 123.24 146.419 123.731 147.241C124.58 148.665 125.956 149.683 126.657 151.186C127.19 150.775 127.723 150.363 128.255 149.952C127.269 149.182 126.341 148.381 125.445 147.505C124.854 146.93 124.015 147.252 123.741 147.953C123.177 149.409 125.835 151.144 126.431 152.193C126.963 151.782 127.496 151.371 128.028 150.959C127.058 149.957 126.03 149.108 124.886 148.317C123.936 147.663 122.797 149.14 123.652 149.915C125.176 151.297 126.468 152.773 127.617 154.492C128.15 154.081 128.682 153.67 129.215 153.258C127.786 152.024 126.362 150.785 124.933 149.551C123.92 148.676 122.702 149.968 123.493 150.991C124.822 152.71 126.151 154.429 127.48 156.143C127.96 155.663 128.44 155.183 128.92 154.703C127.496 153.601 126.188 152.42 124.944 151.117C124.089 150.221 122.908 151.355 123.346 152.351C124.247 154.403 126.088 156.238 127.512 157.941C127.749 157.361 127.992 156.781 128.229 156.206C127.976 156.175 125.255 153.443 124.437 152.863C123.868 152.457 123.135 152.9 122.945 153.469C122.312 155.341 125.961 158.564 126.963 159.882C127.496 159.471 128.028 159.059 128.561 158.648C127.928 158.01 127.216 157.098 126.23 157.525C125.165 157.983 125.74 158.669 125.64 159.37C125.967 159.123 126.294 158.875 126.62 158.622C126.763 158.611 125.081 154.74 125.075 154.73C124.595 153.548 122.681 154.002 123.114 155.273C123.172 155.447 123.23 155.621 123.293 155.795C123.71 157.029 125.677 156.502 125.255 155.252C125.197 155.078 125.139 154.904 125.075 154.73C124.421 154.909 123.768 155.088 123.114 155.273C123.688 156.686 124.627 160.799 126.62 160.662C127.021 160.636 127.533 160.367 127.601 159.914C127.786 158.648 126.483 159.449 127.121 160.088C127.907 160.879 129.436 159.798 128.719 158.854C127.97 157.867 127.222 156.887 126.468 155.9C126.146 155.479 125.824 155.057 125.503 154.635C124.959 153.665 124.759 153.459 124.901 154.007C124.406 154.208 123.905 154.413 123.409 154.614C124.88 155.658 126.388 158.015 128.229 158.237C129.199 158.353 129.442 157.092 128.946 156.502C127.607 154.899 125.94 153.243 125.102 151.323C124.569 151.734 124.036 152.146 123.504 152.557C124.748 153.86 126.056 155.041 127.48 156.143C128.524 156.95 129.727 155.748 128.92 154.703C127.591 152.984 126.262 151.265 124.933 149.551C124.453 150.031 123.973 150.511 123.493 150.991C124.922 152.225 126.346 153.464 127.775 154.698C128.598 155.41 130.053 154.487 129.373 153.464C128.139 151.613 126.742 149.968 125.091 148.475C124.68 149.008 124.269 149.541 123.857 150.073C124.907 150.796 125.713 151.497 126.589 152.394C127.401 153.227 128.756 152.162 128.187 151.16C127.965 150.769 125.856 148.096 125.703 148.491C125.133 148.639 124.569 148.792 124 148.94C124.896 149.81 125.824 150.616 126.81 151.386C127.717 152.093 128.914 151.244 128.408 150.152C127.691 148.613 126.341 147.648 125.481 146.208C125.017 146.672 124.553 147.136 124.089 147.6C124.901 148.201 125.719 148.808 126.531 149.409C127.343 150.015 128.487 148.829 127.923 148.017C127.301 147.125 126.684 146.234 126.061 145.338C125.597 145.802 125.133 146.266 124.669 146.73C125.017 146.988 125.36 147.247 125.708 147.505C126.663 148.217 127.707 146.714 126.942 145.907C126.562 145.459 126.141 145.058 125.671 144.705C124.685 143.861 123.235 145.296 124.237 146.15Z" fill="#153051"/>
<path d="M15.8835 264.559C12.9093 264.559 10.0405 262.745 8.83819 259.993C8.50596 259.228 8.2792 258.384 8.15264 257.414C7.93116 255.753 8.05772 254.202 8.51651 252.805C9.14405 250.907 10.4149 249.277 12.1024 248.207C12.5718 247.906 13.2046 248.043 13.5052 248.523C13.8058 248.998 13.6687 249.625 13.1888 249.926C11.9179 250.732 10.9159 252.019 10.4413 253.448C10.0774 254.55 9.98252 255.8 10.1618 257.15C10.262 257.931 10.436 258.595 10.6944 259.181C11.6542 261.369 14.1644 262.798 16.5269 262.487C17.0806 262.413 17.5921 262.809 17.6659 263.368C17.7398 263.927 17.3442 264.433 16.7853 264.507C16.4899 264.538 16.1841 264.559 15.8835 264.559Z" fill="#153051"/>
<path d="M13.9587 250.105C11.6173 250.105 9.7927 248.475 8.31614 246.878C7.45129 245.944 6.56535 244.926 6.05383 243.645C5.15207 241.388 5.63196 238.619 7.27199 236.589C8.71164 234.817 10.9792 233.625 13.5052 233.32C14.0378 233.235 14.5704 233.647 14.6337 234.206C14.7023 234.765 14.3015 235.271 13.7478 235.334C11.7439 235.577 9.96145 236.494 8.85403 237.86C7.68332 239.305 7.31946 241.319 7.94172 242.88C8.32668 243.835 9.07551 244.689 9.80852 245.485C10.9898 246.762 12.403 248.059 13.9587 248.059C13.9693 248.059 13.9693 248.059 13.9693 248.059C14.5282 248.059 14.987 248.512 14.987 249.071C14.987 249.636 14.5335 250.089 13.9745 250.094C13.9693 250.105 13.964 250.105 13.9587 250.105Z" fill="#153051"/>
<path d="M17.9455 253.38C16.6746 253.38 15.4775 252.726 14.6548 251.977C14.3543 251.703 13.9851 251.318 13.7847 250.78C13.5421 250.152 13.6054 249.52 13.6582 249.056C13.7162 248.481 13.7847 247.837 14.0326 247.199C14.349 246.382 14.8974 245.754 15.583 245.438C16.0839 245.211 16.6693 245.238 17.0859 245.512C17.4445 245.744 17.6554 246.139 17.6502 246.561C17.6396 247.125 17.1175 247.521 16.6166 247.563C16.4689 247.563 16.3318 247.526 16.2052 247.468C16.0998 247.59 16.0048 247.748 15.9363 247.927C15.7886 248.312 15.7359 248.776 15.6884 249.261C15.6568 249.546 15.6252 249.868 15.6937 250.042C15.7517 250.189 15.9205 250.353 16.0418 250.469C16.6957 251.075 17.7187 251.534 18.5044 251.234C19.0265 251.023 19.6171 251.281 19.8228 251.808C20.0285 252.33 19.7753 252.921 19.248 253.127C18.8103 253.301 18.3779 253.38 17.9455 253.38Z" fill="#153051"/>
<path d="M13.0359 234C10.8052 234 8.564 233.314 6.71302 232.059C6.27005 231.759 5.7058 231.331 5.28919 230.714C4.90423 230.15 4.71439 229.528 4.54564 228.979C4.26615 228.072 3.88646 226.828 4.18177 225.578C4.52455 224.128 5.60033 223.158 6.67083 222.277C7.54095 221.565 8.42162 220.869 9.30755 220.183C9.74525 219.841 10.3886 219.914 10.7367 220.368C11.0794 220.811 11.0003 221.449 10.5521 221.797C9.68197 222.472 8.81712 223.158 7.95755 223.859C7.15599 224.513 6.35443 225.225 6.15931 226.047C6.00638 226.707 6.20677 227.461 6.49154 228.384C6.62865 228.837 6.76048 229.259 6.97142 229.57C7.15072 229.829 7.41966 230.076 7.85736 230.372C9.39193 231.411 11.206 231.922 13.115 231.964C13.115 231.964 13.1202 231.964 13.1255 231.964C13.6845 231.964 14.138 232.412 14.1433 232.971C14.1486 233.53 13.6951 233.995 13.1361 233.995C13.0992 234 13.0675 234 13.0359 234Z" fill="#153051"/>
<path d="M9.66085 220.463C8.03663 220.463 6.34386 219.835 4.94112 218.691C3.68604 217.668 2.63663 216.234 1.81925 214.43C1.44483 213.602 1.03878 212.505 1.21808 211.35C1.44483 209.879 2.50479 208.825 3.27472 208.049L5.62667 205.703C6.02218 205.307 6.66554 205.307 7.06632 205.703C7.46182 206.098 7.46182 206.742 7.06632 207.142L4.71436 209.494C3.97081 210.238 3.34327 210.913 3.22725 211.662C3.13233 212.284 3.39601 212.985 3.67022 213.592C4.35577 215.105 5.21534 216.292 6.22784 217.114C7.3669 218.042 8.7169 218.501 9.99308 218.417C10.5362 218.385 11.0425 218.786 11.09 219.35C11.1374 219.909 10.7208 220.4 10.1566 220.447C9.99835 220.452 9.8296 220.463 9.66085 220.463Z" fill="#153051"/>
<path d="M6.83962 207.137C6.76052 207.137 6.67614 207.127 6.59704 207.105C5.27868 206.779 4.16598 206.067 3.45934 205.102C2.59977 203.926 2.39938 202.423 2.92673 201.178C3.33278 200.224 4.16071 199.438 5.25759 198.974L5.52126 198.868C5.7111 198.795 6.05915 198.657 6.11716 198.568C6.37556 198.067 6.98727 197.877 7.48825 198.13C7.98923 198.388 8.18434 199.005 7.92595 199.501C7.53571 200.25 6.8027 200.545 6.27009 200.751L6.0486 200.841C5.4527 201.094 4.99391 201.505 4.7988 201.969C4.55622 202.539 4.67751 203.309 5.09938 203.894C5.52126 204.474 6.2279 204.912 7.0822 205.123C7.62536 205.26 7.96286 205.808 7.82575 206.357C7.70974 206.826 7.29841 207.137 6.83962 207.137Z" fill="#153051"/>
<path d="M6.45466 199.248C6.26482 199.248 6.0697 199.195 5.89568 199.084C3.49626 197.518 1.6822 195.156 0.790989 192.429C-0.100222 189.703 -0.0316673 186.729 0.980833 184.05C1.25505 183.327 1.56091 182.721 1.9195 182.199C2.6947 181.07 3.83376 180.142 5.39997 179.356C5.90095 179.103 6.51267 179.304 6.76579 179.81C7.01365 180.311 6.81325 180.923 6.31228 181.176C5.06247 181.803 4.17126 182.515 3.59646 183.348C3.33279 183.733 3.10075 184.198 2.88454 184.767C2.03552 187.014 1.97751 189.513 2.72634 191.797C3.47517 194.08 4.99392 196.068 7.00837 197.376C7.47771 197.682 7.60954 198.314 7.30368 198.784C7.11384 199.084 6.78689 199.248 6.45466 199.248Z" fill="#153051"/>
<path d="M5.64251 180.359C5.49485 180.359 5.34192 180.327 5.20481 180.258C3.85481 179.615 3.1429 178.276 2.62083 177.3C2.05657 176.24 1.49231 175.18 1.07571 174.036C0.558913 172.607 0.469265 171.41 0.801491 170.371C1.47122 168.325 3.64915 167.349 4.82512 166.827C5.33137 166.59 5.93782 166.827 6.16985 167.339C6.40188 167.85 6.16985 168.451 5.65833 168.683C4.43489 169.232 3.09544 169.912 2.74212 171.004C2.55227 171.589 2.63137 172.354 2.98997 173.34C3.35911 174.347 3.86536 175.301 4.40325 176.309C4.92532 177.284 5.39993 178.091 6.09075 178.423C6.597 178.666 6.81321 179.272 6.57063 179.779C6.38606 180.142 6.02219 180.359 5.64251 180.359Z" fill="#153051"/>
<path d="M5.48433 168.33C5.26812 168.33 5.04664 168.261 4.86207 168.119C3.45933 167.038 2.70523 165.387 2.88453 163.816C3.03218 162.555 3.80211 161.474 4.83043 160.91C4.5984 160.731 4.32418 160.552 4.03941 160.372L3.54371 160.04C1.21812 158.447 -0.168792 155.769 0.0157784 153.227C0.173982 151.022 1.58726 149.04 3.44879 148.133C3.16402 147.785 2.90035 147.394 2.68941 146.957C2.10933 145.744 2.08824 144.399 2.6314 143.35C3.31695 142.026 4.87789 141.346 6.20679 141.799C6.73941 141.984 7.0189 142.559 6.83433 143.091C6.64976 143.624 6.07496 143.909 5.54234 143.719C5.18902 143.587 4.65113 143.861 4.43492 144.278C4.18707 144.758 4.21871 145.443 4.51929 146.071C4.79351 146.645 5.26812 147.194 6.04859 147.848C6.37027 148.117 6.49156 148.549 6.365 148.945C6.23843 149.34 5.87984 149.614 5.46851 149.646C3.74937 149.767 2.17789 151.471 2.04078 153.369C1.90894 155.21 2.94781 157.166 4.68804 158.358L5.14156 158.658C6.03804 159.238 7.14547 159.956 7.47769 161.258C7.55679 161.569 7.48824 161.896 7.28258 162.149C7.08218 162.397 6.80797 162.492 6.45465 162.529C6.4441 162.529 6.42828 162.529 6.41773 162.529C5.71109 162.529 4.99918 163.246 4.90425 164.053C4.80406 164.907 5.2734 165.872 6.10133 166.516C6.54429 166.859 6.62867 167.497 6.2859 167.945C6.09078 168.198 5.79019 168.33 5.48433 168.33Z" fill="#153051"/>
<path d="M6.30169 143.524C6.07493 143.524 5.84817 143.45 5.6636 143.297C3.15872 141.267 1.7929 138.018 2.08821 134.812C2.21477 133.478 2.62083 132.492 3.32747 131.79C4.19231 130.936 5.31555 130.688 6.36497 130.683C5.89036 129.881 5.49485 129.027 5.19427 128.157C4.96751 127.503 4.71966 126.633 4.78294 125.689C4.92005 123.548 6.47044 122.029 8.0472 120.663C8.71692 120.078 9.5554 119.355 10.6575 119.081C11.4064 118.897 12.1447 118.955 12.8408 119.155C12.6931 118.675 12.5718 118.185 12.4769 117.689C12.3398 116.961 12.229 115.891 12.904 115.036C13.8111 113.892 15.5302 113.971 16.6693 114.704C16.7484 114.757 16.8222 114.81 16.896 114.862C17.107 113.259 17.8611 111.719 19.0529 110.617C20.1497 109.6 21.4523 109.13 22.6441 109.368C23.2505 109.484 23.762 109.747 24.2103 110.095C24.4423 109.415 24.7904 108.803 25.2491 108.292C26.3618 107.047 28.0968 106.515 29.5839 106.958C30.6597 107.285 31.4507 108.039 32.0888 108.64C32.4949 109.025 32.5107 109.673 32.1257 110.079C31.7355 110.491 31.0921 110.501 30.6861 110.116C30.1798 109.636 29.6103 109.093 28.9986 108.903C28.2603 108.682 27.3532 108.993 26.7679 109.647C26.1931 110.285 25.8872 111.255 25.9241 112.305C25.94 112.748 25.6658 113.149 25.2491 113.296C24.822 113.444 24.3632 113.307 24.0943 112.953C23.5142 112.189 22.9394 111.493 22.2591 111.361C21.7318 111.255 21.0409 111.54 20.4292 112.11C19.1056 113.338 18.5466 115.332 19.0423 117.072C19.1636 117.499 18.9949 117.958 18.6204 118.201C18.2566 118.443 17.7661 118.417 17.4181 118.137C17.0964 117.874 16.8064 117.578 16.5163 117.278C16.1947 116.94 15.8888 116.624 15.5566 116.408C15.1505 116.149 14.6284 116.123 14.4966 116.297C14.4281 116.376 14.3384 116.618 14.4702 117.304C14.7023 118.549 15.1452 119.73 15.7886 120.827C16.0312 121.238 15.9521 121.76 15.604 122.082C15.256 122.403 14.7286 122.451 14.3384 122.177C13.3206 121.481 12.1447 120.8 11.1374 121.053C10.5152 121.206 9.91399 121.728 9.38138 122.193C8.13157 123.284 6.89759 124.455 6.81321 125.815C6.7763 126.395 6.95559 127.018 7.11907 127.492C7.59895 128.879 8.3636 130.203 9.32337 131.321C9.60813 131.653 9.65559 132.128 9.42884 132.507C9.20735 132.887 8.76438 133.072 8.33723 132.982C6.98724 132.692 5.51067 132.497 4.76184 133.235C4.4138 133.583 4.19759 134.174 4.11848 134.996C3.88645 137.496 4.99915 140.133 6.94505 141.715C7.38274 142.068 7.4513 142.711 7.09798 143.144C6.89231 143.397 6.597 143.524 6.30169 143.524Z" fill="#153051"/>
<path d="M79.7713 159.977C79.2809 159.977 78.8484 159.623 78.7693 159.122C78.6797 158.569 79.0541 158.041 79.6078 157.952C80.8629 157.746 81.9123 156.628 81.9018 155.515C81.8965 154.983 81.5695 154.408 81.0738 154.055C80.6572 153.754 80.1932 153.649 79.7924 153.78C79.2756 153.949 78.7166 153.68 78.5268 153.169C78.3369 152.657 78.5795 152.088 79.0805 151.877C80.1246 151.434 80.7416 150.094 80.4041 149.013C80.0982 148.053 79.0594 147.336 78.0574 147.378C77.8729 147.415 77.6883 147.436 77.4984 147.442C76.9975 147.394 76.5176 147.067 76.4596 146.545C76.3963 146.023 76.7443 145.538 77.2611 145.433C77.4352 145.396 77.6092 145.369 77.7832 145.359C78.1576 145.253 78.5162 144.995 78.7852 144.626C79.1332 144.151 79.2598 143.582 79.1227 143.107C78.9855 142.632 78.5742 142.221 78.0258 142.01C77.4774 141.794 76.892 141.815 76.4701 142.068C75.9955 142.353 75.3785 142.205 75.0885 141.736C74.7932 141.267 74.925 140.65 75.3891 140.344C76.391 139.679 76.9922 138.788 76.9975 137.955C76.9975 137.554 76.7654 137.101 76.4121 136.832C76.2961 136.742 76.1273 136.589 75.8373 136.621C75.7582 136.636 75.6791 136.652 75.5947 136.663C75.0779 136.742 74.5559 136.394 74.4451 135.867C74.3344 135.339 74.6508 134.817 75.1729 134.675C75.2678 134.648 75.368 134.627 75.4734 134.611C76.4754 134.337 77.1188 133.14 77.1504 132.112C77.1873 130.978 76.7338 129.744 75.7213 128.246C74.4346 126.332 72.1723 124.328 69.9785 124.945C69.9574 124.956 69.9363 124.961 69.9152 124.961C69.3721 125.114 68.8184 124.798 68.6654 124.265C68.5125 123.727 68.8184 123.168 69.351 123.01C69.3668 123.005 69.3773 122.999 69.3932 122.994C69.6252 122.92 69.7465 122.694 69.8098 122.519C69.9574 122.092 69.8941 121.565 69.6568 121.238C69.0029 120.342 67.616 120.141 66.8408 120.104C66.3926 120.083 66.0076 119.767 65.9022 119.329C65.7967 118.891 65.9918 118.433 66.382 118.211C67.9799 117.288 68.3596 114.947 67.7057 113.338C67.0307 111.677 65.3906 110.264 63.2074 109.457C60.7816 108.561 57.5543 108.577 55.8141 110.607C55.466 111.013 54.8648 111.081 54.443 110.765C54.0158 110.449 53.8998 109.863 54.1793 109.41C54.4061 109.046 54.3006 108.64 54.1688 108.366C53.8682 107.722 53.1721 107.179 52.5076 107.084C51.1102 106.863 49.6811 107.601 48.0938 108.497C47.8248 108.65 47.4926 108.671 47.2078 108.55C46.9178 108.429 46.7016 108.186 46.6172 107.886C45.7945 104.959 42.8783 102.222 39.883 102.792C38.4539 103.066 37.183 104.036 36.2391 104.848C34.7889 106.093 33.4863 107.506 32.3578 109.046C32.0256 109.505 31.3875 109.594 30.934 109.262C30.4805 108.93 30.3856 108.292 30.7178 107.838C31.9359 106.177 33.3492 104.648 34.9154 103.303C36.0545 102.322 37.6049 101.152 39.5086 100.788C43.3107 100.076 46.7174 102.844 48.1623 106.14C49.4912 105.449 51.0996 104.817 52.8188 105.064C54.174 105.265 55.4344 106.225 56.0303 107.501C56.0725 107.596 56.1147 107.691 56.1516 107.786C58.5035 106.525 61.541 106.662 63.9299 107.543C66.651 108.545 68.7234 110.375 69.6146 112.574C70.4162 114.551 70.1262 116.824 69.0346 118.443C70.0154 118.775 70.7906 119.313 71.3232 120.046C71.8875 120.832 72.0826 121.913 71.84 122.889C74.1182 123.321 76.1273 125.172 77.4299 127.118C78.6902 128.99 79.2545 130.604 79.207 132.186C79.1701 133.309 78.7219 134.532 77.9098 135.424C78.627 136.083 79.0594 137.032 79.0541 137.971C79.0488 138.672 78.8537 139.368 78.4898 140.011C78.59 140.043 78.6902 140.075 78.7904 140.117C79.9189 140.56 80.7838 141.467 81.1002 142.543C81.4166 143.619 81.174 144.842 80.4568 145.828C80.4252 145.87 80.3936 145.912 80.3619 145.955C81.2953 146.493 82.0389 147.352 82.3711 148.407C82.7666 149.667 82.524 151.038 81.8279 152.119C81.9914 152.204 82.1443 152.299 82.2973 152.409C83.3361 153.158 83.9637 154.313 83.9742 155.51C83.9953 157.641 82.2393 159.602 79.9717 159.977C79.882 159.971 79.824 159.977 79.7713 159.977Z" fill="#153051"/>
<path d="M83.4574 198.815C83.0882 198.815 82.7296 198.615 82.5503 198.262C82.2919 197.761 82.4923 197.149 82.9933 196.891C83.547 196.606 84.0163 196.348 84.2062 195.999C84.3064 195.82 84.3538 195.556 84.3591 195.208C84.3697 193.621 83.3677 192.05 81.9228 191.396C81.58 191.243 81.3533 190.911 81.3269 190.531C81.3005 190.156 81.4904 189.798 81.8068 189.603C83.4363 188.596 83.7474 186.254 83.8054 185.289C83.8687 184.234 83.7579 183.48 83.4574 182.906C83.1937 182.394 82.6242 181.914 82.0546 181.956C81.5906 181.983 81.1951 181.74 81.0263 181.329C80.8576 180.917 80.9788 180.443 81.3163 180.158C82.4554 179.214 83.1831 178.091 83.3624 176.999C83.5523 175.834 83.0302 174.616 82.1496 174.167C81.965 174.073 81.6169 173.898 81.406 173.498C81.3005 173.297 80.8681 172.29 82.2023 171.462C82.8298 171.077 83.3466 170.523 83.7052 169.88C84.0585 169.237 84.2695 168.467 84.3222 167.602C84.5331 164.274 82.0652 160.957 78.8167 160.209C78.2683 160.082 77.9308 159.534 78.0521 158.99C78.1787 158.442 78.7218 158.105 79.2703 158.226C83.4468 159.191 86.6267 163.452 86.3525 167.734C86.2787 168.899 85.9886 169.954 85.4824 170.866C85.0552 171.636 84.4751 172.311 83.779 172.844C85.0078 173.888 85.6353 175.628 85.3611 177.326C85.1607 178.576 84.5595 179.625 83.8845 180.453C84.4435 180.807 84.9234 181.329 85.2556 181.962C85.8831 183.159 85.8831 184.498 85.8304 185.405C85.7566 186.687 85.4085 188.806 84.048 190.336C85.4982 191.512 86.3999 193.331 86.3894 195.219C86.3841 195.92 86.2523 196.49 85.9833 196.975C85.4771 197.898 84.5753 198.357 83.9162 198.699C83.7738 198.779 83.6103 198.815 83.4574 198.815Z" fill="#153051"/>
<path d="M85.2609 235.276C84.8285 235.276 84.4277 235.002 84.2906 234.564C84.1219 234.032 84.4172 233.457 84.9551 233.288C85.9096 232.987 86.2523 232.639 86.2471 232.486C86.2418 232.439 86.1838 232.17 85.2135 231.732L84.0322 231.2C83.5998 231.005 83.3625 230.535 83.4521 230.077C83.5418 229.612 83.9426 229.275 84.4119 229.254C85.1871 229.228 85.9306 228.437 85.9043 227.661C85.8832 226.886 85.1449 226.1 84.3222 226.153C83.8213 226.164 83.2992 225.721 83.2887 225.162C83.2781 224.603 83.7158 224.139 84.2748 224.118C84.5385 224.107 84.839 223.896 85.0236 223.585C85.224 223.253 85.3347 222.789 85.3558 222.177C85.3822 221.502 85.2926 220.985 85.0763 220.6C84.8812 220.247 84.5332 219.994 84.2326 219.994H84.2273C83.7158 219.994 83.2834 219.614 83.2201 219.108C83.1568 218.596 83.4785 218.122 83.9795 217.995C84.8338 217.779 85.5404 216.798 85.6301 215.717C85.7092 214.71 85.3664 213.565 84.6017 212.31C84.3117 211.83 83.9056 211.25 83.3888 211.034C83.0408 210.887 82.7982 210.56 82.7666 210.18C82.7349 209.8 82.9142 209.436 83.2359 209.236C84.5385 208.408 85.3506 206.757 85.3084 205.022C85.2662 203.409 84.5437 201.737 83.2728 200.313C82.7824 199.765 82.5398 199.749 82.5029 199.754C81.9123 199.791 81.4482 199.39 81.4008 198.831C81.3533 198.272 81.7646 197.777 82.3236 197.729C83.5892 197.603 84.4963 198.626 84.7863 198.958C86.3842 200.74 87.2912 202.876 87.3439 204.975C87.3914 206.889 86.6689 208.751 85.4402 210.043C85.8146 210.428 86.1099 210.865 86.342 211.256C87.3334 212.885 87.7816 214.446 87.6603 215.891C87.5654 217.062 87.0644 218.127 86.3209 218.892C86.5318 219.103 86.7164 219.35 86.8693 219.625C87.2701 220.347 87.4441 221.212 87.4019 222.267C87.365 223.226 87.1594 224.007 86.7797 224.64C86.7164 224.745 86.6531 224.84 86.5793 224.94C87.3808 225.589 87.924 226.564 87.9504 227.614C87.9767 228.621 87.5285 229.586 86.8219 230.272C87.481 230.667 88.2351 231.332 88.2879 232.386C88.3353 233.278 87.9029 234.496 85.5773 235.229C85.4666 235.26 85.3611 235.276 85.2609 235.276Z" fill="#153051"/>
<path d="M85.0077 264.934C84.6702 264.934 84.338 264.765 84.1429 264.459C83.8423 263.985 83.99 263.352 84.4646 263.057L86.6214 261.701C86.8113 261.58 87.0222 261.448 87.1013 261.337C87.2015 261.19 87.2279 260.826 87.2384 260.668C87.2911 259.94 87.2806 259.202 87.212 258.479C87.1013 257.303 86.7954 256.544 86.2892 256.159C85.862 255.837 85.2345 255.727 84.454 255.616C84.0163 255.552 83.6736 255.22 83.5945 254.788C83.5154 254.355 83.721 253.923 84.1113 253.712C85.3716 253.027 86.4527 252.378 86.9167 251.408C87.2384 250.738 87.2859 249.862 87.0644 248.744C86.9062 247.953 86.6847 247.405 86.3683 247.015C86.0519 246.63 85.5878 246.414 85.224 246.461C84.6913 246.545 84.2167 246.213 84.0849 245.707C83.9583 245.201 84.2326 244.679 84.723 244.499C85.9359 244.056 86.8904 242.954 87.1488 241.689C87.2595 241.161 87.2701 240.571 87.1804 239.822C87.0538 238.693 86.7743 237.828 86.3261 237.169C85.8409 236.452 85.1027 235.983 84.4013 235.946C83.8423 235.919 83.4099 235.445 83.4363 234.881C83.4626 234.322 83.8634 233.826 84.5015 233.916C85.8515 233.979 87.1646 234.77 88.0136 236.025C88.6517 236.964 89.0367 238.129 89.2054 239.59C89.3161 240.555 89.2951 241.351 89.1474 242.095C88.9048 243.271 88.2773 244.357 87.4019 245.18C87.597 245.338 87.7816 245.522 87.9451 245.723C88.6517 246.588 88.9206 247.632 89.063 248.344C89.3742 249.91 89.274 251.197 88.7572 252.278C88.3669 253.1 87.7552 253.738 87.0908 254.25C87.2384 254.329 87.3808 254.424 87.5179 254.529C88.504 255.278 89.0683 256.502 89.2423 258.279C89.3214 259.112 89.332 259.966 89.274 260.805C89.237 261.337 89.1527 261.954 88.7783 262.492C88.4619 262.946 88.0294 263.22 87.713 263.415L85.5509 264.77C85.3769 264.881 85.1923 264.934 85.0077 264.934Z" fill="#153051"/>
<path d="M16.664 127.049C15.4037 127.049 14.1961 126.3 13.6424 125.161C13.0728 123.991 13.2574 122.535 14.0906 121.544C15.0556 120.399 16.7853 119.988 18.2988 120.558C18.958 120.806 19.4379 121.185 19.7385 121.676C20.0285 122.161 19.8756 122.783 19.3957 123.073C18.9211 123.363 18.2883 123.21 17.9982 122.73C17.9771 122.699 17.8875 122.577 17.5816 122.461C16.8961 122.198 16.0629 122.366 15.6515 122.852C15.3351 123.231 15.256 123.827 15.4722 124.27C15.6885 124.713 16.2 124.987 16.701 125.008C17.3074 125.04 17.7345 125.436 17.7504 125.995C17.7662 126.559 17.3285 127.028 16.7642 127.044C16.7273 127.049 16.6957 127.049 16.664 127.049Z" fill="#153051"/>
<path d="M49.0588 112.916C48.948 112.916 48.832 112.901 48.7213 112.858C48.1887 112.674 47.9144 112.089 48.099 111.561C48.2203 111.213 48.3416 110.712 48.2098 110.285C48.0463 109.758 47.4504 109.341 46.7912 109.288C46.1373 109.241 45.4254 109.489 44.7609 109.99C44.6502 110.354 44.3338 110.644 43.933 110.702C43.3687 110.765 42.8572 110.396 42.7781 109.837C42.7254 109.478 42.7939 108.946 43.4215 108.45C44.5183 107.585 45.7787 107.153 46.9494 107.258C48.4523 107.374 49.7443 108.35 50.1557 109.679C50.3877 110.438 50.3455 111.319 50.0238 112.231C49.8709 112.658 49.4807 112.916 49.0588 112.916Z" fill="#153051"/>
<path d="M77.0449 163.441C76.8498 163.441 76.6547 163.42 76.4596 163.373C75.9164 163.241 75.5789 162.687 75.716 162.144C75.8479 161.601 76.3963 161.269 76.9447 161.4C77.2137 161.464 77.625 161.248 77.8201 160.91C78.126 160.377 78.0311 159.692 77.9414 159.333C77.8781 159.064 77.8043 158.88 77.7094 158.78C77.6039 158.664 77.3824 158.548 77.1662 158.437C76.8762 158.284 76.5756 158.131 76.333 158.099C76.1748 158.083 75.9586 158.105 75.7688 158.126L75.0516 158.205C74.5031 158.263 73.9916 157.862 73.9283 157.303C73.8703 156.744 74.2711 156.243 74.8301 156.18L75.5473 156.101C75.8162 156.069 76.1854 156.027 76.5809 156.074C77.1926 156.148 77.7041 156.412 78.1102 156.628C78.4477 156.802 78.8695 157.024 79.2176 157.408C79.5498 157.772 79.7819 158.252 79.9242 158.869C80.1879 159.998 80.0666 161.084 79.5867 161.923C79.0488 162.856 78.0416 163.441 77.0449 163.441Z" fill="#153051"/>
<path d="M10.5363 183.781C9.60292 183.781 8.46386 183.675 7.45663 183.074C6.34921 182.41 5.44745 180.97 5.86933 179.509C5.9537 179.204 6.08554 178.95 6.20156 178.74C6.59706 178.028 7.05058 177.521 7.58847 177.189C8.39531 176.693 9.36562 176.646 10.1197 177.068C10.6101 177.342 10.7894 177.959 10.5152 178.449C10.241 178.94 9.61874 179.114 9.13359 178.845C9.04921 178.798 8.83827 178.813 8.6537 178.924C8.42167 179.066 8.20546 179.33 7.98398 179.726C7.9207 179.836 7.85742 179.963 7.82577 180.074C7.70976 180.474 8.01562 181.039 8.50605 181.334C9.15468 181.724 10.0512 181.772 10.7367 181.751C11.301 181.751 11.7598 182.188 11.7703 182.753C11.7809 183.317 11.3326 183.776 10.7684 183.786C10.6945 183.781 10.6154 183.781 10.5363 183.781Z" fill="#153051"/>
<path d="M15.6726 224.74C15.6251 224.74 15.5724 224.735 15.5249 224.729C14.2171 224.539 12.9567 224.307 11.8493 223.569C10.4097 222.609 9.70831 220.938 10.1302 219.498C10.3886 218.612 11.0214 217.958 11.5435 217.489C12.7933 216.366 14.0114 215.944 15.1452 216.223C15.6937 216.36 16.0259 216.909 15.8888 217.457C15.7569 218 15.2138 218.338 14.6601 218.201C14.0642 218.053 13.3101 218.638 12.9093 219.002C12.5876 219.292 12.2026 219.677 12.0866 220.073C11.8915 220.727 12.403 221.491 12.9831 221.876C13.7425 222.383 14.7181 222.557 15.8255 222.715C16.3792 222.794 16.7642 223.311 16.6851 223.87C16.606 224.376 16.1735 224.74 15.6726 224.74Z" fill="#153051"/>
<path d="M68.7761 216.703C68.2435 216.703 67.7003 216.587 67.1888 216.355C66.0128 215.823 65.2798 214.847 64.8737 214.124C64.7366 213.882 64.821 213.571 65.0689 213.434C65.3009 213.297 65.6226 213.381 65.7597 213.629C66.0919 214.219 66.6825 215.01 67.6107 215.432C68.4122 215.796 69.314 215.77 69.9784 215.374C70.3212 215.169 70.5532 214.884 70.606 214.589C70.722 213.966 70.0681 213.323 69.488 212.833C69.2982 212.674 69.2507 212.4 69.3773 212.189C69.4986 211.973 69.7622 211.883 69.989 211.962C70.4583 212.131 70.838 212.416 71.2072 212.685C71.571 212.954 71.9191 213.207 72.2935 213.307C73.132 213.534 74.0284 212.996 74.8827 212.432C75.1728 212.242 75.3995 212.078 75.4945 211.878C75.5525 211.751 75.5736 211.572 75.5525 211.33C75.4734 210.365 74.9197 209.415 74.0759 208.777C73.2849 208.187 72.246 207.86 71.1439 207.86C71.1439 207.86 71.1386 207.86 71.1333 207.86C70.8538 207.86 70.6271 207.633 70.6271 207.353C70.6271 207.074 70.8538 206.847 71.1333 206.847C71.1333 206.847 71.1386 206.847 71.1439 206.847C72.4622 206.847 73.7173 207.243 74.6876 207.97C75.7634 208.777 76.4648 210.001 76.565 211.25C76.6019 211.678 76.5544 212.015 76.4173 212.31C76.1958 212.785 75.7581 213.075 75.4417 213.286C74.445 213.945 73.2691 214.62 72.0351 214.293C71.8874 214.251 71.745 214.204 71.6079 214.14C71.6396 214.341 71.6396 214.557 71.6027 214.778C71.4972 215.353 71.0911 215.891 70.4952 216.25C69.989 216.55 69.3931 216.703 68.7761 216.703Z" fill="#153051"/>
<path d="M54.1846 169.189C54.1213 169.189 54.058 169.184 53.9895 169.174C53.6467 169.121 53.3777 168.931 53.209 168.794C51.975 167.792 51.6639 166.157 51.4477 164.57C51.4107 164.29 51.6059 164.037 51.8854 163.995C52.1701 163.969 52.418 164.153 52.4602 164.433C52.6447 165.814 52.9031 167.233 53.8471 167.998C53.9684 168.098 54.0686 168.151 54.1424 168.166C54.2637 168.187 54.5063 168.087 54.6539 168.019C55.2814 167.739 55.9617 167.391 56.1199 166.837C56.1832 166.611 56.1621 166.347 56.1094 166.025C55.9617 165.071 55.6981 164.143 55.3184 163.267C55.2076 163.009 55.3289 162.708 55.582 162.598C55.8352 162.492 56.141 162.603 56.2518 162.861C56.758 164.011 57.7705 164.934 58.957 165.335C59.3262 165.456 59.8377 165.561 60.2016 165.35C60.4758 165.192 60.6604 164.823 60.6814 164.422C60.6973 164.053 60.6023 163.647 60.365 163.109C59.785 161.791 58.8621 160.657 57.6861 159.829C57.4541 159.666 57.4014 159.349 57.5648 159.122C57.7231 158.89 58.0447 158.832 58.2715 159.001C59.6004 159.935 60.6445 161.211 61.2984 162.698C61.4883 163.125 61.7361 163.774 61.6992 164.464C61.6623 165.213 61.2826 165.888 60.7131 166.226C60.1647 166.542 59.4527 166.563 58.6354 166.3C58.0606 166.11 57.5227 165.814 57.0428 165.451C57.0691 165.588 57.0902 165.73 57.1166 165.867C57.1799 166.263 57.2221 166.685 57.1008 167.112C56.8002 168.172 55.677 168.673 55.0705 168.947C54.8016 169.073 54.5115 169.189 54.1846 169.189Z" fill="#153051"/>
<path d="M44.2494 142.986C44.7714 142.833 45.3621 142.685 45.9052 142.791C46.0687 142.77 46.2111 142.817 46.3271 142.933C46.5644 143.033 46.5539 143.081 46.3007 143.081C46.0371 143.249 45.3515 143.213 45.0509 143.244C45.0509 143.582 45.0509 143.924 45.0509 144.262C45.3199 144.23 46.7279 143.982 46.48 144.689C46.3851 144.958 44.724 144.715 44.5447 144.684C43.9066 144.568 43.6271 145.549 44.2757 145.665C45.188 145.828 47.3765 146.145 47.6665 144.847C47.9988 143.35 46.0423 143.118 45.0509 143.244C44.4128 143.323 44.3917 144.331 45.0509 144.262C45.9263 144.172 48.2361 144.104 47.4662 142.601C46.8544 141.404 45.014 141.704 43.9804 142.005C43.3529 142.189 43.6166 143.17 44.2494 142.986Z" fill="#153051"/>
<path d="M184.475 264.85C184.47 264.85 184.465 264.85 184.454 264.85C179.919 264.76 175.711 261.538 174.445 257.182C174.103 255.996 173.944 254.704 173.971 253.232C174.002 250.954 174.477 249.156 175.421 247.732C176.481 246.129 178.189 245.016 180.062 244.658C179.666 243.93 178.917 243.266 178.142 242.575C176.85 241.43 175.389 240.128 175.247 238.177C175.141 236.753 175.827 235.498 176.349 234.68C177.003 233.657 177.72 232.914 178.495 232.444C178.1 232.038 177.641 231.659 177.161 231.268C176.254 230.525 175.315 229.75 174.662 228.663C173.644 226.96 173.602 224.729 174.546 222.989C175.01 222.135 175.7 221.412 176.523 220.896C174.788 219.999 173.375 218.802 172.853 216.946C172.415 215.39 172.8 213.655 173.86 212.432C174.35 211.867 174.967 211.43 175.642 211.14C175.257 210.797 174.883 210.438 174.53 210.048C172.731 208.065 171.84 205.645 172.083 203.398C172.378 200.651 174.493 198.373 177.003 198.093C177.536 198.03 178.063 198.431 178.126 198.995C178.189 199.554 177.783 200.055 177.224 200.118C175.669 200.292 174.298 201.827 174.103 203.62C173.923 205.286 174.63 207.132 176.033 208.682C176.803 209.531 177.752 210.275 178.675 210.992C179.038 211.277 179.165 211.762 178.986 212.184C178.806 212.606 178.395 212.869 177.921 212.801C177.013 212.685 176.006 213.059 175.4 213.761C174.793 214.462 174.561 215.496 174.809 216.392C175.321 218.222 177.488 219.229 179.75 220.052C180.209 220.215 180.483 220.685 180.41 221.165C180.336 221.644 179.93 222.008 179.439 222.024C178.179 222.072 176.929 222.847 176.328 223.954C175.727 225.062 175.758 226.533 176.402 227.619C176.871 228.405 177.636 229.032 178.443 229.697C179.381 230.467 180.357 231.263 181.005 232.413C181.169 232.708 181.18 233.061 181.032 233.367C180.884 233.668 180.594 233.879 180.262 233.926C179.513 234.032 178.775 234.654 178.058 235.777C177.472 236.69 177.224 237.407 177.272 238.034C177.351 239.163 178.39 240.086 179.487 241.056C180.784 242.211 182.261 243.519 182.377 245.491C182.392 245.77 182.297 246.045 182.102 246.25C181.913 246.451 181.644 246.572 181.364 246.572C179.698 246.577 178.031 247.474 177.108 248.861C176.391 249.947 176.027 251.387 175.996 253.269C175.98 254.535 176.106 255.632 176.391 256.623C177.393 260.088 180.874 262.751 184.486 262.825C185.045 262.835 185.493 263.299 185.483 263.864C185.483 264.407 185.029 264.85 184.475 264.85Z" fill="#153051"/>
<path d="M177.209 199.512C177.008 199.512 176.813 199.454 176.634 199.332C174.456 197.845 173.137 196.237 172.6 194.423C172.141 192.872 172.404 190.927 173.464 189.577C173.333 189.471 173.201 189.36 173.079 189.239C172.273 188.427 171.83 187.283 171.898 186.17C171.972 184.989 172.52 183.844 173.449 182.89C172.526 182.21 171.872 181.176 171.703 180.021C171.55 178.966 171.814 177.896 172.378 177.021C172.278 176.957 172.178 176.883 172.077 176.804C171.112 176.04 170.511 174.811 170.506 173.593C170.501 172.301 171.002 171.125 171.587 170.118C171.223 169.965 170.88 169.748 170.564 169.474C169.62 168.652 169.109 167.465 169.203 166.294C169.283 165.24 169.815 164.248 170.617 163.505C170.126 163.362 169.641 163.12 169.24 162.671C168.797 162.176 168.555 161.506 168.481 160.625C168.318 158.437 169.267 156.259 170.833 154.74C170.791 154.73 170.754 154.719 170.717 154.709C170.211 154.566 169.573 154.329 169.119 153.759C168.571 153.074 168.47 152.072 168.84 151.022C169.019 150.521 169.272 150.047 169.588 149.62C168.987 149.551 168.381 149.44 167.78 149.266C165.923 148.713 164.484 147.537 163.84 146.044C163.186 144.531 163.308 142.669 164.194 140.655C165.523 137.644 168.718 134.58 172.589 134.801C173.148 134.844 173.57 135.329 173.533 135.888C173.491 136.447 172.979 136.863 172.447 136.832C169.573 136.642 167.105 139.094 166.06 141.472C165.607 142.506 165.175 143.998 165.712 145.237C166.113 146.166 167.105 146.941 168.37 147.315C169.631 147.695 171.044 147.7 172.415 147.69C172.905 147.69 173.327 148.043 173.417 148.528C173.507 149.013 173.232 149.488 172.774 149.662C171.861 149.999 171.097 150.785 170.77 151.703C170.633 152.088 170.643 152.394 170.722 152.494C170.77 152.552 170.902 152.641 171.276 152.747C172.236 153.016 173.259 153.058 174.229 152.863C174.777 152.742 175.305 153.105 175.421 153.649C175.537 154.192 175.194 154.73 174.656 154.851C172.23 155.41 170.337 157.983 170.522 160.467C170.553 160.879 170.633 161.163 170.764 161.311C170.975 161.548 171.455 161.617 172.014 161.696C172.684 161.791 173.443 161.902 174.113 162.366C174.461 162.608 174.619 163.041 174.519 163.447C174.414 163.858 174.071 164.159 173.649 164.206C172.404 164.354 171.329 165.35 171.244 166.437C171.207 166.954 171.471 167.534 171.919 167.929C172.294 168.251 172.721 168.393 173.111 168.309C173.517 168.23 173.934 168.388 174.171 168.736C174.403 169.079 174.403 169.532 174.171 169.875C173.29 171.183 172.557 172.364 172.563 173.572C172.568 174.168 172.884 174.821 173.364 175.201C173.57 175.365 173.892 175.528 174.24 175.449C174.741 175.328 175.242 175.607 175.421 176.087C175.6 176.567 175.394 177.105 174.946 177.342C174.124 177.78 173.607 178.798 173.744 179.715C173.876 180.633 174.667 181.461 175.579 181.645C175.99 181.724 176.307 182.051 176.381 182.457C176.46 182.869 176.275 183.28 175.922 183.502C174.751 184.24 174.018 185.279 173.955 186.286C173.923 186.808 174.155 187.399 174.545 187.789C174.714 187.958 175.046 188.221 175.5 188.211C176.017 188.19 176.444 188.517 176.549 189.002C176.66 189.487 176.402 189.983 175.943 190.172C174.656 190.7 174.192 192.53 174.577 193.843C174.973 195.193 176.033 196.432 177.804 197.645C178.269 197.961 178.385 198.594 178.073 199.058C177.852 199.353 177.535 199.512 177.209 199.512Z" fill="#153051"/>
<path d="M172.805 136.489C172.731 136.489 172.658 136.478 172.589 136.462C170.216 135.946 168.333 134.975 166.994 133.578C165.317 131.816 164.637 129.338 165.264 127.266C165.628 126.058 166.44 125.061 167.447 124.423C164.711 122.604 162.802 119.45 162.58 116.028C162.501 114.82 162.638 113.797 162.991 112.895C163.777 110.913 165.533 109.716 167.416 108.824C166.298 107.822 165.496 106.467 165.201 104.991C165.143 104.695 164.964 103.793 165.412 103.002C165.85 102.233 166.62 101.932 167.237 101.695C167.469 101.605 167.901 101.436 167.954 101.336C167.922 101.136 167.331 100.672 167.052 100.45L166.635 100.113C164.616 98.3934 164.457 95.6038 164.468 93.1253C164.468 92.6243 164.468 91.8649 164.911 91.2005C165.364 90.5149 166.076 90.2407 166.646 90.0192C166.983 89.8874 167.326 89.7503 167.421 89.6026C167.505 89.4655 167.411 89.0753 167.147 88.7694C166.925 88.511 166.656 88.2948 166.393 88.0786C166.097 87.836 165.807 87.5934 165.544 87.3192C164.262 85.9745 163.825 83.8915 164.447 82.1354C165.074 80.3847 166.736 79.0505 168.581 78.8184C169.119 78.7446 169.646 79.1401 169.72 79.6991C169.789 80.2581 169.393 80.7643 168.84 80.8382C167.753 80.9753 166.736 81.7927 166.366 82.821C165.997 83.8493 166.271 85.1255 167.02 85.9165C167.226 86.1327 167.458 86.3173 167.685 86.5071C168.043 86.8024 168.397 87.0977 168.697 87.4511C169.409 88.2843 169.82 89.6079 169.145 90.6889C168.692 91.4114 167.964 91.6962 167.384 91.9229C167.052 92.0495 166.704 92.1866 166.604 92.3343C166.503 92.4872 166.503 92.8932 166.503 93.1358C166.493 95.1608 166.598 97.4126 167.959 98.5675L168.323 98.8628C169.14 99.5061 170.369 100.487 169.9 101.964C169.573 102.981 168.65 103.34 167.98 103.604C167.679 103.72 167.268 103.878 167.189 104.025C167.173 104.057 167.12 104.189 167.205 104.611C167.505 106.13 168.571 107.469 169.979 108.112C170.348 108.281 170.585 108.656 170.575 109.067C170.564 109.473 170.311 109.837 169.931 109.99C167.78 110.844 165.618 111.83 164.89 113.665C164.647 114.282 164.558 115.021 164.616 115.917C164.848 119.566 167.563 122.957 170.938 123.806C171.482 123.943 171.814 124.492 171.677 125.04C171.54 125.583 170.996 125.905 170.448 125.784C169.203 125.467 167.643 126.469 167.215 127.877C166.794 129.264 167.289 130.962 168.465 132.196C169.52 133.293 171.049 134.068 173.027 134.501C173.575 134.622 173.923 135.16 173.802 135.714C173.691 136.167 173.269 136.489 172.805 136.489Z" fill="#153051"/>
<path d="M168.776 80.2106C168.602 80.2106 168.428 80.1685 168.27 80.0735C166.351 78.9661 164.869 76.9411 164.088 74.373C163.582 72.7171 163.187 70.228 164.162 67.8075C164.79 66.2571 165.955 64.9968 167.337 64.2796C165.607 62.6554 164.51 60.3509 164.421 57.9673C164.31 54.8823 165.897 51.8079 168.471 50.1046C168.318 49.9727 168.122 49.8304 167.996 49.7354L167.78 49.5772C166.303 48.454 165.844 46.2603 166.704 44.4778C167.194 43.4653 168.08 42.6268 169.177 42.0995C168.27 40.8813 167.664 39.4522 167.437 37.9388C167.284 36.9315 167.405 35.4761 168.191 34.4372C168.65 33.8255 169.272 33.4511 169.995 33.3509C168.471 31.9059 168.144 29.3642 169.267 27.529C170.343 25.7677 172.594 24.7763 174.725 25.1296C175.279 25.2192 175.658 25.7413 175.563 26.295C175.474 26.8487 174.946 27.2337 174.398 27.1335C173.08 26.9278 171.645 27.529 171.002 28.589C170.353 29.6542 170.559 31.1835 171.455 31.9323C171.919 32.3173 172.927 33.161 172.457 34.3001C172.062 35.2599 171.044 35.3179 170.554 35.3495L170.279 35.3706C170.169 35.3864 169.995 35.4339 169.821 35.6659C169.494 36.0983 169.346 36.9104 169.451 37.6435C169.694 39.2519 170.48 40.7442 171.672 41.8517C171.956 42.1153 172.067 42.5161 171.951 42.8905C171.84 43.2597 171.529 43.5392 171.144 43.6024C169.968 43.7976 168.972 44.4778 168.539 45.3743C168.107 46.2761 168.318 47.4362 169.014 47.9688L169.204 48.1112C169.863 48.5964 171.234 49.6089 170.469 50.9905C170.242 51.3966 169.9 51.6181 169.668 51.7657C167.616 53.0946 166.366 55.4993 166.456 57.9093C166.54 60.3192 167.964 62.6237 170.074 63.7892C170.469 64.0054 170.675 64.4589 170.575 64.9019C170.48 65.3448 170.105 65.6665 169.652 65.6981C168.149 65.8036 166.699 66.9638 166.045 68.5827C165.454 70.0435 165.454 71.8944 166.034 73.7929C166.662 75.8706 167.817 77.479 169.288 78.328C169.773 78.6075 169.942 79.2298 169.657 79.7149C169.467 80.0261 169.124 80.2106 168.776 80.2106Z" fill="#153051"/>
<path d="M239.425 45.7594C239.103 45.7594 238.781 45.6064 238.581 45.3164C238.264 44.8523 238.386 44.2195 238.85 43.9031C240.485 42.7957 241.323 40.5967 240.848 38.6771C240.374 36.7629 238.597 35.2178 236.635 35.0016C236.224 34.9541 235.876 34.6641 235.765 34.2633C235.654 33.8625 235.796 33.4354 236.129 33.1822C237.605 32.059 238.217 29.9021 237.558 28.1725C236.904 26.4375 235.037 25.2404 233.165 25.3775C232.78 25.4039 232.421 25.2193 232.221 24.8924C232.021 24.5654 232.021 24.1594 232.221 23.8324C232.759 22.9518 232.738 21.7389 232.174 20.874C231.609 20.0092 230.523 19.5029 229.484 19.64C229.126 19.7033 228.799 19.5557 228.572 19.292C228.345 19.0283 228.271 18.6697 228.371 18.3375C228.814 16.8662 229.094 15.6428 229.036 14.4193C228.973 13.1062 228.472 11.983 227.665 11.3344C226.768 10.6225 225.492 10.4379 224.037 10.2797C222.929 10.1584 221.679 10.0213 220.556 10.2797C219.734 10.4695 218.726 11.0021 218.384 11.9197C218.231 12.3311 217.793 12.5631 217.397 12.5842C216.96 12.5684 216.58 12.2783 216.453 11.8564C216.163 10.8756 215.388 10.0318 214.328 9.54668C213.263 9.06152 212.124 9.02461 211.185 9.44648L210.7 9.67851C209.667 10.1848 208.106 10.9494 206.84 9.85781C206.434 9.50976 206.228 9.07734 206.06 8.73457L205.928 8.4709C205.079 6.92578 202.632 6.75176 200.644 7.3793C199.615 7.70625 197.158 8.69238 196.462 10.8545C196.325 11.2816 195.961 11.6086 195.476 11.5611C195.028 11.5506 194.637 11.25 194.516 10.8176C194.347 10.2111 193.888 9.67324 193.261 9.33047C192.639 8.98769 191.937 8.89805 191.341 9.08789C189.712 9.59414 188.852 11.5875 188.167 13.6652C188.024 14.1029 187.613 14.4246 187.138 14.3613C186.68 14.335 186.289 13.9975 186.2 13.5439C186.015 12.6053 185.145 11.8248 184.27 11.8037C183.806 11.7457 183.4 11.9936 183.067 12.3363C182.777 12.6369 182.619 13.0008 182.635 13.3488C182.651 13.6283 182.746 13.9553 182.856 14.3086C183.057 14.9625 183.305 15.7746 183.052 16.6447C182.962 16.9453 182.74 17.1932 182.445 17.3092C182.155 17.4252 181.823 17.3988 181.549 17.2354C179.45 15.9855 176.37 16.5287 174.825 18.4324C173.28 20.3309 173.37 23.458 175.02 25.2615C175.4 25.6781 175.368 26.3215 174.957 26.7012C174.535 27.0809 173.897 27.0492 173.517 26.6379C171.186 24.0855 171.065 19.8299 173.243 17.151C175.025 14.9572 178.163 14.0607 180.863 14.7727C180.742 14.3719 180.62 13.9289 180.599 13.449C180.557 12.5473 180.926 11.6244 181.607 10.923C182.334 10.1742 183.357 9.79453 184.307 9.77871C185.324 9.7998 186.284 10.2533 187.007 10.9705C187.798 9.2039 188.9 7.7168 190.73 7.15254C191.848 6.80449 193.124 6.95215 194.226 7.55332C194.685 7.80117 195.096 8.11758 195.439 8.48144C196.441 7.14199 198.028 6.07676 200.027 5.44394C202.716 4.58965 206.27 4.86387 207.71 7.49531L207.889 7.84863C207.984 8.04375 208.085 8.24941 208.169 8.32324C208.401 8.53418 209.213 8.14394 209.798 7.8539L210.347 7.59551C211.813 6.93105 213.574 6.97324 215.172 7.70097C216.148 8.14922 216.97 8.8084 217.561 9.60996C218.22 8.99297 219.095 8.53418 220.092 8.30215C221.548 7.96465 223.045 8.1334 224.253 8.25996C225.619 8.40762 227.496 8.60801 228.925 9.74707C230.191 10.7596 230.971 12.426 231.061 14.3244C231.119 15.4687 230.934 16.592 230.665 17.6678C231.957 17.9051 233.149 18.6592 233.872 19.7666C234.573 20.8424 234.795 22.1871 234.531 23.4316C236.714 23.8166 238.66 25.3512 239.456 27.4553C240.21 29.4434 239.862 31.732 238.66 33.4459C240.68 34.2686 242.283 36.0457 242.821 38.192C243.506 40.9553 242.346 43.998 239.994 45.5959C239.82 45.7014 239.625 45.7594 239.425 45.7594Z" fill="#153051"/>
<path d="M257.186 111.946C256.838 111.946 256.5 111.767 256.31 111.445C256.025 110.96 256.184 110.338 256.669 110.053C258.42 109.02 259.406 106.741 258.968 104.759C258.53 102.776 256.674 101.125 254.654 100.93C254.206 100.883 253.837 100.55 253.753 100.107C253.668 99.6644 253.879 99.2215 254.28 99.0105C255.161 98.5517 255.677 97.3969 255.435 96.4318C255.192 95.4773 254.201 94.7127 253.215 94.7127C253.199 94.7127 253.183 94.7127 253.172 94.7127C252.719 94.7127 252.318 94.4121 252.197 93.9744C252.07 93.5314 252.255 93.0621 252.65 92.8248C254.296 91.8386 255.002 89.3865 254.227 87.351C253.505 85.4631 251.675 83.8863 249.323 83.1269C248.948 83.0056 248.674 82.6787 248.627 82.2885C248.579 81.8929 248.759 81.5133 249.096 81.3023C251.353 79.8838 252.635 76.957 252.139 74.3414C251.648 71.7258 249.397 69.4582 246.786 68.9519C246.37 68.8728 246.048 68.5406 245.979 68.1187C245.911 67.6968 246.106 67.2802 246.47 67.0693C247.356 66.5525 247.72 65.1603 247.229 64.1425C246.728 63.1142 245.447 62.4761 244.187 62.4392C243.643 62.4129 243.343 62.1703 243.2 61.7484C243.058 61.3265 243.206 60.8625 243.564 60.5988C246.132 58.7109 247.287 55.0142 246.243 52.0031C245.225 49.0552 242.156 46.8931 239.04 46.8931C238.955 46.8931 238.86 46.8984 238.787 46.8984C238.238 46.8984 237.785 46.466 237.769 45.9123C237.753 45.348 238.191 44.8787 238.755 44.8629C242.815 44.7574 246.818 47.4521 248.168 51.3386C249.281 54.5502 248.495 58.2363 246.317 60.7939C247.519 61.2685 248.521 62.1439 249.059 63.2619C249.713 64.6172 249.581 66.2414 248.848 67.4701C251.522 68.6092 253.6 71.0877 254.138 73.967C254.675 76.8199 253.658 79.8521 251.612 81.8824C253.742 82.9635 255.371 84.6615 256.126 86.6285C256.985 88.8855 256.569 91.4431 255.224 93.1992C256.279 93.7687 257.106 94.7549 257.402 95.9361C257.702 97.1226 257.444 98.3988 256.779 99.4008C258.836 100.271 260.471 102.127 260.956 104.321C261.589 107.174 260.218 110.322 257.702 111.804C257.539 111.904 257.36 111.946 257.186 111.946Z" fill="#153051"/>
<path d="M263.999 187.62C263.667 187.62 263.345 187.457 263.15 187.161C262.839 186.692 262.971 186.059 263.44 185.753C264.431 185.099 265.048 183.913 265.011 182.732C264.974 181.55 264.294 180.401 263.266 179.805C262.913 179.599 262.717 179.209 262.765 178.803C262.812 178.397 263.097 178.065 263.487 177.949C264.379 177.69 264.827 176.488 264.637 175.591C264.426 174.595 263.614 173.651 262.412 173.002C262.058 172.812 261.853 172.438 261.879 172.037C261.905 171.642 262.164 171.294 262.538 171.156C264.384 170.466 265.702 168.53 265.671 166.558C265.639 164.586 264.263 162.698 262.39 162.065C262.058 161.954 261.805 161.675 261.726 161.332C261.647 160.989 261.752 160.631 262 160.378C263.145 159.244 263.735 157.551 263.614 155.737C263.493 153.923 262.686 152.32 261.399 151.344C261.104 151.123 260.956 150.759 261.004 150.39C261.051 150.026 261.299 149.715 261.642 149.583C263.366 148.913 264.553 147.015 264.4 145.174C264.247 143.334 262.77 141.652 260.961 141.272C260.513 141.177 260.181 140.792 260.154 140.333C260.128 139.874 260.413 139.453 260.845 139.31C262.011 138.915 262.786 137.438 262.564 136.009C262.359 134.664 261.404 133.341 259.938 132.37C259.632 132.17 259.458 131.822 259.485 131.453C259.511 131.089 259.727 130.767 260.054 130.604C261.684 129.813 263.018 128.125 263.614 126.09C264.131 124.323 264.162 122.224 263.704 119.867C263.266 117.61 262.533 115.886 261.478 114.599C260.26 113.106 258.462 112.178 256.874 112.289C256.342 112.268 255.841 111.872 255.814 111.314C255.793 110.749 256.231 110.28 256.79 110.254C259.068 110.19 261.41 111.303 263.05 113.307C264.326 114.863 265.196 116.882 265.702 119.477C266.224 122.156 266.177 124.576 265.565 126.659C264.964 128.716 263.793 130.456 262.269 131.616C263.53 132.782 264.352 134.216 264.579 135.693C264.827 137.301 264.299 138.92 263.292 140.033C265.027 141.082 266.256 142.949 266.425 145C266.609 147.236 265.518 149.456 263.719 150.743C264.832 152.035 265.512 153.733 265.639 155.589C265.765 157.477 265.291 159.286 264.326 160.726C266.303 161.938 267.664 164.185 267.701 166.511C267.732 168.715 266.583 170.888 264.811 172.195C265.755 173.034 266.388 174.062 266.625 175.154C266.936 176.599 266.462 178.075 265.512 179.014C266.43 180 266.999 181.313 267.036 182.653C267.089 184.525 266.113 186.402 264.547 187.43C264.384 187.567 264.189 187.62 263.999 187.62Z" fill="#153051"/>
<path d="M265.386 262.751C265.085 262.751 264.785 262.614 264.584 262.355C264.236 261.912 264.321 261.274 264.764 260.926C266.187 259.819 267.015 257.941 266.873 256.143C266.725 254.345 265.613 252.62 264.036 251.756C263.682 251.561 263.477 251.181 263.508 250.78C263.54 250.379 263.809 250.036 264.189 249.905C265.212 249.546 265.998 248.497 266.045 247.41C266.092 246.324 265.407 245.211 264.421 244.763C264.025 244.584 263.783 244.172 263.825 243.74C263.867 243.308 264.178 242.949 264.6 242.849C265.628 242.606 266.451 241.583 266.467 240.523C266.483 239.463 265.692 238.424 264.674 238.145C264.252 238.034 263.946 237.66 263.925 237.222C263.899 236.784 264.157 236.378 264.563 236.215C265.37 235.893 265.976 235.16 266.071 234.39C266.161 233.641 265.707 232.845 265.064 232.618C264.711 232.497 264.458 232.191 264.4 231.822C264.342 231.453 264.484 231.084 264.779 230.852C266.298 229.676 267.221 228.199 267.316 226.791C267.411 225.436 266.477 223.812 265.101 223.664C264.642 223.617 264.278 223.269 264.205 222.815C264.131 222.361 264.368 221.918 264.785 221.723C266.124 221.112 267.079 219.661 267.116 218.195C267.152 216.724 266.266 215.232 264.959 214.557C264.616 214.377 264.405 214.024 264.41 213.639C264.415 213.254 264.637 212.906 264.985 212.737C266.831 211.836 268.065 209.774 267.986 207.717C267.907 205.666 266.514 203.704 264.605 202.95C264.236 202.802 263.983 202.454 263.962 202.053C263.941 201.653 264.157 201.278 264.516 201.099C266.061 200.313 267.247 198.647 267.611 196.754C267.949 194.992 267.638 192.999 266.725 191.143C266.071 189.809 264.795 188.501 263.577 188.738C263.034 188.859 262.491 188.501 262.375 187.947C262.259 187.399 262.612 186.855 263.166 186.745C265.639 186.233 267.611 188.311 268.56 190.241C269.668 192.498 270.042 194.95 269.62 197.139C269.251 199.042 268.276 200.73 266.915 201.916C268.724 203.235 269.942 205.397 270.032 207.638C270.121 209.937 269.019 212.242 267.242 213.697C268.471 214.857 269.209 216.54 269.167 218.243C269.13 219.809 268.434 221.323 267.321 222.419C268.708 223.443 269.478 225.272 269.362 226.928C269.251 228.568 268.45 230.171 267.079 231.553C267.838 232.344 268.255 233.483 268.112 234.627C268.007 235.54 267.564 236.394 266.905 237.064C267.912 237.918 268.55 239.21 268.529 240.544C268.508 241.889 267.822 243.165 266.783 243.993C267.653 244.932 268.165 246.208 268.102 247.5C268.044 248.824 267.395 250.079 266.404 250.938C267.843 252.22 268.771 254.044 268.924 255.985C269.125 258.49 268.017 261 266.034 262.535C265.824 262.677 265.602 262.751 265.386 262.751Z" fill="#153051"/>
<path d="M230.291 26.0683C230.802 25.773 231.383 25.7413 231.82 26.1896C232.058 26.4374 232.427 27.2495 231.894 27.4025C230.634 27.7558 231.172 29.7228 232.437 29.3642C234.151 28.8843 234.599 26.8382 233.756 25.3986C232.817 23.8007 230.824 23.4052 229.263 24.307C228.129 24.9661 229.152 26.7275 230.291 26.0683Z" fill="#153051"/>
<path d="M250.108 110.992C252.181 109.51 255.493 110.596 256.131 113.075C256.801 115.69 255.139 117.051 252.772 117.457C251.485 117.679 252.028 119.64 253.315 119.419C257.054 118.781 259.21 115.812 257.95 112.047C256.811 108.635 252.017 107.132 249.08 109.231C248.02 109.99 249.038 111.756 250.108 110.992Z" fill="#153051"/>
<path d="M252.402 119.44C254.164 119.471 255.155 121.006 255.145 122.651C255.134 124.381 253.805 124.829 252.387 125.235C251.132 125.599 251.664 127.561 252.93 127.197C255.477 126.464 257.396 125.093 257.159 122.177C256.943 119.561 255.102 117.446 252.402 117.399C251.089 117.383 251.089 119.419 252.402 119.44Z" fill="#153051"/>
<path d="M173.28 134.965C171.118 136.494 170.058 139.094 171.355 141.593C172.863 144.499 176.275 144.8 179.186 144.473C179.017 143.84 178.843 143.207 178.675 142.574C177.172 143.429 176.28 145.032 176.465 146.793C176.723 149.319 178.511 149.14 180.388 149.91C181.601 150.405 182.129 148.438 180.932 147.948C179.418 147.331 177.33 145.686 179.703 144.33C180.526 143.861 180.23 142.316 179.191 142.432C177.847 142.585 176.328 142.754 175.057 142.195C172.731 141.172 172.009 138.345 174.313 136.716C175.368 135.972 174.35 134.205 173.28 134.965Z" fill="#153051"/>
<path d="M197.369 27.1073C197.337 27.1073 197.311 27.1073 197.279 27.1073C196.478 27.0968 195.692 26.9439 194.948 26.6485C194.637 26.5273 194.179 26.3269 193.82 25.963C193.504 25.6413 193.277 25.2194 193.124 24.6763C192.686 23.0784 193.161 21.4226 193.625 20.1569C194.031 19.0442 194.521 17.9579 194.996 16.9085C195.133 16.6079 195.281 16.281 195.539 16.0067C195.734 15.8011 196.056 15.7958 196.256 15.9804C196.462 16.1755 196.472 16.4972 196.283 16.6976C196.135 16.8505 196.035 17.0773 195.924 17.3198C195.455 18.3587 194.97 19.4292 194.579 20.505C194.168 21.6282 193.746 23.0784 194.11 24.4021C194.215 24.7765 194.358 25.056 194.548 25.2458C194.716 25.4198 194.959 25.5622 195.323 25.6993C195.945 25.9419 196.631 26.079 197.3 26.0843C197.522 26.0948 197.833 26.079 198.023 25.9524C198.271 25.789 198.403 25.4093 198.519 25.0401C199.162 22.9413 199.842 20.1886 199.415 17.4886C199.373 17.2249 199.542 16.9718 199.805 16.9138C200.064 16.8663 200.333 17.0087 200.406 17.2671C201.092 19.561 202.542 21.586 204.488 22.9677C204.657 23.089 204.847 23.2103 204.989 23.2103C204.989 23.2103 204.994 23.2103 205 23.2103C205.131 23.205 205.284 23.0732 205.363 22.8939C205.469 22.6513 205.469 22.3401 205.458 22.0606C205.395 20.4628 204.894 18.9124 204.008 17.5782C203.998 17.5677 203.992 17.5519 203.982 17.5413C203.982 17.5413 203.982 17.5413 203.982 17.536C203.977 17.5308 203.977 17.5255 203.971 17.5255C203.829 17.2935 203.887 16.9823 204.114 16.8294C204.346 16.6712 204.657 16.7239 204.815 16.956C204.831 16.9771 204.841 16.9982 204.857 17.014C206.318 19.1919 207.81 21.4278 209.435 23.5003C209.883 24.0751 210.331 24.6183 210.906 24.961C211.47 25.2933 212.124 25.3618 212.572 25.1192C213.094 24.8398 213.321 24.2069 213.363 23.706C213.416 23.0521 213.237 22.3771 213.047 21.739C211.876 17.7997 210.231 14.8993 208.011 12.8743L207.452 12.3839C207.246 12.194 207.236 11.8724 207.425 11.6667C207.615 11.461 207.937 11.4505 208.143 11.6403L208.686 12.1255C211.043 14.2823 212.783 17.3304 214.007 21.4489C214.218 22.145 214.428 22.9571 214.36 23.7903C214.276 24.7659 213.769 25.6202 213.036 26.0105C212.272 26.4218 211.254 26.3532 210.368 25.8312C209.64 25.3987 209.102 24.7501 208.612 24.1226C207.837 23.1312 207.093 22.1134 206.376 21.0798C206.418 21.3856 206.445 21.6968 206.455 22.0079C206.471 22.3982 206.466 22.8569 206.276 23.2894C206.033 23.8378 205.543 24.2017 205.01 24.2175C204.572 24.1858 204.203 24.0171 203.882 23.7851C202.511 22.8148 201.371 21.5491 200.528 20.1042C200.412 22.0237 199.937 23.8378 199.484 25.3302C199.32 25.8575 199.104 26.4534 198.571 26.8015C198.181 27.0651 197.733 27.1073 197.369 27.1073Z" fill="#153051"/>
<path d="M189.374 205.365C189.253 205.365 189.132 205.355 189.016 205.339C187.719 205.123 186.943 203.831 186.843 202.665C186.796 202.069 186.875 201.495 187.017 200.946C185.899 201.326 184.544 201.152 183.484 200.941C183.067 200.862 182.598 200.767 182.16 200.514C181.116 199.913 180.605 198.615 180.689 196.759C180.784 194.734 181.248 193.126 182.102 191.86C183.189 190.257 185.013 189.287 186.664 189.418C186.943 189.434 187.154 189.682 187.133 189.962C187.112 190.246 186.875 190.505 186.59 190.431C185.24 190.352 183.827 191.122 182.941 192.43C182.192 193.537 181.786 194.971 181.702 196.807C181.654 197.814 181.786 199.127 182.661 199.633C182.951 199.802 183.32 199.876 183.674 199.944C185.071 200.218 186.775 200.403 187.56 199.369C187.713 199.169 187.987 199.106 188.214 199.232C188.436 199.354 188.531 199.617 188.446 199.855C188.13 200.704 187.777 201.663 187.85 202.576C187.914 203.33 188.399 204.2 189.174 204.332C189.649 204.4 190.208 204.195 190.666 203.757C191.125 203.319 191.457 202.723 191.774 202.143C191.911 201.901 192.217 201.806 192.465 201.943C192.707 202.08 192.797 202.386 192.665 202.634C192.328 203.251 191.937 203.952 191.368 204.495C190.788 205.054 190.06 205.365 189.374 205.365Z" fill="#153051"/>
<path d="M245.204 166.395C244.566 166.395 243.939 166.173 243.485 165.735C243.285 165.54 243.279 165.219 243.475 165.018C243.67 164.818 243.991 164.813 244.192 165.008C244.714 165.509 245.689 165.503 246.312 164.992C246.918 164.491 247.208 163.589 247.061 162.693C246.923 161.88 246.475 161.2 246.037 160.704C245.911 160.588 245.79 160.462 245.674 160.325C245.5 160.119 245.521 159.813 245.716 159.629C245.911 159.444 246.222 159.444 246.417 159.634C246.528 159.739 246.639 159.855 246.755 159.982C247.968 161.037 249.977 160.937 251.285 160.167C251.743 159.898 252.36 159.428 252.671 158.743C253.014 157.983 252.946 156.997 252.492 156.101C252.112 155.352 251.49 154.656 250.53 153.907C249.228 152.884 247.767 152.098 246.201 151.566C245.932 151.476 245.79 151.186 245.885 150.922C245.974 150.653 246.27 150.511 246.528 150.606C248.205 151.175 249.766 152.019 251.158 153.111C252.239 153.96 252.951 154.767 253.399 155.647C253.99 156.813 254.069 158.131 253.6 159.17C253.267 159.908 252.645 160.557 251.807 161.053C250.673 161.717 249.165 161.981 247.825 161.643C247.936 161.923 248.026 162.218 248.073 162.529C248.284 163.779 247.852 165.055 246.971 165.783C246.459 166.189 245.821 166.395 245.204 166.395Z" fill="#153051"/>
<path d="M211.686 145.485C211.417 145.485 211.138 145.438 210.874 145.338C210.231 145.095 209.735 144.594 209.551 143.998C209.466 143.729 209.614 143.445 209.883 143.36C210.162 143.276 210.442 143.424 210.521 143.693C210.616 143.993 210.879 144.251 211.233 144.383C211.581 144.515 211.95 144.494 212.219 144.325C212.662 144.051 212.931 143.439 212.904 142.759C212.878 142.105 212.63 141.462 212.372 140.834C212.351 140.787 212.33 140.734 212.309 140.687C212.214 140.428 212.34 140.138 212.599 140.033C212.862 139.933 213.152 140.059 213.258 140.312C213.274 140.354 213.289 140.391 213.305 140.434C213.595 141.077 214.27 141.573 215.061 141.715C215.821 141.842 216.696 141.678 217.529 141.235C217.74 141.124 217.999 140.961 218.099 140.755C218.209 140.528 218.146 140.191 218.078 139.89C217.745 138.514 217.076 137.222 216.148 136.151C215.963 135.941 215.984 135.619 216.195 135.434C216.406 135.25 216.728 135.271 216.912 135.482C217.951 136.674 218.695 138.113 219.069 139.648C219.18 140.122 219.264 140.676 219.016 141.193C218.784 141.668 218.357 141.942 218.014 142.132C216.981 142.685 215.868 142.896 214.882 142.717C214.534 142.654 214.196 142.538 213.891 142.385C213.906 142.495 213.917 142.606 213.917 142.717C213.959 143.772 213.511 144.721 212.746 145.19C212.44 145.385 212.066 145.485 211.686 145.485Z" fill="#153051"/>
<path d="M214.85 185.173C213.949 185.173 213.068 184.625 212.672 183.813C212.388 183.217 212.372 182.611 212.446 182.004C211.818 182.858 211.059 183.565 210.057 183.924C209.113 184.261 208.111 184.208 207.23 184.177C206.655 184.15 205.875 184.114 205.269 183.634C204.752 183.222 204.52 182.595 204.372 182.094C203.813 180.164 203.818 178.049 204.398 176.124C204.504 175.776 204.815 175.375 205.216 175.302C205.485 175.249 205.738 175.36 205.901 175.571C206.07 175.797 206.028 176.114 205.806 176.282C205.685 176.377 205.532 176.404 205.385 176.372C205.379 176.383 205.374 176.398 205.369 176.409C204.847 178.149 204.836 180.064 205.342 181.804C205.453 182.183 205.601 182.605 205.896 182.837C206.212 183.09 206.703 183.133 207.262 183.159C208.053 183.191 208.944 183.238 209.704 182.964C211.112 182.463 211.961 181.018 212.773 179.452C212.878 179.251 213.105 179.151 213.326 179.188C213.548 179.236 213.711 179.425 213.732 179.652C213.775 180.232 213.669 180.802 213.569 181.356C213.432 182.099 213.305 182.8 213.579 183.375C213.812 183.855 214.37 184.203 214.903 184.161C215.436 184.135 215.953 183.75 216.137 183.249C216.232 182.98 216.533 182.853 216.786 182.943C217.055 183.038 217.192 183.328 217.092 183.591C216.775 184.477 215.895 185.131 214.951 185.179C214.924 185.173 214.887 185.173 214.85 185.173Z" fill="#153051"/>
<path d="M239.288 218.201C238.802 218.201 238.301 218.027 237.901 217.7C237.241 217.157 236.983 216.376 236.883 215.812C236.835 215.538 237.015 215.269 237.294 215.221C237.589 215.158 237.837 215.359 237.885 215.633C237.985 216.192 238.222 216.651 238.549 216.914C238.887 217.199 239.372 217.268 239.688 217.094C240.005 216.92 240.205 216.492 240.2 216.013C240.2 215.506 240.01 214.995 239.815 214.452L238.776 211.657C238.681 211.398 238.808 211.108 239.066 211.003C239.33 210.908 239.614 211.029 239.72 211.288C240.279 212.648 241.239 213.877 242.431 214.736C242.921 215.09 243.322 215.285 243.701 215.343C244.872 215.533 245.985 214.399 246.206 213.255C246.417 212.158 246.09 210.876 245.231 209.452C244.925 208.946 244.582 208.466 244.239 207.981C243.738 207.274 243.227 206.547 242.815 205.75C242.689 205.503 242.784 205.191 243.037 205.065C243.28 204.938 243.591 205.033 243.723 205.286C244.102 206.019 244.572 206.689 245.073 207.396C245.426 207.897 245.784 208.403 246.101 208.93C247.092 210.576 247.467 212.094 247.203 213.45C246.887 215.09 245.347 216.629 243.538 216.35C242.826 216.234 242.22 215.844 241.835 215.559C241.56 215.359 241.297 215.148 241.049 214.921C241.149 215.269 241.218 215.628 241.218 216.007C241.218 216.862 240.822 217.621 240.184 217.979C239.915 218.127 239.609 218.201 239.288 218.201Z" fill="#153051"/>
<path d="M27.2636 135.571C25.0066 138.757 25.4443 143.207 28.814 145.475C31.9042 147.558 37.0669 147.168 38.8915 143.587C40.6265 140.186 39.8144 135.434 36.2759 133.652C33.3017 132.149 28.4765 132.08 27.1792 135.74C26.9578 136.357 27.9439 136.626 28.1601 136.009C29.4152 132.46 35.0841 133.467 37.1988 135.503C39.1869 137.417 39.1552 141.731 37.4835 143.84C35.4691 146.382 31.1818 146.234 28.8457 144.215C26.346 142.052 26.3355 138.641 28.1496 136.083C28.5187 135.55 27.638 135.044 27.2636 135.571Z" fill="#153051"/>
<path d="M29.4891 133.578C29.3098 133.109 29.1357 132.634 28.8773 132.201C28.6295 131.78 28.2604 131.437 28.0547 130.994C27.7805 130.398 26.9051 130.915 27.174 131.505C27.5537 132.333 28.1654 132.966 28.5029 133.847C28.7402 134.459 29.7211 134.195 29.4891 133.578Z" fill="#153051"/>
<path d="M27.7858 134.944C26.9736 134.385 26.1563 133.826 25.3441 133.267C24.801 132.898 24.2947 133.778 24.8326 134.147C25.6447 134.706 26.4621 135.265 27.2742 135.824C27.8121 136.194 28.3236 135.308 27.7858 134.944Z" fill="#153051"/>
<path d="M26.3197 137.665C25.3441 137.449 24.379 137.19 23.4298 136.879C22.8076 136.679 22.5386 137.66 23.1609 137.86C24.1154 138.166 25.0751 138.429 26.0507 138.646C26.6888 138.788 26.963 137.807 26.3197 137.665Z" fill="#153051"/>
<path d="M48.8267 133.641C46.6646 143.107 61.1877 146.772 63.4711 137.116C64.4519 132.961 61.9787 128.695 57.7652 127.661C53.2828 126.564 49.9711 129.465 48.8267 133.641C48.6527 134.274 49.6336 134.543 49.8076 133.91C50.7462 130.498 53.2933 127.814 57.1377 128.552C60.9451 129.285 63.3867 133.087 62.4902 136.842C61.5884 140.634 58.5246 142.569 54.6908 141.63C51.0205 140.729 48.948 137.675 49.8076 133.91C49.95 133.272 48.9691 133.003 48.8267 133.641Z" fill="#153051"/>
<path d="M59.4844 128.753C60.0222 128.03 60.7394 127.34 60.8555 126.422C60.9346 125.773 59.9168 125.779 59.8377 126.422C59.7638 127.013 58.9517 127.783 58.609 128.241C58.2135 128.763 59.0941 129.27 59.4844 128.753Z" fill="#153051"/>
<path d="M61.3089 130.609C61.7519 130.414 62.2529 130.256 62.6431 129.966C63.1546 129.591 63.566 128.937 63.972 128.457C64.3939 127.962 63.6767 127.239 63.2548 127.74C62.8804 128.183 62.5113 128.742 62.0578 129.101C61.6939 129.391 61.2193 129.544 60.7921 129.734C60.1962 129.992 60.713 130.867 61.3089 130.609Z" fill="#153051"/>
<path d="M62.8698 133.161C64.3886 133.283 65.206 132.444 66.3503 131.611C66.8724 131.231 66.3661 130.345 65.8388 130.73C64.8685 131.437 64.1724 132.244 62.8698 132.144C62.2159 132.091 62.2212 133.109 62.8698 133.161Z" fill="#153051"/>
</g>
<defs>
<clipPath id="clidadasp0">
<rect y="5.00098" width="270" height="259.933" fill="white"/>
</clipPath>
</defs>
</svg>
