<svg width="24" height="24" viewBox="0 0 24 24" fill="none" xmlns="http://www.w3.org/2000/svg">
<path d="M12.1524 11.8387C11.9575 11.6429 11.9583 11.3261 12.1544 11.1313C12.3504 10.9365 12.6674 10.9374 12.8623 11.1333C14.1609 12.4379 14.1592 14.5461 12.8585 15.8485L10.688 18.0219C9.39329 19.3183 7.29384 19.3271 5.98827 18.0415C4.68385 16.7567 4.66883 14.6591 5.95439 13.3561L8.14053 11.1403C8.33463 10.9435 8.65159 10.9413 8.84849 11.1352C9.04539 11.3292 9.04765 11.6459 8.85355 11.8426L6.66742 14.0584C5.77005 14.968 5.78053 16.4321 6.69084 17.3288C7.60452 18.2285 9.07342 18.2223 9.9793 17.3152L12.1497 15.1419C13.0609 14.2295 13.0622 12.7526 12.1524 11.8387ZM11.6888 12.1447C11.8838 12.3405 11.8829 12.6572 11.6869 12.852C11.4909 13.0469 11.1739 13.046 10.9789 12.8501C9.68009 11.5453 9.68043 9.43712 10.9797 8.13269L13.0709 6.03317C14.4197 4.67901 16.6051 4.65265 17.9862 5.97389C18.0319 6.01756 18.0762 6.06253 18.1193 6.10876C19.3559 7.43654 19.2812 9.51459 17.9523 10.7502L15.6853 12.8581C15.4829 13.0463 15.1661 13.0349 14.9778 12.8327C14.7894 12.6305 14.8008 12.314 15.0032 12.1258L17.2702 10.0179C18.1943 9.15863 18.2463 7.71359 17.3863 6.79027C17.3564 6.75813 17.3255 6.72685 17.2938 6.69649C16.3066 5.75214 14.7446 5.77098 13.7806 6.73886L11.6894 8.83838C10.7788 9.75261 10.7785 11.2301 11.6888 12.1447Z" fill="#4D627C"/>
</svg>
