<svg width="24" height="24" viewBox="0 0 24 24" fill="none" xmlns="http://www.w3.org/2000/svg">
<path d="M6.34002 17.685L6.33997 17.685C5.23282 16.5945 5.22006 14.8135 6.31149 13.7072L8.49762 11.4914C8.49733 11.4911 8.49718 11.491 8.49716 11.491C8.49712 11.491 8.49731 11.4911 8.49766 11.4913C8.49773 11.4913 8.49776 11.4913 8.49776 11.4913C8.49776 11.4913 8.49751 11.4912 8.49704 11.4912C8.49662 11.4912 8.49637 11.4913 8.49632 11.4913C8.49634 11.4913 8.49637 11.4913 8.49642 11.4913C8.49673 11.4911 8.49692 11.491 8.49692 11.491C8.49692 11.491 8.49678 11.4911 8.49646 11.4914L6.31032 13.7073C5.21886 14.8135 5.23153 16.5943 6.33909 17.6853L6.34002 17.685ZM6.34002 17.685C7.44945 18.7775 9.23301 18.7701 10.3331 17.6686L12.5035 15.4952C13.6095 14.3878 13.6109 12.5952 12.5068 11.486L12.5068 11.486M6.34002 17.685L12.5068 11.486M11.3345 12.4974L11.3345 12.4974C10.2299 11.3878 10.2302 9.59481 11.3351 8.48553L13.4263 6.38601C14.5825 5.22525 16.4556 5.20267 17.6394 6.33519C17.6781 6.3722 17.7157 6.41032 17.7522 6.4495C18.8005 7.57503 18.7371 9.33667 17.6107 10.384L15.3437 12.4919L15.3436 12.4919C15.3437 12.492 15.3438 12.4921 15.3438 12.4921C15.3439 12.4921 15.344 12.4921 15.3442 12.4922C15.3444 12.4922 15.3445 12.4922 15.3446 12.4921C15.3447 12.4921 15.3447 12.492 15.3448 12.492L17.6118 10.384C18.7384 9.33655 18.8017 7.5751 17.7534 6.44953C17.7169 6.41034 17.6793 6.37221 17.6406 6.33519C16.4562 5.20212 14.5818 5.22473 13.4251 6.38602L11.3339 8.48554C10.229 9.59491 10.2287 11.3877 11.3333 12.4974C11.3334 12.4975 11.3334 12.4975 11.3335 12.4976L11.3345 12.4974ZM11.3345 12.4974C11.3344 12.4975 11.3343 12.4975 11.3343 12.4976L11.3345 12.4974ZM12.5068 11.486C12.5071 11.4857 12.5073 11.4856 12.5073 11.4856M12.5068 11.486L12.5073 11.4856M12.5073 11.4856C12.5073 11.4856 12.5071 11.4857 12.5068 11.4858M12.5073 11.4856L12.5068 11.4858M12.5068 11.4858C12.5067 11.4859 12.5067 11.4859 12.5067 11.4859M12.5068 11.4858L12.5067 11.4859M12.5067 11.4859C12.5067 11.4859 12.5069 11.4858 12.5074 11.4858M12.5067 11.4859L12.5074 11.4858M12.5074 11.4858C12.5078 11.4858 12.5081 11.4859 12.5081 11.4859M12.5074 11.4858L12.5081 11.4859M12.5081 11.4859C12.5081 11.4859 12.5081 11.4859 12.508 11.4858M12.5081 11.4859L12.508 11.4858M12.508 11.4858C12.5074 11.4856 12.5073 11.4853 12.508 11.486M12.508 11.4858L12.508 11.486M12.508 11.486C13.6122 12.5953 13.6107 14.3877 12.5047 15.4952M12.508 11.486L12.5047 15.4952M12.5047 15.4952L10.3343 17.6685M12.5047 15.4952L10.3343 17.6685M10.3343 17.6685C9.23368 18.7706 7.44893 18.7781 6.33914 17.6853L10.3343 17.6685ZM15.3435 12.4921C15.3435 12.4921 15.3435 12.4921 15.3435 12.4921L15.3435 12.4921Z" fill="#1436E5" stroke="#4D627C"/>
</svg>
