<svg width="110" height="29" viewBox="0 0 110 29" fill="none" xmlns="http://www.w3.org/2000/svg">
<path d="M24.1613 4.15376L24.1644 13.5507C24.1644 14.1301 24.1644 14.0044 24.1644 14.2343C24.1644 19.802 19.6775 24.318 14.1459 24.318C8.61425 24.318 4.12741 19.802 4.12741 14.2343C4.12741 8.66366 8.61425 4.1507 14.1459 4.1507C16.3482 4.1507 18.386 4.86811 20.04 6.07913V1.29024C18.2428 0.462458 16.2477 -0.000488281 14.1429 -0.000488281C6.33276 -0.000488281 0 6.37345 0 14.2374C0 22.0983 6.33276 28.4722 14.1429 28.4722C21.9529 28.4722 28.2857 22.0983 28.2857 14.2374C28.2888 10.3008 26.7231 6.72909 24.1613 4.15376Z" fill="#F0F5FB"/>
<path d="M14.4048 8.43604C11.0769 8.43604 8.38098 11.1498 8.38098 14.4997C8.38098 17.8496 11.0769 20.5633 14.4048 20.5633C17.7327 20.5633 20.4286 17.8496 20.4286 14.4997C20.4286 11.1498 17.7327 8.43604 14.4048 8.43604Z" fill="#F0F5FB"/>
<path d="M108.43 1.0542C108.692 1.0542 108.951 1.12164 109.202 1.25944C109.455 1.39431 109.65 1.59076 109.79 1.84291C109.93 2.09506 110 2.36187 110 2.63748C110 2.91016 109.93 3.17111 109.793 3.42326C109.656 3.67541 109.461 3.86893 109.214 4.00966C108.963 4.14747 108.704 4.21784 108.43 4.21784C108.156 4.21784 107.897 4.14747 107.646 4.00966C107.396 3.87186 107.204 3.67541 107.064 3.42326C106.924 3.17111 106.857 2.91016 106.857 2.63748C106.857 2.36187 106.927 2.09799 107.07 1.84291C107.21 1.58782 107.408 1.39431 107.658 1.25944C107.909 1.12164 108.165 1.0542 108.43 1.0542ZM108.43 1.31808C108.209 1.31808 107.993 1.37379 107.786 1.48814C107.577 1.60248 107.413 1.76375 107.297 1.97778C107.178 2.18889 107.119 2.40879 107.119 2.63748C107.119 2.86618 107.178 3.08315 107.294 3.29132C107.411 3.49949 107.574 3.66369 107.78 3.78097C107.987 3.89825 108.206 3.95689 108.433 3.95689C108.66 3.95689 108.876 3.89825 109.085 3.78097C109.292 3.66369 109.455 3.50243 109.572 3.29132C109.685 3.08315 109.744 2.86325 109.744 2.63748C109.744 2.40879 109.685 2.18889 109.569 1.97778C109.452 1.76668 109.289 1.60248 109.08 1.48814C108.861 1.37379 108.648 1.31808 108.43 1.31808ZM107.74 3.51122V1.81066H108.322C108.52 1.81066 108.663 1.82532 108.753 1.85757C108.841 1.88982 108.914 1.9426 108.966 2.02176C109.018 2.10093 109.045 2.18302 109.045 2.27098C109.045 2.39413 109.001 2.50261 108.911 2.59644C108.823 2.68733 108.707 2.7401 108.561 2.75183C108.619 2.77822 108.669 2.80754 108.704 2.84272C108.771 2.91016 108.855 3.02158 108.954 3.1799L109.161 3.51415H108.829L108.678 3.24441C108.561 3.0333 108.465 2.90136 108.392 2.84859C108.343 2.81047 108.27 2.78995 108.174 2.78995H108.013V3.51415H107.74V3.51122ZM108.013 2.55246H108.346C108.503 2.55246 108.611 2.529 108.669 2.48209C108.727 2.43517 108.756 2.37067 108.756 2.29444C108.756 2.24459 108.742 2.19768 108.715 2.15957C108.686 2.11852 108.648 2.0892 108.599 2.07161C108.549 2.05108 108.459 2.04229 108.325 2.04229H108.016V2.55246H108.013Z" fill="#F0F5FB"/>
<path d="M34.2928 18.9742H33V18.4541H36.1429V18.9742H34.8443V23.1996H34.2899V18.9742H34.2928Z" fill="#F0F5FB"/>
<path d="M36.6696 18.4541H37.2287V20.4779H37.2403C37.3301 20.3102 37.4692 20.1578 37.6401 20.0573C37.8053 19.9567 38.0023 19.8957 38.2109 19.8957C38.6252 19.8957 39.2857 20.1639 39.2857 21.2733V23.1996H38.7266V21.3404C38.7266 20.8192 38.5412 20.3834 38.0139 20.3834C37.6517 20.3834 37.3736 20.6516 37.2635 20.9655C37.2316 21.0539 37.2258 21.1392 37.2258 21.2459V23.1965H36.6667V18.4541H36.6696Z" fill="#F0F5FB"/>
<path d="M40.8476 21.7161C40.8588 22.462 41.32 22.7677 41.865 22.7677C42.2508 22.7677 42.4912 22.6992 42.6868 22.6106L42.7847 23.005C42.5946 23.0935 42.2648 23.1993 41.7924 23.1993C40.8784 23.1993 40.3333 22.5791 40.3333 21.6646C40.3333 20.7501 40.8616 20.0356 41.7253 20.0356C42.7008 20.0356 42.9524 20.9016 42.9524 21.4589C42.9524 21.5703 42.9468 21.6532 42.9328 21.7161H40.8476ZM42.4269 21.3188C42.4325 20.973 42.2871 20.43 41.6806 20.43C41.1299 20.43 40.8951 20.9387 40.8532 21.3188H42.4269Z" fill="#F0F5FB"/>
<path d="M45.0476 18.4541H45.5714V23.1996H45.0476V18.4541Z" fill="#F0F5FB"/>
<path d="M47.1333 21.7161C47.1445 22.462 47.6057 22.7677 48.1508 22.7677C48.5365 22.7677 48.7769 22.6992 48.9725 22.6106L49.0704 23.005C48.8803 23.0935 48.5505 23.1993 48.0781 23.1993C47.1641 23.1993 46.619 22.5791 46.619 21.6646C46.619 20.7501 47.1473 20.0356 48.011 20.0356C48.9865 20.0356 49.2381 20.9016 49.2381 21.4589C49.2381 21.5703 49.2325 21.6532 49.2185 21.7161H47.1333ZM48.7154 21.3188C48.721 20.973 48.5756 20.43 47.9691 20.43C47.4184 20.43 47.1836 20.9387 47.1417 21.3188H48.7154Z" fill="#F0F5FB"/>
<path d="M52.3345 22.4048C52.3345 22.6677 52.3469 22.9249 52.3809 23.1307H51.8447L51.7983 22.7477H51.7766C51.5937 22.9849 51.2403 23.1993 50.7692 23.1993C50.1028 23.1993 49.7619 22.7677 49.7619 22.3276C49.7619 21.5932 50.4686 21.1931 51.7394 21.1988V21.1359C51.7394 20.8901 51.665 20.4329 50.9924 20.4415C50.6793 20.4415 50.3601 20.5215 50.1307 20.6672L49.9944 20.2986C50.2671 20.1414 50.6669 20.0356 51.0823 20.0356C52.0896 20.0356 52.3314 20.6672 52.3314 21.2702V22.4048H52.3345ZM51.758 21.5817C51.1071 21.5703 50.3632 21.676 50.3632 22.2648C50.3632 22.6277 50.6205 22.7906 50.9211 22.7906C51.355 22.7906 51.634 22.5391 51.7301 22.2819C51.7518 22.219 51.758 22.1562 51.758 22.1076V21.5817Z" fill="#F0F5FB"/>
<path d="M56.0194 18.4541V22.3051C56.0194 22.5872 56.0319 22.9114 56.0476 23.1275H55.5102L55.4819 22.5752H55.4599C55.2808 22.9294 54.8817 23.1996 54.338 23.1996C53.5303 23.1996 52.9048 22.5482 52.9048 21.5817C52.8985 20.5222 53.5931 19.8768 54.4008 19.8768C54.9162 19.8768 55.2557 20.108 55.4065 20.3571H55.4191V18.4541H56.0194ZM55.4191 21.2395C55.4191 21.1675 55.4128 21.0685 55.3908 20.9964C55.2997 20.6332 54.9697 20.3331 54.5171 20.3331C53.8885 20.3331 53.5177 20.8583 53.5177 21.5577C53.5177 22.203 53.854 22.7343 54.5045 22.7343C54.9099 22.7343 55.2839 22.4702 55.3939 22.044C55.4159 21.9659 55.4222 21.8849 55.4222 21.7948V21.2395H55.4191Z" fill="#F0F5FB"/>
<path d="M57.619 18.8421C57.619 19.0537 57.5182 19.2204 57.3494 19.2204C57.196 19.2204 57.0952 19.0505 57.0952 18.8421C57.0952 18.6337 57.2004 18.4541 57.3604 18.4541C57.5138 18.4541 57.619 18.624 57.619 18.8421ZM57.1478 23.1996V19.7976H57.5708V23.1996H57.1478Z" fill="#F0F5FB"/>
<path d="M58.6925 20.9375C58.6925 20.6106 58.6868 20.3538 58.6667 20.0999H59.1578L59.1893 20.6106H59.2008C59.353 20.3217 59.7034 20.0356 60.2088 20.0356C60.631 20.0356 61.2857 20.2925 61.2857 21.3548V23.1993H60.7315V21.4132C60.7315 20.9141 60.5477 20.4968 60.025 20.4968C59.6661 20.4968 59.3818 20.7594 59.2812 21.0717C59.2554 21.1418 59.2439 21.2381 59.2439 21.3344V23.1964H58.6897V20.9375H58.6925Z" fill="#F0F5FB"/>
<path d="M65.4446 22.8903C65.4446 23.6479 65.2867 24.0975 64.9676 24.39C64.636 24.6795 64.1653 24.7811 63.7421 24.7811C63.3409 24.7811 62.8987 24.6856 62.6271 24.5101L62.7787 24.0513C62.9998 24.1929 63.3472 24.313 63.761 24.313C64.3833 24.313 64.8413 23.9958 64.8413 23.1644V22.8072H64.8286C64.6486 23.112 64.2822 23.3553 63.761 23.3553C62.9303 23.3553 62.3333 22.6655 62.3333 21.7632C62.3333 20.6546 63.0756 20.0356 63.8495 20.0356C64.4307 20.0356 64.7434 20.3251 64.895 20.5961H64.9139L64.936 20.1034H65.4762C65.4541 20.3344 65.4477 20.6023 65.4477 20.9934V22.8903H65.4446ZM64.835 21.3937C64.835 21.2921 64.8286 21.2058 64.8002 21.1319C64.6897 20.7809 64.3991 20.4976 63.9474 20.4976C63.3662 20.4976 62.9492 20.978 62.9492 21.7324C62.9492 22.373 63.2872 22.9088 63.9379 22.9088C64.3201 22.9088 64.6581 22.6778 64.7844 22.3021C64.8192 22.2005 64.8318 22.0866 64.8318 21.9849V21.3937H64.835Z" fill="#F0F5FB"/>
<path d="M67.5714 18.5583C67.9215 18.4951 68.3379 18.4541 68.7967 18.4541C69.6235 18.4541 70.212 18.6625 70.6043 19.035C71.0087 19.4171 71.2381 19.957 71.2381 20.7116C71.2381 21.4725 71.0057 22.0977 70.5953 22.527C70.1728 22.9628 69.4847 23.1996 68.6156 23.1996C68.1991 23.1996 67.8611 23.1775 67.5714 23.1427V18.5583ZM68.1478 22.6849C68.2927 22.707 68.5039 22.7133 68.7303 22.7133C69.9676 22.7133 70.6285 21.9935 70.6285 20.7337C70.6345 19.6318 70.04 18.934 68.8208 18.934C68.522 18.934 68.2987 18.9624 68.1448 18.9972V22.6849H68.1478Z" fill="#F0F5FB"/>
<path d="M72.8032 21.7066L72.3463 23.1996H71.7619L73.257 18.4541H73.9334L75.4286 23.1996H74.8234L74.3547 21.7066H72.8032ZM74.2449 21.2282L73.8088 19.8636C73.7109 19.5554 73.6457 19.2728 73.5804 18.9967H73.5685C73.5033 19.2728 73.438 19.5682 73.346 19.8572L72.9159 21.2314H74.2449V21.2282Z" fill="#F0F5FB"/>
<path d="M79.9691 21.119C79.9347 20.4576 79.894 19.6549 79.894 19.0706H79.8815C79.7157 19.6196 79.5311 20.2168 79.2996 20.8718L78.4832 23.1739H78.0296L77.2756 20.9135C77.0567 20.2361 76.8784 19.6324 76.747 19.0674H76.7345C76.7219 19.6581 76.6875 20.448 76.6437 21.164L76.5217 23.1996H75.9524L76.2746 18.4541H77.0348L77.8231 20.7498C78.0139 21.3341 78.1672 21.8543 78.2892 22.3487H78.3017C78.4237 21.8703 78.5895 21.3502 78.796 20.7498L79.6187 18.4541H80.3789L80.6667 23.1996H80.0786L79.9691 21.119Z" fill="#F0F5FB"/>
<path d="M82.898 22.5706C83.0763 22.6706 83.3817 22.7849 83.675 22.7849C84.0922 22.7849 84.2918 22.5906 84.2918 22.3334C84.2918 22.0704 84.1255 21.9333 83.7022 21.7818C83.1187 21.5817 82.8466 21.2874 82.8466 20.9244C82.8466 20.4357 83.2698 20.0356 83.9531 20.0356C84.2766 20.0356 84.5639 20.1185 84.7362 20.2243L84.5971 20.6244C84.4701 20.5501 84.2404 20.4415 83.941 20.4415C83.5964 20.4415 83.4119 20.6301 83.4119 20.8558C83.4119 21.1073 83.5964 21.2188 84.0166 21.376C84.5669 21.5703 84.8571 21.8332 84.8571 22.2848C84.8571 22.8249 84.4127 23.1993 83.6629 23.1993C83.3122 23.1993 82.9856 23.1107 82.7619 22.9849L82.898 22.5706Z" fill="#F0F5FB"/>
<path d="M88.5238 21.5903C88.5238 22.7106 87.6942 23.1993 86.9221 23.1993C86.0592 23.1993 85.381 22.5963 85.381 21.6389C85.381 20.6301 86.0925 20.0356 86.9736 20.0356C87.9001 20.0356 88.5238 20.6672 88.5238 21.5903ZM85.9805 21.6218C85.9805 22.2848 86.3802 22.7878 86.9494 22.7878C87.5065 22.7878 87.9243 22.2933 87.9243 21.6103C87.9243 21.0959 87.6518 20.45 86.9615 20.45C86.2802 20.45 85.9805 21.0502 85.9805 21.6218Z" fill="#F0F5FB"/>
<path d="M89.0476 18.4541H89.5714V23.1996H89.0476V18.4541Z" fill="#F0F5FB"/>
<path d="M93.212 22.2796C93.212 22.6056 93.2178 22.885 93.2381 23.1294H92.7421L92.7102 22.6259H92.6986C92.5594 22.8762 92.2287 23.1993 91.6806 23.1993C91.1962 23.1993 90.619 22.9257 90.619 21.8459V20.0386H91.1788V21.7412C91.1788 22.3291 91.3644 22.7307 91.8662 22.7307C92.2403 22.7307 92.5014 22.4688 92.6029 22.2126C92.6348 22.137 92.6551 22.0351 92.6551 21.9245V20.0356H93.2149V22.2796H93.212Z" fill="#F0F5FB"/>
<path d="M94.9363 18.9814V19.7816H95.8571V20.2447H94.9363V22.0466C94.9363 22.4625 95.0597 22.6956 95.4201 22.6956C95.5969 22.6956 95.697 22.683 95.7937 22.6546L95.8238 23.1177C95.7003 23.1587 95.5035 23.1996 95.2533 23.1996C94.953 23.1996 94.7128 23.102 94.5593 22.9445C94.3825 22.7586 94.3091 22.4625 94.3091 22.0687V20.2447H93.7619V19.7816H94.3091V19.161L94.9363 18.9814Z" fill="#F0F5FB"/>
<path d="M96.9048 18.8421C96.9048 19.0537 96.804 19.2204 96.6352 19.2204C96.4818 19.2204 96.381 19.0505 96.381 18.8421C96.381 18.6337 96.4862 18.4541 96.6462 18.4541C96.7974 18.4541 96.9048 18.624 96.9048 18.8421ZM96.4336 23.1996V19.7976H96.8566V23.1996H96.4336Z" fill="#F0F5FB"/>
<path d="M101.095 21.5903C101.095 22.7106 100.266 23.1993 99.4935 23.1993C98.6306 23.1993 97.9524 22.5963 97.9524 21.6389C97.9524 20.6301 98.6639 20.0356 99.545 20.0356C100.472 20.0356 101.095 20.6672 101.095 21.5903ZM98.5519 21.6218C98.5519 22.2848 98.9516 22.7878 99.5208 22.7878C100.078 22.7878 100.496 22.2933 100.496 21.6103C100.496 21.0959 100.223 20.45 99.5329 20.45C98.8517 20.45 98.5519 21.0502 98.5519 21.6218Z" fill="#F0F5FB"/>
<path d="M101.645 20.9375C101.645 20.6106 101.639 20.3538 101.619 20.0999H102.11L102.142 20.6106H102.153C102.305 20.3217 102.656 20.0356 103.161 20.0356C103.583 20.0356 104.238 20.2925 104.238 21.3548V23.1993H103.684V21.4132C103.684 20.9141 103.5 20.4968 102.977 20.4968C102.618 20.4968 102.334 20.7594 102.234 21.0717C102.208 21.1418 102.196 21.2381 102.196 21.3344V23.1964H101.642V20.9375H101.645Z" fill="#F0F5FB"/>
<path d="M40.8572 13.174C39.4824 13.5316 38.1416 13.7088 36.8285 13.7088C33.9249 13.7088 32.4762 12.1654 32.4762 9.07857C32.4762 6.23013 33.8972 4.80591 36.736 4.80591C37.3402 4.80591 37.9597 4.94649 38.5916 5.23073V1.58154H40.8572V13.174ZM38.5916 7.12867C38.1231 6.82304 37.5374 6.67023 36.8285 6.67023C35.4199 6.67023 34.7171 7.45263 34.7171 9.0205C34.7171 10.8818 35.4507 11.8109 36.9148 11.8109C37.5066 11.8109 38.0676 11.7284 38.5916 11.5664V7.12867Z" fill="#F0F5FB"/>
<path d="M42.4286 10.9209C42.4286 9.13922 43.7063 8.24686 46.2588 8.24686C46.8583 8.24686 47.4578 8.30533 48.0573 8.4161V7.74222C48.0573 6.93909 47.488 6.53907 46.3526 6.53907C45.3898 6.53907 44.321 6.68062 43.1431 6.96679V5.17283C44.3179 4.88974 45.3898 4.74512 46.3526 4.74512C48.9747 4.74512 50.2857 5.72979 50.2857 7.69914V13.7087H48.9929L48.2026 12.9056C47.4366 13.441 46.5888 13.7087 45.6653 13.7087C43.5065 13.7149 42.4286 12.7825 42.4286 10.9209ZM46.2588 9.78541C45.1899 9.78541 44.654 10.1547 44.654 10.8962C44.654 11.6932 45.1021 12.0902 45.9984 12.0902C46.7372 12.0902 47.4245 11.8563 48.0573 11.3886V9.95465C47.4971 9.84388 46.8976 9.78541 46.2588 9.78541Z" fill="#F0F5FB"/>
<path d="M52.381 13.7088V4.74512H54.1191L54.3818 6.04321C55.179 5.17884 56.1351 4.74512 57.2562 4.74512C58.3742 4.74512 59.1409 5.15423 59.5533 5.97554C60.4636 5.15731 61.4166 4.74512 62.4094 4.74512C64.456 4.74512 65.4762 5.88018 65.4762 8.15031V13.7057H63.2311V8.06726C63.2311 7.07062 62.7851 6.5723 61.8931 6.5723C61.2272 6.5723 60.5857 6.87375 59.9687 7.47666V13.7088H57.7235V8.09187C57.7235 7.07985 57.3112 6.5723 56.4864 6.5723C55.8297 6.5723 55.2126 6.87375 54.6292 7.47666V13.7088H52.381Z" fill="#F0F5FB"/>
<path d="M69.6666 1.58154V3.3638H67.5714V1.58154H69.6666ZM69.6666 4.80366V13.7088H67.5714V4.80366H69.6666Z" fill="#F0F5FB"/>
<path d="M72.2857 13.7088V4.74512H73.9728L74.2455 6.05859C75.0728 5.18192 76.0156 4.74512 77.0741 4.74512C79.1199 4.74512 80.1428 5.84942 80.1428 8.05803V13.7088H77.9636V8.05803C77.9636 7.06754 77.4892 6.5723 76.5404 6.5723C75.8318 6.5723 75.141 6.86452 74.4679 7.45205V13.7088H72.2857Z" fill="#F0F5FB"/>
<path d="M84.3333 1.58154V3.3638H82.2381V1.58154H84.3333ZM84.3333 4.80366V13.7088H82.2381V4.80366H84.3333Z" fill="#F0F5FB"/>
<path d="M86.4286 9.23153C86.4286 6.23957 87.9127 4.74512 90.881 4.74512C93.8492 4.74512 95.3334 6.23957 95.3334 9.23153C95.3334 12.2174 93.8492 13.7088 90.881 13.7088C87.922 13.7088 86.4378 12.2174 86.4286 9.23153ZM90.8779 11.9938C92.3342 11.9938 93.0624 11.0628 93.0624 9.19784C93.0624 7.37878 92.3342 6.46925 90.8779 6.46925C89.4215 6.46925 88.6933 7.37878 88.6933 9.19784C88.6964 11.0628 89.4246 11.9938 90.8779 11.9938Z" fill="#F0F5FB"/>
<path d="M96.9048 13.7088V4.74512H98.5918L98.8646 6.05859C99.6918 5.18192 100.635 4.74512 101.693 4.74512C103.739 4.74512 104.762 5.84942 104.762 8.05803V13.7088H102.583V8.05803C102.583 7.06754 102.108 6.5723 101.159 6.5723C100.451 6.5723 99.76 6.86452 99.087 7.45205V13.7088H96.9048Z" fill="#F0F5FB"/>
</svg>
