<svg width="62" height="62" viewBox="0 0 62 62" fill="none" xmlns="http://www.w3.org/2000/svg">
<rect y="0.000976562" width="62" height="62" fill="white"/>
<g style="mix-blend-mode:multiply" opacity="0.2">
<g style="mix-blend-mode:multiply" opacity="0.2">
<path d="M19.3457 47.175C18.6443 47.182 17.9648 47.4002 17.4112 47.7962C16.8576 48.1922 16.4605 48.7443 16.2809 49.3677C16.1012 49.9911 16.1488 50.6515 16.4164 51.2476C16.6841 51.8437 17.1569 52.3427 17.7625 52.6681L29.0738 58.5639C30.0054 59.0509 31.0589 59.3064 32.1306 59.3055C32.7072 59.3051 33.2807 59.228 33.8333 59.0766L50.8499 54.6181C52.1192 54.2828 53.2356 53.5774 54.0312 52.6082C54.8267 51.639 55.2583 50.4583 55.2608 49.2441V47.175H19.3457Z" fill="#CDD9E8"/>
</g>
</g>
<g style="mix-blend-mode:multiply" opacity="0.12">
<g style="mix-blend-mode:multiply" opacity="0.12">
<path d="M19.2363 47.175C18.5592 47.182 17.903 47.4002 17.3685 47.7962C16.834 48.1922 16.4507 48.7443 16.2772 49.3677C16.1037 49.9911 16.1497 50.6515 16.4081 51.2476C16.6665 51.8437 17.123 52.3427 17.7078 52.6681L28.6289 58.5639C29.5285 59.0509 30.5456 59.3064 31.5804 59.3055C32.1371 59.3051 32.6908 59.228 33.2243 59.0766L49.6541 54.6181C50.8797 54.2828 51.9576 53.5774 52.7257 52.6082C53.4938 51.639 53.9105 50.4583 53.913 49.2441V47.175H19.2363Z" fill="#CDD9E8"/>
</g>
</g>
<path d="M33.6956 1.34888L38.2804 11.4913V46.7482L33.7656 59.3054L50.836 54.6013C52.1092 54.2475 53.2292 53.5033 54.0273 52.4806C54.8253 51.458 55.2583 50.2123 55.2609 48.9312V11.7231C55.2614 10.4386 54.8287 9.18907 54.0283 8.16403C53.2279 7.13898 52.1036 6.39442 50.826 6.04336L33.6956 1.34888Z" fill="#F0F5FB"/>
<path d="M12.6209 46.7985L17.4035 44.1792C18.0594 43.8136 18.6062 43.2757 18.9865 42.622C19.3669 41.9682 19.5668 41.2227 19.5652 40.4637V21.4011C19.5661 20.5327 19.8299 19.6856 20.3208 18.9743C20.8118 18.2629 21.5063 17.7217 22.3104 17.4236L37.7391 11.7679V7.4703C37.7373 6.13831 37.3079 4.84314 36.5157 3.7807C35.7236 2.71827 34.6119 1.94636 33.3487 1.58175C32.8107 1.42508 32.2536 1.34669 31.6939 1.34892C30.6412 1.35137 29.6068 1.62866 28.6904 2.15411L11.033 12.3693C10.1383 12.8864 9.39439 13.6345 8.87695 14.5376C8.35951 15.4406 8.08695 16.4665 8.08695 17.5109V44.0531C8.08561 44.5933 8.22286 45.1246 8.48523 45.5947C8.74759 46.0649 9.12603 46.4577 9.58338 46.7347C10.0407 47.0116 10.5612 47.1631 11.0938 47.1743C11.6263 47.1855 12.1526 47.056 12.6209 46.7985Z" fill="#CDD9E8"/>
<path d="M37.7391 47.175H19.2606C18.578 47.182 17.9167 47.4002 17.378 47.7962C16.8393 48.1922 16.4528 48.7443 16.278 49.3677C16.1031 49.9911 16.1495 50.6515 16.4099 51.2476C16.6704 51.8437 17.1305 52.3427 17.7199 52.6681L28.7275 58.5639C29.6342 59.0509 30.6594 59.3064 31.7023 59.3055C32.2634 59.3051 32.8215 59.228 33.3593 59.0766C34.6233 58.7373 35.7353 58.017 36.526 57.0253C37.3166 56.0337 37.7426 54.8251 37.7391 53.5836V47.175Z" fill="#CDD9E8"/>
<path d="M12.6209 46.7985L17.4035 44.1792C18.0594 43.8136 18.6062 43.2757 18.9865 42.622C19.3669 41.9682 19.5668 41.2227 19.5652 40.4637V21.4011C19.5661 20.5327 19.8299 19.6856 20.3208 18.9743C20.8118 18.2629 21.5063 17.7217 22.3104 17.4236L37.7391 11.7679V7.4703C37.7373 6.13831 37.3079 4.84314 36.5157 3.7807C35.7236 2.71827 34.6119 1.94636 33.3487 1.58175C32.8107 1.42508 32.2536 1.34669 31.6939 1.34892C30.6412 1.35137 29.6068 1.62866 28.6904 2.15411L11.033 12.3693C10.1383 12.8864 9.39439 13.6345 8.87695 14.5376C8.35951 15.4406 8.08695 16.4665 8.08695 17.5109V44.0531C8.08561 44.5933 8.22286 45.1246 8.48523 45.5947C8.74759 46.0649 9.12603 46.4577 9.58338 46.7347C10.0407 47.0116 10.5612 47.1631 11.0938 47.1743C11.6263 47.1855 12.1526 47.056 12.6209 46.7985Z" fill="#CDD9E8"/>
<path d="M37.7391 47.175H19.2606C18.578 47.182 17.9167 47.4002 17.378 47.7962C16.8393 48.1922 16.4528 48.7443 16.278 49.3677C16.1031 49.9911 16.1495 50.6515 16.4099 51.2476C16.6704 51.8437 17.1305 52.3427 17.7199 52.6681L28.7275 58.5639C29.6342 59.0509 30.6594 59.3064 31.7023 59.3055C32.2634 59.3051 32.8215 59.228 33.3593 59.0766C34.6233 58.7373 35.7353 58.017 36.526 57.0253C37.3166 56.0337 37.7426 54.8251 37.7391 53.5836V47.175Z" fill="#CDD9E8"/>
</svg>
