<svg width="24" height="24" viewBox="0 0 24 24" fill="none" xmlns="http://www.w3.org/2000/svg">
<path d="M12.5 22C6.70101 22 2 17.299 2 11.5C2 5.70101 6.70101 1 12.5 1C18.299 1 23 5.70101 23 11.5C23 17.299 18.299 22 12.5 22ZM12.5 21C17.7467 21 22 16.7467 22 11.5C22 6.25329 17.7467 2 12.5 2C7.25329 2 3 6.25329 3 11.5C3 16.7467 7.25329 21 12.5 21ZM8.5 12C8.22386 12 8 11.7761 8 11.5C8 11.2239 8.22386 11 8.5 11H16.5C16.7761 11 17 11.2239 17 11.5C17 11.7761 16.7761 12 16.5 12H8.5Z" fill="#4D627C"/>
</svg>
