<svg width="48" height="48" viewBox="0 0 48 48" fill="none" xmlns="http://www.w3.org/2000/svg">
<path d="M32 11V3C32 1.34316 30.6568 0 29 0H3C1.34316 0 0 1.34316 0 3V45C0 46.6568 1.34316 48 3 48H29C30.6568 48 32 46.6568 32 45V37H30V45C30 45.5523 29.5522 46 29 46H3C2.44772 46 1.99997 45.5523 1.99997 45V3C1.99997 2.44772 2.44772 1.99997 3 1.99997H29C29.5522 1.99997 30 2.44772 30 3V11H32Z" fill="#2F74C8"/>
<path d="M31 8H1V9.99997H31V8Z" fill="#2F74C8"/>
<path d="M19 4H13V5.99997H19V4Z" fill="#2F74C8"/>
<path d="M31 38H1V40H31V38Z" fill="#2F74C8"/>
<path d="M19 42H13V44H19V42Z" fill="#2F74C8"/>
<path d="M44.9997 13H14.9997C13.3429 13 11.9997 14.3432 11.9997 16V25.586L8.29278 29.293C8.10538 29.4805 8.00009 29.7347 8 29.9998C7.99991 30.5521 8.44747 30.9999 8.99975 31H11.9997V32C11.9997 33.6569 13.3429 35 14.9997 35H44.9997C46.6566 35 47.9997 33.6569 47.9997 32V16C47.9997 14.3432 46.6566 13 44.9997 13ZM45.9998 32C45.9998 32.5522 45.552 33 44.9997 33H14.9997C14.4475 33 13.9997 32.5522 13.9997 32V30C13.9997 29.4477 13.552 28.9999 12.9997 28.9999H11.4137L13.7067 26.7069C13.8943 26.5194 13.9997 26.2651 13.9997 25.9999V16C13.9997 15.4477 14.4475 15 14.9997 15H44.9997C45.552 15 45.9998 15.4477 45.9998 16V32Z" fill="#2F74C8"/>
<path d="M23 18C21.3432 18 20 19.3432 20 21V27C20 28.6568 21.3432 30 23 30C24.6569 30 26 28.6568 26 27V21C26 19.3432 24.6569 18 23 18ZM24 27C24 27.5523 23.5523 28 23 28C22.4477 28 22 27.5523 22 27V21C22 20.4477 22.4477 20 23 20C23.5523 20 24 20.4477 24 21V27Z" fill="#2F74C8"/>
<path d="M21 23H17V25H21V23Z" fill="#2F74C8"/>
<path d="M43 23H25V25H43V23Z" fill="#2F74C8"/>
<path d="M7 12C5.34316 12 4 13.3432 4 15V17H5.99997V15C5.99997 14.4477 6.44772 14 7 14H8.99997V12H7Z" fill="#2F74C8"/>
<path d="M5.99997 19H4V21H5.99997V19Z" fill="#2F74C8"/>
</svg>
