<svg width="48" height="48" viewBox="0 0 48 48" fill="none" xmlns="http://www.w3.org/2000/svg">
<path d="M31.3159 38.051C29.8491 37.5643 28.4086 37.0018 27 36.366V36.3191C29.4391 35.1591 30.9951 32.7011 31 30V27C31 23.1341 27.866 20 24 20C20.1339 20 16.9999 23.1341 16.9999 27V30C17.0047 32.7011 18.5607 35.1591 21 36.3191V36.366C19.5914 37.0019 18.1508 37.5643 16.684 38.051C13.042 39.265 13 41.889 13 42V48H15V42.027C15 41.973 15.1 40.6871 17.316 39.954C19.0688 39.3808 20.7827 38.6947 22.447 37.9001C22.7877 37.7298 23.0021 37.3809 23 37.0001V35.6511C23.0002 35.2274 22.7334 34.8496 22.334 34.7081C20.3392 34.0012 19.0045 32.1163 19 30V27C19 24.2386 21.2386 22.0001 24 22.0001C26.7614 22.0001 28.9999 24.2386 28.9999 27V30C28.9955 32.1163 27.6607 34.0012 25.6659 34.7081C25.2665 34.8495 24.9997 35.2273 24.9999 35.6511V37.0001C24.9978 37.3809 25.2122 37.7298 25.5529 37.9001C27.2173 38.693 28.9312 39.3775 30.684 39.9491C32.8999 40.6871 33 41.973 33 42V48H34.9999V42C34.9999 41.889 34.9579 39.2651 31.3159 38.051Z" fill="#2F74C8"/>
<path d="M13.7371 20C9.96275 20.0012 6.904 23.136 6.90519 27.0016V30.0014C6.90986 32.7022 8.42894 35.1601 10.8104 36.3199V36.3669C9.43519 37.0028 8.02878 37.5651 6.59674 38.0517C3.041 39.2657 3 41.8895 3 42.0005V48H4.95255V42.0275C4.95255 41.9735 5.05021 40.6876 7.21364 39.9546C8.92492 39.3814 10.5982 38.6954 12.223 37.9008C12.5556 37.7306 12.7649 37.3817 12.7629 37.0009V35.652C12.7631 35.2284 12.5026 34.8506 12.1127 34.7091C10.1652 34.0022 8.86204 32.1176 8.85774 30.0014V27.0016C8.85683 26.1669 9.06011 25.345 9.44882 24.6113C10.7348 22.1845 13.6982 21.2848 16.0676 22.6019L17 20.8481C15.9984 20.2912 14.8768 19.9996 13.7371 20Z" fill="#2F74C8"/>
<path d="M25 43H23V45H25V43Z" fill="#2F74C8"/>
<path d="M29 43H27V45H29V43Z" fill="#2F74C8"/>
<path d="M21 43H19V45H21V43Z" fill="#2F74C8"/>
<path d="M45 48V42.0008C45 41.8898 44.959 39.2662 41.4033 38.0523C39.9713 37.5656 38.5649 37.0033 37.1897 36.3675V36.3206C39.571 35.1608 41.0901 32.7031 41.0949 30.0024V27.1667C41.1233 25.9436 40.838 24.7341 40.2676 23.6589C38.4656 20.2624 34.3164 19.005 31 20.8505L31.9324 22.6073C32.9925 22.0201 34.2261 21.8517 35.3992 22.1344C37.6349 22.7207 39.1841 24.8035 39.1423 27.1666V30.0024C39.138 32.1184 37.8348 34.003 35.8873 34.7098C35.4974 34.8512 35.2369 35.229 35.2371 35.6527V37.0015C35.2351 37.3823 35.4444 37.7311 35.777 37.9014C37.4019 38.6942 39.0752 39.3786 40.7864 39.9501C42.9499 40.688 43.0475 41.9738 43.0475 42.0008V48H45Z" fill="#2F74C8"/>
<path d="M43 0H4.99997C2.23997 0.00328125 0.00328125 2.23997 0 4.99997V21H1.99997V4.99997C1.99997 3.34312 3.34312 1.99997 4.99997 1.99997H42.9999C44.6568 1.99997 45.9999 3.34312 45.9999 4.99997V21H48V4.99997C47.9967 2.23997 45.76 0.00328125 43 0Z" fill="#2F74C8"/>
<path d="M25 5H7.00003C6.44775 5 6 5.44775 6 6.00003V10.0001C6 10.5523 6.44775 11.0001 7.00003 11.0001H25C25.5523 11.0001 26.0001 10.5523 26.0001 10.0001V6.00003C26 5.44775 25.5523 5 25 5ZM24 9.00003H7.99997V7.00006H24V9.00003Z" fill="#2F74C8"/>
<path d="M30 5H28V6.99997H30V5Z" fill="#2F74C8"/>
<path d="M34 5H32V6.99997H34V5Z" fill="#2F74C8"/>
<path d="M42 9H28V11H42V9Z" fill="#2F74C8"/>
<path d="M16.0129 13.9995C15.9521 14.006 15.8907 14.0064 15.8298 14.0006C15.3245 13.9531 14.9535 13.5051 15.001 13H13.0013C12.9996 13.0568 12.9996 13.1137 13.0013 13.1705C13.0483 14.7796 14.3913 16.0459 16.0009 15.9987H24V13.9996H16.0129V13.9995Z" fill="#2F74C8"/>
<path d="M34.9987 13H32.999C33.0048 13.0594 33.0048 13.1193 32.999 13.1788C32.9497 13.6817 32.502 14.0493 31.999 14H23.9999C23.4477 14 23 14.4478 23 15V18H24.9998V16.0001H31.999C32.0559 16.0017 32.1128 16.0017 32.1696 16.0001C33.7792 15.9528 35.0459 14.6098 34.9987 13Z" fill="#2F74C8"/>
</g>
<defs>
<path d="M0 0H48V48H0V0Z" fill="white"/>
</clipPath>
</defs>
</svg>
