<svg width="32" height="32" viewBox="0 0 32 32" fill="none" xmlns="http://www.w3.org/2000/svg">
<path d="M16 32C7.17725 32 0 24.8228 0 16C0 7.17725 7.17725 0 16 0C24.8228 0 32 7.17725 32 16C32 24.8228 24.8228 32 16 32ZM16 2C8.28003 2 2 8.28003 2 16C2 23.72 8.28003 30 16 30C23.72 30 30 23.72 30 16C30 8.28003 23.72 2 16 2Z" fill="#CDD9E8"/>
<path d="M11.0081 22C10.7499 22 10.4916 21.902 10.2954 21.7043C9.90153 21.3105 9.90153 20.6719 10.2954 20.278L20.278 10.2954C20.6721 9.90153 21.3107 9.90153 21.7046 10.2954C22.0985 10.6893 22.0985 11.3279 21.7046 11.722L11.7218 21.7043C11.5229 21.902 11.2649 22 11.0081 22Z" fill="#CDD9E8"/>
<path d="M20.9905 22C20.7325 22 20.4743 21.902 20.2781 21.7043L10.2956 11.7221C9.90147 11.3282 9.90147 10.6895 10.2956 10.2956C10.6895 9.90146 11.3281 9.90146 11.7219 10.2956L21.7044 20.2791C22.0985 20.673 22.0985 21.3116 21.7044 21.7055C21.507 21.902 21.2487 22 20.9905 22Z" fill="#CDD9E8"/>
</svg>
