<svg width="24" height="24" viewBox="0 0 24 24" fill="none" xmlns="http://www.w3.org/2000/svg">
<mask id="path-2-inside-1" fill="white">
<path d="M13 12H18.5C18.7761 12 19 12.2239 19 12.5C19 12.7761 18.7761 13 18.5 13H13V18.5C13 18.7761 12.7761 19 12.5 19C12.2239 19 12 18.7761 12 18.5V13H6.5C6.22386 13 6 12.7761 6 12.5C6 12.2239 6.22386 12 6.5 12H12V6.5C12 6.22386 12.2239 6 12.5 6C12.7761 6 13 6.22386 13 6.5V12Z"/>
</mask>
<path d="M13 12H18.5C18.7761 12 19 12.2239 19 12.5C19 12.7761 18.7761 13 18.5 13H13V18.5C13 18.7761 12.7761 19 12.5 19C12.2239 19 12 18.7761 12 18.5V13H6.5C6.22386 13 6 12.7761 6 12.5C6 12.2239 6.22386 12 6.5 12H12V6.5C12 6.22386 12.2239 6 12.5 6C12.7761 6 13 6.22386 13 6.5V12Z" fill="#1436E5"/>
<path d="M13 12H12V13H13V12ZM13 13V12H12V13H13ZM12 13H13V12H12V13ZM12 12V13H13V12H12ZM13 13H18.5V11H13V13ZM18.5 13C18.2239 13 18 12.7761 18 12.5H20C20 11.6716 19.3284 11 18.5 11V13ZM18 12.5C18 12.2239 18.2239 12 18.5 12V14C19.3284 14 20 13.3284 20 12.5H18ZM18.5 12H13V14H18.5V12ZM12 13V18.5H14V13H12ZM12 18.5C12 18.2239 12.2239 18 12.5 18V20C13.3284 20 14 19.3284 14 18.5H12ZM12.5 18C12.7761 18 13 18.2239 13 18.5H11C11 19.3284 11.6716 20 12.5 20V18ZM13 18.5V13H11V18.5H13ZM12 12H6.5V14H12V12ZM6.5 12C6.77614 12 7 12.2239 7 12.5H5C5 13.3284 5.67157 14 6.5 14V12ZM7 12.5C7 12.7761 6.77614 13 6.5 13V11C5.67157 11 5 11.6716 5 12.5H7ZM6.5 13H12V11H6.5V13ZM13 12V6.5H11V12H13ZM13 6.5C13 6.77614 12.7761 7 12.5 7V5C11.6716 5 11 5.67157 11 6.5H13ZM12.5 7C12.2239 7 12 6.77614 12 6.5H14C14 5.67157 13.3284 5 12.5 5V7ZM12 6.5V12H14V6.5H12Z" fill="#4D627C" mask="url(#path-2-inside-1)"/>
</svg>
