<svg width="24" height="24" viewBox="0 0 24 24" fill="none" xmlns="http://www.w3.org/2000/svg">
<mask id="path-2-inside-1" fill="white">
<path d="M13 11H16.5C16.7761 11 17 11.2239 17 11.5C17 11.7761 16.7761 12 16.5 12H13V15.5C13 15.7761 12.7761 16 12.5 16C12.2239 16 12 15.7761 12 15.5V12H8.5C8.22386 12 8 11.7761 8 11.5C8 11.2239 8.22386 11 8.5 11H12V7.5C12 7.22386 12.2239 7 12.5 7C12.7761 7 13 7.22386 13 7.5V11ZM12.5 22C6.70101 22 2 17.299 2 11.5C2 5.70101 6.70101 1 12.5 1C18.299 1 23 5.70101 23 11.5C23 17.299 18.299 22 12.5 22ZM12.5 21C17.7467 21 22 16.7467 22 11.5C22 6.25329 17.7467 2 12.5 2C7.25329 2 3 6.25329 3 11.5C3 16.7467 7.25329 21 12.5 21Z"/>
</mask>
<path d="M13 11H16.5C16.7761 11 17 11.2239 17 11.5C17 11.7761 16.7761 12 16.5 12H13V15.5C13 15.7761 12.7761 16 12.5 16C12.2239 16 12 15.7761 12 15.5V12H8.5C8.22386 12 8 11.7761 8 11.5C8 11.2239 8.22386 11 8.5 11H12V7.5C12 7.22386 12.2239 7 12.5 7C12.7761 7 13 7.22386 13 7.5V11ZM12.5 22C6.70101 22 2 17.299 2 11.5C2 5.70101 6.70101 1 12.5 1C18.299 1 23 5.70101 23 11.5C23 17.299 18.299 22 12.5 22ZM12.5 21C17.7467 21 22 16.7467 22 11.5C22 6.25329 17.7467 2 12.5 2C7.25329 2 3 6.25329 3 11.5C3 16.7467 7.25329 21 12.5 21Z" fill="#1436E5"/>
<path d="M13 11H12V12H13V11ZM13 12V11H12V12H13ZM12 12H13V11H12V12ZM12 11V12H13V11H12ZM13 12H16.5V10H13V12ZM16.5 12C16.2239 12 16 11.7761 16 11.5H18C18 10.6716 17.3284 10 16.5 10V12ZM16 11.5C16 11.2239 16.2239 11 16.5 11V13C17.3284 13 18 12.3284 18 11.5H16ZM16.5 11H13V13H16.5V11ZM12 12V15.5H14V12H12ZM12 15.5C12 15.2239 12.2239 15 12.5 15V17C13.3284 17 14 16.3284 14 15.5H12ZM12.5 15C12.7761 15 13 15.2239 13 15.5H11C11 16.3284 11.6716 17 12.5 17V15ZM13 15.5V12H11V15.5H13ZM12 11H8.5V13H12V11ZM8.5 11C8.77614 11 9 11.2239 9 11.5H7C7 12.3284 7.67157 13 8.5 13V11ZM9 11.5C9 11.7761 8.77614 12 8.5 12V10C7.67157 10 7 10.6716 7 11.5H9ZM8.5 12H12V10H8.5V12ZM13 11V7.5H11V11H13ZM13 7.5C13 7.77614 12.7761 8 12.5 8V6C11.6716 6 11 6.67157 11 7.5H13ZM12.5 8C12.2239 8 12 7.77614 12 7.5H14C14 6.67157 13.3284 6 12.5 6V8ZM12 7.5V11H14V7.5H12ZM12.5 21C7.25329 21 3 16.7467 3 11.5H1C1 17.8513 6.14873 23 12.5 23V21ZM3 11.5C3 6.25329 7.25329 2 12.5 2V0C6.14873 0 1 5.14873 1 11.5H3ZM12.5 2C17.7467 2 22 6.25329 22 11.5H24C24 5.14873 18.8513 0 12.5 0V2ZM22 11.5C22 16.7467 17.7467 21 12.5 21V23C18.8513 23 24 17.8513 24 11.5H22ZM12.5 22C18.299 22 23 17.299 23 11.5H21C21 16.1944 17.1944 20 12.5 20V22ZM23 11.5C23 5.70101 18.299 1 12.5 1V3C17.1944 3 21 6.80558 21 11.5H23ZM12.5 1C6.70101 1 2 5.70101 2 11.5H4C4 6.80558 7.80558 3 12.5 3V1ZM2 11.5C2 17.299 6.70101 22 12.5 22V20C7.80558 20 4 16.1944 4 11.5H2Z" fill="#4D627C" mask="url(#path-2-inside-1)"/>
</svg>
