<svg width="48" height="48" viewBox="0 0 48 48" fill="none" xmlns="http://www.w3.org/2000/svg">
<path d="M45 22H19C17.3432 22 16 23.3432 16 25V41C16 42.6569 17.3432 44 19 44H29V42H19C18.4477 42 18 41.5522 18 41V25C18 24.4477 18.4477 24 19 24H45C45.5522 24 46 24.4477 46 25V41C46 41.5523 45.5522 42.0001 45 42.0001H34.9999V44H45C46.6568 44 48 42.6569 48 41V25C48 23.3432 46.6568 22 45 22Z" fill="#2F74C8"/>
<path d="M38 46H26V48H38V46Z" fill="#2F74C8"/>
<path d="M33 34H31C29.3432 34 28 35.3432 28 37V48H30V37C30 36.4477 30.4477 36 31 36H33C33.5523 36 34 36.4477 34 37V48H36V37C36 35.3432 34.6568 34 33 34Z" fill="#2F74C8"/>
<path d="M10.9999 0C7.13397 0 4 3.13397 4 7.00003V9C4 9.55228 4.44775 10 5.00003 10V12C5.00331 15.3124 7.68766 17.9967 11 18C14.3124 17.9967 16.9967 15.3124 17 12V10C17.5523 10 18.0001 9.55228 18.0001 9V7.00003C18 3.13397 14.866 0 10.9999 0ZM16 7.99997C15.4477 7.99997 15 8.44772 15 9V12C15 14.2091 13.2091 16 10.9999 16C8.79081 16 7 14.2091 7 12V9C7 8.44772 6.55225 7.99997 5.99997 7.99997V7.00003C5.99997 4.23863 8.23853 2.00006 10.9999 2.00006C13.7613 2.00006 15.9999 4.23863 15.9999 7.00003V7.99997H16Z" fill="#2F74C8"/>
<path d="M10.0048 6.00002C10.0048 5.44774 9.5574 5 9.00556 5C8.45372 5 8.00633 5.44774 8.00633 6.00002C8.01158 6.0827 8.01148 6.16558 8.00586 6.24817C7.93533 7.28625 7.03726 8.07055 6 7.99996L6.00796 9.99999C7.30939 10.0029 8.53606 9.39184 9.31834 8.35105C10.4045 9.223 12.3859 9.99999 16 9.99999V7.99996C10.3195 7.99996 10.0048 6.00002 10.0048 6.00002Z" fill="#2F74C8"/>
<path d="M1.99997 36V25C2.00325 22.2399 4.23994 20.0033 6.99994 20.0001H9V18H7.00003C3.13584 18.0044 0.00440625 21.1358 0 25V37C0 37.5523 0.44775 38.0001 1.00003 38.0001H14.0001V36H1.99997Z" fill="#2F74C8"/>
<path d="M15.0996 18H13V19.8332H15.0996C16.391 19.8324 17.6374 20.2479 18.5996 21L20 19.6343C18.653 18.5809 16.9079 17.9989 15.0996 18Z" fill="#2F74C8"/>
<path d="M12 17V19C12 19.5523 11.5523 20 11 20C10.4477 20 9.99997 19.5523 9.99997 19V17H8V19C8 20.6568 9.34315 22 11 22C12.6568 22 14 20.6568 14 19V17H12Z" fill="#2F74C8"/>
<path d="M6.99997 29H5V37H6.99997V29Z" fill="#2F74C8"/>
<path d="M40 4H28C24.6863 4 22 6.68631 22 10C22 13.3137 24.6863 16 28 16V19C28 19.5523 28.4477 20 29 20C29.2652 19.9999 29.5195 19.8946 29.707 19.7071L33.414 16.0001H40C43.3137 16.0001 46 13.3138 46 10.0001C46 6.68622 43.3137 4 40 4ZM40 13.9999H33C32.7347 14 32.4805 14.1054 32.293 14.2929L30 16.5859V15C30 14.4477 29.5522 13.9999 28.9999 13.9999H27.9999C25.7908 13.9999 23.9999 12.2091 23.9999 9.99991C23.9999 7.79069 25.7909 5.99997 28 5.99997H40C42.2091 5.99997 44 7.79087 44 10C44 12.2091 42.2091 13.9999 40 13.9999Z" fill="#2F74C8"/>
<path d="M28 9H26V11H28V9Z" fill="#2F74C8"/>
<path d="M42 9H30V11H42V9Z" fill="#2F74C8"/>
<path d="M44 38H42V40H44V38Z" fill="#2F74C8"/>
<path d="M44 34H42V36H44V34Z" fill="#2F74C8"/>
<path d="M40 38H38V40H40V38Z" fill="#2F74C8"/>
</svg>
