<svg width="48" height="48" viewBox="0 0 48 48" fill="none" xmlns="http://www.w3.org/2000/svg">
<path d="M24 0C10.767 0 0 10.767 0 24C0 37.233 10.767 48 24 48C37.233 48 48 37.233 48 24C48 10.767 37.233 0 24 0ZM24 45C12.42 45 3 35.58 3 24C3 12.42 12.42 3 24 3C35.58 3 45 12.42 45 24C45 35.58 35.58 45 24 45Z" fill="#2F74C8"/>
<path d="M24 9C19.0365 9 15 13.037 15 17.9981H18C18 14.6902 20.691 12.0004 24 12.0004C27.309 12.0004 30 14.6917 30 18.0011C30 21.3105 27.309 24.0019 24 24.0019C23.172 24.0019 22.5 24.674 22.5 25.5021V33H25.5V26.8762C29.751 26.1591 33 22.4522 33 17.9996C33 13.037 28.9635 9 24 9Z" fill="#2F74C8"/>
<path d="M26 36H23V39H26V36Z" fill="#2F74C8"/>
</svg>
