<svg width="70" height="58" viewBox="0 0 70 58" fill="none" xmlns="http://www.w3.org/2000/svg">
<path d="M15.5909 57.6839C10.8182 57.6839 7 55.9455 4.13636 52.4687C1.37879 48.8865 0 44.6721 0 39.8256C0 35.822 0.742424 32.0817 2.22727 28.6049C3.71212 25.1281 5.56818 21.9673 7.79545 19.1226C10.1288 16.2779 12.5682 13.802 15.1136 11.6948C17.7652 9.48229 20.2045 7.63851 22.4318 6.16349C24.6591 4.58311 26.4621 3.42416 27.8409 2.68665C29.3258 1.94914 30.0152 1.58038 29.9091 1.58038L33.5682 6.47956C32.6136 6.901 31.3409 7.74387 29.75 9.00817C28.1591 10.1671 26.5682 11.5895 24.9773 13.2752C23.4924 14.9609 22.1667 16.8047 21 18.8065C19.8333 20.703 19.25 22.5468 19.25 24.3379C19.25 25.3915 19.8864 26.445 21.1591 27.4986C22.4318 28.4469 23.8106 29.6058 25.2955 30.9755C26.7803 32.2398 28.1591 33.8202 29.4318 35.7166C30.7045 37.5077 31.3409 39.7203 31.3409 42.3542C31.3409 44.6721 30.8636 46.7793 29.9091 48.6757C29.0606 50.5722 27.8939 52.2053 26.4091 53.5749C25.0303 54.8392 23.3864 55.8401 21.4773 56.5777C19.5682 57.3152 17.6061 57.6839 15.5909 57.6839ZM54.7273 58C52.2879 58 50.0606 57.4732 48.0455 56.4196C46.0303 55.366 44.2803 53.9437 42.7955 52.1526C41.3106 50.3615 40.1439 48.307 39.2955 45.9891C38.553 43.5658 38.1818 40.9846 38.1818 38.2452C38.1818 32.7666 39.3485 27.7094 41.6818 23.0736C44.1212 18.3324 46.7727 14.2761 49.6364 10.9046C53.0303 6.901 56.9015 3.26612 61.25 0L65.8636 4.26703C64.9091 4.89918 63.7424 5.90009 62.3636 7.26975C61.0909 8.63942 59.8712 10.2725 58.7045 12.1689C57.6439 13.96 56.6894 15.8565 55.8409 17.8583C55.0985 19.8601 54.7273 21.8093 54.7273 23.7057C54.7273 24.97 55.5227 26.0236 57.1136 26.8665C58.7045 27.7094 60.4545 28.7629 62.3636 30.0272C64.2727 31.2916 66.0227 32.9246 67.6136 34.9264C69.2045 36.8229 70 39.5095 70 42.9864C70 45.0936 69.5758 47.0427 68.7273 48.8338C67.8788 50.6249 66.7121 52.2053 65.2273 53.5749C63.8485 54.9446 62.2045 56.0509 60.2955 56.8937C58.4924 57.6312 56.6364 58 54.7273 58Z" fill="#153051"/>
</svg>
