<svg width="29" height="24" viewBox="0 0 29 24" fill="none" xmlns="http://www.w3.org/2000/svg">
<path d="M6.45909 23.8692C4.48182 23.8692 2.9 23.1499 1.71364 21.7112C0.571212 20.2289 0 18.485 0 16.4796C0 14.8229 0.307576 13.2752 0.922727 11.8365C1.53788 10.3978 2.30682 9.08992 3.22955 7.91281C4.19621 6.73569 5.20682 5.71117 6.26136 4.83924C7.35985 3.92371 8.37045 3.16076 9.29318 2.55041C10.2159 1.89646 10.9629 1.41689 11.5341 1.11172C12.1492 0.80654 12.4348 0.653951 12.3909 0.653951L13.9068 2.6812C13.5114 2.85559 12.9841 3.20436 12.325 3.72752C11.6659 4.20708 11.0068 4.79564 10.3477 5.49319C9.73258 6.19074 9.18333 6.95368 8.7 7.78202C8.21667 8.56676 7.975 9.3297 7.975 10.0708C7.975 10.5068 8.23864 10.9428 8.76591 11.3787C9.29318 11.7711 9.86439 12.2507 10.4795 12.8174C11.0947 13.3406 11.6659 13.9946 12.1932 14.7793C12.7205 15.5204 12.9841 16.436 12.9841 17.5259C12.9841 18.485 12.7864 19.3569 12.3909 20.1417C12.0394 20.9264 11.5561 21.6022 10.9409 22.1689C10.3697 22.6921 9.68864 23.1063 8.89773 23.4114C8.10682 23.7166 7.29394 23.8692 6.45909 23.8692ZM22.6727 24C21.6621 24 20.7394 23.782 19.9045 23.3461C19.0697 22.9101 18.3447 22.3215 17.7295 21.5804C17.1144 20.8392 16.6311 19.9891 16.2795 19.03C15.972 18.0272 15.8182 16.9591 15.8182 15.8256C15.8182 13.5586 16.3015 11.4659 17.2682 9.54768C18.2788 7.58583 19.3773 5.90736 20.5636 4.51226C21.9697 2.85559 23.5735 1.3515 25.375 0L27.2864 1.76567C26.8909 2.02725 26.4076 2.44142 25.8364 3.00817C25.3091 3.57493 24.8038 4.25068 24.3205 5.03542C23.8811 5.77657 23.4856 6.56131 23.1341 7.38965C22.8265 8.21798 22.6727 9.02452 22.6727 9.80926C22.6727 10.3324 23.0023 10.7684 23.6614 11.1172C24.3205 11.4659 25.0455 11.9019 25.8364 12.4251C26.6273 12.9482 27.3523 13.624 28.0114 14.4523C28.6705 15.2371 29 16.3488 29 17.7875C29 18.6594 28.8242 19.4659 28.4727 20.2071C28.1212 20.9482 27.6379 21.6022 27.0227 22.1689C26.4515 22.7357 25.7705 23.1935 24.9795 23.5422C24.2326 23.8474 23.4636 24 22.6727 24Z" fill="#2F74C8"/>
</svg>
