<svg width="24" height="24" viewBox="0 0 24 24" fill="none" xmlns="http://www.w3.org/2000/svg">
<path d="M12.5 15.5C10.4949 15.5 8.89227 13.9206 8.89227 12C8.89227 10.0794 10.4949 8.5 12.5 8.5M12.5 15.5C14.5051 15.5 16.1077 13.9206 16.1077 12C16.1077 10.0794 14.5051 8.5 12.5 8.5M12.5 15.5C14.465 15.5 16.0808 13.9454 16.0808 12C16.0808 10.0546 14.465 8.5 12.5 8.5M12.5 15.5C10.535 15.5 8.9192 13.9454 8.9192 12C8.9192 10.0546 10.535 8.5 12.5 8.5M17.5074 6.29399L17.6907 6.44619L17.9244 6.39962L19.4482 6.09597C19.8951 6.00692 20.3427 6.20813 20.5633 6.58016L21.3635 7.92984C21.5821 8.29859 21.5354 8.76167 21.2424 9.0834L20.2115 10.2155L20.0438 10.3997L20.0898 10.6445C20.1731 11.0883 20.2155 11.5414 20.2155 12C20.2155 12.4586 20.1731 12.9117 20.0898 13.3555L20.0438 13.6003L20.2115 13.7845L21.2424 14.9166C21.5354 15.2383 21.5821 15.7014 21.3635 16.0702L20.5633 17.4198C20.3427 17.7919 19.8951 17.9931 19.4482 17.904L17.9244 17.6004L17.6907 17.5538L17.5074 17.706C16.7939 18.2982 15.9749 18.7606 15.0891 19.0673L14.8586 19.1471L14.7796 19.3778L14.2885 20.8124C14.1503 21.2161 13.7566 21.5 13.3002 21.5C13.7279 21.5 14.119 21.233 14.2604 20.82L14.8319 19.1505C14.8325 19.1498 14.8343 19.1481 14.8386 19.1468C15.8878 18.8204 16.851 18.2764 17.6654 17.5554C17.6665 17.5544 17.6688 17.5529 17.6725 17.5519C17.6763 17.5509 17.6805 17.5507 17.6846 17.5515L19.4587 17.9051C19.8779 17.9886 20.3127 17.8033 20.5341 17.4298L21.3343 16.0802C21.5577 15.7034 21.507 15.2291 21.2134 14.9068L20.0152 13.5909C20.1301 13.0719 20.1885 12.5395 20.1885 12C20.1885 11.4605 20.1301 10.9281 20.0152 10.4091L21.2134 9.09323C21.507 8.77086 21.5577 8.29663 21.3343 7.91984L20.5341 6.57016C20.3127 6.19666 19.8779 6.01141 19.4587 6.09495L17.6846 6.44848C17.6805 6.44929 17.6763 6.44912 17.6725 6.44811C17.6688 6.4471 17.6665 6.44557 17.6654 6.44458C16.851 5.72364 15.8878 5.17963 14.8386 4.85323C14.8343 4.8519 14.8325 4.85021 14.8319 4.84952L14.2604 3.17996C14.119 2.767 13.7279 2.5 13.3002 2.5C13.7566 2.5 14.1503 2.78386 14.2885 3.18759L14.7796 4.62218L14.8586 4.85294L15.0891 4.93274C15.9749 5.23943 16.7939 5.70175 17.5074 6.29399ZM10.2204 19.3778L10.1414 19.1471L9.91093 19.0673C9.02508 18.7606 8.2061 18.2982 7.49263 17.706L7.30927 17.5538L7.07556 17.6004L5.55175 17.904C5.10488 17.9931 4.65728 17.7919 4.43671 17.4198L3.63648 16.0702C3.41785 15.7014 3.4646 15.2383 3.75757 14.9166L4.78852 13.7845L4.95621 13.6003L4.91024 13.3555C4.82689 12.9117 4.78454 12.4586 4.78454 12C4.78454 11.5414 4.82689 11.0883 4.91024 10.6445L4.95621 10.3997L4.78852 10.2155L3.75757 9.0834C3.4646 8.76167 3.41785 8.29859 3.63648 7.92984L4.43671 6.58016C4.65728 6.20813 5.10488 6.00692 5.55175 6.09597L7.07556 6.39962L7.30927 6.44619L7.49263 6.29399C8.2061 5.70175 9.02508 5.23943 9.91093 4.93274L10.1414 4.85294L10.2204 4.62218L10.7115 3.18759L10.2384 3.02566L10.7115 3.18759C10.8497 2.78386 11.2434 2.5 11.6998 2.5C11.2721 2.5 10.881 2.767 10.7396 3.17996L10.1681 4.84952C10.1675 4.85021 10.1657 4.8519 10.1614 4.85323C9.11222 5.17963 8.14899 5.72364 7.33463 6.44458C7.3335 6.44558 7.33122 6.4471 7.32745 6.44811C7.32367 6.44912 7.31951 6.44929 7.31542 6.44848L5.5413 6.09495C5.12207 6.01141 4.68733 6.19666 4.46588 6.57016L3.66565 7.91984C3.44226 8.29662 3.49299 8.77085 3.78655 9.09323L4.98479 10.4091C4.86988 10.9281 4.81147 11.4605 4.81147 12C4.81147 12.5395 4.86988 13.0719 4.98479 13.5909L3.78655 14.9068L4.14941 15.2372L3.78655 14.9068C3.49299 15.2291 3.44226 15.7034 3.66565 16.0802L4.46588 17.4298C4.68733 17.8033 5.12207 17.9886 5.5413 17.9051L7.31542 17.5515C7.31951 17.5507 7.32367 17.5509 7.32745 17.5519C7.33122 17.5529 7.3335 17.5544 7.33462 17.5554C8.14899 18.2764 9.11222 18.8204 10.1614 19.1468C10.1657 19.1481 10.1675 19.1498 10.1681 19.1505L10.7396 20.82C10.881 21.233 11.2721 21.5 11.6998 21.5C11.2434 21.5 10.8497 21.2161 10.7115 20.8124L10.2204 19.3778Z" fill="#1436E5" stroke="#4D627C"/>
</svg>
