<svg width="24" height="24" viewBox="0 0 24 24" fill="none" xmlns="http://www.w3.org/2000/svg">
<path d="M17.8267 5.90926L19.3505 5.60561C20.0001 5.47617 20.6619 5.76601 20.9934 6.32516L21.7936 7.67484C22.1251 8.23399 22.052 8.93697 21.6121 9.42005L20.5812 10.5522C20.6703 11.0265 20.7155 11.5105 20.7155 12C20.7155 12.4895 20.6703 12.9735 20.5812 13.4478L21.6121 14.58C22.052 15.063 22.1251 15.766 21.7936 16.3252L20.9934 17.6748C20.6619 18.234 20.0001 18.5238 19.3505 18.3944L17.8267 18.0907C17.067 18.7214 16.1952 19.2134 15.2527 19.5397L14.7616 20.9743C14.5519 21.5869 13.9633 22 13.3002 22H11.6998C11.0367 22 10.4481 21.5869 10.2384 20.9743L9.74734 19.5397C8.80476 19.2134 7.93301 18.7214 7.17327 18.0907L5.64946 18.3944C4.99989 18.5238 4.33814 18.234 4.00662 17.6748L3.20639 16.3252C2.87488 15.766 2.94798 15.063 3.38789 14.58L4.41883 13.4478C4.32974 12.9735 4.28454 12.4895 4.28454 12C4.28454 11.5105 4.32974 11.0265 4.41883 10.5522L3.38789 9.42005C2.94798 8.93697 2.87488 8.23399 3.20639 7.67484L4.00662 6.32516C4.33814 5.76601 4.99989 5.47617 5.64946 5.60561L7.17327 5.90926C7.93301 5.27863 8.80476 4.78659 9.74734 4.46025L10.2384 3.02566C10.4481 2.41315 11.0367 2 11.6998 2H13.3002C13.9633 2 14.5519 2.41315 14.7616 3.02566L15.2527 4.46025C16.1952 4.78659 17.067 5.27863 17.8267 5.90926ZM14.6901 5.33066C14.534 5.28209 14.411 5.16388 14.3592 5.01249L13.7873 3.34189C13.7175 3.13771 13.5212 3 13.3002 3H11.6998C11.4788 3 11.2825 3.13771 11.2127 3.34189L10.6408 5.01249C10.589 5.16388 10.466 5.28209 10.3099 5.33066C9.3283 5.63604 8.42742 6.14494 7.66605 6.81895C7.54481 6.92629 7.37824 6.97082 7.21771 6.93884L5.44358 6.58531C5.22706 6.54216 5.00648 6.63878 4.89597 6.82516L4.09574 8.17484C3.98524 8.36122 4.00961 8.59555 4.15624 8.75658L5.35643 10.0746C5.46501 10.1938 5.50872 10.3563 5.47411 10.512C5.36633 10.997 5.31147 11.4949 5.31147 12C5.31147 12.5051 5.36633 13.003 5.47411 13.488C5.50872 13.6437 5.46501 13.8062 5.35643 13.9254L4.15624 15.2434C4.00961 15.4044 3.98524 15.6388 4.09574 15.8252L4.89597 17.1748C5.00648 17.3612 5.22706 17.4578 5.44358 17.4147L7.21771 17.0612C7.37824 17.0292 7.54481 17.0737 7.66605 17.181C8.42742 17.8551 9.3283 18.364 10.3099 18.6693C10.466 18.7179 10.589 18.8361 10.6408 18.9875L11.2127 20.6581C11.2825 20.8623 11.4788 21 11.6998 21H13.3002C13.5212 21 13.7175 20.8623 13.7873 20.6581L14.3592 18.9875C14.411 18.8361 14.534 18.7179 14.6901 18.6693C15.6717 18.364 16.5726 17.8551 17.3339 17.181C17.4552 17.0737 17.6218 17.0292 17.7823 17.0612L19.5564 17.4147C19.7729 17.4578 19.9935 17.3612 20.104 17.1748L20.9043 15.8252C21.0148 15.6388 20.9904 15.4044 20.8438 15.2434L19.6436 13.9254C19.535 13.8062 19.4913 13.6437 19.5259 13.488C19.6337 13.003 19.6885 12.5051 19.6885 12C19.6885 11.4949 19.6337 10.997 19.5259 10.512C19.4913 10.3563 19.535 10.1938 19.6436 10.0746L20.8438 8.75658C20.9904 8.59555 21.0148 8.36122 20.9043 8.17484L20.104 6.82516C19.9935 6.63878 19.7729 6.54216 19.5564 6.58531L17.7823 6.93884C17.6218 6.97082 17.4552 6.92629 17.3339 6.81895C16.5726 6.14494 15.6717 5.63604 14.6901 5.33066ZM12.5 16C10.2314 16 8.39227 14.2091 8.39227 12C8.39227 9.79086 10.2314 8 12.5 8C14.7686 8 16.6077 9.79086 16.6077 12C16.6077 14.2091 14.7686 16 12.5 16ZM12.5 15C14.2015 15 15.5808 13.6569 15.5808 12C15.5808 10.3431 14.2015 9 12.5 9C10.7985 9 9.4192 10.3431 9.4192 12C9.4192 13.6569 10.7985 15 12.5 15Z" fill="#4D627C"/>
</svg>
