<svg width="36" height="36" viewBox="0 0 36 36" fill="none" xmlns="http://www.w3.org/2000/svg">
<g clip-path="url(#clip0)">
<path d="M24.1373 10.1044C23.9127 9.20628 23.5385 8.30813 23.0894 7.48491L23.9876 5.38929L20.8441 2.32067L18.7485 3.21881C17.9252 2.76977 17.1019 2.39552 16.129 2.17096L15.3805 0.000488281H10.9647L10.1414 2.17096C9.24327 2.39552 8.34513 2.7697 7.52191 3.21881L5.42621 2.32067L2.35759 5.38929L3.25574 7.48491C2.8067 8.3082 2.43244 9.1315 2.20789 10.1044L0.0374146 10.9277V15.3435L2.20789 16.1668C2.43244 17.065 2.80663 17.9631 3.25574 18.7863L2.35759 20.8819L5.50106 23.9506L7.59669 23.0524C8.41998 23.5015 9.24327 23.8757 10.2162 24.1003L11.0395 26.2707H15.3804L16.2037 24.1003C17.1019 23.8757 18 23.5015 18.8232 23.0524L20.9189 23.9506L24.0623 20.8819L23.1642 18.7863C23.6132 17.963 23.9875 17.1397 24.212 16.1668L26.3825 15.3435V10.9277L24.1373 10.1044ZM13.1352 18.487C10.1414 18.487 7.74639 16.092 7.74639 13.0982C7.74639 10.1044 10.1414 7.70939 13.1352 7.70939C16.129 7.70939 18.524 10.1044 18.524 13.0982C18.524 16.092 16.129 18.487 13.1352 18.487Z" fill="#9AAABD"/>
<path d="M16.9519 16.9154C14.8563 19.011 11.4883 19.011 9.39264 16.9154L7.44672 18.8613C10.5902 22.0048 15.7544 22.0048 18.8978 18.8613C22.0412 15.7178 22.0413 10.6284 18.8978 7.41016L16.9519 9.35608C19.0476 11.4517 19.0476 14.8197 16.9519 16.9154Z" fill="#CDD9E8"/>
<path d="M7.44677 7.41009C4.30331 10.5536 4.30331 15.6429 7.44677 18.8612L9.39269 16.9153C7.29707 14.8197 7.29707 11.4516 9.39269 9.35601C11.4883 7.26039 14.8563 7.26039 16.952 9.35601L18.8979 7.41009C15.7545 4.26662 10.5902 4.26662 7.44677 7.41009Z" fill="#6F8196"/>
<path d="M25.4093 30.6866C25.4842 30.2376 25.4842 29.8633 25.4093 29.4143L26.1578 28.6658L25.4093 26.7948H24.3615C24.1369 26.4954 23.7628 26.196 23.4633 25.8966V24.8488L21.5923 24.1003L20.8438 24.8488C20.3948 24.7739 20.0205 24.7739 19.5715 24.8488L18.8231 24.1003L16.952 24.8488V25.8966C16.6526 26.1212 16.3533 26.4954 16.0539 26.7948H15.006L14.2576 28.6658L15.006 29.4143C14.9312 29.8633 14.9312 30.2376 15.006 30.6866L14.2576 31.435L15.006 33.3061H16.0539C16.2784 33.6055 16.6526 33.9048 16.952 34.2043V35.2521L18.8231 36.0005L19.5715 35.2521C20.0205 35.3269 20.3948 35.3269 20.8438 35.2521L21.5923 36.0005L23.4633 35.2521V34.2043C23.7628 33.9797 24.0621 33.6055 24.3615 33.3061H25.4093L26.1578 31.435L25.4093 30.6866ZM19.4218 32.2583C18.1495 31.7344 17.5507 30.3124 18.0746 29.1149C18.5985 27.8425 20.0205 27.2438 21.2181 27.7677C22.4904 28.2916 23.0892 29.7136 22.5653 30.9112C22.0413 32.1835 20.6193 32.7822 19.4218 32.2583Z" fill="#9AAABD"/>
<path d="M35.214 20.8822C35.2889 20.4331 35.2889 20.0589 35.214 19.6099L35.9625 18.8614L35.214 16.9903H34.1662C33.9416 16.6909 33.5674 16.3916 33.268 16.0922V15.0443L31.397 14.2959L30.6485 15.0443C30.1995 14.9695 29.8252 14.9695 29.3762 15.0443L28.6278 14.2959L26.7567 15.0443V16.0922C26.4573 16.3167 26.158 16.6909 25.8585 16.9903H24.8107L24.0623 18.8614L24.8107 19.6099C24.7358 20.0589 24.7358 20.4331 24.8107 20.8822L24.0623 21.6306L24.8107 23.5017H25.8585C26.0831 23.8011 26.4573 24.1004 26.7567 24.3998V25.4477L28.6278 26.1961L29.3762 25.4477C29.8252 25.5225 30.1995 25.5225 30.6485 25.4477L31.397 26.1961L33.268 25.4477V24.3998C33.5674 24.1753 33.8668 23.8011 34.1662 23.5017H35.214L35.9625 21.6306L35.214 20.8822ZM29.1517 22.5287C27.8794 22.0048 27.2806 20.5828 27.8045 19.3852C28.3284 18.1129 29.7505 17.5142 30.948 18.038C32.2203 18.5619 32.8191 19.984 32.2952 21.1815C31.8461 22.4538 30.424 23.0527 29.1517 22.5287Z" fill="#6F8196"/>
</g>
<defs>
<clipPath id="clip0">
<rect y="0.000488281" width="36" height="36" fill="white"/>
</clipPath>
</defs>
</svg>
