<svg width="64" height="64" viewBox="0 0 64 64" fill="none" xmlns="http://www.w3.org/2000/svg">
<path d="M61.3335 32.1765V49.3824C61.3335 51.5753 59.5426 53.353 57.3335 53.353H6.66664C4.45751 53.353 2.66663 51.5753 2.66663 49.3824V17.6177C2.66663 15.4248 4.45751 13.6471 6.66664 13.6471H24V11H6.66664C2.98663 11.0045 0.00437501 13.9647 0 17.6177V49.3824C0.00437501 53.0353 2.98663 55.9957 6.66664 56H57.3334C61.0135 55.9957 63.9956 53.0353 64 49.3824V32.1765H61.3335Z" fill="#4D627C"/>
<path d="M46 61H19V64H46V61Z" fill="#4D627C"/>
<path d="M26 55H23V63H26V55Z" fill="#4D627C"/>
<path d="M42 55H39V63H42V55Z" fill="#4D627C"/>
<path d="M62.6782 13.2143H59.0404C58.9664 13.0306 58.8897 12.8482 58.8091 12.6646L61.3845 10.0905C61.9003 9.57448 61.9003 8.73802 61.3845 8.22192L55.7777 2.61506C55.2617 2.09921 54.4252 2.09921 53.9092 2.61506L51.335 5.19048C51.1513 5.10983 50.9689 5.03327 50.7853 4.95919V1.32147C50.7855 0.591669 50.1939 0 49.4641 0H41.5356C40.8058 0 40.2142 0.591669 40.2142 1.32147V4.95932C40.0305 5.03327 39.8481 5.10996 39.6645 5.19061L37.0904 2.61519C36.5744 2.09933 35.7379 2.09933 35.2218 2.61519L29.615 8.22204C29.0992 8.73802 29.0992 9.57448 29.615 10.0906L32.1904 12.6648C32.1098 12.8485 32.0332 13.0308 31.9591 13.2144H28.3215C27.5917 13.2144 27 13.8061 27 14.5359V22.4645C27 23.1943 27.5917 23.7859 28.3215 23.7859H31.9593C32.0332 23.9697 32.1099 24.152 32.1906 24.3356L29.6152 26.9098C29.0993 27.4258 29.0993 28.2622 29.6152 28.7783L35.222 34.3852C35.7379 34.901 36.5744 34.901 37.0905 34.3852L39.6646 31.8098C39.8484 31.8904 40.0307 31.967 40.2143 32.0411V35.6785C40.2143 36.4083 40.806 37 41.5358 37H49.4642C50.194 37 50.7857 36.4083 50.7857 35.6785V32.0407C50.9694 31.9667 51.1518 31.89 51.3354 31.8094L53.9095 34.3848C54.4255 34.9007 55.2619 34.9007 55.778 34.3848L61.3848 28.778C61.9007 28.262 61.9007 27.4255 61.3848 26.9094L58.8094 24.3352C58.8901 24.1515 58.9667 23.9692 59.0407 23.7856H62.6785C63.4083 23.7856 64 23.1939 64 22.4641V14.5355C63.9996 13.8059 63.408 13.2143 62.6782 13.2143ZM61.3568 21.1429H58.1088C57.5316 21.1429 57.0213 21.5174 56.8481 22.0679C56.6368 22.7322 56.3671 23.3765 56.042 23.9932C55.7741 24.5052 55.8698 25.1321 56.2785 25.5406L58.5818 27.8439L54.8435 31.5822L52.5402 29.2776C52.1317 28.8689 51.5048 28.773 50.9928 29.0411C50.3761 29.366 49.7318 29.6359 49.0676 29.8472C48.517 30.0204 48.1425 30.5307 48.1425 31.1078V34.3572H42.8568V31.1091C42.8568 30.5319 42.4823 30.0216 41.9318 29.8484C41.2676 29.6371 40.6232 29.3674 40.0066 29.0423C39.4945 28.7744 38.8677 28.8701 38.4591 29.2788L36.1559 31.5821L32.4176 27.8438L34.7222 25.5405C35.1309 25.1319 35.2268 24.5051 34.9587 23.9931C34.6336 23.3764 34.364 22.7321 34.1526 22.0678C33.9794 21.5173 33.4691 21.1428 32.892 21.1428H29.6427V15.8571H32.8907C33.4679 15.8571 33.9782 15.4826 34.1514 14.9321C34.3627 14.2678 34.6324 13.6235 34.9575 13.0068C35.2254 12.4948 35.1297 11.8679 34.721 11.4594L32.4178 9.15613L36.156 5.41781L38.4593 7.72242C38.8678 8.13111 39.4947 8.227 40.0067 7.95891C40.6234 7.63397 41.2677 7.36415 41.9319 7.1528C42.4825 6.97961 42.857 6.46934 42.857 5.89216V2.64281H48.1427V5.89216C48.1427 6.46934 48.5172 6.97961 49.0677 7.1528C49.732 7.36415 50.3763 7.63384 50.993 7.95891C51.505 8.22688 52.1318 8.13111 52.5404 7.72242L54.8436 5.41781L58.5819 9.15613L56.2773 11.4594C55.8686 11.8679 55.7727 12.4948 56.0408 13.0068C56.3657 13.6235 56.6356 14.2678 56.8469 14.9321C57.0201 15.4826 57.5304 15.8571 58.1075 15.8571H61.3568V21.1429Z" fill="#4D627C"/>
<path d="M45.5 12C41.9101 12 39 14.9101 39 18.5C39 22.0898 41.9101 25 45.5 25C49.0881 24.9957 51.9957 22.088 52 18.5C52 14.9101 49.0898 12 45.5 12ZM45.5 22.4C43.3461 22.4 41.6 20.6539 41.6 18.5C41.6 16.3461 43.3461 14.6 45.5 14.6C47.6539 14.6 49.4 16.3461 49.4 18.5C49.4 20.6539 47.6539 22.4 45.5 22.4Z" fill="#4D627C"/>
<path d="M37.0916 38.0572L31.2968 43.7813L18.7529 31.3904C18.2259 30.8699 17.3714 30.8699 16.8442 31.3904L11.8405 36.3331H7V38.9998H12.3993C12.7573 38.9997 13.1005 38.8592 13.3536 38.6092L17.7985 34.2185L30.3424 46.6094C30.5955 46.8595 30.9388 47 31.2967 47C31.6547 46.9999 31.9978 46.8594 32.2509 46.6094L39 39.9426L37.0916 38.0572Z" fill="#4D627C"/>
<path d="M9.20003 16C6.88043 16 5 17.8804 5 20.2V23H7.79997V20.2C7.79997 19.4268 8.42683 18.8 9.20003 18.8H12V16H9.20003Z" fill="#4D627C"/>
<path d="M18 16H15V19H18V16Z" fill="#4D627C"/>
</svg>
