<svg width="64" height="64" viewBox="0 0 64 64" fill="none" xmlns="http://www.w3.org/2000/svg">
<path d="M58.6665 5H50.6665V7.66661H58.6665C60.1393 7.66661 61.3331 8.86049 61.3331 10.3332V47.6665C61.3331 49.1392 60.1393 50.3331 58.6665 50.3331H5.33335C3.86061 50.3331 2.66674 49.1392 2.66674 47.6665V10.3334C2.66674 8.86061 3.86061 7.66674 5.33335 7.66674H13.3333V5H5.33335C2.38787 5 0 7.38774 0 10.3334V47.6666C0 50.6121 2.38787 52.9999 5.33335 52.9999H58.6665C61.612 52.9999 63.9999 50.6122 63.9999 47.6666V10.3334C63.9997 7.38774 61.612 5 58.6665 5Z" fill="#4D627C"/>
<path d="M50.0294 56H12.9706C10.7777 56 9 57.7909 9 60C9 62.2091 10.7777 64 12.9706 64H50.0294C52.2223 64 54 62.2091 54 60C54 57.7909 52.2223 56 50.0294 56ZM50.0294 61.3334H12.9706C12.2396 61.3334 11.647 60.7364 11.647 60C11.647 59.2636 12.2396 58.6666 12.9706 58.6666H50.0294C50.7604 58.6666 51.353 59.2636 51.353 60C51.3529 60.7364 50.7604 61.3334 50.0294 61.3334Z" fill="#4D627C"/>
<path d="M40.6428 51H24.3572C23.6077 51 23 51.597 23 52.3334V57.6666C23 58.403 23.6077 59 24.3572 59H40.6428C41.3923 59 42 58.403 42 57.6666V52.3334C42 51.5969 41.3923 51 40.6428 51ZM39.2856 56.3332H25.7144V53.6666H39.2858V56.3332H39.2856Z" fill="#4D627C"/>
<path d="M44.0001 43C43.6465 43.0001 43.3075 43.1318 43.0575 43.3662L40.7815 45.5H23.2187L20.9427 43.3662C20.6927 43.1317 20.3535 43 20 43H0V45.5H19.448L21.724 47.6338C21.974 47.8683 22.3132 48 22.6667 48H41.3333C41.687 47.9999 42.026 47.8682 42.276 47.6338L44.552 45.5H64V43H44.0001Z" fill="#4D627C"/>
<path d="M51.088 10.8188C45.7884 9.22331 40.979 6.29425 37.1134 2.3075C36.9411 2.11312 36.7581 1.92857 36.5651 1.75497C33.7411 -0.785952 29.4079 -0.538536 26.8866 2.3075C23.0209 6.29425 18.2116 9.22331 12.912 10.8188C12.3672 11.0016 11.9999 11.5154 12 12.094C12 12.3466 12.224 37.3563 31.6346 42.9476C31.7534 42.9825 31.8764 43.0001 32 43C32.1236 43.0001 32.2466 42.9825 32.3654 42.9476C51.776 37.3563 52 12.3466 52 12.0939C52.0001 11.5153 51.6327 11.0016 51.088 10.8188ZM32 40.256C16.9066 35.6295 14.9546 17.4125 14.7026 13.0346C20.071 11.2666 24.9301 8.2053 28.8586 4.11613C28.974 3.98436 29.0975 3.8599 29.2283 3.74362C30.9631 2.20093 33.6105 2.36759 35.1414 4.11613C39.0694 8.20681 43.9286 11.2695 49.2974 13.0386C49.0454 17.4125 47.0934 35.6295 32 40.256Z" fill="#4D627C"/>
<path d="M46.1828 14.4199C41.4509 12.5273 37.185 9.65623 33.6727 6L31.6862 7.78597C35.2146 11.4787 39.4671 14.425 44.1855 16.446C43.2958 22.0774 40.6131 30.8978 32.4926 34.2459C23.8908 30.6976 21.3869 20.9993 20.6652 15.4674L18 15.8069C18.8118 22.031 21.7121 33.0367 32.014 36.9125C32.1667 36.9703 32.3289 37 32.4924 37C32.6569 37.0004 32.82 36.9707 32.9736 36.9125C43.2755 33.0459 46.1826 22.027 46.989 15.8081C47.0655 15.2195 46.7362 14.6525 46.1828 14.4199Z" fill="#4D627C"/>
<path d="M8 37H5V40H8V37Z" fill="#4D627C"/>
<path d="M14 37H11V40H14V37Z" fill="#4D627C"/>
<path d="M8 32H5V35H8V32Z" fill="#4D627C"/>
<path d="M59 37H56V40H59V37Z" fill="#4D627C"/>
<path d="M54 37H51V40H54V37Z" fill="#4D627C"/>
<path d="M59 32H56V35H59V32Z" fill="#4D627C"/>
</svg>
