<svg width="24" height="24" viewBox="0 0 24 24" fill="none" xmlns="http://www.w3.org/2000/svg">
<path d="M7.66032 10.8443L7.65994 10.8445L7.64999 10.849L7.63989 10.8542L7.59749 10.8761L7.04215 10.3918C6.13771 9.60325 5.57369 8.47693 5.50672 7.24724C5.58788 8.73719 6.39886 10.0752 7.65989 10.8444L7.66032 10.8443ZM12.1653 15.1104L11.9596 15.0184L11.8796 15.0547L11.2302 14.5469C10.2495 13.7798 9.59596 12.6166 9.50973 11.2984C9.66068 13.6043 11.5486 15.4362 13.8777 15.4984C13.2682 15.4821 12.69 15.345 12.1653 15.1104ZM16.1204 15.0547L16.0404 15.0184L15.8347 15.1104C15.3276 15.3371 14.7705 15.4728 14.1835 15.4963C16.4946 15.4036 18.357 13.568 18.4921 11.2681C18.414 12.5988 17.758 13.7739 16.7698 14.5469L16.1204 15.0547Z" fill="#1436E5" stroke="#4D627C"/>
</svg>
