<svg width="24" height="24" viewBox="0 0 24 24" fill="none" xmlns="http://www.w3.org/2000/svg">
<mask id="path-2-inside-1" fill="white">
<path d="M19 6V18.5C19 19.8807 17.8807 21 16.5 21H7.5C6.11929 21 5 19.8807 5 18.5V6H4.5C4.22386 6 4 5.77614 4 5.5C4 5.22386 4.22386 5 4.5 5H9V4.5C9 3.67157 9.67157 3 10.5 3H13.5C14.3284 3 15 3.67157 15 4.5V5H19.5C19.7761 5 20 5.22386 20 5.5C20 5.77614 19.7761 6 19.5 6H19ZM6 6V18.5C6 19.3284 6.67157 20 7.5 20H16.5C17.3284 20 18 19.3284 18 18.5V6H6ZM14 5V4.5C14 4.22386 13.7761 4 13.5 4H10.5C10.2239 4 10 4.22386 10 4.5V5H14ZM14 9.5C14 9.22386 14.2239 9 14.5 9C14.7761 9 15 9.22386 15 9.5V16.5C15 16.7761 14.7761 17 14.5 17C14.2239 17 14 16.7761 14 16.5V9.5ZM9 9.5C9 9.22386 9.22386 9 9.5 9C9.77614 9 10 9.22386 10 9.5V16.5C10 16.7761 9.77614 17 9.5 17C9.22386 17 9 16.7761 9 16.5V9.5Z"/>
</mask>
<path d="M19 6V18.5C19 19.8807 17.8807 21 16.5 21H7.5C6.11929 21 5 19.8807 5 18.5V6H4.5C4.22386 6 4 5.77614 4 5.5C4 5.22386 4.22386 5 4.5 5H9V4.5C9 3.67157 9.67157 3 10.5 3H13.5C14.3284 3 15 3.67157 15 4.5V5H19.5C19.7761 5 20 5.22386 20 5.5C20 5.77614 19.7761 6 19.5 6H19ZM6 6V18.5C6 19.3284 6.67157 20 7.5 20H16.5C17.3284 20 18 19.3284 18 18.5V6H6ZM14 5V4.5C14 4.22386 13.7761 4 13.5 4H10.5C10.2239 4 10 4.22386 10 4.5V5H14ZM14 9.5C14 9.22386 14.2239 9 14.5 9C14.7761 9 15 9.22386 15 9.5V16.5C15 16.7761 14.7761 17 14.5 17C14.2239 17 14 16.7761 14 16.5V9.5ZM9 9.5C9 9.22386 9.22386 9 9.5 9C9.77614 9 10 9.22386 10 9.5V16.5C10 16.7761 9.77614 17 9.5 17C9.22386 17 9 16.7761 9 16.5V9.5Z" fill="#1436E5"/>
<path d="M19 6V5H18V6H19ZM5 6H6V5H5V6ZM9 5V6H10V5H9ZM15 5H14V6H15V5ZM6 6V5H5V6H6ZM18 6H19V5H18V6ZM14 5V6H15V5H14ZM10 5H9V6H10V5ZM18 6V18.5H20V6H18ZM18 18.5C18 19.3284 17.3284 20 16.5 20V22C18.433 22 20 20.433 20 18.5H18ZM16.5 20H7.5V22H16.5V20ZM7.5 20C6.67157 20 6 19.3284 6 18.5H4C4 20.433 5.567 22 7.5 22V20ZM6 18.5V6H4V18.5H6ZM5 5H4.5V7H5V5ZM4.5 5C4.77614 5 5 5.22386 5 5.5H3C3 6.32843 3.67157 7 4.5 7V5ZM5 5.5C5 5.77614 4.77614 6 4.5 6V4C3.67157 4 3 4.67157 3 5.5H5ZM4.5 6H9V4H4.5V6ZM10 5V4.5H8V5H10ZM10 4.5C10 4.22386 10.2239 4 10.5 4V2C9.11929 2 8 3.11929 8 4.5H10ZM10.5 4H13.5V2H10.5V4ZM13.5 4C13.7761 4 14 4.22386 14 4.5H16C16 3.11929 14.8807 2 13.5 2V4ZM14 4.5V5H16V4.5H14ZM15 6H19.5V4H15V6ZM19.5 6C19.2239 6 19 5.77614 19 5.5H21C21 4.67157 20.3284 4 19.5 4V6ZM19 5.5C19 5.22386 19.2239 5 19.5 5V7C20.3284 7 21 6.32843 21 5.5H19ZM19.5 5H19V7H19.5V5ZM5 6V18.5H7V6H5ZM5 18.5C5 19.8807 6.11929 21 7.5 21V19C7.22386 19 7 18.7761 7 18.5H5ZM7.5 21H16.5V19H7.5V21ZM16.5 21C17.8807 21 19 19.8807 19 18.5H17C17 18.7761 16.7761 19 16.5 19V21ZM19 18.5V6H17V18.5H19ZM18 5H6V7H18V5ZM15 5V4.5H13V5H15ZM15 4.5C15 3.67157 14.3284 3 13.5 3V5C13.2239 5 13 4.77614 13 4.5H15ZM13.5 3H10.5V5H13.5V3ZM10.5 3C9.67157 3 9 3.67157 9 4.5H11C11 4.77614 10.7761 5 10.5 5V3ZM9 4.5V5H11V4.5H9ZM10 6H14V4H10V6ZM15 9.5C15 9.77614 14.7761 10 14.5 10V8C13.6716 8 13 8.67157 13 9.5H15ZM14.5 10C14.2239 10 14 9.77614 14 9.5H16C16 8.67157 15.3284 8 14.5 8V10ZM14 9.5V16.5H16V9.5H14ZM14 16.5C14 16.2239 14.2239 16 14.5 16V18C15.3284 18 16 17.3284 16 16.5H14ZM14.5 16C14.7761 16 15 16.2239 15 16.5H13C13 17.3284 13.6716 18 14.5 18V16ZM15 16.5V9.5H13V16.5H15ZM10 9.5C10 9.77614 9.77614 10 9.5 10V8C8.67157 8 8 8.67157 8 9.5H10ZM9.5 10C9.22386 10 9 9.77614 9 9.5H11C11 8.67157 10.3284 8 9.5 8V10ZM9 9.5V16.5H11V9.5H9ZM9 16.5C9 16.2239 9.22386 16 9.5 16V18C10.3284 18 11 17.3284 11 16.5H9ZM9.5 16C9.77614 16 10 16.2239 10 16.5H8C8 17.3284 8.67157 18 9.5 18V16ZM10 16.5V9.5H8V16.5H10Z" fill="#4D627C" mask="url(#path-2-inside-1)"/>
</svg>
