<svg width="270" height="270" viewBox="0 0 270 270" fill="none" xmlns="http://www.w3.org/2000/svg">
<path d="M170.179 131.081C168.879 133.878 166.979 136.049 164.984 137.308C162.983 138.57 160.949 138.883 159.302 138.118C157.656 137.352 156.584 135.596 156.259 133.252C155.935 130.915 156.37 128.064 157.67 125.266C158.97 122.469 160.869 120.299 162.865 119.04C164.866 117.778 166.9 117.464 168.546 118.23C170.193 118.995 171.265 120.752 171.59 123.095C171.914 125.432 171.479 128.284 170.179 131.081Z" stroke="black"/>
<path d="M133.504 129.827C133.534 132.912 132.754 135.689 131.495 137.684C130.232 139.685 128.531 140.843 126.716 140.861C124.9 140.879 123.176 139.755 121.874 137.78C120.575 135.81 119.74 133.048 119.71 129.964C119.679 126.88 120.459 124.103 121.719 122.107C122.982 120.107 124.682 118.949 126.498 118.931C128.314 118.913 130.037 120.037 131.339 122.012C132.638 123.982 133.473 126.743 133.504 129.827Z" stroke="black"/>
<g clip-path="url(#clip0)">
<path d="M128.255 145.893C128.255 145.893 128.219 146.179 128.342 146.658C128.444 147.136 128.734 147.814 129.315 148.537C129.6 148.899 129.957 149.266 130.349 149.714C130.751 150.106 131.174 150.519 131.694 150.922C132.718 151.721 133.946 152.526 135.387 153.224C136.819 153.948 138.469 154.539 140.242 155.104C142.01 155.654 143.93 156.281 145.922 156.658C146.941 156.856 147.975 157.081 149.03 157.254C150.1 157.453 151.119 157.621 152.219 157.621C154.404 157.743 156.569 157.529 158.745 157.198C160.9 156.785 163.029 156.316 165.077 155.68C167.14 155.099 169.112 154.34 170.981 153.535C171.924 153.148 172.81 152.684 173.707 152.282C174.578 151.839 175.434 151.4 176.269 150.978C177.905 150.071 179.438 149.19 180.824 148.313C182.189 147.406 183.427 146.556 184.502 145.761C185.607 145.007 186.473 144.223 187.258 143.652C188.75 142.419 189.606 141.716 189.606 141.716C189.642 141.686 189.698 141.691 189.734 141.726C189.759 141.757 189.759 141.808 189.734 141.838C189.734 141.838 189.046 142.71 187.742 144.166C187.064 144.87 186.254 145.741 185.235 146.647C184.257 147.6 183.04 148.553 181.71 149.582C181.022 150.071 180.309 150.58 179.57 151.11C178.796 151.589 177.996 152.083 177.176 152.593C175.495 153.55 173.661 154.462 171.695 155.231C169.723 155.98 167.655 156.704 165.49 157.188C163.34 157.723 161.098 158.013 158.867 158.161C157.741 158.181 156.636 158.303 155.515 158.242C154.399 158.257 153.289 158.257 152.209 158.166C151.653 158.11 151.144 158.156 150.563 158.064C150.028 157.993 149.493 157.931 148.964 157.88C147.904 157.758 146.849 157.692 145.815 157.605C143.691 157.427 141.704 157.106 139.819 156.597C137.945 156.082 136.223 155.384 134.71 154.564C133.207 153.729 131.923 152.786 130.935 151.783C130.436 151.299 130.002 150.779 129.62 150.31C129.289 149.847 128.938 149.403 128.703 148.945C128.214 148.053 128.006 147.249 128 146.698C127.99 146.143 128.092 145.873 128.092 145.873L128.102 145.853C128.118 145.807 128.169 145.786 128.214 145.802C128.235 145.812 128.26 145.853 128.255 145.893Z" fill="#153051"/>
<path d="M156.615 157.412C156.753 155.073 157.782 151.93 159.494 150.331C161.205 148.731 163.544 147.819 165.887 147.839C168.77 147.865 171.465 149.225 173.946 150.702C175.719 151.762 177.477 152.929 178.791 154.523C179.81 155.761 180.523 157.218 181.18 158.675C182.703 162.048 183.997 165.873 182.81 169.378C182.433 170.489 181.751 171.574 180.686 172.063C179.866 172.44 178.908 172.415 178.022 172.221C175.485 171.671 173.416 169.847 171.751 167.86C170.085 165.873 168.684 163.652 166.814 161.849C164.089 159.23 160.4 157.621 156.615 157.412Z" fill="white"/>
<path d="M156.529 157.407C156.529 157.407 156.513 157.106 156.539 156.51C156.569 155.924 156.682 155.068 156.957 153.994C157.237 152.929 157.711 151.635 158.719 150.351C159.748 149.113 161.292 148.023 163.202 147.457C165.102 146.872 167.4 146.938 169.504 147.687C171.628 148.415 173.534 149.694 175.439 151.034C177.344 152.384 179.183 154.146 180.324 156.342C180.936 157.412 181.455 158.522 181.955 159.648C182.459 160.779 182.943 161.93 183.305 163.143C184.028 165.537 184.278 168.314 183.035 170.795C182.719 171.406 182.276 171.997 181.664 172.44C181.058 172.893 180.289 173.143 179.581 173.199C178.144 173.296 176.891 172.899 175.734 172.374C173.437 171.263 171.786 169.465 170.477 167.764C169.147 166.052 168.083 164.401 166.916 163.061C164.588 160.402 161.847 158.986 159.866 158.308C158.872 157.952 158.052 157.763 157.492 157.656C156.926 157.554 156.626 157.498 156.626 157.498C156.575 157.493 156.544 157.447 156.549 157.402C156.554 157.356 156.595 157.325 156.636 157.325C156.636 157.325 156.946 157.325 157.532 157.32C158.118 157.335 158.974 157.407 160.059 157.621C161.144 157.83 162.428 158.252 163.829 158.93C165.23 159.592 166.707 160.637 168.062 162.002C169.422 163.357 170.64 165.002 171.934 166.607C173.238 168.191 174.705 169.76 176.555 170.739C177.461 171.202 178.521 171.549 179.469 171.508C180.406 171.493 181.139 170.953 181.695 170.046C182.77 168.191 182.866 165.7 182.403 163.377C181.924 161.029 180.956 158.726 179.871 156.607C178.76 154.467 176.886 152.98 174.904 151.89C172.917 150.769 170.93 149.791 169.025 149.19C167.125 148.578 165.266 148.451 163.605 148.884C161.949 149.297 160.548 150.122 159.55 151.08C158.592 152.078 158.052 153.265 157.629 154.218C157.227 155.191 157.018 156.001 156.89 156.556C156.763 157.106 156.722 157.417 156.722 157.417C156.717 157.468 156.671 157.498 156.62 157.493C156.564 157.493 156.529 157.447 156.529 157.407Z" fill="#153051"/>
<path d="M156.911 156.648C156.911 156.648 157.023 156.317 157.364 155.797C157.695 155.282 158.251 154.554 159.137 153.912C160.013 153.265 161.231 152.72 162.611 152.547C164.002 152.399 165.393 152.491 166.835 152.863C168.23 153.219 169.54 153.815 170.681 154.513C171.817 155.221 172.754 156.057 173.452 156.857C174.15 157.661 174.568 158.441 174.863 158.971C175.103 159.531 175.235 159.852 175.235 159.852C175.235 159.852 175.031 159.577 174.675 159.088C174.293 158.629 173.763 157.962 172.978 157.33C171.475 156.006 169.091 154.691 166.529 154.116C165.301 153.83 163.915 153.744 162.744 153.82C161.557 153.892 160.477 154.233 159.606 154.671C158.729 155.099 158.047 155.603 157.604 155.996C157.16 156.388 156.911 156.648 156.911 156.648Z" fill="#153051"/>
<path d="M89.5331 113.927C89.5229 113.927 89.5127 113.927 89.5025 113.927C89.0134 113.911 88.6314 113.499 88.6467 113.01C88.8148 108.063 92.1363 102.271 95.3304 99.1071C98.3667 96.0964 102.396 93.7988 107.302 92.2756L108.031 92.0515C109.941 91.4758 111.913 90.8798 113.115 89.4992C114.979 87.3596 114.495 84.0585 113.568 81.0528C113.247 80.4568 113.028 79.8149 112.942 79.1424C112.88 78.6941 113.166 78.2662 113.609 78.1592C114.057 78.0522 114.5 78.2917 114.658 78.7196C114.857 79.2596 115.051 79.82 115.229 80.3905C115.968 81.6488 117.353 82.5505 118.82 82.5862C120.848 82.6524 122.743 81.0783 123.115 79.1118C123.202 78.6432 123.67 78.3426 124.108 78.3935C124.577 78.4598 124.913 78.8775 124.873 79.3513C124.781 80.4058 124.674 81.5979 125.061 82.5607C125.356 83.2994 126.151 83.9973 126.885 83.8343C127.761 83.6458 128.072 82.5098 128.174 81.5062C127.955 80.8745 128.006 80.2224 128.321 79.6569C128.515 79.3156 128.917 79.1373 129.299 79.229C129.687 79.3207 129.967 79.6569 129.982 80.0543C130.003 80.4466 130.003 80.8185 129.982 81.1751C130.166 81.44 130.456 81.6234 130.726 81.6335C131.572 81.6896 132.188 80.9509 132.478 80.2275C132.85 79.3054 132.825 78.2102 132.794 77.1505C132.784 76.6768 133.141 76.2794 133.619 76.2437C134.124 76.2183 134.511 76.5494 134.567 77.0181C134.679 77.9198 135.525 78.312 135.886 78.4394C136.839 78.7807 137.889 78.6126 138.505 78.0268C139.055 77.5071 139.34 76.8092 139.412 76.0756C138.867 75.0364 138.479 73.8137 138.276 72.4485C138.215 72.0511 138.429 71.6639 138.8 71.5009C139.167 71.343 139.6 71.4449 139.85 71.7607C140.685 72.8051 141.2 74.2315 141.21 75.6426C141.618 76.3151 142.163 76.9417 142.876 77.3951C143.732 77.9452 144.898 78.1083 145.917 77.8383C146.697 77.6294 147.298 77.1811 147.614 76.5698C147.96 75.9075 148.042 75.0466 148.128 74.1347C148.266 72.6726 148.424 71.0169 149.84 70.0286C150.13 69.8249 150.517 69.8147 150.823 70.0032C151.124 70.1917 151.287 70.5432 151.231 70.8947C150.971 72.53 150.675 74.3843 151.2 75.9737C151.638 77.3034 152.973 78.582 154.338 78.3375C155.617 78.1083 156.447 76.7175 156.804 75.4898C156.992 74.8224 157.109 74.1347 157.227 73.4011C157.374 72.4841 157.532 71.5315 157.858 70.6043C157.996 70.2069 158.388 69.9624 158.811 70.0185C159.224 70.0694 159.55 70.4107 159.585 70.8234C159.728 72.5351 160.074 74.2264 160.614 75.8566C160.889 76.6768 161.139 76.8958 161.302 76.9366C161.501 76.9824 161.842 76.8194 162.234 76.4883C163.426 75.4694 164.303 74.0786 164.695 72.5656C164.812 72.1122 165.25 71.8269 165.729 71.9186C166.193 72.0103 166.503 72.4434 166.437 72.912C166.289 74.0022 166.249 75.1077 166.305 76.1979C166.315 76.4068 166.335 76.5239 166.356 76.5851C166.391 76.5596 166.498 76.5341 166.661 76.4577C170.339 74.802 172.189 69.9369 170.543 66.2537C170.345 65.8054 170.543 65.2858 170.986 65.082C171.425 64.8783 171.954 65.0719 172.163 65.5151C173.916 69.3002 175.464 73.2177 176.769 77.1862L178.317 73.9513C178.501 73.559 178.944 73.3603 179.362 73.4775C179.774 73.5947 180.049 73.9971 180.003 74.4251C179.978 74.6645 180.1 74.8785 180.37 75.0669C180.834 75.393 181.532 75.4643 181.99 75.2351C183.019 74.7307 183.615 73.4979 184.186 72.1734C184.344 71.8117 184.721 71.5926 185.113 71.6435C185.505 71.6945 185.816 71.9951 185.882 72.3822L187.039 79.5092C187.054 79.606 187.1 79.8964 187.156 79.9677C187.222 79.9422 187.64 79.6977 188.007 79.2086L194.222 70.9711C194.471 70.64 194.92 70.5228 195.297 70.696C195.674 70.8692 195.888 71.2768 195.801 71.6843L194.099 80.0085C193.768 81.6183 193.493 83.4318 194.41 84.5322C194.864 85.0773 195.587 85.4186 196.351 85.7803L196.575 85.8873C204.894 89.8456 211.344 97.8845 213.407 106.861C213.514 107.34 213.219 107.818 212.74 107.925C212.256 108.038 211.787 107.737 211.675 107.258C209.729 98.7964 203.646 91.2211 195.811 87.4869L195.592 87.3851C194.726 86.9775 193.748 86.5139 193.045 85.6632C191.506 83.8139 192.062 81.1037 192.357 79.6468L193.274 75.179L189.392 80.2988C189.158 80.6096 188.302 81.6386 187.217 81.7354C186.728 81.7711 186.269 81.6285 185.908 81.2922C185.409 80.8337 185.307 80.1969 185.246 79.8149L184.517 75.2962C184.064 75.9228 183.488 76.4883 182.739 76.8551C181.69 77.3696 180.319 77.2422 179.321 76.5443C179.244 76.4934 179.173 76.4373 179.107 76.3813L177.375 79.9983C177.217 80.3294 176.87 80.5332 176.509 80.4975C176.142 80.472 175.831 80.2224 175.724 79.8709C174.833 76.9569 173.809 74.0634 172.663 71.2258C172.036 74.1652 170.115 76.8602 167.364 78.0981C167.074 78.2305 166.177 78.633 165.373 78.1337C164.766 77.7618 164.588 77.12 164.532 76.6717C164.175 77.1047 163.783 77.502 163.36 77.8637C162.494 78.5973 161.659 78.8826 160.869 78.6941C159.545 78.3834 159.061 76.9213 158.903 76.4424C158.801 76.1368 158.704 75.8311 158.617 75.5203C158.577 75.6834 158.536 75.8464 158.49 76.0094C157.991 77.7517 156.712 79.7435 154.629 80.1154C152.295 80.5383 150.202 78.6635 149.504 76.6054C149.417 76.8805 149.315 77.1505 149.178 77.4103C148.632 78.47 147.629 79.2392 146.366 79.5754C144.853 79.9779 143.192 79.7334 141.908 78.9132C141.485 78.6381 141.083 78.312 140.726 77.9402C140.487 78.4445 140.161 78.9183 139.722 79.3309C138.617 80.3854 136.865 80.6962 135.28 80.1307C134.98 80.0237 134.705 79.8913 134.45 79.7334C134.379 80.1256 134.277 80.523 134.119 80.9102C133.589 82.2092 132.361 83.4726 130.644 83.4217C130.303 83.4064 129.957 83.3198 129.641 83.1669C129.213 84.4966 128.398 85.3422 127.252 85.5868C125.509 85.9586 123.971 84.6545 123.405 83.2332C123.314 83.0039 123.237 82.7645 123.181 82.5302C122.02 83.6917 120.4 84.4202 118.769 84.3743C117.786 84.3488 116.834 84.0534 115.988 83.5592C116.396 86.1318 116.176 88.6943 114.455 90.676C112.916 92.4488 110.695 93.1162 108.545 93.7683L107.832 93.9873C103.201 95.4239 99.4212 97.5737 96.5836 100.381C93.7155 103.228 90.5825 108.644 90.4297 113.081C90.4042 113.55 90.0119 113.927 89.5331 113.927Z" fill="#153051"/>
<path d="M65.3451 197.087C64.4944 197.087 63.664 197.051 62.8795 197.02C57.1585 196.776 50.2659 189.868 48.9312 188.034C47.8767 186.592 46.6438 184.641 46.4553 182.379C46.3076 180.622 45.9204 175.955 47.2297 172.899C51.1421 163.78 63.6538 149.709 76.9806 139.444C80.9542 136.382 87.6838 125.312 87.6685 120.855C87.6685 120.366 88.0659 119.963 88.555 119.963C89.044 119.963 89.4414 120.361 89.4414 120.85C89.4567 126.301 82.0495 137.778 78.0606 140.855C64.9478 150.952 52.6653 164.727 48.8599 173.602C47.7238 176.251 48.1008 180.754 48.2231 182.231C48.3759 184.055 49.4508 185.731 50.3678 186.99C51.9674 189.185 58.264 195.049 62.9559 195.248C64.8612 195.329 66.8276 195.411 68.7176 195.023C70.6942 194.616 72.304 193.684 73.2465 192.405C73.6183 191.906 73.8272 191.422 73.8731 190.973C73.9546 190.189 73.5267 189.297 72.7319 188.594C72.0085 187.958 71.1068 187.525 70.1491 187.061L69.8536 186.918C66.3538 185.222 63.3685 180.28 62.6146 178.136C61.9014 176.093 62.0185 173.459 62.4312 171.87C62.8285 170.331 63.2768 168.772 63.7659 167.234C63.9136 166.77 64.4129 166.505 64.8816 166.653C65.3502 166.801 65.61 167.3 65.4623 167.769C64.9834 169.277 64.5453 170.805 64.1531 172.313C63.8067 173.658 63.7353 175.95 64.2957 177.55C65.0089 179.582 67.7344 183.918 70.628 185.319L70.9184 185.461C71.9423 185.95 73.0019 186.46 73.9087 187.265C75.1314 188.345 75.7783 189.802 75.6408 191.157C75.5644 191.926 75.2383 192.705 74.6729 193.465C73.4706 195.095 71.4787 196.266 69.0742 196.766C67.8312 197.015 66.5678 197.087 65.3451 197.087Z" fill="#153051"/>
<path d="M161.195 201.417C159.152 201.417 157.089 201.177 155.107 200.469C152.754 199.624 150.971 198.182 150.079 196.409C149.422 195.105 149.188 193.526 149.407 191.855C149.972 187.576 153.503 183.638 158.403 181.819C162.734 180.214 167.522 180.25 171.761 180.275L182.449 180.347C186.988 180.382 191.669 180.413 195.918 178.762C199.652 177.31 203.565 173.856 203.875 169.399C203.911 168.91 204.385 168.548 204.823 168.574C205.312 168.609 205.684 169.032 205.648 169.521C205.327 174.121 201.756 178.401 196.555 180.418C191.99 182.191 186.927 182.155 182.433 182.12L171.745 182.048C167.461 182.018 163.039 181.992 159.02 183.48C154.73 185.069 151.648 188.447 151.169 192.079C151.047 192.996 151.037 194.351 151.664 195.599C152.351 196.964 153.783 198.095 155.708 198.783C159.412 200.108 163.625 199.583 167.339 199.119L189.087 196.399C198.888 195.171 211.089 193.648 219.597 186.49C221.543 184.855 222.882 183.24 223.708 181.554C224.441 180.041 224.813 178.35 225.104 176.75C229.036 155.196 221.278 133.158 214.079 116.372C213.886 115.924 214.095 115.399 214.548 115.205C214.996 115.012 215.521 115.221 215.715 115.669C223.01 132.689 230.87 155.043 226.851 177.066C226.535 178.793 226.133 180.622 225.302 182.333C224.37 184.249 222.877 186.052 220.743 187.851C211.833 195.344 199.347 196.908 189.311 198.162L167.563 200.882C165.535 201.147 163.375 201.417 161.195 201.417Z" fill="#153051"/>
<path d="M98.7079 114.461C90.9849 114.033 84.3521 110.702 77.3015 107.869C73.6438 106.402 72.9102 107.304 72.6045 111.257C72.1155 117.579 72.3294 118.292 78.2541 119.515C85.1875 120.946 92.2126 121.532 99.2887 121.379C100.43 121.354 100.435 119.576 99.2887 119.602C94.2911 119.709 89.3292 119.474 84.3775 118.776C82.1717 118.466 78.2847 118.384 76.2572 117.263C74.3468 116.204 73.1394 111.502 74.8206 109.693C75.009 108.633 75.5745 108.552 76.5119 109.459C77.1894 109.739 77.8619 110.024 78.5343 110.315C79.4819 110.717 80.4294 111.13 81.3821 111.532C83.1141 112.266 84.8462 112.989 86.6089 113.631C90.5417 115.062 94.5255 116.005 98.7079 116.239C99.849 116.3 99.8439 114.522 98.7079 114.461Z" fill="#153051"/>
<path d="M105.555 111.374C109.819 104.268 117.98 100.737 126.085 102.846C134.409 105.012 139.743 113.611 136.467 122.062C133.461 129.821 124.332 133.749 116.365 131.945C108.066 130.066 101.821 119.459 105.555 111.374C106.034 110.34 104.5 109.439 104.021 110.478C100.216 118.715 105.356 129.633 113.563 132.918C122.595 136.535 133.574 132.139 137.797 123.565C141.796 115.45 137.216 105.302 129.198 102.021C119.748 98.1546 109.223 101.802 104.016 110.478C103.43 111.456 104.969 112.353 105.555 111.374Z" fill="#153051"/>
<path d="M100.557 113.555C103.206 102.938 115.015 95.7244 125.616 98.1034C130.481 99.1936 134.806 102.006 138.153 105.653C142.066 109.922 143.365 114.584 142.799 120.315C142.209 126.301 137.649 130.967 132.702 134.034C128.082 136.897 122.504 136.708 117.272 136.179C111.928 135.639 107.088 133.998 103.828 129.52C100.476 124.915 99.2276 119.102 100.557 113.555C100.822 112.444 99.1104 111.97 98.8455 113.081C97.3987 119.097 98.6774 125.511 102.33 130.539C105.677 135.144 110.323 137.024 115.82 137.793C121.724 138.624 128.388 138.858 133.599 135.562C138.505 132.46 143.319 127.91 144.369 122.011C145.408 116.168 144.588 110.814 140.92 106.158C137.343 101.624 132.407 98.0066 126.773 96.5395C115.051 93.4829 101.8 101.231 98.8455 113.076C98.5653 114.191 100.282 114.665 100.557 113.555Z" fill="#153051"/>
<path d="M144.898 117.523C146.737 115.593 148.882 115.985 151.22 116.647C152.321 116.958 152.795 115.246 151.694 114.935C148.694 114.085 145.963 113.84 143.645 116.27C142.85 117.095 144.109 118.354 144.898 117.523Z" fill="#153051"/>
<path d="M144.328 122.444C144.628 121.828 147.395 121.792 148.092 121.756C149.162 121.7 150.349 121.67 151.394 121.925C152.504 122.195 152.978 120.483 151.867 120.213C150.441 119.866 148.816 119.882 147.369 120.035C145.994 120.177 143.497 120.101 142.794 121.548C142.3 122.572 143.828 123.473 144.328 122.444Z" fill="#153051"/>
<path d="M125.041 123.27C124.261 121.15 128.495 121.176 129.31 122.398C130.476 124.141 129.544 126.097 127.404 126.178C125.413 126.255 123.93 124.003 125.983 122.755C126.941 122.174 128.306 122.047 128.306 123.54C128.306 124.059 128.337 124.971 127.297 124.508C127.145 124.299 126.987 124.095 126.834 123.886C126.905 123.03 126.905 122.944 126.834 123.641C126.141 124.553 127.685 125.44 128.367 124.538C129.356 123.229 128.52 121.227 126.768 121.38C124.908 121.543 124.664 123.968 125.535 125.236C126.411 126.51 128.642 127.009 129.62 125.577C130.517 124.268 130.262 121.848 128.882 120.977C127.292 119.974 124.862 120.875 123.808 122.302C122.748 123.733 123.125 125.796 124.419 126.943C127.328 129.52 132.753 126.851 131.5 122.852C130.736 120.412 128.816 119.561 126.391 119.821C124.475 120.03 122.565 121.67 123.329 123.754C123.716 124.808 125.438 124.35 125.041 123.27Z" fill="#153051"/>
<path d="M157.155 114.385C157.339 104.777 168.643 99.912 176.758 100.177C181.216 100.32 184.93 101.089 187.915 104.65C190.885 108.19 192.408 112.867 191.639 117.447C191.043 121.018 189.148 124.859 186.886 127.707C183.753 131.65 178.893 131.971 174.16 131.685C169.968 131.436 165.031 130.498 161.659 127.839C157.512 124.574 157.115 119.291 157.155 114.385C157.165 113.239 155.388 113.239 155.377 114.385C155.337 119.245 155.77 124.732 159.427 128.359C162.917 131.823 168.674 133.035 173.386 133.417C178.108 133.805 183.921 133.606 187.421 129.948C190.493 126.739 193.035 121.334 193.539 116.917C194.069 112.256 192.469 107.559 189.581 103.916C186.336 99.8203 182.622 98.7097 177.522 98.4397C171.379 98.1086 166.942 99.2242 162.056 102.958C158.256 105.862 155.469 109.454 155.372 114.385C155.357 115.526 157.135 115.526 157.155 114.385Z" fill="#153051"/>
<path d="M152.453 112.974C154.175 102.118 165.108 95.3578 175.597 95.0827C186.545 94.7923 196.285 104.828 196.748 115.689C197.268 127.829 187.385 135.471 175.913 135.333C170.207 135.267 163.539 134.187 158.979 130.539C153.554 126.199 151.704 119.444 152.489 112.735C152.621 111.599 150.843 111.609 150.711 112.735C149.926 119.464 151.684 126.26 156.738 131.008C161.557 135.532 168.745 136.887 175.154 137.101C187.365 137.508 198.292 129.938 198.542 116.978C198.751 106.173 189.606 94.181 178.424 93.3251C166.289 92.398 152.744 99.8663 150.742 112.505C150.563 113.621 152.275 114.1 152.453 112.974Z" fill="#153051"/>
<path d="M198.465 113.488C199.408 112.016 203.407 111.176 205.001 110.636C206.514 110.126 208.038 109.657 209.571 109.224C212.495 108.404 219.912 105.368 219.984 111.028C220.03 114.813 217.758 114.11 215.445 114.1C213.259 114.09 211.074 113.916 208.899 113.784C205.236 113.56 201.558 112.959 197.885 113.01C196.743 113.025 196.738 114.803 197.885 114.787C201.547 114.742 205.236 115.343 208.899 115.562C212.164 115.76 217.294 116.835 220.361 115.618C223.407 114.416 221.843 110.157 220.829 107.717C219.194 103.773 215.75 105.852 212.189 106.708C208.572 107.579 205.006 108.674 201.527 109.994C199.861 110.625 197.925 111.033 196.932 112.587C196.31 113.56 197.849 114.451 198.465 113.488Z" fill="#153051"/>
<path d="M163.197 123.234C162.326 121.665 167.492 119.163 167.65 122.307C167.706 123.392 167.166 124.202 166.32 124.854C165.592 125.414 163.829 125.623 163.253 124.701C162.591 123.646 163.177 122.842 164.104 122.276C164.394 122.098 165.077 121.629 165.418 121.711C165.795 121.802 165.724 122.612 165.714 122.964C165.709 123.315 165.729 124.38 165.367 124.523C164.807 124.742 164.573 123.723 164.506 123.422C164.364 122.801 165.016 122.123 165.036 122.989C165.097 123.499 164.924 123.703 164.522 123.596C164.843 123.147 165.266 122.984 165.79 123.117C166.045 123.264 166.3 123.412 166.559 123.555C166.437 123.341 167.415 121.976 167.594 121.731C167.054 121.66 166.509 121.588 165.969 121.517C166.06 121.721 166.106 121.935 166.101 122.154C166.31 122.24 166.519 122.327 166.728 122.414C166.661 122.347 166.6 122.286 166.534 122.22C166.61 122.51 166.687 122.796 166.763 123.086C166.855 122.826 167.431 122.276 167.675 122.174C167.446 122.144 167.217 122.113 166.992 122.083C167.064 122.118 167.13 122.159 167.201 122.195C167.064 122.016 166.931 121.838 166.794 121.665C166.855 121.848 165.765 122.602 165.663 122.663C165.164 122.969 164.639 123.132 164.073 123.249C164.44 123.616 164.802 123.978 165.169 124.344C165.199 124.268 165.23 124.192 165.266 124.115C165.128 124.293 164.995 124.472 164.858 124.645C164.858 124.64 164.858 124.635 164.858 124.63C165.923 125.047 166.386 123.331 165.332 122.918C164.466 122.577 163.783 123.091 163.457 123.871C163.177 124.553 163.966 125.083 164.552 124.966C165.958 124.681 169.096 123.208 168.556 121.313C167.935 119.143 165.444 121.527 165.057 122.612C164.955 122.908 165.072 123.264 165.286 123.478C165.856 124.054 166.646 124.095 167.283 123.57C168.057 122.933 167.95 121.904 167.69 121.043C167.456 120.259 166.509 120.228 166.065 120.829C165.469 121.644 164.292 123.422 165.031 124.446C165.673 125.338 166.84 124.788 167.176 123.927C168.179 121.334 163.824 120.391 162.897 122.765C161.913 125.277 165.556 126.499 166.605 124.125C167.619 121.833 164.771 118.858 163.06 121.436C161.832 123.29 163.707 127.661 166.233 126.102C167.904 125.068 168.23 120.814 166.193 119.994C165.026 119.525 163.482 120.498 162.586 121.166C161.542 121.945 160.971 122.969 161.251 124.293C161.526 125.608 162.311 126.683 163.661 126.973C164.96 127.253 166.452 127.095 167.476 126.214C168.689 125.165 169.529 123.947 169.448 122.291C169.377 120.799 168.857 119.413 167.237 119.153C165.668 118.904 164.15 119.189 162.902 120.172C161.643 121.166 160.833 122.587 161.679 124.115C162.219 125.129 163.752 124.232 163.197 123.234Z" fill="#153051"/>
<path d="M107.761 167.799C107.48 167.799 107.231 167.738 107.063 167.702C102.172 166.546 97.3274 165.007 92.6559 163.143C92.3044 163 91.8663 162.827 91.5097 162.481C90.7506 161.757 90.7099 160.698 90.7302 159.765C90.771 157.789 90.9442 155.736 91.1072 153.749C91.2702 151.798 91.4383 149.78 91.4791 147.855C91.4485 147.412 91.7389 147.106 91.8408 147.004C93.6748 145.089 100.45 141.023 101.912 140.967C102.575 140.942 104.459 141.456 108.015 142.439C111.301 143.351 115.397 144.487 117.532 144.773C117.796 144.808 118.505 144.905 118.785 145.537C118.887 145.766 118.907 146.031 118.851 146.321C118.729 146.917 118.342 147.376 118.061 147.707C117.032 148.925 111.948 152.964 109.528 153.591C109.528 153.795 109.508 153.983 109.493 154.156C109.08 158.049 108.983 161.981 109.207 165.873C109.228 166.24 109.269 167.004 108.698 167.478C108.408 167.728 108.066 167.799 107.761 167.799ZM92.7781 148.869C92.7119 150.529 92.5693 152.221 92.4368 153.866C92.2738 155.827 92.1057 157.86 92.0649 159.801C92.0497 160.453 92.0649 161.171 92.4368 161.528C92.61 161.696 92.8851 161.803 93.1551 161.915C97.7604 163.759 102.544 165.272 107.373 166.413C107.735 166.5 107.832 166.475 107.862 166.464C107.873 166.444 107.903 166.337 107.883 165.96C107.654 162.002 107.75 157.992 108.173 154.049C108.194 153.846 108.214 153.657 108.199 153.509C107.358 153.015 102.911 151.553 92.7781 148.869ZM93.1602 147.585C104.246 150.529 107.71 151.742 108.841 152.368C108.886 152.358 108.932 152.353 108.978 152.348C110.415 152.307 115.886 148.222 117.048 146.851C117.241 146.622 117.455 146.367 117.532 146.123C117.496 146.118 117.44 146.107 117.358 146.097C115.127 145.797 111.159 144.696 107.659 143.728C105.244 143.056 102.513 142.302 101.984 142.302C101.979 142.302 101.968 142.302 101.963 142.302C101.138 142.373 95.3865 145.567 93.1602 147.585Z" fill="#153051"/>
<path d="M108.55 167.799C108.224 167.799 107.944 167.565 107.893 167.234C107.837 166.872 108.082 166.531 108.448 166.475C109.253 166.347 112.987 164.157 115.708 162.557C117.649 161.421 119.478 160.346 120.537 159.821C120.578 159.801 120.654 159.765 120.685 159.74C120.639 159.755 120.649 159.674 120.629 159.551C120.461 158.39 120.293 157.244 120.084 156.102C119.6 153.479 118.882 150.85 118.184 148.308L117.572 146.082C117.476 145.725 117.684 145.358 118.036 145.262C118.398 145.165 118.759 145.374 118.856 145.73L119.462 147.931C120.176 150.529 120.904 153.183 121.398 155.863C121.612 157.019 121.78 158.186 121.948 159.348C121.989 159.612 122.06 160.091 121.77 160.514C121.576 160.794 121.306 160.927 121.128 161.018C120.114 161.518 118.306 162.582 116.385 163.708C112.356 166.077 109.635 167.641 108.652 167.794C108.616 167.799 108.581 167.799 108.55 167.799Z" fill="#153051"/>
<path d="M124.485 170.295C124.307 170.295 123.828 170.229 120.675 169.771C117.022 169.241 111.505 168.441 108.484 168.13C108.117 168.095 107.852 167.764 107.888 167.397C107.924 167.03 108.234 166.765 108.622 166.801C111.668 167.117 117.2 167.921 120.863 168.451C122.626 168.706 124.292 168.945 124.501 168.961C124.776 168.859 130.227 166.561 133.141 164.549C129.366 162.822 125.377 161.61 121.276 160.932C120.909 160.871 120.665 160.53 120.726 160.168C120.787 159.806 121.113 159.551 121.49 159.618C126.08 160.372 130.527 161.788 134.71 163.815C134.913 163.912 135.051 164.111 135.081 164.33C135.107 164.554 135.02 164.778 134.852 164.921C132.178 167.183 125.122 170.255 124.526 170.29C124.511 170.295 124.501 170.295 124.485 170.295Z" fill="#153051"/>
<path d="M123.905 183.057C123.869 183.057 123.833 183.051 123.803 183.046C120.598 182.537 114.449 181.182 110.379 180.285C108.571 179.888 107.251 179.592 106.94 179.547C106.721 179.511 106.273 179.44 105.978 179.068C105.667 178.67 105.718 178.191 105.743 177.957L106.966 167.167C107.012 166.801 107.328 166.546 107.705 166.581C108.071 166.622 108.331 166.953 108.29 167.32L107.068 178.11C107.063 178.161 107.058 178.202 107.058 178.232C107.078 178.217 107.129 178.227 107.149 178.227C107.47 178.278 108.82 178.574 110.669 178.981C114.419 179.806 119.941 181.024 123.252 181.6C123.263 180.132 123.217 178.711 123.176 177.331C123.095 174.834 123.018 172.476 123.258 169.964C123.288 169.597 123.624 169.337 123.981 169.363C124.348 169.399 124.618 169.725 124.582 170.091C124.353 172.516 124.429 174.834 124.506 177.29C124.557 178.925 124.613 180.616 124.577 182.399C124.572 182.593 124.485 182.771 124.338 182.899C124.21 183.001 124.057 183.057 123.905 183.057Z" fill="#153051"/>
<path d="M123.996 183.164C123.701 183.164 123.436 182.97 123.354 182.669C123.258 182.313 123.466 181.946 123.823 181.854C126.574 181.11 134.577 177.488 135.336 177.06C135.29 177.086 135.29 176.979 135.245 176.668C135.117 175.797 134.985 174.941 134.852 174.085C134.389 171.09 133.905 167.998 133.752 164.625C133.737 164.258 134.022 163.948 134.389 163.927C134.699 163.907 135.066 164.192 135.087 164.564C135.234 167.86 135.693 170.784 136.172 173.882C136.304 174.743 136.442 175.604 136.569 176.475C136.615 176.796 136.727 177.539 136.223 178.059C135.815 178.477 126.813 182.43 124.175 183.143C124.113 183.158 124.052 183.164 123.996 183.164Z" fill="#153051"/>
<path d="M88.9268 172.522C87.8773 172.522 77.6683 169.083 76.3183 168.268C76.1502 168.166 76.0381 167.998 76.0024 167.809C75.9719 167.616 76.0228 167.422 76.1502 167.274C77.0773 166.164 88.4836 160.305 89.1051 160.127C89.7368 159.944 90.2309 160.183 90.8575 160.479C91.0766 160.586 91.3364 160.708 91.6522 160.84C91.9885 160.983 92.1464 161.375 92.0088 161.711C91.8662 162.048 91.4739 162.211 91.1326 162.068C90.7913 161.925 90.5162 161.793 90.2819 161.681C89.7826 161.441 89.5992 161.36 89.477 161.406C88.6058 161.727 80.5924 165.924 77.9638 167.57C80.8115 168.736 88.2085 171.121 88.9166 171.192C89.0439 171.177 89.2834 171.044 89.5177 170.912C91.7898 169.623 93.9039 168.573 95.9824 167.702C98.01 166.857 100.114 166.138 102.233 165.568C102.59 165.471 102.951 165.685 103.048 166.042C103.145 166.398 102.931 166.76 102.575 166.857C100.511 167.407 98.4634 168.105 96.4919 168.93C94.4643 169.776 92.396 170.805 90.1749 172.068C89.8488 172.252 89.4413 172.481 88.9522 172.522C88.9471 172.522 88.937 172.522 88.9268 172.522Z" fill="#153051"/>
<path d="M89.2121 184.829C88.9115 184.829 88.6568 184.712 88.5091 184.646C86.5325 183.744 82.8951 182.746 79.971 181.936C75.1161 180.596 74.7136 180.438 74.6015 179.796C74.5455 179.475 74.6168 179.19 74.6729 178.966C74.8461 178.242 75.1161 175.573 75.3504 173.225C75.6102 170.662 75.8497 168.247 76.0127 167.555C76.0942 167.193 76.461 166.974 76.8125 167.055C77.1742 167.142 77.3932 167.499 77.3117 167.855C77.1691 168.466 76.9093 171.065 76.6749 173.357C76.41 175.981 76.1604 178.462 75.9923 179.18C75.977 179.246 75.9617 179.302 75.9515 179.353C76.6495 179.643 78.5904 180.178 80.3225 180.657C83.2721 181.472 86.9451 182.481 89.0236 183.423C89.0236 183.408 89.0236 183.398 89.0236 183.378C89.1561 179.745 89.1051 176.062 88.8759 172.43C88.8504 172.063 89.1306 171.747 89.4974 171.722C89.8693 171.671 90.18 171.976 90.2055 172.343C90.4398 176.021 90.4908 179.75 90.3583 183.429C90.3329 184.121 90.0832 184.57 89.6146 184.758C89.4821 184.804 89.3446 184.829 89.2121 184.829Z" fill="#153051"/>
<path d="M90.1189 184.738C89.854 184.738 89.6043 184.58 89.5025 184.32C89.3649 183.979 89.5279 183.591 89.8693 183.449C90.231 183.301 91.4179 182.776 93.0074 182.068C96.9147 180.331 103.451 177.427 105.85 176.577C106.197 176.449 106.579 176.638 106.701 176.984C106.823 177.33 106.64 177.713 106.293 177.835C103.94 178.665 97.4343 181.559 93.5474 183.286C91.9376 184.004 90.7353 184.539 90.3685 184.687C90.287 184.722 90.2055 184.738 90.1189 184.738Z" fill="#153051"/>
<path d="M104.526 177.876C104.174 177.876 103.879 177.601 103.858 177.244C103.741 175.074 103.42 172.649 103.11 170.311C102.921 168.879 102.733 167.453 102.59 166.098C102.554 165.731 102.819 165.405 103.186 165.364C103.573 165.323 103.879 165.593 103.92 165.96C104.062 167.305 104.246 168.716 104.434 170.137C104.75 172.501 105.071 174.951 105.193 177.173C105.213 177.539 104.933 177.855 104.566 177.876C104.551 177.876 104.536 177.876 104.526 177.876Z" fill="#153051"/>
<path d="M77.8772 187.377C77.4595 187.377 76.7157 187.025 73.0579 185.155C70.1644 183.673 66.5576 181.834 64.7796 181.243C64.5504 181.167 64.3772 180.968 64.3313 180.728C64.2855 180.489 64.3823 180.244 64.5708 180.092C65.1312 179.638 66.3996 179.114 67.877 178.523C68.2591 178.37 68.5953 178.237 68.8296 178.13C69.7466 177.728 70.8572 177.229 71.9678 176.729C73.0936 176.225 74.2144 175.716 75.1466 175.308C75.4778 175.16 75.8751 175.313 76.0229 175.649C76.1706 175.986 76.0178 176.378 75.6815 176.526C74.7544 176.933 73.6336 177.437 72.5128 177.942C71.4023 178.441 70.2866 178.94 69.3696 179.348C69.1251 179.455 68.7736 179.597 68.3762 179.755C67.8413 179.969 67.1638 180.239 66.5779 180.504C68.5647 181.35 71.3462 182.771 73.6693 183.963C75.4981 184.901 77.5715 185.96 77.9536 186.042C81.4585 185.66 86.8687 184.727 88.7536 184.152C89.1102 184.045 89.477 184.244 89.584 184.595C89.691 184.947 89.4923 185.318 89.1408 185.425C87.1591 186.027 81.7285 186.969 77.9587 187.361C77.9281 187.377 77.9027 187.377 77.8772 187.377Z" fill="#153051"/>
<path d="M75.7528 201.335C75.4013 201.335 75.0803 201.249 74.8409 201.182C71.6162 200.306 68.5239 199.007 65.6507 197.316C65.3349 197.127 65.2279 196.72 65.4113 196.404C65.5947 196.088 66.0073 195.981 66.3232 196.164C69.0996 197.795 72.0798 199.053 75.1873 199.893C75.4268 199.96 75.6407 200.006 75.7935 199.995C75.9413 199.985 76.1196 199.929 76.3081 199.863L89.9405 195.186C90.2971 195.064 90.669 195.252 90.7862 195.599C90.9085 195.945 90.72 196.327 90.3736 196.445L76.7513 201.121C76.4864 201.213 76.2011 201.31 75.87 201.33C75.8343 201.335 75.7935 201.335 75.7528 201.335Z" fill="#153051"/>
<path d="M76.894 200.52C76.8481 200.52 76.8074 200.515 76.7615 200.505C76.3998 200.433 76.1655 200.082 76.2419 199.72C76.5272 198.309 76.787 194.504 77.001 191.442C77.1436 189.369 77.2659 187.575 77.3779 186.745C77.4289 186.383 77.7498 186.123 78.1268 186.174C78.4936 186.22 78.7483 186.556 78.7025 186.923C78.5955 187.713 78.4732 189.486 78.3357 191.539C78.1115 194.799 77.8568 198.492 77.5563 199.99C77.4849 200.306 77.2047 200.52 76.894 200.52Z" fill="#153051"/>
<path d="M107.975 203.302C107.032 203.302 90.7149 196.944 90.5519 196.878C90.3226 196.786 90.1647 196.572 90.1393 196.327C89.7623 192.456 89.4515 188.91 89.4974 184.779C89.5025 184.412 89.7725 184.071 90.1698 184.121C90.5366 184.127 90.8321 184.427 90.827 184.794C90.7862 188.717 91.0715 192.12 91.4281 195.798C94.4491 196.995 106.482 201.559 107.898 201.962C108.02 201.921 108.163 201.829 108.306 201.743C111.062 200.062 114.078 198.849 116.992 197.677C118.871 196.924 120.817 196.139 122.662 195.247C122.723 195.222 122.825 195.171 122.86 195.135C122.921 192.39 122.855 190.525 122.799 188.925C122.728 186.801 122.667 185.12 122.738 182.766C122.748 182.4 123.059 182.15 123.426 182.119C123.792 182.13 124.083 182.44 124.073 182.807C124.001 185.12 124.057 186.781 124.134 188.88C124.19 190.484 124.251 192.359 124.276 195.003C124.282 195.385 124.108 195.767 123.798 196.083C123.614 196.261 123.421 196.363 123.242 196.45C121.362 197.367 119.396 198.156 117.491 198.921C114.628 200.072 111.663 201.259 109.014 202.879C108.739 203.047 108.408 203.251 107.995 203.307C107.985 203.302 107.98 203.302 107.975 203.302Z" fill="#153051"/>
<path d="M107.725 188.905C107.71 188.905 107.699 188.905 107.689 188.905C106.966 188.874 95.9366 186.607 90.8932 184.646C90.5519 184.514 90.3787 184.127 90.5111 183.785C90.6436 183.444 91.0257 183.276 91.3721 183.403C96.1862 185.278 107.022 187.519 107.745 187.575C108.81 187.575 117.129 184.233 120.074 181.849C120.364 181.615 120.782 181.661 121.011 181.946C121.24 182.231 121.194 182.654 120.914 182.883C118.005 185.242 109.314 188.905 107.725 188.905Z" fill="#153051"/>
<path d="M108.209 202.201C108.061 202.201 107.913 202.155 107.796 202.059C107.592 201.901 107.496 201.666 107.496 201.371C107.496 201.096 107.44 199.746 107.373 197.988C107.241 194.621 107.058 190.005 107.058 188.243C107.058 187.876 107.358 187.575 107.725 187.575C108.092 187.575 108.392 187.876 108.392 188.243C108.392 189.98 108.581 194.769 108.708 197.937C108.774 199.578 108.825 200.867 108.83 201.284C108.922 201.503 108.897 201.758 108.739 201.957C108.596 202.12 108.402 202.201 108.209 202.201Z" fill="#153051"/>
<path d="M140.298 188.655C140.293 188.655 140.288 188.655 140.283 188.655C139.646 188.645 128.841 185.655 124.103 184.147C123.859 184.254 123.573 184.213 123.375 184.02L123.084 183.739C122.86 183.52 122.819 183.179 122.982 182.914C123.146 182.649 123.466 182.532 123.762 182.629C128.199 184.101 138.912 187.03 140.252 187.305C141.067 186.979 145.163 184.763 147.649 183.413C148.419 182.996 149.122 182.613 149.687 182.313C145.968 180.683 137.292 178.36 136.121 178.197C135.754 178.146 135.504 177.81 135.555 177.443C135.606 177.081 135.912 176.821 136.309 176.877C137.573 177.056 148.622 179.99 151.49 181.732C151.699 181.86 151.816 182.084 151.811 182.328C151.801 182.573 151.664 182.787 151.445 182.899C150.971 183.138 149.748 183.8 148.286 184.59C141.149 188.452 140.634 188.655 140.298 188.655Z" fill="#153051"/>
<path d="M142.509 204.646C142.387 204.646 142.259 204.626 142.127 204.57C141.541 204.325 141.414 203.689 141.363 203.454C141.144 202.374 140.578 197.137 140.12 192.929C139.891 190.841 139.707 189.124 139.636 188.589C139.585 188.222 139.845 187.886 140.206 187.84C140.568 187.789 140.909 188.049 140.955 188.411C141.027 188.951 141.215 190.678 141.444 192.787C141.877 196.75 142.463 202.176 142.667 203.189C142.672 203.2 142.672 203.205 142.672 203.215C142.733 203.184 142.794 203.149 142.85 203.123C145.51 201.901 147.451 201.07 149.621 200.148L152.29 199.002C152.626 198.859 153.019 199.012 153.166 199.348C153.314 199.684 153.156 200.077 152.82 200.224L150.146 201.371C147.986 202.293 146.06 203.118 143.411 204.336C143.141 204.478 142.84 204.646 142.509 204.646Z" fill="#153051"/>
<path d="M152.122 187.805C152.076 187.805 152.035 187.8 151.99 187.789C151.628 187.718 151.394 187.361 151.47 187C151.608 186.332 151.353 183.846 151.205 183.031C151.185 183.031 151.159 183.031 151.139 183.031L151.001 182.364L151.124 181.697C151.424 181.686 152.086 181.686 152.377 182.293C152.611 182.771 152.973 186.271 152.769 187.265C152.708 187.591 152.433 187.805 152.122 187.805Z" fill="#153051"/>
<path d="M142.127 204.769C142.061 204.769 141.995 204.759 141.928 204.738C140.268 204.229 138.658 203.541 137.099 202.874L135.046 201.998C130.991 200.26 126.793 198.467 122.707 196.608C122.371 196.455 122.223 196.057 122.376 195.726C122.529 195.39 122.926 195.242 123.258 195.395C127.328 197.25 131.521 199.043 135.571 200.775L137.619 201.651C139.152 202.303 140.726 202.981 142.321 203.47C142.672 203.577 142.871 203.954 142.764 204.305C142.672 204.585 142.407 204.769 142.127 204.769Z" fill="#153051"/>
<path d="M101.413 153.229C101.571 154.717 101.535 161.508 98.5347 159.74C96.0334 158.268 96.7823 154.554 97.6279 152.384C98.0456 151.319 96.3238 150.855 95.9162 151.91C94.6885 155.053 94.4439 160.504 98.5806 161.681C103.002 162.939 103.486 155.991 103.191 153.229C103.069 152.104 101.291 152.088 101.413 153.229Z" fill="#153051"/>
<path d="M93.3487 171.813C93.8276 174.152 94.4643 176.444 95.2642 178.696C95.8347 178.538 96.4053 178.38 96.9759 178.222C96.39 176.786 95.7277 174.656 96.334 173.123C96.5989 172.45 97.3019 171.961 97.954 172.588C98.2138 172.837 98.3411 173.439 98.4583 173.77C98.7742 174.651 98.9932 175.553 99.1715 176.47C99.3906 177.59 101.102 177.117 100.883 175.996C100.486 173.933 99.4925 169.256 96.3696 170.581C93.4047 171.844 94.3319 176.403 95.2642 178.696C95.6819 179.73 97.3681 179.323 96.9759 178.222C96.176 175.97 95.5393 173.683 95.0604 171.34C94.8362 170.224 93.1194 170.698 93.3487 171.813Z" fill="#153051"/>
<path d="M112.957 173.637C113.176 174.646 113.313 175.655 113.339 176.684C113.354 177.27 113.099 178.243 113.482 178.752C113.767 179.129 114.246 179.348 114.699 179.073C114.719 179.063 114.735 179.053 114.755 179.037C115.183 178.778 115.295 178.258 115.076 177.82C115.071 177.805 115.061 177.789 115.056 177.774C114.541 176.755 113.003 177.652 113.522 178.671C113.527 178.686 113.538 178.701 113.543 178.716C113.65 178.309 113.757 177.906 113.864 177.499C113.843 177.509 113.828 177.519 113.808 177.535C114.215 177.642 114.618 177.749 115.025 177.856C115.096 178.278 115.122 178.258 115.117 177.789C115.127 177.545 115.132 177.3 115.132 177.051C115.132 176.623 115.112 176.19 115.076 175.762C115.005 174.886 114.867 174.019 114.679 173.164C114.424 172.043 112.712 172.517 112.957 173.637Z" fill="#153051"/>
<path d="M114.052 170.306C114.037 170.346 114.027 170.387 114.011 170.428C113.833 170.566 113.655 170.698 113.482 170.836C113.273 170.616 113.064 170.397 112.855 170.178C112.993 170 113.125 169.822 113.263 169.649C113.212 169.669 113.161 169.694 113.11 169.715C113.41 169.715 113.706 169.715 114.006 169.715C114.078 169.868 114.144 170.015 114.215 170.168C114.006 170.377 113.803 170.581 113.594 170.79C113.497 170.759 113.395 170.723 113.298 170.693C113.212 170.484 113.125 170.275 113.038 170.066C113.064 170.015 113.084 169.964 113.11 169.913C113.288 169.776 113.466 169.643 113.64 169.506C113.594 169.521 113.548 169.542 113.502 169.557C112.442 169.959 112.901 171.676 113.976 171.269C115.158 170.82 115.056 169.205 113.752 169.022C112.565 168.854 111.943 170.336 112.86 171.111C113.838 171.936 115.056 170.708 114.48 169.664C113.884 168.584 112.157 169.053 112.284 170.306C112.386 171.437 114.164 171.447 114.052 170.306Z" fill="#153051"/>
<path d="M101.041 189.139C99.9153 188.762 98.7792 188.431 97.6228 188.172C96.8994 188.009 96.0232 187.698 95.5647 188.477C95.1317 189.216 95.3406 190.444 95.3457 191.259C95.3558 192.573 95.366 193.887 95.3762 195.202C95.3864 196.343 97.1643 196.348 97.1541 195.202C97.1491 194.198 97.1389 193.195 97.1338 192.186C97.1287 191.529 96.8332 189.878 97.144 189.297C96.8892 189.445 96.6345 189.593 96.3747 189.736C97.6789 189.685 99.3549 190.439 100.572 190.846C101.652 191.218 102.121 189.501 101.041 189.139Z" fill="#153051"/>
<path d="M96.7008 193.791C96.5378 193.872 97.2103 193.892 97.3835 193.918C97.7655 193.974 98.1476 194.03 98.5297 194.081C99.6504 194.244 100.134 192.527 99.0035 192.369C98.0152 192.227 96.7467 191.783 95.8042 192.257C94.7802 192.767 95.682 194.3 96.7008 193.791Z" fill="#153051"/>
<path d="M112.682 189.017C112.789 191.294 113.084 193.546 113.573 195.777C113.726 196.47 114.587 196.587 115.061 196.169C116.064 195.278 117.593 195.309 118.652 194.412C119.529 193.673 118.265 192.42 117.394 193.154C116.36 194.03 114.857 193.974 113.803 194.911C114.297 195.044 114.791 195.171 115.29 195.303C114.837 193.225 114.562 191.141 114.465 189.017C114.409 187.881 112.631 187.876 112.682 189.017Z" fill="#153051"/>
<path d="M127.552 187.703C127.781 189.664 128.601 192.507 131.174 192.155C132.366 191.992 135.209 189.603 133.65 188.39C133.191 188.034 132.28 188.044 132.162 188.783C131.964 190.072 132.315 191.07 132.601 192.318C133.084 194.417 130.135 195.018 128.841 193.862C127.99 193.103 126.727 194.356 127.583 195.12C129.192 196.562 131.378 196.587 133.135 195.349C133.828 194.86 134.384 194.264 134.485 193.393C134.654 191.972 133.65 190.693 133.869 189.262C133.375 189.394 132.881 189.521 132.381 189.654C132.28 189.155 132.152 189.139 132.004 189.613C131.643 190.189 131.082 190.398 130.328 190.25C129.498 189.832 129.411 188.497 129.32 187.713C129.198 186.582 127.42 186.567 127.552 187.703Z" fill="#153051"/>
<path d="M89.798 196.73C93.527 198.457 97.3733 199.955 101.189 201.483C102.773 202.12 106.92 204.611 108.433 202.925C108.815 202.502 108.189 201.87 107.806 202.298C106.711 203.521 101 200.454 99.9612 200.036C96.7059 198.727 93.4354 197.438 90.2514 195.961C89.7318 195.726 89.2784 196.49 89.798 196.73Z" fill="#153051"/>
<path d="M99.2276 200.22C100.297 200.383 101.459 201.59 102.422 202.064C103.486 202.583 104.663 202.843 105.809 203.123C106.365 203.256 106.604 202.4 106.044 202.268C104.628 201.926 103.273 201.575 102.009 200.811C101.245 200.347 100.353 199.501 99.4619 199.364C98.9016 199.277 98.6621 200.133 99.2276 200.22Z" fill="#153051"/>
<path d="M74.3417 112.317C74.4537 112.78 74.5709 113.249 74.683 113.713C75.2536 113.555 75.8241 113.397 76.3947 113.239C76.1705 112.373 75.9413 111.507 75.7172 110.641C75.4268 109.535 73.7304 109.999 74.0055 111.114C74.0819 111.42 74.1532 111.726 74.2296 112.031C74.8002 111.874 75.3707 111.716 75.9413 111.558C75.4828 110.167 80.4294 112.138 80.8726 112.286C82.9307 112.989 85.0602 113.595 87.047 114.487C88.5905 115.18 89.8234 115.735 91.5096 116.041C92.1056 116.148 99.3956 116.744 96.5021 118.303C95.5749 118.802 92.1464 118.017 91.0409 117.951C89.6807 117.87 88.3155 117.783 86.9553 117.701C83.1294 117.467 77.327 118.17 75.7121 113.881C73.9698 109.25 76.8277 112.393 79.1253 113.218C81.9119 114.217 84.8054 114.711 87.6277 115.562C88.8402 115.929 89.9456 116.402 91.2039 116.606C91.6624 116.683 96.3339 117.141 95.9213 117.574C96.4155 117.707 96.9096 117.834 97.4089 117.966C97.1338 117.187 97.0675 117.019 96.6498 116.301C96.2932 115.684 95.1673 115.74 95.0247 116.514C94.9177 117.1 94.8107 117.681 94.7089 118.267C95.2489 118.196 95.7939 118.124 96.334 118.053C96.0996 117.416 95.7838 116.825 95.3813 116.28C94.9687 115.633 93.9855 115.75 93.7562 116.494C93.6187 116.851 93.4811 117.202 93.3487 117.559C93.8123 117.498 94.2809 117.437 94.7445 117.381C94.6324 117.105 94.5204 116.825 94.4032 116.55C94.1128 115.511 92.7781 115.847 92.6558 116.784C92.5947 117.274 92.5285 117.763 92.4673 118.257C93.0175 118.109 93.5728 117.956 94.123 117.808C93.909 117.233 93.7002 116.657 93.4862 116.081C93.2213 115.185 92.0802 115.297 91.7745 116.081C91.9121 116.132 92.0445 116.183 92.1821 116.234C91.6879 115.491 90.5773 115.791 90.5264 116.683C90.5315 116.418 90.5366 116.153 90.5417 115.888C90.073 115.277 88.8045 115.348 88.886 116.336C89.8234 116.693 90.0424 116.606 89.5381 116.081C89.0287 115.348 87.9487 115.628 87.8824 116.53C87.8519 116.932 87.8264 117.335 87.7958 117.737C88.346 117.589 88.9013 117.437 89.4515 117.289C89.2171 116.79 88.9828 116.285 88.7434 115.786C88.3715 114.859 87.0877 114.986 86.996 116.02C87.7755 116.499 87.857 116.229 87.2405 115.215C86.9298 114.242 85.5645 114.451 85.4932 115.45C85.4524 116.036 85.4117 116.621 85.3709 117.212C85.9211 117.065 86.4764 116.912 87.0266 116.764C86.8585 116.275 86.6904 115.786 86.5172 115.297C86.2726 114.288 84.8258 114.563 84.7698 115.531C84.729 116.229 84.6883 116.927 84.6475 117.625C85.1519 117.416 85.6613 117.207 86.1656 116.998C85.5594 116.448 85.4066 115.445 85.1722 114.706C84.8717 113.769 83.4249 113.911 83.4249 114.94C84.3877 115.985 84.5915 115.934 84.0413 114.798C83.7255 113.84 82.35 114.023 82.2939 115.032C83.2517 115.501 83.4402 115.226 82.8543 114.202C82.5996 113.208 81.1426 113.453 81.107 114.436C81.1019 115.017 81.0662 115.592 81.0102 116.168C81.4177 116.061 81.8202 115.954 82.2277 115.847C82.0851 115.475 81.9475 115.103 81.8049 114.731C81.2649 114.961 80.7198 115.19 80.1798 115.414C80.46 116.087 80.7402 116.759 81.0204 117.431C81.3871 117.065 81.7488 116.703 82.1156 116.336C80.9592 116.036 79.6245 115.328 78.5394 115.144C77.5511 114.482 77.4543 114.492 78.2592 115.175C78.8145 115.674 79.3239 116.214 79.7773 116.81C80.0677 116.316 80.353 115.822 80.6434 115.322C78.6922 115.058 77.2251 114.023 76.247 112.23C75.9107 112.663 75.5796 113.101 75.2434 113.534C76.2113 113.881 77.0773 114.385 77.8466 115.052C78.5547 115.587 79.5532 114.543 79.0641 113.835C78.3713 112.831 77.6632 111.981 76.7768 111.125C76.4202 111.588 76.0585 112.057 75.7019 112.521C77.4034 113.718 79.3188 114.314 81.2598 115.037C81.4177 114.467 81.5756 113.896 81.7336 113.325C81.4534 113.229 81.1732 113.132 80.8981 113.03C80.7656 113.524 80.6383 114.018 80.5058 114.518C80.5619 114.497 80.6179 114.482 80.6739 114.461C81.759 114.11 81.2954 112.393 80.2002 112.75C80.1441 112.77 80.0881 112.785 80.0321 112.806C79.3902 113.015 79.166 113.794 79.6398 114.293C80.1085 114.788 80.5568 114.818 81.2598 115.042C82.3653 115.394 82.7881 113.723 81.7336 113.331C79.9556 112.668 78.1675 112.093 76.6036 110.997C75.7681 110.411 74.8104 111.7 75.5287 112.393C76.3132 113.076 76.9805 113.86 77.5358 114.742C77.9434 114.334 78.3458 113.932 78.7534 113.524C77.7447 112.765 76.8939 112.266 75.7273 111.828C74.9937 111.553 74.3264 112.505 74.7237 113.132C76.0737 115.271 77.6988 116.469 80.1849 117.039C81.0764 117.243 81.6317 116.219 81.0509 115.552C79.8334 114.156 78.57 112.704 76.8175 112.011C76.5373 111.899 76.1502 112.026 75.9515 112.24C72.5994 115.832 79.436 117.472 81.6622 118.048C82.3041 118.211 82.9511 117.615 82.7575 116.953C82.3602 115.613 82.4111 115.735 81.7387 114.512C81.2649 113.651 79.7417 114.242 80.1136 115.195C80.46 116.076 80.5771 116.846 81.3566 117.37C81.7387 117.63 82.3653 117.462 82.5741 117.049C82.9919 116.224 82.8849 115.333 82.9154 114.421C82.3347 114.497 81.7539 114.579 81.1681 114.655C81.4534 115.771 81.4941 117.253 82.7321 117.661C83.0734 117.773 83.5777 117.594 83.7356 117.253C84.1177 116.423 84.0413 116.102 84.0973 115.017C83.5166 115.093 82.9358 115.175 82.35 115.251C82.5894 115.985 82.7473 116.8 83.1702 117.457C83.3638 117.758 83.8019 118.012 84.1738 117.864C85.4881 117.34 85.2283 116.234 85.2232 114.925C84.6424 115.001 84.0617 115.083 83.4758 115.159C83.8375 116.295 84.026 117.421 84.9277 118.236C85.5136 118.766 86.4 118.389 86.4458 117.61C86.4866 116.912 86.5273 116.214 86.5681 115.516C85.9873 115.592 85.4066 115.674 84.8207 115.75C85.05 116.688 85.0958 116.769 85.5085 117.64C85.916 118.501 87.1081 117.992 87.1641 117.192C87.2049 116.606 87.2456 116.02 87.2864 115.429C86.7056 115.506 86.1249 115.587 85.539 115.664C85.9262 116.886 86.0026 118.262 87.2609 118.787C87.6328 118.939 88.0658 118.68 88.2645 118.379C88.8147 117.538 88.6822 117.172 88.7841 115.995C88.2034 116.071 87.6226 116.153 87.0368 116.229C87.3526 117.014 87.5309 117.411 87.9232 118.16C88.3613 118.995 89.5228 118.532 89.5788 117.712C89.6094 117.309 89.6349 116.907 89.6655 116.504C89.1153 116.652 88.56 116.805 88.0098 116.953C88.1983 117.202 88.3715 117.467 88.5243 117.742C88.6822 118.002 88.9777 118.196 89.2936 118.18C90.4653 118.119 90.7607 117.381 90.6741 116.311C90.1239 116.458 89.5687 116.611 89.0185 116.759C89.6247 117.549 90.1494 118.751 91.2804 118.725C91.693 118.715 92.0089 118.45 92.1362 118.073C92.3043 117.579 92.2789 117.233 92.3145 116.657C91.7643 116.805 91.209 116.958 90.6589 117.105C90.8932 117.462 91.0613 117.758 91.3517 118.043C91.7185 118.399 92.233 118.359 92.61 118.043C93.1755 117.564 93.2111 117.274 93.5015 116.53C92.9309 116.53 92.3604 116.53 91.7898 116.53C92.0853 117.533 92.1668 117.732 92.6049 118.68C93.0175 119.581 94.1638 118.985 94.2605 118.231C94.3217 117.742 94.3879 117.253 94.449 116.759C93.8683 116.835 93.2875 116.917 92.7017 116.993C92.936 117.834 92.9411 118.048 93.4964 118.608C93.9345 119.051 94.5611 118.878 94.8923 118.43C95.2539 117.936 95.2692 117.625 95.4832 116.942C94.9432 117.014 94.3981 117.085 93.8581 117.156C94.2606 117.701 94.5815 118.292 94.8107 118.929C95.1164 119.612 96.3034 119.444 96.4358 118.715C96.5428 118.129 96.6498 117.549 96.7517 116.963C96.2117 117.034 95.6666 117.105 95.1266 117.177C95.3202 117.589 95.5138 118.002 95.7022 118.42C95.9111 119.026 96.7007 119.327 97.1898 118.812C99.0339 116.856 96.8943 115.429 94.9075 115.088C92.289 114.64 90.0628 114.4 87.4749 113.646C84.3215 112.724 78.6719 112.454 76.5424 109.683C76.3132 109.382 75.9413 109.138 75.5388 109.275C71.8353 110.549 73.8221 116.097 76.3183 117.717C78.8145 119.337 82.5181 119.184 85.3455 119.362C89.4821 119.622 93.6238 119.867 97.7655 120.116C98.2698 120.147 98.6213 119.683 98.6519 119.23C98.7843 117.289 99.5026 116.219 97.5719 115.215C96.2219 114.512 94.3777 114.599 92.88 114.4C90.5672 114.1 88.7689 113.229 86.6598 112.378C84.3826 111.461 81.9985 110.768 79.6754 109.973C78.6158 109.612 76.0432 108.16 75.0549 108.486C73.5266 108.995 73.817 110.727 74.2398 112.001C74.5964 113.081 76.2266 112.648 75.9515 111.527C75.8751 111.221 75.8037 110.916 75.7273 110.61C75.1568 110.768 74.5862 110.926 74.0156 111.084C74.2398 111.95 74.469 112.816 74.6932 113.682C74.9836 114.788 76.68 114.324 76.4049 113.208C76.2928 112.745 76.1756 112.276 76.0636 111.812C75.7834 110.732 74.0666 111.201 74.3417 112.317Z" fill="#153051"/>
<path d="M126.217 122.74C126.217 122.724 126.217 122.709 126.212 122.694C126.187 122.281 125.952 121.965 125.56 121.838C125.545 121.833 125.525 121.828 125.509 121.823C125.112 121.69 124.73 121.92 124.506 122.23C123.451 123.703 125.356 125.424 126.385 126.214C126.752 126.494 127.399 126.28 127.603 125.893C127.868 125.379 127.817 124.839 127.353 124.457C127.058 124.212 126.824 124.293 126.498 124.176C126.289 124.232 126.177 124.146 126.156 123.917C126.126 123.708 126.115 123.504 126.131 123.295C126.121 122.2 125.825 120.636 124.292 121.059C123.095 121.39 122.768 123.03 122.84 124.1C122.937 125.542 124.083 126.51 125.275 127.136C126.289 127.666 127.185 126.133 126.171 125.603C125.56 125.282 124.791 124.864 124.633 124.125C124.551 123.738 124.76 123.392 124.745 123.02C124.765 122.949 124.786 122.872 124.806 122.801C124.658 122.775 124.516 122.745 124.368 122.719C124.302 122.765 124.353 123.366 124.353 123.443C124.353 124.125 124.475 124.803 124.939 125.328C125.453 125.908 126.008 125.908 126.722 125.98C126.513 125.893 126.304 125.807 126.095 125.72C126.075 125.669 126.054 125.618 126.039 125.567C126.07 125.338 126.1 125.109 126.131 124.884C126.11 124.925 126.09 124.966 126.07 125.002C126.477 124.895 126.88 124.788 127.287 124.681C127.063 124.513 125.774 123.504 126.044 123.132C125.708 123.27 125.377 123.402 125.041 123.54C125.056 123.545 125.076 123.55 125.091 123.555C124.872 123.27 124.658 122.984 124.439 122.699C124.439 122.714 124.439 122.73 124.445 122.745C124.511 123.876 126.289 123.886 126.217 122.74Z" fill="#153051"/>
<path d="M99.5841 114.512C99.5536 120.957 101.036 127.004 105.972 131.441C107.669 132.964 110.185 130.478 108.484 128.929C107.083 127.651 105.932 126.433 104.785 124.889C103.456 123.096 100.521 124.66 101.714 126.683C102.493 128.002 103.278 128.965 104.465 129.963C106.212 131.431 108.499 129.189 106.976 127.452C103.894 123.922 101.566 115.124 104.22 110.824C103.135 110.681 102.055 110.539 100.97 110.401C101.031 110.686 101.087 110.972 101.148 111.252C101.556 113.208 104.729 112.78 104.638 110.778C105.162 108.756 106.293 107.406 108.036 106.728C107.317 105.796 106.599 104.869 105.881 103.936C104.307 105.266 103.298 106.591 102.442 108.455C103.527 108.914 104.607 109.367 105.692 109.826C106.558 105.663 109.971 103.921 113.751 102.902C115.962 102.306 115.03 98.9389 112.804 99.4738C110.496 100.029 108.805 101.012 107.175 102.739C105.606 104.4 108.087 106.896 109.686 105.251C120.033 94.6342 143.874 104.517 139.926 120.136C141.011 119.994 142.091 119.851 143.176 119.714C141.628 117.156 142.351 113.29 141.2 110.396C140.038 107.487 138.143 104.981 136.263 102.505C134.898 100.707 131.811 102.474 133.192 104.298C135.418 107.232 137.985 110.432 138.653 114.166C139.162 117.029 138.525 118.909 140.105 121.512C140.879 122.791 142.973 122.597 143.355 121.089C148.164 102.067 120.079 89.4991 107.17 102.739C108.005 103.575 108.846 104.415 109.681 105.251C110.812 104.054 112.137 103.284 113.741 102.897C113.425 101.756 113.11 100.61 112.794 99.4687C107.776 100.824 103.374 103.468 102.254 108.873C101.871 110.722 104.612 112.179 105.504 110.243C106.217 108.689 107.078 107.548 108.387 106.443C109.987 105.093 107.949 102.749 106.232 103.651C103.232 105.225 100.909 107.136 101.072 110.773C102.233 110.615 103.4 110.457 104.561 110.299C104.5 110.014 104.444 109.729 104.383 109.449C104.057 107.89 101.897 107.793 101.133 109.026C97.5668 114.782 100.231 125.134 104.444 129.958C105.28 129.123 106.12 128.282 106.956 127.447C106.003 126.795 105.269 125.939 104.76 124.884C103.736 125.48 102.712 126.082 101.688 126.678C102.982 128.42 104.337 129.974 105.942 131.441C106.777 130.605 107.618 129.765 108.453 128.929C104.215 125.119 103.084 120.014 103.109 114.517C103.15 112.225 99.5943 112.22 99.5841 114.512Z" fill="#153051"/>
<path d="M99.5383 123.29C100.802 126.474 103.013 129.057 105.035 131.797C105.845 130.987 106.655 130.177 107.465 129.367C107.328 129.266 107.185 129.159 107.047 129.057C105.376 127.809 103.573 130.432 104.892 131.848C106.563 133.642 108.321 134.711 110.654 135.44C112.356 135.975 113.639 133.682 112.386 132.47C111.398 131.512 110.41 130.554 109.421 129.597C107.755 127.987 105.427 130.391 106.91 132.108C112.646 138.777 123.94 138.165 131.587 135.486C135.418 134.146 138.194 131.797 140.278 128.343C141.832 125.766 144.221 121.644 142.265 118.654C141.954 118.175 141.348 117.691 140.731 117.773C138.22 118.099 138.087 119.943 137.211 122.133C135.336 126.81 132.341 130.83 127.262 132.18C125.051 132.765 125.988 136.199 128.209 135.608C131.689 134.686 134.536 132.826 136.819 130.025C137.919 128.675 138.816 127.172 139.57 125.603C140.359 123.957 142.932 118.257 138.291 124.604C136.696 126.785 135.881 129.128 133.467 130.692C131.23 132.144 128.591 132.75 125.988 133.127C120.257 133.963 113.543 134.38 109.426 129.592C108.591 130.427 107.75 131.268 106.915 132.103C107.903 133.061 108.892 134.019 109.88 134.976C110.455 133.988 111.031 132.995 111.612 132.006C109.849 131.451 108.657 130.656 107.419 129.327C106.701 130.259 105.983 131.186 105.264 132.118C105.402 132.22 105.545 132.327 105.682 132.429C107.083 133.479 109.146 131.4 108.112 129.999C106.334 127.59 104.088 125.139 102.977 122.342C102.131 120.243 98.6927 121.16 99.5383 123.29Z" fill="#153051"/>
<path d="M144.425 120.249C145.097 120.228 145.769 120.203 146.442 120.182C146.284 119.021 146.126 117.854 145.968 116.693C144.847 116.978 144.583 117.095 143.589 117.686C144.307 118.619 145.026 119.546 145.744 120.478C146.131 120.086 149.702 120.575 150.105 120.605C151.282 120.697 152.097 119.398 151.816 118.354C151.068 115.511 147.639 115.485 145.51 116.565C146.32 117.375 147.13 118.185 147.94 118.995C147.283 119.902 149.672 118.868 150.568 118.914C150.334 118.904 151.042 119.265 151.144 119.265C152.356 119.271 152.642 119.204 153.768 118.491C152.896 118.135 152.025 117.783 151.154 117.426C151.419 118.827 151.837 119.953 152.469 121.217C153.299 122.867 155.724 121.981 155.78 120.32C155.81 119.429 155.841 118.542 155.872 117.651C154.685 117.651 153.503 117.651 152.316 117.651C152.494 125.231 156.32 131.65 163.982 133.83C166.188 134.457 167.13 131.028 164.929 130.402C158.918 128.69 156.014 123.601 155.872 117.651C155.816 115.358 152.392 115.363 152.316 117.651C152.285 118.542 152.255 119.429 152.224 120.32C153.329 120.019 154.435 119.724 155.535 119.423C155.011 118.506 154.69 117.528 154.578 116.484C154.369 115.368 152.881 114.849 151.964 115.419C151.608 115.633 151.261 115.862 150.92 116.102C151.516 116.102 152.117 116.102 152.713 116.102C150.482 115.022 146.473 114.966 144.853 117.197C143.727 118.751 145.846 120.361 147.283 119.627C147.644 119.515 148.006 119.403 148.368 119.291C148.938 118.542 149.509 117.793 150.079 117.039C147.98 116.876 144.868 116.27 143.207 117.951C141.801 119.372 143.604 121.792 145.362 120.743C145.871 120.534 146.381 120.32 146.89 120.111C148.923 119.586 148.342 116.774 146.416 116.622C145.056 116.515 144.791 116.565 143.452 116.815C141.23 117.243 142.183 120.666 144.425 120.249Z" fill="#153051"/>
<path d="M152.458 114.635C152.428 114.701 152.402 114.762 152.372 114.828C152.881 114.533 153.396 114.243 153.905 113.947C153.824 113.957 153.747 113.962 153.666 113.972C154.175 114.268 154.69 114.558 155.199 114.854C155.306 114.395 155.408 113.932 155.515 113.473C154.43 113.331 153.35 113.188 152.265 113.05C152.321 113.539 152.372 114.034 152.428 114.523C153.615 114.523 154.797 114.523 155.984 114.523C156.091 108.99 159.122 106.316 162.662 102.576C164.129 101.028 162.29 99.0002 160.507 99.7848C158.414 100.707 156.926 102.663 155.734 104.579C154.649 106.311 157.099 108.129 158.526 106.733C160.716 104.589 163.024 102.403 165.637 100.793C168.276 99.1684 171.134 98.8882 174.125 98.3482C176.076 97.9967 175.653 94.6701 173.651 94.8585C171.093 95.098 168.959 96.9319 166.452 97.0287C164.17 97.1153 164.16 100.671 166.452 100.585C169.132 100.483 171.048 98.6589 173.651 98.4144C173.493 97.2529 173.335 96.0863 173.177 94.9248C169.881 95.5208 166.728 95.9131 163.844 97.7317C160.986 99.53 158.414 101.873 156.014 104.227C156.946 104.945 157.874 105.664 158.806 106.382C159.641 105.042 160.808 103.524 162.306 102.867C161.587 101.935 160.869 101.007 160.151 100.075C155.872 104.594 152.56 107.987 152.433 114.533C152.387 116.82 155.943 116.82 155.989 114.533C156.009 113.494 155.958 113.122 155.698 112.113C155.321 110.641 153.192 110.361 152.448 111.69C151.582 113.239 151.093 115.068 152.132 116.662C152.453 117.151 153.039 117.61 153.666 117.544C153.747 117.533 153.824 117.528 153.905 117.518C154.491 117.457 155.179 117.233 155.439 116.637C155.469 116.571 155.495 116.509 155.525 116.443C156.442 114.355 153.38 112.546 152.458 114.635Z" fill="#153051"/>
<path d="M174.721 98.3887C175.831 98.4601 176.937 98.5314 178.047 98.6078C180.34 98.7555 180.309 95.2303 178.047 95.052C176.284 94.9144 174.843 95.052 173.136 95.4391C173.595 96.5242 174.048 97.6042 174.507 98.6893C177.359 96.9674 180.019 99.0052 182.438 100.197C182.897 99.1121 183.35 98.0321 183.809 96.947C181.506 96.4529 180.008 95.322 177.624 95.4901C177.782 96.6516 177.94 97.8182 178.098 98.9797C182.668 97.7774 186.84 101.517 189.611 104.828C192.546 108.333 194.4 113.483 193.335 118.002C194.476 118.002 195.623 118.002 196.764 118.002C196.356 115.72 196.29 113.595 196.458 111.298C196.626 109.016 193.07 109.026 192.902 111.298C192.709 113.901 192.877 116.382 193.335 118.949C193.646 120.697 196.377 120.59 196.764 118.949C199.178 108.69 188.847 92.4742 177.156 95.5563C175.266 96.0555 175.587 99.1886 177.629 99.0459C178.068 99.0154 181.741 100.136 182.866 100.376C184.731 100.778 186.137 98.0627 184.237 97.1253C180.406 95.2404 176.784 93.167 172.718 95.6174C170.966 96.672 172.133 99.3159 174.089 98.8676C175.398 98.4753 176.723 98.3837 178.057 98.6078C178.057 97.4208 178.057 96.2389 178.057 95.052C176.947 94.9806 175.841 94.9093 174.731 94.8329C172.433 94.6801 172.443 98.2359 174.721 98.3887Z" fill="#153051"/>
<path d="M164.369 134.054C168.908 137.284 178.017 136.637 183.182 135.414C188.114 134.248 192.133 130.595 194.645 126.352C195.663 124.625 199.224 118.104 195.174 117.202C193.763 116.891 192.933 117.875 192.357 118.99C190.676 122.246 189.785 125.491 187.538 128.517C186.173 130.356 189.26 132.134 190.61 130.31C192.072 128.333 194.069 125.715 194.619 123.264C195.404 119.754 192.933 122.75 191.924 123.962C190.615 125.531 189.937 127.299 188.297 128.68C185.459 131.069 182.398 132.134 178.689 132.414C175.113 132.689 169.163 133.112 166.162 130.982C164.293 129.653 162.515 132.735 164.369 134.054Z" fill="#153051"/>
<path d="M213.988 109.291C213.988 109.321 213.983 109.347 213.983 109.377C213.866 110.834 216.071 111.833 217.019 110.636C216.836 110.707 216.652 110.783 216.464 110.855C215.954 110.559 215.44 110.269 214.93 109.973C215.119 109.474 215.302 108.975 215.491 108.476C216.087 108.476 216.688 108.476 217.284 108.476C216.978 109.255 216.678 110.035 216.372 110.809C216.077 110.3 215.786 109.785 215.491 109.276C215.547 109.133 215.608 108.995 215.664 108.853C216.652 109.113 217.646 109.377 218.634 109.637C218.603 109.449 218.568 109.26 218.537 109.067C218.384 109.642 218.231 110.218 218.079 110.799C216.754 112.246 217.798 111.211 217.207 110.014C216.993 109.581 216.265 109.107 216.097 108.715C216.097 109.311 216.097 109.912 216.097 110.508C216.301 110.218 216.433 109.948 216.489 109.596C216.678 108.415 216.02 107.421 214.777 107.345C212.847 107.223 210.6 108.664 208.725 109.113C205.842 109.8 202.882 110.045 199.999 110.748C198.068 111.216 198.455 114.319 200.473 114.237C202.622 114.156 204.772 113.876 206.922 113.922C209.53 113.983 212.969 113.575 215.414 114.543C217.544 115.384 218.466 111.95 216.362 111.115C211.736 109.281 205.353 110.488 200.478 110.682C200.636 111.843 200.793 113.01 200.951 114.171C203.397 113.575 205.878 113.295 208.343 112.816C210.177 112.46 213.03 110.783 214.783 110.89C214.212 110.142 213.641 109.393 213.071 108.639C212.587 111.665 216.723 117.37 219.775 113.326C221.008 111.695 220.748 108.532 218.741 107.559C216.479 106.463 214.849 108.455 215.216 110.564C215.455 111.935 217.304 112.21 218.186 111.349C219.816 109.765 218.878 106.907 216.413 107.248C214.263 107.543 213.733 110.34 215.496 111.532C216.02 111.889 216.759 111.828 217.289 111.532C220.31 109.846 216.708 105.312 214.507 108.109C215.521 108.527 216.53 108.944 217.544 109.367C217.544 109.337 217.549 109.311 217.549 109.281C217.727 107.009 214.171 107.024 213.988 109.291Z" fill="#153051"/>
<path d="M215.547 111.125C215.236 111.252 214.828 111.466 214.507 111.43C214.258 111.4 213.906 111.16 213.636 111.089C212.821 110.875 211.975 110.89 211.14 110.941C208.868 111.084 208.853 114.64 211.14 114.497C212.052 114.441 212.602 114.528 213.453 114.813C214.482 115.159 215.516 114.951 216.494 114.553C217.386 114.191 218.012 113.371 217.737 112.368C217.503 111.522 216.443 110.763 215.547 111.125Z" fill="#153051"/>
<path d="M141.862 204.275C143.197 205.777 144.898 204.142 146.34 203.485C148.913 202.308 151.709 201.473 154.175 200.097C154.542 199.894 154.399 199.42 154.068 199.287C152.565 198.676 150.741 200.24 149.448 200.816C147.109 201.85 144.389 203.46 141.837 203.755C141.46 203.801 141.159 204.382 141.612 204.585C141.857 204.692 142.101 204.799 142.341 204.906C142.861 205.136 143.314 204.366 142.789 204.137C142.545 204.03 142.3 203.923 142.061 203.816C141.984 204.091 141.913 204.366 141.837 204.647C143.574 204.448 145.071 203.663 146.666 202.981C147.619 202.573 148.571 202.171 149.519 201.758C150.512 201.32 152.764 199.715 153.834 200.153C153.798 199.883 153.762 199.613 153.727 199.343C152.03 200.291 150.105 200.861 148.327 201.641C147.481 202.013 143.222 204.478 142.494 203.663C142.112 203.22 141.485 203.847 141.862 204.275Z" fill="#153051"/>
<path d="M48.707 185.767C32.7566 185.767 16.8063 185.767 0.855886 185.767C-0.290341 185.767 -0.290341 187.545 0.855886 187.545C16.8063 187.545 32.7566 187.545 48.707 187.545C49.8532 187.545 49.8532 185.767 48.707 185.767Z" fill="#153051"/>
<path d="M269.139 185.767C253.189 185.767 237.238 185.767 221.288 185.767C220.142 185.767 220.142 187.545 221.288 187.545C237.238 187.545 253.189 187.545 269.139 187.545C270.285 187.545 270.285 185.767 269.139 185.767Z" fill="#153051"/>
<path d="M204.548 171.849C204.548 171.849 204.507 171.702 204.471 171.457C204.436 171.228 204.38 170.902 204.314 170.509C204.186 169.745 204.038 168.782 203.931 167.794C203.83 166.806 203.789 165.787 203.83 164.987C203.86 164.187 204.013 163.602 204.013 163.602C204.013 163.602 204.436 164.029 204.823 164.758C205.225 165.481 205.577 166.521 205.699 167.616C205.73 168.166 205.76 168.716 205.674 169.241C205.613 169.761 205.48 170.245 205.317 170.642C204.996 171.467 204.548 171.849 204.548 171.849Z" fill="#153051"/>
<path d="M149.412 193.179C153.197 207.902 171.45 202.028 182.046 200.668C194.614 199.058 213.264 198.436 221.227 186.918C221.553 186.444 220.784 186.001 220.458 186.47C213.056 197.173 195.495 198.034 183.773 199.557C177.426 200.383 171.073 201.254 164.705 201.911C158.011 202.604 152.056 199.919 150.263 192.945C150.13 192.39 149.269 192.624 149.412 193.179Z" fill="#153051"/>
<path d="M157.237 201.351C157.578 201.437 157.925 201.524 158.266 201.605C158.628 201.697 158.857 201.386 158.811 201.06C158.77 200.77 158.668 200.683 158.439 200.525C158.067 200.271 157.604 200.765 157.833 201.131C158.24 201.794 158.123 201.661 158.709 202.176C159.061 202.481 159.519 202.181 159.453 201.743C159.417 201.508 159.382 201.274 159.346 201.035C159.162 201.218 158.979 201.401 158.801 201.58C159.02 201.692 159.234 201.804 159.453 201.921C159.601 202.033 159.871 201.987 159.993 201.85C159.978 201.87 159.962 201.891 159.947 201.911C160.115 202.079 160.411 202.084 160.574 201.911C160.619 201.926 160.665 201.936 160.706 201.952C160.818 202.043 160.986 202.13 161.139 202.064C161.261 202.059 161.389 202.054 161.511 202.054C161.786 202.201 162.051 202.059 162.163 201.789C162.224 201.646 162.28 201.498 162.341 201.356C162.092 201.422 161.847 201.488 161.598 201.549C161.74 201.661 161.888 201.778 162.031 201.891C162.295 202.099 162.657 202.033 162.774 201.697C162.769 201.784 162.759 201.865 162.754 201.952C162.948 202.12 163.33 202.14 163.452 201.86C163.391 201.896 163.325 201.936 163.263 201.972C163.121 201.784 162.978 201.595 162.836 201.412C162.479 201.437 162.127 201.447 161.771 201.447C161.812 201.738 161.847 202.028 161.888 202.318C162.973 202.023 163.569 202.772 164.211 201.814C164.292 201.692 164.298 201.488 164.211 201.366C164.155 201.284 164.094 201.203 164.038 201.121C163.803 201.3 163.574 201.478 163.34 201.661C163.482 201.835 163.625 202.013 163.763 202.186C164.012 202.492 164.527 202.232 164.522 201.87C164.517 201.707 164.517 201.544 164.512 201.386C164.323 201.529 164.135 201.671 163.951 201.814C164.14 201.885 164.333 201.957 164.522 202.028C164.685 202.089 164.955 201.992 165.026 201.824C165.082 201.687 166.147 201.947 165.749 201.748C166.035 201.891 166.432 201.722 166.417 201.366C166.412 201.208 166.402 201.05 166.396 200.892C166.142 200.999 165.892 201.101 165.637 201.208C165.806 201.376 165.979 201.544 166.147 201.707C166.366 201.921 166.677 201.85 166.845 201.615C166.957 201.61 167.069 201.605 167.181 201.6C167.217 201.33 167.252 201.06 167.288 200.79C167.319 201.03 167.344 201.269 167.375 201.508C167.594 201.422 167.808 201.33 168.027 201.244C167.996 201.325 167.966 201.407 167.935 201.493C168.011 201.218 168.083 200.943 168.159 200.663C168.434 200.622 168.714 200.576 168.989 200.535C169.076 200.754 169.168 200.968 169.254 201.188C169.341 201.203 169.428 201.218 169.514 201.238C169.657 201.05 169.799 200.861 169.942 200.678C169.703 200.617 169.463 200.556 169.224 200.495C169.112 200.765 168.995 201.035 168.882 201.305C168.689 201.177 168.495 201.045 168.302 200.918C168.062 201.432 168.826 201.885 169.071 201.366C169.107 201.289 169.142 201.213 169.178 201.137C169.259 200.963 169.265 200.739 169.107 200.597C169.04 200.535 168.969 200.474 168.903 200.413C168.709 200.24 168.47 200.255 168.276 200.413C167.247 201.244 168.648 202.268 169.56 201.422C169.667 201.32 169.723 201.131 169.672 200.989C169.555 200.663 169.473 200.535 169.122 200.454C168.653 200.347 168.307 201.035 168.781 201.264C169.321 201.529 169.341 201.539 169.947 201.57C170.222 201.585 170.467 201.274 170.375 201.009C170.019 199.985 169.112 199.873 168.49 200.749C168.337 200.963 168.485 201.366 168.755 201.401C168.811 201.407 168.862 201.417 168.918 201.422C169.178 201.458 169.366 201.361 169.463 201.111C169.489 201.05 169.514 200.989 169.54 200.923C169.606 200.76 169.499 200.495 169.336 200.418C168.709 200.138 168.052 200.057 167.548 200.602C167.4 200.76 167.395 200.953 167.476 201.142C167.507 201.213 167.543 201.289 167.573 201.361C167.629 201.488 167.818 201.6 167.955 201.58C168.022 201.57 168.088 201.564 168.159 201.554C168.602 201.498 168.755 200.999 168.383 200.724C167.94 200.398 167.869 200.388 167.354 200.591C167.171 200.663 167.028 200.811 167.028 201.019C167.023 201.626 167.064 201.677 167.578 202.013C167.808 202.161 168.174 202.023 168.23 201.748C168.404 200.918 167.629 200.113 166.911 200.846C166.728 201.03 166.758 201.284 166.911 201.473C166.936 201.503 166.962 201.534 166.987 201.565C167.084 201.682 167.283 201.722 167.42 201.677C167.456 201.666 167.487 201.656 167.522 201.646C167.899 201.534 167.945 201.045 167.629 200.836C166.982 200.408 166.514 200.566 166.076 201.167C166.31 201.137 166.539 201.106 166.773 201.075C166.605 200.907 166.432 200.739 166.264 200.576C165.999 200.316 165.49 200.495 165.505 200.892C165.51 201.05 165.52 201.208 165.525 201.366C165.749 201.238 165.974 201.111 166.193 200.984C166.086 200.933 165.979 200.877 165.872 200.826C165.637 200.709 165.418 200.785 165.266 200.984C165.189 200.928 165.113 200.867 165.036 200.811C164.848 200.704 164.522 200.744 164.43 200.968C164.349 200.963 164.267 200.963 164.191 200.958C163.921 200.856 163.625 201.116 163.63 201.386C163.635 201.549 163.635 201.712 163.64 201.87C163.895 201.763 164.145 201.661 164.399 201.554C164.257 201.381 164.114 201.203 163.977 201.03C163.661 200.642 162.988 201.157 163.279 201.57C162.942 201.091 162.092 201.345 161.659 201.463C161.18 201.595 161.272 202.344 161.776 202.334C162.301 202.324 162.81 202.339 163.325 202.232C163.467 202.201 163.605 202.064 163.635 201.921C163.656 201.829 163.676 201.738 163.696 201.646C163.763 201.345 163.564 201.111 163.269 201.086C163.223 201.081 163.172 201.075 163.126 201.075C162.988 201.065 162.8 201.167 162.744 201.294C162.729 201.335 162.708 201.371 162.693 201.412C162.927 201.381 163.156 201.351 163.391 201.32C162.841 200.841 162.219 200.602 161.929 201.458C162.178 201.391 162.423 201.325 162.672 201.264C162.53 201.152 162.382 201.035 162.239 200.923C161.959 200.704 161.633 200.79 161.496 201.116C161.435 201.259 161.379 201.407 161.317 201.549C161.536 201.463 161.75 201.371 161.969 201.284C161.745 201.167 161.047 201.081 160.889 200.953C160.706 200.805 160.441 200.765 160.263 200.953C160.258 200.948 160.253 200.943 160.242 200.943C160.079 200.78 159.774 200.765 159.616 200.943C159.672 200.882 158.653 200.602 159.045 200.719C158.689 200.612 158.449 200.953 158.5 201.264C158.536 201.498 158.572 201.733 158.607 201.972C158.857 201.829 159.101 201.682 159.351 201.539C159.106 201.254 158.862 200.963 158.617 200.678C158.414 200.882 158.21 201.086 158.011 201.284C158.001 201.284 157.986 201.289 157.976 201.289C158.159 201.106 158.342 200.923 158.521 200.744C158.179 200.658 157.833 200.571 157.492 200.49C156.916 200.352 156.682 201.213 157.237 201.351Z" fill="#153051"/>
<path d="M164.506 201.636C164.517 201.712 164.532 201.794 164.542 201.87C164.624 202.39 165.388 202.227 165.413 201.753C165.632 201.819 165.851 201.885 166.07 201.952C166.147 201.677 166.218 201.402 166.295 201.121C166.88 201.402 167.466 201.687 168.057 201.967C168.022 201.697 167.986 201.427 167.95 201.157C168.388 201.335 168.826 201.509 169.265 201.687C169.606 202.008 170.085 201.682 170.008 201.254C170.747 200.989 171.481 200.719 172.219 200.454C172.255 200.724 172.291 200.994 172.326 201.264C172.887 201.096 173.447 200.933 174.007 200.765C174.257 201.025 174.639 200.872 174.751 200.571C174.649 200.561 174.547 200.551 174.451 200.546C174.741 200.505 175.031 200.469 175.322 200.429C175.393 200.388 175.459 200.347 175.531 200.301C175.424 200.658 175.862 201.025 176.183 200.805C176.335 200.816 176.488 200.821 176.641 200.831C176.718 200.556 176.789 200.281 176.865 200.001C176.891 200.22 176.916 200.439 176.942 200.658C177.115 201.055 177.813 200.862 177.772 200.434C177.721 200.444 177.675 200.449 177.624 200.459C177.823 200.836 178.49 200.673 178.455 200.235C178.439 200.072 178.424 199.904 178.414 199.741C178.159 199.848 177.91 199.95 177.655 200.057C177.742 199.853 177.823 199.644 177.91 199.44C177.879 199.216 177.563 199.053 177.365 199.129C177.894 199.226 178.424 199.318 178.954 199.415C179.066 199.685 179.183 199.955 179.295 200.225C179.728 199.878 180.161 199.537 180.594 199.191C180.452 199.542 180.849 199.782 181.139 199.736C181.44 199.776 181.741 199.812 182.036 199.853C182.571 200.052 182.805 199.191 182.27 198.997C181.308 198.64 181.756 198.671 181.522 199.236C181.603 199.033 181.43 198.722 181.211 198.691C180.681 198.61 180.65 198.666 180.146 198.992C179.963 199.109 179.907 199.287 179.942 199.496C179.968 199.664 179.998 199.832 180.024 200.001C180.054 200.199 180.273 200.316 180.452 200.327C180.895 200.352 180.992 200.276 181.252 199.914C181.338 199.797 181.333 199.583 181.252 199.466C180.793 198.793 180.329 198.951 179.662 199.267C179.519 199.333 179.453 199.501 179.443 199.649C179.412 200.169 179.728 200.709 180.319 200.51C180.508 200.444 180.64 200.286 180.645 200.082C180.656 199.512 180.365 199.461 179.871 199.119C179.744 199.033 179.555 199.043 179.423 199.119C179.229 199.231 179.03 199.343 178.837 199.461C178.409 199.71 178.689 200.429 179.178 200.271C179.249 200.245 179.326 200.225 179.397 200.199C179.535 200.153 179.677 200.041 179.708 199.888C179.723 199.807 179.739 199.725 179.754 199.644C179.8 199.389 179.682 199.191 179.443 199.099C178.811 198.854 178.791 198.88 178.215 199.257C177.966 199.42 177.93 199.731 178.124 199.955C178.434 200.306 178.832 200.612 179.336 200.439C179.504 200.383 179.682 200.209 179.662 200.011C179.56 199.129 178.944 198.926 178.185 199.155C178.052 199.196 177.894 199.313 177.874 199.466C177.813 199.894 177.823 200.006 178.119 200.337C178.266 200.505 178.602 200.515 178.745 200.337C179.041 199.97 179.097 199.883 179.015 199.415C178.99 199.277 178.842 199.129 178.704 199.104C178.276 199.022 178.236 199.084 177.757 199.287C177.558 199.369 177.446 199.501 177.431 199.715C177.395 200.174 177.466 200.265 177.833 200.535C178.027 200.678 178.332 200.566 178.439 200.378C178.506 200.26 178.572 200.148 178.643 200.031C178.745 199.858 178.709 199.639 178.572 199.491C177.884 198.763 175.943 198.498 176.06 199.924C176.081 200.184 176.33 200.464 176.621 200.352C177.232 200.118 177.482 200.836 178.2 200.632C178.343 200.592 178.475 200.474 178.511 200.322C178.613 199.868 178.608 199.746 178.261 199.42C178.001 199.18 177.466 199.328 177.502 199.736C177.517 199.899 177.533 200.067 177.543 200.23C177.818 200.153 178.093 200.082 178.373 200.006C177.905 199.094 176.763 199.369 176.865 200.434C177.14 200.357 177.415 200.286 177.696 200.209C177.665 200.133 177.629 200.062 177.599 199.985C177.538 199.848 177.359 199.766 177.217 199.766C176.886 199.761 176.784 199.787 176.499 199.945C176.325 200.036 176.244 200.26 176.295 200.449C176.305 200.49 176.315 200.525 176.325 200.566C176.381 200.765 176.56 200.882 176.753 200.892C176.789 200.892 176.819 200.897 176.855 200.897C177.344 200.923 177.395 200.311 177.079 200.067C176.932 199.955 176.784 199.838 176.636 199.725C176.519 199.639 176.305 199.644 176.188 199.725C176.035 199.832 175.882 199.939 175.724 200.041C175.943 200.209 176.157 200.378 176.376 200.546C176.575 199.899 176.091 199.654 175.525 199.547C175.327 199.512 175.128 199.573 175.021 199.751C174.95 199.868 174.879 199.99 174.807 200.108C174.675 200.332 174.777 200.571 174.965 200.714C175.021 200.76 175.082 200.8 175.138 200.846C175.271 200.948 175.449 200.902 175.587 200.846C175.648 200.821 175.714 200.79 175.775 200.765C176.015 200.663 176.02 200.352 175.933 200.158C175.892 200.062 175.852 199.965 175.811 199.868C175.75 199.725 175.571 199.649 175.429 199.649C174.996 199.639 174.94 199.654 174.573 199.878C174.405 199.98 174.313 200.189 174.369 200.383C174.4 200.479 174.425 200.576 174.456 200.673C174.593 201.142 175.347 201.07 175.327 200.556C175.301 199.934 175.103 200.062 174.715 199.685C174.593 199.562 174.293 199.858 174.175 199.827C173.35 199.613 175.128 200.678 174.298 199.812C174.15 199.659 173.936 199.659 173.758 199.741C173.625 199.802 173.493 199.868 173.36 199.929C173.177 200.016 173.116 200.25 173.157 200.434C173.228 200.77 173.294 200.877 173.615 201.009C173.911 201.132 174.288 200.994 174.282 200.627C174.282 200.561 174.282 200.495 174.277 200.429C174.277 200.276 174.196 200.123 174.058 200.046C173.666 199.832 173.579 199.843 173.152 200.006C172.978 200.072 172.81 200.23 172.825 200.434C172.836 200.546 172.841 200.658 172.851 200.77C172.866 201.019 173.039 201.198 173.294 201.213C173.636 201.233 173.763 201.147 173.951 200.862C174.16 200.551 173.87 200.235 173.569 200.194C172.545 200.062 172.78 200.041 171.863 200.505C171.521 200.678 171.608 201.228 171.97 201.315C172.056 201.335 172.143 201.356 172.229 201.381C172.433 201.432 172.622 201.345 172.734 201.177C172.785 201.096 172.841 201.019 172.892 200.938C173.004 200.775 172.953 200.535 172.82 200.398C172.372 199.934 171.791 199.939 171.496 200.561C171.389 200.79 171.44 201.025 171.654 201.167C171.72 201.213 171.791 201.259 171.858 201.305C172.097 201.468 172.443 201.305 172.51 201.04C172.53 200.953 172.555 200.867 172.576 200.785C172.612 200.648 172.581 200.449 172.464 200.352C171.761 199.807 171.323 199.802 170.711 200.393C170.528 200.571 170.564 200.836 170.711 201.019C171.088 201.483 171.155 201.473 171.751 201.524C172.072 201.554 172.321 201.121 172.133 200.856C171.511 199.985 170.182 199.787 169.922 201.045C169.866 201.32 170.044 201.615 170.35 201.605C170.467 201.6 170.584 201.6 170.701 201.595C170.966 201.59 171.231 201.315 171.129 201.035C170.711 199.909 168.898 200.199 169.132 201.498C169.382 201.356 169.626 201.208 169.876 201.065C169.03 200.271 167.731 200.118 167.324 201.386C167.262 201.58 167.369 201.784 167.527 201.891C167.874 202.12 168.006 202.099 168.378 201.931C168.74 201.768 168.612 201.213 168.271 201.121C167.614 200.938 167.018 200.765 166.402 201.132C166.137 201.289 166.132 201.61 166.31 201.829C166.335 201.865 166.366 201.896 166.391 201.931C166.514 202.079 166.773 202.094 166.931 202.003C166.962 201.987 166.987 201.967 167.018 201.952C167.313 201.773 167.298 201.366 167.018 201.182C166.544 200.872 166.473 200.831 165.938 200.999C165.724 201.065 165.541 201.315 165.627 201.544C165.648 201.6 165.668 201.656 165.688 201.712C165.755 201.88 165.912 202.059 166.116 202.038C166.167 202.033 166.218 202.028 166.269 202.023C166.656 201.982 166.942 201.396 166.493 201.193C165.953 200.948 166.019 200.953 165.439 200.872C165.22 200.841 165.067 200.897 164.934 201.075C164.72 201.366 164.695 201.493 164.827 201.824C164.955 202.145 165.301 202.252 165.571 202.018C165.841 201.784 165.887 201.672 165.851 201.32C165.826 201.075 165.668 200.887 165.408 200.877C165.265 200.872 165.118 200.867 164.975 200.862C164.725 200.851 164.542 201.075 164.532 201.305C164.522 201.458 164.517 201.61 164.506 201.758C164.797 201.717 165.087 201.682 165.378 201.641C165.367 201.565 165.352 201.483 165.342 201.407C165.271 200.836 164.415 201.075 164.506 201.636Z" fill="#153051"/>
<path d="M190.951 198.396C190.462 198.263 189.973 198.131 189.489 197.999C189.341 198.146 189.194 198.294 189.046 198.442C188.873 198.269 188.694 198.1 188.521 197.927C188.623 198.111 188.73 198.294 188.832 198.472C188.883 198.243 185.882 198.442 185.495 198.533C184.93 198.661 184.39 198.87 183.839 199.033C183.534 199.124 181.837 199.359 181.746 199.425C181.832 199.522 181.914 199.619 182 199.715C182.571 199.639 183.147 199.598 183.727 199.608C184.099 199.562 184.461 199.491 184.833 199.425C185.989 199.216 187.141 199.012 188.297 198.819C188.857 198.722 188.623 197.866 188.063 197.963C186.208 198.274 184.369 198.503 182.515 198.747C181.929 198.824 180.625 198.941 180.671 199.787C180.681 200.001 180.803 200.143 180.997 200.215C182.637 200.836 184.644 199.522 186.234 199.318C187.186 199.196 189.097 199.827 189.596 198.559C189.667 198.376 189.545 198.151 189.392 198.055C188.969 197.795 188.475 197.835 188.027 198.1C187.905 198.172 187.793 198.335 187.808 198.482C188.001 200.306 190.538 197.897 188.455 197.713C188.271 197.698 188.068 197.861 188.027 198.039C188.012 198.105 187.996 198.177 187.981 198.243C187.93 198.472 188.047 198.732 188.292 198.788C188.755 198.905 189.097 198.783 189.479 198.549C189.637 198.452 189.749 198.233 189.683 198.044C189.662 197.988 189.647 197.937 189.627 197.881C189.56 197.693 189.402 197.555 189.199 197.555C189.148 197.555 189.102 197.555 189.051 197.555C188.817 197.555 188.598 197.759 188.608 197.999C188.679 200.434 191.389 197.678 189.795 197.55C188.256 197.433 190.172 200.235 190.798 198.325C190.849 198.172 190.788 198.009 190.686 197.892C190.64 197.841 190.594 197.795 190.554 197.744C190.447 197.622 190.274 197.596 190.121 197.632C190.06 197.647 189.998 197.657 189.937 197.672C189.79 197.703 189.662 197.841 189.627 197.983C189.138 200.016 192.581 198.758 191.038 197.586C190.915 197.494 190.712 197.509 190.589 197.586C190.564 197.601 190.544 197.616 190.518 197.632C190.019 197.927 190.462 198.696 190.951 198.396Z" fill="#153051"/>
<path d="M205.144 194.85C205.113 195.013 205.088 195.181 205.057 195.344C204.772 195.344 204.487 195.344 204.202 195.344C204.13 195.309 204.064 195.273 203.993 195.237C203.993 195.492 203.993 195.747 203.993 196.007C203.942 195.762 203.891 195.512 203.84 195.268C203.774 195.518 203.707 195.762 203.646 196.012C203.305 195.813 202.964 195.614 202.622 195.416C202.587 195.686 202.551 195.956 202.515 196.226C202.464 196.073 202.418 195.92 202.368 195.767C201.904 196.032 202.235 196.659 202.709 196.577C202.958 196.536 203.203 196.496 203.453 196.45C203.31 196.2 203.162 195.956 203.02 195.706C201.695 196.817 198.557 196.501 196.871 196.873C194.853 197.316 193.121 197.764 191.033 197.851C191.033 198.146 191.033 198.442 191.033 198.737C191.919 198.625 192.729 198.35 193.61 198.167C193.733 198.141 196.947 197.581 195.663 197.535C195.704 197.825 195.74 198.116 195.781 198.406C198.114 197.968 200.202 197.087 202.464 196.542C203.02 196.409 202.785 195.553 202.23 195.686C199.978 196.226 197.869 197.112 195.546 197.55C195.037 197.647 195.185 198.406 195.663 198.421C196.142 198.442 196.387 198.539 196.759 198.34C196.952 198.238 196.988 198.029 196.962 197.836C196.728 196.124 191.868 197.739 191.033 197.846C190.482 197.917 190.447 198.758 191.033 198.732C193.401 198.635 195.322 198.06 197.64 197.627C199.668 197.25 202.006 197.703 203.646 196.328C204.023 196.012 203.6 195.518 203.213 195.584C202.964 195.625 202.719 195.665 202.469 195.711C202.582 195.981 202.699 196.251 202.811 196.521C203.274 196.256 203.524 196.221 203.57 195.711C203.585 195.563 203.478 195.395 203.351 195.329C202.974 195.125 202.724 195.268 202.276 195.355C201.894 195.431 201.853 195.986 202.169 196.165C202.979 196.633 204.823 196.801 204.125 195.268C204.049 195.1 203.794 195.008 203.621 195.064C203.549 195.09 203.473 195.115 203.402 195.135C203.106 195.232 202.938 195.645 203.208 195.879C205.419 197.774 206.346 193.51 203.539 195.222C203.264 195.39 203.239 195.828 203.539 195.991C204.365 196.44 205.327 196.175 205.052 195.095C204.94 194.646 204.334 194.697 204.196 195.095C203.672 196.603 205.715 196.801 206 195.074C206.092 194.524 205.236 194.285 205.144 194.85Z" fill="#153051"/>
<path d="M214.772 191.07C215.139 191.35 215.205 191.381 214.966 191.177C214.726 190.958 214.309 191.034 214.222 191.371C213.901 192.665 214.813 191.111 214.314 191.488C214.232 191.549 213.988 191.361 213.891 191.457C213.519 191.844 213.463 191.641 213.351 192.283C213.57 192.196 213.784 192.104 214.003 192.018C213.86 191.951 213.728 191.87 213.606 191.778C213.478 191.692 213.29 191.702 213.157 191.778C212.847 191.962 212.887 192.359 212.699 192.491C212.847 192.39 211.507 192.858 211.639 192.797C208.837 194.015 205.801 195.762 202.765 196.149C202.872 196.404 202.974 196.654 203.081 196.908C204.579 195.38 207.712 195.151 209.617 194.259C210.136 194.02 209.683 193.251 209.169 193.49C207.238 194.392 203.993 194.702 202.449 196.277C202.205 196.526 202.362 197.087 202.765 197.036C206.107 196.608 208.904 194.667 212.037 193.597C212.373 193.48 212.898 193.439 213.162 193.301C213.748 192.996 213.28 192.639 213.555 192.787C213.784 192.909 214.156 192.817 214.207 192.522C214.141 192.471 214.079 192.425 214.013 192.374C214.125 192.486 214.293 192.532 214.446 192.486C214.91 192.354 214.966 192.058 215.073 191.61C214.823 191.676 214.579 191.743 214.329 191.804C214.431 191.885 214.518 191.977 214.594 192.079C214.691 192.191 214.889 192.242 215.027 192.191C215.582 191.997 215.582 191.62 215.654 191.07C215.73 190.505 214.844 190.51 214.772 191.07Z" fill="#153051"/>
<path d="M204.604 170.367C204.477 169.562 204.696 168.726 204.711 167.916C204.721 167.173 204.538 166.266 204.731 165.542C204.446 165.542 204.161 165.542 203.875 165.542C204.252 167.239 204.466 168.788 204.268 170.535C204.202 171.1 205.093 171.095 205.154 170.535C205.363 168.706 205.124 167.081 204.731 165.308C204.635 164.875 203.982 164.895 203.875 165.308C203.656 166.133 203.84 167.071 203.825 167.916C203.809 168.823 203.611 169.699 203.748 170.601C203.84 171.167 204.696 170.927 204.604 170.367Z" fill="#153051"/>
<path d="M149.819 190.347C149.096 194.106 149.122 197.78 152.346 200.357C155.994 203.276 161.322 203.098 165.648 202.308C166.208 202.207 165.974 201.351 165.413 201.453C161.842 202.105 157.716 202.313 154.379 200.602C150.293 198.508 149.906 194.631 150.68 190.581C150.782 190.026 149.926 189.786 149.819 190.347Z" fill="#153051"/>
<path d="M151.149 198.248C152.667 199.736 154.185 200.647 156.187 201.356C156.727 201.549 156.962 200.688 156.422 200.5C154.552 199.837 153.192 199.007 151.776 197.621C151.368 197.219 150.742 197.846 151.149 198.248Z" fill="#153051"/>
<path d="M64.1836 168.935C64.6523 167.152 65.6355 165.532 66.7665 164.096C66.5169 163.953 66.2723 163.805 66.0227 163.663C65.1261 166.184 63.9544 168.665 63.4297 171.299C63.3176 171.859 64.1735 172.099 64.2855 171.533C64.8052 168.905 65.9819 166.419 66.8785 163.897C67.0212 163.494 66.4099 163.117 66.1348 163.464C64.9019 165.028 63.8321 166.755 63.3227 168.696C63.1801 169.256 64.0359 169.49 64.1836 168.935Z" fill="#153051"/>
<path d="M51.9573 165.211C48.702 168.971 46.3382 172.455 46.0224 177.519C45.7269 182.252 46.5777 186.5 49.7463 190.163C55.7271 197.071 65.875 200.286 73.4248 193.953C73.8629 193.587 73.2312 192.96 72.7982 193.327C65.4318 199.501 55.4622 195.884 50.0112 189.043C44.0814 181.6 46.9597 172.338 52.589 165.843C52.9609 165.41 52.3343 164.778 51.9573 165.211Z" fill="#153051"/>
<path d="M65.4368 195.747C63.5672 195.747 61.6925 195.39 59.9808 194.677C58.585 194.101 57.3012 193.301 56.0531 192.537C54.0765 191.32 51.8401 189.939 50.3984 187.84C50.0163 187.285 49.6648 186.638 49.3234 185.869C46.8629 180.341 47.2857 173.688 50.4187 168.512C50.5461 168.303 50.8212 168.237 51.0301 168.365C51.2389 168.492 51.3051 168.767 51.1778 168.976C48.1925 173.907 47.7901 180.245 50.1335 185.512C50.4544 186.236 50.7804 186.832 51.1319 187.341C52.4667 189.282 54.6216 190.612 56.5218 191.783C57.7393 192.532 58.9925 193.312 60.3221 193.862C63.1393 195.028 66.4252 195.181 69.334 194.285C70.7401 193.852 71.7589 193.256 72.4365 192.471C73.2414 191.539 73.5165 190.27 73.114 189.318C72.6963 188.319 71.6418 187.682 70.5057 187.071C70.2917 186.954 70.2102 186.684 70.3274 186.47C70.4446 186.256 70.7146 186.174 70.9285 186.292C72.2123 186.984 73.4044 187.708 73.9393 188.976C74.4742 190.255 74.1482 191.855 73.1089 193.052C72.3142 193.969 71.168 194.646 69.5938 195.13C68.2591 195.543 66.848 195.747 65.4368 195.747Z" fill="#153051"/>
<path d="M122.162 197.239C126.808 199.598 131.831 201.335 136.651 203.312C140.191 204.769 141.944 205.946 145.184 204.04C146.172 203.46 145.275 201.926 144.287 202.507C141.129 204.361 137.72 201.819 134.542 200.459C130.731 198.829 126.763 197.581 123.059 195.701C122.04 195.186 121.144 196.72 122.162 197.239Z" fill="#153051"/>
<path d="M110.797 167.478C112.85 166.602 114.75 165.527 116.609 164.299C118.296 163.184 120.079 162.343 121.816 161.319C122.31 161.029 121.862 160.26 121.368 160.55C119.63 161.574 117.852 162.415 116.161 163.53C114.302 164.758 112.402 165.833 110.349 166.709C109.824 166.933 110.272 167.697 110.797 167.478Z" fill="#153051"/>
<path d="M107.246 93.2946C109.671 92.505 112.351 91.2161 113.532 88.8319C115.035 85.811 114.526 82.5455 113.894 79.3666C113.782 78.8012 112.947 79.0457 113.038 79.601C113.273 81.0121 113.538 82.4283 113.741 83.8446C114.042 85.9434 113.614 87.5685 112.559 89.3872C112.274 89.8814 113.038 90.3297 113.329 89.8355C115.443 86.1829 114.567 83.4014 113.894 79.3616C113.609 79.438 113.324 79.5195 113.038 79.5959C113.588 82.3927 114.118 85.3219 112.896 88.0219C111.811 90.4112 109.416 91.6491 107.012 92.4336C106.472 92.617 106.701 93.4729 107.246 93.2946Z" fill="#153051"/>
<path d="M114.001 80.1103C113.792 78.7908 112.855 77.8891 111.821 77.1403C111.785 77.4103 111.749 77.6803 111.714 77.9503C113.252 77.558 114.225 79.2697 114.368 80.5841C114.623 80.4771 114.872 80.3752 115.127 80.2682C114.373 79.5091 114.108 78.3935 113.349 77.6293C112.947 77.2218 112.315 77.8535 112.723 78.2559C113.476 79.015 113.741 80.1307 114.5 80.8948C114.75 81.1444 115.3 80.9763 115.259 80.579C115.056 78.6635 113.655 76.5341 111.485 77.0842C111.087 77.1861 111.087 77.6854 111.378 77.8942C112.239 78.5158 112.977 79.2391 113.145 80.3293C113.232 80.9101 114.088 80.6707 114.001 80.1103Z" fill="#153051"/>
<path d="M133.38 76.8654C133.818 78.7095 136.024 79.6825 137.746 78.8878C139.84 77.9199 139.503 74.2876 139.167 72.4333C138.882 72.5097 138.597 72.5912 138.311 72.6676C138.754 73.9412 139.101 75.821 138.546 77.1252C138.327 77.6448 139.091 78.0982 139.315 77.5735C139.972 76.0248 139.707 73.982 139.172 72.4333C138.984 71.8882 138.214 72.1072 138.316 72.6676C138.556 73.9972 138.693 75.7599 138.164 77.0437C137.41 78.8725 134.679 78.4803 134.241 76.6259C134.108 76.0757 133.248 76.3101 133.38 76.8654Z" fill="#153051"/>
<path d="M139.101 72.5554C138.861 71.8065 138.413 71.2003 138.087 70.4922C137.883 70.6959 137.68 70.8997 137.481 71.0984C138.428 71.5569 139.259 72.2039 139.809 73.1158C140.349 74.0124 140.4 74.965 140.701 75.9329C141.123 77.2982 142.438 78.2712 143.732 78.745C144.272 78.9437 144.501 78.0827 143.966 77.8892C142.631 77.4001 141.694 76.3914 141.404 75.0108C141.256 74.3231 141.108 73.6659 140.782 73.0342C140.155 71.8269 139.147 70.915 137.929 70.3292C137.517 70.1305 137.129 70.5278 137.323 70.9354C137.618 71.5671 138.036 72.1173 138.25 72.7897C138.418 73.3348 139.279 73.1005 139.101 72.5554Z" fill="#153051"/>
<path d="M162.087 77.2473C161.47 77.2473 160.828 76.9671 160.329 76.4628C159.748 75.8718 159.438 75.0975 159.183 74.4709C158.704 73.2686 158.266 72.0867 158.235 70.8182C158.23 70.5737 158.424 70.3699 158.668 70.3648C158.673 70.3648 158.673 70.3648 158.678 70.3648C158.918 70.3648 159.117 70.5584 159.122 70.7979C159.147 71.9135 159.555 73.019 160.003 74.1397C160.283 74.8377 160.533 75.4082 160.956 75.8362C161.317 76.203 161.913 76.4882 162.423 76.2997C162.774 76.1724 163.049 75.8413 163.253 75.5662C164.058 74.4709 164.522 73.1158 164.562 71.7556C164.578 71.2462 164.527 70.8641 164.41 70.538C164.338 70.3496 164.405 70.1356 164.568 70.0235C164.736 69.9063 164.955 69.9165 165.108 70.0439C165.429 70.3037 165.622 70.645 165.79 70.9456C165.943 71.2156 166.121 71.5213 166.239 71.8677C166.452 72.4841 166.442 73.1158 166.427 73.722C166.417 74.1907 166.412 74.6339 166.503 75.0465C166.565 75.3165 166.656 75.4999 166.784 75.5916C166.921 75.6935 167.155 75.7088 167.385 75.6324C167.655 75.5407 167.909 75.3369 168.123 75.1535C168.847 74.5371 169.499 73.8392 170.059 73.075C170.115 72.9528 170.197 72.8356 170.319 72.7388C170.487 72.5962 170.737 72.6063 170.9 72.7541C171.063 72.9069 171.088 73.1514 170.961 73.3348C170.92 73.396 170.879 73.452 170.834 73.5131C170.813 73.5743 170.798 73.6558 170.783 73.7169L170.752 73.8494C170.533 74.7307 169.871 75.3573 169.336 75.8616C168.882 76.2896 168.373 76.7786 167.695 77.0333C167.048 77.2779 166.182 77.2473 165.688 76.6309C165.535 76.4373 165.566 76.1571 165.76 76.0043C165.805 75.9686 165.851 75.9431 165.902 75.9279C165.78 75.7394 165.688 75.505 165.622 75.235C165.51 74.7154 165.515 74.2009 165.525 73.7016C165.535 73.1769 165.541 72.6828 165.408 72.2345C165.281 73.6201 164.771 74.9752 163.951 76.1011C163.676 76.478 163.284 76.9365 162.708 77.1454C162.525 77.2116 162.306 77.2473 162.087 77.2473Z" fill="#153051"/>
<path d="M184.797 72.7337C184.96 74.2518 185.159 75.8005 185.597 77.2676C185.842 78.0776 186.229 78.9692 187.028 79.3614C187.818 79.7486 188.485 79.4735 189.102 78.9233C190.401 77.772 191.511 76.2895 192.678 75.0058C192.469 74.7969 192.26 74.588 192.051 74.3792C191.369 75.2248 188.165 80.2224 186.825 78.9539C186.412 78.5616 185.78 79.1882 186.198 79.5805C186.952 80.2988 187.951 80.4261 188.791 79.7435C189.525 79.1475 190.1 78.1999 190.696 77.4663C191.359 76.6461 192.021 75.826 192.683 75.0058C193.035 74.5676 192.449 73.9461 192.057 74.3792C191.44 75.0516 190.829 75.7292 190.212 76.4016C189.846 76.8041 189.479 77.2116 189.107 77.6141C188.536 78.2356 188.638 78.3222 187.655 78.1235C186.702 77.9299 186.723 77.8535 186.453 77.0231C186.336 76.6614 186.264 76.2793 186.183 75.9075C185.954 74.8529 185.796 73.7984 185.684 72.7235C185.628 72.1682 184.736 72.1631 184.797 72.7337Z" fill="#153051"/>
<path d="M128.097 147.401C133.996 155.705 146.829 157.595 156.325 158.115C156.61 158.13 156.61 157.687 156.325 157.672C147.145 157.167 134.165 155.186 128.479 147.177C128.316 146.943 127.934 147.167 128.097 147.401Z" fill="#153051"/>
<path d="M128.077 147.346C130.288 157.132 144.155 157.977 152.295 158.14C152.581 158.146 152.581 157.702 152.295 157.697C144.45 157.539 130.644 156.719 128.505 147.228C128.444 146.948 128.011 147.065 128.077 147.346Z" fill="#153051"/>
<path d="M130.079 151.187C131.016 152.109 131.923 153.245 133.074 153.897C134.241 154.564 135.479 155.028 136.656 155.654C136.91 155.787 137.134 155.405 136.88 155.272C135.8 154.697 134.684 154.264 133.619 153.647C132.366 152.919 131.424 151.89 130.39 150.876C130.186 150.672 129.875 150.983 130.079 151.187Z" fill="#153051"/>
</g>
<defs>
<rect y="65.001" width="270" height="140.013" fill="white"/>
</clipPath>
</defs>
</svg>
