<svg width="24" height="24" viewBox="0 0 24 24" fill="none" xmlns="http://www.w3.org/2000/svg">
<path d="M11.8525 8.8421C11.6567 9.0368 11.3401 9.0359 11.1454 8.84008C10.9507 8.64426 10.9516 8.32768 11.1475 8.13297L13.322 5.97088C14.6235 4.67674 16.7263 4.67803 18.0263 5.97378C19.3205 7.26378 19.3239 9.3587 18.0339 10.6529C18.0304 10.6564 17.2917 11.3909 15.8178 12.8565C15.622 13.0512 15.3054 13.0503 15.1107 12.8545C14.916 12.6586 14.9169 12.342 15.1127 12.1473L17.3184 9.95427C18.2258 9.04391 18.2234 7.58215 17.3204 6.68204C16.4103 5.77494 14.9382 5.77403 14.027 6.68001L11.8525 8.8421ZM12.1467 15.1462C12.342 14.9511 12.6586 14.9513 12.8538 15.1467C13.0489 15.342 13.0487 15.6586 12.8533 15.8538L10.6793 18.0252C9.37864 19.3244 7.27121 19.3238 5.97127 18.0238C4.67147 16.7225 4.67271 14.6161 5.97266 13.3177L8.14665 11.1462C8.34203 10.9511 8.65861 10.9513 8.85376 11.1467C9.04891 11.342 9.04872 11.6586 8.85335 11.8538L6.67935 14.0252C5.77015 14.9333 5.76929 16.4066 6.67741 17.3158C7.58796 18.2263 9.06254 18.2267 9.97266 17.3177L12.1467 15.1462ZM10 6.5C10 6.77614 9.77614 7 9.5 7C9.22386 7 9 6.77614 9 6.5V4.5C9 4.22386 9.22386 4 9.5 4C9.77614 4 10 4.22386 10 4.5V6.5ZM15 19.5C15 19.7761 14.7761 20 14.5 20C14.2239 20 14 19.7761 14 19.5V17.5C14 17.2239 14.2239 17 14.5 17C14.7761 17 15 17.2239 15 17.5V19.5ZM7.85355 7.14645C8.04882 7.34171 8.04882 7.65829 7.85355 7.85355C7.65829 8.04882 7.34171 8.04882 7.14645 7.85355L5.14645 5.85355C4.95118 5.65829 4.95118 5.34171 5.14645 5.14645C5.34171 4.95118 5.65829 4.95118 5.85355 5.14645L7.85355 7.14645ZM18.8536 18.1464C19.0488 18.3417 19.0488 18.6583 18.8536 18.8536C18.6583 19.0488 18.3417 19.0488 18.1464 18.8536L16.1464 16.8536C15.9512 16.6583 15.9512 16.3417 16.1464 16.1464C16.3417 15.9512 16.6583 15.9512 16.8536 16.1464L18.8536 18.1464ZM6.5 9C6.77614 9 7 9.22386 7 9.5C7 9.77614 6.77614 10 6.5 10H4.5C4.22386 10 4 9.77614 4 9.5C4 9.22386 4.22386 9 4.5 9H6.5ZM19.5 14C19.7761 14 20 14.2239 20 14.5C20 14.7761 19.7761 15 19.5 15H17.5C17.2239 15 17 14.7761 17 14.5C17 14.2239 17.2239 14 17.5 14H19.5Z" fill="#4D627C"/>
</svg>
