<svg width="64" height="64" viewBox="0 0 64 64" fill="none" xmlns="http://www.w3.org/2000/svg">
<path d="M32 35C27.5817 35 24 38.5817 24 43C24 47.4183 27.5817 51 32 51C36.4165 50.9956 39.9956 47.4165 40 43C40 38.5817 36.4183 35 32 35ZM32 48.3334C29.0545 48.3334 26.6666 45.9456 26.6666 43C26.6666 40.0545 29.0545 37.6666 32 37.6666C34.9455 37.6666 37.3334 40.0544 37.3334 43C37.3334 45.9456 34.9455 48.3334 32 48.3334Z" fill="#4D627C"/>
<path d="M35.4374 48H27.5624C23.9398 48.0044 21.0043 50.9866 21 54.6666V62.6666C21 63.403 21.5877 64 22.3125 64H40.6875C41.4123 64 42 63.403 42 62.6666V54.6666C41.9956 50.9866 39.06 48.0044 35.4374 48ZM39.3749 61.3334H23.625V54.6668C23.625 52.4576 25.3878 50.6668 27.5624 50.6668H35.4374C37.612 50.6668 39.3749 52.4576 39.3749 54.6668V61.3334Z" fill="#4D627C"/>
<path d="M53 28C48.5817 28 45 31.5817 45 36C45 40.4183 48.5817 44 53 44C57.4165 43.9956 60.9956 40.4165 61 36C61 31.5817 57.4183 28 53 28ZM53 41.3334C50.0545 41.3334 47.6666 38.9455 47.6666 36C47.6666 33.0545 50.0545 30.6666 53 30.6666C55.9455 30.6666 58.3334 33.0545 58.3334 36C58.3334 38.9455 55.9455 41.3334 53 41.3334Z" fill="#4D627C"/>
<path d="M57.4374 41H49.5624C45.9398 41.0044 43.0043 43.9866 43 47.6667H45.625C45.625 45.4575 47.3878 43.6666 49.5624 43.6666H57.4374C59.612 43.6666 61.3749 45.4575 61.3749 47.6667V54.3334H45.625V57H62.6875C63.4123 57 64 56.403 64 55.6666V47.6666C63.9956 43.9865 61.0599 41.0044 57.4374 41Z" fill="#4D627C"/>
<path d="M11 28C6.58175 28 3 31.5817 3 36C3 40.4183 6.58175 44 11 44C15.4165 43.9956 18.9956 40.4165 19 36C19 31.5817 15.4184 28 11 28ZM11 41.3334C8.0545 41.3334 5.66662 38.9455 5.66662 36C5.66662 33.0545 8.05437 30.6666 11 30.6666C13.9456 30.6666 16.3334 33.0545 16.3334 36C16.3334 38.9455 13.9455 41.3334 11 41.3334Z" fill="#4D627C"/>
<path d="M6.56248 43.6666H14.4375C16.6121 43.6666 18.375 45.4575 18.375 47.6666H21C20.9957 43.9865 18.06 41.0044 14.4375 41H6.56248C2.93997 41.0044 0.00430666 43.9865 0 47.6666V55.6666C0 56.403 0.587674 57 1.31255 57H18.3752V54.3334H2.62509V47.6666C2.62497 45.4575 4.38787 43.6666 6.56248 43.6666Z" fill="#4D627C"/>
<path d="M33.0358 0H3.96429C1.77489 0 0 1.79087 0 4V20C0 22.2091 1.77489 24 3.96429 24H16.6316L24.173 31.6094C24.4208 31.8594 24.7569 32 25.1072 32C25.2809 32.0006 25.453 31.9661 25.6133 31.8986C26.107 31.6921 26.4287 31.2059 26.4286 30.6666V24H33.0357C35.2251 24 37 22.2091 37 20V4C37.0001 1.79087 35.2252 0 33.0358 0ZM34.3572 20C34.3572 20.7364 33.7655 21.3334 33.0357 21.3334H25.1071C24.3773 21.3334 23.7856 21.9304 23.7856 22.6667V27.4481L18.1127 21.7241C17.865 21.474 17.5289 21.3335 17.1785 21.3335H3.96429C3.23449 21.3335 2.64282 20.7365 2.64282 20.0001V4C2.64282 3.26362 3.23449 2.66662 3.96429 2.66662H33.0358C33.7656 2.66662 34.3573 3.26362 34.3573 4V20H34.3572Z" fill="#4D627C"/>
<path d="M60 7H40V9.71423H60C60.7364 9.71423 61.3334 10.3219 61.3334 11.0714V16.5C61.3334 17.2495 60.7364 17.8572 60 17.8572H49.3334C48.9137 17.8572 48.5185 18.0583 48.2668 18.4001L46.6666 20.5714V19.2142C46.6666 18.4647 46.0696 17.8571 45.3332 17.8571H40V20.5714H44V24.6428C44 25.3923 44.597 26 45.3334 26C45.753 26 46.1483 25.7988 46.4 25.4571L50 20.5714H60C62.2091 20.5714 64 18.7486 64 16.5V11.0714C64 8.82285 62.2091 7 60 7Z" fill="#4D627C"/>
<path d="M58 12H45V15H58V12Z" fill="#4D627C"/>
<path d="M43 12H40V15H43V12Z" fill="#4D627C"/>
<path d="M9 8C6.79087 8 5 9.79087 5 12C5 14.2091 6.79087 16 9 16C11.2091 16 13 14.2091 13 12C13 9.79087 11.2091 8 9 8ZM9 13.3334C8.26363 13.3334 7.66663 12.7364 7.66663 12C7.66663 11.2636 8.26363 10.6666 9 10.6666C9.73637 10.6666 10.3334 11.2636 10.3334 12C10.3334 12.7364 9.73637 13.3334 9 13.3334Z" fill="#4D627C"/>
<path d="M19 8C16.7909 8 15 9.79087 15 12C15 14.2091 16.7909 16 19 16C21.2091 16 23 14.2091 23 12C23 9.79087 21.2091 8 19 8ZM19 13.3334C18.2636 13.3334 17.6666 12.7364 17.6666 12C17.6666 11.2636 18.2636 10.6666 19 10.6666C19.7364 10.6666 20.3334 11.2636 20.3334 12C20.3334 12.7364 19.7364 13.3334 19 13.3334Z" fill="#4D627C"/>
<path d="M28 8C25.7909 8 24 9.79087 24 12C24 14.2091 25.7909 16 28 16C30.2091 16 32 14.2091 32 12C32 9.79087 30.2091 8 28 8ZM28 13.3334C27.2636 13.3334 26.6666 12.7364 26.6666 12C26.6666 11.2636 27.2636 10.6666 28 10.6666C28.7364 10.6666 29.3334 11.2636 29.3334 12C29.3334 12.7364 28.7364 13.3334 28 13.3334Z" fill="#4D627C"/>
</svg>
