<svg width="186" height="44" viewBox="0 0 186 44" fill="none" xmlns="http://www.w3.org/2000/svg">
<rect y="0.500977" width="186" height="43" fill="white"/>
<path d="M107.87 17.4265H100.551V18.2179C102.84 18.2179 103.209 18.718 103.209 21.6769V27.0121C103.209 29.971 102.841 30.5132 100.551 30.5132C98.7937 30.263 97.6076 29.3045 95.9721 27.4704L94.0912 25.3868C96.626 24.9278 97.9749 23.3029 97.9749 21.4688C97.9749 19.177 96.0537 17.4265 92.4554 17.4265H85.2599V18.2179C87.5488 18.2179 87.9172 18.718 87.9172 21.6769V27.0121C87.9172 29.971 87.5492 30.5132 85.2599 30.5132V31.305H93.3961V30.5132C91.1068 30.5132 90.7388 29.971 90.7388 27.0121V25.5125H91.4336L95.9725 31.305H107.87C113.717 31.305 116.252 28.138 116.252 24.3448C116.252 20.5521 113.717 17.4265 107.87 17.4265ZM90.7391 24.2192V18.6769H92.4152C94.2548 18.6769 95.0728 19.9688 95.0728 21.4691C95.0728 22.928 94.2548 24.2196 92.4152 24.2196L90.7391 24.2192ZM107.993 30.0128H107.707C106.235 30.0128 106.031 29.6383 106.031 27.721V18.6769H107.993C112.246 18.6769 113.022 21.8439 113.022 24.3031C113.022 26.845 112.245 30.0128 107.993 30.0128ZM62.4872 25.762L65.3084 17.2591C66.1264 14.8003 65.7584 14.0924 63.1417 14.0924V13.2585H70.8282V14.0924C68.2525 14.0924 67.6393 14.7171 66.6171 17.7595L61.9556 32.0132H61.4243L57.2538 18.9682L53.0017 32.0132H52.4701L47.9318 17.7599C46.9502 14.7175 46.2964 14.0928 43.9245 14.0928V13.2589H53.0013V14.0928C50.5888 14.0928 49.9343 14.676 50.7933 17.2594L53.5326 25.7624L57.6621 13.2589H58.4392L62.4872 25.762ZM76.388 31.8461C71.8907 31.8461 68.2108 28.4707 68.2108 24.3441C68.2108 20.2597 71.891 16.8839 76.388 16.8839C80.8856 16.8839 84.5651 20.2597 84.5651 24.3441C84.5651 28.4707 80.8856 31.8461 76.388 31.8461ZM76.388 18.1768C72.6268 18.1768 71.3181 21.6351 71.3181 24.3445C71.3181 27.0956 72.6268 30.5129 76.388 30.5129C80.1908 30.5129 81.4995 27.0956 81.4995 24.3445C81.4991 21.6351 80.1908 18.1768 76.388 18.1768Z" fill="#CDD9E8"/>
<path d="M126.35 30.4712V31.3047H116.987V30.4712C119.727 30.4712 120.218 29.7626 120.218 25.5943V18.9269C120.218 14.7586 119.727 14.0925 116.987 14.0925V13.2583H125.451C129.662 13.2583 131.993 15.4672 131.993 18.4268C131.993 21.3025 129.662 23.5528 125.451 23.5528H123.12V25.5943C123.12 29.763 123.611 30.4712 126.35 30.4712ZM125.451 14.7586H123.12V22.0107H125.451C127.741 22.0107 128.803 20.3855 128.803 18.4268C128.803 16.4264 127.741 14.7586 125.451 14.7586ZM160.081 27.3874L159.877 28.1374C159.509 29.5127 159.059 30.0129 156.156 30.0129H155.583C153.457 30.0129 153.089 29.5127 153.089 26.5542V24.6373C156.279 24.6373 156.524 24.9286 156.524 27.0961H157.301V20.8856H156.524C156.524 23.0527 156.279 23.3444 153.089 23.3444V18.677H155.338C158.241 18.677 158.69 19.1771 159.059 20.5525L159.264 21.3443H159.917L159.631 17.4269H147.611V18.2183C149.9 18.2183 150.268 18.7184 150.268 21.6773V27.0122C150.268 29.7191 149.956 30.401 148.151 30.4986C146.435 30.2311 145.257 29.2776 143.646 27.4705L141.765 25.3869C144.299 24.9279 145.649 23.303 145.649 21.4689C145.649 19.1771 143.727 17.4266 140.13 17.4266H132.934V18.218C135.223 18.218 135.591 18.7181 135.591 21.677V27.0122C135.591 29.9711 135.224 30.5133 132.934 30.5133V31.3051H141.07V30.5133C138.781 30.5133 138.413 29.9711 138.413 27.0122V25.5126H139.108L143.646 31.3051H160.45L160.696 27.3881L160.081 27.3874ZM138.412 24.2193V18.677H140.088C141.928 18.677 142.746 19.9689 142.746 21.4692C142.746 22.9281 141.928 24.2197 140.088 24.2197L138.412 24.2193ZM168.381 31.8462C166.745 31.8462 165.314 30.9713 164.701 30.4291C164.496 30.6379 164.129 31.263 164.047 31.8462H163.27V26.0952H164.088C164.415 28.8459 166.295 30.4712 168.708 30.4712C170.016 30.4712 171.079 29.7209 171.079 28.4711C171.079 27.3877 170.139 26.5538 168.463 25.7621L166.132 24.6369C164.496 23.8445 163.27 22.4687 163.27 20.6357C163.27 18.6353 165.11 16.9268 167.645 16.9268C168.994 16.9268 170.139 17.4273 170.834 18.0106C171.038 17.8435 171.243 17.3852 171.366 16.8847H172.143V21.803H171.284C170.997 19.844 169.935 18.2187 167.768 18.2187C166.623 18.2187 165.56 18.8851 165.56 19.9278C165.56 21.0112 166.418 21.5945 168.381 22.5112L170.629 23.6364C172.592 24.5948 173.369 26.1376 173.369 27.3877C173.369 30.0129 171.12 31.8462 168.381 31.8462ZM180.974 31.8462C179.338 31.8462 177.907 30.9713 177.294 30.4291C177.089 30.6379 176.721 31.263 176.64 31.8462H175.863V26.0952H176.681C177.008 28.8459 178.888 30.4712 181.301 30.4712C182.609 30.4712 183.673 29.7209 183.673 28.4711C183.673 27.3877 182.732 26.5538 181.056 25.7621L178.725 24.6369C177.089 23.8445 175.863 22.4687 175.863 20.6357C175.863 18.6353 177.703 16.9268 180.238 16.9268C181.587 16.9268 182.731 17.4273 183.427 18.0106C183.631 17.8435 183.836 17.3852 183.958 16.8847H184.735V21.803H183.877C183.59 19.844 182.527 18.2187 180.361 18.2187C179.216 18.2187 178.152 18.8851 178.152 19.9278C178.152 21.0112 179.011 21.5945 180.974 22.5112L183.222 23.6364C185.185 24.5948 185.961 26.1376 185.961 27.3877C185.961 30.0129 183.712 31.8462 180.974 31.8462Z" fill="#CDD9E8"/>
<path d="M3.03672 22.0007C3.03672 29.3016 7.19897 35.6104 13.2346 38.6005L4.60363 14.4945C3.56883 16.8563 3.03488 19.4141 3.03672 22.0007ZM33.3462 21.07C33.3462 18.7906 32.543 17.212 31.854 15.9833C30.9368 14.464 30.0771 13.1774 30.0771 11.6581C30.0771 9.96264 31.3386 8.3844 33.1155 8.3844C33.1958 8.3844 33.2719 8.39458 33.35 8.39914C30.1308 5.39322 25.8418 3.55737 21.1315 3.55737C14.8101 3.55737 9.24825 6.86336 6.0132 11.8708C6.43738 11.8838 6.8378 11.8925 7.17763 11.8925C9.07025 11.8925 11.9999 11.6585 11.9999 11.6585C12.9753 11.5998 13.0903 13.0602 12.1159 13.1777C12.1159 13.1777 11.1357 13.2953 10.045 13.3536L16.6339 33.332L20.5937 21.2265L17.7745 13.3532C16.8002 13.295 15.8767 13.1774 15.8767 13.1774C14.9017 13.1191 15.016 11.5995 15.991 11.6581C15.991 11.6581 18.9796 11.8922 20.7575 11.8922C22.6495 11.8922 25.5798 11.6581 25.5798 11.6581C26.5559 11.5995 26.6706 13.0598 25.6959 13.1774C25.6959 13.1774 24.7132 13.295 23.6245 13.3532L30.1635 33.18L31.9683 27.0324C32.7509 24.4813 33.3462 22.6489 33.3462 21.07Z" fill="#CDD9E8"/>
<path d="M21.4486 23.6139L16.0193 39.694C17.6792 40.1926 19.4007 40.4458 21.1312 40.4457C23.1776 40.4463 25.2092 40.0928 27.1396 39.4002C27.0894 39.3196 27.0463 39.2346 27.0108 39.1462L21.4486 23.6139ZM37.0083 13.1516C37.0864 13.7391 37.1302 14.3701 37.1302 15.0482C37.1302 16.9198 36.7872 19.0238 35.7543 21.6546L30.2273 37.9434C35.6066 34.7459 39.2249 28.8053 39.2249 22.0006C39.2297 18.9076 38.4672 15.8636 37.0083 13.1516Z" fill="#CDD9E8"/>
<path d="M21.1319 0.500977C9.5018 0.500977 0.0393753 10.1456 0.0393753 22.0005C0.0393753 33.8567 9.5018 43.5013 21.1323 43.5013C32.7617 43.5013 42.2259 33.8571 42.2259 22.0005C42.2252 10.1456 32.7617 0.500977 21.1319 0.500977ZM21.1319 42.5155C10.0351 42.5155 1.00652 33.3124 1.00652 22.0005C1.00652 10.6895 10.0348 1.48716 21.1319 1.48716C32.2284 1.48716 41.256 10.6895 41.256 22.0005C41.2563 33.3124 32.2284 42.5155 21.1319 42.5155Z" fill="#CDD9E8"/>
</g>
<defs>
<rect y="0.500977" width="186" height="43" fill="white"/>
</clipPath>
</defs>
</svg>
