<svg width="32" height="32" viewBox="0 0 32 32" fill="none" xmlns="http://www.w3.org/2000/svg">
<circle cx="15.5" cy="15.5" r="15.5" fill="#43BE83"/>
<path d="M16 32C7.17725 32 0 24.8228 0 16C0 7.17725 7.17725 0 16 0C24.8228 0 32 7.17725 32 16C32 24.8228 24.8228 32 16 32ZM16 2C8.28003 2 2 8.28003 2 16C2 23.72 8.28003 30 16 30C23.72 30 30 23.72 30 16C30 8.28003 23.72 2 16 2Z" fill="#43BE83"/>
<path d="M14.3323 22C14.0762 22 13.8204 21.8998 13.6256 21.6976L9.29293 17.2293C8.90236 16.8263 8.90236 16.1732 9.29293 15.7704C9.6835 15.3676 10.3167 15.3676 10.7075 15.7704L14.3335 19.5102L22.2927 11.3021C22.6833 10.8993 23.3165 10.8993 23.7071 11.3021C24.0976 11.7049 24.0976 12.3579 23.7071 12.7607L15.0414 21.6976C14.8442 21.8998 14.5884 22 14.3323 22Z" fill="white"/>
</svg>
