<?xml version="1.0" standalone="no"?>
<!DOCTYPE svg PUBLIC "-//W3C//DTD SVG 1.1//EN" "http://www.w3.org/Graphics/SVG/1.1/DTD/svg11.dtd" >
<svg xmlns="http://www.w3.org/2000/svg" xmlns:xlink="http://www.w3.org/1999/xlink" version="1.1">
<metadata>
Created by FontForge 20170731 at Sun Sep  2 14:39:44 2012
 By Aleksey,,,
Copyright (c) 2008-2012 by Jos Buivenga/exljbris. All rights reserved.
</metadata>
<defs>
<font id="MuseoCyrl-500" horiz-adv-x="577" >
  <font-face 
    font-family="Museo Cyrl 500"
    font-weight="400"
    font-stretch="normal"
    units-per-em="1000"
    panose-1="2 0 0 0 0 0 0 0 0 0"
    ascent="750"
    descent="-250"
    x-height="506"
    cap-height="706"
    bbox="-108 -237 1088 892"
    underline-thickness="50"
    underline-position="-200"
    unicode-range="U+0020-FB04"
  />
<missing-glyph horiz-adv-x="510" 
d="M5 0v700h500v-700h-500zM255 395l170 255h-340zM285 350l170 -255v510zM55 95l170 255l-170 255v-510zM85 50h340l-170 255z" />
    <glyph glyph-name="f_f" unicode="ff" horiz-adv-x="631" 
d="M85 0v428h-63v78h63v17q0 48 14 83.5t34.5 55t48 31t49.5 15t45 3.5l37 -3v-83q-10 2 -25 2q-17 0 -33 -4t-34 -14t-28.5 -33t-10.5 -56v-14h218v17q0 48 14 83.5t34.5 55t48 31t49.5 15t45 3.5l37 -3v-83q-11 2 -25 2q-17 0 -33 -4t-34 -14t-28.5 -33t-10.5 -56v-14h119
v-78h-119v-428h-97v428h-218v-428h-97z" />
    <glyph glyph-name="fi" unicode="fi" horiz-adv-x="585" 
d="M85 0v428h-63v78h63v17q0 48 14 83.5t34.5 55t48 31t49.5 15t45 3.5l37 -3v-83q-11 2 -27 2q-17 0 -32.5 -4t-33 -14t-28 -33t-10.5 -56v-14h255q34 0 49 -15t15 -49v-337q0 -22 22 -22h41v-83h-95q-34 0 -49.5 15t-15.5 49v342q0 22 -22 22h-200v-428h-97zM406 605v101
h88v-101h-88z" />
    <glyph glyph-name="fl" unicode="fl" horiz-adv-x="580" 
d="M85 0v428h-63v78h63v17q0 47 14 82.5t34 54t48.5 29.5t49.5 14t45 3h154q34 0 49.5 -15t15.5 -49v-537q0 -22 22 -22h41v-83h-96q-34 0 -49 15t-15 49v537q0 22 -22 22h-88q-106 0 -106 -102v-15h120v-78h-120v-428h-97z" />
    <glyph glyph-name="f_f_i" unicode="ffi" horiz-adv-x="899" 
d="M85 0v428h-63v78h63v17q0 48 14 83.5t34.5 55t48 31t49.5 15t45 3.5l37 -3v-83q-11 2 -27 2q-17 0 -32.5 -4t-33 -14t-28 -33t-10.5 -56v-14h218v17q0 48 14 83.5t34.5 55t48 31t49.5 15t45 3.5l37 -3v-83q-11 2 -27 2q-17 0 -32.5 -4t-33 -14t-28 -33t-10.5 -56v-14h255
q34 0 49 -15t15 -49v-337q0 -22 22 -22h41v-83h-96q-34 0 -49 15t-15 49v342q0 22 -22 22h-200v-428h-97v428h-218v-428h-97zM721 605v101h87v-101h-87z" />
    <glyph glyph-name="f_f_l" unicode="ffl" horiz-adv-x="894" 
d="M85 0v428h-63v78h63v19q0 47 14 82.5t33.5 54.5t47 30.5t49.5 15t45 3.5l39 -3v-83q-12 2 -27 2q-17 0 -32.5 -4t-33 -14t-28 -33t-10.5 -55v-15h218v17q0 47 14 82.5t34 54t48 29.5t49.5 14t44.5 3h155q34 0 49 -15t15 -49v-537q0 -22 22 -22h41v-83h-95q-34 0 -49 15
t-15 49v537q0 22 -22 22h-88q-106 0 -106 -102v-15h119v-78h-119v-428h-97v428h-218v-428h-97z" />
    <glyph glyph-name="f_j" unicode="fj" horiz-adv-x="586" 
d="M85 0v428h-63v78h63v17q0 48 14 83.5t34.5 55t48 31t49.5 15t45 3.5l37 -3v-83q-11 2 -27 2q-17 0 -32.5 -4t-33 -14t-28 -33t-10.5 -56v-14h276q34 0 49 -15t15 -49v-459q0 -48 -14.5 -84t-35 -55.5t-49 -31.5t-50.5 -15t-45 -3l-34 2v83q9 -1 22 -1q18 0 34 4t34.5 14
t29.5 34t11 59v417q0 22 -22 22h-221v-428h-97zM428 605v101h87v-101h-87z" />
    <glyph glyph-name=".notdef" horiz-adv-x="510" 
d="M5 0v700h500v-700h-500zM255 395l170 255h-340zM285 350l170 -255v510zM55 95l170 255l-170 255v-510zM85 50h340l-170 255z" />
    <glyph glyph-name=".null" horiz-adv-x="0" 
 />
    <glyph glyph-name="nonmarkingreturn" horiz-adv-x="333" 
 />
    <glyph glyph-name="space" unicode=" " horiz-adv-x="269" 
 />
    <glyph glyph-name="exclam" unicode="!" horiz-adv-x="268" 
d="M91 194l-7 512h100l-6 -512h-87zM85 0v97h99v-97h-99z" />
    <glyph glyph-name="quotedbl" unicode="&#x22;" horiz-adv-x="345" 
d="M204 530v188h77v-188h-77zM64 530v188h76v-188h-76z" />
    <glyph glyph-name="numbersign" unicode="#" horiz-adv-x="707" 
d="M134 0l34 191h-131l12 74h131l30 168h-130l12 73h130l35 200h81l-35 -200h155l35 200h82l-35 -200h130l-12 -73h-131l-30 -168h130l-12 -74h-130l-33 -191h-82l34 191h-155l-34 -191h-81zM261 265h155l30 168h-155z" />
    <glyph glyph-name="dollar" unicode="$" 
d="M53 125l71 59q2 -4 7 -11t21 -25.5t34 -32t47.5 -25t61.5 -11.5q54 0 87.5 29.5t33.5 75.5q0 41 -35 71t-85.5 52t-100.5 48t-85 71.5t-35 108.5q0 70 51 119.5t133 60.5v94h73v-93q40 -5 75 -17.5t62.5 -41.5t27.5 -69v-58h-92v33q0 27 -30.5 45.5t-73.5 18.5
q-56 0 -90 -26t-34 -65q0 -30 19 -53t49 -39.5t66 -32t72.5 -34.5t66.5 -42.5t49 -61.5t19 -86q0 -74 -51 -130t-135 -66v-93h-73v92q-40 5 -76 20.5t-58.5 34.5t-39.5 37t-25 30z" />
    <glyph glyph-name="percent" unicode="%" horiz-adv-x="748" 
d="M193 422q-64 0 -108 43t-44 105q0 61 44.5 104.5t107.5 43.5q62 0 107 -43.5t45 -104.5t-45 -104.5t-107 -43.5zM57 0l540 706h94l-540 -706h-94zM193 496q31 0 52.5 21.5t21.5 52.5t-21.5 53t-52.5 22t-52.5 -22t-21.5 -53q0 -32 21.5 -53t52.5 -21zM404 136
q0 61 44 104.5t107 43.5t107.5 -43.5t44.5 -104.5t-44.5 -104.5t-107.5 -43.5t-107 43t-44 105zM482 136q0 -31 21 -52.5t52 -21.5t52.5 21t21.5 53q0 31 -21.5 53t-52.5 22t-52 -22t-21 -53z" />
    <glyph glyph-name="ampersand" unicode="&#x26;" horiz-adv-x="638" 
d="M43 202q0 58 33 109t90 67v2q-4 1 -10 4t-22 15.5t-28 28.5t-22 45t-10 63q0 82 58.5 132t153.5 50q21 0 43.5 -3t34.5 -5l12 -3l-25 -79q-30 7 -54 7q-54 0 -88.5 -31t-34.5 -78q0 -19 5.5 -36.5t18.5 -35.5t40 -28.5t66 -10.5h127v91h97v-91h90v-86h-90v-94
q0 -117 -63.5 -182t-175.5 -65q-108 0 -177 61t-69 153zM145 203q0 -52 39 -88t105 -36q67 0 104.5 39.5t37.5 120.5v90h-126q-77 0 -118.5 -33t-41.5 -93z" />
    <glyph glyph-name="quotesingle" unicode="'" horiz-adv-x="205" 
d="M64 530v188h77v-188h-77z" />
    <glyph glyph-name="parenleft" unicode="(" horiz-adv-x="271" 
d="M159 -95q-118 182 -118 424q0 232 113 406h85q-110 -184 -110 -399q0 -230 115 -431h-85z" />
    <glyph glyph-name="parenright" unicode=")" horiz-adv-x="271" 
d="M27 -95q115 201 115 431q0 215 -111 399h86q113 -174 113 -406q0 -240 -118 -424h-85z" />
    <glyph glyph-name="asterisk" unicode="*" horiz-adv-x="483" 
d="M163 329l-72 52l89 110v2l-137 37l27 84l133 -50l-8 142h91l-8 -142l134 50l28 -84l-138 -37v-2l89 -110l-72 -52l-77 118h-2z" />
    <glyph glyph-name="plus" unicode="+" 
d="M24 246v78h224v246h82v-246h223v-78h-223v-246h-82v246h-224z" />
    <glyph glyph-name="comma" unicode="," horiz-adv-x="249" 
d="M24 -101l62 206h97l-84 -206h-75z" />
    <glyph glyph-name="hyphen" unicode="-" horiz-adv-x="410" 
d="M59 242v86h292v-86h-292z" />
    <glyph glyph-name="period" unicode="." horiz-adv-x="217" 
d="M59 0v103h99v-103h-99z" />
    <glyph glyph-name="slash" unicode="/" horiz-adv-x="413" 
d="M37 -42l254 786h86l-254 -786h-86z" />
    <glyph glyph-name="zero" unicode="0" horiz-adv-x="599" 
d="M299 -12q-249 0 -249 366q0 364 249 364q250 0 250 -364q0 -366 -250 -366zM299 79q149 0 149 275q0 273 -149 273q-148 0 -148 -273q0 -275 148 -275z" />
    <glyph glyph-name="one" unicode="1" horiz-adv-x="465" 
d="M44 0v86h155v456l1 43h-2q-8 -15 -33 -40l-67 -65l-59 62l168 164h92v-620h153v-86h-408z" />
    <glyph glyph-name="two" unicode="2" horiz-adv-x="570" 
d="M37 81q0 53 20 95.5t51.5 71t69.5 52.5t76.5 45.5t70 44t51.5 54t20 70.5q0 49 -34 80.5t-90 31.5q-46 0 -77.5 -20t-31.5 -47v-31h-92v60q0 43 35 74t80 43.5t90 12.5q97 0 159.5 -56.5t62.5 -146.5q0 -67 -37 -119t-89.5 -84.5t-105 -61t-89.5 -65t-37 -80.5
q0 -19 25 -19h251q22 0 22 22v45h92v-89q0 -34 -15 -49t-49 -15h-362q-40 0 -53.5 18t-13.5 63z" />
    <glyph glyph-name="three" unicode="3" horiz-adv-x="556" 
d="M34 87l54 75q8 -9 23 -22.5t61.5 -35.5t94.5 -22q59 0 100 36.5t41 92.5q0 57 -44.5 91.5t-108.5 34.5h-49l-22 53l147 185q9 13 19.5 24.5t16.5 16.5l6 5v2q-21 -3 -60 -3h-137q-22 0 -22 -22v-45h-91v89q0 34 13.5 49t46.5 15h372v-63l-185 -224q79 -9 139.5 -61
t60.5 -146q0 -92 -68 -158t-175 -66q-41 0 -80 10t-65.5 24.5t-47 29.5t-30.5 25z" />
    <glyph glyph-name="four" unicode="4" horiz-adv-x="586" 
d="M18 187v64l319 455h114v-433h110v-86h-110v-187h-100v187h-333zM127 270q29 3 60 3h165v243l4 72h-2q-17 -33 -35 -59l-156 -212l-36 -45v-2z" />
    <glyph glyph-name="five" unicode="5" horiz-adv-x="548" 
d="M37 87l55 73q2 -3 6.5 -8.5t20 -19t33 -23.5t46 -18.5t58.5 -8.5q66 0 109 40.5t43 100.5q0 64 -48.5 104t-118.5 40q-35 0 -69 -9t-50 -18l-16 -9l-41 19l28 292q3 35 17 49.5t47 14.5h247q33 0 48 -15t15 -49v-89h-91v45q0 22 -22 22h-148q-19 0 -22 -22l-14 -129
l-5 -37h2q39 21 91 21q113 0 182.5 -66.5t69.5 -165.5q0 -96 -71 -164.5t-183 -68.5q-41 0 -78.5 10t-62 24.5t-43 29.5t-26.5 25z" />
    <glyph glyph-name="six" unicode="6" horiz-adv-x="571" 
d="M308 -12q-114 0 -189 89.5t-75 235.5q0 72 19.5 141.5t57 129.5t100.5 97t141 37q37 0 71.5 -7t50.5 -15l15 -7l-32 -85q-44 23 -100 23q-91 0 -145 -70.5t-67 -171.5h2q20 31 64 50t92 19q98 0 160 -66t62 -164q0 -104 -64 -170t-163 -66zM149 271q0 -71 47 -131.5
t112 -60.5q59 0 94 41t35 104q0 65 -39 105.5t-106 40.5q-58 0 -100.5 -30t-42.5 -69z" />
    <glyph glyph-name="seven" unicode="7" horiz-adv-x="528" 
d="M70 0l299 556l41 65v2q-16 -3 -51 -3h-213q-22 0 -22 -22v-45h-91v89q0 34 13.5 49t46.5 15h430v-68l-343 -638h-110z" />
    <glyph glyph-name="eight" unicode="8" horiz-adv-x="579" 
d="M43 202q0 32 12 63t29.5 51.5t34.5 36t29 23.5l12 7v2q-4 2 -9.5 5.5t-20.5 17t-26.5 28.5t-21 40.5t-9.5 52.5q0 78 59 133.5t161 55.5q100 0 160.5 -53.5t60.5 -137.5q0 -46 -21.5 -88t-42.5 -61l-22 -19v-2q106 -61 106 -162q0 -85 -69.5 -146t-175.5 -61
q-102 0 -174 59.5t-72 154.5zM287 416q37 -17 54 -17q20 0 47.5 39t27.5 83q0 48 -34 77t-89 29q-56 0 -89 -28.5t-33 -71.5q0 -42 28.5 -65t87.5 -46zM144 207q0 -57 42.5 -92.5t102.5 -35.5q58 0 100.5 34t42.5 85q0 42 -29.5 67t-88.5 49q-64 26 -73 26
q-24 0 -60.5 -41.5t-36.5 -91.5z" />
    <glyph glyph-name="nine" unicode="9" horiz-adv-x="571" 
d="M72 17l32 86q45 -24 101 -24q90 0 145 71t67 172h-2q-21 -32 -64.5 -50.5t-91.5 -18.5q-99 0 -161 65.5t-62 163.5q0 104 64 170t163 66q114 0 189 -89.5t75 -235.5q0 -72 -19.5 -141.5t-57 -129.5t-100 -97t-141.5 -37q-37 0 -71.5 7t-49.5 15zM279 336q58 0 100.5 30
t42.5 69q0 71 -46.5 131.5t-111.5 60.5q-60 0 -95 -41t-35 -104q0 -64 39 -105t106 -41z" />
    <glyph glyph-name="colon" unicode=":" horiz-adv-x="217" 
d="M59 403v103h99v-103h-99zM59 0v103h99v-103h-99z" />
    <glyph glyph-name="semicolon" unicode=";" horiz-adv-x="268" 
d="M99 403v103h99v-103h-99zM46 -101l51 206h97l-73 -206h-75z" />
    <glyph glyph-name="less" unicode="&#x3c;" 
d="M43 252v66l466 208v-89l-357 -151v-2l357 -151v-89z" />
    <glyph glyph-name="equal" unicode="=" 
d="M50 340v78h477v-78h-477zM50 151v78h477v-78h-477z" />
    <glyph glyph-name="greater" unicode="&#x3e;" 
d="M67 44v89l357 151v2l-357 151v89l466 -208v-66z" />
    <glyph glyph-name="question" unicode="?" horiz-adv-x="463" 
d="M149 194v47q0 42 17.5 76.5t42.5 58.5t50 46t42.5 49.5t17.5 58.5q0 42 -33 70.5t-82 28.5q-28 0 -56.5 -10.5t-43.5 -20.5l-14 -11l-53 69q7 7 21 17.5t59.5 28.5t93.5 18q88 0 148.5 -51t60.5 -132q0 -46 -18 -82.5t-44 -61t-52.5 -47t-44.5 -50.5t-18 -61v-41h-94z
M146 0v97h100v-97h-100z" />
    <glyph glyph-name="at" unicode="@" horiz-adv-x="782" 
d="M48 241q0 155 106 262.5t259 107.5q135 0 197.5 -57.5t62.5 -145.5v-283h72v-73h-273q-91 0 -149 55.5t-58 133.5q0 77 57.5 132t149.5 55h108q-2 45 -44.5 74t-117.5 29q-115 0 -194 -85.5t-79 -204.5q0 -121 79.5 -204t204.5 -83v-79q-166 0 -273.5 105.5t-107.5 260.5
zM363 242q0 -49 33 -83t83 -34h101v236h-99q-52 0 -85 -34.5t-33 -84.5z" />
    <glyph glyph-name="A" unicode="A" horiz-adv-x="665" 
d="M12 0v86h14q26 0 33 22l221 598h105l221 -598q7 -22 33 -22h14v-86h-55q-37 0 -53.5 11.5t-29.5 46.5l-53 145h-259l-53 -145q-13 -35 -29.5 -46.5t-53.5 -11.5h-55zM227 287h211l-77 215l-28 99h-2q-15 -62 -27 -99z" />
    <glyph glyph-name="B" unicode="B" horiz-adv-x="609" 
d="M98 64v556h-65v86h303q91 0 148 -48t57 -132q0 -55 -25 -94t-63 -58v-2q54 -16 85 -63t31 -108q0 -96 -64.5 -148.5t-162.5 -52.5h-179q-34 0 -49.5 15t-15.5 49zM198 409h138q47 0 75 30t28 77t-28 75.5t-77 28.5h-136v-211zM198 108q0 -22 22 -22h127q55 0 87 33t32 87
t-33 87.5t-87 33.5h-148v-219z" />
    <glyph glyph-name="C" unicode="C" horiz-adv-x="698" 
d="M35 359q0 153 101.5 256t252.5 103q39 0 82 -8.5t85.5 -25t70 -48t27.5 -71.5v-69h-92v40q0 41 -55 65t-116 24q-108 0 -180 -74t-72 -192q0 -116 73.5 -196.5t181.5 -80.5q39 0 76.5 10t63 24t45 28t29.5 24l9 10l54 -72q-4 -5 -12 -13t-34.5 -28t-56.5 -35.5
t-77.5 -28.5t-97.5 -13q-156 0 -257 106.5t-101 264.5z" />
    <glyph glyph-name="D" unicode="D" horiz-adv-x="714" 
d="M98 64v556h-65v86h286q163 0 260.5 -93.5t97.5 -258.5q0 -166 -97.5 -260t-260.5 -94h-156q-34 0 -49.5 15t-15.5 49zM198 108q0 -22 22 -22h92q121 0 191 70t70 198q0 127 -70.5 196.5t-190.5 69.5h-114v-512z" />
    <glyph glyph-name="E" unicode="E" horiz-adv-x="571" 
d="M98 64v556h-65v86h416q34 0 49 -15t15 -49v-89h-92v45q0 22 -22 22h-201v-221h248v-86h-248v-205q0 -22 22 -22h207q22 0 22 22v45h91v-89q0 -34 -15 -49t-49 -15h-313q-34 0 -49.5 15t-15.5 49z" />
    <glyph glyph-name="F" unicode="F" horiz-adv-x="511" 
d="M98 0v620h-65v86h390q34 0 49 -15t15 -49v-89h-91v45q0 22 -22 22h-176v-232h242v-86h-242v-302h-100z" />
    <glyph glyph-name="G" unicode="G" horiz-adv-x="728" 
d="M35 356q0 153 102 257.5t254 104.5q75 0 138 -22t89 -44l25 -21l-57 -73q-9 8 -24.5 19t-66 30t-102.5 19q-107 0 -180.5 -76.5t-73.5 -193.5q0 -121 73 -197.5t183 -76.5q35 0 69 9t56.5 22t40.5 26t27 22l8 9v71q0 22 -22 22h-43v86h92q34 0 49.5 -15t15.5 -49v-285
h-88v44l1 30h-2q-3 -3 -9.5 -9t-27.5 -21t-44.5 -26t-61.5 -20.5t-77 -9.5q-145 0 -244.5 103t-99.5 265z" />
    <glyph glyph-name="H" unicode="H" horiz-adv-x="757" 
d="M99 0v598q0 22 -22 22h-43v86h101q34 0 49 -15t15 -49v-247h359v247q0 34 15.5 49t49.5 15h100v-86h-43q-22 0 -22 -22v-598h-100v310h-359v-310h-100z" />
    <glyph glyph-name="I" unicode="I" horiz-adv-x="318" 
d="M42 0v86h69v534h-69v86h233v-86h-68v-534h68v-86h-233z" />
    <glyph glyph-name="J" unicode="J" horiz-adv-x="511" 
d="M16 203v35h100v-27q0 -68 32.5 -98.5t79.5 -30.5q46 0 78 30.5t32 94.5v391q0 22 -22 22h-173v86h230q34 0 49.5 -15t15.5 -49v-439q0 -107 -62 -161t-149 -54t-149 54.5t-62 160.5z" />
    <glyph glyph-name="K" unicode="K" horiz-adv-x="612" 
d="M99 0v598q0 22 -22 22h-43v86h101q34 0 49 -15t15 -49v-233h67q44 0 58 24l157 273h112l-171 -293q-9 -16 -19 -27.5t-15 -15.5l-6 -3v-2q20 -5 40 -44l106 -212q11 -23 50 -23h19v-86h-55q-43 0 -62.5 10t-35.5 43l-122 245q-14 26 -63 26h-60v-324h-100z" />
    <glyph glyph-name="L" unicode="L" horiz-adv-x="541" 
d="M98 64v534q0 22 -22 22h-43v86h101q34 0 49 -15t15 -49v-534q0 -22 22 -22h196q22 0 22 22v45h91v-89q0 -34 -15 -49t-49 -15h-302q-34 0 -49.5 15t-15.5 49z" />
    <glyph glyph-name="M" unicode="M" horiz-adv-x="862" 
d="M23 0v86h33q20 0 22 22l48 598h103l166 -373l35 -90h2q18 51 35 90l166 373h103l48 -598q2 -22 22 -22h34v-86h-89q-34 0 -48 14.5t-17 49.5l-28 373l-2 104h-2q-21 -66 -38 -104l-143 -310h-84l-142 310q-8 16 -17.5 42.5t-15.5 44.5l-5 18h-2q1 -63 -2 -105l-29 -373
q-2 -34 -16.5 -49t-47.5 -15h-89z" />
    <glyph glyph-name="N" unicode="N" horiz-adv-x="757" 
d="M34 0v86h43q22 0 22 22v598h91l314 -447l59 -96h2q-7 57 -7 96v383q0 34 15.5 49t49.5 15h100v-86h-43q-22 0 -22 -22v-598h-90l-315 447l-58 96h-2q6 -57 6 -96v-383q0 -34 -15 -49t-49 -15h-101z" />
    <glyph glyph-name="O" unicode="O" horiz-adv-x="793" 
d="M34 358q0 152 104.5 256t257.5 104t258 -104t105 -256q0 -156 -105 -263t-258 -107t-257.5 107t-104.5 263zM138 358q0 -116 75 -196t183 -80t183.5 80t75.5 196q0 113 -75.5 190t-183.5 77t-183 -77t-75 -190z" />
    <glyph glyph-name="P" unicode="P" horiz-adv-x="585" 
d="M98 0v620h-65v86h311q98 0 160 -60.5t62 -160.5t-62 -162t-160 -62h-146v-261h-100zM198 347h130q63 0 99 37t36 101q0 63 -35.5 99t-98.5 36h-131v-273z" />
    <glyph glyph-name="Q" unicode="Q" horiz-adv-x="793" 
d="M34 357q0 153 104 257t257 104q154 0 259 -104t105 -257q0 -131 -83 -232l81 -79l-60 -64l-81 81q-93 -75 -221 -75q-153 0 -257 107t-104 262zM138 357q0 -116 74.5 -195.5t182.5 -79.5q41 0 78.5 12t54.5 24l16 13l-78 76l60 65l77 -79q52 71 52 164q0 114 -75 190.5
t-185 76.5q-109 0 -183 -76.5t-74 -190.5z" />
    <glyph glyph-name="R" unicode="R" horiz-adv-x="622" 
d="M98 0v620h-65v86h309q94 0 152.5 -56t58.5 -151q0 -80 -41 -128.5t-87 -58.5v-2q18 -9 30 -32l85 -169q12 -23 51 -23h13v-86h-49q-44 0 -63 10t-36 43l-96 190q-12 24 -25.5 31t-43.5 7h-93v-281h-100zM198 367h131q57 0 89 34t32 94q0 59 -32 92t-88 33h-132v-253z" />
    <glyph glyph-name="S" unicode="S" horiz-adv-x="525" 
d="M29 93l58 71q3 -3 8.5 -9t24 -20.5t38 -26t49 -20.5t58.5 -9q50 0 85 29t35 76q0 40 -35 70t-85 52t-100 47.5t-85 70t-35 105.5q0 81 63.5 135t162.5 54q43 0 86 -11.5t78.5 -42.5t35.5 -76v-58h-92v33q0 27 -32.5 45.5t-76.5 18.5q-55 0 -89.5 -27t-34.5 -68
q0 -33 25.5 -58.5t63 -41.5t82 -37.5t82 -44t63 -64.5t25.5 -97q0 -84 -61 -142.5t-163 -58.5q-42 0 -82 11t-66 26t-46.5 30.5t-30.5 26.5z" />
    <glyph glyph-name="T" unicode="T" horiz-adv-x="632" 
d="M266 0v620h-141q-22 0 -22 -22v-45h-90v93q0 34 13 47t47 13h486q34 0 47 -13t13 -47v-93h-89v45q0 22 -22 22h-142v-620h-100z" />
    <glyph glyph-name="U" unicode="U" horiz-adv-x="720" 
d="M91 247v351q0 22 -22 22h-43v86h100q34 0 49.5 -15t15.5 -49v-391q0 -79 45.5 -124t123.5 -45q77 0 123 45.5t46 124.5v390q0 34 15 49t49 15h101v-86h-43q-22 0 -22 -22v-351q0 -116 -74 -187.5t-194 -71.5q-121 0 -195.5 71.5t-74.5 187.5z" />
    <glyph glyph-name="V" unicode="V" horiz-adv-x="667" 
d="M280 0l-221 598q-9 22 -34 22h-14v86h57q38 0 54 -11.5t28 -46.5l155 -435l27 -97h2q14 59 27 97l155 435q13 35 29 46.5t54 11.5h57v-86h-14q-25 0 -34 -22l-222 -598h-106z" />
    <glyph glyph-name="W" unicode="W" horiz-adv-x="967" 
d="M220 0l-154 598q-6 22 -35 22h-15v86h58q39 0 58.5 -12t27.5 -46l110 -454l13 -75h2q7 36 17 75l143 510h89l132 -510l15 -75h2q5 37 14 75l110 454q8 34 27 46t59 12h58v-86h-15q-29 0 -35 -22l-154 -598h-117l-120 446l-20 97h-2q-9 -51 -22 -96l-129 -447h-117z" />
    <glyph glyph-name="X" unicode="X" horiz-adv-x="595" 
d="M12 0l222 364l-142 231q-10 16 -19.5 20.5t-27.5 4.5h-25v86h58q38 0 57 -10.5t38 -43.5l79 -134l45 -83h2q20 44 43 83l80 134q19 33 38 43.5t56 10.5h59v-86h-26q-31 0 -46 -25l-143 -231l223 -364h-113l-129 215l-44 80h-2q-21 -42 -43 -81l-128 -214h-112z" />
    <glyph glyph-name="Y" unicode="Y" horiz-adv-x="606" 
d="M253 0v308l-179 287q-14 25 -43 25h-20v86h46q37 0 56 -10t39 -44l107 -178l43 -79h2q20 40 43 79l106 178q20 34 39 44t56 10h47v-86h-20q-29 0 -44 -25l-178 -287v-308h-100z" />
    <glyph glyph-name="Z" unicode="Z" horiz-adv-x="600" 
d="M32 0v66l348 490q12 17 25 33.5t21 24.5l7 7v2q-19 -3 -53 -3h-227q-22 0 -22 -22v-45h-91v89q0 34 15 49t49 15h452v-65l-348 -491q-12 -17 -25.5 -33t-20.5 -23l-7 -8v-2q19 2 53 2h249q22 0 22 22v45h91v-89q0 -34 -15 -49t-49 -15h-474z" />
    <glyph glyph-name="bracketleft" unicode="[" horiz-adv-x="282" 
d="M78 -31v702q0 34 15 49t49 15h102v-73h-59q-22 0 -22 -22v-639q0 -22 22 -22h59v-74h-102q-34 0 -49 15t-15 49z" />
    <glyph glyph-name="backslash" unicode="\" horiz-adv-x="413" 
d="M290 -42l-254 786h86l254 -786h-86z" />
    <glyph glyph-name="bracketright" unicode="]" horiz-adv-x="282" 
d="M39 -21h58q22 0 22 22v639q0 22 -22 22h-58v73h101q34 0 49.5 -15t15.5 -49v-702q0 -34 -15.5 -49t-49.5 -15h-101v74z" />
    <glyph glyph-name="asciicircum" unicode="^" horiz-adv-x="613" 
d="M69 247l200 459h63l200 -459h-88l-144 352l-143 -352h-88z" />
    <glyph glyph-name="underscore" unicode="_" horiz-adv-x="565" 
d="M14 0h538v-78h-538v78z" />
    <glyph glyph-name="grave" unicode="`" horiz-adv-x="379" 
d="M178 755l-95 127h98l73 -127h-76z" />
    <glyph glyph-name="a" unicode="a" horiz-adv-x="529" 
d="M28 138q0 177 306 177h22v7q0 64 -26.5 91.5t-85.5 27.5q-28 0 -55.5 -8.5t-27.5 -30.5v-29h-92v51q0 28 20 48.5t50.5 29.5t55.5 12.5t47 3.5q117 0 164 -52t47 -146v-215q0 -22 22 -22h41v-83h-92q-62 0 -62 58l1 30h-2q1 0 -4.5 -10.5t-18 -25t-30.5 -29t-47 -25
t-63 -10.5q-70 0 -120 40.5t-50 109.5zM125 147q0 -33 25 -57.5t70 -24.5q60 0 98 50t38 111v19h-26q-205 0 -205 -98z" />
    <glyph glyph-name="b" unicode="b" horiz-adv-x="583" 
d="M67 0v601q0 22 -22 22h-41v83h95q34 0 49.5 -15t15.5 -49v-165l-2 -42h2q2 3 5.5 9t17.5 20t31 25t46 20t62 9q101 0 162 -73t61 -192t-65 -192t-166 -73q-32 0 -60 9t-45 21t-30 24.5t-19 21.5l-5 9h-2q2 -16 2 -38v-35h-92zM161 251q0 -73 37.5 -126.5t105.5 -53.5
q62 0 104 48.5t42 132.5q0 82 -39.5 131.5t-103.5 49.5q-62 0 -104 -45.5t-42 -136.5z" />
    <glyph glyph-name="c" unicode="c" horiz-adv-x="530" 
d="M33 253q0 113 75.5 189t196.5 76q26 0 55 -5.5t58.5 -17.5t49 -35t19.5 -53v-52h-88v28q0 25 -30.5 38.5t-63.5 13.5q-75 0 -124.5 -50.5t-49.5 -130.5q0 -83 52 -131.5t127 -48.5q42 0 81.5 17.5t57.5 34.5l18 18l41 -69q-3 -4 -8.5 -9.5t-25 -20.5t-41.5 -26.5t-57 -21
t-73 -9.5q-119 0 -194.5 75t-75.5 190z" />
    <glyph glyph-name="d" unicode="d" horiz-adv-x="601" 
d="M35 253q0 120 63.5 192.5t164.5 72.5q33 0 61 -8t44.5 -19.5t29 -23t16.5 -19.5l5 -8h2q-1 15 -1 34v127q0 22 -22 22h-41v83h95q34 0 49.5 -15t15.5 -49v-537q0 -22 22 -22h41v-83h-93q-62 0 -62 54l1 26h-2q-2 -4 -5.5 -10t-17.5 -22t-31 -28t-47 -22t-65 -10
q-102 0 -162.5 73t-60.5 192zM133 253q0 -82 40 -131.5t104 -49.5q62 0 103.5 45.5t41.5 136.5q0 74 -37 127t-106 53q-62 0 -104 -49t-42 -132z" />
    <glyph glyph-name="e" unicode="e" horiz-adv-x="539" 
d="M33 253q0 119 72 192t182 73q103 0 160.5 -67.5t57.5 -169.5q0 -17 -3 -41h-369q4 -79 54 -123.5t121 -44.5q16 0 31.5 2.5t29 7.5t24.5 9.5t22.5 11.5t17.5 11l15 10l9 7l41 -71q-17 -14 -40 -28t-67.5 -29t-88.5 -15q-118 0 -193.5 75.5t-75.5 189.5zM137 310h271
q-2 63 -36.5 98t-86.5 35q-57 0 -97.5 -35.5t-50.5 -97.5z" />
    <glyph glyph-name="f" unicode="f" horiz-adv-x="316" 
d="M85 0v428h-63v78h63v17q0 48 14 83.5t34.5 55t48 31t49.5 15t45 3.5l37 -3v-83q-10 2 -25 2q-13 0 -25.5 -2t-28 -8.5t-26.5 -17.5t-18.5 -31t-7.5 -47v-15h120v-78h-120v-428h-97z" />
    <glyph glyph-name="g" unicode="g" horiz-adv-x="594" 
d="M114 -90q63 -34 138 -34q72 0 116.5 34.5t44.5 106.5v34l1 32h-2q-47 -77 -150 -77t-165 73.5t-62 185.5t59.5 182.5t162.5 70.5q36 0 65.5 -8t47 -20t29.5 -23.5t17 -19.5l4 -8h2q-1 8 -1 16q0 51 57 51h94v-83h-41q-22 0 -22 -20v-382q0 -60 -21.5 -106t-58 -72.5
t-81 -39.5t-94.5 -13q-90 0 -172 42zM281 90q59 0 96.5 41t37.5 133q0 170 -143 170q-65 0 -101.5 -44.5t-36.5 -122.5q0 -80 39.5 -128.5t107.5 -48.5z" />
    <glyph glyph-name="h" unicode="h" horiz-adv-x="605" 
d="M67 0v601q0 22 -22 22h-41v83h95q65 0 65 -62v-197l-2 -42h2q20 44 69 78.5t118 34.5q174 0 174 -194v-219q0 -22 22 -22h41v-83h-96q-34 0 -49 15t-15 49v238q0 61 -19.5 94t-75.5 33q-57 0 -101 -35t-60 -90q-8 -27 -8 -67v-237h-97z" />
    <glyph glyph-name="i" unicode="i" horiz-adv-x="265" 
d="M86 605v101h87v-101h-87zM84 64v337q0 22 -22 22h-41v83h95q34 0 49.5 -15t15.5 -49v-337q0 -22 22 -22h41v-83h-96q-34 0 -49 15t-15 49z" />
    <glyph glyph-name="j" unicode="j" horiz-adv-x="245" 
d="M86 605v101h87v-101h-87zM84 -11v412q0 22 -22 22h-41v83h96q34 0 49 -15t15 -49v-459q0 -48 -14.5 -84t-35 -55.5t-49 -31.5t-50.5 -15t-45 -3l-34 2v83q9 -1 22 -1q18 0 34 4t34.5 14t29.5 34t11 59z" />
    <glyph glyph-name="k" unicode="k" horiz-adv-x="513" 
d="M67 0v601q0 22 -22 22h-41v83h95q35 0 50 -12.5t15 -45.5v-328h45q36 0 52 22l117 164h112l-138 -188q-10 -14 -19.5 -23.5t-14.5 -12.5l-4 -2v-2q17 -6 34 -38l75 -137q11 -20 44 -20h30v-83h-70q-35 0 -51 9t-32 38l-93 170q-11 21 -50 21h-37v-238h-97z" />
    <glyph glyph-name="l" unicode="l" horiz-adv-x="249" 
d="M67 64v537q0 22 -22 22h-40v83h95q34 0 49 -15t15 -49v-537q0 -22 22 -22h41v-83h-95q-34 0 -49.5 15t-15.5 49z" />
    <glyph glyph-name="m" unicode="m" horiz-adv-x="934" 
d="M85 0v401q0 22 -22 22h-41v83h93q64 0 64 -56v-19l-1 -29h2q19 47 67.5 81.5t105.5 34.5q126 0 153 -115h2q21 48 70.5 81.5t108.5 33.5q167 0 167 -194v-219q0 -22 22 -22h41v-83h-96q-34 0 -49 15t-15 49v239q0 61 -18.5 94t-70.5 33q-50 0 -89 -38t-52 -92
q-9 -31 -9 -69v-231h-97v303q0 60 -17.5 93.5t-69.5 33.5t-91 -38.5t-54 -95.5q-7 -28 -7 -65v-231h-97z" />
    <glyph glyph-name="n" unicode="n" horiz-adv-x="623" 
d="M85 0v401q0 22 -22 22h-41v83h93q64 0 64 -56v-19l-2 -29h2q20 43 68.5 79.5t122.5 36.5q173 0 173 -194v-219q0 -22 22 -22h41v-83h-96q-34 0 -49 15t-15 49v238q0 61 -19.5 94t-75.5 33q-57 0 -100.5 -34.5t-59.5 -89.5q-9 -26 -9 -68v-237h-97z" />
    <glyph glyph-name="o" unicode="o" horiz-adv-x="611" 
d="M33 254q0 114 79 189t193 75q115 0 194 -75t79 -189t-79.5 -190t-193.5 -76t-193 76t-79 190zM131 254q0 -78 51 -130t123 -52q73 0 123.5 51.5t50.5 130.5q0 78 -50.5 129t-123.5 51q-72 0 -123 -51t-51 -129z" />
    <glyph glyph-name="p" unicode="p" horiz-adv-x="601" 
d="M85 -200v601q0 22 -22 22h-41v83h91q62 0 62 -51l-1 -27h2q2 4 5.5 10t17.5 21.5t31.5 27.5t48 21.5t65.5 9.5q102 0 162.5 -73t60.5 -192t-64.5 -192t-165.5 -73q-31 0 -58.5 8.5t-44.5 20t-29.5 23.5t-17.5 20l-5 9h-2q2 -18 2 -44v-225h-97zM179 251
q0 -73 38.5 -126.5t105.5 -53.5q62 0 103.5 49t41.5 132q0 82 -39.5 131.5t-103.5 49.5q-62 0 -104 -45.5t-42 -136.5z" />
    <glyph glyph-name="q" unicode="q" horiz-adv-x="602" 
d="M35 253q0 120 63.5 192.5t164.5 72.5q34 0 63 -9t46.5 -21.5t30.5 -25t18 -21.5l5 -9h2q-1 11 -1 26q0 48 62 48h91v-83h-41q-22 0 -22 -22v-601h-97v229l2 44h-2q-2 -3 -5.5 -9t-17.5 -20.5t-30.5 -26t-46 -20.5t-62.5 -9q-102 0 -162.5 73t-60.5 192zM133 253
q0 -82 40 -131.5t104 -49.5q62 0 103.5 45.5t41.5 136.5q0 74 -37 127t-106 53q-62 0 -104 -49t-42 -132z" />
    <glyph glyph-name="r" unicode="r" horiz-adv-x="376" 
d="M85 0v401q0 22 -22 22h-41v83h93q64 0 64 -59v-32l-2 -35h2q19 58 61.5 95t98.5 37l26 -2v-96q-13 3 -28 3q-48 0 -86.5 -31.5t-56.5 -87.5q-12 -39 -12 -91v-207h-97z" />
    <glyph glyph-name="s" unicode="s" horiz-adv-x="449" 
d="M28 77l49 65q2 -3 7 -8t20.5 -18t32 -23t42.5 -18t52 -8q37 0 62 17t25 48q0 25 -28.5 44t-68.5 34.5t-80.5 34.5t-69 52.5t-28.5 78.5q0 69 53 105.5t135 36.5q59 0 112.5 -23.5t53.5 -74.5v-48h-87v25q0 20 -24.5 31.5t-51.5 11.5q-44 0 -69.5 -15.5t-25.5 -44.5
q0 -26 28.5 -45.5t69.5 -34t81.5 -32.5t69 -51.5t28.5 -80.5q0 -67 -52.5 -107.5t-133.5 -40.5q-38 0 -72.5 9t-57 22t-40 26.5t-24.5 22.5z" />
    <glyph glyph-name="t" unicode="t" horiz-adv-x="328" 
d="M83 185v243h-66v78h68v139h95v-139h122v-78h-122v-232q0 -29 8 -50.5t19.5 -33.5t27 -19t28 -9t25.5 -2l23 2v-86q-14 -2 -34 -2q-24 0 -46 3t-50 15t-48.5 31.5t-35 55.5t-14.5 84z" />
    <glyph glyph-name="u" unicode="u" horiz-adv-x="617" 
d="M80 182v219q0 22 -22 22h-41v83h95q34 0 49 -15t15 -47v-240q0 -60 20 -93t75 -33q75 0 120 56t45 135v237h97v-401q0 -22 22 -22h41v-83h-93q-64 0 -64 56v19l1 29h-2q-19 -44 -68.5 -80t-117.5 -36q-86 0 -129 47.5t-43 146.5z" />
    <glyph glyph-name="v" unicode="v" horiz-adv-x="534" 
d="M211 0l-156 403q-7 20 -31 20h-10v83h50q34 0 50 -10.5t27 -40.5l109 -291l18 -66h2q8 38 18 66l108 291q11 30 27.5 40.5t49.5 10.5h47v-83h-10q-25 0 -32 -20l-155 -403h-112z" />
    <glyph glyph-name="w" unicode="w" horiz-adv-x="845" 
d="M194 0l-133 403q-8 20 -32 20h-14v83h61q34 0 50 -11t26 -43l89 -301l12 -54h2q6 28 14 54l109 353h90l109 -353l13 -54h2q5 28 13 54l89 301q10 32 25.5 43t49.5 11h61v-83h-14q-24 0 -31 -20l-133 -403h-109l-105 325l-14 55h-2q-6 -29 -14 -55l-105 -325h-109z" />
    <glyph glyph-name="x" unicode="x" horiz-adv-x="505" 
d="M20 0l171 260l-97 144q-13 19 -42 19h-29v83h62q35 0 52 -9.5t37 -41.5l61 -98l16 -32h2q9 19 17 32l61 98q20 32 37 41.5t52 9.5h62v-83h-29q-29 0 -42 -18l-97 -145l171 -260h-110l-106 165l-16 27h-2q-7 -15 -15 -27l-106 -165h-110z" />
    <glyph glyph-name="y" unicode="y" horiz-adv-x="543" 
d="M121 -210q-33 0 -63 12.5t-43 25.5l-13 12l40 70q1 -3 10 -11t27 -16.5t37 -8.5q58 0 89 73l23 55l-173 401q-9 20 -31 20h-13v83h57q31 0 46 -10.5t27 -40.5l114 -285l18 -61h2q8 35 17 61l106 285q10 30 26 40.5t47 10.5h58v-83h-13q-23 0 -32 -20l-199 -494
q-24 -58 -67 -88.5t-97 -30.5z" />
    <glyph glyph-name="z" unicode="z" horiz-adv-x="515" 
d="M37 0v56l259 320l41 47v2q-15 -2 -48 -2h-139q-22 0 -22 -22v-34h-89v75q0 34 15.5 49t49.5 15h361v-56l-259 -321l-42 -46v-2q16 2 49 2h161q22 0 22 22v34h89v-75q0 -34 -15 -49t-49 -15h-384z" />
    <glyph glyph-name="braceleft" unicode="{" horiz-adv-x="323" 
d="M110 77v96q0 29 -9 50.5t-21 32t-24.5 17t-21.5 7.5l-9 2v86q3 0 9 1t20.5 8t26 18t20.5 33t9 51v84q0 45 12.5 78.5t30 51t42 28.5t42 13.5t35.5 2.5l23 -1v-74h-14q-13 0 -24.5 -3.5t-27 -13t-25 -32t-9.5 -56.5v-103q0 -28 -8.5 -51t-20.5 -36.5t-23.5 -23
t-20.5 -13.5l-8 -3v-2q3 -1 8.5 -3t19.5 -12t24.5 -23t19.5 -36.5t9 -52.5v-115q0 -34 9.5 -56.5t25 -32t27 -13t24.5 -3.5h14v-74q-9 -2 -23 -2q-18 0 -35.5 2.5t-42 13.5t-42 28.5t-30 51.5t-12.5 79z" />
    <glyph glyph-name="bar" unicode="|" horiz-adv-x="239" 
d="M77 -159v951h85v-951h-85z" />
    <glyph glyph-name="braceright" unicode="}" horiz-adv-x="323" 
d="M28 -22h14q13 0 24.5 3.5t27 13t25 32t9.5 56.5v115q0 29 8.5 52.5t20 37t23.5 22.5t20 12l9 3v2q-3 1 -8.5 3.5t-19.5 12.5t-24.5 23t-19.5 36.5t-9 51.5v103q0 34 -9.5 56.5t-25 32t-27 13t-24.5 3.5h-14v74q9 1 23 1q18 0 35.5 -2.5t42 -13.5t42 -28.5t30 -51
t12.5 -78.5v-84q0 -29 9 -51t21 -33t24.5 -17.5t21.5 -7.5l9 -2v-86q-3 0 -9 -1t-20.5 -8t-26 -17.5t-20.5 -32t-9 -50.5v-96q0 -45 -12.5 -79t-30 -51.5t-42 -28.5t-42 -13.5t-35.5 -2.5l-23 2v74z" />
    <glyph glyph-name="asciitilde" unicode="~" horiz-adv-x="591" 
d="M58 204q0 85 37 127t103 42q35 0 63.5 -15.5t43.5 -33.5t37.5 -33.5t47.5 -15.5q35 0 50.5 28t15.5 66h79q0 -169 -139 -169q-35 0 -63.5 15t-43.5 33.5t-37.5 33.5t-47.5 15q-35 0 -50.5 -28t-15.5 -65h-80z" />
    <glyph glyph-name="uni00A0" unicode="&#xa0;" horiz-adv-x="269" 
 />
    <glyph glyph-name="exclamdown" unicode="&#xa1;" horiz-adv-x="243" 
d="M71 409v97h100v-97h-100zM71 -200l7 512h87l7 -512h-101z" />
    <glyph glyph-name="cent" unicode="&#xa2;" 
d="M263 -38v111q-94 13 -149 91.5t-55 188.5q0 111 55 189.5t149 91.5v110h73v-110q126 -19 182 -155l-89 -34q-41 99 -126 99q-68 0 -106.5 -53.5t-38.5 -137.5q0 -86 38 -138t107 -52q86 0 126 99l89 -35q-26 -61 -72 -104t-110 -50v-111h-73z" />
    <glyph glyph-name="sterling" unicode="&#xa3;" 
d="M46 0v86h61v233h-44v70h44v136q0 83 61.5 138t155.5 55q45 0 86.5 -16t61.5 -32l19 -16l-57 -69q-48 43 -109 43q-54 0 -86 -30.5t-32 -76.5v-132h184v-70h-184v-233h216q22 0 22 22v45h92v-89q0 -34 -15 -49t-49 -15h-427z" />
    <glyph glyph-name="currency" unicode="&#xa4;" horiz-adv-x="617" 
d="M128 0v170h-71v70h71v70h-71v79h71v237h-65v80h297q99 0 160.5 -53t61.5 -144q0 -92 -61.5 -145.5t-160.5 -53.5h-132v-70h250v-70h-250v-170h-100zM228 389h116q63 0 99 33t36 87t-35.5 85.5t-98.5 31.5h-117v-237z" />
    <glyph glyph-name="yen" unicode="&#xa5;" horiz-adv-x="617" 
d="M98 204v63h160v41l-27 44h-136v63h94v2l-112 181q-13 22 -44 22h-17v86h44q38 0 58 -10t40 -44l106 -178l43 -78h2q20 39 43 78l107 178q19 34 39 44t58 10h44v-86h-17q-31 0 -45 -22l-111 -181v-2h91v-63h-132l-28 -44v-41h160v-63h-160v-204h-100v204h-160z" />
    <glyph glyph-name="section" unicode="&#xa7;" horiz-adv-x="437" 
d="M138 111l-71 390q-6 23 -6 46q0 75 51 123t138 48q39 0 74 -13t51 -25l16 -13l-46 -64q-40 34 -95 34q-47 0 -76.5 -26t-29.5 -75q0 -21 5 -40l68 -385h-79zM46 -11l44 67q42 -37 97 -37q46 0 76 27.5t30 77.5q0 20 -6 45l-66 376h79l70 -390q5 -20 5 -45q0 -76 -51 -124
t-137 -48q-39 0 -74 12.5t-51 25.5z" />
    <glyph glyph-name="dieresis" unicode="&#xa8;" horiz-adv-x="501" 
d="M307 781v101h73v-101h-73zM142 781v101h74v-101h-74z" />
    <glyph glyph-name="copyright" unicode="&#xa9;" horiz-adv-x="803" 
d="M44 353q0 152 104 258.5t251 106.5q150 0 254.5 -106.5t104.5 -258.5t-104.5 -258.5t-254.5 -106.5q-147 0 -251 106.5t-104 258.5zM118 353q0 -125 81 -211t200 -86q121 0 203.5 86t82.5 211t-82.5 211t-203.5 86q-119 0 -200 -86t-81 -211zM210 352q0 82 54.5 141
t142.5 59q32 0 60.5 -10t46.5 -24.5t31.5 -29.5t18.5 -25l6 -10l-61 -33q-4 7 -11.5 17.5t-33.5 28t-55 17.5q-56 0 -90 -38.5t-34 -92.5q0 -56 33 -93.5t91 -37.5q30 0 55 16t35 31l10 16l61 -33q-2 -4 -6 -10.5t-18.5 -24t-32 -30.5t-46 -23.5t-60.5 -10.5
q-88 0 -142.5 58.5t-54.5 141.5z" />
    <glyph glyph-name="ordfeminine" unicode="&#xaa;" horiz-adv-x="440" 
d="M176 383q-45 0 -77 26.5t-32 72.5q0 107 184 107h14q-1 37 -15 51.5t-46 14.5q-43 0 -43 -17v-19h-69v40q0 17 13 29.5t32.5 18t36 7.5t31.5 2q132 0 132 -126v-126q0 -10 10 -10h28v-65h-58q-42 0 -46 37l-1 10h-2q-3 -6 -9.5 -15t-30 -23.5t-52.5 -14.5zM190 442
q33 0 53 28t22 68h-11q-113 0 -113 -53q0 -18 13 -30.5t36 -12.5zM66 265v57h312v-57h-312z" />
    <glyph glyph-name="guillemotleft" unicode="&#xab;" horiz-adv-x="549" 
d="M243 282l164 206h97l-164 -206l164 -205h-97zM205 77l-164 205l164 206h97l-164 -206l164 -205h-97z" />
    <glyph glyph-name="logicalnot" unicode="&#xac;" horiz-adv-x="604" 
d="M62 340v78h477v-267h-81v189h-396z" />
    <glyph glyph-name="uni00AD" unicode="&#xad;" horiz-adv-x="410" 
d="M59 242v86h292v-86h-292z" />
    <glyph glyph-name="registered" unicode="&#xae;" horiz-adv-x="803" 
d="M44 353q0 152 104 258.5t251 106.5q150 0 254.5 -106.5t104.5 -258.5t-104.5 -258.5t-254.5 -106.5q-147 0 -251 106.5t-104 258.5zM118 353q0 -125 81 -211t200 -86q121 0 203.5 86t82.5 211t-82.5 211t-203.5 86q-119 0 -200 -86t-81 -211zM277 166v323h-33v54h179
q54 0 86.5 -31.5t32.5 -83.5q0 -40 -21.5 -66.5t-47.5 -33.5v-2q12 -3 21 -20l39 -75q7 -13 24 -13h11v-52h-39q-22 0 -33.5 5t-20.5 23l-51 99q-10 19 -35 19h-41v-146h-71zM348 364h60q29 0 45 17t16 47q0 29 -16 45t-44 16h-61v-125z" />
    <glyph glyph-name="macron" unicode="&#xaf;" horiz-adv-x="464" 
d="M108 784v68h254v-68h-254z" />
    <glyph glyph-name="degree" unicode="&#xb0;" horiz-adv-x="384" 
d="M192 422q-63 0 -107.5 43.5t-44.5 104.5t44.5 104.5t107.5 43.5q62 0 107 -43.5t45 -104.5t-45 -104.5t-107 -43.5zM192 496q31 0 52.5 21.5t21.5 52.5t-21.5 53t-52.5 22t-52.5 -22t-21.5 -53t21.5 -52.5t52.5 -21.5z" />
    <glyph glyph-name="plusminus" unicode="&#xb1;" 
d="M24 246v78h224v246h82v-246h223v-78h-223v-246h-82v246h-224zM40 -95h497v-78h-497v78z" />
    <glyph glyph-name="twosuperior" unicode="&#xb2;" horiz-adv-x="376" 
d="M78 266q-27 0 -37.5 12t-10.5 47q0 31 10 55.5t31 44t38 31t45 27.5q31 17 47 28t30.5 31t14.5 43q0 26 -18 42.5t-48 16.5q-25 0 -41.5 -10.5t-16.5 -24.5v-24h-71v44q0 41 43 63.5t87 22.5q63 0 102.5 -36t39.5 -94q0 -31 -10.5 -55t-34 -44.5t-38.5 -30t-47 -27.5
q-28 -16 -43 -26t-28.5 -27t-13.5 -36q0 -6 9 -6h148q6 0 6 7v34h71v-62q0 -46 -46 -46h-218z" />
    <glyph glyph-name="threesuperior" unicode="&#xb3;" horiz-adv-x="376" 
d="M187 258q-42 0 -81 20t-57 40l-18 20l52 49q5 -6 14 -16t36 -26t54 -16q31 0 53.5 20.5t22.5 51.5t-23.5 49t-57.5 18h-35l-12 44l85 106l21 23v2q-16 -2 -33 -2h-76q-9 0 -9 -10v-26h-71v53q0 27 10 37.5t37 10.5h233v-51l-105 -127q46 -6 79.5 -41.5t33.5 -86.5
q0 -62 -45 -102t-108 -40z" />
    <glyph glyph-name="acute" unicode="&#xb4;" horiz-adv-x="388" 
d="M119 755l73 127h98l-95 -127h-76z" />
    <glyph glyph-name="mu" unicode="&#xb5;" horiz-adv-x="655" 
d="M105 -200v601q0 22 -22 22h-41v83h95q34 0 49 -15t15 -47v-240q0 -60 20 -93t75 -33q75 0 120 56t45 135v237h97v-401q0 -22 22 -22h41v-83h-93q-64 0 -64 56v19l1 29h-2q-2 -5 -6 -12.5t-19.5 -27.5t-35 -35.5t-53 -28t-72.5 -12.5q-30 0 -52.5 8t-30.5 16l-8 7h-2
q7 -49 7 -78v-141h-86z" />
    <glyph glyph-name="mu" unicode="&#x3bc;" horiz-adv-x="655" 
d="M105 -200v601q0 22 -22 22h-41v83h95q34 0 49 -15t15 -47v-240q0 -60 20 -93t75 -33q75 0 120 56t45 135v237h97v-401q0 -22 22 -22h41v-83h-93q-64 0 -64 56v19l1 29h-2q-2 -5 -6 -12.5t-19.5 -27.5t-35 -35.5t-53 -28t-72.5 -12.5q-30 0 -52.5 8t-30.5 16l-8 7h-2
q7 -49 7 -78v-141h-86z" />
    <glyph glyph-name="paragraph" unicode="&#xb6;" horiz-adv-x="592" 
d="M272 -50v291q-97 0 -167 67.5t-70 165.5q0 97 69.5 164.5t167.5 67.5h271v-86h-196v-670h-75zM409 -50v613h75v-613h-75z" />
    <glyph glyph-name="periodcentered" unicode="&#xb7;" horiz-adv-x="217" 
d="M59 239v103h99v-103h-99z" />
    <glyph glyph-name="cedilla" unicode="&#xb8;" horiz-adv-x="416" 
d="M132 -88l28 111l49 -10v-8l-11 -55q31 -4 51 -23t20 -50q0 -43 -29 -63.5t-73 -20.5q-14 0 -27.5 1.5t-20.5 3.5l-7 2v58q20 -7 43 -7q47 0 47 31t-53 31z" />
    <glyph glyph-name="onesuperior" unicode="&#xb9;" horiz-adv-x="376" 
d="M68 266v67h93v241l1 33h-2q-5 -10 -12 -17l-40 -38l-46 49l109 105h66v-373h92v-67h-261z" />
    <glyph glyph-name="ordmasculine" unicode="&#xba;" horiz-adv-x="466" 
d="M232 384q-72 0 -121.5 47.5t-49.5 120.5q0 71 50 118t121 47q72 0 122 -47t50 -118q0 -73 -50 -120.5t-122 -47.5zM232 449q42 0 70.5 29t28.5 74q0 44 -28.5 72.5t-70.5 28.5q-41 0 -69.5 -28.5t-28.5 -72.5q0 -45 28.5 -74t69.5 -29zM77 265v57h313v-57h-313z" />
    <glyph glyph-name="guillemotright" unicode="&#xbb;" horiz-adv-x="549" 
d="M247 77l164 205l-164 206h97l164 -206l-164 -205h-97zM45 77l164 205l-164 206h97l164 -206l-164 -205h-97z" />
    <glyph glyph-name="onequarter" unicode="&#xbc;" horiz-adv-x="874" 
d="M261 0l287 706h80l-287 -706h-80zM54 266v67h93v241l1 33h-2q-5 -10 -12 -17l-40 -38l-46 49l109 105h66v-373h89v-67h-258zM493 113v46l192 282h87v-261h66v-67h-66v-113h-76v113h-203zM575 179q13 1 20 1h102v137l1 36h-2q-6 -14 -15 -27l-92 -129l-14 -16v-2z" />
    <glyph glyph-name="onehalf" unicode="&#xbd;" horiz-adv-x="866" 
d="M246 0l287 706h80l-286 -706h-81zM51 266v67h93v241l1 33h-2q-5 -10 -12 -17l-40 -38l-46 49l108 105h67v-373h89v-67h-258zM516 59q0 31 10 55.5t31 44.5t37.5 31t45.5 28q22 12 35 20.5t28 21t22 27t7 32.5q0 26 -18 43t-48 17q-25 0 -41.5 -10.5t-16.5 -24.5v-24h-71
v43q0 41 43 63.5t87 22.5q63 0 102.5 -36t39.5 -93q0 -31 -10.5 -55.5t-34 -45t-38.5 -30t-47 -27.5q-28 -16 -43 -26t-28.5 -27t-13.5 -35q0 -7 9 -7h148q6 0 6 7v34h71v-61q0 -47 -46 -47h-218q-27 0 -37.5 12.5t-10.5 46.5z" />
    <glyph glyph-name="threequarters" unicode="&#xbe;" horiz-adv-x="877" 
d="M262 0l287 706h80l-286 -706h-81zM196 258q-42 0 -81 20t-57 40l-18 20l52 49q5 -6 14 -16t36 -26t53 -16q32 0 54.5 20.5t22.5 51.5t-23.5 49t-57.5 18h-35l-12 44l84 106l22 23v2q-16 -2 -33 -2h-76q-10 0 -10 -10v-26h-70v53q0 27 10 37.5t37 10.5h233v-51l-105 -127
q46 -6 79.5 -41.5t33.5 -86.5q0 -62 -45 -102t-108 -40zM496 113v46l192 282h87v-261h66v-67h-66v-113h-76v113h-203zM578 179q13 1 20 1h102v137l1 36h-2q-6 -14 -15 -27l-91 -129l-15 -16v-2z" />
    <glyph glyph-name="questiondown" unicode="&#xbf;" horiz-adv-x="457" 
d="M214 409v97h100v-97h-100zM40 -28q0 46 18 82.5t44 61t52.5 47t44.5 51t18 61.5v37h94v-43q0 -42 -17.5 -77t-42.5 -58.5t-49.5 -45.5t-42 -49.5t-17.5 -58.5q0 -42 32.5 -71t81.5 -29q28 0 56.5 11t43.5 21l14 11l53 -69q-3 -3 -8 -7t-22 -15t-36 -19.5t-48 -15.5
t-60 -7q-88 0 -148.5 50.5t-60.5 131.5z" />
    <glyph glyph-name="Agrave" unicode="&#xc0;" horiz-adv-x="665" 
d="M12 0v86h14q26 0 33 22l221 598h105l221 -598q7 -22 33 -22h14v-86h-55q-37 0 -53.5 11.5t-29.5 46.5l-53 145h-259l-53 -145q-13 -35 -29.5 -46.5t-53.5 -11.5h-55zM227 287h211l-77 215l-28 99h-2q-15 -62 -27 -99zM293 755l-95 127h98l73 -127h-76z" />
    <glyph glyph-name="Aacute" unicode="&#xc1;" horiz-adv-x="665" 
d="M12 0v86h14q26 0 33 22l221 598h105l221 -598q7 -22 33 -22h14v-86h-55q-37 0 -53.5 11.5t-29.5 46.5l-53 145h-259l-53 -145q-13 -35 -29.5 -46.5t-53.5 -11.5h-55zM227 287h211l-77 215l-28 99h-2q-15 -62 -27 -99zM293 755l73 127h98l-95 -127h-76z" />
    <glyph glyph-name="Acircumflex" unicode="&#xc2;" horiz-adv-x="665" 
d="M12 0v86h14q26 0 33 22l221 598h105l221 -598q7 -22 33 -22h14v-86h-55q-37 0 -53.5 11.5t-29.5 46.5l-53 145h-259l-53 -145q-13 -35 -29.5 -46.5t-53.5 -11.5h-55zM227 287h211l-77 215l-28 99h-2q-15 -62 -27 -99zM201 755l87 127h89l88 -127h-79l-52 80h-2l-53 -80
h-78z" />
    <glyph glyph-name="Atilde" unicode="&#xc3;" horiz-adv-x="665" 
d="M12 0v86h14q26 0 33 22l221 598h105l221 -598q7 -22 33 -22h14v-86h-55q-37 0 -53.5 11.5t-29.5 46.5l-53 145h-259l-53 -145q-13 -35 -29.5 -46.5t-53.5 -11.5h-55zM227 287h211l-77 215l-28 99h-2q-15 -62 -27 -99zM162 756q0 127 103 127q29 0 52 -17t40.5 -34
t35.5 -17q21 0 31 20t10 45h65q0 -127 -103 -127q-29 0 -51.5 17t-40.5 34t-36 17q-21 0 -30.5 -19.5t-9.5 -45.5h-66z" />
    <glyph glyph-name="Adieresis" unicode="&#xc4;" horiz-adv-x="665" 
d="M12 0v86h14q26 0 33 22l221 598h105l221 -598q7 -22 33 -22h14v-86h-55q-37 0 -53.5 11.5t-29.5 46.5l-53 145h-259l-53 -145q-13 -35 -29.5 -46.5t-53.5 -11.5h-55zM227 287h211l-77 215l-28 99h-2q-15 -62 -27 -99zM379 781v101h73v-101h-73zM214 781v101h74v-101h-74z
" />
    <glyph glyph-name="Aring" unicode="&#xc5;" horiz-adv-x="665" 
d="M12 0v86h14q26 0 33 22l221 598h105l221 -598q7 -22 33 -22h14v-86h-55q-37 0 -53.5 11.5t-29.5 46.5l-53 145h-259l-53 -145q-13 -35 -29.5 -46.5t-53.5 -11.5h-55zM227 287h211l-77 215l-28 99h-2q-15 -62 -27 -99zM333 743q-34 0 -57.5 20.5t-23.5 53.5
q0 34 23.5 54.5t57.5 20.5q33 0 57 -20.5t24 -54.5q0 -33 -24 -53.5t-57 -20.5zM333 784q15 0 24.5 9.5t9.5 23.5q0 16 -9.5 25.5t-24.5 9.5t-24.5 -9.5t-9.5 -25.5q0 -14 9.5 -23.5t24.5 -9.5z" />
    <glyph glyph-name="AE" unicode="&#xc6;" horiz-adv-x="863" 
d="M10 0v86h11q25 0 34 22l237 598h448q34 0 49 -15t15 -49v-89h-91v45q0 22 -22 22h-195v-221h242v-86h-242v-205q0 -22 26 -22h196q22 0 22 22v45h92v-89q0 -34 -15 -49t-49 -15h-301q-39 0 -55.5 13.5t-16.5 50.5v249h-159l-95 -255q-13 -35 -29.5 -46.5t-53.5 -11.5h-48
zM269 399h126v221h-43z" />
    <glyph glyph-name="Ccedilla" unicode="&#xc7;" horiz-adv-x="698" 
d="M327 -88l20 78q-139 15 -225.5 118.5t-86.5 250.5q0 153 101.5 256t252.5 103q39 0 82.5 -8.5t86 -25.5t70 -48t27.5 -71v-69h-92v40q0 41 -55 65t-117 24q-107 0 -179 -74t-72 -192q0 -116 72 -196.5t180 -80.5q62 0 118.5 24t81.5 48l26 23l54 -71q-4 -5 -11.5 -12.5
t-33.5 -27t-55 -35t-75.5 -29t-95.5 -14.5l-7 -38q31 -4 51 -23t20 -50q0 -43 -29.5 -63.5t-72.5 -20.5q-14 0 -27.5 1.5t-20.5 3.5l-7 2v58q20 -7 43 -7q47 0 47 31t-53 31z" />
    <glyph glyph-name="Egrave" unicode="&#xc8;" horiz-adv-x="571" 
d="M98 64v556h-65v86h416q34 0 49 -15t15 -49v-89h-92v45q0 22 -22 22h-201v-221h248v-86h-248v-205q0 -22 22 -22h207q22 0 22 22v45h91v-89q0 -34 -15 -49t-49 -15h-313q-34 0 -49.5 15t-15.5 49zM251 755l-95 127h98l73 -127h-76z" />
    <glyph glyph-name="Eacute" unicode="&#xc9;" horiz-adv-x="571" 
d="M251 755l73 127h98l-95 -127h-76zM98 64v556h-65v86h416q34 0 49 -15t15 -49v-89h-92v45q0 22 -22 22h-201v-221h248v-86h-248v-205q0 -22 22 -22h207q22 0 22 22v45h91v-89q0 -34 -15 -49t-49 -15h-313q-34 0 -49.5 15t-15.5 49z" />
    <glyph glyph-name="Ecircumflex" unicode="&#xca;" horiz-adv-x="571" 
d="M159 755l87 127h89l88 -127h-79l-52 80h-2l-53 -80h-78zM98 64v556h-65v86h416q34 0 49 -15t15 -49v-89h-92v45q0 22 -22 22h-201v-221h248v-86h-248v-205q0 -22 22 -22h207q22 0 22 22v45h91v-89q0 -34 -15 -49t-49 -15h-313q-34 0 -49.5 15t-15.5 49z" />
    <glyph glyph-name="Edieresis" unicode="&#xcb;" horiz-adv-x="571" 
d="M337 781v101h73v-101h-73zM172 781v101h74v-101h-74zM98 64v556h-65v86h416q34 0 49 -15t15 -49v-89h-92v45q0 22 -22 22h-201v-221h248v-86h-248v-205q0 -22 22 -22h207q22 0 22 22v45h91v-89q0 -34 -15 -49t-49 -15h-313q-34 0 -49.5 15t-15.5 49z" />
    <glyph glyph-name="Igrave" unicode="&#xcc;" horiz-adv-x="318" 
d="M42 0v86h69v534h-69v86h233v-86h-68v-534h68v-86h-233zM120 755l-95 127h98l73 -127h-76z" />
    <glyph glyph-name="Iacute" unicode="&#xcd;" horiz-adv-x="318" 
d="M42 0v86h69v534h-69v86h233v-86h-68v-534h68v-86h-233zM119 755l73 127h98l-95 -127h-76z" />
    <glyph glyph-name="Icircumflex" unicode="&#xce;" horiz-adv-x="318" 
d="M42 0v86h69v534h-69v86h233v-86h-68v-534h68v-86h-233zM27 755l87 127h89l88 -127h-79l-52 80h-2l-53 -80h-78z" />
    <glyph glyph-name="Idieresis" unicode="&#xcf;" horiz-adv-x="318" 
d="M42 0v86h69v534h-69v86h233v-86h-68v-534h68v-86h-233zM205 781v101h73v-101h-73zM40 781v101h74v-101h-74z" />
    <glyph glyph-name="Eth" unicode="&#xd0;" horiz-adv-x="716" 
d="M100 64v248h-48v82h48v226h-65v86h286q163 0 260.5 -93.5t97.5 -258.5q0 -166 -97.5 -260t-260.5 -94h-156q-34 0 -49.5 15t-15.5 49zM200 108q0 -22 22 -22h92q121 0 191 70t70 198q0 127 -70.5 196.5t-190.5 69.5h-114v-226h144v-82h-144v-204z" />
    <glyph glyph-name="Ntilde" unicode="&#xd1;" horiz-adv-x="757" 
d="M34 0v86h43q22 0 22 22v598h91l314 -447l59 -96h2q-7 57 -7 96v383q0 34 15.5 49t49.5 15h100v-86h-43q-22 0 -22 -22v-598h-90l-315 447l-58 96h-2q6 -57 6 -96v-383q0 -34 -15 -49t-49 -15h-101zM218 756q0 127 103 127q29 0 52 -17t40.5 -34t35.5 -17q21 0 31 20
t10 45h65q0 -127 -103 -127q-29 0 -51.5 17t-40.5 34t-36 17q-21 0 -30.5 -19.5t-9.5 -45.5h-66z" />
    <glyph glyph-name="Ograve" unicode="&#xd2;" horiz-adv-x="793" 
d="M34 358q0 152 104.5 256t257.5 104t258 -104t105 -256q0 -156 -105 -263t-258 -107t-257.5 107t-104.5 263zM138 358q0 -116 75 -196t183 -80t183.5 80t75.5 196q0 113 -75.5 190t-183.5 77t-183 -77t-75 -190zM354 755l-95 127h98l73 -127h-76z" />
    <glyph glyph-name="Oacute" unicode="&#xd3;" horiz-adv-x="793" 
d="M354 755l73 127h98l-95 -127h-76zM34 358q0 152 104.5 256t257.5 104t258 -104t105 -256q0 -156 -105 -263t-258 -107t-257.5 107t-104.5 263zM138 358q0 -116 75 -196t183 -80t183.5 80t75.5 196q0 113 -75.5 190t-183.5 77t-183 -77t-75 -190z" />
    <glyph glyph-name="Ocircumflex" unicode="&#xd4;" horiz-adv-x="793" 
d="M262 755l87 127h89l88 -127h-79l-52 80h-2l-53 -80h-78zM34 358q0 152 104.5 256t257.5 104t258 -104t105 -256q0 -156 -105 -263t-258 -107t-257.5 107t-104.5 263zM138 358q0 -116 75 -196t183 -80t183.5 80t75.5 196q0 113 -75.5 190t-183.5 77t-183 -77t-75 -190z
" />
    <glyph glyph-name="Otilde" unicode="&#xd5;" horiz-adv-x="793" 
d="M34 358q0 152 104.5 256t257.5 104t258 -104t105 -256q0 -156 -105 -263t-258 -107t-257.5 107t-104.5 263zM138 358q0 -116 75 -196t183 -80t183.5 80t75.5 196q0 113 -75.5 190t-183.5 77t-183 -77t-75 -190zM223 756q0 127 103 127q29 0 52 -17t40.5 -34t35.5 -17
q21 0 31 20t10 45h65q0 -127 -103 -127q-29 0 -51.5 17t-40.5 34t-36 17q-21 0 -30.5 -19.5t-9.5 -45.5h-66z" />
    <glyph glyph-name="Odieresis" unicode="&#xd6;" horiz-adv-x="793" 
d="M440 781v101h73v-101h-73zM275 781v101h74v-101h-74zM34 358q0 152 104.5 256t257.5 104t258 -104t105 -256q0 -156 -105 -263t-258 -107t-257.5 107t-104.5 263zM138 358q0 -116 75 -196t183 -80t183.5 80t75.5 196q0 113 -75.5 190t-183.5 77t-183 -77t-75 -190z" />
    <glyph glyph-name="multiply" unicode="&#xd7;" 
d="M29 55l206 230l-206 230l54 55l205 -228l205 228l55 -55l-208 -230l208 -230l-55 -55l-205 227l-205 -227z" />
    <glyph glyph-name="Oslash" unicode="&#xd8;" horiz-adv-x="793" 
d="M111 9l48 66q-59 52 -92 125t-33 158q0 152 104.5 256t257.5 104q102 0 188 -51l47 65l49 -34l-47 -65q59 -51 92.5 -122t33.5 -153q0 -156 -105 -263t-258 -107q-104 0 -188 53l-47 -66zM218 157l309 431q-61 37 -131 37q-108 0 -183 -77t-75 -190q0 -121 80 -201z
M264 119q60 -37 132 -37q108 0 183.5 80t75.5 196q0 115 -82 192z" />
    <glyph glyph-name="Ugrave" unicode="&#xd9;" horiz-adv-x="720" 
d="M91 247v351q0 22 -22 22h-43v86h100q34 0 49.5 -15t15.5 -49v-391q0 -79 45.5 -124t123.5 -45q77 0 123 45.5t46 124.5v390q0 34 15 49t49 15h101v-86h-43q-22 0 -22 -22v-351q0 -116 -74 -187.5t-194 -71.5q-121 0 -195.5 71.5t-74.5 187.5zM315 755l-95 127h98l73 -127
h-76z" />
    <glyph glyph-name="Uacute" unicode="&#xda;" horiz-adv-x="720" 
d="M321 755l73 127h98l-95 -127h-76zM91 247v351q0 22 -22 22h-43v86h100q34 0 49.5 -15t15.5 -49v-391q0 -79 45.5 -124t123.5 -45q77 0 123 45.5t46 124.5v390q0 34 15 49t49 15h101v-86h-43q-22 0 -22 -22v-351q0 -116 -74 -187.5t-194 -71.5q-121 0 -195.5 71.5
t-74.5 187.5z" />
    <glyph glyph-name="Ucircumflex" unicode="&#xdb;" horiz-adv-x="720" 
d="M229 755l87 127h89l88 -127h-79l-52 80h-2l-53 -80h-78zM91 247v351q0 22 -22 22h-43v86h100q34 0 49.5 -15t15.5 -49v-391q0 -79 45.5 -124t123.5 -45q77 0 123 45.5t46 124.5v390q0 34 15 49t49 15h101v-86h-43q-22 0 -22 -22v-351q0 -116 -74 -187.5t-194 -71.5
q-121 0 -195.5 71.5t-74.5 187.5z" />
    <glyph glyph-name="Udieresis" unicode="&#xdc;" horiz-adv-x="720" 
d="M407 781v101h73v-101h-73zM242 781v101h74v-101h-74zM91 247v351q0 22 -22 22h-43v86h100q34 0 49.5 -15t15.5 -49v-391q0 -79 45.5 -124t123.5 -45q77 0 123 45.5t46 124.5v390q0 34 15 49t49 15h101v-86h-43q-22 0 -22 -22v-351q0 -116 -74 -187.5t-194 -71.5
q-121 0 -195.5 71.5t-74.5 187.5z" />
    <glyph glyph-name="Yacute" unicode="&#xdd;" horiz-adv-x="606" 
d="M253 0v308l-179 287q-14 25 -43 25h-20v86h46q37 0 56 -10t39 -44l107 -178l43 -79h2q20 40 43 79l106 178q20 34 39 44t56 10h47v-86h-20q-29 0 -44 -25l-178 -287v-308h-100zM264 755l73 127h98l-95 -127h-76z" />
    <glyph glyph-name="Thorn" unicode="&#xde;" horiz-adv-x="585" 
d="M99 0v598q0 22 -22 22h-43v86h101q34 0 49 -15t15 -49v-56h146q98 0 159.5 -60.5t61.5 -160.5t-62 -162t-160 -62h-145v-141h-100zM199 227h130q62 0 98 37t36 101q0 63 -35.5 99t-97.5 36h-131v-273z" />
    <glyph glyph-name="germandbls" unicode="&#xdf;" horiz-adv-x="590" 
d="M25 0v83h37q22 0 22 22v425q0 87 64.5 137.5t151.5 50.5q82 0 136.5 -46.5t54.5 -114.5q0 -32 -16 -59.5t-34.5 -44t-34.5 -37.5t-16 -40q0 -18 18.5 -37t45 -37.5t52.5 -40t44.5 -53t18.5 -68.5q0 -73 -49.5 -112.5t-121.5 -39.5q-43 0 -81 12.5t-54 25.5l-16 12l27 75
q50 -41 112 -41q36 0 60.5 17.5t24.5 54.5q0 23 -18.5 45t-44.5 41t-52.5 38.5t-45 46.5t-18.5 58q0 27 15.5 52.5t34.5 42.5t34.5 40.5t15.5 47.5q0 32 -25 55t-70 23q-47 0 -81.5 -29t-34.5 -82v-459q0 -34 -15 -49t-49 -15h-92z" />
    <glyph glyph-name="agrave" unicode="&#xe0;" horiz-adv-x="529" 
d="M28 138q0 177 306 177h22v7q0 64 -26.5 91.5t-85.5 27.5q-28 0 -55.5 -8.5t-27.5 -30.5v-29h-92v51q0 28 20 48.5t50.5 29.5t55.5 12.5t47 3.5q117 0 164 -52t47 -146v-215q0 -22 22 -22h41v-83h-92q-62 0 -62 58l1 30h-2q1 0 -4.5 -10.5t-18 -25t-30.5 -29t-47 -25
t-63 -10.5q-70 0 -120 40.5t-50 109.5zM125 147q0 -33 25 -57.5t70 -24.5q60 0 98 50t38 111v19h-26q-205 0 -205 -98zM217 580l-95 127h98l73 -127h-76z" />
    <glyph glyph-name="aacute" unicode="&#xe1;" horiz-adv-x="529" 
d="M28 138q0 177 306 177h22v7q0 64 -26.5 91.5t-85.5 27.5q-28 0 -55.5 -8.5t-27.5 -30.5v-29h-92v51q0 28 20 48.5t50.5 29.5t55.5 12.5t47 3.5q117 0 164 -52t47 -146v-215q0 -22 22 -22h41v-83h-92q-62 0 -62 58l1 30h-2q1 0 -4.5 -10.5t-18 -25t-30.5 -29t-47 -25
t-63 -10.5q-70 0 -120 40.5t-50 109.5zM125 147q0 -33 25 -57.5t70 -24.5q60 0 98 50t38 111v19h-26q-205 0 -205 -98zM217 580l73 127h98l-95 -127h-76z" />
    <glyph glyph-name="acircumflex" unicode="&#xe2;" horiz-adv-x="529" 
d="M28 138q0 177 306 177h22v7q0 64 -26.5 91.5t-85.5 27.5q-28 0 -55.5 -8.5t-27.5 -30.5v-29h-92v51q0 28 20 48.5t50.5 29.5t55.5 12.5t47 3.5q117 0 164 -52t47 -146v-215q0 -22 22 -22h41v-83h-92q-62 0 -62 58l1 30h-2q1 0 -4.5 -10.5t-18 -25t-30.5 -29t-47 -25
t-63 -10.5q-70 0 -120 40.5t-50 109.5zM125 147q0 -33 25 -57.5t70 -24.5q60 0 98 50t38 111v19h-26q-205 0 -205 -98zM125 580l87 127h89l88 -127h-79l-52 80h-2l-53 -80h-78z" />
    <glyph glyph-name="atilde" unicode="&#xe3;" horiz-adv-x="529" 
d="M28 138q0 177 306 177h22v7q0 64 -26.5 91.5t-85.5 27.5q-28 0 -55.5 -8.5t-27.5 -30.5v-29h-92v51q0 28 20 48.5t50.5 29.5t55.5 12.5t47 3.5q117 0 164 -52t47 -146v-215q0 -22 22 -22h41v-83h-92q-62 0 -62 58l1 30h-2q1 0 -4.5 -10.5t-18 -25t-30.5 -29t-47 -25
t-63 -10.5q-70 0 -120 40.5t-50 109.5zM125 147q0 -33 25 -57.5t70 -24.5q60 0 98 50t38 111v19h-26q-205 0 -205 -98zM87 581q0 127 103 127q29 0 52 -17t40.5 -34t35.5 -17q21 0 31 20t10 45h65q0 -127 -103 -127q-29 0 -51.5 17t-40.5 34t-36 17q-21 0 -30.5 -19.5
t-9.5 -45.5h-66z" />
    <glyph glyph-name="adieresis" unicode="&#xe4;" horiz-adv-x="529" 
d="M28 138q0 177 306 177h22v7q0 64 -26.5 91.5t-85.5 27.5q-28 0 -55.5 -8.5t-27.5 -30.5v-29h-92v51q0 28 20 48.5t50.5 29.5t55.5 12.5t47 3.5q117 0 164 -52t47 -146v-215q0 -22 22 -22h41v-83h-92q-62 0 -62 58l1 30h-2q1 0 -4.5 -10.5t-18 -25t-30.5 -29t-47 -25
t-63 -10.5q-70 0 -120 40.5t-50 109.5zM125 147q0 -33 25 -57.5t70 -24.5q60 0 98 50t38 111v19h-26q-205 0 -205 -98zM304 606v101h73v-101h-73zM139 606v101h74v-101h-74z" />
    <glyph glyph-name="aring" unicode="&#xe5;" horiz-adv-x="529" 
d="M28 138q0 177 306 177h22v7q0 64 -26.5 91.5t-85.5 27.5q-28 0 -55.5 -8.5t-27.5 -30.5v-29h-92v51q0 28 20 48.5t50.5 29.5t55.5 12.5t47 3.5q117 0 164 -52t47 -146v-215q0 -22 22 -22h41v-83h-92q-62 0 -62 58l1 30h-2q1 0 -4.5 -10.5t-18 -25t-30.5 -29t-47 -25
t-63 -10.5q-70 0 -120 40.5t-50 109.5zM125 147q0 -33 25 -57.5t70 -24.5q60 0 98 50t38 111v19h-26q-205 0 -205 -98zM257 568q-34 0 -57.5 20.5t-23.5 53.5q0 34 23.5 54.5t57.5 20.5q33 0 57 -20.5t24 -54.5q0 -33 -24 -53.5t-57 -20.5zM257 609q15 0 24.5 9.5t9.5 23.5
q0 16 -9.5 25.5t-24.5 9.5t-24.5 -9.5t-9.5 -25.5q0 -14 9.5 -23.5t24.5 -9.5z" />
    <glyph glyph-name="ae" unicode="&#xe6;" horiz-adv-x="849" 
d="M29 141q0 172 298 172h29v11q0 64 -26.5 90.5t-85.5 26.5q-29 0 -56 -8.5t-27 -30.5v-29h-92v51q0 34 29.5 56t66.5 30t79 8q132 0 172 -89h2q62 89 180 89q100 0 158.5 -67t58.5 -168l-2 -41h-364q4 -82 51 -126t118 -44q39 0 76 15t54 30l18 15l41 -70q-8 -8 -24 -20.5
t-67 -33t-104 -20.5q-152 0 -217 126h-2q-5 -14 -16 -31t-33 -40t-59 -38.5t-83 -15.5q-73 0 -123 40.5t-50 111.5zM453 313h263q-3 60 -37 93.5t-82 33.5q-57 0 -95 -33t-49 -94zM127 147q0 -34 25 -57.5t71 -23.5q59 0 96.5 50.5t37.5 111.5v14h-47q-183 0 -183 -95z" />
    <glyph glyph-name="ccedilla" unicode="&#xe7;" horiz-adv-x="532" 
d="M33 253q0 113 76 189t196 76q37 0 75.5 -9t72.5 -35.5t34 -66.5v-52h-87v28q0 25 -31 38.5t-64 13.5q-74 0 -123.5 -51t-49.5 -130q0 -83 52 -131.5t127 -48.5q42 0 81 17.5t57 34.5l18 18l42 -69q-3 -3 -8.5 -9t-25 -21t-41.5 -26.5t-57 -21t-73 -9.5l-8 -38
q32 -4 52 -23t20 -50q0 -43 -29.5 -63.5t-72.5 -20.5q-14 0 -28 1.5t-20 3.5l-7 2v58q20 -7 42 -7q48 0 48 31t-53 31l-18 -1l21 81q-98 16 -158 87.5t-60 172.5z" />
    <glyph glyph-name="egrave" unicode="&#xe8;" horiz-adv-x="539" 
d="M33 253q0 119 72 192t182 73q103 0 160.5 -67.5t57.5 -169.5q0 -17 -3 -41h-369q4 -79 54 -123.5t121 -44.5q16 0 31.5 2.5t29 7.5t24.5 9.5t22.5 11.5t17.5 11l15 10l9 7l41 -71q-17 -14 -40 -28t-67.5 -29t-88.5 -15q-118 0 -193.5 75.5t-75.5 189.5zM137 310h271
q-2 63 -36.5 98t-86.5 35q-57 0 -97.5 -35.5t-50.5 -97.5zM254 559l-95 127h98l73 -127h-76z" />
    <glyph glyph-name="eacute" unicode="&#xe9;" horiz-adv-x="539" 
d="M243 580l73 127h98l-95 -127h-76zM33 253q0 119 72 192t182 73q103 0 160.5 -67.5t57.5 -169.5q0 -17 -3 -41h-369q4 -79 54 -123.5t121 -44.5q16 0 31.5 2.5t29 7.5t24.5 9.5t22.5 11.5t17.5 11l15 10l9 7l41 -71q-17 -14 -40 -28t-67.5 -29t-88.5 -15
q-118 0 -193.5 75.5t-75.5 189.5zM137 310h271q-2 63 -36.5 98t-86.5 35q-57 0 -97.5 -35.5t-50.5 -97.5z" />
    <glyph glyph-name="ecircumflex" unicode="&#xea;" horiz-adv-x="539" 
d="M150 580l87 127h89l88 -127h-79l-52 80h-2l-53 -80h-78zM33 253q0 119 72 192t182 73q103 0 160.5 -67.5t57.5 -169.5q0 -17 -3 -41h-369q4 -79 54 -123.5t121 -44.5q16 0 31.5 2.5t29 7.5t24.5 9.5t22.5 11.5t17.5 11l15 10l9 7l41 -71q-17 -14 -40 -28t-67.5 -29
t-88.5 -15q-118 0 -193.5 75.5t-75.5 189.5zM137 310h271q-2 63 -36.5 98t-86.5 35q-57 0 -97.5 -35.5t-50.5 -97.5z" />
    <glyph glyph-name="edieresis" unicode="&#xeb;" horiz-adv-x="539" 
d="M328 606v101h73v-101h-73zM163 606v101h74v-101h-74zM33 253q0 119 72 192t182 73q103 0 160.5 -67.5t57.5 -169.5q0 -17 -3 -41h-369q4 -79 54 -123.5t121 -44.5q16 0 31.5 2.5t29 7.5t24.5 9.5t22.5 11.5t17.5 11l15 10l9 7l41 -71q-17 -14 -40 -28t-67.5 -29
t-88.5 -15q-118 0 -193.5 75.5t-75.5 189.5zM137 310h271q-2 63 -36.5 98t-86.5 35q-57 0 -97.5 -35.5t-50.5 -97.5z" />
    <glyph glyph-name="igrave" unicode="&#xec;" horiz-adv-x="265" 
d="M85 579l-95 127h98l73 -127h-76zM84 64v337q0 22 -22 22h-41v83h95q34 0 49.5 -15t15.5 -49v-337q0 -22 22 -22h41v-83h-96q-34 0 -49 15t-15 49z" />
    <glyph glyph-name="iacute" unicode="&#xed;" horiz-adv-x="265" 
d="M85 579l73 127h99l-96 -127h-76zM84 64v337q0 22 -22 22h-41v83h95q34 0 49.5 -15t15.5 -49v-337q0 -22 22 -22h41v-83h-96q-34 0 -49 15t-15 49z" />
    <glyph glyph-name="icircumflex" unicode="&#xee;" horiz-adv-x="265" 
d="M-7 579l87 127h89l88 -127h-79l-52 81h-2l-53 -81h-78zM84 64v337q0 22 -22 22h-41v83h95q34 0 49.5 -15t15.5 -49v-337q0 -22 22 -22h41v-83h-96q-34 0 -49 15t-15 49z" />
    <glyph glyph-name="idieresis" unicode="&#xef;" horiz-adv-x="265" 
d="M156 605v101h73v-101h-73zM16 605v101h74v-101h-74zM84 64v337q0 22 -22 22h-41v83h95q34 0 49.5 -15t15.5 -49v-337q0 -22 22 -22h41v-83h-96q-34 0 -49 15t-15 49z" />
    <glyph glyph-name="eth" unicode="&#xf0;" horiz-adv-x="562" 
d="M34 235q0 94 63.5 162.5t173.5 68.5q36 0 66.5 -10.5t43.5 -21.5l13 -10h2q-30 80 -109 133l-180 -80l-10 62l123 55q-61 31 -129 46l27 79q116 -26 207 -80l139 61l10 -61l-93 -42q144 -120 144 -322q0 -53 -14.5 -102t-43.5 -91.5t-80 -68t-116 -25.5
q-108 0 -172.5 73.5t-64.5 173.5zM133 233q0 -66 37.5 -113.5t103.5 -47.5q75 0 113.5 56.5t38.5 129.5q0 57 -38.5 93.5t-102.5 36.5q-73 0 -112.5 -45.5t-39.5 -109.5z" />
    <glyph glyph-name="ntilde" unicode="&#xf1;" horiz-adv-x="623" 
d="M85 0v401q0 22 -22 22h-41v83h93q64 0 64 -56v-19l-2 -29h2q20 43 68.5 79.5t122.5 36.5q173 0 173 -194v-219q0 -22 22 -22h41v-83h-96q-34 0 -49 15t-15 49v238q0 61 -19.5 94t-75.5 33q-57 0 -100.5 -34.5t-59.5 -89.5q-9 -26 -9 -68v-237h-97zM152 581q0 127 103 127
q29 0 52 -17t40.5 -34t35.5 -17q21 0 31 20t10 45h65q0 -127 -103 -127q-29 0 -51.5 17t-40.5 34t-36 17q-21 0 -30.5 -19.5t-9.5 -45.5h-66z" />
    <glyph glyph-name="ograve" unicode="&#xf2;" horiz-adv-x="611" 
d="M33 254q0 114 79 189t193 75q115 0 194 -75t79 -189t-79.5 -190t-193.5 -76t-193 76t-79 190zM131 254q0 -78 51 -130t123 -52q73 0 123.5 51.5t50.5 130.5q0 78 -50.5 129t-123.5 51q-72 0 -123 -51t-51 -129zM266 580l-95 127h98l73 -127h-76z" />
    <glyph glyph-name="oacute" unicode="&#xf3;" horiz-adv-x="611" 
d="M266 580l73 127h98l-95 -127h-76zM33 254q0 114 79 189t193 75q115 0 194 -75t79 -189t-79.5 -190t-193.5 -76t-193 76t-79 190zM131 254q0 -78 51 -130t123 -52q73 0 123.5 51.5t50.5 130.5q0 78 -50.5 129t-123.5 51q-72 0 -123 -51t-51 -129z" />
    <glyph glyph-name="ocircumflex" unicode="&#xf4;" horiz-adv-x="611" 
d="M173 580l87 127h89l88 -127h-79l-52 80h-2l-53 -80h-78zM33 254q0 114 79 189t193 75q115 0 194 -75t79 -189t-79.5 -190t-193.5 -76t-193 76t-79 190zM131 254q0 -78 51 -130t123 -52q73 0 123.5 51.5t50.5 130.5q0 78 -50.5 129t-123.5 51q-72 0 -123 -51t-51 -129z
" />
    <glyph glyph-name="otilde" unicode="&#xf5;" horiz-adv-x="611" 
d="M33 254q0 114 79 189t193 75q115 0 194 -75t79 -189t-79.5 -190t-193.5 -76t-193 76t-79 190zM131 254q0 -78 51 -130t123 -52q73 0 123.5 51.5t50.5 130.5q0 78 -50.5 129t-123.5 51q-72 0 -123 -51t-51 -129zM135 581q0 127 103 127q29 0 52 -17t40.5 -34t35.5 -17
q21 0 31 20t10 45h65q0 -127 -103 -127q-29 0 -51.5 17t-40.5 34t-36 17q-21 0 -30.5 -19.5t-9.5 -45.5h-66z" />
    <glyph glyph-name="odieresis" unicode="&#xf6;" horiz-adv-x="611" 
d="M351 606v101h73v-101h-73zM186 606v101h74v-101h-74zM33 254q0 114 79 189t193 75q115 0 194 -75t79 -189t-79.5 -190t-193.5 -76t-193 76t-79 190zM131 254q0 -78 51 -130t123 -52q73 0 123.5 51.5t50.5 130.5q0 78 -50.5 129t-123.5 51q-72 0 -123 -51t-51 -129z" />
    <glyph glyph-name="divide" unicode="&#xf7;" 
d="M240 435v91h95v-91h-95zM35 246v78h505v-78h-505zM240 44v91h95v-91h-95z" />
    <glyph glyph-name="oslash" unicode="&#xf8;" horiz-adv-x="611" 
d="M91 -3l38 52q-96 76 -96 205q0 114 79 189t193 75q75 0 135 -34l40 56l48 -34l-39 -54q89 -79 89 -198q0 -114 -79.5 -190t-193.5 -76q-70 0 -127 30l-39 -56zM183 124l206 288q-39 22 -84 22q-72 0 -123 -51t-51 -129q0 -76 52 -130zM230 90q34 -18 75 -18
q73 0 123.5 51.5t50.5 130.5q0 72 -46 120z" />
    <glyph glyph-name="ugrave" unicode="&#xf9;" horiz-adv-x="618" 
d="M80 182v219q0 22 -22 22h-41v83h95q34 0 49 -15t15 -47v-240q0 -60 20 -93t75 -33q75 0 120 56t45 135v237h97v-401q0 -22 22 -22h41v-83h-93q-64 0 -64 56v19l1 29h-2q-19 -44 -68.5 -80t-117.5 -36q-86 0 -129 47.5t-43 146.5zM261 580l-95 127h98l73 -127h-76z" />
    <glyph glyph-name="uacute" unicode="&#xfa;" horiz-adv-x="618" 
d="M261 580l73 127h98l-95 -127h-76zM80 182v219q0 22 -22 22h-41v83h95q34 0 49 -15t15 -47v-240q0 -60 20 -93t75 -33q75 0 120 56t45 135v237h97v-401q0 -22 22 -22h41v-83h-93q-64 0 -64 56v19l1 29h-2q-19 -44 -68.5 -80t-117.5 -36q-86 0 -129 47.5t-43 146.5z" />
    <glyph glyph-name="ucircumflex" unicode="&#xfb;" horiz-adv-x="618" 
d="M169 580l87 127h89l88 -127h-79l-52 80h-2l-53 -80h-78zM80 182v219q0 22 -22 22h-41v83h95q34 0 49 -15t15 -47v-240q0 -60 20 -93t75 -33q75 0 120 56t45 135v237h97v-401q0 -22 22 -22h41v-83h-93q-64 0 -64 56v19l1 29h-2q-19 -44 -68.5 -80t-117.5 -36
q-86 0 -129 47.5t-43 146.5z" />
    <glyph glyph-name="udieresis" unicode="&#xfc;" horiz-adv-x="618" 
d="M347 606v101h73v-101h-73zM182 606v101h74v-101h-74zM80 182v219q0 22 -22 22h-41v83h95q34 0 49 -15t15 -47v-240q0 -60 20 -93t75 -33q75 0 120 56t45 135v237h97v-401q0 -22 22 -22h41v-83h-93q-64 0 -64 56v19l1 29h-2q-19 -44 -68.5 -80t-117.5 -36q-86 0 -129 47.5
t-43 146.5z" />
    <glyph glyph-name="yacute" unicode="&#xfd;" horiz-adv-x="543" 
d="M42 -90q0 -1 9 -9.5t27.5 -17.5t37.5 -9q58 0 89 73l23 55l-173 401q-9 20 -31 20h-13v83h57q31 0 46 -10.5t27 -40.5l114 -285l18 -61h2q8 35 17 61l106 285q10 30 26 40.5t47 10.5h58v-83h-13q-23 0 -32 -20l-199 -494q-24 -58 -67 -88.5t-97 -30.5q-33 0 -63 12.5
t-43 25.5l-13 12zM231 580l73 127h98l-95 -127h-76z" />
    <glyph glyph-name="thorn" unicode="&#xfe;" horiz-adv-x="584" 
d="M68 -200v801q0 22 -22 22h-41v83h95q34 0 49.5 -15t15.5 -49v-163l-2 -44h2q48 83 159 83q102 0 163.5 -73.5t61.5 -191.5q0 -117 -61.5 -191t-163.5 -74q-33 0 -62 8.5t-46 20t-29 23.5t-17 20l-5 9h-2q2 -18 2 -44v-225h-97zM162 253q0 -93 41.5 -137t105.5 -44t103 50
t39 131t-39 131t-103 50q-65 0 -106 -43.5t-41 -137.5z" />
    <glyph glyph-name="ydieresis" unicode="&#xff;" horiz-adv-x="543" 
d="M42 -90q0 -1 9 -9.5t27.5 -17.5t37.5 -9q58 0 89 73l23 55l-173 401q-9 20 -31 20h-13v83h57q31 0 46 -10.5t27 -40.5l114 -285l18 -61h2q8 35 17 61l106 285q10 30 26 40.5t47 10.5h58v-83h-13q-23 0 -32 -20l-199 -494q-24 -58 -67 -88.5t-97 -30.5q-33 0 -63 12.5
t-43 25.5l-13 12zM316 606v101h73v-101h-73zM151 606v101h74v-101h-74z" />
    <glyph glyph-name="Amacron" unicode="&#x100;" horiz-adv-x="665" 
d="M12 0v86h14q26 0 33 22l221 598h105l221 -598q7 -22 33 -22h14v-86h-55q-37 0 -53.5 11.5t-29.5 46.5l-53 145h-259l-53 -145q-13 -35 -29.5 -46.5t-53.5 -11.5h-55zM227 287h211l-77 215l-28 99h-2q-15 -62 -27 -99zM206 784v68h254v-68h-254z" />
    <glyph glyph-name="amacron" unicode="&#x101;" horiz-adv-x="529" 
d="M28 138q0 177 306 177h22v7q0 64 -26.5 91.5t-85.5 27.5q-28 0 -55.5 -8.5t-27.5 -30.5v-29h-92v51q0 28 20 48.5t50.5 29.5t55.5 12.5t47 3.5q117 0 164 -52t47 -146v-215q0 -22 22 -22h41v-83h-92q-62 0 -62 58l1 30h-2q1 0 -4.5 -10.5t-18 -25t-30.5 -29t-47 -25
t-63 -10.5q-70 0 -120 40.5t-50 109.5zM125 147q0 -33 25 -57.5t70 -24.5q60 0 98 50t38 111v19h-26q-205 0 -205 -98zM130 609v68h254v-68h-254z" />
    <glyph glyph-name="Abreve" unicode="&#x102;" horiz-adv-x="665" 
d="M12 0v86h14q26 0 33 22l221 598h105l221 -598q7 -22 33 -22h14v-86h-55q-37 0 -53.5 11.5t-29.5 46.5l-53 145h-259l-53 -145q-13 -35 -29.5 -46.5t-53.5 -11.5h-55zM227 287h211l-77 215l-28 99h-2q-15 -62 -27 -99zM332 751q-51 0 -89.5 31t-38.5 86v14h67v-13
q0 -30 17.5 -45t43.5 -15t44 15.5t18 45.5v12h66v-14q0 -55 -38 -86t-90 -31z" />
    <glyph glyph-name="abreve" unicode="&#x103;" horiz-adv-x="529" 
d="M28 138q0 177 306 177h22v7q0 64 -26.5 91.5t-85.5 27.5q-28 0 -55.5 -8.5t-27.5 -30.5v-29h-92v51q0 28 20 48.5t50.5 29.5t55.5 12.5t47 3.5q117 0 164 -52t47 -146v-215q0 -22 22 -22h41v-83h-92q-62 0 -62 58l1 30h-2q1 0 -4.5 -10.5t-18 -25t-30.5 -29t-47 -25
t-63 -10.5q-70 0 -120 40.5t-50 109.5zM125 147q0 -33 25 -57.5t70 -24.5q60 0 98 50t38 111v19h-26q-205 0 -205 -98zM256 576q-51 0 -89.5 31t-38.5 86v14h67v-13q0 -30 17.5 -45t43.5 -15t44 15.5t18 45.5v12h66v-14q0 -55 -38 -86t-90 -31z" />
    <glyph glyph-name="Aogonek" unicode="&#x104;" horiz-adv-x="665" 
d="M12 0v86h14q26 0 33 22l221 598h105l221 -598q7 -22 33 -22h14v-86q-64 -54 -64 -89q0 -17 14 -27.5t28 -13.5l14 -2l-23 -75q-5 0 -12.5 1.5t-27.5 7.5t-35.5 15.5t-28 28t-12.5 42.5q0 64 68 113v2q-24 3 -36.5 15t-22.5 40l-53 145h-259l-53 -145q-13 -35 -29.5 -46.5
t-53.5 -11.5h-55zM227 287h211l-77 215l-28 99h-2q-15 -62 -27 -99z" />
    <glyph glyph-name="aogonek" unicode="&#x105;" horiz-adv-x="529" 
d="M28 142q0 173 307 173h21v8q0 64 -26.5 91t-85.5 27q-29 0 -56 -8.5t-27 -30.5v-29h-92v51q0 28 19.5 48.5t50.5 29.5t56.5 12.5t48.5 3.5q116 0 162.5 -52.5t46.5 -145.5v-215q0 -22 22 -22h41v-83q-65 -50 -65 -89q0 -17 14 -27.5t28 -13.5l14 -2l-23 -75
q-5 0 -12.5 1.5t-27.5 7.5t-35.5 15.5t-28 28t-12.5 42.5q0 60 66 110v2h-18q-29 0 -42 16t-13 39v5l2 28h-2q-20 -42 -60 -71t-100 -29q-72 0 -122.5 41t-50.5 113zM127 147q0 -33 25 -57t70 -24q58 0 96 50.5t38 110.5v18h-25q-204 0 -204 -98z" />
    <glyph glyph-name="Cacute" unicode="&#x106;" horiz-adv-x="698" 
d="M346 755l73 127h98l-95 -127h-76zM35 359q0 153 101.5 256t252.5 103q39 0 82 -8.5t85.5 -25t70 -48t27.5 -71.5v-69h-92v40q0 41 -55 65t-116 24q-108 0 -180 -74t-72 -192q0 -116 73.5 -196.5t181.5 -80.5q39 0 76.5 10t63 24t45 28t29.5 24l9 10l54 -72q-4 -5 -12 -13
t-34.5 -28t-56.5 -35.5t-77.5 -28.5t-97.5 -13q-156 0 -257 106.5t-101 264.5z" />
    <glyph glyph-name="cacute" unicode="&#x107;" horiz-adv-x="530" 
d="M249 580l73 127h98l-95 -127h-76zM33 253q0 113 75.5 189t196.5 76q26 0 55 -5.5t58.5 -17.5t49 -35t19.5 -53v-52h-88v28q0 25 -30.5 38.5t-63.5 13.5q-75 0 -124.5 -50.5t-49.5 -130.5q0 -83 52 -131.5t127 -48.5q42 0 81.5 17.5t57.5 34.5l18 18l41 -69
q-3 -4 -8.5 -9.5t-25 -20.5t-41.5 -26.5t-57 -21t-73 -9.5q-119 0 -194.5 75t-75.5 190z" />
    <glyph glyph-name="Ccircumflex" unicode="&#x108;" horiz-adv-x="698" 
d="M253 755l87 127h89l88 -127h-79l-52 80h-2l-53 -80h-78zM35 359q0 153 101.5 256t252.5 103q39 0 82 -8.5t85.5 -25t70 -48t27.5 -71.5v-69h-92v40q0 41 -55 65t-116 24q-108 0 -180 -74t-72 -192q0 -116 73.5 -196.5t181.5 -80.5q39 0 76.5 10t63 24t45 28t29.5 24l9 10
l54 -72q-4 -5 -12 -13t-34.5 -28t-56.5 -35.5t-77.5 -28.5t-97.5 -13q-156 0 -257 106.5t-101 264.5z" />
    <glyph glyph-name="ccircumflex" unicode="&#x109;" horiz-adv-x="530" 
d="M156 580l87 127h89l88 -127h-79l-52 80h-2l-53 -80h-78zM33 253q0 113 75.5 189t196.5 76q26 0 55 -5.5t58.5 -17.5t49 -35t19.5 -53v-52h-88v28q0 25 -30.5 38.5t-63.5 13.5q-75 0 -124.5 -50.5t-49.5 -130.5q0 -83 52 -131.5t127 -48.5q42 0 81.5 17.5t57.5 34.5l18 18
l41 -69q-3 -4 -8.5 -9.5t-25 -20.5t-41.5 -26.5t-57 -21t-73 -9.5q-119 0 -194.5 75t-75.5 190z" />
    <glyph glyph-name="Cdotaccent" unicode="&#x10a;" horiz-adv-x="698" 
d="M35 359q0 153 101.5 256t252.5 103q39 0 82 -8.5t85.5 -25t70 -48t27.5 -71.5v-69h-92v40q0 41 -55 65t-116 24q-108 0 -180 -74t-72 -192q0 -116 73.5 -196.5t181.5 -80.5q39 0 76.5 10t63 24t45 28t29.5 24l9 10l54 -72q-4 -5 -12 -13t-34.5 -28t-56.5 -35.5
t-77.5 -28.5t-97.5 -13q-156 0 -257 106.5t-101 264.5zM341 781v101h87v-101h-87z" />
    <glyph glyph-name="cdotaccent" unicode="&#x10b;" horiz-adv-x="530" 
d="M33 253q0 113 75.5 189t196.5 76q26 0 55 -5.5t58.5 -17.5t49 -35t19.5 -53v-52h-88v28q0 25 -30.5 38.5t-63.5 13.5q-75 0 -124.5 -50.5t-49.5 -130.5q0 -83 52 -131.5t127 -48.5q42 0 81.5 17.5t57.5 34.5l18 18l41 -69q-3 -4 -8.5 -9.5t-25 -20.5t-41.5 -26.5t-57 -21
t-73 -9.5q-119 0 -194.5 75t-75.5 190zM244 606v101h87v-101h-87z" />
    <glyph glyph-name="Ccaron" unicode="&#x10c;" horiz-adv-x="698" 
d="M341 755l-88 127h79l52 -81h2l52 81h80l-88 -127h-89zM35 359q0 153 101.5 256t252.5 103q39 0 82 -8.5t85.5 -25t70 -48t27.5 -71.5v-69h-92v40q0 41 -55 65t-116 24q-108 0 -180 -74t-72 -192q0 -116 73.5 -196.5t181.5 -80.5q39 0 76.5 10t63 24t45 28t29.5 24l9 10
l54 -72q-4 -5 -12 -13t-34.5 -28t-56.5 -35.5t-77.5 -28.5t-97.5 -13q-156 0 -257 106.5t-101 264.5z" />
    <glyph glyph-name="ccaron" unicode="&#x10d;" horiz-adv-x="530" 
d="M244 580l-88 127h79l52 -81h2l52 81h80l-88 -127h-89zM33 253q0 113 75.5 189t196.5 76q26 0 55 -5.5t58.5 -17.5t49 -35t19.5 -53v-52h-88v28q0 25 -30.5 38.5t-63.5 13.5q-75 0 -124.5 -50.5t-49.5 -130.5q0 -83 52 -131.5t127 -48.5q42 0 81.5 17.5t57.5 34.5l18 18
l41 -69q-3 -4 -8.5 -9.5t-25 -20.5t-41.5 -26.5t-57 -21t-73 -9.5q-119 0 -194.5 75t-75.5 190z" />
    <glyph glyph-name="Dcaron" unicode="&#x10e;" horiz-adv-x="714" 
d="M293 755l-88 127h79l52 -81h2l52 81h80l-88 -127h-89zM98 64v556h-65v86h286q163 0 260.5 -93.5t97.5 -258.5q0 -166 -97.5 -260t-260.5 -94h-156q-34 0 -49.5 15t-15.5 49zM198 108q0 -22 22 -22h92q121 0 191 70t70 198q0 127 -70.5 196.5t-190.5 69.5h-114v-512z" />
    <glyph glyph-name="dcaron" unicode="&#x10f;" horiz-adv-x="601" 
d="M571 706h79q6 -27 6 -49q0 -41 -24 -92h-69q19 49 19 82q0 29 -11 59zM35 253q0 120 63.5 192.5t164.5 72.5q33 0 61 -8t44.5 -19.5t29 -23t16.5 -19.5l5 -8h2q-1 15 -1 34v127q0 22 -22 22h-41v83h95q34 0 49.5 -15t15.5 -49v-537q0 -22 22 -22h41v-83h-93q-62 0 -62 54
l1 26h-2q-2 -4 -5.5 -10t-17.5 -22t-31 -28t-47 -22t-65 -10q-102 0 -162.5 73t-60.5 192zM133 253q0 -82 40 -131.5t104 -49.5q62 0 103.5 45.5t41.5 136.5q0 74 -37 127t-106 53q-62 0 -104 -49t-42 -132z" />
    <glyph glyph-name="Dcroat" unicode="&#x110;" horiz-adv-x="716" 
d="M100 64v248h-48v82h48v226h-65v86h286q163 0 260.5 -93.5t97.5 -258.5q0 -166 -97.5 -260t-260.5 -94h-156q-34 0 -49.5 15t-15.5 49zM200 108q0 -22 22 -22h92q121 0 191 70t70 198q0 127 -70.5 196.5t-190.5 69.5h-114v-226h144v-82h-144v-204z" />
    <glyph glyph-name="dcroat" unicode="&#x111;" horiz-adv-x="601" 
d="M35 253q0 120 63.5 192.5t164.5 72.5q33 0 61 -8t44.5 -19.5t29 -23t16.5 -19.5l5 -8h2q-1 15 -1 34v89h-129v63h129v80h97v-80h77v-63h-77v-458q0 -22 22 -22h41v-83h-93q-62 0 -62 54l1 26h-2q-2 -4 -5.5 -10t-17.5 -22t-31 -28t-47 -22t-65 -10q-102 0 -162.5 73
t-60.5 192zM133 253q0 -82 40 -131.5t104 -49.5q62 0 103.5 45.5t41.5 136.5q0 74 -37 127t-106 53q-62 0 -104 -49t-42 -132z" />
    <glyph glyph-name="Emacron" unicode="&#x112;" horiz-adv-x="571" 
d="M98 64v556h-65v86h416q34 0 49 -15t15 -49v-89h-92v45q0 22 -22 22h-201v-221h248v-86h-248v-205q0 -22 22 -22h207q22 0 22 22v45h91v-89q0 -34 -15 -49t-49 -15h-313q-34 0 -49.5 15t-15.5 49zM164 784v68h254v-68h-254z" />
    <glyph glyph-name="emacron" unicode="&#x113;" horiz-adv-x="539" 
d="M33 253q0 119 72 192t182 73q103 0 160.5 -67.5t57.5 -169.5q0 -17 -3 -41h-369q4 -79 54 -123.5t121 -44.5q16 0 31.5 2.5t29 7.5t24.5 9.5t22.5 11.5t17.5 11l15 10l9 7l41 -71q-17 -14 -40 -28t-67.5 -29t-88.5 -15q-118 0 -193.5 75.5t-75.5 189.5zM137 310h271
q-2 63 -36.5 98t-86.5 35q-57 0 -97.5 -35.5t-50.5 -97.5zM155 609v68h254v-68h-254z" />
    <glyph glyph-name="Ebreve" unicode="&#x114;" horiz-adv-x="571" 
d="M98 64v556h-65v86h416q34 0 49 -15t15 -49v-89h-92v45q0 22 -22 22h-201v-221h248v-86h-248v-205q0 -22 22 -22h207q22 0 22 22v45h91v-89q0 -34 -15 -49t-49 -15h-313q-34 0 -49.5 15t-15.5 49zM290 751q-51 0 -89.5 31t-38.5 86v14h67v-13q0 -30 17.5 -45t43.5 -15
t44 15.5t18 45.5v12h66v-14q0 -55 -38 -86t-90 -31z" />
    <glyph glyph-name="ebreve" unicode="&#x115;" horiz-adv-x="539" 
d="M33 253q0 119 72 192t182 73q103 0 160.5 -67.5t57.5 -169.5q0 -17 -3 -41h-369q4 -79 54 -123.5t121 -44.5q16 0 31.5 2.5t29 7.5t24.5 9.5t22.5 11.5t17.5 11l15 10l9 7l41 -71q-17 -14 -40 -28t-67.5 -29t-88.5 -15q-118 0 -193.5 75.5t-75.5 189.5zM137 310h271
q-2 63 -36.5 98t-86.5 35q-57 0 -97.5 -35.5t-50.5 -97.5zM282 576q-51 0 -89.5 31t-38.5 86v14h67v-13q0 -30 17.5 -45t43.5 -15t44 15.5t18 45.5v12h66v-14q0 -55 -38 -86t-90 -31z" />
    <glyph glyph-name="Edotaccent" unicode="&#x116;" horiz-adv-x="571" 
d="M98 64v556h-65v86h416q34 0 49 -15t15 -49v-89h-92v45q0 22 -22 22h-201v-221h248v-86h-248v-205q0 -22 22 -22h207q22 0 22 22v45h91v-89q0 -34 -15 -49t-49 -15h-313q-34 0 -49.5 15t-15.5 49zM247 781v101h87v-101h-87z" />
    <glyph glyph-name="edotaccent" unicode="&#x117;" horiz-adv-x="539" 
d="M33 253q0 119 72 192t182 73q103 0 160.5 -67.5t57.5 -169.5q0 -17 -3 -41h-369q4 -79 54 -123.5t121 -44.5q16 0 31.5 2.5t29 7.5t24.5 9.5t22.5 11.5t17.5 11l15 10l9 7l41 -71q-17 -14 -40 -28t-67.5 -29t-88.5 -15q-118 0 -193.5 75.5t-75.5 189.5zM137 310h271
q-2 63 -36.5 98t-86.5 35q-57 0 -97.5 -35.5t-50.5 -97.5zM238 606v101h87v-101h-87z" />
    <glyph glyph-name="Eogonek" unicode="&#x118;" horiz-adv-x="571" 
d="M98 64v556h-65v86h416q34 0 49 -15t15 -49v-89h-92v45q0 22 -22 22h-201v-221h248v-86h-248v-205q0 -22 22 -22h207q22 0 22 22v45h91v-89q0 -34 -22 -56q-2 -2 -10 -8.5t-11.5 -9.5t-11 -9.5t-11.5 -10.5t-9.5 -10.5t-8.5 -11.5t-6.5 -11.5t-5 -13t-1.5 -12.5
q0 -17 13.5 -27.5t27.5 -13.5l14 -2l-23 -75q-5 0 -12.5 1.5t-27.5 7.5t-35.5 15.5t-28 28t-12.5 42.5q0 60 65 110v2h-261q-34 0 -49.5 15t-15.5 49z" />
    <glyph glyph-name="eogonek" unicode="&#x119;" horiz-adv-x="540" 
d="M33 253q0 119 72 192t182 73q103 0 160.5 -67t57.5 -170q0 -14 -3 -38h-369q4 -80 54 -125.5t121 -45.5q16 0 31.5 2.5t29 7.5t24.5 9.5t22.5 11.5t17.5 11l15 10l9 7l41 -71q-9 -9 -48.5 -37.5t-62.5 -55t-23 -56.5q0 -17 14 -27.5t28 -13.5l13 -2l-23 -75
q-5 0 -12.5 1.5t-27.5 7.5t-35.5 15.5t-28 28t-12.5 42.5q0 51 56 101v2q-16 -3 -34 -3q-118 0 -193.5 75.5t-75.5 189.5zM137 307h271q-2 64 -36.5 99.5t-86.5 35.5q-57 0 -97.5 -36t-50.5 -99z" />
    <glyph glyph-name="Ecaron" unicode="&#x11a;" horiz-adv-x="571" 
d="M246 755l-88 127h79l52 -81h2l52 81h80l-88 -127h-89zM98 64v556h-65v86h416q34 0 49 -15t15 -49v-89h-92v45q0 22 -22 22h-201v-221h248v-86h-248v-205q0 -22 22 -22h207q22 0 22 22v45h91v-89q0 -34 -15 -49t-49 -15h-313q-34 0 -49.5 15t-15.5 49z" />
    <glyph glyph-name="ecaron" unicode="&#x11b;" horiz-adv-x="539" 
d="M238 580l-88 127h79l52 -81h2l52 81h80l-88 -127h-89zM33 253q0 119 72 192t182 73q103 0 160.5 -67.5t57.5 -169.5q0 -17 -3 -41h-369q4 -79 54 -123.5t121 -44.5q16 0 31.5 2.5t29 7.5t24.5 9.5t22.5 11.5t17.5 11l15 10l9 7l41 -71q-17 -14 -40 -28t-67.5 -29
t-88.5 -15q-118 0 -193.5 75.5t-75.5 189.5zM137 310h271q-2 63 -36.5 98t-86.5 35q-57 0 -97.5 -35.5t-50.5 -97.5z" />
    <glyph glyph-name="Gcircumflex" unicode="&#x11c;" horiz-adv-x="728" 
d="M256 755l87 127h89l88 -127h-79l-52 80h-2l-53 -80h-78zM35 356q0 153 102 257.5t254 104.5q75 0 138 -22t89 -44l25 -21l-57 -73q-9 8 -24.5 19t-66 30t-102.5 19q-107 0 -180.5 -76.5t-73.5 -193.5q0 -121 73 -197.5t183 -76.5q35 0 69 9t56.5 22t40.5 26t27 22l8 9v71
q0 22 -22 22h-43v86h92q34 0 49.5 -15t15.5 -49v-285h-88v44l1 30h-2q-3 -3 -9.5 -9t-27.5 -21t-44.5 -26t-61.5 -20.5t-77 -9.5q-145 0 -244.5 103t-99.5 265z" />
    <glyph glyph-name="gcircumflex" unicode="&#x11d;" horiz-adv-x="593" 
d="M166 580l87 127h89l88 -127h-79l-52 80h-2l-53 -80h-78zM114 -90q63 -34 138 -34q72 0 116.5 34.5t44.5 106.5v34l1 32h-2q-47 -77 -150 -77t-165 73.5t-62 185.5t59.5 182.5t162.5 70.5q36 0 65.5 -8t47 -20t29.5 -23.5t17 -19.5l4 -8h2q-1 8 -1 16q0 51 57 51h94v-83
h-41q-22 0 -22 -20v-382q0 -60 -21.5 -106t-58 -72.5t-81 -39.5t-94.5 -13q-90 0 -172 42zM281 90q59 0 96.5 41t37.5 133q0 170 -143 170q-65 0 -101.5 -44.5t-36.5 -122.5q0 -80 39.5 -128.5t107.5 -48.5z" />
    <glyph glyph-name="Gbreve" unicode="&#x11e;" horiz-adv-x="728" 
d="M35 356q0 153 102 257.5t254 104.5q75 0 138 -22t89 -44l25 -21l-57 -73q-9 8 -24.5 19t-66 30t-102.5 19q-107 0 -180.5 -76.5t-73.5 -193.5q0 -121 73 -197.5t183 -76.5q35 0 69 9t56.5 22t40.5 26t27 22l8 9v71q0 22 -22 22h-43v86h92q34 0 49.5 -15t15.5 -49v-285
h-88v44l1 30h-2q-3 -3 -9.5 -9t-27.5 -21t-44.5 -26t-61.5 -20.5t-77 -9.5q-145 0 -244.5 103t-99.5 265zM387 751q-51 0 -89.5 31t-38.5 86v14h67v-13q0 -30 18 -45t43 -15q26 0 44 15.5t18 45.5v12h66v-14q0 -55 -38 -86t-90 -31z" />
    <glyph glyph-name="gbreve" unicode="&#x11f;" horiz-adv-x="593" 
d="M114 -90q63 -34 138 -34q72 0 116.5 34.5t44.5 106.5v34l1 32h-2q-47 -77 -150 -77t-165 73.5t-62 185.5t59.5 182.5t162.5 70.5q36 0 65.5 -8t47 -20t29.5 -23.5t17 -19.5l4 -8h2q-1 8 -1 16q0 51 57 51h94v-83h-41q-22 0 -22 -20v-382q0 -60 -21.5 -106t-58 -72.5
t-81 -39.5t-94.5 -13q-90 0 -172 42zM281 90q59 0 96.5 41t37.5 133q0 170 -143 170q-65 0 -101.5 -44.5t-36.5 -122.5q0 -80 39.5 -128.5t107.5 -48.5zM297 576q-51 0 -89.5 31t-38.5 86v14h67v-13q0 -30 18 -45t43 -15q26 0 44 15.5t18 45.5v12h66v-14q0 -55 -38 -86
t-90 -31z" />
    <glyph glyph-name="Gdotaccent" unicode="&#x120;" horiz-adv-x="728" 
d="M35 356q0 153 102 257.5t254 104.5q75 0 138 -22t89 -44l25 -21l-57 -73q-9 8 -24.5 19t-66 30t-102.5 19q-107 0 -180.5 -76.5t-73.5 -193.5q0 -121 73 -197.5t183 -76.5q35 0 69 9t56.5 22t40.5 26t27 22l8 9v71q0 22 -22 22h-43v86h92q34 0 49.5 -15t15.5 -49v-285
h-88v44l1 30h-2q-3 -3 -9.5 -9t-27.5 -21t-44.5 -26t-61.5 -20.5t-77 -9.5q-145 0 -244.5 103t-99.5 265zM344 781v101h87v-101h-87z" />
    <glyph glyph-name="gdotaccent" unicode="&#x121;" horiz-adv-x="593" 
d="M114 -90q63 -34 138 -34q72 0 116.5 34.5t44.5 106.5v34l1 32h-2q-47 -77 -150 -77t-165 73.5t-62 185.5t59.5 182.5t162.5 70.5q36 0 65.5 -8t47 -20t29.5 -23.5t17 -19.5l4 -8h2q-1 8 -1 16q0 51 57 51h94v-83h-41q-22 0 -22 -20v-382q0 -60 -21.5 -106t-58 -72.5
t-81 -39.5t-94.5 -13q-90 0 -172 42zM281 90q59 0 96.5 41t37.5 133q0 170 -143 170q-65 0 -101.5 -44.5t-36.5 -122.5q0 -80 39.5 -128.5t107.5 -48.5zM254 606v101h87v-101h-87z" />
    <glyph glyph-name="Gcommaaccent" unicode="&#x122;" horiz-adv-x="728" 
d="M340 -59h79q6 -27 6 -49q0 -41 -24 -92h-69q19 49 19 82q0 29 -11 59zM35 356q0 153 102 257.5t254 104.5q75 0 138 -22t89 -44l25 -21l-57 -73q-9 8 -24.5 19t-66 30t-102.5 19q-107 0 -180.5 -76.5t-73.5 -193.5q0 -121 73 -197.5t183 -76.5q35 0 69 9t56.5 22t40.5 26
t27 22l8 9v71q0 22 -22 22h-43v86h92q34 0 49.5 -15t15.5 -49v-285h-88v44l1 30h-2q-3 -3 -9.5 -9t-27.5 -21t-44.5 -26t-61.5 -20.5t-77 -9.5q-145 0 -244.5 103t-99.5 265z" />
    <glyph glyph-name="gcommaaccent" unicode="&#x123;" horiz-adv-x="593" 
d="M324 565h-79q-6 27 -6 49q0 41 24 92h69q-19 -49 -19 -82q0 -29 11 -59zM114 -90q63 -34 138 -34q72 0 116.5 34.5t44.5 106.5v34l1 32h-2q-47 -77 -150 -77t-165 73.5t-62 185.5t59.5 182.5t162.5 70.5q36 0 65.5 -8t47 -20t29.5 -23.5t17 -19.5l4 -8h2q-1 8 -1 16
q0 51 57 51h94v-83h-41q-22 0 -22 -20v-382q0 -60 -21.5 -106t-58 -72.5t-81 -39.5t-94.5 -13q-90 0 -172 42zM281 90q59 0 96.5 41t37.5 133q0 170 -143 170q-65 0 -101.5 -44.5t-36.5 -122.5q0 -80 39.5 -128.5t107.5 -48.5z" />
    <glyph glyph-name="Hcircumflex" unicode="&#x124;" horiz-adv-x="757" 
d="M247 755l87 127h89l88 -127h-79l-52 80h-2l-53 -80h-78zM99 0v598q0 22 -22 22h-43v86h101q34 0 49 -15t15 -49v-247h359v247q0 34 15.5 49t49.5 15h100v-86h-43q-22 0 -22 -22v-598h-100v310h-359v-310h-100z" />
    <glyph glyph-name="hcircumflex" unicode="&#x125;" horiz-adv-x="605" 
d="M-13 755l87 127h89l88 -127h-79l-52 80h-2l-53 -80h-78zM67 0v601q0 22 -22 22h-41v83h95q65 0 65 -62v-197l-2 -42h2q20 44 69 78.5t118 34.5q174 0 174 -194v-219q0 -22 22 -22h41v-83h-96q-34 0 -49 15t-15 49v238q0 61 -19.5 94t-75.5 33q-57 0 -101 -35t-60 -90
q-8 -27 -8 -67v-237h-97z" />
    <glyph glyph-name="Hbar" unicode="&#x126;" horiz-adv-x="760" 
d="M100 0v514h-65v68h65v124h100v-124h360v124h100v-124h65v-68h-65v-514h-100v310h-360v-310h-100zM200 395h360v119h-360v-119z" />
    <glyph glyph-name="hbar" unicode="&#x127;" horiz-adv-x="605" 
d="M67 0v563h-76v63h76v80h97v-80h128v-63h-128v-116l-2 -42h2q4 13 16.5 29.5t34.5 36.5t58 33.5t78 13.5q174 0 174 -194v-219q0 -22 22 -22h41v-83h-96q-34 0 -49 15t-15 49v238q0 60 -19.5 93.5t-75.5 33.5q-75 0 -122 -55t-47 -137v-237h-97z" />
    <glyph glyph-name="Itilde" unicode="&#x128;" horiz-adv-x="318" 
d="M42 0v86h69v534h-69v86h233v-86h-68v-534h68v-86h-233zM-11 756q0 127 103 127q29 0 52 -17t40.5 -34t35.5 -17q21 0 31 20t10 45h65q0 -127 -103 -127q-29 0 -51.5 17t-40.5 34t-36 17q-21 0 -30.5 -19.5t-9.5 -45.5h-66z" />
    <glyph glyph-name="itilde" unicode="&#x129;" horiz-adv-x="265" 
d="M-23 581q0 127 92 127q19 0 36 -10.5t26.5 -22.5t20.5 -22.5t20 -10.5q34 0 34 63h64q0 -127 -92 -127q-19 0 -36 10t-26.5 22.5t-20.5 22.5t-20 10q-34 0 -34 -62h-64zM84 64v337q0 22 -22 22h-41v83h95q34 0 49.5 -15t15.5 -49v-337q0 -22 22 -22h41v-83h-96
q-34 0 -49 15t-15 49z" />
    <glyph glyph-name="Imacron" unicode="&#x12a;" horiz-adv-x="318" 
d="M42 0v86h69v534h-69v86h233v-86h-68v-534h68v-86h-233zM32 784v68h254v-68h-254z" />
    <glyph glyph-name="imacron" unicode="&#x12b;" horiz-adv-x="265" 
d="M10 609v68h231v-68h-231zM84 64v337q0 22 -22 22h-41v83h95q34 0 49.5 -15t15.5 -49v-337q0 -22 22 -22h41v-83h-96q-34 0 -49 15t-15 49z" />
    <glyph glyph-name="Ibreve" unicode="&#x12c;" horiz-adv-x="318" 
d="M42 0v86h69v534h-69v86h233v-86h-68v-534h68v-86h-233zM159 751q-51 0 -89.5 31t-38.5 86v14h67v-13q0 -30 18 -45t43 -15q26 0 44 15.5t18 45.5v12h66v-14q0 -55 -38 -86t-90 -31z" />
    <glyph glyph-name="ibreve" unicode="&#x12d;" horiz-adv-x="265" 
d="M125 575q-52 0 -90.5 31.5t-38.5 86.5v13h67v-12q0 -30 18 -45.5t44 -15.5q25 0 43 15.5t18 45.5v12h67v-13q0 -55 -38.5 -86.5t-89.5 -31.5zM84 64v337q0 22 -22 22h-41v83h95q34 0 49.5 -15t15.5 -49v-337q0 -22 22 -22h41v-83h-96q-34 0 -49 15t-15 49z" />
    <glyph glyph-name="Iogonek" unicode="&#x12e;" horiz-adv-x="318" 
d="M42 0v86h69v534h-69v86h233v-86h-68v-534h68v-86q-64 -54 -64 -89q0 -17 14 -27.5t28 -13.5l14 -2l-23 -75q-5 0 -12.5 1.5t-27.5 7.5t-35.5 15.5t-28 28t-12.5 42.5q0 59 64 110v2h-150z" />
    <glyph glyph-name="iogonek" unicode="&#x12f;" horiz-adv-x="265" 
d="M86 605v101h87v-101h-87zM84 81v320q0 22 -22 22h-41v83h95q34 0 49.5 -15t15.5 -49v-337q0 -22 22 -22h41v-83q-64 -52 -64 -89q0 -17 14 -27.5t28 -13.5l13 -2l-23 -75q-5 0 -12.5 1.5t-27.5 7.5t-35.5 15.5t-28 28t-12.5 42.5q0 61 65 110v2h-20q-57 0 -57 81z" />
    <glyph glyph-name="Idotaccent" unicode="&#x130;" horiz-adv-x="318" 
d="M42 0v86h69v534h-69v86h233v-86h-68v-534h68v-86h-233zM114 781v101h87v-101h-87z" />
    <glyph glyph-name="dotlessi" unicode="&#x131;" horiz-adv-x="265" 
d="M84 64v337q0 22 -22 22h-41v83h95q34 0 49.5 -15t15.5 -49v-337q0 -22 22 -22h41v-83h-96q-34 0 -49 15t-15 49z" />
    <glyph glyph-name="IJ" unicode="&#x132;" horiz-adv-x="675" 
d="M364 -5v91q25 0 46.5 6t43.5 21.5t35 47.5t13 79v358q0 22 -22 22h-112v86h170q34 0 49 -15t15 -49v-403q0 -73 -21 -123.5t-58 -75.5t-75 -35t-84 -10zM42 0v86h69v534h-69v86h233v-86h-68v-534h68v-86h-233z" />
    <glyph glyph-name="ij" unicode="&#x133;" horiz-adv-x="509" 
d="M86 605v101h87v-101h-87zM84 64v337q0 22 -22 22h-41v83h95q34 0 49.5 -15t15.5 -49v-337q0 -22 22 -22h41v-83h-96q-34 0 -49 15t-15 49zM350 605v101h87v-101h-87zM348 -11v412q0 22 -22 22h-41v83h96q34 0 49 -15t15 -49v-459q0 -48 -14.5 -84t-35 -55.5t-49 -31.5
t-50.5 -15t-45 -3l-34 2v83q9 -1 22 -1q18 0 34 4t34.5 14t29.5 34t11 59z" />
    <glyph glyph-name="Jcircumflex" unicode="&#x134;" horiz-adv-x="511" 
d="M151 755l87 127h89l88 -127h-79l-52 80h-2l-53 -80h-78zM16 203v35h100v-27q0 -68 32.5 -98.5t79.5 -30.5q46 0 78 30.5t32 94.5v391q0 22 -22 22h-173v86h230q34 0 49.5 -15t15.5 -49v-439q0 -107 -62 -161t-149 -54t-149 54.5t-62 160.5z" />
    <glyph glyph-name="jcircumflex" unicode="&#x135;" horiz-adv-x="243" 
d="M-27 579l88 127h88l88 -127h-79l-53 82l-53 -82h-79zM84 -12v416q0 22 -25 22h-38v80h93q35 0 50 -12.5t15 -45.5v-465q0 -48 -14.5 -84t-34.5 -55.5t-48.5 -31.5t-50 -15t-44.5 -3l-34 2v81q9 -1 22 -1q18 0 34 4t34.5 14.5t29.5 34.5t11 59z" />
    <glyph glyph-name="Kcommaaccent" unicode="&#x136;" horiz-adv-x="612" 
d="M280 -59h79q6 -27 6 -49q0 -41 -24 -92h-69q19 49 19 82q0 29 -11 59zM99 0v598q0 22 -22 22h-43v86h101q34 0 49 -15t15 -49v-233h67q44 0 58 24l157 273h112l-171 -293q-9 -16 -19 -27.5t-15 -15.5l-6 -3v-2q20 -5 40 -44l106 -212q11 -23 50 -23h19v-86h-55
q-43 0 -62.5 10t-35.5 43l-122 245q-14 26 -63 26h-60v-324h-100z" />
    <glyph glyph-name="kcommaaccent" unicode="&#x137;" horiz-adv-x="513" 
d="M224 -59h79q6 -27 6 -49q0 -41 -24 -92h-69q19 49 19 82q0 29 -11 59zM67 0v601q0 22 -22 22h-41v83h95q35 0 50 -12.5t15 -45.5v-328h45q36 0 52 22l117 164h112l-138 -188q-10 -14 -19.5 -23.5t-14.5 -12.5l-4 -2v-2q17 -6 34 -38l75 -137q11 -20 44 -20h30v-83h-70
q-35 0 -51 9t-32 38l-93 170q-11 21 -50 21h-37v-238h-97z" />
    <glyph glyph-name="kgreenlandic" unicode="&#x138;" horiz-adv-x="529" 
d="M85 0v401q0 22 -22 22h-41v83h96q35 0 49.5 -12.5t14.5 -45.5v-148h45q38 0 53 21l122 185h110l-143 -207q-10 -14 -19 -23t-13 -12l-4 -2v-2q15 -6 32 -39l65 -118q11 -20 44 -20h35v-83h-74q-35 0 -51.5 9t-32.5 38l-82 150q-10 20 -49 20h-38v-217h-97z" />
    <glyph glyph-name="Lacute" unicode="&#x139;" horiz-adv-x="541" 
d="M118 755l73 127h98l-95 -127h-76zM98 64v534q0 22 -22 22h-43v86h101q34 0 49 -15t15 -49v-534q0 -22 22 -22h196q22 0 22 22v45h91v-89q0 -34 -15 -49t-49 -15h-302q-34 0 -49.5 15t-15.5 49z" />
    <glyph glyph-name="lacute" unicode="&#x13a;" horiz-adv-x="249" 
d="M64 755l73 127h98l-95 -127h-76zM67 64v537q0 22 -22 22h-40v83h95q34 0 49 -15t15 -49v-537q0 -22 22 -22h41v-83h-95q-34 0 -49.5 15t-15.5 49z" />
    <glyph glyph-name="Lcommaaccent" unicode="&#x13b;" horiz-adv-x="541" 
d="M270 -59h79q6 -27 6 -49q0 -41 -24 -92h-69q19 49 19 82q0 29 -11 59zM98 64v534q0 22 -22 22h-43v86h101q34 0 49 -15t15 -49v-534q0 -22 22 -22h196q22 0 22 22v45h91v-89q0 -34 -15 -49t-49 -15h-302q-34 0 -49.5 15t-15.5 49z" />
    <glyph glyph-name="lcommaaccent" unicode="&#x13c;" horiz-adv-x="249" 
d="M89 -59h79q6 -27 6 -49q0 -41 -24 -92h-69q19 49 19 82q0 29 -11 59zM67 64v537q0 22 -22 22h-40v83h95q34 0 49 -15t15 -49v-537q0 -22 22 -22h41v-83h-95q-34 0 -49.5 15t-15.5 49z" />
    <glyph glyph-name="Lcaron" unicode="&#x13d;" horiz-adv-x="542" 
d="M283 706h79q6 -27 6 -49q0 -41 -24 -92h-69q19 49 19 82q0 29 -11 59zM98 64v534q0 22 -22 22h-43v86h101q34 0 49 -15t15 -49v-534q0 -22 22 -22h196q22 0 22 22v45h91v-89q0 -34 -15 -49t-49 -15h-302q-34 0 -49.5 15t-15.5 49z" />
    <glyph glyph-name="lcaron" unicode="&#x13e;" horiz-adv-x="249" 
d="M220 706h79q6 -27 6 -49q0 -41 -24 -92h-69q19 49 19 82q0 29 -11 59zM67 64v537q0 22 -22 22h-40v83h95q34 0 49 -15t15 -49v-537q0 -22 22 -22h41v-83h-95q-34 0 -49.5 15t-15.5 49z" />
    <glyph glyph-name="Ldot" unicode="&#x13f;" horiz-adv-x="542" 
d="M98 64v534q0 22 -22 22h-43v86h101q34 0 49 -15t15 -49v-534q0 -22 22 -22h196q22 0 22 22v45h91v-89q0 -34 -15 -49t-49 -15h-302q-34 0 -49.5 15t-15.5 49zM310 327v103h99v-103h-99z" />
    <glyph glyph-name="ldot" unicode="&#x140;" horiz-adv-x="340" 
d="M67 64v537q0 22 -22 22h-40v83h95q34 0 49 -15t15 -49v-537q0 -22 22 -22h41v-83h-95q-34 0 -49.5 15t-15.5 49zM235 327v103h99v-103h-99z" />
    <glyph glyph-name="Lslash" unicode="&#x141;" horiz-adv-x="544" 
d="M101 64v239l-63 -36v97l63 36v198q0 22 -22 22h-43v86h101q34 0 49 -15t15 -49v-185l104 60v-97l-104 -60v-252q0 -22 22 -22h195q22 0 22 22v45h92v-89q0 -34 -15.5 -49t-49.5 -15h-302q-34 0 -49 15t-15 49z" />
    <glyph glyph-name="lslash" unicode="&#x142;" horiz-adv-x="264" 
d="M79 64v257l-75 -43v97l75 44v182q0 22 -22 22h-41v83h96q34 0 49 -15t15 -49v-168l78 45v-97l-78 -46v-271q0 -22 22 -22h41v-83h-96q-34 0 -49 15t-15 49z" />
    <glyph glyph-name="Nacute" unicode="&#x143;" horiz-adv-x="757" 
d="M349 755l73 127h98l-95 -127h-76zM34 0v86h43q22 0 22 22v598h91l314 -447l59 -96h2q-7 57 -7 96v383q0 34 15.5 49t49.5 15h100v-86h-43q-22 0 -22 -22v-598h-90l-315 447l-58 96h-2q6 -57 6 -96v-383q0 -34 -15 -49t-49 -15h-101z" />
    <glyph glyph-name="nacute" unicode="&#x144;" horiz-adv-x="623" 
d="M283 580l73 127h98l-95 -127h-76zM85 0v401q0 22 -22 22h-41v83h93q64 0 64 -56v-19l-2 -29h2q20 43 68.5 79.5t122.5 36.5q173 0 173 -194v-219q0 -22 22 -22h41v-83h-96q-34 0 -49 15t-15 49v238q0 61 -19.5 94t-75.5 33q-57 0 -100.5 -34.5t-59.5 -89.5q-9 -26 -9 -68
v-237h-97z" />
    <glyph glyph-name="Ncommaaccent" unicode="&#x145;" horiz-adv-x="757" 
d="M335 -59h79q6 -27 6 -49q0 -41 -24 -92h-69q19 49 19 82q0 29 -11 59zM34 0v86h43q22 0 22 22v598h91l314 -447l59 -96h2q-7 57 -7 96v383q0 34 15.5 49t49.5 15h100v-86h-43q-22 0 -22 -22v-598h-90l-315 447l-58 96h-2q6 -57 6 -96v-383q0 -34 -15 -49t-49 -15h-101z
" />
    <glyph glyph-name="ncommaaccent" unicode="&#x146;" horiz-adv-x="623" 
d="M284 -59h79q6 -27 6 -49q0 -41 -24 -92h-69q19 49 19 82q0 29 -11 59zM85 0v401q0 22 -22 22h-41v83h93q64 0 64 -56v-19l-2 -29h2q20 43 68.5 79.5t122.5 36.5q173 0 173 -194v-219q0 -22 22 -22h41v-83h-96q-34 0 -49 15t-15 49v238q0 61 -19.5 94t-75.5 33
q-57 0 -100.5 -34.5t-59.5 -89.5q-9 -26 -9 -68v-237h-97z" />
    <glyph glyph-name="Ncaron" unicode="&#x147;" horiz-adv-x="757" 
d="M344 755l-88 127h79l52 -81h2l52 81h80l-88 -127h-89zM34 0v86h43q22 0 22 22v598h91l314 -447l59 -96h2q-7 57 -7 96v383q0 34 15.5 49t49.5 15h100v-86h-43q-22 0 -22 -22v-598h-90l-315 447l-58 96h-2q6 -57 6 -96v-383q0 -34 -15 -49t-49 -15h-101z" />
    <glyph glyph-name="ncaron" unicode="&#x148;" horiz-adv-x="623" 
d="M278 580l-88 127h79l52 -81h2l52 81h80l-88 -127h-89zM85 0v401q0 22 -22 22h-41v83h93q64 0 64 -56v-19l-2 -29h2q20 43 68.5 79.5t122.5 36.5q173 0 173 -194v-219q0 -22 22 -22h41v-83h-96q-34 0 -49 15t-15 49v238q0 61 -19.5 94t-75.5 33q-57 0 -100.5 -34.5
t-59.5 -89.5q-9 -26 -9 -68v-237h-97z" />
    <glyph glyph-name="napostrophe" unicode="&#x149;" horiz-adv-x="623" 
d="M-33 706h79q6 -27 6 -49q0 -41 -24 -92h-69q19 49 19 82q0 29 -11 59zM85 0v401q0 22 -22 22h-41v83h93q64 0 64 -56v-19l-2 -29h2q20 43 68.5 79.5t122.5 36.5q173 0 173 -194v-219q0 -22 22 -22h41v-83h-96q-34 0 -49 15t-15 49v238q0 61 -19.5 94t-75.5 33
q-57 0 -100.5 -34.5t-59.5 -89.5q-9 -26 -9 -68v-237h-97z" />
    <glyph glyph-name="Eng" unicode="&#x14a;" horiz-adv-x="757" 
d="M34 0v86h43q22 0 22 22v598h91l314 -447l59 -96h2q-7 57 -7 96v383q0 34 15.5 49t49.5 15h100v-86h-43q-22 0 -22 -22v-571q0 -65 -20.5 -112.5t-55.5 -72.5t-73.5 -36t-82.5 -11v91q49 0 90.5 30.5t41.5 92.5v7l-305 431l-58 96h-2q6 -57 6 -96v-383q0 -34 -15 -49
t-49 -15h-101z" />
    <glyph glyph-name="eng" unicode="&#x14b;" horiz-adv-x="600" 
d="M85 0v401q0 22 -22 22h-41v83h93q64 0 64 -56v-19l-2 -29h2q20 43 68.5 79.5t122.5 36.5q173 0 173 -194v-344q0 -48 -14.5 -84t-35 -55.5t-49 -31.5t-50.5 -15t-45 -3l-34 2v83q9 -1 22 -1q18 0 34 4t34.5 14.5t29.5 34.5t11 59v315q0 61 -19.5 94t-75.5 33
q-57 0 -101 -35t-60 -90q-8 -27 -8 -67v-237h-97z" />
    <glyph glyph-name="Omacron" unicode="&#x14c;" horiz-adv-x="793" 
d="M267 784v68h254v-68h-254zM34 358q0 152 104.5 256t257.5 104t258 -104t105 -256q0 -156 -105 -263t-258 -107t-257.5 107t-104.5 263zM138 358q0 -116 75 -196t183 -80t183.5 80t75.5 196q0 113 -75.5 190t-183.5 77t-183 -77t-75 -190z" />
    <glyph glyph-name="omacron" unicode="&#x14d;" horiz-adv-x="611" 
d="M178 609v68h254v-68h-254zM33 254q0 114 79 189t193 75q115 0 194 -75t79 -189t-79.5 -190t-193.5 -76t-193 76t-79 190zM131 254q0 -78 51 -130t123 -52q73 0 123.5 51.5t50.5 130.5q0 78 -50.5 129t-123.5 51q-72 0 -123 -51t-51 -129z" />
    <glyph glyph-name="Obreve" unicode="&#x14e;" horiz-adv-x="793" 
d="M34 358q0 152 104.5 256t257.5 104t258 -104t105 -256q0 -156 -105 -263t-258 -107t-257.5 107t-104.5 263zM138 358q0 -116 75 -196t183 -80t183.5 80t75.5 196q0 113 -75.5 190t-183.5 77t-183 -77t-75 -190zM393 751q-51 0 -89.5 31t-38.5 86v14h67v-13q0 -30 18 -45
t43 -15q26 0 44 15.5t18 45.5v12h66v-14q0 -55 -38 -86t-90 -31z" />
    <glyph glyph-name="obreve" unicode="&#x14f;" horiz-adv-x="611" 
d="M33 254q0 114 79 189t193 75q115 0 194 -75t79 -189t-79.5 -190t-193.5 -76t-193 76t-79 190zM131 254q0 -78 51 -130t123 -52q73 0 123.5 51.5t50.5 130.5q0 78 -50.5 129t-123.5 51q-72 0 -123 -51t-51 -129zM305 576q-51 0 -89.5 31t-38.5 86v14h67v-13q0 -30 18 -45
t43 -15q26 0 44 15.5t18 45.5v12h66v-14q0 -55 -38 -86t-90 -31z" />
    <glyph glyph-name="Ohungarumlaut" unicode="&#x150;" horiz-adv-x="793" 
d="M428 755l72 127h99l-96 -127h-75zM275 755l69 127h84l-70 -127h-83zM34 358q0 152 104.5 256t257.5 104t258 -104t105 -256q0 -156 -105 -263t-258 -107t-257.5 107t-104.5 263zM138 358q0 -116 75 -196t183 -80t183.5 80t75.5 196q0 113 -75.5 190t-183.5 77t-183 -77
t-75 -190z" />
    <glyph glyph-name="ohungarumlaut" unicode="&#x151;" horiz-adv-x="611" 
d="M340 580l72 127h99l-96 -127h-75zM187 580l69 127h84l-70 -127h-83zM33 254q0 114 79 189t193 75q115 0 194 -75t79 -189t-79.5 -190t-193.5 -76t-193 76t-79 190zM131 254q0 -78 51 -130t123 -52q73 0 123.5 51.5t50.5 130.5q0 78 -50.5 129t-123.5 51q-72 0 -123 -51
t-51 -129z" />
    <glyph glyph-name="OE" unicode="&#x152;" horiz-adv-x="938" 
d="M34 354q0 153 100 257t248 104q29 0 77 -4.5t66 -4.5h290q34 0 49 -15t15 -49v-89h-91v45q0 22 -22 22h-195v-221h241v-86h-241v-227h222q22 0 22 22v45h92v-89q0 -34 -14.5 -49t-46.5 -15h-320q-18 0 -66.5 -4.5t-77.5 -4.5q-148 0 -248 105t-100 258zM139 354
q0 -117 67.5 -193.5t175.5 -76.5q54 0 89 8v522q-35 8 -89 8q-108 0 -175.5 -76t-67.5 -192z" />
    <glyph glyph-name="oe" unicode="&#x153;" horiz-adv-x="988" 
d="M33 252q0 117 78.5 191.5t192.5 74.5q74 0 131 -32t91 -88h2q63 120 209 120q103 0 160.5 -67.5t57.5 -169.5l-3 -41h-370q6 -81 55.5 -124.5t119.5 -43.5q39 0 76 15t55 30l17 15l42 -70q-9 -8 -24.5 -20.5t-66.5 -33t-104 -20.5q-154 0 -222 123h-2q-72 -123 -224 -123
q-114 0 -192.5 73.5t-78.5 190.5zM587 311h268q-3 61 -36 95.5t-83 34.5q-58 0 -98.5 -34t-50.5 -96zM131 252q0 -80 50.5 -130t122.5 -50q73 0 124 50.5t51 132.5q0 79 -51.5 129t-123.5 50t-122.5 -50.5t-50.5 -131.5z" />
    <glyph glyph-name="Racute" unicode="&#x154;" horiz-adv-x="622" 
d="M243 755l73 127h98l-95 -127h-76zM98 0v620h-65v86h309q94 0 152.5 -56t58.5 -151q0 -80 -41 -128.5t-87 -58.5v-2q18 -9 30 -32l85 -169q12 -23 51 -23h13v-86h-49q-44 0 -63 10t-36 43l-96 190q-12 24 -25.5 31t-43.5 7h-93v-281h-100zM198 367h131q57 0 89 34t32 94
q0 59 -32 92t-88 33h-132v-253z" />
    <glyph glyph-name="racute" unicode="&#x155;" horiz-adv-x="376" 
d="M160 580l73 127h98l-95 -127h-76zM85 0v401q0 22 -22 22h-41v83h93q64 0 64 -59v-32l-2 -35h2q19 58 61.5 95t98.5 37l26 -2v-96q-13 3 -28 3q-48 0 -86.5 -31.5t-56.5 -87.5q-12 -39 -12 -91v-207h-97z" />
    <glyph glyph-name="Rcommaaccent" unicode="&#x156;" horiz-adv-x="622" 
d="M296 -59h79q6 -27 6 -49q0 -41 -24 -92h-69q19 49 19 82q0 29 -11 59zM98 0v620h-65v86h309q94 0 152.5 -56t58.5 -151q0 -80 -41 -128.5t-87 -58.5v-2q18 -9 30 -32l85 -169q12 -23 51 -23h13v-86h-49q-44 0 -63 10t-36 43l-96 190q-12 24 -25.5 31t-43.5 7h-93v-281
h-100zM198 367h131q57 0 89 34t32 94q0 59 -32 92t-88 33h-132v-253z" />
    <glyph glyph-name="rcommaaccent" unicode="&#x157;" horiz-adv-x="376" 
d="M98 -59h79q6 -27 6 -49q0 -41 -24 -92h-69q19 49 19 82q0 29 -11 59zM85 0v401q0 22 -22 22h-41v83h93q64 0 64 -59v-32l-2 -35h2q19 58 61.5 95t98.5 37l26 -2v-96q-13 3 -28 3q-48 0 -86.5 -31.5t-56.5 -87.5q-12 -39 -12 -91v-207h-97z" />
    <glyph glyph-name="Rcaron" unicode="&#x158;" horiz-adv-x="622" 
d="M238 755l-88 127h79l52 -81h2l52 81h80l-88 -127h-89zM98 0v620h-65v86h309q94 0 152.5 -56t58.5 -151q0 -80 -41 -128.5t-87 -58.5v-2q18 -9 30 -32l85 -169q12 -23 51 -23h13v-86h-49q-44 0 -63 10t-36 43l-96 190q-12 24 -25.5 31t-43.5 7h-93v-281h-100zM198 367h131
q57 0 89 34t32 94q0 59 -32 92t-88 33h-132v-253z" />
    <glyph glyph-name="rcaron" unicode="&#x159;" horiz-adv-x="376" 
d="M155 580l-88 127h79l52 -81h2l52 81h80l-88 -127h-89zM85 0v401q0 22 -22 22h-41v83h93q64 0 64 -59v-32l-2 -35h2q19 58 61.5 95t98.5 37l26 -2v-96q-13 3 -28 3q-48 0 -86.5 -31.5t-56.5 -87.5q-12 -39 -12 -91v-207h-97z" />
    <glyph glyph-name="Sacute" unicode="&#x15a;" horiz-adv-x="525" 
d="M228 755l73 127h98l-95 -127h-76zM29 93l58 71q3 -3 8.5 -9t24 -20.5t38 -26t49 -20.5t58.5 -9q50 0 85 29t35 76q0 40 -35 70t-85 52t-100 47.5t-85 70t-35 105.5q0 81 63.5 135t162.5 54q43 0 86 -11.5t78.5 -42.5t35.5 -76v-58h-92v33q0 27 -32.5 45.5t-76.5 18.5
q-55 0 -89.5 -27t-34.5 -68q0 -33 25.5 -58.5t63 -41.5t82 -37.5t82 -44t63 -64.5t25.5 -97q0 -84 -61 -142.5t-163 -58.5q-42 0 -82 11t-66 26t-46.5 30.5t-30.5 26.5z" />
    <glyph glyph-name="sacute" unicode="&#x15b;" horiz-adv-x="449" 
d="M187 580l73 127h98l-95 -127h-76zM28 77l49 65q2 -3 7 -8t20.5 -18t32 -23t42.5 -18t52 -8q37 0 62 17t25 48q0 25 -28.5 44t-68.5 34.5t-80.5 34.5t-69 52.5t-28.5 78.5q0 69 53 105.5t135 36.5q59 0 112.5 -23.5t53.5 -74.5v-48h-87v25q0 20 -24.5 31.5t-51.5 11.5
q-44 0 -69.5 -15.5t-25.5 -44.5q0 -26 28.5 -45.5t69.5 -34t81.5 -32.5t69 -51.5t28.5 -80.5q0 -67 -52.5 -107.5t-133.5 -40.5q-38 0 -72.5 9t-57 22t-40 26.5t-24.5 22.5z" />
    <glyph glyph-name="Scircumflex" unicode="&#x15c;" horiz-adv-x="525" 
d="M136 755l87 127h89l88 -127h-79l-52 80h-2l-53 -80h-78zM29 93l58 71q3 -3 8.5 -9t24 -20.5t38 -26t49 -20.5t58.5 -9q50 0 85 29t35 76q0 40 -35 70t-85 52t-100 47.5t-85 70t-35 105.5q0 81 63.5 135t162.5 54q43 0 86 -11.5t78.5 -42.5t35.5 -76v-58h-92v33
q0 27 -32.5 45.5t-76.5 18.5q-55 0 -89.5 -27t-34.5 -68q0 -33 25.5 -58.5t63 -41.5t82 -37.5t82 -44t63 -64.5t25.5 -97q0 -84 -61 -142.5t-163 -58.5q-42 0 -82 11t-66 26t-46.5 30.5t-30.5 26.5z" />
    <glyph glyph-name="scircumflex" unicode="&#x15d;" horiz-adv-x="449" 
d="M95 580l87 127h89l88 -127h-79l-52 80h-2l-53 -80h-78zM28 77l49 65q2 -3 7 -8t20.5 -18t32 -23t42.5 -18t52 -8q37 0 62 17t25 48q0 25 -28.5 44t-68.5 34.5t-80.5 34.5t-69 52.5t-28.5 78.5q0 69 53 105.5t135 36.5q59 0 112.5 -23.5t53.5 -74.5v-48h-87v25
q0 20 -24.5 31.5t-51.5 11.5q-44 0 -69.5 -15.5t-25.5 -44.5q0 -26 28.5 -45.5t69.5 -34t81.5 -32.5t69 -51.5t28.5 -80.5q0 -67 -52.5 -107.5t-133.5 -40.5q-38 0 -72.5 9t-57 22t-40 26.5t-24.5 22.5z" />
    <glyph glyph-name="Scedilla" unicode="&#x15e;" horiz-adv-x="526" 
d="M30 93l58 71q3 -3 8.5 -9t23.5 -20.5t37.5 -26t49 -20.5t58.5 -9q51 0 86 29t35 76q0 34 -25.5 61.5t-63 44.5t-82 39t-82 45t-63 63t-25.5 92q0 80 63.5 134.5t162.5 54.5q43 0 86 -11.5t79 -42.5t36 -76v-58h-92v33q0 27 -33 45.5t-76 18.5q-56 0 -90 -27t-34 -68
q0 -33 25.5 -58.5t63 -41.5t82 -37.5t82 -44t63 -64.5t25.5 -97q0 -80 -55.5 -137t-148.5 -63l-8 -39q32 -4 52 -23t20 -50q0 -43 -29.5 -63.5t-72.5 -20.5q-14 0 -28 1.5t-20 3.5l-7 2v58q20 -7 42 -7q48 0 48 31t-53 31l-18 -1l20 78q-58 6 -108 32t-71 48z" />
    <glyph glyph-name="scedilla" unicode="&#x15f;" horiz-adv-x="450" 
d="M28 77l49 65q2 -3 7 -8t20.5 -18t32 -23t42.5 -18t52 -8q37 0 62 17t25 48q0 25 -28.5 44t-68.5 34.5t-80.5 34.5t-69 52.5t-28.5 78.5q0 69 53 105.5t135 36.5q59 0 112.5 -23.5t53.5 -74.5v-48h-87v25q0 20 -24.5 31.5t-51.5 11.5q-44 0 -69.5 -15.5t-25.5 -44.5
q0 -26 28.5 -45.5t69.5 -34t81.5 -32.5t69 -51.5t28.5 -80.5q0 -64 -49 -104t-125 -44l-8 -38q31 -4 51 -23t20 -50q0 -43 -29 -63.5t-73 -20.5q-14 0 -27.5 1.5t-20.5 3.5l-7 2v58q20 -7 43 -7q47 0 47 31t-53 31l-17 -1l20 79q-48 7 -88 28.5t-56 39.5z" />
    <glyph glyph-name="Scaron" unicode="&#x160;" horiz-adv-x="525" 
d="M223 755l-88 127h79l52 -81h2l52 81h80l-88 -127h-89zM29 93l58 71q3 -3 8.5 -9t24 -20.5t38 -26t49 -20.5t58.5 -9q50 0 85 29t35 76q0 40 -35 70t-85 52t-100 47.5t-85 70t-35 105.5q0 81 63.5 135t162.5 54q43 0 86 -11.5t78.5 -42.5t35.5 -76v-58h-92v33
q0 27 -32.5 45.5t-76.5 18.5q-55 0 -89.5 -27t-34.5 -68q0 -33 25.5 -58.5t63 -41.5t82 -37.5t82 -44t63 -64.5t25.5 -97q0 -84 -61 -142.5t-163 -58.5q-42 0 -82 11t-66 26t-46.5 30.5t-30.5 26.5z" />
    <glyph glyph-name="scaron" unicode="&#x161;" horiz-adv-x="449" 
d="M182 580l-88 127h79l52 -81h2l52 81h80l-88 -127h-89zM28 77l49 65q2 -3 7 -8t20.5 -18t32 -23t42.5 -18t52 -8q37 0 62 17t25 48q0 25 -28.5 44t-68.5 34.5t-80.5 34.5t-69 52.5t-28.5 78.5q0 69 53 105.5t135 36.5q59 0 112.5 -23.5t53.5 -74.5v-48h-87v25
q0 20 -24.5 31.5t-51.5 11.5q-44 0 -69.5 -15.5t-25.5 -44.5q0 -26 28.5 -45.5t69.5 -34t81.5 -32.5t69 -51.5t28.5 -80.5q0 -67 -52.5 -107.5t-133.5 -40.5q-38 0 -72.5 9t-57 22t-40 26.5t-24.5 22.5z" />
    <glyph glyph-name="Tcommaaccent" unicode="&#x162;" horiz-adv-x="632" 
d="M266 0v620h-141q-22 0 -22 -22v-45h-90v93q0 34 13 47t47 13h486q34 0 47 -13t13 -47v-93h-89v45q0 22 -22 22h-142v-620h-24l-10 -50q31 -4 51 -23t20 -50q0 -43 -29 -63.5t-72 -20.5q-14 0 -28 1.5t-21 3.5l-7 2v58q20 -7 43 -7q47 0 47 31t-52 31l-18 -1l22 88h-22z
" />
    <glyph glyph-name="tcommaaccent" unicode="&#x163;" horiz-adv-x="328" 
d="M83 185v243h-66v78h68v139h95v-139h122v-78h-122v-232q0 -29 8 -50.5t19.5 -33.5t27 -19t28 -9t25.5 -2l23 2v-86q-14 -2 -34 -2q-28 0 -53 5l-10 -51q32 -4 52 -23t20 -50q0 -43 -29.5 -63.5t-72.5 -20.5q-14 0 -28 1.5t-20 3.5l-7 2v58q20 -7 42 -7q48 0 48 31t-53 31
l-18 -1l27 104q-92 43 -92 169z" />
    <glyph glyph-name="Tcaron" unicode="&#x164;" horiz-adv-x="632" 
d="M272 755l-88 127h79l52 -81h2l52 81h80l-88 -127h-89zM266 0v620h-141q-22 0 -22 -22v-45h-90v93q0 34 13 47t47 13h486q34 0 47 -13t13 -47v-93h-89v45q0 22 -22 22h-142v-620h-100z" />
    <glyph glyph-name="tcaron" unicode="&#x165;" horiz-adv-x="328" 
d="M243 706h79q6 -27 6 -49q0 -41 -24 -92h-69q19 49 19 82q0 29 -11 59zM83 185v243h-66v78h68v139h95v-139h122v-78h-122v-232q0 -29 8 -50.5t19.5 -33.5t27 -19t28 -9t25.5 -2l23 2v-86q-14 -2 -34 -2q-24 0 -46 3t-50 15t-48.5 31.5t-35 55.5t-14.5 84z" />
    <glyph glyph-name="Tbar" unicode="&#x166;" horiz-adv-x="646" 
d="M272 0v310h-154v76h154v234h-141q-22 0 -22 -22v-45h-90v93q0 34 13.5 47t47.5 13h485q34 0 47 -13t13 -47v-93h-89v45q0 22 -22 22h-142v-234h161v-76h-161v-310h-100z" />
    <glyph glyph-name="tbar" unicode="&#x167;" horiz-adv-x="331" 
d="M84 185v74h-66v68h66v101h-66v78h68v139h95v-139h121v-78h-121v-101h121v-68h-121v-66q0 -34 11 -58t29 -34.5t34 -14.5t33 -4l23 2v-86q-13 -2 -34 -2q-23 0 -45 3t-50 15t-48.5 31.5t-35 55.5t-14.5 84z" />
    <glyph glyph-name="Utilde" unicode="&#x168;" horiz-adv-x="720" 
d="M91 247v351q0 22 -22 22h-43v86h100q34 0 49.5 -15t15.5 -49v-391q0 -79 45.5 -124t123.5 -45q77 0 123 45.5t46 124.5v390q0 34 15 49t49 15h101v-86h-43q-22 0 -22 -22v-351q0 -116 -74 -187.5t-194 -71.5q-121 0 -195.5 71.5t-74.5 187.5zM190 756q0 127 103 127
q29 0 52 -17t40.5 -34t35.5 -17q21 0 31 20t10 45h65q0 -127 -103 -127q-29 0 -51.5 17t-40.5 34t-36 17q-21 0 -30.5 -19.5t-9.5 -45.5h-66z" />
    <glyph glyph-name="utilde" unicode="&#x169;" horiz-adv-x="618" 
d="M80 182v219q0 22 -22 22h-41v83h95q34 0 49 -15t15 -47v-240q0 -60 20 -93t75 -33q75 0 120 56t45 135v237h97v-401q0 -22 22 -22h41v-83h-93q-64 0 -64 56v19l1 29h-2q-19 -44 -68.5 -80t-117.5 -36q-86 0 -129 47.5t-43 146.5zM131 581q0 127 103 127q29 0 52 -17
t40.5 -34t35.5 -17q21 0 31 20t10 45h65q0 -127 -103 -127q-29 0 -51.5 17t-40.5 34t-36 17q-21 0 -30.5 -19.5t-9.5 -45.5h-66z" />
    <glyph glyph-name="Umacron" unicode="&#x16a;" horiz-adv-x="720" 
d="M91 247v351q0 22 -22 22h-43v86h100q34 0 49.5 -15t15.5 -49v-391q0 -79 45.5 -124t123.5 -45q77 0 123 45.5t46 124.5v390q0 34 15 49t49 15h101v-86h-43q-22 0 -22 -22v-351q0 -116 -74 -187.5t-194 -71.5q-121 0 -195.5 71.5t-74.5 187.5zM234 784v68h254v-68h-254z
" />
    <glyph glyph-name="umacron" unicode="&#x16b;" horiz-adv-x="618" 
d="M80 182v219q0 22 -22 22h-41v83h95q34 0 49 -15t15 -47v-240q0 -60 20 -93t75 -33q75 0 120 56t45 135v237h97v-401q0 -22 22 -22h41v-83h-93q-64 0 -64 56v19l1 29h-2q-19 -44 -68.5 -80t-117.5 -36q-86 0 -129 47.5t-43 146.5zM174 609v68h254v-68h-254z" />
    <glyph glyph-name="Ubreve" unicode="&#x16c;" horiz-adv-x="720" 
d="M91 247v351q0 22 -22 22h-43v86h100q34 0 49.5 -15t15.5 -49v-391q0 -79 45.5 -124t123.5 -45q77 0 123 45.5t46 124.5v390q0 34 15 49t49 15h101v-86h-43q-22 0 -22 -22v-351q0 -116 -74 -187.5t-194 -71.5q-121 0 -195.5 71.5t-74.5 187.5zM360 751q-51 0 -89.5 31
t-38.5 86v14h67v-13q0 -30 17.5 -45t43.5 -15t44 15.5t18 45.5v12h66v-14q0 -55 -38 -86t-90 -31z" />
    <glyph glyph-name="ubreve" unicode="&#x16d;" horiz-adv-x="618" 
d="M80 182v219q0 22 -22 22h-41v83h95q34 0 49 -15t15 -47v-240q0 -60 20 -93t75 -33q75 0 120 56t45 135v237h97v-401q0 -22 22 -22h41v-83h-93q-64 0 -64 56v19l1 29h-2q-19 -44 -68.5 -80t-117.5 -36q-86 0 -129 47.5t-43 146.5zM300 576q-51 0 -89.5 31t-38.5 86v14h67
v-13q0 -30 17.5 -45t43.5 -15t44 15.5t18 45.5v12h66v-14q0 -55 -38 -86t-90 -31z" />
    <glyph glyph-name="Uring" unicode="&#x16e;" horiz-adv-x="720" 
d="M360 743q-34 0 -57.5 20.5t-23.5 53.5q0 34 23.5 54.5t57.5 20.5q33 0 57 -20.5t24 -54.5q0 -33 -24 -53.5t-57 -20.5zM360 784q15 0 24.5 9.5t9.5 23.5q0 16 -9.5 25.5t-24.5 9.5t-24.5 -9.5t-9.5 -25.5q0 -14 9.5 -23.5t24.5 -9.5zM91 247v351q0 22 -22 22h-43v86h100
q34 0 49.5 -15t15.5 -49v-391q0 -79 45.5 -124t123.5 -45q77 0 123 45.5t46 124.5v390q0 34 15 49t49 15h101v-86h-43q-22 0 -22 -22v-351q0 -116 -74 -187.5t-194 -71.5q-121 0 -195.5 71.5t-74.5 187.5z" />
    <glyph glyph-name="uring" unicode="&#x16f;" horiz-adv-x="618" 
d="M301 568q-34 0 -57.5 20.5t-23.5 53.5q0 34 23.5 54.5t57.5 20.5q33 0 57 -20.5t24 -54.5q0 -33 -24 -53.5t-57 -20.5zM301 609q15 0 24.5 9.5t9.5 23.5q0 16 -9.5 25.5t-24.5 9.5t-24.5 -9.5t-9.5 -25.5q0 -14 9.5 -23.5t24.5 -9.5zM80 182v219q0 22 -22 22h-41v83h95
q34 0 49 -15t15 -47v-240q0 -60 20 -93t75 -33q75 0 120 56t45 135v237h97v-401q0 -22 22 -22h41v-83h-93q-64 0 -64 56v19l1 29h-2q-19 -44 -68.5 -80t-117.5 -36q-86 0 -129 47.5t-43 146.5z" />
    <glyph glyph-name="Uhungarumlaut" unicode="&#x170;" horiz-adv-x="720" 
d="M91 247v351q0 22 -22 22h-43v86h100q34 0 49.5 -15t15.5 -49v-391q0 -79 45.5 -124t123.5 -45q77 0 123 45.5t46 124.5v390q0 34 15 49t49 15h101v-86h-43q-22 0 -22 -22v-351q0 -116 -74 -187.5t-194 -71.5q-121 0 -195.5 71.5t-74.5 187.5zM395 755l72 127h99l-96 -127
h-75zM242 755l69 127h84l-70 -127h-83z" />
    <glyph glyph-name="uhungarumlaut" unicode="&#x171;" horiz-adv-x="618" 
d="M80 182v219q0 22 -22 22h-41v83h95q34 0 49 -15t15 -47v-240q0 -60 20 -93t75 -33q75 0 120 56t45 135v237h97v-401q0 -22 22 -22h41v-83h-93q-64 0 -64 56v19l1 29h-2q-19 -44 -68.5 -80t-117.5 -36q-86 0 -129 47.5t-43 146.5zM335 580l72 127h99l-96 -127h-75z
M182 580l69 127h84l-70 -127h-83z" />
    <glyph glyph-name="Uogonek" unicode="&#x172;" horiz-adv-x="722" 
d="M91 247v351q0 22 -22 22h-43v86h100q34 0 49.5 -15t15.5 -49v-391q0 -79 45.5 -124t123.5 -45q77 0 123 45.5t46 124.5v390q0 34 15 49t49 15h101v-86h-43q-22 0 -22 -22v-355q0 -149 -140 -230q-86 -49 -86 -102q0 -17 14 -27.5t28 -13.5l14 -2l-23 -75q-5 0 -12.5 1.5
t-27.5 7.5t-35.5 15.5t-28 28t-12.5 42.5q0 58 52 100v2q-11 -1 -21 -1q-115 0 -187.5 72t-72.5 186z" />
    <glyph glyph-name="uogonek" unicode="&#x173;" horiz-adv-x="618" 
d="M80 182v219q0 22 -22 22h-41v83h96q39 0 51.5 -18.5t12.5 -64.5v-219q0 -61 19.5 -93.5t74.5 -32.5q75 0 120 56t45 135v237h97v-401q0 -22 22 -22h41v-83q-64 -52 -64 -89q0 -17 14 -27.5t28 -13.5l13 -2l-23 -75q-5 0 -12.5 1.5t-27.5 7.5t-35.5 15.5t-28 28
t-12.5 42.5q0 60 67 111v2h-19q-57 0 -57 55v19l2 29h-3q-2 -5 -6 -12.5t-19.5 -27.5t-34.5 -35.5t-52.5 -28t-72.5 -12.5q-87 0 -130 47t-43 147z" />
    <glyph glyph-name="Wcircumflex" unicode="&#x174;" horiz-adv-x="967" 
d="M357 755l87 127h89l88 -127h-79l-52 80h-2l-53 -80h-78zM220 0l-154 598q-6 22 -35 22h-15v86h58q39 0 58.5 -12t27.5 -46l110 -454l13 -75h2q7 36 17 75l143 510h89l132 -510l15 -75h2q5 37 14 75l110 454q8 34 27 46t59 12h58v-86h-15q-29 0 -35 -22l-154 -598h-117
l-120 446l-20 97h-2q-9 -51 -22 -96l-129 -447h-117z" />
    <glyph glyph-name="wcircumflex" unicode="&#x175;" horiz-adv-x="845" 
d="M291 580l87 127h89l88 -127h-79l-52 80h-2l-53 -80h-78zM194 0l-133 403q-8 20 -32 20h-14v83h61q34 0 50 -11t26 -43l89 -301l12 -54h2q6 28 14 54l109 353h90l109 -353l13 -54h2q5 28 13 54l89 301q10 32 25.5 43t49.5 11h61v-83h-14q-24 0 -31 -20l-133 -403h-109
l-105 325l-14 55h-2q-6 -29 -14 -55l-105 -325h-109z" />
    <glyph glyph-name="Ycircumflex" unicode="&#x176;" horiz-adv-x="606" 
d="M253 0v308l-179 287q-14 25 -43 25h-20v86h46q37 0 56 -10t39 -44l107 -178l43 -79h2q20 40 43 79l106 178q20 34 39 44t56 10h47v-86h-20q-29 0 -44 -25l-178 -287v-308h-100zM171 755l87 127h89l88 -127h-79l-52 80h-2l-53 -80h-78z" />
    <glyph glyph-name="ycircumflex" unicode="&#x177;" horiz-adv-x="543" 
d="M42 -90q0 -1 9 -9.5t27.5 -17.5t37.5 -9q58 0 89 73l23 55l-173 401q-9 20 -31 20h-13v83h57q31 0 46 -10.5t27 -40.5l114 -285l18 -61h2q8 35 17 61l106 285q10 30 26 40.5t47 10.5h58v-83h-13q-23 0 -32 -20l-199 -494q-24 -58 -67 -88.5t-97 -30.5q-33 0 -63 12.5
t-43 25.5l-13 12zM138 580l87 127h89l88 -127h-79l-52 80h-2l-53 -80h-78z" />
    <glyph glyph-name="Ydieresis" unicode="&#x178;" horiz-adv-x="606" 
d="M253 0v308l-179 287q-14 25 -43 25h-20v86h46q37 0 56 -10t39 -44l107 -178l43 -79h2q20 40 43 79l106 178q20 34 39 44t56 10h47v-86h-20q-29 0 -44 -25l-178 -287v-308h-100zM350 781v101h73v-101h-73zM185 781v101h74v-101h-74z" />
    <glyph glyph-name="Zacute" unicode="&#x179;" horiz-adv-x="600" 
d="M270 755l73 127h98l-95 -127h-76zM32 0v66l348 490q12 17 25 33.5t21 24.5l7 7v2q-19 -3 -53 -3h-227q-22 0 -22 -22v-45h-91v89q0 34 15 49t49 15h452v-65l-348 -491q-12 -17 -25.5 -33t-20.5 -23l-7 -8v-2q19 2 53 2h249q22 0 22 22v45h91v-89q0 -34 -15 -49t-49 -15
h-474z" />
    <glyph glyph-name="zacute" unicode="&#x17a;" horiz-adv-x="515" 
d="M224 580l73 127h98l-95 -127h-76zM37 0v56l259 320l41 47v2q-15 -2 -48 -2h-139q-22 0 -22 -22v-34h-89v75q0 34 15.5 49t49.5 15h361v-56l-259 -321l-42 -46v-2q16 2 49 2h161q22 0 22 22v34h89v-75q0 -34 -15 -49t-49 -15h-384z" />
    <glyph glyph-name="Zdotaccent" unicode="&#x17b;" horiz-adv-x="600" 
d="M32 0v66l348 490q12 17 25 33.5t21 24.5l7 7v2q-19 -3 -53 -3h-227q-22 0 -22 -22v-45h-91v89q0 34 15 49t49 15h452v-65l-348 -491q-12 -17 -25.5 -33t-20.5 -23l-7 -8v-2q19 2 53 2h249q22 0 22 22v45h91v-89q0 -34 -15 -49t-49 -15h-474zM266 781v101h87v-101h-87z
" />
    <glyph glyph-name="zdotaccent" unicode="&#x17c;" horiz-adv-x="515" 
d="M37 0v56l259 320l41 47v2q-15 -2 -48 -2h-139q-22 0 -22 -22v-34h-89v75q0 34 15.5 49t49.5 15h361v-56l-259 -321l-42 -46v-2q16 2 49 2h161q22 0 22 22v34h89v-75q0 -34 -15 -49t-49 -15h-384zM220 606v101h87v-101h-87z" />
    <glyph glyph-name="Zcaron" unicode="&#x17d;" horiz-adv-x="600" 
d="M265 755l-88 127h79l52 -81h2l52 81h80l-88 -127h-89zM32 0v66l348 490q12 17 25 33.5t21 24.5l7 7v2q-19 -3 -53 -3h-227q-22 0 -22 -22v-45h-91v89q0 34 15 49t49 15h452v-65l-348 -491q-12 -17 -25.5 -33t-20.5 -23l-7 -8v-2q19 2 53 2h249q22 0 22 22v45h91v-89
q0 -34 -15 -49t-49 -15h-474z" />
    <glyph glyph-name="zcaron" unicode="&#x17e;" horiz-adv-x="515" 
d="M219 580l-88 127h79l52 -81h2l52 81h80l-88 -127h-89zM37 0v56l259 320l41 47v2q-15 -2 -48 -2h-139q-22 0 -22 -22v-34h-89v75q0 34 15.5 49t49.5 15h361v-56l-259 -321l-42 -46v-2q16 2 49 2h161q22 0 22 22v34h89v-75q0 -34 -15 -49t-49 -15h-384z" />
    <glyph glyph-name="longs" unicode="&#x17f;" horiz-adv-x="262" 
d="M85 0v428h-63v78h63v17q0 48 14 83.5t34.5 55t48 31t49.5 15t45 3.5l37 -3v-83q-10 2 -25 2q-17 0 -33 -4t-34 -14t-28.5 -33t-10.5 -56v-520h-97z" />
    <glyph glyph-name="florin" unicode="&#x192;" 
d="M82 30q10 -2 24 -2q17 0 33 4t34.5 14.5t31.5 34t16 58.5l18 211h-75v78h83l8 95q4 48 21.5 83.5t39 55t50 31t51 15t45.5 3.5l37 -3l-8 -83q-10 2 -25 2q-17 0 -33 -4t-34.5 -14.5t-31.5 -34t-16 -58.5l-8 -88h105v-78h-112l-19 -218q-4 -48 -21.5 -83.5t-39 -55
t-50 -31t-50.5 -15t-45 -3.5l-37 2z" />
    <glyph glyph-name="Scommaaccent" unicode="&#x218;" horiz-adv-x="525" 
d="M222 -59h79q6 -27 6 -49q0 -41 -24 -92h-69q19 49 19 82q0 29 -11 59zM29 93l58 71q3 -3 8.5 -9t24 -20.5t38 -26t49 -20.5t58.5 -9q50 0 85 29t35 76q0 40 -35 70t-85 52t-100 47.5t-85 70t-35 105.5q0 81 63.5 135t162.5 54q43 0 86 -11.5t78.5 -42.5t35.5 -76v-58h-92
v33q0 27 -32.5 45.5t-76.5 18.5q-55 0 -89.5 -27t-34.5 -68q0 -33 25.5 -58.5t63 -41.5t82 -37.5t82 -44t63 -64.5t25.5 -97q0 -84 -61 -142.5t-163 -58.5q-42 0 -82 11t-66 26t-46.5 30.5t-30.5 26.5z" />
    <glyph glyph-name="scommaaccent" unicode="&#x219;" horiz-adv-x="449" 
d="M185 -59h79q6 -27 6 -49q0 -41 -24 -92h-69q19 49 19 82q0 29 -11 59zM28 77l49 65q2 -3 7 -8t20.5 -18t32 -23t42.5 -18t52 -8q37 0 62 17t25 48q0 25 -28.5 44t-68.5 34.5t-80.5 34.5t-69 52.5t-28.5 78.5q0 69 53 105.5t135 36.5q59 0 112.5 -23.5t53.5 -74.5v-48h-87
v25q0 20 -24.5 31.5t-51.5 11.5q-44 0 -69.5 -15.5t-25.5 -44.5q0 -26 28.5 -45.5t69.5 -34t81.5 -32.5t69 -51.5t28.5 -80.5q0 -67 -52.5 -107.5t-133.5 -40.5q-38 0 -72.5 9t-57 22t-40 26.5t-24.5 22.5z" />
    <glyph glyph-name="uni021A" unicode="&#x21a;" horiz-adv-x="632" 
d="M273 -59h79q6 -27 6 -49q0 -41 -24 -92h-69q19 49 19 82q0 29 -11 59zM266 0v620h-141q-22 0 -22 -22v-45h-90v93q0 34 13 47t47 13h486q34 0 47 -13t13 -47v-93h-89v45q0 22 -22 22h-142v-620h-100z" />
    <glyph glyph-name="uni021B" unicode="&#x21b;" horiz-adv-x="328" 
d="M151 -59h79q6 -27 6 -49q0 -41 -24 -92h-69q19 49 19 82q0 29 -11 59zM83 185v243h-66v78h68v139h95v-139h122v-78h-122v-232q0 -29 8 -50.5t19.5 -33.5t27 -19t28 -9t25.5 -2l23 2v-86q-14 -2 -34 -2q-24 0 -46 3t-50 15t-48.5 31.5t-35 55.5t-14.5 84z" />
    <glyph glyph-name="circumflex" unicode="&#x2c6;" horiz-adv-x="485" 
d="M111 755l87 127h89l88 -127h-79l-52 80h-2l-53 -80h-78z" />
    <glyph glyph-name="caron" unicode="&#x2c7;" horiz-adv-x="488" 
d="M198 755l-88 127h79l52 -81h2l52 81h80l-88 -127h-89z" />
    <glyph glyph-name="breve" unicode="&#x2d8;" horiz-adv-x="501" 
d="M243 751q-51 0 -89.5 31t-38.5 86v14h67v-13q0 -30 18 -45t43 -15q26 0 44 15.5t18 45.5v12h66v-14q0 -55 -38 -86t-90 -31z" />
    <glyph glyph-name="dotaccent" unicode="&#x2d9;" horiz-adv-x="256" 
d="M84 781v101h87v-101h-87z" />
    <glyph glyph-name="ring" unicode="&#x2da;" horiz-adv-x="380" 
d="M190 743q-34 0 -57.5 20.5t-23.5 53.5q0 34 23.5 54.5t57.5 20.5q33 0 57 -20.5t24 -54.5q0 -33 -24 -53.5t-57 -20.5zM190 784q15 0 24.5 9.5t9.5 23.5q0 16 -9.5 25.5t-24.5 9.5t-24.5 -9.5t-9.5 -25.5q0 -14 9.5 -23.5t24.5 -9.5z" />
    <glyph glyph-name="ogonek" unicode="&#x2db;" horiz-adv-x="361" 
d="M108 -112q0 21 9.5 42.5t23 36t26.5 26.5t23 18l9 6l69 -7q-9 -6 -21.5 -16t-34 -36.5t-21.5 -46.5q0 -17 14 -27.5t28 -13.5l14 -2l-23 -75q-5 0 -12.5 1.5t-27.5 7.5t-35.5 15.5t-28 28t-12.5 42.5z" />
    <glyph glyph-name="tilde" unicode="&#x2dc;" horiz-adv-x="519" 
d="M92 756q0 127 103 127q29 0 52 -17t40.5 -34t35.5 -17q21 0 31 20t10 45h65q0 -127 -103 -127q-29 0 -51.5 17t-40.5 34t-36 17q-21 0 -30.5 -19.5t-9.5 -45.5h-66z" />
    <glyph glyph-name="hungarumlaut" unicode="&#x2dd;" horiz-adv-x="535" 
d="M252 755l72 127h99l-96 -127h-75zM99 755l69 127h84l-70 -127h-83z" />
    <glyph glyph-name="uni0400" unicode="&#x400;" horiz-adv-x="571" 
d="M98 64v556h-65v86h416q34 0 49 -15t15 -49v-89h-92v45q0 22 -22 22h-201v-221h248v-86h-248v-205q0 -22 22 -22h207q22 0 22 22v45h91v-89q0 -34 -15 -49t-49 -15h-313q-34 0 -49.5 15t-15.5 49zM285 755l-95 127h98l73 -127h-76z" />
    <glyph glyph-name="uni0401" unicode="&#x401;" horiz-adv-x="571" 
d="M349 781v101h73v-101h-73zM184 781v101h74v-101h-74zM98 64v556h-65v86h416q34 0 49 -15t15 -49v-89h-92v45q0 22 -22 22h-201v-221h248v-86h-248v-205q0 -22 22 -22h207q22 0 22 22v45h91v-89q0 -34 -15 -49t-49 -15h-313q-34 0 -49.5 15t-15.5 49z" />
    <glyph glyph-name="uni0402" unicode="&#x402;" horiz-adv-x="747" 
d="M231 0v624h-112q-22 0 -22 -22v-49h-83v93q0 34 13.5 47t47.5 13h485v-82h-229v-201l-1 -31h2q84 41 175 41q106 0 163.5 -59t57.5 -155q0 -108 -62 -169.5t-160 -61.5q-9 0 -27 1t-20 1v84q6 -2 34 -2q56 0 96.5 33t40.5 108q0 61 -36 96.5t-107 35.5q-38 0 -77 -10.5
t-59 -20.5l-20 -10v-304h-100z" />
    <glyph glyph-name="uni0403" unicode="&#x403;" horiz-adv-x="514" 
d="M234 755l73 127h98l-95 -127h-76zM98 0v620h-65v86h404q34 0 49 -15t15 -49v-89h-91v45q0 22 -22 22h-190v-620h-100z" />
    <glyph glyph-name="uni0404" unicode="&#x404;" horiz-adv-x="694" 
d="M142 309q12 -101 81.5 -166t170.5 -65q61 0 116 23t80 46l25 23l52 -68q-4 -5 -11.5 -12.5t-34 -27t-56 -34.5t-76.5 -27.5t-97 -12.5q-156 0 -257 107t-101 262q0 154 101 257.5t250 103.5q41 0 85 -8.5t86.5 -25t70 -48t27.5 -71.5v-65h-92v40q0 41 -55 64.5t-117 23.5
q-102 0 -171 -66t-79 -171h370v-82h-368z" />
    <glyph glyph-name="uni0405" unicode="&#x405;" horiz-adv-x="525" 
d="M29 93l58 71q3 -3 8.5 -9t24 -20.5t38 -26t49 -20.5t58.5 -9q50 0 85 29t35 76q0 40 -35 70t-85 52t-100 47.5t-85 70t-35 105.5q0 81 63.5 135t162.5 54q43 0 86 -11.5t78.5 -42.5t35.5 -76v-58h-92v33q0 27 -32.5 45.5t-76.5 18.5q-55 0 -89.5 -27t-34.5 -68
q0 -33 25.5 -58.5t63 -41.5t82 -37.5t82 -44t63 -64.5t25.5 -97q0 -84 -61 -142.5t-163 -58.5q-42 0 -82 11t-66 26t-46.5 30.5t-30.5 26.5z" />
    <glyph glyph-name="uni0406" unicode="&#x406;" horiz-adv-x="315" 
d="M41 0v86h69v534h-69v86h233v-86h-68v-534h68v-86h-233z" />
    <glyph glyph-name="uni0407" unicode="&#x407;" horiz-adv-x="315" 
d="M204 781v101h73v-101h-73zM39 781v101h74v-101h-74zM41 0v86h69v534h-69v86h233v-86h-68v-534h68v-86h-233z" />
    <glyph glyph-name="uni0408" unicode="&#x408;" horiz-adv-x="511" 
d="M16 203v35h100v-27q0 -68 32.5 -98.5t79.5 -30.5q46 0 78 30.5t32 94.5v391q0 22 -22 22h-173v86h230q34 0 49.5 -15t15.5 -49v-439q0 -107 -62 -161t-149 -54t-149 54.5t-62 160.5z" />
    <glyph glyph-name="uni0409" unicode="&#x409;" horiz-adv-x="933" 
d="M10 -7v91q59 6 94 59.5t49 145t14 234.5v97h-66v86h391q34 0 49.5 -15t15.5 -49v-227h124q45 0 84.5 -10.5t73.5 -33t54 -63t20 -95.5q0 -104 -66 -158.5t-170 -54.5h-156q-34 0 -49 15t-15 49v534q0 22 -22 22h-169v-97q0 -82 -4 -145.5t-14 -125t-29 -105.5
t-46.5 -78.5t-68.5 -53.5t-94 -22zM557 106q0 -22 22 -22h103q61 0 94.5 34t33.5 92t-33 89.5t-94 31.5h-126v-225z" />
    <glyph glyph-name="uni040A" unicode="&#x40a;" horiz-adv-x="1002" 
d="M99 0v598q0 22 -22 22h-43v86h101q34 0 49 -15t15 -49v-230h328v294h100v-294h127q96 0 162.5 -48t66.5 -150q0 -104 -66 -159t-169 -55h-157q-34 0 -49 15t-15 49v264h-328v-328h-100zM627 106q0 -22 22 -22h105q59 0 92.5 35t33.5 93q0 54 -33 85t-92 31h-128v-222z
" />
    <glyph glyph-name="uni040B" unicode="&#x40b;" horiz-adv-x="783" 
d="M231 0v624h-112q-22 0 -22 -22v-49h-83v93q0 34 13.5 47t47.5 13h485v-82h-229v-205l-2 -32h2q87 47 182 47q100 0 149.5 -53.5t49.5 -152.5v-124q0 -18 22 -18h43v-86h-100q-34 0 -49.5 15t-15.5 49v143q0 69 -29 103t-92 34q-89 0 -160 -50v-294h-100z" />
    <glyph glyph-name="uni040C" unicode="&#x40c;" horiz-adv-x="612" 
d="M279 755l73 127h98l-95 -127h-76zM99 0v598q0 22 -22 22h-43v86h101q34 0 49 -15t15 -49v-233h67q44 0 58 24l157 273h112l-171 -293q-9 -16 -19 -27.5t-15 -15.5l-6 -3v-2q20 -5 40 -44l106 -212q11 -23 50 -23h19v-86h-55q-43 0 -62.5 10t-35.5 43l-122 245
q-14 26 -63 26h-60v-324h-100z" />
    <glyph glyph-name="uni040D" unicode="&#x40d;" horiz-adv-x="763" 
d="M99 0v598q0 22 -22 22h-43v86h101q34 0 49 -15t15 -49v-387l-6 -101h2q38 64 63 102l308 450h98v-598q0 -22 22 -22h43v-86h-100q-34 0 -49.5 15t-15.5 49v388l6 103h-2q-35 -65 -60 -103l-310 -452h-99zM353 755l-95 127h98l73 -127h-76z" />
    <glyph glyph-name="uni040E" unicode="&#x40e;" horiz-adv-x="622" 
d="M312 739q-61 0 -104.5 34.5t-43.5 93.5v15h78v-14q0 -31 21 -48.5t49 -17.5q29 0 50 17.5t21 49.5v13h77v-15q0 -59 -43 -93.5t-105 -34.5zM82 36l46 74q36 -31 74 -31q31 0 48 19t32 60l-219 440q-11 22 -33 22h-20v86h61q34 0 49.5 -12t31.5 -46l143 -305l37 -87h2
q12 38 30 87l111 305q13 35 29 46.5t54 11.5h54v-86h-16q-25 0 -34 -21l-192 -486q-49 -125 -156 -125q-42 0 -79.5 16.5t-52.5 31.5z" />
    <glyph glyph-name="uni040F" unicode="&#x40f;" horiz-adv-x="740" 
d="M98 64v534q0 22 -22 22h-43v86h101q34 0 49 -15t15 -49v-534q0 -22 22 -22h300q22 0 22 22v534q0 34 15 49t49 15h101v-86h-43q-22 0 -22 -22v-534q0 -34 -15.5 -49t-49.5 -15h-162v-140h-90v140h-162q-34 0 -49.5 15t-15.5 49z" />
    <glyph glyph-name="uni0410" unicode="&#x410;" horiz-adv-x="665" 
d="M12 0v86h14q26 0 33 22l221 598h105l221 -598q7 -22 33 -22h14v-86h-55q-37 0 -53.5 11.5t-29.5 46.5l-53 145h-259l-53 -145q-13 -35 -29.5 -46.5t-53.5 -11.5h-55zM227 287h211l-77 215l-28 99h-2q-15 -62 -27 -99z" />
    <glyph glyph-name="uni0411" unicode="&#x411;" horiz-adv-x="594" 
d="M98 64v556h-65v86h413q34 0 49 -15t15 -49v-89h-91v45q0 22 -22 22h-199v-204h131q99 0 168 -51t69 -154q0 -102 -67 -156.5t-170 -54.5h-166q-34 0 -49.5 15t-15.5 49zM198 106q0 -22 22 -22h115q59 0 93.5 34t34.5 91t-34.5 90t-93.5 33h-137v-226z" />
    <glyph glyph-name="uni0412" unicode="&#x412;" horiz-adv-x="615" 
d="M98 64v556h-65v86h309q91 0 148 -48t57 -132q0 -55 -25 -94t-63 -58v-2q54 -16 85 -63t31 -108q0 -96 -64.5 -148.5t-162.5 -52.5h-185q-34 0 -49.5 15t-15.5 49zM197 409h146q47 0 75 30t28 77t-27.5 75.5t-76.5 28.5h-145v-211zM197 108q0 -22 22 -22h135q55 0 87 33
t32 87t-32.5 87.5t-86.5 33.5h-157v-219z" />
    <glyph glyph-name="uni0413" unicode="&#x413;" horiz-adv-x="514" 
d="M98 0v620h-65v86h404q34 0 49 -15t15 -49v-89h-91v45q0 22 -22 22h-190v-620h-100z" />
    <glyph glyph-name="uni0414" unicode="&#x414;" horiz-adv-x="722" 
d="M10 23q0 34 14.5 48.5t48.5 14.5h16q66 93 87.5 211t21.5 264v59h-64v86h415q34 0 49 -15t15 -49v-556h22q34 0 48.5 -14.5t14.5 -48.5v-163h-92v118q0 22 -21 22h-462q-21 0 -21 -22v-118h-92v163zM193 86h321v512q0 22 -22 22h-198v-65q0 -316 -101 -469z" />
    <glyph glyph-name="uni0415" unicode="&#x415;" horiz-adv-x="571" 
d="M98 64v556h-65v86h416q34 0 49 -15t15 -49v-89h-92v45q0 22 -22 22h-201v-221h248v-86h-248v-205q0 -22 22 -22h207q22 0 22 22v45h91v-89q0 -34 -15 -49t-49 -15h-313q-34 0 -49.5 15t-15.5 49z" />
    <glyph glyph-name="uni0416" unicode="&#x416;" horiz-adv-x="884" 
d="M7 0l188 320q9 16 20.5 27.5t18.5 14.5l6 4v2q-19 7 -39 44l-102 185q-12 23 -50 23h-20v86h50q42 0 60 -10t36 -43l119 -218q10 -17 23.5 -22.5t37.5 -5.5h39v299h96v-299h37q47 0 63 28l119 218q18 33 36 43t60 10h50v-86h-20q-38 0 -51 -23l-101 -185
q-9 -16 -18.5 -27t-14.5 -14l-6 -3v-2q24 -11 44 -46l189 -320h-110l-172 297q-17 29 -57 29h-48v-326h-96v326h-48q-40 0 -57 -29l-172 -297h-110z" />
    <glyph glyph-name="uni0417" unicode="&#x417;" horiz-adv-x="529" 
d="M20 82l59 70q27 -29 71 -52t92 -23q62 0 104 34t42 92q0 55 -37.5 86.5t-93.5 31.5h-84v82h72q51 0 86.5 32.5t35.5 83.5q0 49 -31 79.5t-90 30.5q-46 0 -78.5 -19.5t-32.5 -47.5v-29h-92v55q0 44 35.5 75t81 43t94.5 12q102 0 158 -50.5t56 -133.5q0 -108 -102 -160v-2
q58 -16 91.5 -62.5t33.5 -110.5q0 -93 -68.5 -152t-178.5 -59q-72 0 -129.5 27t-94.5 67z" />
    <glyph glyph-name="uni0418" unicode="&#x418;" horiz-adv-x="763" 
d="M99 0v598q0 22 -22 22h-43v86h101q34 0 49 -15t15 -49v-387l-6 -101h2q38 64 63 102l308 450h98v-598q0 -22 22 -22h43v-86h-100q-34 0 -49.5 15t-15.5 49v388l6 103h-2q-35 -65 -60 -103l-310 -452h-99z" />
    <glyph glyph-name="uni0419" unicode="&#x419;" horiz-adv-x="763" 
d="M378 739q-61 0 -104.5 34.5t-43.5 93.5v15h78v-14q0 -31 21 -48.5t49 -17.5q29 0 50 17.5t21 49.5v13h77v-15q0 -59 -43 -93.5t-105 -34.5zM99 0v598q0 22 -22 22h-43v86h101q34 0 49 -15t15 -49v-387l-6 -101h2q38 64 63 102l308 450h98v-598q0 -22 22 -22h43v-86h-100
q-34 0 -49.5 15t-15.5 49v388l6 103h-2q-35 -65 -60 -103l-310 -452h-99z" />
    <glyph glyph-name="uni041A" unicode="&#x41a;" horiz-adv-x="612" 
d="M99 0v598q0 22 -22 22h-43v86h101q34 0 49 -15t15 -49v-233h67q44 0 58 24l157 273h112l-171 -293q-9 -16 -19 -27.5t-15 -15.5l-6 -3v-2q20 -5 40 -44l106 -212q11 -23 50 -23h19v-86h-55q-43 0 -62.5 10t-35.5 43l-122 245q-14 26 -63 26h-60v-324h-100z" />
    <glyph glyph-name="uni041B" unicode="&#x41b;" horiz-adv-x="683" 
d="M10 -5v91q87 12 124 123t37 333v78h-66v86h415q34 0 49 -15t15 -49v-534q0 -22 22 -22h43v-86h-101q-34 0 -49 15t-15 49v534q0 22 -22 22h-196v-79q0 -267 -58 -402.5t-198 -143.5z" />
    <glyph glyph-name="uni041C" unicode="&#x41c;" horiz-adv-x="862" 
d="M23 0v86h33q20 0 22 22l48 598h103l166 -373l35 -90h2q18 51 35 90l166 373h103l48 -598q2 -22 22 -22h34v-86h-89q-34 0 -48 14.5t-17 49.5l-28 373l-2 104h-2q-21 -66 -38 -104l-143 -310h-84l-142 310q-8 16 -17.5 42.5t-15.5 44.5l-5 18h-2q1 -63 -2 -105l-29 -373
q-2 -34 -16.5 -49t-47.5 -15h-89z" />
    <glyph glyph-name="uni041D" unicode="&#x41d;" horiz-adv-x="757" 
d="M99 0v598q0 22 -22 22h-43v86h101q34 0 49 -15t15 -49v-247h359v247q0 34 15.5 49t49.5 15h100v-86h-43q-22 0 -22 -22v-598h-100v310h-359v-310h-100z" />
    <glyph glyph-name="uni041E" unicode="&#x41e;" horiz-adv-x="793" 
d="M34 358q0 152 104.5 256t257.5 104t258 -104t105 -256q0 -156 -105 -263t-258 -107t-257.5 107t-104.5 263zM138 358q0 -116 75 -196t183 -80t183.5 80t75.5 196q0 113 -75.5 190t-183.5 77t-183 -77t-75 -190z" />
    <glyph glyph-name="uni041F" unicode="&#x41f;" horiz-adv-x="745" 
d="M98 0v620h-65v86h549q34 0 49 -15t15 -49v-534q0 -22 22 -22h43v-86h-100q-34 0 -49.5 15t-15.5 49v534q0 22 -22 22h-326v-620h-100z" />
    <glyph glyph-name="uni0420" unicode="&#x420;" horiz-adv-x="585" 
d="M98 0v620h-65v86h311q98 0 160 -60.5t62 -160.5t-62 -162t-160 -62h-146v-261h-100zM198 347h130q63 0 99 37t36 101q0 63 -35.5 99t-98.5 36h-131v-273z" />
    <glyph glyph-name="uni0421" unicode="&#x421;" horiz-adv-x="698" 
d="M35 359q0 153 101.5 256t252.5 103q39 0 82 -8.5t85.5 -25t70 -48t27.5 -71.5v-69h-92v40q0 41 -55 65t-116 24q-108 0 -180 -74t-72 -192q0 -116 73.5 -196.5t181.5 -80.5q39 0 76.5 10t63 24t45 28t29.5 24l9 10l54 -72q-4 -5 -12 -13t-34.5 -28t-56.5 -35.5
t-77.5 -28.5t-97.5 -13q-156 0 -257 106.5t-101 264.5z" />
    <glyph glyph-name="uni0422" unicode="&#x422;" horiz-adv-x="632" 
d="M266 0v620h-141q-22 0 -22 -22v-45h-90v93q0 34 13 47t47 13h486q34 0 47 -13t13 -47v-93h-89v45q0 22 -22 22h-142v-620h-100z" />
    <glyph glyph-name="uni0423" unicode="&#x423;" horiz-adv-x="622" 
d="M82 36l46 74q36 -31 74 -31q31 0 48 19t32 60l-219 440q-11 22 -33 22h-20v86h61q34 0 49.5 -12t31.5 -46l143 -305l37 -87h2q12 38 30 87l111 305q13 35 29 46.5t54 11.5h54v-86h-16q-25 0 -34 -21l-192 -486q-49 -125 -156 -125q-42 0 -79.5 16.5t-52.5 31.5z" />
    <glyph glyph-name="uni0424" unicode="&#x424;" horiz-adv-x="820" 
d="M31 376q0 133 89.5 213t239.5 80v81h100v-81q149 0 238.5 -80.5t89.5 -212.5q0 -135 -89 -216t-239 -81v-91h-100v91q-150 0 -239.5 81t-89.5 216zM460 164q105 0 165 56.5t60 155.5q0 97 -60 152.5t-165 55.5v-420zM134 376q0 -99 60 -155.5t166 -56.5v420
q-106 0 -166 -55.5t-60 -152.5z" />
    <glyph glyph-name="uni0425" unicode="&#x425;" horiz-adv-x="595" 
d="M12 0l222 364l-142 231q-10 16 -19.5 20.5t-27.5 4.5h-25v86h58q38 0 57 -10.5t38 -43.5l79 -134l45 -83h2q20 44 43 83l80 134q19 33 38 43.5t56 10.5h59v-86h-26q-31 0 -46 -25l-143 -231l223 -364h-113l-129 215l-44 80h-2q-21 -42 -43 -81l-128 -214h-112z" />
    <glyph glyph-name="uni0426" unicode="&#x426;" horiz-adv-x="751" 
d="M98 64v534q0 22 -22 22h-43v86h101q34 0 49 -15t15 -49v-534q0 -22 22 -22h323v620h100v-620h19q34 0 48.5 -14.5t14.5 -48.5v-163h-90v118q0 22 -20 22h-452q-34 0 -49.5 15t-15.5 49z" />
    <glyph glyph-name="uni0427" unicode="&#x427;" horiz-adv-x="651" 
d="M296 270q-109 0 -163 53.5t-54 152.5v122q0 22 -22 22h-43v86h101q34 0 49 -15t15 -49v-144q0 -69 33 -103t107 -34q86 0 150 48v297h100v-706h-100v286l2 33h-2q-88 -49 -173 -49z" />
    <glyph glyph-name="uni0428" unicode="&#x428;" horiz-adv-x="1015" 
d="M98 64v534q0 22 -22 22h-43v86h101q34 0 49 -15t15 -49v-534q0 -22 22 -22h237v620h100v-620h238q22 0 22 22v534q0 34 15 49t49 15h101v-86h-43q-22 0 -22 -22v-534q0 -34 -15.5 -49t-49.5 -15h-689q-34 0 -49.5 15t-15.5 49z" />
    <glyph glyph-name="uni0429" unicode="&#x429;" horiz-adv-x="1029" 
d="M98 64v534q0 22 -22 22h-43v86h101q34 0 49 -15t15 -49v-534q0 -22 22 -22h237v620h100v-620h259v620h100v-620h28q34 0 48.5 -14.5t14.5 -48.5v-163h-90v118q0 22 -20 22h-734q-34 0 -49.5 15t-15.5 49z" />
    <glyph glyph-name="uni042A" unicode="&#x42a;" horiz-adv-x="734" 
d="M245 64v556h-120q-22 0 -22 -22v-45h-89v93q0 34 13 47t47 13h336v-86h-65v-184h143q99 0 162.5 -54.5t63.5 -161.5t-68 -163.5t-174 -56.5h-163q-34 0 -49 15t-15 49zM345 108q0 -22 22 -22h111q61 0 97 35t36 98t-35.5 97t-97.5 34h-133v-242z" />
    <glyph glyph-name="uni042B" unicode="&#x42b;" horiz-adv-x="855" 
d="M656 64v642h100v-598q0 -22 22 -22h43v-86h-101q-34 0 -49 15t-15 49zM98 64v534q0 22 -22 22h-43v86h101q34 0 49 -15t15 -49v-202h135q98 0 161.5 -55t63.5 -160q0 -110 -67 -167.5t-174 -57.5h-154q-34 0 -49.5 15t-15.5 49zM198 108q0 -22 22 -22h103q61 0 96.5 36
t35.5 100q0 63 -35.5 97.5t-96.5 34.5h-125v-246z" />
    <glyph glyph-name="uni042C" unicode="&#x42c;" horiz-adv-x="583" 
d="M98 64v534q0 22 -22 22h-43v86h101q34 0 49 -15t15 -49v-202h139q99 0 162 -54.5t63 -160.5q0 -110 -67 -167.5t-174 -57.5h-158q-34 0 -49.5 15t-15.5 49zM198 108q0 -22 22 -22h107q61 0 96.5 36.5t35.5 101.5q0 62 -35 96t-97 34h-129v-246z" />
    <glyph glyph-name="uni042D" unicode="&#x42d;" horiz-adv-x="695" 
d="M28 97l52 70q27 -30 89 -59.5t133 -29.5q102 0 172 66t80 167h-364v82h364q-7 103 -75.5 169t-171.5 66q-63 0 -119.5 -23.5t-56.5 -64.5v-40h-92v65q0 68 81.5 110.5t184.5 42.5q158 0 256.5 -101.5t98.5 -254.5q0 -157 -101 -265.5t-257 -108.5q-88 0 -162.5 34.5
t-111.5 74.5z" />
    <glyph glyph-name="uni042E" unicode="&#x42e;" horiz-adv-x="1057" 
d="M99 0v598q0 22 -22 22h-43v86h101q34 0 49 -15t15 -49v-247h120q11 139 110.5 231t238.5 92q150 0 252.5 -104t102.5 -256q0 -156 -102.5 -263t-252.5 -107q-137 0 -235 91.5t-112 230.5h-122v-310h-100zM418 358q0 -116 73 -196t177 -80q105 0 178 80t73 196
q0 113 -73 190t-178 77q-104 0 -177 -77t-73 -190z" />
    <glyph glyph-name="uni042F" unicode="&#x42f;" horiz-adv-x="623" 
d="M19 0v86h13q38 0 51 23l93 157q7 11 16 19.5t14 11.5l6 3v2q-7 0 -22.5 5.5t-37.5 20t-41.5 35t-33.5 55t-14 76.5q0 97 64 154.5t165 57.5h298v-86h-65v-620h-100v271h-84q-29 0 -43 -7.5t-29 -34.5l-103 -175q-19 -33 -37.5 -43.5t-60.5 -10.5h-49zM303 357h122v263
h-122q-63 0 -100 -34.5t-37 -95.5t38.5 -97t98.5 -36z" />
    <glyph glyph-name="uni0430" unicode="&#x430;" horiz-adv-x="529" 
d="M28 138q0 177 306 177h22v7q0 64 -26.5 91.5t-85.5 27.5q-28 0 -55.5 -8.5t-27.5 -30.5v-29h-92v51q0 28 20 48.5t50.5 29.5t55.5 12.5t47 3.5q117 0 164 -52t47 -146v-215q0 -22 22 -22h41v-83h-92q-62 0 -62 58l1 30h-2q1 0 -4.5 -10.5t-18 -25t-30.5 -29t-47 -25
t-63 -10.5q-70 0 -120 40.5t-50 109.5zM125 147q0 -33 25 -57.5t70 -24.5q60 0 98 50t38 111v19h-26q-205 0 -205 -98z" />
    <glyph glyph-name="uni0431" unicode="&#x431;" horiz-adv-x="569" 
d="M288 -12q-66 0 -114 24.5t-75.5 68t-40.5 97.5t-13 120q0 131 37 207t135 119l111 49q35 15 46.5 25.5t11.5 27.5v24h94v-44q0 -46 -22.5 -66.5t-81.5 -43.5l-119 -51q-116 -50 -119 -179h1q61 94 176 94q96 0 156.5 -63.5t60.5 -169.5q0 -108 -68.5 -173.5t-175.5 -65.5
zM147 227q0 -72 41 -114t102 -42t101.5 41.5t40.5 112.5q0 72 -40 113t-100 41q-64 0 -104.5 -43t-40.5 -109z" />
    <glyph glyph-name="uni0432" unicode="&#x432;" horiz-adv-x="519" 
d="M83 55v368h-63v83h272q78 0 123 -33.5t45 -96.5q0 -81 -71 -110v-2q46 -10 71 -43.5t25 -76.5q0 -69 -50.5 -106.5t-135.5 -37.5h-160q-30 0 -43 13t-13 42zM180 293h95q42 0 64.5 20t22.5 54q0 71 -90 71h-92v-145zM180 89q0 -20 19 -20h84q103 0 103 80q0 38 -27 58.5
t-76 20.5h-103v-139z" />
    <glyph glyph-name="uni0433" unicode="&#x433;" horiz-adv-x="439" 
d="M85 0v423h-63v83h335q35 0 50 -14t15 -48v-77h-81v34q0 22 -22 22h-137v-423h-97z" />
    <glyph glyph-name="uni0434" unicode="&#x434;" horiz-adv-x="590" 
d="M10 18q0 33 14 48t47 15h8q84 97 84 319v23h-62v83h335q34 0 49 -15t15 -49v-361h16q33 0 47 -15t14 -48v-138h-89v98q0 22 -21 22h-347q-21 0 -21 -22v-98h-89v138zM177 81h226v320q0 22 -22 22h-126v-22q0 -221 -78 -320z" />
    <glyph glyph-name="uni0435" unicode="&#x435;" horiz-adv-x="539" 
d="M33 253q0 119 72 192t182 73q103 0 160.5 -67t57.5 -170q0 -19 -3 -38h-369q4 -80 54 -125.5t121 -45.5q82 0 149 59l41 -71q-36 -33 -89.5 -52.5t-106.5 -19.5q-118 0 -193.5 75.5t-75.5 189.5zM137 307h271q-2 64 -36.5 99.5t-86.5 35.5q-57 0 -97.5 -36t-50.5 -99z
" />
    <glyph glyph-name="uni0436" unicode="&#x436;" horiz-adv-x="753" 
d="M16 0l121 208q11 19 25.5 31t23.5 15l9 3v2q-24 7 -40 40l-52 104q-9 20 -45 20h-26v83h60q37 0 54 -8.5t31 -38.5l65 -131q16 -30 58 -30h30v208h94v-208h29q42 0 58 30l65 131q14 30 31 38.5t54 8.5h60v-83h-26q-20 0 -29.5 -4t-15.5 -16l-52 -104q-7 -15 -17 -25
t-17 -12l-6 -3v-2q33 -7 58 -49l122 -208h-113l-100 176q-24 40 -71 40h-30v-216h-94v216h-30q-47 0 -72 -40l-99 -176h-113z" />
    <glyph glyph-name="uni0437" unicode="&#x437;" horiz-adv-x="441" 
d="M23 62l46 64q59 -59 134 -59q45 0 75 21.5t30 62.5q0 76 -103 76h-64v67h51q99 0 99 77q0 37 -24 55.5t-64 18.5q-31 0 -56.5 -12.5t-25.5 -36.5v-23h-81v47q0 48 50 73t121 25q82 0 130 -35.5t48 -101.5q0 -44 -21.5 -73t-53.5 -41v-2q40 -10 65.5 -41t25.5 -79
q0 -74 -56.5 -115.5t-139.5 -41.5q-107 0 -186 74z" />
    <glyph glyph-name="uni0438" unicode="&#x438;" horiz-adv-x="619" 
d="M84 0v401q0 22 -21 22h-40v83h89q34 0 49 -14.5t15 -48.5v-241q0 -50 -4 -70h2q10 20 47 70l218 304h96v-401q0 -22 21 -22h40v-83h-89q-34 0 -49 15t-15 49v240q0 39 4 71h-2q-8 -19 -47 -71l-218 -304h-96z" />
    <glyph glyph-name="uni0439" unicode="&#x439;" horiz-adv-x="619" 
d="M84 0v401q0 22 -21 22h-40v83h89q34 0 49 -14.5t15 -48.5v-241q0 -50 -4 -70h2q10 20 47 70l218 304h96v-401q0 -22 21 -22h40v-83h-89q-34 0 -49 15t-15 49v240q0 39 4 71h-2q-8 -19 -47 -71l-218 -304h-96zM308 564q-61 0 -104.5 34.5t-43.5 93.5v15h78v-14
q0 -31 21 -48.5t49 -17.5q29 0 50 17.5t21 49.5v13h77v-15q0 -59 -43 -93.5t-105 -34.5z" />
    <glyph glyph-name="uni043A" unicode="&#x43a;" horiz-adv-x="533" 
d="M85 0v401q0 22 -22 22h-41v83h96q34 0 49 -15t15 -49v-135h42q38 0 53 23l121 176h109l-139 -201q-10 -14 -19.5 -23.5t-14.5 -11.5l-4 -3v-2q19 -7 38 -38l74 -124q12 -20 44 -20h30v-83h-70q-36 0 -52 9t-32 38l-90 157q-12 20 -49 20h-41v-224h-97z" />
    <glyph glyph-name="uni043B" unicode="&#x43b;" horiz-adv-x="545" 
d="M13 -3v86q32 1 56.5 30t37.5 76t19 96t6 99v39h-63v83h327q34 0 49 -15t15 -49v-337q0 -22 22 -22h41v-83h-95q-34 0 -49.5 15t-15.5 49v337q0 22 -22 22h-116v-40q0 -37 -3 -73.5t-10.5 -83t-23 -85.5t-37.5 -72.5t-57.5 -52.5t-80.5 -19z" />
    <glyph glyph-name="uni043C" unicode="&#x43c;" horiz-adv-x="727" 
d="M19 0v83h26q18 0 19 19l35 404h106l132 -290l26 -63h1q14 33 27 63l131 290h106l35 -404q1 -19 19 -19h26v-83h-74q-30 0 -41.5 13t-13.5 42l-19 239l-2 90h-2q-12 -37 -30 -76l-118 -247h-92l-116 247l-29 77h-2q0 -60 -2 -91l-19 -239q-2 -29 -13.5 -42t-41.5 -13h-74z
" />
    <glyph glyph-name="uni043D" unicode="&#x43d;" horiz-adv-x="620" 
d="M85 0v401q0 22 -22 22h-41v83h96q34 0 49 -15t15 -49v-143h256v207h97v-401q0 -22 22 -22h40v-83h-95q-34 0 -49 15t-15 49v154h-256v-218h-97z" />
    <glyph glyph-name="uni043E" unicode="&#x43e;" horiz-adv-x="611" 
d="M33 254q0 114 79 189t193 75q115 0 194 -75t79 -189t-79.5 -190t-193.5 -76t-193 76t-79 190zM131 254q0 -78 51 -130t123 -52q73 0 123.5 51.5t50.5 130.5q0 78 -50.5 129t-123.5 51q-72 0 -123 -51t-51 -129z" />
    <glyph glyph-name="uni043F" unicode="&#x43f;" horiz-adv-x="607" 
d="M85 0v423h-63v83h437q34 0 49 -15t15 -49v-337q0 -22 22 -22h41v-83h-96q-34 0 -49 15t-15 49v337q0 22 -22 22h-222v-423h-97z" />
    <glyph glyph-name="uni0440" unicode="&#x440;" horiz-adv-x="601" 
d="M85 -200v601q0 22 -22 22h-41v83h91q62 0 62 -51l-1 -27h2q2 4 5.5 10t17.5 21.5t31.5 27.5t48 21.5t65.5 9.5q102 0 162.5 -73t60.5 -192t-64.5 -192t-165.5 -73q-31 0 -58.5 8.5t-44.5 20t-29.5 23.5t-17.5 20l-5 9h-2q2 -18 2 -44v-225h-97zM179 251
q0 -73 38.5 -126.5t105.5 -53.5q62 0 103.5 49t41.5 132q0 82 -39.5 131.5t-103.5 49.5q-62 0 -104 -45.5t-42 -136.5z" />
    <glyph glyph-name="uni0441" unicode="&#x441;" horiz-adv-x="530" 
d="M33 253q0 113 75.5 189t196.5 76q26 0 55 -5.5t58.5 -17.5t49 -35t19.5 -53v-52h-88v28q0 25 -30.5 38.5t-63.5 13.5q-75 0 -124.5 -50.5t-49.5 -130.5q0 -83 52 -131.5t127 -48.5q42 0 81.5 17.5t57.5 34.5l18 18l41 -69q-3 -4 -8.5 -9.5t-25 -20.5t-41.5 -26.5t-57 -21
t-73 -9.5q-119 0 -194.5 75t-75.5 190z" />
    <glyph glyph-name="uni0442" unicode="&#x442;" horiz-adv-x="532" 
d="M218 0v423h-98q-22 0 -22 -22v-34h-80v77q0 33 15 47.5t49 14.5h368q34 0 49 -14.5t15 -47.5v-77h-80v34q0 22 -22 22h-98v-423h-96z" />
    <glyph glyph-name="uni0443" unicode="&#x443;" horiz-adv-x="543" 
d="M122 -210q-33 0 -63 12.5t-43 25.5l-13 12l40 70q1 -3 10 -11t27 -16.5t37 -8.5q58 0 89 73l23 55l-173 401q-9 20 -31 20h-13v83h57q31 0 46 -10.5t27 -40.5l114 -285l18 -61h2q8 35 17 61l106 285q10 30 26 40.5t47 10.5h58v-83h-13q-23 0 -32 -20l-199 -494
q-24 -58 -67 -88.5t-97 -30.5z" />
    <glyph glyph-name="uni0444" unicode="&#x444;" horiz-adv-x="733" 
d="M34 254q0 113 78 182t206 70v95q0 22 -22 22h-41v83h96q34 0 49 -15t15 -49v-136q128 -1 206 -70t78 -182t-78.5 -183t-205.5 -71v-200h-97v200q-127 1 -205.5 71t-78.5 183zM415 79q85 0 135 48.5t50 126.5q0 77 -50 124.5t-135 47.5v-347zM132 254q0 -78 50.5 -126.5
t135.5 -48.5v347q-85 0 -135.5 -47.5t-50.5 -124.5z" />
    <glyph glyph-name="uni0445" unicode="&#x445;" horiz-adv-x="506" 
d="M20 0l171 260l-97 144q-13 19 -42 19h-29v83h62q35 0 52 -9.5t37 -41.5l61 -98l16 -32h2q9 19 17 32l61 98q20 32 37 41.5t52 9.5h62v-83h-29q-29 0 -42 -18l-97 -145l171 -260h-110l-106 165l-16 27h-2q-7 -15 -15 -27l-106 -165h-110z" />
    <glyph glyph-name="uni0446" unicode="&#x446;" horiz-adv-x="606" 
d="M84 63v338q0 22 -22 22h-41v83h96q34 0 49 -15t15 -49v-339q0 -22 21 -22h216v425h97v-425h16q33 0 47.5 -15t14.5 -48v-138h-90v98q0 22 -20 22h-335q-34 0 -49 14.5t-15 48.5z" />
    <glyph glyph-name="uni0447" unicode="&#x447;" horiz-adv-x="541" 
d="M238 176q-79 0 -120.5 39t-41.5 113v73q0 22 -23 22h-36v83h91q35 0 49 -16.5t14 -47.5v-87q0 -44 20.5 -69.5t75.5 -25.5q60 0 113 36v210h97v-506h-97v183l1 32h-1q-59 -39 -142 -39z" />
    <glyph glyph-name="uni0448" unicode="&#x448;" horiz-adv-x="829" 
d="M84 64v337q0 22 -22 22h-41v83h96q34 0 49 -15t15 -49v-339q0 -22 21 -22h163v425h97v-425h165q21 0 21 22v339q0 34 15 49t49 15h96v-83h-41q-22 0 -22 -22v-337q0 -34 -15 -49t-49 -15h-533q-34 0 -49 15t-15 49z" />
    <glyph glyph-name="uni0449" unicode="&#x449;" horiz-adv-x="836" 
d="M84 64v337q0 22 -22 22h-41v83h96q34 0 49 -15t15 -49v-341q0 -22 21 -22h163v427h97v-427h186v427h97v-427h21q33 0 47 -15t14 -48v-136h-89v98q0 22 -22 22h-568q-34 0 -49 15t-15 49z" />
    <glyph glyph-name="uni044A" unicode="&#x44a;" horiz-adv-x="597" 
d="M193 55v351q0 22 -20 22h-56q-21 0 -21 -22v-38h-78v76q0 34 15 48t49 14h144q34 0 49 -15t15 -49v-120h102q87 0 136 -44t49 -118q0 -73 -51 -116.5t-134 -43.5h-143q-30 0 -43 13t-13 42zM290 90q0 -20 19 -20h71q46 0 72.5 25t26.5 66q0 42 -26 66.5t-73 24.5h-90
v-162z" />
    <glyph glyph-name="uni044B" unicode="&#x44b;" horiz-adv-x="724" 
d="M542 64v442h97v-401q0 -22 22 -22h40v-83h-95q-34 0 -49 15t-15 49zM84 55v346q0 22 -22 22h-41v83h96q64 0 64 -58v-127h100q86 0 134 -43.5t48 -117.5q0 -73 -50.5 -116.5t-131.5 -43.5h-142q-29 0 -42 13t-13 42zM181 90q0 -20 19 -20h69q45 0 70.5 25t25.5 66
q0 42 -25 66t-71 24h-88v-161z" />
    <glyph glyph-name="uni044C" unicode="&#x44c;" horiz-adv-x="485" 
d="M84 55v346q0 22 -22 22h-41v83h96q63 0 64 -58v-127h102q85 0 132.5 -43.5t47.5 -117.5q0 -73 -50 -116.5t-130 -43.5h-144q-29 0 -42 13t-13 42zM181 90q0 -20 19 -20h71q44 0 69.5 25t25.5 66q0 42 -24.5 66t-70.5 24h-90v-161z" />
    <glyph glyph-name="uni044D" unicode="&#x44d;" horiz-adv-x="530" 
d="M26 64l38 69q65 -66 160 -66q69 0 118.5 42t58.5 109h-238v68h239q-9 70 -57.5 111.5t-112.5 41.5q-42 0 -77.5 -14.5t-35.5 -38.5v-25h-83v42q0 48 55.5 81.5t142.5 33.5q115 0 189 -75.5t74 -188.5q0 -116 -75.5 -191t-193.5 -75q-123 0 -202 76z" />
    <glyph glyph-name="uni044E" unicode="&#x44e;" horiz-adv-x="829" 
d="M85 0v401q0 22 -22 22h-41v83h96q34 0 49 -15t15 -49v-149h94q11 99 82.5 162t172.5 63q112 0 188.5 -75t76.5 -189t-76.5 -190t-187.5 -76q-101 0 -173.5 64.5t-83.5 164.5h-93v-217h-97zM366 254q0 -79 48 -130.5t118 -51.5t117.5 51.5t47.5 130.5q0 78 -47.5 129
t-117.5 51t-118 -51t-48 -129z" />
    <glyph glyph-name="uni044F" unicode="&#x44f;" horiz-adv-x="524" 
d="M22 0v83h16q33 0 47 20l57 79q12 17 26 26v2q-50 12 -81 48.5t-31 93.5q0 69 47.5 111.5t122.5 42.5h276v-83h-63v-423h-97v184h-56q-20 0 -29.5 -6t-24.5 -28l-74 -103q-23 -31 -38 -39t-52 -8h-46zM257 254h85v185h-88q-48 0 -74.5 -25t-26.5 -67t28.5 -67.5
t75.5 -25.5z" />
    <glyph glyph-name="uni0450" unicode="&#x450;" horiz-adv-x="539" 
d="M33 253q0 119 72 192t182 73q103 0 160.5 -67.5t57.5 -169.5q0 -17 -3 -41h-369q4 -79 54 -123.5t121 -44.5q16 0 31.5 2.5t29 7.5t24.5 9.5t22.5 11.5t17.5 11l15 10l9 7l41 -71q-17 -14 -40 -28t-67.5 -29t-88.5 -15q-118 0 -193.5 75.5t-75.5 189.5zM137 310h271
q-2 63 -36.5 98t-86.5 35q-57 0 -97.5 -35.5t-50.5 -97.5zM261 580l-95 127h98l73 -127h-76z" />
    <glyph glyph-name="uni0451" unicode="&#x451;" horiz-adv-x="539" 
d="M327 606v101h73v-101h-73zM162 606v101h74v-101h-74zM33 253q0 119 72 192t182 73q103 0 160.5 -67.5t57.5 -169.5q0 -17 -3 -41h-369q4 -79 54 -123.5t121 -44.5q16 0 31.5 2.5t29 7.5t24.5 9.5t22.5 11.5t17.5 11l15 10l9 7l41 -71q-17 -14 -40 -28t-67.5 -29
t-88.5 -15q-118 0 -193.5 75.5t-75.5 189.5zM137 310h271q-2 63 -36.5 98t-86.5 35q-57 0 -97.5 -35.5t-50.5 -97.5z" />
    <glyph glyph-name="uni0452" unicode="&#x452;" horiz-adv-x="584" 
d="M67 0v553h-63v71h63v82h97v-82h206v-71h-206v-164l-2 -42h2q21 45 64.5 79t111.5 34q90 0 137.5 -49t47.5 -145v-287q0 -59 -20.5 -99.5t-54 -58.5t-61.5 -24.5t-58 -6.5l-34 3v83q9 -2 22 -2q18 0 34 4t34.5 14.5t29.5 34.5t11 59v258q0 126 -107 126q-56 0 -94.5 -33.5
t-54.5 -90.5q-8 -27 -8 -67v-179h-97z" />
    <glyph glyph-name="uni0453" unicode="&#x453;" horiz-adv-x="439" 
d="M186 580l73 127h98l-95 -127h-76zM85 0v423h-63v83h335q35 0 50 -14t15 -48v-77h-81v34q0 22 -22 22h-137v-423h-97z" />
    <glyph glyph-name="uni0454" unicode="&#x454;" horiz-adv-x="529" 
d="M33 253q0 113 75.5 189t196.5 76q26 0 55 -5.5t58.5 -17.5t49 -35t19.5 -53v-46h-83v26q0 24 -33 38.5t-70 14.5q-69 0 -117 -41t-56 -110h243v-68h-243q9 -70 59 -112t119 -42q45 0 86 16.5t60 33.5l18 17l38 -67l-8.5 -8.5t-25 -19t-41.5 -24t-57 -19t-73 -8.5
q-119 0 -194.5 75t-75.5 190z" />
    <glyph glyph-name="uni0455" unicode="&#x455;" horiz-adv-x="449" 
d="M28 77l49 65q2 -3 7 -8t20.5 -18t32 -23t42.5 -18t52 -8q37 0 62 17t25 48q0 25 -28.5 44t-68.5 34.5t-80.5 34.5t-69 52.5t-28.5 78.5q0 69 53 105.5t135 36.5q59 0 112.5 -23.5t53.5 -74.5v-48h-87v25q0 20 -24.5 31.5t-51.5 11.5q-44 0 -69.5 -15.5t-25.5 -44.5
q0 -26 28.5 -45.5t69.5 -34t81.5 -32.5t69 -51.5t28.5 -80.5q0 -67 -52.5 -107.5t-133.5 -40.5q-38 0 -72.5 9t-57 22t-40 26.5t-24.5 22.5z" />
    <glyph glyph-name="uni0456" unicode="&#x456;" horiz-adv-x="265" 
d="M86 605v101h87v-101h-87zM84 64v337q0 22 -22 22h-41v83h95q34 0 49.5 -15t15.5 -49v-337q0 -22 22 -22h41v-83h-96q-34 0 -49 15t-15 49z" />
    <glyph glyph-name="uni0457" unicode="&#x457;" horiz-adv-x="265" 
d="M156 605v101h73v-101h-73zM16 605v101h74v-101h-74zM84 64v337q0 22 -22 22h-41v83h95q34 0 49.5 -15t15.5 -49v-337q0 -22 22 -22h41v-83h-96q-34 0 -49 15t-15 49z" />
    <glyph glyph-name="uni0458" unicode="&#x458;" horiz-adv-x="245" 
d="M86 605v101h87v-101h-87zM84 -11v412q0 22 -22 22h-41v83h96q34 0 49 -15t15 -49v-459q0 -48 -14.5 -84t-35 -55.5t-49 -31.5t-50.5 -15t-45 -3l-34 2v83q9 -1 22 -1q18 0 34 4t34.5 14t29.5 34t11 59z" />
    <glyph glyph-name="uni0459" unicode="&#x459;" horiz-adv-x="742" 
d="M10 -4v86q33 1 58 30t39 76t21 97.5t7 102.5v35h-63v83h299q64 0 64 -58v-130h100q89 0 138 -42.5t49 -117.5q0 -71 -48.5 -114.5t-138.5 -43.5h-142q-29 0 -42 13t-13 42v350q0 22 -22 22h-89v-36q0 -49 -4.5 -96t-18.5 -103.5t-36.5 -98t-63.5 -69.5t-94 -28zM435 90
q0 -20 19 -20h71q48 0 75 24t27 64q0 41 -26.5 65t-76.5 24h-89v-157z" />
    <glyph glyph-name="uni045A" unicode="&#x45a;" horiz-adv-x="819" 
d="M85 0v401q0 22 -22 22h-41v83h96q34 0 49 -15t15 -49v-128h236v192h97v-191h100q86 0 134.5 -42t48.5 -112q0 -75 -50 -118t-133 -43h-142q-29 0 -42 13t-13 42v182h-236v-237h-97zM515 90q0 -20 19 -20h71q47 0 72.5 24t25.5 65q0 39 -25.5 61t-72.5 22h-90v-152z" />
    <glyph glyph-name="uni045B" unicode="&#x45b;" horiz-adv-x="607" 
d="M67 0v553h-63v71h63v82h97v-82h206v-71h-206v-163l-2 -42h2q20 43 69 78t118 35q174 0 174 -194v-162q0 -22 22 -22h41v-83h-96q-34 0 -49 15t-15 49v181q0 61 -19.5 94t-75.5 33q-57 0 -101 -35t-60 -90q-8 -27 -8 -67v-180h-97z" />
    <glyph glyph-name="uni045C" unicode="&#x45c;" horiz-adv-x="533" 
d="M230 580l73 127h98l-95 -127h-76zM85 0v401q0 22 -22 22h-41v83h96q34 0 49 -15t15 -49v-135h42q38 0 53 23l121 176h109l-139 -201q-10 -14 -19.5 -23.5t-14.5 -11.5l-4 -3v-2q19 -7 38 -38l74 -124q12 -20 44 -20h30v-83h-70q-36 0 -52 9t-32 38l-90 157q-12 20 -49 20
h-41v-224h-97z" />
    <glyph glyph-name="uni045D" unicode="&#x45d;" horiz-adv-x="619" 
d="M84 0v401q0 22 -21 22h-40v83h89q34 0 49 -14.5t15 -48.5v-241q0 -50 -4 -70h2q10 20 47 70l218 304h96v-401q0 -22 21 -22h40v-83h-89q-34 0 -49 15t-15 49v240q0 39 4 71h-2q-8 -19 -47 -71l-218 -304h-96zM294 580l-95 127h98l73 -127h-76z" />
    <glyph glyph-name="uni045E" unicode="&#x45e;" horiz-adv-x="543" 
d="M122 -210q-33 0 -63 12.5t-43 25.5l-13 12l40 70q1 -3 10 -11t27 -16.5t37 -8.5q58 0 89 73l23 55l-173 401q-9 20 -31 20h-13v83h57q31 0 46 -10.5t27 -40.5l114 -285l18 -61h2q8 35 17 61l106 285q10 30 26 40.5t47 10.5h58v-83h-13q-23 0 -32 -20l-199 -494
q-24 -58 -67 -88.5t-97 -30.5zM274 564q-61 0 -104.5 34.5t-43.5 93.5v15h78v-14q0 -31 21 -48.5t49 -17.5q29 0 50 17.5t21 49.5v13h77v-15q0 -59 -43 -93.5t-105 -34.5z" />
    <glyph glyph-name="uni045F" unicode="&#x45f;" horiz-adv-x="591" 
d="M84 63v338q0 22 -22 22h-41v83h96q34 0 49 -15t15 -49v-339q0 -22 21 -22h187q21 0 21 22v339q0 34 15.5 49t49.5 15h95v-83h-41q-22 0 -22 -22v-338q0 -34 -14.5 -48.5t-48.5 -14.5h-105v-120h-87v120h-104q-34 0 -49 14.5t-15 48.5z" />
    <glyph glyph-name="uni0462" unicode="&#x462;" horiz-adv-x="679" 
d="M188 64v461h-176v87h176v94h100v-94h194v-87h-194v-111h141q98 0 164.5 -49.5t66.5 -149.5q0 -104 -67 -159.5t-164 -55.5h-176q-34 0 -49.5 15t-15.5 49zM288 106q0 -22 22 -22h117q59 0 94.5 34t35.5 95q0 57 -35.5 87t-94.5 30h-139v-224z" />
    <glyph glyph-name="uni0463" unicode="&#x463;" horiz-adv-x="537" 
d="M131 55v404h-121v73h121v174h97v-174h165v-73h-165v-134h105q86 0 135.5 -44t49.5 -116q0 -77 -51 -121t-134 -44h-147q-29 0 -42 13t-13 42zM228 90q0 -20 19 -20h74q46 0 72.5 26t26.5 67q0 43 -26 67.5t-73 24.5h-93v-165z" />
    <glyph glyph-name="uni0472" unicode="&#x472;" horiz-adv-x="793" 
d="M34 358q0 153 103.5 256.5t258.5 103.5t259 -103.5t104 -256.5q0 -157 -104 -263.5t-259 -106.5t-258.5 106.5t-103.5 263.5zM396 78q101 0 173 67.5t86 171.5h-517q13 -104 85 -171.5t173 -67.5zM396 629q-101 0 -173.5 -66t-85.5 -167h518q-13 101 -85.5 167t-173.5 66
z" />
    <glyph glyph-name="uni0473" unicode="&#x473;" horiz-adv-x="609" 
d="M32 254q0 113 79 188.5t193 75.5q115 0 194 -75t79 -189t-79 -190t-193 -76t-193.5 76t-79.5 190zM305 66q68 0 118 44.5t60 114.5h-356q10 -71 60 -115t118 -44zM305 440q-67 0 -117 -42.5t-61 -110.5h355q-10 68 -60 110.5t-117 42.5z" />
    <glyph glyph-name="uni0474" unicode="&#x474;" horiz-adv-x="692" 
d="M276 0l-262 706h112l175 -493l27 -97h2q14 59 27 97l140 414q17 51 40 65t78 14h66v-86h-22q-36 0 -49 -8.5t-23 -39.5l-205 -572h-106z" />
    <glyph glyph-name="uni0475" unicode="&#x475;" horiz-adv-x="562" 
d="M210 0l-195 506h106l128 -342l18 -66h2q8 38 18 66l86 249q18 53 45.5 73t81.5 20h52v-84h-26q-32 0 -47 -11t-27 -45l-134 -366h-108z" />
    <glyph glyph-name="uni048A" unicode="&#x48a;" horiz-adv-x="792" 
d="M99 0v598q0 22 -22 22h-43v86h101q34 0 49 -15t15 -49v-387l-6 -101h2q38 64 63 102l308 450h98v-598q0 -22 22 -22h87v-57l-72 -169h-73l40 140h-39q-34 0 -49.5 15t-15.5 49v388l6 103h-2q-35 -65 -60 -103l-310 -452h-99zM388 739q-61 0 -104.5 34.5t-43.5 93.5v15h78
v-14q0 -31 21 -48.5t49 -17.5q29 0 50 17.5t21 49.5v13h77v-15q0 -59 -43 -93.5t-105 -34.5z" />
    <glyph glyph-name="uni048B" unicode="&#x48b;" horiz-adv-x="645" 
d="M84 0v401q0 22 -21 22h-40v83h89q34 0 49 -14.5t15 -48.5v-241q0 -50 -4 -70h2q10 20 47 70l218 304h96v-401q0 -22 21 -22h72v-54l-63 -149h-69l33 120h-22q-34 0 -49 15t-15 49v240q0 39 4 71h-2q-8 -19 -47 -71l-218 -304h-96zM312 564q-61 0 -104.5 34.5t-43.5 93.5
v15h78v-14q0 -31 21 -48.5t49 -17.5q29 0 50 17.5t21 49.5v13h77v-15q0 -59 -43 -93.5t-105 -34.5z" />
    <glyph glyph-name="uni048C" unicode="&#x48c;" horiz-adv-x="661" 
d="M168 64v506h-159v77h158v103h101v-103h183v-77h-183v-140h137q100 0 169 -53t69 -158t-67.5 -162t-165.5 -57h-178q-34 0 -49 15t-15 49zM268 106q0 -22 22 -22h117q61 0 97 36t36 97q0 60 -37.5 94.5t-99.5 34.5h-135v-240z" />
    <glyph glyph-name="uni048D" unicode="&#x48d;" horiz-adv-x="537" 
d="M131 55v404h-121v73h121v174h97v-174h165v-73h-165v-134h105q86 0 135.5 -44t49.5 -116q0 -77 -51 -121t-134 -44h-146q-30 0 -43 13t-13 42zM228 90q0 -20 19 -20h74q46 0 72.5 26t26.5 67q0 43 -26 67.5t-73 24.5h-93v-165z" />
    <glyph glyph-name="uni048E" unicode="&#x48e;" horiz-adv-x="610" 
d="M98 0v620h-65v86h320q98 0 159.5 -60.5t61.5 -160.5q0 -103 -66 -166l61 -81l-54 -44l-66 86q-41 -19 -96 -19h-155v-261h-100zM331 435l56 44l67 -90q26 35 26 90q0 66 -37 103.5t-102 37.5h-143v-282h142q32 0 58 9z" />
    <glyph glyph-name="uni048F" unicode="&#x48f;" horiz-adv-x="612" 
d="M85 -200v601q0 22 -22 22h-41v83h91q62 0 62 -51l-1 -27h2q2 4 5.5 10t17.5 21.5t31.5 27.5t48 21.5t65.5 9.5q102 0 162.5 -73t60.5 -192q0 -114 -60 -187l54 -65l-54 -47l-55 65q-51 -31 -115 -31q-31 0 -58.5 8.5t-44.5 20t-29.5 23.5t-17.5 20l-5 9h-2q2 -18 2 -44
v-225h-97zM327 170l54 47l66 -79q28 48 28 113q0 82 -42 132t-107 50q-62 0 -104.5 -46t-42.5 -137q0 -75 38.5 -129t106.5 -54q40 0 72 19z" />
    <glyph glyph-name="uni0490" unicode="&#x490;" horiz-adv-x="501" 
d="M98 0v620h-65v86h341q22 0 22 22v50h92v-94q0 -34 -15.5 -49t-49.5 -15h-225v-620h-100z" />
    <glyph glyph-name="uni0491" unicode="&#x491;" horiz-adv-x="417" 
d="M85 0v423h-62v83h277q22 0 22 22v45h82v-88q0 -33 -15 -47.5t-49 -14.5h-158v-423h-97z" />
    <glyph glyph-name="uni0492" unicode="&#x492;" horiz-adv-x="512" 
d="M101 0v302h-65v76h65v242h-65v86h395q34 0 49.5 -15t15.5 -49v-89h-92v45q0 22 -22 22h-181v-242h154v-76h-154v-302h-100z" />
    <glyph glyph-name="uni0493" unicode="&#x493;" horiz-adv-x="442" 
d="M23 197v69h62v157h-63v83h335q35 0 50 -14t15 -48v-77h-81v34q0 22 -22 22h-137v-157h129v-69h-129v-197h-97v197h-62z" />
    <glyph glyph-name="uni0494" unicode="&#x494;" horiz-adv-x="606" 
d="M98 0v624h-65v82h412q34 0 48.5 -14t14.5 -48v-81h-83v39q0 22 -22 22h-205v-236q62 29 137 29q241 0 241 -284q0 -159 -67.5 -235t-187.5 -76v81q153 0 153 230q0 105 -38 151.5t-120 46.5q-57 0 -118 -28v-303h-100z" />
    <glyph glyph-name="uni0495" unicode="&#x495;" horiz-adv-x="507" 
d="M85 0v423h-62v83h343q35 0 49.5 -11t14.5 -44v-84h-81v37q0 19 -18 19h-149v-178q54 26 112 26q96 0 141.5 -59.5t45.5 -147.5q0 -175 -150 -271l-48 69q104 62 104 192q0 60 -26.5 98t-86.5 38q-49 0 -92 -26v-164h-97z" />
    <glyph glyph-name="uni0496" unicode="&#x496;" horiz-adv-x="922" 
d="M7 0l188 320q9 16 20.5 27.5t18.5 14.5l6 4v2q-19 7 -39 44l-102 185q-12 23 -50 23h-20v86h50q42 0 60 -10t36 -43l119 -218q10 -17 23.5 -22.5t37.5 -5.5h39v299h96v-299h37q47 0 63 28l119 218q18 33 36 43t60 10h50v-86h-20q-38 0 -51 -23l-101 -185
q-9 -16 -18.5 -27t-14.5 -14l-6 -3v-2q24 -11 44 -46l138 -234h37q34 0 48.5 -14.5t14.5 -48.5v-163h-90v118q0 20 -17 22h-52l-172 297q-17 29 -57 29h-48v-326h-96v326h-48q-40 0 -57 -29l-172 -297h-110z" />
    <glyph glyph-name="uni0497" unicode="&#x497;" horiz-adv-x="781" 
d="M16 0l121 208q11 19 25.5 31t23.5 15l9 3v2q-24 7 -40 40l-52 104q-9 20 -45 20h-26v83h60q37 0 54 -8.5t31 -38.5l65 -131q16 -30 58 -30h30v208h94v-208h29q42 0 58 30l65 131q14 30 31 38.5t54 8.5h60v-83h-26q-20 0 -29.5 -4t-15.5 -16l-52 -104q-7 -15 -17 -25
t-17 -12l-6 -3v-2q33 -7 58 -49l74 -127h23q33 0 47 -15t14 -48v-138h-89v98q0 22 -19 22h-41l-100 176q-24 40 -71 40h-30v-216h-94v216h-30q-47 0 -72 -40l-99 -176h-113z" />
    <glyph glyph-name="uni0498" unicode="&#x498;" horiz-adv-x="530" 
d="M20 82l59 70q27 -29 71 -52t92 -23q62 0 104 34t42 92q0 55 -37.5 86.5t-93.5 31.5h-84v82h72q51 0 86.5 32.5t35.5 83.5q0 49 -31 79.5t-90 30.5q-46 0 -78.5 -19.5t-32.5 -47.5v-29h-92v55q0 44 35.5 75t81 43t94.5 12q102 0 158 -50.5t56 -133.5q0 -108 -102 -160v-2
q58 -16 91.5 -62.5t33.5 -110.5q0 -81 -52.5 -136.5t-139.5 -69.5v-133h-90v130q-117 12 -189 92z" />
    <glyph glyph-name="uni0499" unicode="&#x499;" horiz-adv-x="442" 
d="M23 62l46 64q59 -59 134 -59q45 0 75 21.5t30 62.5q0 76 -103 76h-64v67h51q99 0 99 77q0 37 -24 55.5t-64 18.5q-31 0 -56.5 -12.5t-25.5 -36.5v-23h-81v47q0 48 50 73t121 25q82 0 130 -35.5t48 -101.5q0 -44 -21.5 -73t-53.5 -41v-2q40 -10 65.5 -41t25.5 -79
q0 -61 -39 -100t-102 -51v-114h-87v110q-88 9 -154 72z" />
    <glyph glyph-name="uni049A" unicode="&#x49a;" horiz-adv-x="633" 
d="M99 0v598q0 22 -22 22h-43v86h101q34 0 49 -15t15 -49v-233h67q44 0 58 24l157 273h112l-171 -293q-9 -16 -19 -27.5t-15 -15.5l-6 -3v-2q21 -5 40 -44l117 -235h30q34 0 48 -14.5t14 -48.5v-163h-89v118q0 22 -21 22h-51l-148 298q-12 26 -63 26h-60v-324h-100z" />
    <glyph glyph-name="uni049B" unicode="&#x49b;" horiz-adv-x="538" 
d="M85 0v401q0 22 -22 22h-41v83h96q35 0 49.5 -12.5t14.5 -45.5v-137h45q37 0 53 23l118 172h109l-136 -197q-10 -14 -19.5 -23t-13.5 -12l-5 -2v-2q16 -8 33 -39l88 -150h21q56 0 56 -63v-138h-89v98q0 22 -16 22h-37l-120 208q-11 20 -49 20h-38v-228h-97z" />
    <glyph glyph-name="uni049C" unicode="&#x49c;" horiz-adv-x="698" 
d="M271 202v122h-72v-324h-100v598q0 22 -22 22h-43v86h101q34 0 49 -15t15 -49v-233h72v120h74v-120h10q45 0 58 24l153 273h112l-168 -293q-8 -16 -18 -27.5t-16 -15.5l-6 -3v-2q21 -5 40 -44l103 -212q11 -23 50 -23h20v-86h-56q-43 0 -62.5 10t-35.5 43l-119 245
q-8 16 -22.5 21t-40.5 5h-2v-122h-74z" />
    <glyph glyph-name="uni049D" unicode="&#x49d;" horiz-adv-x="595" 
d="M236 114v114h-54v-228h-97v401q0 22 -22 22h-41v83h95q35 0 50 -12.5t15 -45.5v-136h54v92h70v-92q33 0 47 21l110 173h109l-129 -197q-10 -14 -19 -23t-14 -12l-4 -2v-2q18 -10 34 -41l62 -126q6 -12 15 -16t29 -4h30v-83h-70q-35 0 -51.5 9t-32.5 38l-79 161
q-11 17 -37 19v-113h-70z" />
    <glyph glyph-name="uni049E" unicode="&#x49e;" horiz-adv-x="620" 
d="M20 525v75h82v106h100v-106h94v-75h-94v-116h72q44 0 58 24l156 273h112l-171 -293q-8 -16 -18 -27.5t-16 -15.5l-6 -3v-2q21 -5 40 -44l106 -212q11 -23 50 -23h20v-86h-56q-43 0 -62 10t-36 43l-122 245q-12 26 -63 26h-64v-324h-100v525h-82z" />
    <glyph glyph-name="uni049F" unicode="&#x49f;" horiz-adv-x="524" 
d="M6 528v69h70v109h97v-109h117v-69h-117v-208h45q36 0 52 22l117 164h112l-138 -188q-10 -14 -19.5 -23.5t-13.5 -12.5l-5 -2v-2q17 -6 34 -38l75 -137q11 -20 44 -20h30v-83h-70q-35 0 -51.5 9t-32.5 38l-92 170q-11 21 -50 21h-37v-238h-97v528h-70z" />
    <glyph glyph-name="uni04A0" unicode="&#x4a0;" horiz-adv-x="756" 
d="M246 0v620h-119q-22 0 -22 -22v-45h-92v94q0 33 14 46t48 13h336v-86h-65v-211h64q44 0 58 24l156 273h112l-171 -293q-8 -16 -18 -27.5t-16 -15.5l-6 -3v-2q21 -5 40 -44l106 -212q11 -23 50 -23h20v-86h-56q-43 0 -62 10t-36 43l-122 245q-12 26 -63 26h-56v-324h-100z
" />
    <glyph glyph-name="uni04A1" unicode="&#x4a1;" horiz-adv-x="638" 
d="M194 0v408q0 20 -18 20h-61q-18 0 -18 -20v-40h-79v83q0 33 14.5 44t49.5 11h145q35 0 49.5 -12.5t14.5 -45.5v-141h39q37 0 52 23l120 176h111l-140 -201q-10 -14 -19.5 -23.5t-13.5 -11.5l-5 -3v-2q20 -7 38 -38l75 -124q11 -20 44 -20h29v-83h-70q-35 0 -51.5 9
t-32.5 38l-90 157q-12 20 -48 20h-38v-224h-97z" />
    <glyph glyph-name="uni04A2" unicode="&#x4a2;" horiz-adv-x="781" 
d="M99 0v598q0 22 -22 22h-43v86h101q34 0 49 -15t15 -49v-247h359v247q0 34 15.5 49t49.5 15h100v-86h-43q-22 0 -22 -22v-512h35q34 0 48.5 -14.5t14.5 -48.5v-163h-90v118q0 22 -21 22h-87v310h-359v-310h-100z" />
    <glyph glyph-name="uni04A3" unicode="&#x4a3;" horiz-adv-x="633" 
d="M438 0v219h-256v-219h-97v401q0 22 -22 22h-41v83h96q34 0 49 -15t15 -49v-142h256v206h97v-425h24q32 0 46 -15t14 -48v-138h-89v98q0 22 -18 22h-74z" />
    <glyph glyph-name="uni04A4" unicode="&#x4a4;" horiz-adv-x="941" 
d="M99 0v598q0 22 -22 22h-43v86h101q34 0 49 -15t15 -49v-247h336v225h-65v86h397q34 0 48 -14t14 -48v-91h-92v45q0 22 -22 22h-180v-620h-100v310h-336v-310h-100z" />
    <glyph glyph-name="uni04A5" unicode="&#x4a5;" horiz-adv-x="757" 
d="M85 0v401q0 22 -22 22h-41v83h96q34 0 49 -15t15 -49v-153h232v139h-62v78h323q35 0 49.5 -11t14.5 -44v-80h-80v37q0 20 -19 20h-129v-428h-97v207h-232v-207h-97z" />
    <glyph glyph-name="uni04A6" unicode="&#x4a6;" horiz-adv-x="993" 
d="M99 0v620h-66v86h494q34 0 49 -15t15 -49v-240q62 29 136 29q242 0 242 -294q0 -315 -256 -315v81q153 0 153 234q0 112 -38 162t-120 50q-47 0 -117 -27v-322h-100v598q0 22 -22 22h-270v-620h-100z" />
    <glyph glyph-name="uni04A7" unicode="&#x4a7;" horiz-adv-x="813" 
d="M84 0v423h-57v83h510v-83h-56v-148q54 26 110 26q105 0 153.5 -64.5t48.5 -165.5q0 -179 -150 -278l-48 69q104 67 104 209q0 146 -127 146q-48 0 -91 -24v-193h-97v423h-203v-423h-97z" />
    <glyph glyph-name="uni04A8" unicode="&#x4a8;" horiz-adv-x="907" 
d="M35 364q0 75 23.5 139t62 106.5t80.5 69.5t86 40l34 -90q-76 -26 -131 -94.5t-55 -173.5q0 -118 68.5 -200t192.5 -82q55 0 109 17q-73 55 -114.5 135t-41.5 178q0 137 77 217t183 80q112 0 183 -78t71 -212q0 -91 -46 -174.5t-124 -145.5q49 -14 115 -14h46v-82h-48
q-110 0 -201 39q-100 -51 -210 -51q-159 0 -259.5 103.5t-100.5 272.5zM451 410q0 -88 37.5 -158.5t106.5 -113.5q75 48 120.5 121.5t45.5 155.5q0 99 -43.5 150t-109.5 51q-61 0 -109 -53t-48 -153z" />
    <glyph glyph-name="uni04A9" unicode="&#x4a9;" horiz-adv-x="765" 
d="M33 261q0 101 55.5 166.5t128.5 90.5l33 -79q-51 -20 -88 -67t-37 -113q0 -80 51 -135.5t150 -55.5q43 0 88 12q-121 86 -121 223q0 91 61.5 153t156.5 62q94 0 151 -57t57 -146q0 -129 -125 -231q34 -7 77 -7h54v-77h-50q-87 0 -167 30q-87 -42 -182 -42
q-138 0 -215.5 77t-77.5 196zM386 305q0 -61 31 -109.5t85 -78.5q56 33 90 83t34 110t-31.5 95t-85.5 35q-53 0 -88 -38.5t-35 -96.5z" />
    <glyph glyph-name="uni04AA" unicode="&#x4aa;" horiz-adv-x="698" 
d="M35 359q0 153 101.5 256t252.5 103q39 0 82 -8.5t85.5 -25t70 -48t27.5 -71.5v-69h-92v40q0 41 -55 65t-116 24q-108 0 -180 -74t-72 -192q0 -116 73.5 -196.5t181.5 -80.5q39 0 76.5 10t63 24t45 28t29.5 24l9 10l54 -72q-4 -4 -10.5 -11t-30 -25t-49 -33t-66.5 -29
t-84 -18v-130h-90v132q-137 18 -221.5 120.5t-84.5 246.5z" />
    <glyph glyph-name="uni04AB" unicode="&#x4ab;" horiz-adv-x="532" 
d="M33 253q0 113 75.5 189t196.5 76q26 0 55 -5.5t58.5 -17.5t49 -35t19.5 -53v-52h-88v28q0 25 -30.5 38.5t-63.5 13.5q-75 0 -124.5 -50.5t-49.5 -130.5q0 -83 52 -131.5t127 -48.5q42 0 81.5 17.5t57.5 34.5l18 18l41 -69q-7 -8 -20 -20.5t-57.5 -35.5t-93.5 -29v-110
h-87v113q-98 16 -157.5 87.5t-59.5 172.5z" />
    <glyph glyph-name="uni04AC" unicode="&#x4ac;" horiz-adv-x="636" 
d="M266 0v620h-141q-22 0 -22 -22v-45h-90v93q0 34 13 47t47 13h486q34 0 47 -13t13 -47v-93h-89v45q0 22 -22 22h-142v-534h35q34 0 48 -14.5t14 -48.5v-163h-89v118q0 20 -18 22h-90z" />
    <glyph glyph-name="uni04AD" unicode="&#x4ad;" horiz-adv-x="536" 
d="M218 0v423h-98q-22 0 -22 -22v-34h-80v77q0 33 15 47.5t49 14.5h368q34 0 49 -14.5t15 -47.5v-77h-80v34q0 22 -22 22h-98v-342h26q32 0 46 -15t14 -48v-138h-89v98q0 22 -18 22h-75z" />
    <glyph glyph-name="uni04AE" unicode="&#x4ae;" horiz-adv-x="606" 
d="M253 0v308l-179 287q-14 25 -43 25h-20v86h46q37 0 56 -10t39 -44l107 -178l43 -79h2q20 40 43 79l106 178q20 34 39 44t56 10h47v-86h-20q-29 0 -44 -25l-178 -287v-308h-100z" />
    <glyph glyph-name="uni04AF" unicode="&#x4af;" horiz-adv-x="533" 
d="M219 23l-165 380q-9 20 -31 20h-10v83h50q33 0 49 -11t28 -40l106 -268l20 -62h2q11 35 21 62l105 268q12 30 28 40.5t49 10.5h50v-83h-10q-23 0 -32 -20l-164 -380v-223h-96v223z" />
    <glyph glyph-name="uni04B0" unicode="&#x4b0;" horiz-adv-x="605" 
d="M132 233v73h121v2l-178 287q-15 25 -44 25h-20v86h46q38 0 56.5 -10t38.5 -44l107 -177l43 -80h2q20 40 43 80l106 177q21 34 39.5 44t55.5 10h47v-86h-20q-30 0 -44 -25l-178 -287v-2h119v-73h-119v-233h-100v233h-121z" />
    <glyph glyph-name="uni04B1" unicode="&#x4b1;" horiz-adv-x="534" 
d="M103 0v71h95l-144 332q-9 20 -31 20h-10v83h50q33 0 49 -11t28 -40l106 -268l20 -62h2q11 35 21 62l105 268q12 30 28 40.5t49 10.5h50v-83h-10q-23 0 -32 -20l-144 -332h97v-71h-117v-200h-96v200h-116z" />
    <glyph glyph-name="uni04B2" unicode="&#x4b2;" horiz-adv-x="627" 
d="M12 0l222 364l-142 231q-10 16 -19.5 20.5t-27.5 4.5h-25v86h58q38 0 57 -10.5t38 -43.5l79 -134l45 -83h2q20 44 43 83l80 134q19 33 38 43.5t56 10.5h59v-86h-26q-31 0 -46 -25l-143 -231l170 -278h37q34 0 48 -14.5t14 -48.5v-163h-89v118q0 20 -18 22h-52l-129 215
l-44 80h-2q-21 -42 -43 -81l-128 -214h-112z" />
    <glyph glyph-name="uni04B3" unicode="&#x4b3;" horiz-adv-x="527" 
d="M20 0l171 260l-97 144q-13 19 -42 19h-29v83h62q35 0 52 -9.5t37 -41.5l61 -98l16 -32h2q9 19 17 32l61 98q20 32 37 41.5t52 9.5h62v-83h-29q-29 0 -42 -18l-97 -145l117 -179h25q32 0 46 -15t14 -48v-138h-90v98q0 21 -14 22h-37l-106 165l-16 27h-2q-7 -15 -15 -27
l-106 -165h-110z" />
    <glyph glyph-name="uni04B4" unicode="&#x4b4;" horiz-adv-x="919" 
d="M249 64v556h-124q-22 0 -22 -22v-45h-89v93q0 34 13 47t47 13h446q34 0 47.5 -13t13.5 -47v-93h-86v45q0 22 -22 22h-124v-512q0 -22 22 -22h337v620h100v-620h24q34 0 48 -14.5t14 -48.5v-163h-89v118q0 22 -21 22h-470q-34 0 -49.5 15t-15.5 49z" />
    <glyph glyph-name="uni04B5" unicode="&#x4b5;" horiz-adv-x="746" 
d="M193 63v364h-89q-19 0 -19 -20v-36h-68v79q0 33 14.5 44.5t49.5 11.5h318q35 0 49.5 -11.5t14.5 -44.5v-79h-68v36q0 20 -18 20h-87v-324q0 -22 21 -22h245v425h97v-425h15q33 0 47 -15t14 -48v-138h-89v98q0 22 -21 22h-362q-34 0 -49 14.5t-15 48.5z" />
    <glyph glyph-name="uni04B6" unicode="&#x4b6;" horiz-adv-x="688" 
d="M296 270q-109 0 -163 53.5t-54 152.5v122q0 22 -22 22h-43v86h101q34 0 49 -15t15 -49v-144q0 -69 33 -103t107 -34q86 0 150 48v297h100v-620h35q34 0 48.5 -14t14.5 -49v-163h-89v118q0 20 -18 22h-91v286l2 33h-2q-88 -49 -173 -49z" />
    <glyph glyph-name="uni04B7" unicode="&#x4b7;" horiz-adv-x="575" 
d="M238 176q-79 0 -120.5 39t-41.5 113v73q0 22 -23 22h-36v83h91q35 0 49 -16.5t14 -47.5v-87q0 -44 20.5 -69.5t75.5 -25.5q60 0 113 36v210h97v-425h24q32 0 46 -15t14 -48v-138h-89v98q0 20 -15 22h-77v183l1 32h-1q-59 -39 -142 -39z" />
    <glyph glyph-name="uni04B8" unicode="&#x4b8;" horiz-adv-x="668" 
d="M289 273q-104 0 -157.5 52.5t-53.5 150.5v122q0 22 -22 22h-43v86h101q34 0 49 -15t15 -49v-141q0 -129 114 -138v138h74v-136q72 11 121 45v296h100v-706h-100v287l2 33h-2q-53 -29 -121 -41v-111h-74v105h-3z" />
    <glyph glyph-name="uni04B9" unicode="&#x4b9;" horiz-adv-x="569" 
d="M246 178q-81 0 -126 42t-45 116v65q0 22 -22 22h-37v83h92q63 0 63 -65v-79q0 -42 17.5 -68.5t64.5 -32.5v122h70v-119q46 9 84 32v210h97v-506h-97v187l2 31h-2q-40 -22 -84 -31v-88h-70v79h-7z" />
    <glyph glyph-name="uni04BA" unicode="&#x4ba;" horiz-adv-x="656" 
d="M99 0v598q0 22 -22 22h-43v86h101q34 0 49 -15t15 -49v-197l-2 -33h2q82 46 180 46q102 0 152 -53t50 -153v-144q0 -22 22 -22h43v-86h-101q-34 0 -49 15t-15 49v167q0 69 -30 103t-95 34q-46 0 -89 -14.5t-68 -32.5v-321h-100z" />
    <glyph glyph-name="uni04BB" unicode="&#x4bb;" horiz-adv-x="605" 
d="M67 0v601q0 22 -22 22h-41v83h95q65 0 65 -62v-197l-2 -42h2q20 44 69 78.5t118 34.5q174 0 174 -194v-219q0 -22 22 -22h41v-83h-96q-34 0 -49 15t-15 49v238q0 61 -19.5 94t-75.5 33q-57 0 -101 -35t-60 -90q-8 -27 -8 -67v-237h-97z" />
    <glyph glyph-name="uni04BC" unicode="&#x4bc;" horiz-adv-x="849" 
d="M189 344q-77 0 -121 44t-44 126q0 53 7 83l8 39h91l-9 -40q-7 -32 -7 -73q0 -44 19 -72.5t60 -28.5h4q20 133 108 214.5t213 81.5q134 0 212.5 -88.5t78.5 -239.5l-3 -47h-510q2 -122 72.5 -193t172.5 -71q52 0 104 19.5t74.5 35t36.5 28.5l48 -76q-6 -6 -14.5 -13.5
t-34.5 -24t-55 -28.5t-75 -22t-95 -10q-144 0 -240 99.5t-98 256.5h-3zM298 422h411q0 88 -49 148t-142 60q-91 0 -150 -61t-70 -147z" />
    <glyph glyph-name="uni04BD" unicode="&#x4bd;" horiz-adv-x="657" 
d="M421 -12q-115 0 -189.5 72t-78.5 181q-132 0 -132 149q0 35 11 74h80q-12 -36 -12 -69q0 -83 58 -84q17 95 85 151t163 56q103 0 160.5 -67.5t57.5 -169.5l-2 -41h-370q4 -79 53.5 -123.5t121.5 -44.5q39 0 75.5 15t53.5 30l18 15l42 -70q-8 -8 -24 -20.5t-67 -33
t-104 -20.5zM256 310h270q-2 61 -36.5 96t-83.5 35q-58 0 -99 -34.5t-51 -96.5z" />
    <glyph glyph-name="uni04BE" unicode="&#x4be;" horiz-adv-x="849" 
d="M189 344q-77 0 -121 44t-44 126q0 53 7 83l8 39h91l-9 -40q-7 -32 -7 -73q0 -44 19 -72.5t60 -28.5h4q20 133 108 214.5t213 81.5q134 0 212.5 -88.5t78.5 -239.5l-3 -47h-510q2 -122 72.5 -193t172.5 -71q52 0 104 19.5t74.5 35t36.5 28.5l48 -76q-6 -6 -13.5 -12.5
t-30.5 -21.5t-48.5 -26.5t-65.5 -22.5t-83 -14v-129h-89v133q-124 19 -202 114.5t-80 236.5h-3zM298 422h411q0 88 -49 148t-142 60q-91 0 -150 -61t-70 -147z" />
    <glyph glyph-name="uni04BF" unicode="&#x4bf;" horiz-adv-x="659" 
d="M448 -120h-87v114q-90 18 -146.5 86t-60.5 161q-132 0 -132 149q0 35 11 74h80q-12 -36 -12 -69q0 -83 58 -84q17 95 85 151t163 56q103 0 160.5 -67.5t57.5 -169.5l-2 -41h-370q4 -79 53.5 -123.5t121.5 -44.5q39 0 75.5 15t54.5 30l17 15l42 -70q-7 -7 -21 -18t-58 -31
t-90 -24v-109zM257 310h270q-2 61 -36.5 96t-83.5 35q-58 0 -99 -34.5t-51 -96.5z" />
    <glyph glyph-name="uni04C0" unicode="&#x4c0;" horiz-adv-x="318" 
d="M42 0v86h69v534h-69v86h233v-86h-68v-534h68v-86h-233z" />
    <glyph glyph-name="uni04C1" unicode="&#x4c1;" horiz-adv-x="884" 
d="M7 0l188 320q9 16 20.5 27.5t18.5 14.5l6 4v2q-19 7 -39 44l-102 185q-12 23 -50 23h-20v86h50q42 0 60 -10t36 -43l119 -218q10 -17 23.5 -22.5t37.5 -5.5h39v299h96v-299h37q47 0 63 28l119 218q18 33 36 43t60 10h50v-86h-20q-38 0 -51 -23l-101 -185
q-9 -16 -18.5 -27t-14.5 -14l-6 -3v-2q24 -11 44 -46l189 -320h-110l-172 297q-17 29 -57 29h-48v-326h-96v326h-48q-40 0 -57 -29l-172 -297h-110zM444 739q-61 0 -104.5 34.5t-43.5 93.5v15h78v-14q0 -31 21 -48.5t49 -17.5q29 0 50 17.5t21 49.5v13h77v-15
q0 -59 -43 -93.5t-105 -34.5z" />
    <glyph glyph-name="uni04C2" unicode="&#x4c2;" horiz-adv-x="753" 
d="M16 0l121 208q11 19 25.5 31t23.5 15l9 3v2q-24 7 -40 40l-52 104q-9 20 -45 20h-26v83h60q37 0 54 -8.5t31 -38.5l65 -131q16 -30 58 -30h30v208h94v-208h29q42 0 58 30l65 131q14 30 31 38.5t54 8.5h60v-83h-26q-20 0 -29.5 -4t-15.5 -16l-52 -104q-7 -15 -17 -25
t-17 -12l-6 -3v-2q33 -7 58 -49l122 -208h-113l-100 176q-24 40 -71 40h-30v-216h-94v216h-30q-47 0 -72 -40l-99 -176h-113zM378 564q-61 0 -104.5 34.5t-43.5 93.5v15h78v-14q0 -31 21 -48.5t49 -17.5q29 0 50 17.5t21 49.5v13h77v-15q0 -59 -43 -93.5t-105 -34.5z" />
    <glyph glyph-name="uni04C3" unicode="&#x4c3;" horiz-adv-x="633" 
d="M99 0v598q0 22 -22 22h-43v86h101q34 0 49 -15t15 -49v-233h67q44 0 58 24l161 273h112l-158 -266q-19 -33 -42 -50v-1q62 -19 104 -54.5t60 -78t24.5 -75t6.5 -65.5q0 -136 -67 -215t-180 -79v83q60 0 102 50.5t42 161.5q0 101 -58 154t-158 53h-74v-324h-100z" />
    <glyph glyph-name="uni04C4" unicode="&#x4c4;" horiz-adv-x="531" 
d="M85 0v401q0 22 -22 22h-41v83h96q64 0 64 -58v-147h33q37 0 58 30l118 175h110l-132 -191q-17 -24 -33 -35v-2q88 -24 124 -87t36 -137q0 -93 -44.5 -159t-108.5 -102l-46 70q105 55 105 191q0 77 -44.5 120t-125.5 43h-50v-217h-97z" />
    <glyph glyph-name="uni04C5" unicode="&#x4c5;" horiz-adv-x="711" 
d="M10 -5v91q87 12 124 123t37 333v78h-66v86h415q34 0 49 -15t15 -49v-534q0 -22 22 -22h87v-57l-73 -169h-72l40 140h-40q-34 0 -49 15t-15 49v534q0 22 -22 22h-196v-79q0 -267 -58 -402.5t-198 -143.5z" />
    <glyph glyph-name="uni04C6" unicode="&#x4c6;" horiz-adv-x="570" 
d="M13 -3v86q32 1 56.5 30t37.5 76t19 96t6 99v39h-63v83h327q34 0 49 -15t15 -49v-337q0 -22 22 -22h76v-54l-63 -149h-69l33 120h-31q-34 0 -49.5 15t-15.5 49v337q0 22 -22 22h-116v-40q0 -37 -3 -73.5t-10.5 -83t-23 -85.5t-37.5 -72.5t-57.5 -52.5t-80.5 -19z" />
    <glyph glyph-name="uni04C7" unicode="&#x4c7;" horiz-adv-x="763" 
d="M99 0v598q0 22 -22 22h-43v86h101q34 0 49 -15t15 -49v-247h366v247q0 34 15 49t49 15h101v-86h-43q-22 0 -22 -22v-547q0 -72 -19 -120.5t-52 -71t-65 -30.5t-71 -8v84q107 0 107 145v260h-366v-310h-100z" />
    <glyph glyph-name="uni04C8" unicode="&#x4c8;" horiz-adv-x="621" 
d="M85 0v401q0 22 -22 22h-41v83h96q34 0 49 -15t15 -49v-142h256v142q0 34 15.5 49t49.5 15h96v-83h-41q-22 0 -22 -22v-353q0 -99 -38 -155t-113 -100l-50 71q51 28 77 68.5t26 114.5v170h-256v-217h-97z" />
    <glyph glyph-name="uni04C9" unicode="&#x4c9;" horiz-adv-x="787" 
d="M99 0v598q0 22 -22 22h-43v86h101q34 0 49 -15t15 -49v-247h359v247q0 34 15.5 49t49.5 15h100v-86h-43q-22 0 -22 -22v-512h110v-57l-72 -169h-73l43 140h-108v310h-359v-310h-100z" />
    <glyph glyph-name="uni04CA" unicode="&#x4ca;" horiz-adv-x="633" 
d="M85 0v401q0 22 -22 22h-41v83h96q34 0 49 -15t15 -49v-143h256v207h97v-401q0 -22 22 -22h58v-54l-63 -149h-68l33 120h-15q-34 0 -49 15t-15 49v154h-256v-218h-97z" />
    <glyph glyph-name="uni04CB" unicode="&#x4cb;" horiz-adv-x="650" 
d="M296 270q-109 0 -163 53.5t-54 152.5v122q0 22 -22 22h-43v86h101q34 0 49 -15t15 -49v-144q0 -69 33 -103t107 -34q86 0 150 48v297h100v-706h-108q-21 0 -21 -22v-118h-89v163q0 34 14 48.5t48 14.5h56v200l2 33h-2q-88 -49 -173 -49z" />
    <glyph glyph-name="uni04CC" unicode="&#x4cc;" horiz-adv-x="541" 
d="M294 9q0 33 13.5 47.5t46.5 14.5h25v121l2 31h-2q-59 -38 -142 -38q-79 0 -120.5 39t-41.5 113v64q0 22 -22 22h-37v83h92q35 0 49 -16.5t14 -47.5v-79q0 -44 20 -69.5t76 -25.5q60 0 112 37v201h97v-506h-79q-14 -1 -14 -22v-98h-89v129z" />
    <glyph glyph-name="uni04CD" unicode="&#x4cd;" horiz-adv-x="892" 
d="M23 0v86h33q20 0 22 22l48 598h103l166 -373l35 -90h2q18 51 35 90l166 373h103l48 -598q2 -22 22 -22h89v-57l-72 -169h-72l39 140h-39q-34 0 -48 14.5t-17 49.5l-28 373l-2 104h-2q-21 -66 -38 -104l-143 -310h-84l-142 310q-8 16 -17.5 42.5t-15.5 44.5l-5 18h-2
q1 -63 -2 -105l-29 -373q-2 -34 -16.5 -49t-47.5 -15h-89z" />
    <glyph glyph-name="uni04CE" unicode="&#x4ce;" horiz-adv-x="758" 
d="M19 0v83h26q18 0 19 19l35 404h106l132 -290l26 -63h1q14 33 27 63l131 290h106l35 -404q1 -19 19 -19h76v-54l-63 -149h-69l33 120h-25q-30 0 -41.5 13t-13.5 42l-19 239l-2 90h-2q-12 -37 -30 -76l-118 -247h-92l-116 247l-29 77h-2q0 -60 -2 -91l-19 -239
q-2 -29 -13.5 -42t-41.5 -13h-74z" />
    <glyph glyph-name="uni04CF" unicode="&#x4cf;" horiz-adv-x="318" 
d="M42 0v83h69v540h-69v83h233v-83h-68v-540h68v-83h-233z" />
    <glyph glyph-name="uni04D0" unicode="&#x4d0;" horiz-adv-x="665" 
d="M12 0v86h14q26 0 33 22l221 598h105l221 -598q7 -22 33 -22h14v-86h-55q-37 0 -53.5 11.5t-29.5 46.5l-53 145h-259l-53 -145q-13 -35 -29.5 -46.5t-53.5 -11.5h-55zM227 287h211l-77 215l-28 99h-2q-15 -62 -27 -99zM331 739q-61 0 -104.5 34.5t-43.5 93.5v15h78v-14
q0 -31 21 -48.5t49 -17.5q29 0 50 17.5t21 49.5v13h77v-15q0 -59 -43 -93.5t-105 -34.5z" />
    <glyph glyph-name="uni04D1" unicode="&#x4d1;" horiz-adv-x="529" 
d="M28 138q0 177 306 177h22v7q0 64 -26.5 91.5t-85.5 27.5q-28 0 -55.5 -8.5t-27.5 -30.5v-29h-92v51q0 28 20 48.5t50.5 29.5t55.5 12.5t47 3.5q117 0 164 -52t47 -146v-215q0 -22 22 -22h41v-83h-92q-62 0 -62 58l1 30h-2q1 0 -4.5 -10.5t-18 -25t-30.5 -29t-47 -25
t-63 -10.5q-70 0 -120 40.5t-50 109.5zM125 147q0 -33 25 -57.5t70 -24.5q60 0 98 50t38 111v19h-26q-205 0 -205 -98zM265 564q-61 0 -104.5 34.5t-43.5 93.5v15h78v-14q0 -31 21 -48.5t49 -17.5q29 0 50 17.5t21 49.5v13h77v-15q0 -59 -43 -93.5t-105 -34.5z" />
    <glyph glyph-name="uni04D2" unicode="&#x4d2;" horiz-adv-x="665" 
d="M12 0v86h14q26 0 33 22l221 598h105l221 -598q7 -22 33 -22h14v-86h-55q-37 0 -53.5 11.5t-29.5 46.5l-53 145h-259l-53 -145q-13 -35 -29.5 -46.5t-53.5 -11.5h-55zM227 287h211l-77 215l-28 99h-2q-15 -62 -27 -99zM378 781v101h73v-101h-73zM213 781v101h74v-101h-74z
" />
    <glyph glyph-name="uni04D3" unicode="&#x4d3;" horiz-adv-x="529" 
d="M28 138q0 177 306 177h22v7q0 64 -26.5 91.5t-85.5 27.5q-28 0 -55.5 -8.5t-27.5 -30.5v-29h-92v51q0 28 20 48.5t50.5 29.5t55.5 12.5t47 3.5q117 0 164 -52t47 -146v-215q0 -22 22 -22h41v-83h-92q-62 0 -62 58l1 30h-2q1 0 -4.5 -10.5t-18 -25t-30.5 -29t-47 -25
t-63 -10.5q-70 0 -120 40.5t-50 109.5zM125 147q0 -33 25 -57.5t70 -24.5q60 0 98 50t38 111v19h-26q-205 0 -205 -98zM302 606v101h73v-101h-73zM137 606v101h74v-101h-74z" />
    <glyph glyph-name="uni04D4" unicode="&#x4d4;" horiz-adv-x="863" 
d="M10 0v86h11q25 0 34 22l237 598h448q34 0 49 -15t15 -49v-89h-91v45q0 22 -22 22h-195v-221h242v-86h-242v-205q0 -22 26 -22h196q22 0 22 22v45h92v-89q0 -34 -15 -49t-49 -15h-301q-39 0 -55.5 13.5t-16.5 50.5v249h-159l-95 -255q-13 -35 -29.5 -46.5t-53.5 -11.5h-48
zM269 399h126v221h-43z" />
    <glyph glyph-name="uni04D5" unicode="&#x4d5;" horiz-adv-x="849" 
d="M29 141q0 172 298 172h29v11q0 64 -26.5 90.5t-85.5 26.5q-29 0 -56 -8.5t-27 -30.5v-29h-92v51q0 34 29.5 56t66.5 30t79 8q132 0 172 -89h2q62 89 180 89q100 0 158.5 -67t58.5 -168l-2 -41h-364q4 -82 51 -126t118 -44q39 0 76 15t54 30l18 15l41 -70q-8 -8 -24 -20.5
t-67 -33t-104 -20.5q-152 0 -217 126h-2q-5 -14 -16 -31t-33 -40t-59 -38.5t-83 -15.5q-73 0 -123 40.5t-50 111.5zM453 313h263q-3 60 -37 93.5t-82 33.5q-57 0 -95 -33t-49 -94zM127 147q0 -34 25 -57.5t71 -23.5q59 0 96.5 50.5t37.5 111.5v14h-47q-183 0 -183 -95z" />
    <glyph glyph-name="uni04D6" unicode="&#x4d6;" horiz-adv-x="571" 
d="M98 64v556h-65v86h416q34 0 49 -15t15 -49v-89h-92v45q0 22 -22 22h-201v-221h248v-86h-248v-205q0 -22 22 -22h207q22 0 22 22v45h91v-89q0 -34 -15 -49t-49 -15h-313q-34 0 -49.5 15t-15.5 49zM302 739q-61 0 -104.5 34.5t-43.5 93.5v15h78v-14q0 -31 21 -48.5
t49 -17.5q29 0 50 17.5t21 49.5v13h77v-15q0 -59 -43 -93.5t-105 -34.5z" />
    <glyph glyph-name="uni04D7" unicode="&#x4d7;" horiz-adv-x="539" 
d="M33 253q0 119 72 192t182 73q103 0 160.5 -67.5t57.5 -169.5q0 -17 -3 -41h-369q4 -79 54 -123.5t121 -44.5q16 0 31.5 2.5t29 7.5t24.5 9.5t22.5 11.5t17.5 11l15 10l9 7l41 -71q-17 -14 -40 -28t-67.5 -29t-88.5 -15q-118 0 -193.5 75.5t-75.5 189.5zM137 310h271
q-2 63 -36.5 98t-86.5 35q-57 0 -97.5 -35.5t-50.5 -97.5zM281 564q-61 0 -104.5 34.5t-43.5 93.5v15h78v-14q0 -31 21 -48.5t49 -17.5q29 0 50 17.5t21 49.5v13h77v-15q0 -59 -43 -93.5t-105 -34.5z" />
    <glyph glyph-name="uni04D8" unicode="&#x4d8;" horiz-adv-x="694" 
d="M38 339l3 50h513q-5 106 -69.5 172t-165.5 66q-54 0 -106 -17.5t-75.5 -32.5t-35.5 -26l-49 74q8 7 15.5 13t35 22.5t56 27.5t74.5 20.5t95 9.5q145 0 237 -103t92 -259q0 -161 -88 -264.5t-233 -103.5q-139 0 -219 91t-80 260zM138 310q0 -112 50.5 -172.5t154.5 -60.5
q93 0 151 64t59 169h-415z" />
    <glyph glyph-name="uni04D9" unicode="&#x4d9;" horiz-adv-x="541" 
d="M34 235l3 45h370q-4 71 -50.5 114.5t-112.5 43.5q-41 0 -81.5 -14t-60.5 -28l-19 -15l-38 69q102 68 210 68q113 0 182 -74.5t69 -189.5q0 -122 -69.5 -194t-177.5 -72q-107 0 -166 68t-59 179zM135 210q2 -75 36.5 -110t89.5 -35q58 0 98.5 37.5t44.5 107.5h-269z" />
    <glyph glyph-name="uni04DA" unicode="&#x4da;" horiz-adv-x="694" 
d="M388 780v101h74v-101h-74zM223 780v101h74v-101h-74zM38 339l3 50h513q-5 106 -69.5 172t-165.5 66q-54 0 -106 -17.5t-75.5 -32.5t-35.5 -26l-49 74q8 7 15.5 13t35 22.5t56 27.5t74.5 20.5t95 9.5q145 0 237 -103t92 -259q0 -161 -88 -264.5t-233 -103.5
q-139 0 -219 91t-80 260zM138 310q0 -112 50.5 -172.5t154.5 -60.5q93 0 151 64t59 169h-415z" />
    <glyph glyph-name="uni04DB" unicode="&#x4db;" horiz-adv-x="540" 
d="M302 606v101h73v-101h-73zM137 606v101h74v-101h-74zM34 235l3 45h370q-4 71 -50.5 114.5t-112.5 43.5q-41 0 -81.5 -14t-60.5 -28l-19 -15l-38 69q102 68 210 68q113 0 182 -74.5t69 -189.5q0 -122 -69.5 -194t-177.5 -72q-107 0 -166 68t-59 179zM135 210
q2 -75 36.5 -110t89.5 -35q58 0 98.5 37.5t44.5 107.5h-269z" />
    <glyph glyph-name="uni04DC" unicode="&#x4dc;" horiz-adv-x="884" 
d="M7 0l188 320q9 16 20.5 27.5t18.5 14.5l6 4v2q-19 7 -39 44l-102 185q-12 23 -50 23h-20v86h50q42 0 60 -10t36 -43l119 -218q10 -17 23.5 -22.5t37.5 -5.5h39v299h96v-299h37q47 0 63 28l119 218q18 33 36 43t60 10h50v-86h-20q-38 0 -51 -23l-101 -185
q-9 -16 -18.5 -27t-14.5 -14l-6 -3v-2q24 -11 44 -46l189 -320h-110l-172 297q-17 29 -57 29h-48v-326h-96v326h-48q-40 0 -57 -29l-172 -297h-110zM491 781v101h73v-101h-73zM326 781v101h74v-101h-74z" />
    <glyph glyph-name="uni04DD" unicode="&#x4dd;" horiz-adv-x="753" 
d="M423 606v101h73v-101h-73zM258 606v101h74v-101h-74zM16 0l121 208q11 19 25.5 31t23.5 15l9 3v2q-24 7 -40 40l-52 104q-9 20 -45 20h-26v83h60q37 0 54 -8.5t31 -38.5l65 -131q16 -30 58 -30h30v208h94v-208h29q42 0 58 30l65 131q14 30 31 38.5t54 8.5h60v-83h-26
q-20 0 -29.5 -4t-15.5 -16l-52 -104q-7 -15 -17 -25t-17 -12l-6 -3v-2q33 -7 58 -49l122 -208h-113l-100 176q-24 40 -71 40h-30v-216h-94v216h-30q-47 0 -72 -40l-99 -176h-113z" />
    <glyph glyph-name="uni04DE" unicode="&#x4de;" horiz-adv-x="529" 
d="M307 781v101h73v-101h-73zM142 781v101h74v-101h-74zM20 82l59 70q27 -29 71 -52t92 -23q62 0 104 34t42 92q0 55 -37.5 86.5t-93.5 31.5h-84v82h72q51 0 86.5 32.5t35.5 83.5q0 49 -31 79.5t-90 30.5q-46 0 -78.5 -19.5t-32.5 -47.5v-29h-92v55q0 44 35.5 75t81 43
t94.5 12q102 0 158 -50.5t56 -133.5q0 -108 -102 -160v-2q58 -16 91.5 -62.5t33.5 -110.5q0 -93 -68.5 -152t-178.5 -59q-72 0 -129.5 27t-94.5 67z" />
    <glyph glyph-name="uni04DF" unicode="&#x4df;" horiz-adv-x="441" 
d="M262 606v101h73v-101h-73zM97 606v101h74v-101h-74zM23 62l46 64q59 -59 134 -59q45 0 75 21.5t30 62.5q0 76 -103 76h-64v67h51q99 0 99 77q0 37 -24 55.5t-64 18.5q-31 0 -56.5 -12.5t-25.5 -36.5v-23h-81v47q0 48 50 73t121 25q82 0 130 -35.5t48 -101.5
q0 -44 -21.5 -73t-53.5 -41v-2q40 -10 65.5 -41t25.5 -79q0 -74 -56.5 -115.5t-139.5 -41.5q-107 0 -186 74z" />
    <glyph glyph-name="uni04E0" unicode="&#x4e0;" horiz-adv-x="505" 
d="M65 129q29 -24 71 -39.5t81 -15.5q70 0 112.5 35.5t42.5 92.5q0 49 -26 76.5t-85 34.5q-25 4 -145 4v65l184 203l42 38l-1 2q-29 -2 -63 -2h-132q-22 0 -22 -22v-34h-85v76q0 34 15 48.5t49 14.5h346v-79l-191 -207l-28 -25v-2q55 -1 84 -7q155 -28 155 -179
q0 -100 -69.5 -158.5t-177.5 -58.5q-109 0 -198 64z" />
    <glyph glyph-name="uni04E1" unicode="&#x4e1;" horiz-adv-x="472" 
d="M46 -71q29 -24 71 -39.5t81 -15.5q70 0 112.5 35.5t42.5 92.5q0 49 -26 76.5t-85 34.5q-25 4 -145 4v65l184 203l42 38l-1 2q-29 -2 -63 -2h-132q-22 0 -22 -22v-34h-85v76q0 34 15 48.5t49 14.5h346v-79l-191 -207l-28 -25v-2q55 -1 84 -7q155 -28 155 -179
q0 -100 -69.5 -158.5t-177.5 -58.5q-109 0 -198 64z" />
    <glyph glyph-name="uni04E2" unicode="&#x4e2;" horiz-adv-x="763" 
d="M261 785v68h254v-68h-254zM99 0v598q0 22 -22 22h-43v86h101q34 0 49 -15t15 -49v-387l-6 -101h2q38 64 63 102l308 450h98v-598q0 -22 22 -22h43v-86h-100q-34 0 -49.5 15t-15.5 49v388l6 103h-2q-35 -65 -60 -103l-310 -452h-99z" />
    <glyph glyph-name="uni04E3" unicode="&#x4e3;" horiz-adv-x="619" 
d="M84 0v401q0 22 -21 22h-40v83h89q34 0 49 -14.5t15 -48.5v-241q0 -50 -4 -70h2q10 20 47 70l218 304h96v-401q0 -22 21 -22h40v-83h-89q-34 0 -49 15t-15 49v240q0 39 4 71h-2q-8 -19 -47 -71l-218 -304h-96zM185 610v68h254v-68h-254z" />
    <glyph glyph-name="uni04E4" unicode="&#x4e4;" horiz-adv-x="763" 
d="M428 781v101h73v-101h-73zM263 781v101h74v-101h-74zM99 0v598q0 22 -22 22h-43v86h101q34 0 49 -15t15 -49v-387l-6 -101h2q38 64 63 102l308 450h98v-598q0 -22 22 -22h43v-86h-100q-34 0 -49.5 15t-15.5 49v388l6 103h-2q-35 -65 -60 -103l-310 -452h-99z" />
    <glyph glyph-name="uni04E5" unicode="&#x4e5;" horiz-adv-x="619" 
d="M359 606v101h73v-101h-73zM194 606v101h74v-101h-74zM84 0v401q0 22 -21 22h-40v83h89q34 0 49 -14.5t15 -48.5v-241q0 -50 -4 -70h2q10 20 47 70l218 304h96v-401q0 -22 21 -22h40v-83h-89q-34 0 -49 15t-15 49v240q0 39 4 71h-2q-8 -19 -47 -71l-218 -304h-96z" />
    <glyph glyph-name="uni04E6" unicode="&#x4e6;" horiz-adv-x="793" 
d="M441 781v101h73v-101h-73zM276 781v101h74v-101h-74zM34 358q0 152 104.5 256t257.5 104t258 -104t105 -256q0 -156 -105 -263t-258 -107t-257.5 107t-104.5 263zM138 358q0 -116 75 -196t183 -80t183.5 80t75.5 196q0 113 -75.5 190t-183.5 77t-183 -77t-75 -190z" />
    <glyph glyph-name="uni04E7" unicode="&#x4e7;" horiz-adv-x="609" 
d="M351 605v101h73v-101h-73zM186 605v101h74v-101h-74zM33 254q0 114 79 189t193 75q115 0 194 -75t79 -189t-79.5 -190t-193.5 -76t-193 76t-79 190zM131 254q0 -78 51 -130t123 -52q73 0 123.5 51.5t50.5 130.5q0 78 -50.5 129t-123.5 51q-72 0 -123 -51t-51 -129z" />
    <glyph glyph-name="uni04E8" unicode="&#x4e8;" horiz-adv-x="793" 
d="M34 358q0 153 103.5 256.5t258.5 103.5t259 -103.5t104 -256.5q0 -157 -104 -263.5t-259 -106.5t-258.5 106.5t-103.5 263.5zM396 78q101 0 173 67.5t86 171.5h-517q13 -104 85 -171.5t173 -67.5zM396 629q-101 0 -173.5 -66t-85.5 -167h518q-13 101 -85.5 167t-173.5 66
z" />
    <glyph glyph-name="uni04E9" unicode="&#x4e9;" horiz-adv-x="609" 
d="M32 254q0 113 79 188.5t193 75.5q115 0 194 -75t79 -189t-79 -190t-193 -76t-193.5 76t-79.5 190zM305 66q68 0 118 44.5t60 114.5h-356q10 -71 60 -115t118 -44zM305 440q-67 0 -117 -42.5t-61 -110.5h355q-10 68 -60 110.5t-117 42.5z" />
    <glyph glyph-name="uni04EA" unicode="&#x4ea;" horiz-adv-x="793" 
d="M34 358q0 153 103.5 256.5t258.5 103.5t259 -103.5t104 -256.5q0 -157 -104 -263.5t-259 -106.5t-258.5 106.5t-103.5 263.5zM396 78q101 0 173 67.5t86 171.5h-517q13 -104 85 -171.5t173 -67.5zM396 629q-101 0 -173.5 -66t-85.5 -167h518q-13 101 -85.5 167t-173.5 66
zM277 781v101h74v-101h-74zM442 781v101h73v-101h-73z" />
    <glyph glyph-name="uni04EB" unicode="&#x4eb;" horiz-adv-x="611" 
d="M32 254q0 113 79 188.5t193 75.5q115 0 194 -75t79 -189t-79 -190t-193 -76t-193.5 76t-79.5 190zM305 66q68 0 118 44.5t60 114.5h-356q10 -71 60 -115t118 -44zM305 440q-67 0 -117 -42.5t-61 -110.5h355q-10 68 -60 110.5t-117 42.5zM189 585v101h74v-101h-74z
M354 585v101h73v-101h-73z" />
    <glyph glyph-name="uni04EC" unicode="&#x4ec;" horiz-adv-x="695" 
d="M367 781v101h73v-101h-73zM202 781v101h74v-101h-74zM28 97l52 70q27 -30 89 -59.5t133 -29.5q102 0 172 66t80 167h-364v82h364q-7 103 -75.5 169t-171.5 66q-63 0 -119.5 -23.5t-56.5 -64.5v-40h-92v65q0 68 81.5 110.5t184.5 42.5q158 0 256.5 -101.5t98.5 -254.5
q0 -157 -101 -265.5t-257 -108.5q-88 0 -162.5 34.5t-111.5 74.5z" />
    <glyph glyph-name="uni04ED" unicode="&#x4ed;" horiz-adv-x="530" 
d="M297 606v101h73v-101h-73zM132 606v101h74v-101h-74zM26 64l38 69q65 -66 160 -66q69 0 118.5 42t58.5 109h-238v68h239q-9 70 -57.5 111.5t-112.5 41.5q-42 0 -77.5 -14.5t-35.5 -38.5v-25h-83v42q0 48 55.5 81.5t142.5 33.5q115 0 189 -75.5t74 -188.5
q0 -116 -75.5 -191t-193.5 -75q-123 0 -202 76z" />
    <glyph glyph-name="uni04EE" unicode="&#x4ee;" horiz-adv-x="622" 
d="M191 785v68h254v-68h-254zM82 36l46 74q36 -31 74 -31q31 0 48 19t32 60l-219 440q-11 22 -33 22h-20v86h61q34 0 49.5 -12t31.5 -46l143 -305l37 -87h2q12 38 30 87l111 305q13 35 29 46.5t54 11.5h54v-86h-16q-25 0 -34 -21l-192 -486q-49 -125 -156 -125
q-42 0 -79.5 16.5t-52.5 31.5z" />
    <glyph glyph-name="uni04EF" unicode="&#x4ef;" horiz-adv-x="543" 
d="M44 -90q0 -1 9 -9.5t27 -17.5t37 -9q58 0 89 73l24 55l-174 401q-9 20 -31 20h-13v83h57q31 0 46 -10.5t27 -40.5l114 -285l18 -61h2q8 35 17 61l106 285q10 29 26 40t47 11h58v-83h-12q-24 0 -33 -20l-199 -494q-23 -57 -66.5 -88t-97.5 -31q-33 0 -63 12.5t-43 25.5
l-13 12zM148 610v68h254v-68h-254z" />
    <glyph glyph-name="uni04F0" unicode="&#x4f0;" horiz-adv-x="622" 
d="M363 781v101h73v-101h-73zM198 781v101h74v-101h-74zM82 36l46 74q36 -31 74 -31q31 0 48 19t32 60l-219 440q-11 22 -33 22h-20v86h61q34 0 49.5 -12t31.5 -46l143 -305l37 -87h2q12 38 30 87l111 305q13 35 29 46.5t54 11.5h54v-86h-16q-25 0 -34 -21l-192 -486
q-49 -125 -156 -125q-42 0 -79.5 16.5t-52.5 31.5z" />
    <glyph glyph-name="uni04F1" unicode="&#x4f1;" horiz-adv-x="543" 
d="M43 -90q0 -1 9 -9.5t27.5 -17.5t37.5 -9q58 0 89 73l23 55l-173 401q-9 20 -31 20h-13v83h57q31 0 46 -10.5t27 -40.5l114 -285l18 -61h2q8 35 17 61l106 285q10 30 26 40.5t47 10.5h58v-83h-13q-23 0 -32 -20l-199 -494q-24 -58 -67 -88.5t-97 -30.5q-33 0 -63 12.5
t-43 25.5l-13 12zM318 606v101h73v-101h-73zM153 606v101h74v-101h-74z" />
    <glyph glyph-name="uni04F2" unicode="&#x4f2;" horiz-adv-x="622" 
d="M82 36l46 74q36 -31 74 -31q31 0 48 19t32 60l-219 440q-11 22 -33 22h-20v86h61q34 0 49.5 -12t31.5 -46l143 -305l37 -87h2q12 38 30 87l111 305q13 35 29 46.5t54 11.5h54v-86h-16q-25 0 -34 -21l-192 -486q-49 -125 -156 -125q-42 0 -79.5 16.5t-52.5 31.5zM347 755
l72 127h99l-96 -127h-75zM194 755l69 127h84l-70 -127h-83z" />
    <glyph glyph-name="uni04F3" unicode="&#x4f3;" horiz-adv-x="543" 
d="M43 -90q0 -1 9 -9.5t27.5 -17.5t37.5 -9q58 0 89 73l23 55l-173 401q-9 20 -31 20h-13v83h57q31 0 46 -10.5t27 -40.5l114 -285l18 -61h2q8 35 17 61l106 285q10 30 26 40.5t47 10.5h58v-83h-13q-23 0 -32 -20l-199 -494q-24 -58 -67 -88.5t-97 -30.5q-33 0 -63 12.5
t-43 25.5l-13 12zM304 580l72 127h99l-96 -127h-75zM151 580l69 127h84l-70 -127h-83z" />
    <glyph glyph-name="uni04F4" unicode="&#x4f4;" horiz-adv-x="651" 
d="M296 270q-109 0 -163 53.5t-54 152.5v122q0 22 -22 22h-43v86h101q34 0 49 -15t15 -49v-144q0 -69 33 -103t107 -34q86 0 150 48v297h100v-706h-100v286l2 33h-2q-88 -49 -173 -49zM354 781v101h73v-101h-73zM189 781v101h74v-101h-74z" />
    <glyph glyph-name="uni04F5" unicode="&#x4f5;" horiz-adv-x="541" 
d="M314 606v101h73v-101h-73zM149 606v101h74v-101h-74zM238 176q-79 0 -120.5 39t-41.5 113v73q0 22 -23 22h-36v83h91q35 0 49 -16.5t14 -47.5v-87q0 -44 20.5 -69.5t75.5 -25.5q60 0 113 36v210h97v-506h-97v183l1 32h-1q-59 -39 -142 -39z" />
    <glyph glyph-name="uni04F6" unicode="&#x4f6;" horiz-adv-x="517" 
d="M98 0v620h-65v86h404q34 0 49 -15t15 -49v-89h-91v45q0 22 -22 22h-190v-534h35q34 0 48.5 -14.5t14.5 -48.5v-163h-90v118q0 22 -20 22h-88z" />
    <glyph glyph-name="uni04F7" unicode="&#x4f7;" horiz-adv-x="441" 
d="M85 0v423h-63v83h335q35 0 50 -14t15 -48v-77h-81v34q0 22 -22 22h-137v-342h24q33 0 47 -15t14 -48v-138h-90v98q0 22 -18 22h-74z" />
    <glyph glyph-name="uni04F8" unicode="&#x4f8;" horiz-adv-x="855" 
d="M476 781v101h73v-101h-73zM311 781v101h74v-101h-74zM656 64v642h100v-598q0 -22 22 -22h43v-86h-101q-34 0 -49 15t-15 49zM98 64v534q0 22 -22 22h-43v86h101q34 0 49 -15t15 -49v-202h135q98 0 161.5 -55t63.5 -160q0 -110 -67 -167.5t-174 -57.5h-154q-34 0 -49.5 15
t-15.5 49zM198 108q0 -22 22 -22h103q61 0 96.5 36t35.5 100q0 63 -35.5 97.5t-96.5 34.5h-125v-246z" />
    <glyph glyph-name="uni04F9" unicode="&#x4f9;" horiz-adv-x="724" 
d="M406 606v101h73v-101h-73zM241 606v101h74v-101h-74zM542 64v442h97v-401q0 -22 22 -22h40v-83h-95q-34 0 -49 15t-15 49zM84 55v346q0 22 -22 22h-41v83h96q64 0 64 -58v-127h100q86 0 134 -43.5t48 -117.5q0 -73 -50.5 -116.5t-131.5 -43.5h-142q-29 0 -42 13t-13 42z
M181 90q0 -20 19 -20h69q45 0 70.5 25t25.5 66q0 42 -25 66t-71 24h-88v-161z" />
    <glyph glyph-name="uni0524" unicode="&#x524;" horiz-adv-x="766" 
d="M99 0v620h-66v86h559q34 0 49 -15t15 -49v-556h33q35 0 49 -14t14 -49v-163h-89v118q0 22 -21 22h-86v598q0 22 -22 22h-335v-620h-100z" />
    <glyph glyph-name="uni0525" unicode="&#x525;" horiz-adv-x="618" 
d="M84 0v423h-57v83h433q34 0 49.5 -15t15.5 -49v-361h23q33 0 47.5 -15t14.5 -47v-139h-90v98q0 22 -20 22h-72v401q0 22 -22 22h-225v-423h-97z" />
    <glyph glyph-name="uni1E9E" unicode="&#x1e9e;" horiz-adv-x="638" 
d="M33 0v86h43q22 0 22 22v398q0 87 57 143.5t145 56.5h273v-67l-139 -203l-24 -33v-2l25 -1q72 -6 119.5 -63.5t47.5 -131.5q0 -85 -61 -145t-148 -60h-94v86h88q50 0 82 35t32 84t-31.5 83t-81.5 34h-88v69l113 169q13 20 24 35.5t16 20.5l5 5v2q-8 -3 -44 -3h-110
q-46 0 -76 -32t-30 -80v-444q0 -34 -15.5 -49t-49.5 -15h-100z" />
    <glyph glyph-name="endash" unicode="&#x2013;" horiz-adv-x="647" 
d="M60 246v78h527v-78h-527z" />
    <glyph glyph-name="emdash" unicode="&#x2014;" horiz-adv-x="847" 
d="M60 246v78h727v-78h-727z" />
    <glyph glyph-name="quoteleft" unicode="&#x2018;" horiz-adv-x="222" 
d="M48 522l66 195h69l-43 -195h-92z" />
    <glyph glyph-name="quoteright" unicode="&#x2019;" horiz-adv-x="217" 
d="M53 523l43 195h92l-65 -195h-70z" />
    <glyph glyph-name="quotesinglbase" unicode="&#x201a;" horiz-adv-x="238" 
d="M39 -90l43 195h92l-65 -195h-70z" />
    <glyph glyph-name="quotedblleft" unicode="&#x201c;" horiz-adv-x="360" 
d="M187 522l65 195h70l-43 -195h-92zM48 522l66 195h69l-43 -195h-92z" />
    <glyph glyph-name="quotedblright" unicode="&#x201d;" horiz-adv-x="355" 
d="M192 523l43 195h91l-65 -195h-69zM53 523l43 195h92l-65 -195h-70z" />
    <glyph glyph-name="quotedblbase" unicode="&#x201e;" horiz-adv-x="377" 
d="M178 -90l43 195h91l-65 -195h-69zM39 -90l43 195h92l-65 -195h-70z" />
    <glyph glyph-name="dagger" unicode="&#x2020;" horiz-adv-x="426" 
d="M165 -50v479h-121v77h121v200h93v-200h124v-77h-124v-479h-93z" />
    <glyph glyph-name="daggerdbl" unicode="&#x2021;" horiz-adv-x="435" 
d="M48 171v78h121v180h-121v77h121v200h93v-200h124v-77h-124v-180h124v-78h-124v-221h-93v221h-121z" />
    <glyph glyph-name="bullet" unicode="&#x2022;" horiz-adv-x="456" 
d="M228 136q-64 0 -109.5 45t-45.5 110t45.5 110t109.5 45t109 -45.5t45 -109.5t-45 -109.5t-109 -45.5z" />
    <glyph glyph-name="ellipsis" unicode="&#x2026;" horiz-adv-x="736" 
d="M578 0v103h99v-103h-99zM318 0v103h100v-103h-100zM59 0v103h99v-103h-99z" />
    <glyph glyph-name="perthousand" unicode="&#x2030;" horiz-adv-x="1102" 
d="M199 422q-63 0 -107 43t-44 105q0 61 44 104.5t107 43.5t107.5 -43.5t44.5 -104.5t-44.5 -104.5t-107.5 -43.5zM63 0l540 706h94l-540 -706h-94zM199 496q31 0 52.5 21t21.5 53q0 31 -21.5 53t-52.5 22t-52.5 -22t-21.5 -53q0 -32 21.5 -53t52.5 -21zM764 136
q0 61 44.5 104.5t107.5 43.5t107.5 -43.5t44.5 -104.5t-44.5 -104.5t-107.5 -43.5t-107.5 43.5t-44.5 104.5zM410 136q0 61 44 104.5t107 43.5t107.5 -43.5t44.5 -104.5t-44.5 -104.5t-107.5 -43.5t-107 43t-44 105zM842 136q0 -32 21 -53t53 -21q31 0 52.5 21.5t21.5 52.5
t-21.5 53t-52.5 22t-52.5 -22t-21.5 -53zM488 136q0 -31 21 -52.5t52 -21.5q32 0 53.5 21.5t21.5 52.5t-22 53t-53 22t-52 -22t-21 -53z" />
    <glyph glyph-name="guilsinglleft" unicode="&#x2039;" horiz-adv-x="348" 
d="M205 77l-164 205l164 206h97l-164 -206l164 -205h-97z" />
    <glyph glyph-name="guilsinglright" unicode="&#x203a;" horiz-adv-x="348" 
d="M45 77l164 205l-164 206h97l164 -206l-164 -205h-97z" />
    <glyph glyph-name="fraction" unicode="&#x2044;" horiz-adv-x="150" 
d="M-27 0h-81l287 706h80z" />
    <glyph glyph-name="Euro" unicode="&#x20ac;" 
d="M25 258v63h60q-2 18 -2 33l2 39h-60v64h71q31 116 124 188.5t215 72.5q24 0 47.5 -3t35.5 -6l12 -3l-23 -91q-35 11 -74 11q-83 0 -145 -46t-87 -123h277l-13 -64h-278q-3 -17 -3 -37l3 -35h265l-13 -63h-235q23 -80 86 -128t146 -48q23 0 46.5 3.5t35.5 6.5l11 4l20 -91
q-49 -17 -114 -17q-127 0 -219 74.5t-121 195.5h-70z" />
    <glyph glyph-name="numero" unicode="&#x2116;" horiz-adv-x="1069" 
d="M41 0v86h43q22 0 22 22v598h90l315 -447l58 -96h2q-6 57 -6 96v383q0 34 15.5 49t49.5 15h100v-86h-43q-22 0 -22 -22v-598h-90l-315 447l-59 96h-2q7 -57 7 -96v-383q0 -34 -15.5 -49t-49.5 -15h-100zM746 470q0 59 41.5 100t101.5 41t101.5 -41t41.5 -100
q0 -60 -41.5 -101t-101.5 -41t-101.5 41t-41.5 101zM821 471q0 -31 19.5 -51.5t48.5 -20.5t49 20.5t20 51.5q0 29 -20 49t-49 20t-48.5 -20t-19.5 -49zM761 197v69h261v-69h-261z" />
    <glyph glyph-name="trademark" unicode="&#x2122;" horiz-adv-x="1002" 
d="M442 266v67h23q10 0 11 9l28 364h70l104 -230l14 -42h2q5 24 13 42l104 230h70l29 -364q0 -9 10 -9h24v-67h-59q-27 0 -37.5 9t-11.5 36l-17 218l1 30h-2l-95 -212h-61l-95 212h-2l1 -30l-17 -218q-1 -27 -11.5 -36t-37.5 -9h-58zM210 266v373h-76q-9 0 -9 -9v-30h-67v61
q0 26 9.5 35.5t37.5 9.5h286q27 0 37 -9.5t10 -35.5v-61h-66v30q0 9 -9 9h-77v-373h-76z" />
    <glyph glyph-name="minus" unicode="&#x2212;" 
d="M30 246v78h517v-78h-517z" />
    <glyph glyph-name="infinity" unicode="&#x221e;" horiz-adv-x="460" 
d="M231 167q-75 0 -128.5 53.5t-53.5 128.5t53.5 128t128.5 53t128 -52.5t53 -128.5q0 -75 -53 -128.5t-128 -53.5z" />
    <glyph glyph-name="approxequal" unicode="&#x2248;" 
d="M79 321l-41 59q71 73 151 73q50 0 107.5 -35t90.5 -35q59 0 110 55l41 -59q-70 -72 -151 -72q-50 0 -107.5 35t-90.5 35q-56 0 -110 -56zM79 133l-41 58q71 73 151 73q50 0 107.5 -35t90.5 -35q59 0 110 55l41 -59q-70 -72 -151 -72q-50 0 -107.5 35t-90.5 35
q-57 0 -110 -55z" />
    <glyph glyph-name="notequal" unicode="&#x2260;" 
d="M104 73l55 78h-110v78h163l79 111h-242v78h295l81 115l51 -35l-57 -80h107v-78h-159l-80 -111h239v-78h-291l-79 -112z" />
    <glyph glyph-name="lessequal" unicode="&#x2264;" 
d="M48 252v66l466 208v-89l-357 -151v-2l357 -151v-89zM49 -95h465v-78h-465v78z" />
    <glyph glyph-name="greaterequal" unicode="&#x2265;" 
d="M63 44v89l357 151v2l-357 151v89l466 -208v-66zM62 -95h465v-78h-465v78z" />
    <glyph glyph-name="commaaccent" unicode="&#xf6c3;" horiz-adv-x="335" 
d="M131 -59h79q6 -27 6 -49q0 -41 -24 -92h-69q19 49 19 82q0 29 -11 59z" />
    <glyph glyph-name="cyrbreve" unicode="&#xf6d4;" horiz-adv-x="324" 
d="M167 739q-61 0 -104.5 34.5t-43.5 93.5v15h78v-14q0 -31 21 -48.5t49 -17.5q29 0 50 17.5t21 49.5v13h77v-15q0 -59 -43 -93.5t-105 -34.5z" />
    <glyph glyph-name="apple" unicode="&#xf8ff;" horiz-adv-x="1130" 
d="M42 128v278l126 71v151l265 142l134 -71l132 71l265 -142v-151l124 -71v-278l-124 -72v-152l-265 -141l-132 71l-134 -71l-265 141v152zM94 142l114 -64v-139l238 -126l121 66l118 -66l238 126v139l114 64v249l-114 66v136l-238 126l-118 -64l-121 64l-238 -126v-136
l-114 -66v-249zM143 154v225l99 58v123l215 114l110 -59l107 59l214 -114v-123l100 -58v-225l-100 -60v-121l-214 -114l-107 58l-110 -58l-215 114v121zM438 0h79v204h206v69h-206v165h151q14 0 19 -6t5 -20v-33h73v74q0 28 -12 40.5t-42 12.5h-331v-68h58v-438z" />
    <glyph glyph-name="zero.tnum" 
d="M288 -12q-249 0 -249 366q0 364 249 364q250 0 250 -364q0 -366 -250 -366zM288 79q149 0 149 275q0 273 -149 273q-148 0 -148 -273q0 -275 148 -275z" />
    <glyph glyph-name="one.tnum" 
d="M99 0v86h155v456l1 43h-2q-8 -15 -33 -40l-67 -65l-59 62l168 164h92v-620h153v-86h-408z" />
    <glyph glyph-name="two.tnum" 
d="M40 81q0 53 20 95.5t51.5 71t69.5 52.5t76.5 45.5t70 44t51.5 54t20 70.5q0 49 -34 80.5t-90 31.5q-46 0 -77.5 -20t-31.5 -47v-31h-92v60q0 43 35 74t80 43.5t90 12.5q97 0 159.5 -56.5t62.5 -146.5q0 -67 -37 -119t-89.5 -84.5t-105 -61t-89.5 -65t-37 -80.5
q0 -19 25 -19h251q22 0 22 22v45h92v-89q0 -34 -15 -49t-49 -15h-362q-40 0 -53.5 18t-13.5 63z" />
    <glyph glyph-name="three.tnum" 
d="M44 87l54 75q8 -9 23 -22.5t61.5 -35.5t94.5 -22q59 0 100 36.5t41 92.5q0 57 -44.5 91.5t-108.5 34.5h-49l-22 53l147 185q9 13 19.5 24.5t16.5 16.5l6 5v2q-21 -3 -60 -3h-137q-22 0 -22 -22v-45h-91v89q0 34 13.5 49t46.5 15h372v-63l-185 -224q79 -9 139.5 -61
t60.5 -146q0 -92 -68 -158t-175 -66q-41 0 -80 10t-65.5 24.5t-47 29.5t-30.5 25z" />
    <glyph glyph-name="four.tnum" 
d="M13 187v64l319 455h114v-433h110v-86h-110v-187h-100v187h-333zM122 270q29 3 60 3h165v243l4 72h-2q-17 -33 -35 -59l-156 -212l-36 -45v-2z" />
    <glyph glyph-name="five.tnum" 
d="M51 87l55 73q2 -3 6.5 -8.5t20 -19t33 -23.5t46 -18.5t58.5 -8.5q66 0 109 40.5t43 100.5q0 64 -48.5 104t-118.5 40q-35 0 -69 -9t-50 -18l-16 -9l-41 19l28 292q3 35 17 49.5t47 14.5h247q33 0 48 -15t15 -49v-89h-91v45q0 22 -22 22h-148q-19 0 -22 -22l-14 -129
l-5 -37h2q39 21 91 21q113 0 182.5 -66.5t69.5 -165.5q0 -96 -71 -164.5t-183 -68.5q-41 0 -78.5 10t-62 24.5t-43 29.5t-26.5 25z" />
    <glyph glyph-name="six.tnum" 
d="M310 -12q-114 0 -189 89.5t-75 235.5q0 72 19.5 141.5t57 129.5t100.5 97t141 37q37 0 71.5 -7t50.5 -15l15 -7l-32 -85q-44 23 -100 23q-91 0 -145 -70.5t-67 -171.5h2q20 31 64 50t92 19q98 0 160 -66t62 -164q0 -104 -64 -170t-163 -66zM151 271q0 -71 47 -131.5
t112 -60.5q59 0 94 41t35 104q0 65 -39 105.5t-106 40.5q-58 0 -100.5 -30t-42.5 -69z" />
    <glyph glyph-name="seven.tnum" 
d="M94 0l299 556l41 65v2q-16 -3 -51 -3h-213q-22 0 -22 -22v-45h-91v89q0 34 13.5 49t46.5 15h430v-68l-343 -638h-110z" />
    <glyph glyph-name="eight.tnum" 
d="M42 202q0 32 12 63t29 51.5t34.5 36t29.5 23.5l12 7v2q-4 2 -9.5 5.5t-20.5 17t-26.5 28.5t-21 40.5t-9.5 52.5q0 78 59 133.5t161 55.5q100 0 160.5 -53.5t60.5 -137.5q0 -46 -21.5 -88t-43.5 -61l-21 -19v-2q106 -61 106 -162q0 -85 -69.5 -146t-175.5 -61
q-102 0 -174 59.5t-72 154.5zM286 416q37 -17 54 -17q20 0 47.5 39t27.5 83q0 48 -34 77t-89 29q-56 0 -89 -28.5t-33 -71.5q0 -42 28.5 -65t87.5 -46zM143 207q0 -57 42.5 -92.5t102.5 -35.5q58 0 100.5 34t42.5 85q0 42 -29.5 67t-88.5 49q-64 26 -73 26
q-24 0 -60.5 -41.5t-36.5 -91.5z" />
    <glyph glyph-name="nine.tnum" 
d="M74 17l32 86q45 -24 101 -24q90 0 145 71t67 172h-2q-21 -32 -64.5 -50.5t-91.5 -18.5q-99 0 -161 65.5t-62 163.5q0 104 64 170t163 66q114 0 189 -89.5t75 -235.5q0 -72 -19.5 -141.5t-57 -129.5t-100 -97t-141.5 -37q-37 0 -71.5 7t-49.5 15zM281 336q58 0 100.5 30
t42.5 69q0 71 -46.5 131.5t-111.5 60.5q-60 0 -95 -41t-35 -104q0 -64 39 -105t106 -41z" />
    <glyph glyph-name="hyphen.case" horiz-adv-x="410" 
d="M59 305v86h292v-86h-292z" />
    <glyph glyph-name="parenleft.case" horiz-adv-x="271" 
d="M159 -65q-118 182 -118 424q0 232 113 406h85q-110 -184 -110 -399q0 -230 115 -431h-85z" />
    <glyph glyph-name="parenright.case" horiz-adv-x="271" 
d="M27 -65q115 201 115 431q0 215 -110 399h85q113 -174 113 -406q0 -241 -117 -424h-86z" />
    <glyph glyph-name="bracketleft.case" horiz-adv-x="282" 
d="M78 -1v702q0 34 15 49t49 15h102v-73h-59q-22 0 -22 -22v-639q0 -22 22 -22h59v-74h-102q-34 0 -49 15t-15 49z" />
    <glyph glyph-name="bracketright.case" horiz-adv-x="282" 
d="M39 9h58q22 0 22 22v639q0 22 -22 22h-58v73h101q34 0 49.5 -15t15.5 -49v-702q0 -34 -15.5 -49t-49.5 -15h-101v74z" />
    <glyph glyph-name="braceleft.case" horiz-adv-x="323" 
d="M110 107v96q0 29 -9 50.5t-21 32t-24.5 17t-21.5 7.5l-9 2v86q3 0 9 1t20.5 8t26 18t20.5 33t9 51v84q0 45 12.5 78.5t30 51t42 28.5t42 13.5t35.5 2.5l23 -1v-74h-14q-13 0 -24.5 -3.5t-27 -13t-25 -32t-9.5 -56.5v-103q0 -28 -8.5 -51t-20.5 -36.5t-23.5 -23
t-20.5 -13.5l-8 -3v-2q3 -1 8.5 -3t19.5 -12t24.5 -23t19.5 -36.5t9 -52.5v-115q0 -34 9.5 -56.5t25 -32t27 -13t24.5 -3.5h14v-74q-9 -2 -23 -2q-18 0 -35.5 2.5t-42 13.5t-42 28.5t-30 51.5t-12.5 79z" />
    <glyph glyph-name="braceright.case" horiz-adv-x="323" 
d="M28 8h14q13 0 24.5 3.5t27 13t25 32t9.5 56.5v115q0 29 8.5 52.5t20 37t23.5 22.5t20 12l9 3v2q-3 1 -8.5 3.5t-19.5 12.5t-24.5 23t-19.5 36.5t-9 51.5v103q0 34 -9.5 56.5t-25 32t-27 13t-24.5 3.5h-14v74q9 1 23 1q18 0 35.5 -2.5t42 -13.5t42 -28.5t30 -51
t12.5 -78.5v-84q0 -29 9 -51t21 -33t24.5 -17.5t21.5 -7.5l9 -2v-86q-3 0 -9 -1t-20.5 -8t-26 -17.5t-20.5 -32t-9 -50.5v-96q0 -45 -12.5 -79t-30 -51.5t-42 -28.5t-42 -13.5t-35.5 -2.5l-23 2v74z" />
    <glyph glyph-name="at.case" horiz-adv-x="782" 
d="M48 352q0 155 106 262.5t259 107.5q135 0 197.5 -57.5t62.5 -146.5v-283h72v-73h-273q-91 0 -149 55.5t-58 133.5q0 77 57.5 132.5t149.5 55.5h108q-2 45 -44.5 74t-117.5 29q-115 0 -194 -86t-79 -204q0 -121 79.5 -204.5t204.5 -83.5v-79q-166 0 -273.5 106t-107.5 261
zM363 353q0 -49 33 -83.5t83 -34.5h101v237h-99q-51 0 -84.5 -35t-33.5 -84z" />
    <glyph glyph-name="guillemotleft.case" horiz-adv-x="549" 
d="M406 137l-164 205l164 206h97l-164 -206l164 -205h-97zM204 137l-164 205l164 206h97l-164 -206l164 -205h-97z" />
    <glyph glyph-name="guillemotright.case" horiz-adv-x="549" 
d="M248 137l164 205l-164 206h97l164 -206l-164 -205h-97zM46 137l164 205l-164 206h97l164 -206l-164 -205h-97z" />
    <glyph glyph-name="guilsinglleft.case" horiz-adv-x="348" 
d="M204 137l-164 205l164 206h97l-164 -206l164 -205h-97z" />
    <glyph glyph-name="guilsinglright.case" horiz-adv-x="348" 
d="M46 137l164 205l-164 206h97l164 -206l-164 -205h-97z" />
    <glyph glyph-name="endash.case" horiz-adv-x="646" 
d="M60 306v78h526v-78h-526z" />
    <glyph glyph-name="emdash.case" horiz-adv-x="846" 
d="M60 306v78h726v-78h-726z" />
    <glyph glyph-name="periodcentered.case" horiz-adv-x="217" 
d="M59 294v103h99v-103h-99z" />
    <glyph glyph-name="questiondown.case" horiz-adv-x="464" 
d="M218 609v97h100v-97h-100zM44 170q0 46 18 82.5t44 61t52.5 47t44.5 51t18 61.5v39h94v-45q0 -42 -17.5 -77t-42.5 -58.5t-49.5 -45.5t-42 -49.5t-17.5 -58.5q0 -42 32.5 -71t81.5 -29q28 0 56.5 11t43.5 21l14 11l53 -69q-3 -3 -8 -7t-22 -15t-36 -19.5t-48 -15.5
t-60 -7q-88 0 -148.5 50.5t-60.5 131.5z" />
    <glyph glyph-name="exclamdown.case" horiz-adv-x="268" 
d="M84 609v97h99v-97h-99zM84 0l7 512h87l6 -512h-100z" />
    <glyph glyph-name="bullet.case" horiz-adv-x="453" 
d="M227 198q-64 0 -109.5 45.5t-45.5 109.5q0 65 45 110t110 45q64 0 109 -45.5t45 -109.5t-45 -109.5t-109 -45.5z" />
    <glyph glyph-name="uni0433.BUL" horiz-adv-x="443" 
d="M33 125q0 46 28 80t68 53.5t80 36t68 38t28 49.5q0 27 -23 41.5t-59 14.5t-62.5 -12.5t-26.5 -33.5v-21h-87v45q0 51 54 76.5t124 25.5q77 0 126.5 -33t49.5 -99q0 -47 -28 -81.5t-67.5 -54t-79 -36.5t-67.5 -38.5t-28 -49.5t23 -42.5t60 -14.5q51 0 94.5 22.5t59.5 39.5
l48 -65q-12 -13 -31.5 -27.5t-68 -32.5t-102.5 -18q-79 0 -130 36t-51 101z" />
    <glyph glyph-name="uni0434.BUL" horiz-adv-x="594" 
d="M114 -90q63 -34 138 -34q72 0 116.5 34.5t44.5 106.5v34l1 32h-2q-47 -77 -150 -77t-165 73.5t-62 185.5t59.5 182.5t162.5 70.5q36 0 65.5 -8t47 -20t29.5 -23.5t17 -19.5l4 -8h2q-1 8 -1 16q0 51 57 51h94v-83h-41q-22 0 -22 -20v-382q0 -60 -21.5 -106t-58 -72.5
t-81 -39.5t-94.5 -13q-90 0 -172 42zM281 90q59 0 96.5 41t37.5 133q0 170 -143 170q-65 0 -101.5 -44.5t-36.5 -122.5q0 -80 39.5 -128.5t107.5 -48.5z" />
    <glyph glyph-name="uni0436.BUL" horiz-adv-x="764" 
d="M16 0l121 208q11 19 25.5 31t23.5 15l9 3v2q-24 7 -40 40l-52 104q-9 20 -45 20h-26v83h60q37 0 54 -8.5t31 -38.5l65 -131q16 -30 58 -30h35v408h94v-408h34q44 0 58 30l65 131q15 30 31.5 38.5t53.5 8.5h61v-83h-27q-20 0 -29.5 -4t-15.5 -16l-51 -104q-7 -15 -17 -25
t-16 -12l-7 -3v-2q33 -7 58 -49l121 -208h-112l-101 176q-23 41 -71 41h-35v-217h-94v217h-35q-47 0 -72 -41l-99 -176h-113z" />
    <glyph glyph-name="uni0438.BUL" horiz-adv-x="618" 
d="M80 182v219q0 22 -22 22h-41v83h95q34 0 49 -15t15 -47v-240q0 -60 20 -93t75 -33q75 0 120 56t45 135v237h97v-401q0 -22 22 -22h41v-83h-93q-64 0 -64 56v19l1 29h-2q-19 -44 -68.5 -80t-117.5 -36q-86 0 -129 47.5t-43 146.5z" />
    <glyph glyph-name="uni0439.BUL" horiz-adv-x="618" 
d="M80 182v219q0 22 -22 22h-41v83h95q34 0 49 -15t15 -47v-240q0 -60 20 -93t75 -33q75 0 120 56t45 135v237h97v-401q0 -22 22 -22h41v-83h-93q-64 0 -64 56v19l1 29h-2q-19 -44 -68.5 -80t-117.5 -36q-86 0 -129 47.5t-43 146.5zM305 564q-61 0 -104.5 34.5t-43.5 93.5
v15h78v-14q0 -31 21 -48.5t49 -17.5q29 0 50 17.5t21 49.5v13h77v-15q0 -59 -43 -93.5t-105 -34.5z" />
    <glyph glyph-name="uni043A.BUL" horiz-adv-x="515" 
d="M67 0v601q0 22 -22 22h-41v83h95q35 0 50 -12.5t15 -45.5v-328h45q36 0 52 22l117 164h112l-138 -188q-10 -14 -19.5 -23.5t-14.5 -12.5l-4 -2v-2q17 -6 34 -38l75 -137q11 -20 44 -20h30v-83h-70q-35 0 -51 9t-32 38l-93 170q-11 21 -50 21h-37v-238h-97z" />
    <glyph glyph-name="uni043B.BUL" horiz-adv-x="519" 
d="M15 0v83h12q22 0 30 19l143 404h119l143 -404q6 -19 31 -19h11v-83h-53q-32 0 -48.5 11t-26.5 39l-94 282l-23 81h-2q-13 -51 -23 -81l-94 -282q-10 -28 -26.5 -39t-48.5 -11h-50z" />
    <glyph glyph-name="uni043F.BUL" horiz-adv-x="623" 
d="M85 0v401q0 22 -22 22h-41v83h93q64 0 64 -56v-19l-2 -29h2q20 43 68.5 79.5t122.5 36.5q173 0 173 -194v-219q0 -22 22 -22h41v-83h-96q-34 0 -49 15t-15 49v238q0 61 -19.5 94t-75.5 33q-57 0 -100.5 -34.5t-59.5 -89.5q-9 -26 -9 -68v-237h-97z" />
    <glyph glyph-name="uni0442.BUL" horiz-adv-x="934" 
d="M85 0v401q0 22 -22 22h-41v83h93q64 0 64 -56v-19l-1 -29h2q19 47 67.5 81.5t105.5 34.5q126 0 153 -115h2q21 48 70.5 81.5t108.5 33.5q167 0 167 -194v-219q0 -22 22 -22h41v-83h-96q-34 0 -49 15t-15 49v239q0 61 -18.5 94t-70.5 33q-50 0 -89 -38t-52 -92
q-9 -31 -9 -69v-231h-97v303q0 60 -17.5 93.5t-69.5 33.5t-91 -38.5t-54 -95.5q-7 -28 -7 -65v-231h-97z" />
    <glyph glyph-name="uni0446.BUL" horiz-adv-x="632" 
d="M80 182v219q0 22 -22 22h-41v83h95q34 0 49 -15t15 -47v-240q0 -60 20 -93t75 -33q75 0 120 56t45 135v237h97v-401q0 -22 22 -22h60v-203h-89v120h-23q-64 0 -64 56v19l1 29h-2q-19 -44 -68.5 -80t-117.5 -36q-86 0 -129 47.5t-43 146.5z" />
    <glyph glyph-name="uni0448.BUL" horiz-adv-x="934" 
d="M849 506v-401q0 -22 22 -22h41v-83h-93q-64 0 -64 56v19l1 29h-2q-19 -47 -67.5 -81.5t-105.5 -34.5q-126 0 -153 115h-2q-21 -48 -70.5 -81.5t-108.5 -33.5q-167 0 -167 194v219q0 22 -22 22h-41v83h96q34 0 49 -15t15 -49v-239q0 -61 18.5 -94t70.5 -33q50 0 89 38
t52 92q9 31 9 69v231h97v-303q0 -60 17.5 -93.5t69.5 -33.5t91 38.5t54 95.5q7 28 7 65v231h97z" />
    <glyph glyph-name="uni0449.BUL" horiz-adv-x="950" 
d="M849 506v-401q0 -22 22 -22h70v-203h-90v120h-32q-64 0 -64 56v19l1 29h-2q-19 -47 -67.5 -81.5t-105.5 -34.5q-126 0 -153 115h-2q-21 -48 -70.5 -81.5t-108.5 -33.5q-167 0 -167 194v219q0 22 -22 22h-41v83h96q34 0 49 -15t15 -49v-239q0 -61 18.5 -94t70.5 -33
q50 0 89 38t52 92q9 31 9 69v231h97v-303q0 -60 17.5 -93.5t69.5 -33.5t91 38.5t54 95.5q7 28 7 65v231h97z" />
    <glyph glyph-name="uni044A.BUL" horiz-adv-x="617" 
d="M182 182v224q0 22 -21 22h-47q-22 0 -22 -22v-38h-74v76q0 34 15 48t49 14h132q65 0 65 -62v-77q0 -28 -2 -48l2 1q46 55 132 55q81 0 131.5 -50.5t50.5 -142.5q0 -86 -57 -140t-154 -54q-101 0 -150.5 53.5t-49.5 140.5zM278 180q0 -50 28 -83t78 -33q49 0 80 30.5
t31 84.5q0 62 -30 89.5t-78 27.5q-49 0 -79 -32t-30 -84z" />
    <glyph glyph-name="uni044C.BUL" horiz-adv-x="515" 
d="M79 182v219q0 22 -20 22h-43v83h96q34 0 49 -15t15 -47v-77q0 -28 -2 -48l2 1q48 55 133 55q81 0 131.5 -50.5t50.5 -142.5q0 -86 -57 -140t-154 -54q-101 0 -151 54t-50 140zM176 180q0 -51 28 -83.5t78 -32.5q49 0 80 30.5t31 84.5q0 62 -30 89.5t-78 27.5
q-49 0 -79 -31.5t-30 -84.5z" />
    <glyph glyph-name="uni044E.BUL" horiz-adv-x="811" 
d="M67 0v601q0 22 -22 22h-41v83h95q34 0 49.5 -15t15.5 -49v-349h92q13 99 85 162t173 63q112 0 188 -75t76 -189q0 -115 -76 -190.5t-188 -75.5q-101 0 -173.5 64t-85.5 165h-91v-217h-97zM349 254q0 -79 47.5 -130.5t117.5 -51.5t118 51.5t48 130.5q0 78 -48 129t-118 51
t-117.5 -51t-47.5 -129z" />
    <glyph glyph-name="uni0432.BUL" horiz-adv-x="572" 
d="M55 242v192q0 124 66 204t182 80q80 0 129 -40t49 -99q0 -97 -122 -156v-2q43 -4 82.5 -23.5t69 -63.5t29.5 -104q0 -107 -68.5 -174.5t-179.5 -67.5q-115 0 -176 72t-61 182zM150 368h2q20 35 74 63l59 29q54 27 77 52.5t23 60.5q0 32 -27 52t-65 20q-68 0 -105.5 -50.5
t-37.5 -130.5v-96zM150 223q0 -74 40 -114t101 -40q64 0 106.5 41t42.5 117q0 68 -43 100.5t-102 32.5q-56 0 -100.5 -35t-44.5 -102z" />
    <glyph glyph-name="uni0437.BUL" horiz-adv-x="448" 
d="M53 -83q63 -42 126 -42t100.5 38.5t37.5 97.5q0 60 -39.5 92.5t-116.5 32.5h-52v79h49q60 0 99.5 32t39.5 89q0 47 -29 75.5t-83 28.5q-32 0 -57 -11.5t-25 -31.5v-25h-87v48q0 50 52.5 74t120.5 24q99 0 152.5 -48t53.5 -122q1 -55 -29 -99t-78 -66v-2
q65 -22 96.5 -67.5t31.5 -104.5q0 -97 -65 -158t-164 -61q-98 0 -171 51z" />
    <glyph glyph-name="uni0414.ALT" horiz-adv-x="704" 
d="M10 23q0 35 14 49t49 14h13l213 620h106l213 -620h13q34 0 48.5 -14.5t14.5 -48.5v-163h-90v118q0 22 -21 22h-462q-21 0 -21 -22v-118h-90v163zM188 86h325l-137 415l-25 98h-2q-14 -62 -25 -98z" />
    <glyph glyph-name="uni041B.ALT" horiz-adv-x="648" 
d="M12 0v86h15q26 0 33 22l209 598h110l208 -598q9 -22 34 -22h15v-86h-57q-38 0 -54.5 11.5t-27.5 46.5l-147 433l-27 103h-2q-15 -66 -27 -103l-147 -433q-11 -35 -27 -46.5t-54 -11.5h-54z" />
    </font>
</defs>
</svg>
