<svg width="32" height="32" viewBox="0 0 32 32" fill="none" xmlns="http://www.w3.org/2000/svg">
<g clip-path="url(#clip0)">
<path d="M16 32.0005C7.17725 32.0005 0 24.8232 0 16.0005C0 7.17773 7.17725 0.000488281 16 0.000488281C24.8228 0.000488281 32 7.17773 32 16.0005C32 24.8232 24.8228 32.0005 16 32.0005ZM16 2.00049C8.28003 2.00049 2 8.28052 2 16.0005C2 23.7205 8.28003 30.0005 16 30.0005C23.72 30.0005 30 23.7205 30 16.0005C30 8.28052 23.72 2.00049 16 2.00049Z" fill="#CDD9E8"/>
<path d="M11.0081 22.0005C10.7499 22.0005 10.4916 21.9025 10.2954 21.7048C9.90153 21.311 9.90153 20.6724 10.2954 20.2785L20.278 10.2959C20.6721 9.90202 21.3107 9.90202 21.7046 10.2959C22.0985 10.6898 22.0985 11.3284 21.7046 11.7225L11.7218 21.7048C11.5229 21.9025 11.2649 22.0005 11.0081 22.0005Z" fill="#CDD9E8"/>
<path d="M20.9905 22.0005C20.7325 22.0005 20.4743 21.9025 20.2781 21.7048L10.2956 11.7226C9.90147 11.3287 9.90147 10.69 10.2956 10.2961C10.6895 9.90195 11.3281 9.90195 11.7219 10.2961L21.7044 20.2795C22.0985 20.6735 22.0985 21.3121 21.7044 21.706C21.507 21.9025 21.2487 22.0005 20.9905 22.0005Z" fill="#CDD9E8"/>
</g>
<defs>
<clipPath id="clip0">
<path d="M0 0.000488281H32V32.0005H0V0.000488281Z" fill="white"/>
</clipPath>
</defs>
</svg>
