<svg width="32" height="32" viewBox="0 0 32 32" fill="none" xmlns="http://www.w3.org/2000/svg">
<g clip-path="url(#clip0)">
<circle cx="15.5" cy="15.5005" r="15.5" fill="#43BE83"/>
<path d="M16 32.0005C7.17725 32.0005 0 24.8232 0 16.0005C0 7.17773 7.17725 0.000488281 16 0.000488281C24.8228 0.000488281 32 7.17773 32 16.0005C32 24.8232 24.8228 32.0005 16 32.0005ZM16 2.00049C8.28003 2.00049 2 8.28052 2 16.0005C2 23.7205 8.28003 30.0005 16 30.0005C23.72 30.0005 30 23.7205 30 16.0005C30 8.28052 23.72 2.00049 16 2.00049Z" fill="#43BE83"/>
<path d="M14.3323 22.0005C14.0762 22.0005 13.8204 21.9003 13.6256 21.6981L9.29293 17.2298C8.90236 16.8268 8.90236 16.1737 9.29293 15.7709C9.6835 15.3681 10.3167 15.3681 10.7075 15.7709L14.3335 19.5107L22.2927 11.3026C22.6833 10.8998 23.3165 10.8998 23.7071 11.3026C24.0976 11.7054 24.0976 12.3584 23.7071 12.7612L15.0414 21.6981C14.8442 21.9003 14.5884 22.0005 14.3323 22.0005Z" fill="white"/>
</g>
<defs>
<clipPath id="clip0">
<path d="M0 0.000488281H32V32.0005H0V0.000488281Z" fill="white"/>
</clipPath>
</defs>
</svg>
