<svg xmlns="http://www.w3.org/2000/svg" width="52" height="52" viewBox="0 0 52 52"><g><g><g><path fill="#7189da" d="M26 52c14.36 0 26-11.64 26-26S40.36 0 26 0 0 11.64 0 26s11.64 26 26 26z"/></g><g><path fill="#fff" d="M40 32.381S38.035 35.833 32.926 36c0 0-.832-1.024-1.525-1.929 3.028-.88 4.184-2.833 4.184-2.833a13.087 13.087 0 0 1-2.659 1.405c-4.98 2.154-10.522 1.417-14.424-.833-.047-.033-.608-.35-.948-.596 0 0 1.11 1.905 4.045 2.81-.693.905-1.548 1.976-1.548 1.976C14.94 35.833 13 32.381 13 32.381c0-7.666 3.329-13.88 3.329-13.88 3.329-2.572 6.495-2.5 6.495-2.5l.232.285c-4.161 1.238-6.08 3.12-6.08 3.12s.509-.287 1.364-.691c5.326-2.41 11.777-2.41 17.268.69 0 0-1.826-1.786-5.756-3.024l.324-.38s3.166-.072 6.495 2.5c0 0 3.329 6.214 3.329 13.88zm-9.39-7.5c-1.315 0-2.353 1.19-2.353 2.643 0 1.452 1.061 2.643 2.353 2.643 1.315 0 2.353-1.19 2.353-2.643 0-1.452-1.038-2.643-2.353-2.643zm-8.433 0c-1.317 0-2.358 1.19-2.358 2.643 0 1.452 1.064 2.643 2.358 2.643 1.318 0 2.358-1.19 2.358-2.643.023-1.452-1.04-2.643-2.358-2.643z"/></g></g></g></svg>