<svg xmlns="http://www.w3.org/2000/svg" width="16" height="22" viewBox="0 0 16 22"><g><g transform="rotate(10 8 11)"><g><path fill="#898da4" d="M14.95 4.537A5 5 0 0 0 9.7-.173a5.31 5.31 0 0 0-5.25 5.09 1 1 0 0 0 .06.33 1 1 0 0 0-.06.33v8.85a3.5 3.5 0 1 0 7 0v-7.38a1 1 0 0 0-2 0v7.38a1.5 1.5 0 1 1-3 0v-8.86a1 1 0 0 0-.06-.33 1 1 0 0 0 .06-.32 3.31 3.31 0 0 1 3.25-3.09 3 3 0 0 1 3.25 2.71 1 1 0 0 0 0 .29 1 1 0 0 0 0 .27v10.3a4.76 4.76 0 0 1-5 4.43 4.76 4.76 0 0 1-5-4.47v-8.31a1 1 0 0 0-2 0v8.86a1 1 0 0 0 .07.36 6.84 6.84 0 0 0 6.93 5.56 6.84 6.84 0 0 0 6.93-5.56 1 1 0 0 0 .07-.36V5.077a1 1 0 0 0 0-.25 1 1 0 0 0 0-.29z"/></g></g></g></svg>