<svg xmlns="http://www.w3.org/2000/svg" width="72" height="72" viewBox="0 0 72 72"><defs><linearGradient id="rau1a" x1="0" x2="72" y1="0" y2="72" gradientUnits="userSpaceOnUse"><stop offset="0" stop-color="#f17b41"/><stop offset=".5" stop-color="#e05ba2"/><stop offset="1" stop-color="#cd4bc9"/></linearGradient></defs><g><g><g><path fill="url(#rau1a)" d="M36 72c19.882 0 36-16.118 36-36S55.882 0 36 0 0 16.118 0 36s16.118 36 36 36z"/></g><g><g><path fill="#fff" d="M45.658 34.299a1.537 1.537 0 1 1 0-3.073 1.537 1.537 0 0 1 0 3.073zm-3.072 3.072a1.537 1.537 0 1 1 0-3.073 1.537 1.537 0 0 1 0 3.073zm-3.072-3.072a1.537 1.537 0 1 1 0-3.073 1.537 1.537 0 0 1 0 3.073zm-6.144 1.536h-1.536v1.536a1.536 1.536 0 1 1-3.072 0v-1.536h-1.536a1.536 1.536 0 1 1 0-3.072h1.536v-1.536a1.536 1.536 0 1 1 3.072 0v1.536h1.536a1.536 1.536 0 1 1 0 3.072zm9.216-7.68c.848 0 1.536.69 1.536 1.54 0 .852-.688 1.542-1.536 1.542-.848 0-1.536-.69-1.536-1.541 0-.85.688-1.541 1.536-1.541zm7.62-1.5c-.03-.09-.063-.234-.102-.397-.253-1.03-.491-2.005-1.433-2.364l-4.47-1.7a2.804 2.804 0 0 0-2.601.322l-.277.248c-.224.256-.528.577-.745.783h-8.236a12.86 12.86 0 0 1-.631-.728l-.32-.3a2.79 2.79 0 0 0-2.6-.325l-4.474 1.7c-.937.356-1.172 1.32-1.423 2.34-.038.156-.07.297-.058.297l.003-.001c-1.524 3.004-8.77 18.214-1.986 22.703.97.642 2.262.541 3.146-.248l5.317-4.768a2.511 2.511 0 0 1 1.676-.653h11.005c.612 0 1.206.232 1.676.653l5.318 4.768c.5.448 1.124.677 1.748.677.5 0 1-.149 1.431-.453 5.988-4.201.593-17.239-1.964-22.553z"/></g></g></g></g></svg>