<svg xmlns="http://www.w3.org/2000/svg" width="76" height="76" viewBox="0 0 76 76"><defs><linearGradient id="on1ea" x1="7" x2="69" y1="7" y2="69" gradientUnits="userSpaceOnUse"><stop offset="0" stop-color="#622774"/><stop offset="1" stop-color="#c53364"/></linearGradient><linearGradient id="on1eb" x1="7" x2="69" y1="7" y2="69" gradientUnits="userSpaceOnUse"><stop offset="0" stop-color="#622774"/><stop offset="1" stop-color="#c53364"/></linearGradient><linearGradient id="on1ec" x1="22.58" x2="64" y1="12" y2="64" gradientUnits="userSpaceOnUse"><stop offset="0" stop-color="#f45"/><stop offset="1" stop-color="#991328"/></linearGradient><mask id="on1ee" width="2.24" height="2.2" x="-1.12" y="-1.1"><path fill="#fff" d="M29 26h21v24H29z"/><path d="M47.067 39.874l-13.358 7.888C32.51 48.45 31 47.567 31 46.122V29.877c0-1.437 1.503-2.328 2.71-1.64l13.357 8.357c1.244.718 1.244 2.57 0 3.28z"/></mask><filter id="on1ed" width="61" height="64" x="9" y="6" filterUnits="userSpaceOnUse"><feOffset in="SourceGraphic" result="FeOffset1091Out"/><feGaussianBlur in="FeOffset1091Out" result="FeGaussianBlur1092Out" stdDeviation="4 4"/></filter></defs><g><g><g opacity=".53" transform="rotate(45 38 38)"><path fill="url(#on1ea)" d="M7 22.6C7 13.984 13.984 7 22.6 7h30.8C62.016 7 69 13.984 69 22.6v30.8C69 62.016 62.016 69 53.4 69H22.6C13.984 69 7 62.016 7 53.4z"/></g><g opacity=".21" transform="rotate(-12 38 38)"><path fill="url(#on1eb)" d="M69 19c0-6.627-5.373-12-12-12H19C12.373 7 7 12.373 7 19v38c0 6.627 5.373 12 12 12h38c6.627 0 12-5.373 12-12z"/></g><g transform="rotate(23 38 38)"><path fill="url(#on1ec)" d="M12 29c0-9.389 7.611-17 17-17h18c9.389 0 17 7.611 17 17v18c0 9.389-7.611 17-17 17H29c-9.389 0-17-7.611-17-17z"/></g><g><g filter="url(#on1ed)"><path fill="none" stroke="#fff" stroke-opacity=".5" stroke-width="4" d="M47.067 39.874l-13.358 7.888C32.51 48.45 31 47.567 31 46.122V29.877c0-1.437 1.503-2.328 2.71-1.64l13.357 8.357c1.244.718 1.244 2.57 0 3.28z" mask="url(&quot;#on1ee&quot;)"/><path fill="#fff" fill-opacity=".5" d="M47.067 39.874l-13.358 7.888C32.51 48.45 31 47.567 31 46.122V29.877c0-1.437 1.503-2.328 2.71-1.64l13.357 8.357c1.244.718 1.244 2.57 0 3.28z"/></g><path fill="#fff" d="M47.067 39.874l-13.358 7.888C32.51 48.45 31 47.567 31 46.122V29.877c0-1.437 1.503-2.328 2.71-1.64l13.357 8.357c1.244.718 1.244 2.57 0 3.28z"/></g></g></g></svg>