<svg xmlns="http://www.w3.org/2000/svg" width="33" height="31" viewBox="0 0 33 31"><g><g><g><path fill="#8f53ef" d="M8.79 22.251c-.042-.455.082-.91.29-1.2C6.761 17.04 5.52 11.954 7.423 6.66 8.79 2.689 12.224 0 15.949 0c3.972 0 8.11 3.474 8.607 10.174-.621-.207-1.532-.496-2.07-.62-.124-2.192-1.986-7.652-6.372-7.569-1.573.041-3.89.786-5.09 2.316-1.448 1.779-2.276 3.93-2.441 6.41-.249 3.31.455 6.37 2.152 9.183.082-.042.206-.042.29-.042h.082c1.241 0 2.276.993 2.317 2.234a2.314 2.314 0 0 1-2.234 2.398h-.083a2.324 2.324 0 0 1-2.317-2.233zm21.008-5.831c3.102 3.515 3.185 7.65 1.985 10.05-1.116 2.192-4.053 4.384-8.023 4.384-1.737 0-3.557-.455-5.335-1.282a24.435 24.435 0 0 0 1.86-1.49c.828.373 2.4.87 4.054.87 2.564 0 4.508-1.2 5.666-3.392.744-1.448.786-3.143.082-4.88-.827-2.151-2.316-3.93-4.383-5.294-2.689-1.779-5.666-2.689-8.81-2.689h-.744a2.33 2.33 0 0 1-2.027 1.406h-.082a2.323 2.323 0 0 1-2.316-2.233 2.314 2.314 0 0 1 2.233-2.399h.083c.868 0 1.654.497 2.026 1.241h.662c5.294 0 9.926 2.027 13.07 5.708zm-18.86 13.979c-.826.207-1.653.29-2.48.29-3.061 0-5.832-1.283-7.197-3.35-1.82-2.772-2.44-8.645 3.557-12.987.124.661.372 1.571.538 2.109-.786.579-2.027 1.737-2.813 3.309-1.116 2.192-.992 4.384.331 6.41.91 1.365 2.358 2.192 4.219 2.44 2.274.29 4.549-.124 6.74-1.282 3.227-1.695 5.377-3.722 6.784-6.493-.373-.372-.62-.91-.662-1.53a2.314 2.314 0 0 1 2.233-2.4h.083c1.24 0 2.275.994 2.316 2.234a2.316 2.316 0 0 1-2.068 2.4c-2.275 4.673-6.286 7.816-11.58 8.85z"/></g></g></g></svg>