<svg xmlns="http://www.w3.org/2000/svg" width="52" height="52" viewBox="0 0 52 52"><g><g><g><path fill="#3e6fa1" d="M26 52c14.36 0 26-11.64 26-26S40.36 0 26 0 0 11.64 0 26s11.64 26 26 26z"/></g><g><path fill="#fff" d="M27.216 32.56c.068-1.054.538-2.694 1.712-1.8.709.543 1.272 1.328 1.91 2.017.621.671 1.363 1.257 2.746 1.221.82-.021 3.176.058 3.79-.168 1.854-.68-1.432-3.791-2.234-4.487-.338-.293-.716-.71-1.005-1.02-.358-.382-.53-.77-.246-1.37l1.243-1.769c.369-.407 1.73-2.376 2.06-2.916.474-.777 1.446-2.305.193-2.55-.705-.138-2.994-.01-3.865-.003-1.716.01-1.367-.181-2.213 1.796-.564 1.315-2.304 4.414-3.227 4.767-1.71.656-.372-5.62-1.093-6.705-.438-.658-2.466-.576-3.414-.563-1.102.014-2.626.073-2.947.992.098.085-.01.028.18.106.138.057.352.07.585.196.206.11.394.304.502.479.52.84.457 4.382.027 5.241-.805 1.604-3.156-2.903-3.56-3.706-.575-1.146-.8-2.261-1.452-2.546-.473-.206-3.15-.09-3.87-.079-.66.01-1.228.116-.978.906.126.398.426.959.607 1.36 1.117 2.479 2.862 5.521 4.4 7.583 1.736 2.326 4.302 4.386 7.546 4.413 2.33.019 2.506.123 2.603-1.395"/></g></g></g></svg>