<svg width="46" height="46" viewBox="0 0 46 46" fill="none" xmlns="http://www.w3.org/2000/svg">
<circle cx="23" cy="23" r="23" fill="#B3B3B3" fill-opacity="0.17"/>
<g>
<path d="M34.1853 22.0864L32.551 21.3791L31.1632 18.6786C30.7882 17.9391 30.0273 17.4783 29.1968 17.4837H26.807V16.8085C26.807 15.5868 25.8318 14.5902 24.6101 14.5902H13.1863C11.9646 14.5902 11.0001 15.5922 11.0001 16.8085V27.15C10.9894 27.8948 11.5842 28.5056 12.329 28.5163C12.3343 28.5163 12.3397 28.5163 12.3504 28.5163H12.6344C12.6344 28.5699 12.6291 28.5913 12.6291 28.6235C12.6237 30.1559 13.8614 31.4044 15.3939 31.4098C16.9264 31.4151 18.1748 30.1774 18.1802 28.6449C18.1802 28.6342 18.1802 28.6288 18.1802 28.6181C18.1802 28.5806 18.1802 28.5645 18.1748 28.511H27.4071C27.4071 28.5645 27.4071 28.586 27.4071 28.6181C27.4018 30.1506 28.6395 31.3991 30.172 31.4044C31.7044 31.4098 32.9529 30.172 32.9583 28.6396C32.9583 28.6288 32.9583 28.6235 32.9583 28.6128C32.9583 28.5753 32.9583 28.5592 32.9583 28.5056H33.6495C34.3943 28.5056 34.9998 27.9001 34.9998 27.1553C34.9998 27.15 34.9998 27.1446 34.9998 27.1339V23.3295C35.0105 22.8044 34.689 22.3061 34.1853 22.0864ZM15.41 30.3435C14.4669 30.3435 13.7061 29.5826 13.7061 28.6396C13.7061 27.6965 14.4669 26.9356 15.41 26.9356C16.353 26.9356 17.1139 27.6965 17.1139 28.6396C17.1139 29.5772 16.3477 30.3435 15.41 30.3435ZM25.7353 27.4554H17.923C17.4729 26.4748 16.487 25.8479 15.41 25.8533C14.3276 25.8479 13.3471 26.4695 12.897 27.4554H12.3504C12.1843 27.4554 12.0718 27.3268 12.0718 27.1607V24.4012H25.7353V27.4554ZM25.7353 16.8139V23.3295H12.0718V16.8139C12.0718 16.187 12.5594 15.6672 13.1863 15.6672H24.6101C25.237 15.6726 25.7407 16.187 25.7353 16.8085V16.8139ZM26.807 18.5607H29.1968C29.6201 18.5553 30.0166 18.7857 30.2148 19.1662L31.2865 21.2398H26.807V18.5607ZM30.188 30.3435C29.245 30.3435 28.4841 29.5826 28.4841 28.6396C28.4841 27.6965 29.245 26.9356 30.188 26.9356C31.1311 26.9356 31.892 27.6965 31.892 28.6396C31.892 29.5772 31.1311 30.3435 30.188 30.3435ZM33.9335 27.1607C33.9335 27.3268 33.8209 27.4554 33.6548 27.4554H32.7011C32.0527 26.0676 30.4024 25.4675 29.0146 26.1158C28.4252 26.3891 27.9483 26.866 27.675 27.4554H26.807V22.3115H32.0581L33.762 23.0616C33.8692 23.1152 33.9388 23.2331 33.9335 23.351V27.1607Z" fill="#5F5DDC"/>
</g>
</svg>
