<svg width="46" height="46" viewBox="0 0 46 46" fill="none" xmlns="http://www.w3.org/2000/svg">
<circle cx="23" cy="23" r="23" fill="#B3B3B3" fill-opacity="0.17"/>
<path d="M14.3351 18.5558C14.3273 18.5672 14.3207 18.5791 14.3137 18.5909C14.3074 18.6015 14.3007 18.6119 14.2948 18.6228C14.2884 18.6349 14.2829 18.6474 14.2771 18.6596C14.2717 18.6709 14.2661 18.6821 14.2612 18.6937C14.2563 18.7058 14.2522 18.7181 14.2479 18.7303C14.2434 18.7427 14.2387 18.7549 14.2348 18.7676C14.2311 18.7799 14.2283 18.7925 14.2252 18.805C14.222 18.8178 14.2184 18.8305 14.2158 18.8435C14.2128 18.858 14.2111 18.8727 14.2091 18.8874C14.2075 18.8986 14.2054 18.9095 14.2042 18.9208C14.199 18.9734 14.199 19.0264 14.2042 19.079C14.2054 19.0903 14.2075 19.1013 14.2091 19.1124C14.2111 19.1271 14.2128 19.1418 14.2158 19.1563C14.2184 19.1694 14.222 19.1821 14.2252 19.1948C14.2283 19.2073 14.2311 19.2199 14.2348 19.2322C14.2387 19.2449 14.2434 19.2571 14.2479 19.2695C14.2522 19.2817 14.2563 19.294 14.2612 19.3061C14.2661 19.3177 14.2717 19.3289 14.2771 19.3402C14.2829 19.3525 14.2884 19.3649 14.2948 19.377C14.3007 19.3879 14.3074 19.3983 14.3137 19.4089C14.3207 19.4207 14.3274 19.4326 14.3351 19.4441C14.343 19.456 14.3518 19.4672 14.3605 19.4786C14.3676 19.488 14.3741 19.4977 14.3816 19.5068C14.3984 19.5272 14.416 19.547 14.4348 19.5656L18.4346 23.5655C18.5908 23.7218 18.7955 23.7999 19.0003 23.7999C19.205 23.7999 19.4098 23.7218 19.5659 23.5655C19.8783 23.2532 19.8783 22.7466 19.5659 22.4342L16.9316 19.7999H31.0001C31.4419 19.7999 31.8001 19.4418 31.8001 18.9999C31.8001 18.5581 31.4419 18.1999 31.0001 18.1999H16.9316L19.5659 15.5656C19.8783 15.2532 19.8783 14.7467 19.5659 14.4343C19.2535 14.1218 18.747 14.1218 18.4346 14.4343L14.4348 18.4341C14.416 18.4528 14.3983 18.4725 14.3816 18.493C14.374 18.5021 14.3675 18.5118 14.3605 18.5212C14.3519 18.5326 14.343 18.5439 14.3351 18.5558Z" fill="#5F5DDC"/>
<path d="M31.7909 26.8873C31.7889 26.8726 31.7872 26.8579 31.7842 26.8434C31.7816 26.8303 31.778 26.8177 31.7749 26.8049C31.7717 26.7924 31.7689 26.7798 31.7652 26.7675C31.7613 26.7548 31.7566 26.7426 31.7521 26.7302C31.7478 26.718 31.7437 26.7057 31.7388 26.6937C31.7339 26.682 31.7283 26.6709 31.7229 26.6596C31.7171 26.6473 31.7116 26.6348 31.7052 26.6228C31.6993 26.6119 31.6926 26.6015 31.6863 26.5908C31.6793 26.5791 31.6726 26.5672 31.6649 26.5557C31.657 26.5438 31.6482 26.5326 31.6395 26.5212C31.6324 26.5118 31.6259 26.5021 31.6184 26.4929C31.6016 26.4725 31.5839 26.4528 31.5652 26.4341L27.5654 22.4343C27.253 22.1218 26.7465 22.1218 26.4341 22.4343C26.1216 22.7466 26.1216 23.2532 26.4341 23.5656L29.0684 26.1998H15C14.5581 26.1998 14.2 26.558 14.2 26.9998C14.2 27.4416 14.5581 27.7998 15 27.7998H29.0684L26.4341 30.4341C26.1217 30.7465 26.1217 31.253 26.4341 31.5654C26.5903 31.7216 26.7951 31.7997 26.9998 31.7997C27.2045 31.7997 27.4093 31.7217 27.5654 31.5654L31.5652 27.5656C31.584 27.5469 31.6017 27.5272 31.6184 27.5068C31.626 27.4976 31.6325 27.488 31.6395 27.4786C31.6481 27.4672 31.657 27.4559 31.665 27.444C31.6727 27.4325 31.6794 27.4206 31.6863 27.4089C31.6926 27.3983 31.6993 27.3879 31.7052 27.377C31.7117 27.3649 31.7172 27.3525 31.723 27.3401C31.7283 27.3288 31.734 27.3177 31.7388 27.3061C31.7438 27.294 31.7478 27.2817 31.7522 27.2694C31.7566 27.2571 31.7614 27.2449 31.7652 27.2322C31.7689 27.2198 31.7717 27.2073 31.7749 27.1948C31.7781 27.182 31.7817 27.1693 31.7843 27.1563C31.7872 27.1417 31.7889 27.1271 31.7909 27.1124C31.7926 27.1012 31.7947 27.0902 31.7959 27.0789C31.801 27.0263 31.801 26.9734 31.7959 26.9208C31.7946 26.9094 31.7925 26.8984 31.7909 26.8873Z" fill="#5F5DDC"/>
</svg>
