<svg width="46" height="46" viewBox="0 0 46 46" fill="none" xmlns="http://www.w3.org/2000/svg">
<circle cx="23" cy="23" r="23" fill="#B3B3B3" fill-opacity="0.17"/>
<path d="M25.9525 17.7838C25.6916 17.6361 25.3604 17.7279 25.2127 17.9888L19.8423 27.4766C19.6946 27.7375 19.7864 28.0687 20.0473 28.2164C20.1318 28.2642 20.2236 28.287 20.3142 28.287C20.5034 28.287 20.6873 28.1878 20.7871 28.0114L26.1576 18.5236C26.3053 18.2627 26.2135 17.9315 25.9525 17.7838Z" fill="#5F5DDC"/>
<path d="M21.6201 22.2045C21.946 21.6392 22.0323 20.9808 21.8631 20.3506C21.6939 19.7204 21.2894 19.1938 20.7241 18.8679C20.1589 18.5419 19.5006 18.4556 18.8702 18.6248C18.24 18.794 17.7134 19.1985 17.3875 19.7638C17.0615 20.3291 16.9752 20.9875 17.1444 21.6177C17.3137 22.2479 17.7182 22.7744 18.2835 23.1004C18.6597 23.3173 19.077 23.4281 19.4998 23.4281C19.7125 23.4281 19.9265 23.4001 20.1374 23.3434C20.7675 23.1743 21.2941 22.7698 21.6201 22.2045ZM18.8258 22.1599C18.5117 21.9788 18.287 21.6862 18.1929 21.3361C18.0989 20.986 18.1469 20.6202 18.328 20.3062C18.509 19.9921 18.8016 19.7674 19.1517 19.6734C19.2689 19.6419 19.3878 19.6263 19.5059 19.6263C19.7408 19.6263 19.9727 19.6879 20.1816 19.8084C20.4957 19.9895 20.7204 20.2821 20.8144 20.6322C20.9085 20.9823 20.8605 21.3481 20.6794 21.6621C20.4984 21.9761 20.2058 22.2009 19.8557 22.2949C19.5056 22.389 19.1398 22.3409 18.8258 22.1599Z" fill="#5F5DDC"/>
<path d="M27.7163 22.8998C27.151 22.5739 26.4927 22.4876 25.8624 22.6568C25.2322 22.826 24.7056 23.2305 24.3797 23.7958C24.0537 24.3611 23.9674 25.0195 24.1366 25.6497C24.3058 26.2799 24.7104 26.8065 25.2756 27.1324C25.6518 27.3493 26.0691 27.4601 26.4919 27.4601C26.7046 27.4601 26.9186 27.4321 27.1295 27.3754C27.7597 27.2062 28.2863 26.8017 28.6123 26.2364C28.9382 25.6711 29.0245 25.0127 28.8553 24.3826C28.6861 23.7524 28.2816 23.2258 27.7163 22.8998ZM27.6717 25.6941C27.4907 26.0082 27.1981 26.2329 26.848 26.3269C26.4979 26.421 26.1321 26.373 25.8181 26.1919C25.504 26.0108 25.2793 25.7183 25.1852 25.3682C25.0912 25.0181 25.1392 24.6522 25.3203 24.3382C25.5013 24.0242 25.7939 23.7994 26.144 23.7054C26.2612 23.674 26.3801 23.6584 26.4982 23.6584C26.7331 23.6584 26.965 23.72 27.1739 23.8405C27.488 24.0216 27.7127 24.3141 27.8067 24.6643C27.9008 25.0143 27.8528 25.3801 27.6717 25.6941Z" fill="#5F5DDC"/>
<path d="M34.0715 23C34.0715 22.626 34.1768 22.1992 34.2882 21.7473C34.4754 20.9888 34.6875 20.129 34.4155 19.2912C34.1326 18.4201 33.4405 17.8414 32.8299 17.3307C32.4859 17.0431 32.1611 16.7715 31.9576 16.4919C31.7494 16.2057 31.5885 15.8084 31.4183 15.3877C31.1215 14.6545 30.7851 13.8235 30.0545 13.2917C29.3304 12.7648 28.4395 12.7003 27.6533 12.6435C27.1969 12.6105 26.7659 12.5793 26.4221 12.4677C26.1032 12.3642 25.7505 12.1427 25.3772 11.9082C24.6993 11.4825 23.9311 11 22.9999 11C22.0687 11 21.3005 11.4825 20.6227 11.9081C20.2494 12.1426 19.8967 12.3641 19.5778 12.4677C19.234 12.5793 18.8029 12.6104 18.3466 12.6434C17.5605 12.7003 16.6695 12.7647 15.9454 13.2917C15.2148 13.8234 14.8784 14.6545 14.5816 15.3877C14.4113 15.8083 14.2505 16.2057 14.0423 16.4918C13.8387 16.7715 13.5139 17.0431 13.17 17.3307C12.5593 17.8413 11.8672 18.4201 11.5845 19.2911C11.3124 20.1289 11.5245 20.9887 11.7116 21.7472C11.8232 22.1992 11.9284 22.626 11.9284 23C11.9284 23.3739 11.8232 23.8008 11.7116 24.2526C11.5245 25.0112 11.3124 25.871 11.5845 26.7088C11.8672 27.5798 12.5594 28.1586 13.1701 28.6692C13.514 28.9568 13.8388 29.2284 14.0424 29.5081C14.2506 29.7942 14.4114 30.1915 14.5817 30.6122C14.8785 31.3455 15.2148 32.1765 15.9454 32.7082C16.6695 33.2352 17.5605 33.2997 18.3466 33.3564C18.803 33.3895 19.234 33.4207 19.5778 33.5322C19.8967 33.6358 20.2494 33.8573 20.6228 34.0918C21.3006 34.5174 22.0688 34.9999 23 34.9999C23.9312 34.9999 24.6993 34.5174 25.3771 34.0918C25.7505 33.8574 26.1031 33.6359 26.4221 33.5323C26.7659 33.4206 27.197 33.3895 27.6534 33.3564C28.4395 33.2996 29.3305 33.2352 30.0546 32.7082C30.7852 32.1765 31.1215 31.3454 31.4183 30.6122C31.5886 30.1915 31.7494 29.7942 31.9577 29.5081C32.1612 29.2284 32.486 28.9568 32.83 28.6692C33.4406 28.1586 34.1327 27.5798 34.4155 26.7088C34.6876 25.871 34.4755 25.0112 34.2883 24.2526C34.1768 23.8008 34.0715 23.374 34.0715 23ZM32.7071 24.6428C32.8552 25.2431 32.995 25.81 32.8664 26.2059C32.7283 26.6312 32.2702 27.0144 31.7851 27.4199C31.3806 27.7581 30.9624 28.1079 30.6408 28.5498C30.3148 28.9977 30.1083 29.5078 29.9086 30.0012C29.6729 30.5837 29.4502 31.1338 29.0961 31.3915C28.7485 31.6444 28.1594 31.6871 27.5358 31.7321C27.0025 31.7707 26.451 31.8106 25.9191 31.9834C25.408 32.1493 24.952 32.4357 24.5109 32.7127C23.9715 33.0514 23.4621 33.3713 23 33.3713C22.5378 33.3713 22.0283 33.0514 21.4889 32.7127C21.0479 32.4356 20.5918 32.1493 20.0808 31.9833C19.5489 31.8106 18.9974 31.7707 18.4641 31.7321C17.8404 31.6871 17.2514 31.6444 16.9038 31.3915C16.5497 31.1338 16.3271 30.5837 16.0913 30.0012C15.8916 29.5078 15.6852 28.9977 15.3592 28.5498C15.0376 28.1078 14.6193 27.7581 14.2148 27.4199C13.7297 27.0143 13.2715 26.6312 13.1335 26.206C13.0049 25.81 13.1448 25.2431 13.2929 24.6428C13.4228 24.1163 13.5571 23.5719 13.5571 23C13.5571 22.4282 13.4228 21.8837 13.2929 21.3572C13.1448 20.7569 13.0049 20.19 13.1335 19.7941C13.2715 19.3688 13.7297 18.9856 14.2148 18.5801C14.6193 18.2419 15.0375 17.8921 15.3592 17.4502C15.6852 17.0023 15.8916 16.4922 16.0913 15.9988C16.3271 15.4163 16.5497 14.8662 16.9038 14.6085C17.2514 14.3556 17.8405 14.3129 18.4641 14.2679C18.9975 14.2293 19.5489 14.1894 20.0809 14.0167C20.5919 13.8507 21.048 13.5644 21.489 13.2873C22.0283 12.9486 22.5377 12.6286 22.9999 12.6286C23.4621 12.6286 23.9716 12.9486 24.5109 13.2873C24.952 13.5643 25.408 13.8507 25.9191 14.0166C26.451 14.1894 27.0025 14.2292 27.5358 14.2678C28.1594 14.3129 28.7485 14.3555 29.0961 14.6085C29.4501 14.8661 29.6729 15.4163 29.9086 15.9987C30.1083 16.4921 30.3148 17.0022 30.6407 17.4501C30.9624 17.8921 31.3806 18.2418 31.7851 18.58C32.2701 18.9856 32.7283 19.3687 32.8664 19.794C32.995 20.1899 32.8551 20.7569 32.707 21.3572C32.5771 21.8837 32.4428 22.4281 32.4428 23C32.4428 23.5718 32.5771 24.1163 32.7071 24.6428Z" fill="#5F5DDC"/>
</svg>
