<svg xmlns="http://www.w3.org/2000/svg" viewBox="0 0 11.83 11.11"><defs><style>.cls-1{fill:#fff;}</style></defs><g id="Слой_2" data-name="Слой 2"><g id="_1200" data-name="1200"><path class="cls-1" d="M11.2,11.11h-4l0-.23V8.68a1.11,1.11,0,0,0-.37-.84,1.13,1.13,0,0,0-.88-.3,1.19,1.19,0,0,0-1,1.21v2.34l-.23,0h-4A.63.63,0,0,1,0,10.48v-5A.64.64,0,0,1,.21,5L5.6.16a.63.63,0,0,1,.85,0L11.63,5a.63.63,0,0,1,.2.46v5A.63.63,0,0,1,11.2,11.11Zm-3.6-.43h3.6a.21.21,0,0,0,.21-.2v-5a.23.23,0,0,0-.07-.15L6.16.48a.2.2,0,0,0-.28,0L.49,5.34a.21.21,0,0,0-.07.15v5a.21.21,0,0,0,.21.2H4.46V8.75A1.61,1.61,0,0,1,5.89,7.12a1.56,1.56,0,0,1,1.2.4A1.6,1.6,0,0,1,7.6,8.68Z"/></g></g></svg>