<svg width="22" height="22" viewBox="0 0 22 22" fill="none" xmlns="http://www.w3.org/2000/svg">
<path d="M12.9457 11.0002L21.5969 2.34864C22.1344 1.81159 22.1344 0.940191 21.5969 0.403135C21.0594 -0.134378 20.1889 -0.134378 19.6515 0.403135L11.0002 9.05472L2.34854 0.403135C1.81105 -0.134378 0.94061 -0.134378 0.403119 0.403135C-0.134373 0.940191 -0.134373 1.81159 0.403119 2.34864L9.0548 11.0002L0.403119 19.6518C-0.134373 20.1889 -0.134373 21.0603 0.403119 21.5973C0.671864 21.8656 1.02408 22 1.37583 22C1.72759 22 2.0798 21.8656 2.34854 21.5969L11.0002 12.9453L19.6515 21.5969C19.9202 21.8656 20.2724 22 20.6242 22C20.9759 22 21.3281 21.8656 21.5969 21.5969C22.1344 21.0598 22.1344 20.1884 21.5969 19.6514L12.9457 11.0002Z" fill="white"/>
</svg>
