<svg width="17" height="17" viewBox="0 0 17 17" fill="none" xmlns="http://www.w3.org/2000/svg">
<g>
<path d="M11.8626 0.875H4.63935C2.28849 0.875 0.375977 2.78751 0.375977 5.13838V12.3617C0.375977 14.7125 2.28849 16.625 4.63935 16.625H11.8627C14.2134 16.625 16.126 14.7125 16.126 12.3617V5.13838C16.126 2.78751 14.2134 0.875 11.8626 0.875V0.875ZM8.25097 13.0565C5.87631 13.0565 3.94445 11.1246 3.94445 8.74999C3.94445 6.37533 5.87631 4.44347 8.25097 4.44347C10.6256 4.44347 12.5575 6.37533 12.5575 8.74999C12.5575 11.1246 10.6256 13.0565 8.25097 13.0565ZM12.6605 5.45909C11.9587 5.45909 11.3879 4.88832 11.3879 4.18657C11.3879 3.48482 11.9587 2.91392 12.6605 2.91392C13.3622 2.91392 13.9331 3.48482 13.9331 4.18657C13.9331 4.88832 13.3622 5.45909 12.6605 5.45909Z" fill="#A4B5C0"/>
<path d="M8.25115 6.2793C6.88931 6.2793 5.78125 7.38727 5.78125 8.7492C5.78125 10.111 6.88931 11.2191 8.25115 11.2191C9.61309 11.2191 10.7211 10.111 10.7211 8.7492C10.7211 7.38727 9.61309 6.2793 8.25115 6.2793Z" fill="#A4B5C0"/>
<path d="M12.6617 3.83691C12.4692 3.83691 12.3125 3.99361 12.3125 4.18611C12.3125 4.37861 12.4692 4.5353 12.6617 4.5353C12.8543 4.5353 13.011 4.37873 13.011 4.18611C13.011 3.99349 12.8543 3.83691 12.6617 3.83691Z" fill="#A4B5C0"/>
</g>
</svg>
