<svg width="12" height="11" viewBox="0 0 12 11" fill="none" xmlns="http://www.w3.org/2000/svg">
<path d="M1.02071 5.31243L3.58397 6.33275L4.57611 9.73566C4.63959 9.9536 4.88948 10.0342 5.05535 9.88954L6.48415 8.64728C6.63392 8.51713 6.84725 8.51065 7.00377 8.63182L9.58083 10.6272C9.75826 10.7648 10.0096 10.6611 10.0541 10.4324L11.942 0.747706C11.9905 0.497927 11.7604 0.289553 11.5374 0.38154L1.0177 4.70962C0.758099 4.81639 0.760361 5.20838 1.02071 5.31243ZM4.41622 5.78961L9.42579 2.49901C9.51583 2.44005 9.60845 2.56988 9.53114 2.64636L5.39679 6.74503C5.25147 6.88929 5.15773 7.08236 5.13118 7.29192L4.99034 8.40502C4.97169 8.55363 4.77594 8.56839 4.73749 8.42455L4.19585 6.3948C4.13381 6.16329 4.22421 5.916 4.41622 5.78961Z" fill="#A4B5C0"/>
</svg>
