<svg width="28" height="16" viewBox="0 0 28 16" fill="none" xmlns="http://www.w3.org/2000/svg">
<path d="M27.7504 14.0725C27.6752 13.9488 27.2096 12.956 24.9695 10.9154C22.6243 8.77857 22.9393 9.12554 25.764 5.43079C27.4844 3.18062 28.1722 1.80647 27.9569 1.21902C27.7522 0.65905 26.4868 0.806772 26.4868 0.806772L22.2795 0.830819C22.2795 0.830819 21.968 0.789595 21.7352 0.925292C21.5095 1.05927 21.3642 1.36846 21.3642 1.36846C21.3642 1.36846 20.6974 3.11019 19.8083 4.59084C17.934 7.71532 17.1832 7.88022 16.8769 7.68612C16.1646 7.23437 16.3431 5.8688 16.3431 4.90003C16.3431 1.87174 16.8104 0.609237 15.4313 0.282876C14.9727 0.174662 14.6367 0.102519 13.4659 0.090495C11.9643 0.0750357 10.6919 0.095648 9.97262 0.440904C9.49309 0.671074 9.12381 1.18466 9.34958 1.21386C9.62785 1.24994 10.2579 1.38048 10.5922 1.82708C11.0245 2.40251 11.0087 3.69764 11.0087 3.69764C11.0087 3.69764 11.2572 7.26185 10.4294 7.70501C9.86061 8.00904 9.08181 7.38896 7.41043 4.55305C6.55462 3.1016 5.90707 1.49557 5.90707 1.49557C5.90707 1.49557 5.78282 1.19669 5.56055 1.03694C5.29103 0.842843 4.913 0.781006 4.913 0.781006L0.912208 0.805054C0.912208 0.805054 0.311914 0.822231 0.0913974 1.07817C-0.104617 1.30662 0.0756462 1.77727 0.0756462 1.77727C0.0756462 1.77727 3.20838 8.96923 6.75414 12.5953C10.0076 15.919 13.7004 15.7009 13.7004 15.7009H15.3735C15.3735 15.7009 15.8793 15.6459 16.1366 15.3728C16.3746 15.122 16.3658 14.6513 16.3658 14.6513C16.3658 14.6513 16.3326 12.4476 17.3757 12.1229C18.403 11.8034 19.7226 14.2528 21.1209 15.1959C22.178 15.9087 22.9813 15.7524 22.9813 15.7524L26.7214 15.7009C26.7214 15.7009 28.678 15.5823 27.7504 14.0725Z" fill="white"/>
</svg>
