<svg width="28" height="28" viewBox="0 0 28 28" fill="none" xmlns="http://www.w3.org/2000/svg">
<path d="M14.0035 0H13.9965C6.27725 0 0 6.279 0 14C0 17.0625 0.987 19.901 2.66525 22.2057L0.9205 27.4067L6.30175 25.6865C8.5155 27.153 11.1562 28 14.0035 28C21.7227 28 28 21.7192 28 14C28 6.28075 21.7227 0 14.0035 0ZM22.1497 19.7697C21.812 20.7235 20.4715 21.5145 19.4023 21.7455C18.6707 21.9012 17.7153 22.0255 14.4987 20.692C10.3845 18.9875 7.735 14.8067 7.5285 14.5355C7.33075 14.2642 5.866 12.3217 5.866 10.3127C5.866 8.30375 6.88625 7.3255 7.2975 6.9055C7.63525 6.56075 8.1935 6.40325 8.729 6.40325C8.90225 6.40325 9.058 6.412 9.198 6.419C9.60925 6.4365 9.81575 6.461 10.087 7.11025C10.4248 7.924 11.2472 9.933 11.3452 10.1395C11.445 10.346 11.5448 10.626 11.4048 10.8972C11.2735 11.1772 11.158 11.3015 10.9515 11.5395C10.745 11.7775 10.549 11.9595 10.3425 12.215C10.1535 12.4372 9.94 12.6752 10.178 13.0865C10.416 13.489 11.2385 14.8312 12.4495 15.9092C14.0122 17.3005 15.2792 17.745 15.7325 17.934C16.0702 18.074 16.4727 18.0407 16.7195 17.7782C17.0327 17.4405 17.4195 16.8805 17.8132 16.3293C18.0933 15.9337 18.4468 15.8847 18.8178 16.0247C19.1958 16.156 21.196 17.1447 21.6073 17.3495C22.0185 17.556 22.2897 17.654 22.3895 17.8272C22.4875 18.0005 22.4875 18.8142 22.1497 19.7697Z" fill="white"/>
</svg>
