<svg width="13" height="9" viewBox="0 0 13 9" fill="none" xmlns="http://www.w3.org/2000/svg">
<path d="M11.763 1.57813C11.6261 1.05879 11.2247 0.6494 10.7157 0.509558C9.78582 0.25 6.06627 0.25 6.06627 0.25C6.06627 0.25 2.34687 0.25 1.417 0.499717C0.917793 0.639411 0.506637 1.05886 0.369706 1.57813C0.125 2.52668 0.125 4.49386 0.125 4.49386C0.125 4.49386 0.125 6.47096 0.369706 7.4096C0.506783 7.92886 0.908002 8.33825 1.41707 8.47809C2.35666 8.73772 6.06642 8.73772 6.06642 8.73772C6.06642 8.73772 9.78582 8.73772 10.7157 8.48801C11.2248 8.34824 11.6261 7.93885 11.7631 7.41959C12.0078 6.47096 12.0078 4.50385 12.0078 4.50385C12.0078 4.50385 12.0176 2.52668 11.763 1.57813ZM4.88205 6.31121V2.67651L7.97504 4.49386L4.88205 6.31121Z" fill="#A4B5C0"/>
</svg>
