<svg width="46" height="46" viewBox="0 0 46 46" fill="none" xmlns="http://www.w3.org/2000/svg">
    <circle cx="23" cy="23" r="23" fill="#B3B3B3" fill-opacity=".17"/>
    <path d="M25.953 17.784a.543.543 0 00-.74.205l-5.37 9.488a.543.543 0 10.944.534l5.37-9.487a.543.543 0 00-.204-.74zM21.62 22.204a2.427 2.427 0 00.243-1.853 2.426 2.426 0 00-1.139-1.483 2.427 2.427 0 00-1.854-.243c-.63.169-1.157.573-1.483 1.139a2.427 2.427 0 00-.243 1.854c.17.63.574 1.156 1.14 1.482a2.429 2.429 0 001.853.243 2.427 2.427 0 001.483-1.139zm-2.794-.044a1.349 1.349 0 01-.633-.824 1.348 1.348 0 01.135-1.03 1.348 1.348 0 011.178-.68c.235 0 .467.062.676.182.314.181.538.474.632.824.095.35.046.716-.135 1.03a1.348 1.348 0 01-.823.633c-.35.094-.716.046-1.03-.135zM27.716 22.9a2.427 2.427 0 00-1.854-.243c-.63.169-1.156.573-1.482 1.139a2.427 2.427 0 00-.243 1.854c.169.63.573 1.157 1.139 1.482a2.429 2.429 0 001.854.243 2.427 2.427 0 001.482-1.139 2.427 2.427 0 00.243-1.853 2.427 2.427 0 00-1.139-1.483zm-.044 2.794a1.348 1.348 0 01-.824.633c-.35.094-.716.046-1.03-.135a1.349 1.349 0 01-.633-.824 1.348 1.348 0 01.135-1.03 1.348 1.348 0 011.178-.68c.235 0 .467.062.676.182.314.182.539.474.633.824.094.35.046.716-.135 1.03z" fill="#5F5DDC"/>
    <path d="M34.072 23c0-.374.105-.8.216-1.253.187-.758.4-1.618.128-2.456-.283-.87-.975-1.45-1.586-1.96-.344-.288-.669-.56-.872-.84-.209-.285-.37-.683-.54-1.103-.296-.733-.633-1.565-1.363-2.096-.725-.527-1.616-.592-2.402-.649-.456-.033-.887-.064-1.23-.175-.32-.104-.672-.325-1.046-.56C24.7 11.483 23.931 11 23 11c-.931 0-1.7.482-2.377.908-.374.235-.726.456-1.045.56-.344.111-.775.142-1.231.175-.787.057-1.678.122-2.402.649-.73.531-1.067 1.363-1.363 2.096-.17.42-.332.818-.54 1.104-.203.28-.528.551-.872.839-.61.51-1.303 1.09-1.585 1.96-.273.838-.06 1.698.127 2.456.111.452.216.879.216 1.253 0 .374-.105.8-.216 1.253-.188.758-.4 1.618-.127 2.456.282.87.974 1.45 1.585 1.96.344.288.669.56.872.84.209.285.37.683.54 1.103.296.734.633 1.564 1.363 2.096.724.527 1.616.592 2.402.648.456.033.887.065 1.23.176.32.104.672.325 1.046.56.678.425 1.446.908 2.377.908.931 0 1.7-.483 2.377-.908.373-.235.726-.456 1.045-.56.344-.111.775-.142 1.231-.176.787-.056 1.678-.12 2.402-.648.73-.532 1.067-1.363 1.363-2.096.17-.42.331-.818.54-1.104.203-.28.528-.551.872-.839.61-.51 1.303-1.09 1.586-1.96.272-.838.06-1.698-.128-2.456-.111-.452-.216-.879-.216-1.253zm-1.365 1.643c.148.6.288 1.167.16 1.563-.139.425-.597.808-1.082 1.214-.404.338-.823.688-1.144 1.13-.326.448-.533.958-.732 1.451-.236.583-.459 1.133-.813 1.39-.348.253-.937.296-1.56.341-.534.039-1.085.079-1.617.251-.511.166-.967.453-1.408.73-.54.338-1.049.658-1.511.658-.462 0-.972-.32-1.511-.658-.441-.277-.897-.564-1.408-.73-.532-.172-1.084-.212-1.617-.25-.624-.046-1.213-.089-1.56-.341-.354-.258-.577-.808-.813-1.39-.2-.494-.406-1.004-.732-1.452-.321-.442-.74-.792-1.144-1.13-.485-.406-.944-.789-1.082-1.214-.128-.396.012-.963.16-1.563.13-.527.264-1.071.264-1.643 0-.572-.134-1.116-.264-1.643-.148-.6-.288-1.167-.16-1.563.139-.425.597-.808 1.082-1.214.404-.338.822-.688 1.144-1.13.326-.448.533-.958.732-1.451.236-.583.459-1.133.813-1.39.347-.253.936-.296 1.56-.341.534-.039 1.085-.079 1.617-.251.51-.166.967-.453 1.408-.73.54-.338 1.049-.658 1.51-.658.463 0 .973.32 1.512.658.441.277.897.564 1.408.73.532.172 1.084.212 1.617.25.623.046 1.212.088 1.56.341.354.258.577.808.813 1.39.2.494.406 1.004.732 1.452.321.442.74.792 1.144 1.13.485.406.943.789 1.081 1.214.129.396-.01.963-.159 1.563-.13.527-.264 1.071-.264 1.643 0 .572.134 1.116.264 1.643z" fill="#5F5DDC"/>
</svg>
