<svg width="46" height="46" viewBox="0 0 46 46" fill="none" xmlns="http://www.w3.org/2000/svg">
    <circle cx="23" cy="23" r="23" fill="#B3B3B3" fill-opacity=".17"/>
    <path d="M14.335 18.556c-.008.011-.014.023-.021.035l-.02.032-.017.037-.016.034-.013.036c-.005.013-.01.025-.013.038l-.01.037-.01.038-.006.044-.005.034a.804.804 0 000 .158l.005.033.007.044c.002.013.006.026.01.039.002.012.005.025.009.037l.013.038.013.036.016.034c.006.012.011.025.018.037l.019.032c.007.012.013.024.021.035l.025.035.022.028a.78.78 0 00.053.059l4 4a.797.797 0 001.13 0 .8.8 0 000-1.132L16.933 19.8H31a.8.8 0 100-1.6H16.932l2.634-2.634a.8.8 0 10-1.131-1.132l-4 4a.76.76 0 00-.053.059l-.021.028-.026.035zM31.79 26.887c-.001-.014-.003-.03-.006-.044-.002-.013-.006-.025-.01-.038-.002-.013-.005-.025-.009-.038l-.013-.037-.013-.036-.016-.034c-.006-.013-.011-.025-.018-.037l-.019-.032c-.007-.012-.013-.024-.021-.035l-.025-.035-.022-.028a.823.823 0 00-.053-.059l-4-4a.8.8 0 10-1.13 1.132l2.633 2.634H15a.8.8 0 100 1.6h14.068l-2.634 2.634a.8.8 0 101.131 1.131l4-4a.777.777 0 00.053-.058l.022-.028.025-.035c.008-.011.014-.023.021-.035l.02-.032.017-.037.016-.034.013-.037c.005-.012.01-.024.013-.037l.01-.037.01-.039.006-.044.005-.033a.819.819 0 000-.158l-.005-.034z" fill="#5F5DDC"/>
</svg>
