<svg width="46" height="46" viewBox="0 0 46 46" fill="none" xmlns="http://www.w3.org/2000/svg">
    <circle cx="23" cy="23" r="23" fill="#B3B3B3" fill-opacity=".17"/>
    <path d="M34.185 22.086l-1.634-.707-1.388-2.7a2.185 2.185 0 00-1.966-1.195h-2.39v-.676a2.204 2.204 0 00-2.197-2.218H13.186c-1.221 0-2.186 1.002-2.186 2.218V27.15a1.347 1.347 0 001.329 1.366h.305c0 .054-.005.075-.005.108a2.776 2.776 0 005.551.02v-.026c0-.037 0-.053-.005-.107h9.232v.107a2.776 2.776 0 005.551.022v-.027-.107h.692c.744 0 1.35-.606 1.35-1.35v-3.827a1.344 1.344 0 00-.815-1.243zM15.41 30.344c-.943 0-1.704-.761-1.704-1.704 0-.944.76-1.704 1.704-1.704.943 0 1.704.76 1.704 1.704 0 .937-.766 1.703-1.704 1.703zm10.325-2.889h-7.812a2.753 2.753 0 00-2.513-1.602 2.738 2.738 0 00-2.513 1.602h-.547c-.166 0-.278-.128-.278-.294V24.4h13.663v3.054zm0-10.641v6.515H12.072v-6.515c0-.627.487-1.147 1.114-1.147H24.61c.627.006 1.13.52 1.125 1.141v.006zm1.072 1.747h2.39a1.13 1.13 0 011.018.605l1.072 2.074h-4.48v-2.68zm3.381 11.782c-.943 0-1.704-.76-1.704-1.703 0-.944.761-1.704 1.704-1.704s1.704.76 1.704 1.704c0 .937-.76 1.703-1.704 1.703zm3.746-3.182c0 .166-.113.294-.28.294h-.953a2.774 2.774 0 00-5.026 0h-.868v-5.143h5.251l1.704.75a.315.315 0 01.172.289v3.81z" fill="#5F5DDC"/>
</svg>
