<svg width="47" height="56" viewBox="0 0 47 56" fill="none" xmlns="http://www.w3.org/2000/svg">
    <path d="M39.441 37.407a26.129 26.129 0 01-2.57 4.64c-1.353 1.935-2.46 3.274-3.313 4.018-1.323 1.22-2.74 1.845-4.257 1.881-1.09 0-2.403-.311-3.933-.942-1.534-.628-2.944-.94-4.233-.94-1.352 0-2.802.312-4.354.94-1.553.63-2.804.96-3.761.992-1.455.063-2.906-.58-4.354-1.931-.924-.81-2.08-2.196-3.464-4.16-1.485-2.098-2.707-4.53-3.664-7.304C.514 31.606 0 28.705 0 25.897c0-3.217.693-5.991 2.08-8.316 1.09-1.868 2.54-3.34 4.356-4.422a11.687 11.687 0 015.889-1.668c1.156 0 2.671.359 4.555 1.064 1.878.707 3.084 1.066 3.613 1.066.395 0 1.735-.42 4.006-1.256 2.148-.776 3.96-1.097 5.445-.97 4.024.326 7.047 1.918 9.058 4.786-3.6 2.188-5.38 5.253-5.344 9.185.032 3.063 1.14 5.612 3.315 7.635a10.89 10.89 0 003.313 2.18 35.975 35.975 0 01-.845 2.226zM30.213.961c0 2.4-.874 4.642-2.616 6.716-2.102 2.467-4.644 3.892-7.401 3.667a7.506 7.506 0 01-.056-.91c0-2.304 1-4.77 2.775-6.787.886-1.021 2.013-1.87 3.38-2.547C27.66.433 28.95.064 30.163 0c.035.321.05.642.05.96z" fill="#fff"/>
</svg>
