<svg xmlns="http://www.w3.org/2000/svg" viewBox="0 0 11.83 11.11">
    <g data-name="&#x421;&#x43B;&#x43E;&#x439; 2">
        <path d="M11.2 11.11h-4V8.68a1.11 1.11 0 00-.37-.84 1.13 1.13 0 00-.88-.3 1.19 1.19 0 00-1 1.21v2.34H.72a.63.63 0 01-.72-.61v-5A.64.64 0 01.21 5L5.6.16a.63.63 0 01.85 0L11.63 5a.63.63 0 01.2.46v5a.63.63 0 01-.63.65zm-3.6-.43h3.6a.21.21 0 00.21-.2v-5a.23.23 0 00-.07-.15L6.16.48a.2.2 0 00-.28 0L.49 5.34a.21.21 0 00-.07.15v5a.21.21 0 00.21.2h3.83V8.75a1.61 1.61 0 011.43-1.63 1.56 1.56 0 011.2.4 1.6 1.6 0 01.51 1.16z" fill="#fff" data-name="1200"/>
    </g>
</svg>
