<svg width="17" height="17" viewBox="0 0 17 17" fill="none" xmlns="http://www.w3.org/2000/svg">
    <g fill="#A4B5C0">
        <path d="M11.863.875H4.639A4.268 4.268 0 00.376 5.138v7.224a4.268 4.268 0 004.263 4.263h7.224a4.268 4.268 0 004.263-4.263V5.138A4.268 4.268 0 0011.863.875zM8.25 13.056A4.311 4.311 0 013.944 8.75a4.311 4.311 0 014.307-4.307 4.311 4.311 0 014.306 4.307 4.311 4.311 0 01-4.306 4.306zm4.41-7.597c-.702 0-1.273-.57-1.273-1.272 0-.702.57-1.273 1.273-1.273a1.274 1.274 0 010 2.545z"/>
        <path d="M8.251 6.28a2.473 2.473 0 00-2.47 2.47 2.473 2.473 0 002.47 2.47 2.473 2.473 0 002.47-2.47 2.473 2.473 0 00-2.47-2.47zM12.662 3.837a.35.35 0 100 .7.35.35 0 000-.7z"/>
    </g>
</svg>
