<svg>
    <g data-name="&#x421;&#x43B;&#x43E;&#x439; 2">
        <g data-name="1200">
            <path class="cls-1" d="M0 13.26V0h2.46v5.47H9V0h2.46v13.26H9V7.6H2.46v5.66zM16.54 13.26H14L19.65 0h2.64L28 13.26h-2.6l-1.51-3.62h-4.41l.85-2.13H23l-2.09-5zM30.61 13.26V0h5.19q6.59 0 6.58 6.27 0 7-6.58 7zm5.19-2.14c2.75 0 4.13-1.61 4.13-4.85q0-4.14-4.13-4.14h-2.73v9zM46.78 13.26h-2.52L49.89 0h2.64l5.75 13.26h-2.64l-1.51-3.62h-4.41l.85-2.13h2.66l-2.08-5zM68.13 0v2.13h-3.8v11.13h-2.46V2.13h-3.8V0zM21.11 22.83a2.37 2.37 0 01-.87.14 1.4 1.4 0 01-1.61-1.55c0-1 .54-1.47 1.61-1.47a2.6 2.6 0 01.87.14v.5a2 2 0 00-.83-.16q-1.08 0-1.08 1a1 1 0 001.08 1.07 2 2 0 00.83-.16zM22.38 21.47A1.34 1.34 0 0123.89 20c1 0 1.47.5 1.47 1.52A1.31 1.31 0 0123.89 23a1.37 1.37 0 01-1.51-1.53zm1.51 1c.59 0 .9-.34.9-1s-.31-1-.9-1-.93.34-.93 1 .31 1.02.93 1.02zM26.68 22.83v-.5a3 3 0 001 .16c.45 0 .68-.15.68-.46s-.14-.33-.42-.33h-.44c-.62 0-.92-.28-.92-.83S27 20 27.88 20a3.26 3.26 0 01.95.14v.5a2.71 2.71 0 00-.95-.16c-.5 0-.75.14-.75.44s.12.33.37.33h.5c.65 0 1 .28 1 .83s-.42.94-1.24.94a3.23 3.23 0 01-1.08-.19zM30.26 23v-3h.58l1 2.26 1-2.26h.55v3h-.51v-2.12L32.07 23h-.47l-.83-2.07V23zM36.92 20v.47h-1.5v.76h1.42v.49h-1.42v.78h1.52v.5h-2.07v-3zM40.26 20v.48h-.85V23h-.55v-2.5H38V20zM42 20v3h-.55v-3zM45.84 22.83A2.34 2.34 0 0145 23c-1.08 0-1.61-.52-1.61-1.55S43.89 20 45 20a2.56 2.56 0 01.87.14v.5a2 2 0 00-.83-.16c-.72 0-1.07.33-1.07 1A.94.94 0 0045 22.49a2 2 0 00.83-.16zM47.17 22.83v-.5a2.93 2.93 0 001 .16c.46 0 .69-.15.69-.46s-.14-.33-.42-.33H48c-.61 0-.92-.28-.92-.83s.42-.87 1.29-.87a3.31 3.31 0 011 .14v.5a2.75 2.75 0 00-1-.16c-.5 0-.75.14-.75.44s.12.33.36.33h.47c.65 0 1 .28 1 .83S49 23 48.18 23a3.2 3.2 0 01-1.01-.17z"/>
        </g>
    </g>
</svg>
