<svg width="28" height="16" viewBox="0 0 28 16" fill="none" xmlns="http://www.w3.org/2000/svg">
    <path d="M27.75 14.072c-.075-.123-.54-1.116-2.78-3.157-2.346-2.136-2.03-1.79.794-5.484 1.72-2.25 2.408-3.625 2.193-4.212-.205-.56-1.47-.412-1.47-.412L22.28.83s-.312-.041-.545.094c-.226.134-.37.443-.37.443s-.668 1.742-1.557 3.223c-1.874 3.124-2.625 3.29-2.931 3.095-.712-.452-.534-1.817-.534-2.786 0-3.028.467-4.29-.912-4.617-.458-.108-.794-.18-1.965-.193-1.502-.015-2.774.006-3.493.35-.48.231-.85.745-.623.774.278.036.908.166 1.242.613.432.576.417 1.87.417 1.87s.248 3.565-.58 4.008c-.568.304-1.347-.316-3.019-3.152a26.219 26.219 0 01-1.503-3.057s-.124-.3-.346-.46C5.29.844 4.913.782 4.913.782l-4 .024S.311.822.09 1.078c-.196.229-.015.7-.015.7s3.132 7.191 6.678 10.817c3.254 3.324 6.946 3.106 6.946 3.106h1.674s.505-.055.763-.328c.238-.251.229-.722.229-.722s-.033-2.203 1.01-2.528c1.027-.32 2.347 2.13 3.745 3.073 1.057.713 1.86.556 1.86.556l3.74-.051s1.957-.119 1.03-1.629z" fill="#fff"/>
</svg>
