<svg width="28" height="28" viewBox="0 0 28 28" fill="none" xmlns="http://www.w3.org/2000/svg">
    <path d="M14.004 0h-.008C6.277 0 0 6.279 0 14c0 3.063.987 5.901 2.665 8.206l-1.744 5.2 5.38-1.72A13.879 13.879 0 0014.005 28C21.723 28 28 21.72 28 14S21.723 0 14.004 0zm8.146 19.77c-.338.954-1.678 1.745-2.748 1.976-.731.155-1.687.28-4.903-1.054-4.115-1.704-6.764-5.885-6.97-6.156-.198-.272-1.663-2.214-1.663-4.223 0-2.01 1.02-2.988 1.432-3.408.337-.344.896-.502 1.431-.502.173 0 .329.009.469.016.411.018.618.042.889.691.338.814 1.16 2.823 1.258 3.03.1.206.2.486.06.757-.131.28-.247.405-.454.643-.206.238-.402.42-.609.675-.189.222-.402.46-.164.871.238.403 1.06 1.745 2.271 2.823 1.563 1.391 2.83 1.836 3.284 2.025.337.14.74.107.986-.156.314-.337.7-.897 1.094-1.449.28-.395.634-.444 1.005-.304.378.131 2.378 1.12 2.79 1.325.41.206.682.304.782.477.098.173.098.987-.24 1.943z" fill="#fff"/>
</svg>
