<svg xmlns="http://www.w3.org/2000/svg" width="32" height="32" viewBox="0 0 32 32"><g><g><g><path fill="#09a1a1" d="M0 0h32v32H0z"/></g><g><g><path fill="#001717" d="M14.91 17.841l-.001-.003 10.29-3.87.003.001-10.281 6.748-.01-.016h-.031v-2.85zm10.297-3.876l-.004.003h-.001zM14.91 10.1l10.29 3.87.003-.001-10.28-6.748-.01.017-.032.029v2.819l.03.01zm10.298 3.872l-.004-.003-.001.001z"/></g><g><path fill="#015051" d="M25.208 13.966l-5.554 11.212-.032-.03-4.71-4.421-.002-.006.012-.009zM19.654 2.75l5.554 11.212-10.285-6.746-.013-.009.002-.005 4.708-4.42z"/></g><g><path fill="#016b6b" d="M14.92 20.7l.01.015-.012.009.002.005 4.71 4.422H9.212l-.01.004-1.881-4.431.063-.024h7.473l.033.032V20.7zm.07-13.464l-.1.1v-.1zm-.07-.032l4.708-4.42H9.211l-.01-.004L7.32 7.21l.068.026h7.532l.011-.017-.013-.01z"/></g><g><path fill="#015051" d="M14.909 10.094l10.298 3.87v.004l-10.298 3.87.001.003-.03.01V10.08l.03.01z"/></g><g><path fill="#016b6b" d="M14.95 20.7v.1l-.1-.1z"/></g><g><path fill="#002122" d="M14.886 17.85v2.847h-.033l-2.143-2.022z"/></g><g><path fill="#016b6b" d="M14.886 17.837v.01l-2.176.824-4.94-4.704v-.013l4.94-4.704 2.176.825v3.894z"/></g><g><path fill="#002122" d="M14.886 7.26v2.817l-2.176-.825z"/></g><g><path fill="#013535" d="M12.71 18.68l-5.33 2.014h7.472zM7.384 7.23l5.333 2.012 2.179-1.984V7.23z"/></g></g><g><path fill="#fff" d="M18.962 29.208L18 31.088h.941l.286-.654c.041-.097.081-.194.12-.292.04-.097.078-.202.115-.314h.02l.126.314c.039.098.083.195.13.292l.307.653h.982l-.961-1.834.905-1.823h-.941l-.235.596c-.035.087-.07.18-.108.279a5.819 5.819 0 0 0-.112.329h-.021a27.06 27.06 0 0 0-.25-.608l-.266-.596h-.982zm-2.818.354h-.594l.05-.253c.039-.176.078-.367.116-.57l.116-.588h.02c.041.183.082.378.123.585.041.205.08.396.118.573zm.321 1.525h.932l-1.003-3.657H15.33l-1.003 3.657h.9l.165-.776h.91zm-5.493-3.657l-.002 3.657h.696v-.86c0-.108-.004-.246-.013-.414l-.028-.517c-.01-.178-.021-.35-.036-.515-.012-.165-.025-.302-.035-.41h.02l.262 1.085.173.659h.38l.173-.659.276-1.086h.015l-.035.41c-.013.166-.026.338-.036.516-.01.178-.02.35-.028.517a8.235 8.235 0 0 0-.013.414v.86h.706V27.43h-.865l-.265 1.193-.092.472h-.015l-.092-.472-.281-1.193z"/></g></g></g></svg>