<svg xmlns="http://www.w3.org/2000/svg" width="13" height="13" viewBox="0 0 13 13"><g><g><g><path fill="#9b9b9b" d="M2.647 0H.56A.56.56 0 0 0 0 .56v3.593a20.713 20.713 0 0 1 3.09-.313A23.198 23.198 0 0 1 2.647 0zm3.48 4.074c2.627.497 4.763 1.768 6.41 3.815-1.856-.98-3.88-1.465-6.074-1.454.519 2.39 1.561 4.429 3.127 6.117-2.629-1.16-4.513-3.127-5.653-5.9A21.57 21.57 0 0 0 0 7.713v4.608c0 .31.25.56.56.56h11.76c.31 0 .56-.25.56-.56V.56a.56.56 0 0 0-.56-.56H6.224a22.582 22.582 0 0 0-.096 4.074z"/></g></g></g></svg>