<?xml version="1.0" encoding="UTF-8"?>
<svg width="28px" height="20px" viewBox="0 0 28 20" version="1.1" xmlns="http://www.w3.org/2000/svg" xmlns:xlink="http://www.w3.org/1999/xlink">
    <!-- Generator: Sketch 52.5 (67469) - http://www.bohemiancoding.com/sketch -->
    <title>gb</title>
    <desc>Created with Sketch.</desc>
    <defs>
        <rect id="path-1" x="0" y="0" width="28" height="20" rx="2"></rect>
        <rect id="path-3" x="0" y="0" width="28" height="20" rx="2"></rect>
        <rect id="path-5" x="0" y="0" width="28" height="20" rx="2"></rect>
        <rect id="path-7" x="0" y="0" width="28" height="20" rx="2"></rect>
        <rect id="path-9" x="0" y="0" width="28" height="20" rx="2"></rect>
        <rect id="path-11" x="0" y="0" width="28" height="20" rx="2"></rect>
        <rect id="path-13" x="0" y="0" width="28" height="20" rx="2"></rect>
    </defs>
    <g id="Page-1" stroke="none" stroke-width="1" fill="none" fill-rule="evenodd">
        <g id="Главная" transform="translate(-1277.000000, -82.000000)">
            <g id="1">
                <g id="Шапка">
                    <g id="ENG" transform="translate(1264.000000, 64.000000)">
                        <g id="gb" transform="translate(13.000000, 18.000000)">
                            <g id="Mask" fill="#FFFFFF" fill-rule="nonzero">
                                <rect id="path-1" x="0" y="0" width="28" height="20" rx="2"></rect>
                            </g>
                            <g id="Mask-Copy-Clipped">
                                <mask id="mask-2" fill="white">
                                    <use xlink:href="#path-1"></use>
                                </mask>
                                <g id="path-1"></g>
                                <rect id="Mask-Copy" fill="#0A17A7" fill-rule="nonzero" mask="url(#mask-2)" x="0" y="0" width="28" height="20"></rect>
                            </g>
                            <g id="Rectangle-2-Clipped">
                                <mask id="mask-4" fill="white">
                                    <use xlink:href="#path-3"></use>
                                </mask>
                                <g id="path-1"></g>
                                <polygon id="Rectangle-2" fill="#FFFFFF" fill-rule="nonzero" mask="url(#mask-4)" points="6.67374124 13.3333333 0 13.3333333 0 6.66666667 6.67374124 6.66666667 -2.77365027 0.29432063 -1.2824692 -1.91644623 10.6666667 6.14334768 10.6666667 -1.33333333 17.3333333 -1.33333333 17.3333333 6.14334768 29.2824692 -1.91644623 30.7736503 0.29432063 21.3262588 6.66666667 28 6.66666667 28 13.3333333 21.3262588 13.3333333 30.7736503 19.7056794 29.2824692 21.9164462 17.3333333 13.8566523 17.3333333 21.3333333 10.6666667 21.3333333 10.6666667 13.8566523 -1.2824692 21.9164462 -2.77365027 19.7056794"></polygon>
                            </g>
                            <g id="Line-Clipped">
                                <mask id="mask-6" fill="white">
                                    <use xlink:href="#path-5"></use>
                                </mask>
                                <g id="path-1"></g>
                                <path d="M18.6679688,6.33219401 L31.3333333,-2" id="Line" stroke="#DB1F35" stroke-width="0.666666667" stroke-linecap="round" mask="url(#mask-6)"></path>
                            </g>
                            <g id="Line-Copy-2-Clipped">
                                <mask id="mask-8" fill="white">
                                    <use xlink:href="#path-7"></use>
                                </mask>
                                <g id="path-1"></g>
                                <path d="M20.0127767,21.3503422 L31.3666178,13.6975102" id="Line-Copy-2" stroke="#DB1F35" stroke-width="0.666666667" stroke-linecap="round" mask="url(#mask-8)" transform="translate(25.689697, 17.523926) scale(-1, 1) rotate(-180.000000) translate(-25.689697, -17.523926) "></path>
                            </g>
                            <g id="Line-Copy-Clipped">
                                <mask id="mask-10" fill="white">
                                    <use xlink:href="#path-9"></use>
                                </mask>
                                <g id="path-1"></g>
                                <path d="M8.00553385,6.31046549 L-3.83748372,-1.67097982" id="Line-Copy" stroke="#DB1F35" stroke-width="0.666666667" stroke-linecap="round" mask="url(#mask-10)"></path>
                            </g>
                            <g id="Line-Copy-3-Clipped">
                                <mask id="mask-12" fill="white">
                                    <use xlink:href="#path-11"></use>
                                </mask>
                                <g id="path-1"></g>
                                <path d="M9.29003906,22.3104649 L-3.83748372,13.6048985" id="Line-Copy-3" stroke="#DB1F35" stroke-width="0.666666667" stroke-linecap="round" mask="url(#mask-12)" transform="translate(2.726278, 17.957682) scale(-1, 1) rotate(-180.000000) translate(-2.726278, -17.957682) "></path>
                            </g>
                            <g id="Rectangle-2-Copy-3-Clipped">
                                <mask id="mask-14" fill="white">
                                    <use xlink:href="#path-13"></use>
                                </mask>
                                <g id="path-1"></g>
                                <polygon id="Rectangle-2-Copy-3" fill="#E6273E" fill-rule="nonzero" mask="url(#mask-14)" points="0 12 12 12 12 20 16 20 16 12 28 12 28 8 16 8 16 0 12 0 12 8 0 8"></polygon>
                            </g>
                        </g>
                    </g>
                </g>
            </g>
        </g>
    </g>
</svg>