<svg xmlns="http://www.w3.org/2000/svg" width="72" height="72" viewBox="0 0 72 72"><defs><linearGradient id="pix8a" x1="72" x2="0" y1="72" y2="0" gradientUnits="userSpaceOnUse"><stop offset="0" stop-color="#8739e5"/><stop offset="1" stop-color="#5496ff"/></linearGradient></defs><g><g><g><path fill="url(#pix8a)" d="M36 72c19.882 0 36-16.118 36-36S55.882 0 36 0 0 16.118 0 36s16.118 36 36 36z"/></g><g><g><path fill="#fff" d="M35.955 48.66h-.006l-.087.002-.086-.001h-.006c-5.094-.015-8.46-.607-9.947-1.116 1.486-.51 4.853-1.102 9.947-1.116h.184c5.093.014 8.46.606 9.946 1.116-1.485.509-4.852 1.101-9.945 1.116zm15.64-15.542c-2.066 1.483-4.966 3.454-6.274 3.454-.26 0-.343-.079-.403-.152-.534-.659-.39-2.968.43-6.86a.82.82 0 0 0-1.484-.628c-2.823 4.209-4.116 5.091-4.702 5.091-.831 0-1.676-2.39-2.514-7.106a.818.818 0 0 0-.761-.672v-.005l-.024.002-.024-.002v.005a.82.82 0 0 0-.76.672c-.84 4.716-1.686 7.106-2.516 7.106-.586 0-1.878-.883-4.7-5.091a.821.821 0 0 0-1.486.627c.82 3.893.966 6.202.43 6.861-.059.074-.143.152-.402.152-1.308 0-4.209-1.971-6.276-3.454a.82.82 0 1 0-1.145 1.146c4.726 6.045 3.836 12.983 3.836 12.983a1.678 1.678 0 0 0-.026.297c0 1.705 2.386 2.38 4.465 2.777 2.29.439 5.307.683 8.512.691v.001h.185c3.204-.01 6.22-.254 8.51-.692 2.08-.398 4.466-1.073 4.466-2.776 0-.104-.009-.202-.026-.298 0 0-.89-6.94 3.836-12.982a.82.82 0 0 0-.086-1.059.823.823 0 0 0-1.06-.088z"/></g><g><path fill="#fff" d="M35.864 25.248a2.484 2.484 0 1 0 0-4.968 2.484 2.484 0 0 0 0 4.968z"/></g><g><path fill="#fff" d="M25.38 27.83a2.07 2.07 0 1 0 0-4.14 2.07 2.07 0 0 0 0 4.14z"/></g><g><path fill="#fff" d="M46.18 27.83a2.07 2.07 0 1 0 0-4.14 2.07 2.07 0 0 0 0 4.14z"/></g><g><path fill="#fff" d="M17.395 33.05a1.395 1.395 0 1 0 0-2.79 1.395 1.395 0 0 0 0 2.79z"/></g><g><path fill="#fff" d="M54.295 33.05a1.395 1.395 0 1 0 0-2.79 1.395 1.395 0 0 0 0 2.79z"/></g></g></g></g></svg>