<svg xmlns="http://www.w3.org/2000/svg" width="72" height="72" viewBox="0 0 72 72"><defs><linearGradient id="uzw6a" x1="20.3" x2="62.71" y1="-5.75" y2="72" gradientUnits="userSpaceOnUse"><stop offset="0" stop-color="#b4ec51"/><stop offset="1" stop-color="#429321"/></linearGradient></defs><g><g><g><path fill="url(#uzw6a)" d="M36 72c19.882 0 36-16.118 36-36S55.882 0 36 0 0 16.118 0 36s16.118 36 36 36z"/></g><g><g><g><path fill="#fff" d="M46 26c-6.11 0-9.078 4.75-11.696 8.942C31.558 39.332 29.628 42 26 42c-2.774 0-6-2.622-6-6s3.226-6 6-6c2.074 0 3.59.896 5.024 2.462l2.278-3.412C31.442 27.262 29.138 26 26 26c-5.328 0-10 4.672-10 10s4.672 10 10 10c6.11 0 9.078-4.75 11.696-8.942C40.442 32.668 42.372 30 46 30c2.774 0 6 2.622 6 6 0 4.148-1.852 6-6 6-1.976 0-3.446-.812-4.818-2.242l-2.432 3.244C40.6 44.764 42.89 46 46 46c6.356 0 10-3.644 10-10 0-5.328-4.672-10-10-10z"/></g></g></g></g></g></svg>