<svg width="48" height="48" viewBox="0 0 48 48" fill="none" xmlns="http://www.w3.org/2000/svg">
<g clip-path="url(#clip0)">
<path d="M36.4795 11.8015L17.0862 0.604656C15.8613 -0.102594 14.7514 -0.168313 13.9499 0.297437L8.47604 3.47847C8.47857 3.47697 8.48138 3.47584 8.484 3.47425C7.68825 3.93212 7.19438 4.91134 7.19035 6.30559L7.12716 28.5902C7.11919 31.3872 9.08635 34.7943 11.5205 36.1997L30.9139 47.3964C32.174 48.1238 33.3113 48.171 34.1173 47.6606C34.0949 47.6748 34.0731 47.69 34.05 47.7035L39.5237 44.5226C40.3149 44.0627 40.8054 43.0851 40.8095 41.6956L40.8727 19.411C40.8808 16.6133 38.9137 13.2068 36.4795 11.8015Z" fill="#7F33AD"/>
<path d="M39.5239 44.5223L34.0502 47.7033C34.8414 47.2434 35.3321 46.2658 35.336 44.8762L40.8096 41.6953C40.8057 43.0848 40.315 44.0625 39.5239 44.5223Z" fill="#943EC7"/>
<path d="M8.47601 3.47837L13.9497 0.297437C14.7512 -0.168313 15.8611 -0.102594 17.086 0.604656L11.6123 3.78559C10.3874 3.07834 9.27758 3.01253 8.47601 3.47837Z" fill="#A258CB"/>
<path d="M35.3991 22.5919L40.8728 19.4109L40.8096 41.6955L35.3359 44.8764L35.3991 22.5919Z" fill="#A258CB"/>
<path d="M11.6124 3.78552L17.0862 0.604492L36.4795 11.8013L31.0058 14.9823L11.6124 3.78552Z" fill="#B77FDA"/>
<path d="M31.0058 14.9825L36.4795 11.8015C38.9137 13.2068 40.8807 16.6134 40.8728 19.411L35.3991 22.592C35.4071 19.7944 33.4399 16.3879 31.0058 14.9825Z" fill="#D5B4E9"/>
<path d="M20.692 34.1685C18.2847 32.7787 17.9996 32.6035 17.049 32.0044C16.1703 31.4514 15.6931 31.0066 15.3757 30.681C14.9554 30.2505 14.656 29.8527 14.3415 29.3079C14.027 28.7632 13.8325 28.3048 13.6701 27.7268C13.5475 27.2902 13.4025 26.6573 13.3651 25.6236C13.3252 24.5063 13.3168 24.1733 13.3246 21.4073C13.3325 18.6412 13.3425 18.3182 13.3887 17.2507C13.4319 16.264 13.58 15.8004 13.7046 15.5065C13.8698 15.1177 14.0662 14.8851 14.3828 14.7046C14.6994 14.5241 15 14.4728 15.4213 14.5282C15.7396 14.5697 16.2177 14.6764 17.0967 15.1382C18.0476 15.6369 18.3326 15.7909 20.74 17.1807C23.1478 18.5708 23.4328 18.746 24.3835 19.3451C25.2622 19.8981 25.7395 20.3429 26.0568 20.6685C26.4771 21.099 26.7764 21.4968 27.091 22.0416C27.4055 22.5863 27.5999 23.0447 27.7624 23.6228C27.8844 24.0591 28.03 24.6922 28.0674 25.7253C28.1073 26.8426 28.1157 27.1762 28.1079 29.9423C28.1 32.7084 28.09 33.0308 28.0437 34.0983C28.0006 35.0857 27.8519 35.5489 27.7279 35.8431C27.5627 36.2319 27.3663 36.4645 27.0497 36.645C26.7331 36.8255 26.4325 36.8768 26.0111 36.8214C25.6929 36.7799 25.2147 36.6732 24.3357 36.2113C23.385 35.7127 23.0998 35.5586 20.692 34.1685ZM20.7455 15.3144C18.2969 13.9007 17.9899 13.7354 17.0281 13.2304C16.0681 12.7264 15.4122 12.5237 14.8379 12.4481C14.2446 12.3709 13.7406 12.4351 13.2378 12.7217C12.735 13.0082 12.4253 13.4083 12.1928 13.9562C11.9679 14.4866 11.8135 15.1516 11.7667 16.2294C11.7192 17.3089 11.7079 17.6557 11.6999 20.4692C11.692 23.2828 11.7013 23.6415 11.7424 24.772C11.783 25.9002 11.9331 26.7412 12.1543 27.5291C12.3829 28.3432 12.6894 29.0989 13.189 29.9643C13.6885 30.8297 14.1905 31.4746 14.7823 32.0816C15.3553 32.6684 16.0101 33.2218 16.9698 33.8269C17.9313 34.4322 18.2381 34.6214 20.6869 36.0351C23.1361 37.4491 23.4431 37.6145 24.4048 38.1194C25.3644 38.6225 26.0207 38.8261 26.5945 38.9013C27.1884 38.9789 27.6924 38.9146 28.1952 38.6281C28.698 38.3416 29.0078 37.9415 29.2403 37.3936C29.4652 36.8632 29.6196 36.1982 29.6664 35.1203C29.7132 34.0405 29.7252 33.6941 29.7331 30.8806C29.7411 28.0669 29.7312 27.7079 29.6907 26.5778C29.6501 25.4496 29.5 24.6087 29.2787 23.8207C29.0502 23.0066 28.7437 22.2509 28.2441 21.3855C27.7445 20.5202 27.2426 19.8752 26.6501 19.2678C26.0777 18.6813 25.4223 18.1269 24.4632 17.5229C23.5016 16.9176 23.1946 16.7285 20.7455 15.3144Z" fill="white"/>
<path d="M20.7063 29.1284C19.0468 28.1703 17.7056 25.8472 17.7111 23.9398C17.7164 22.0323 19.0664 21.263 20.7259 22.221C22.3859 23.1794 23.7271 25.5025 23.7217 27.41C23.7162 29.3175 22.3663 30.0868 20.7063 29.1284ZM20.7311 20.3546C18.1745 18.8784 16.0944 20.0631 16.0861 23.0016C16.0777 25.9401 18.1443 29.5188 20.7009 30.9949C23.2582 32.4714 25.3376 31.2864 25.346 28.3479C25.3544 25.4094 23.2884 21.8309 20.7311 20.3546Z" fill="white"/>
<path d="M25.5486 21.6797C24.9508 21.3346 24.4646 21.6116 24.4627 22.2985C24.4607 22.9848 24.9436 23.8213 25.5414 24.1664C26.1386 24.5112 26.6248 24.2342 26.6267 23.5479C26.6288 22.861 26.1458 22.0244 25.5486 21.6797Z" fill="white"/>
</g>
<defs>
<clipPath id="clip0">
<rect width="48" height="48" fill="white"/>
</clipPath>
</defs>
</svg>
