<svg width="48" height="48" viewBox="0 0 48 48" fill="none" xmlns="http://www.w3.org/2000/svg">
<path d="M24 0C10.7452 0 0 10.7452 0 24C0 37.2548 10.7452 48 24 48C37.2548 48 48 37.2548 48 24C48 10.7452 37.2548 0 24 0ZM29.5606 25.0607L22.8106 31.8107C22.5177 32.1036 22.1338 32.2501 21.75 32.2501C20.4257 32.2501 19.7418 30.637 20.6894 29.6895L26.3787 24.0001L20.6894 18.3107C20.1036 17.7249 20.1036 16.7752 20.6894 16.1894C21.2752 15.6037 22.2249 15.6037 22.8107 16.1894L29.5607 22.9394C30.1464 23.5252 30.1464 24.4749 29.5606 25.0607Z" fill="#258EFA"/>
</svg>
