<svg width="12" height="12" viewBox="0 0 12 12" fill="none" xmlns="http://www.w3.org/2000/svg">
<path d="M11.6579 9.42675L8.94794 6.96275C8.68194 6.72075 8.27128 6.73341 8.02061 6.99141L6.42528 8.63208C6.04128 8.55875 5.26928 8.31808 4.47461 7.52541C3.67994 6.73008 3.43928 5.95608 3.36794 5.57475L5.00728 3.97875C5.26594 3.72808 5.27794 3.31808 5.03594 3.05141L2.57261 0.342081C2.33061 0.0747474 1.91928 0.0494141 1.64528 0.284081L0.198611 1.52475C0.0832773 1.64075 0.0146105 1.79408 0.00527717 1.95741C-0.00472283 2.12408 -0.195389 6.07208 2.86594 9.13475C5.53661 11.8047 8.88194 12.0001 9.80328 12.0001C9.93794 12.0001 10.0206 11.9961 10.0426 11.9947C10.2059 11.9854 10.3593 11.9167 10.4746 11.8007L11.7146 10.3534C11.9506 10.0794 11.9246 9.66875 11.6579 9.42675Z" fill="white"/>
</svg>
