<svg xmlns="http://www.w3.org/2000/svg" width="32" height="31" viewBox="0 0 32 31"><defs><radialGradient id="v9eya" cx="10.74" cy="7.59" r="21.77" gradientUnits="userSpaceOnUse"><stop offset="0" stop-color="#34364e" stop-opacity=".98"/><stop offset="1" stop-color="#0c0824"/></radialGradient></defs><g><g><g><path fill="url(#v9eya)" d="M1.3 1.34h28.648v27.867H1.3z"/></g><g><path fill="#31c5f0" d="M7.553 7.176c0-.091.182-.156.286-.156.834-.04 2.07-.065 3.36-.065 3.607 0 5.013 1.98 5.013 4.508 0 3.31-2.396 4.73-5.339 4.73-.495 0-.664-.026-1.016-.026v5.004c0 .104-.039.157-.156.157H7.71c-.104 0-.156-.04-.156-.157V7.176zM9.87 14.09c.3.027.534.027 1.055.027 1.524 0 2.956-.534 2.956-2.605 0-1.654-1.029-2.487-2.76-2.487-.521 0-1.016.026-1.25.04zm9.819-.599c0 .47.234.795 1.615 1.511 2.044.99 2.682 1.94 2.682 3.334 0 2.083-1.589 3.203-3.737 3.203-1.133 0-2.11-.235-2.67-.56-.09-.04-.104-.104-.104-.208v-1.915c0-.13.065-.169.156-.104.82.534 1.758.769 2.618.769 1.029 0 1.458-.43 1.458-1.016 0-.469-.3-.886-1.614-1.563-1.85-.885-2.618-1.784-2.618-3.281 0-1.68 1.315-3.073 3.594-3.073 1.12 0 1.901.169 2.331.364.104.065.13.17.13.26v1.785c0 .104-.065.169-.195.13-.573-.365-1.42-.586-2.266-.586-1.029 0-1.38.52-1.38.95zM0 .04h31.252v30.47H0zm1.302 29.169H29.95V1.342H1.302z"/></g></g></g></svg>