<svg xmlns="http://www.w3.org/2000/svg" width="34" height="30" viewBox="0 0 34 30"><g><g><g><path fill="#00d8ff" d="M17.089 17.768a2.879 2.879 0 1 0 0-5.758 2.879 2.879 0 0 0 0 5.758z"/></g><g><path fill="none" stroke="#00d8ff" stroke-miterlimit="50" stroke-width="1.59" d="M17.089 9.04c3.864 0 7.455.555 10.161 1.486 3.262 1.123 5.267 2.825 5.267 4.366 0 1.606-2.125 3.414-5.627 4.574-2.648.877-6.133 1.336-9.801 1.336-3.762 0-7.323-.43-10-1.346C3.7 18.3 1.66 16.467 1.66 14.892c0-1.53 1.915-3.218 5.13-4.338C9.509 9.607 13.188 9.04 17.09 9.04z"/></g><g><path fill="none" stroke="#00d8ff" stroke-miterlimit="50" stroke-width="1.59" d="M11.996 11.983c1.93-3.348 4.205-6.181 6.365-8.06 2.602-2.264 5.078-3.15 6.413-2.381 1.39.802 1.896 3.546 1.15 7.16-.562 2.733-1.906 5.98-3.739 9.158-1.879 3.259-4.03 6.129-6.16 7.992-2.696 2.356-5.303 3.209-6.667 2.422-1.324-.764-1.83-3.266-1.196-6.612.537-2.83 1.884-6.299 3.834-9.68z"/></g><g><path fill="none" stroke="#00d8ff" stroke-miterlimit="50" stroke-width="1.59" d="M11.992 17.867c-1.936-3.345-3.254-6.73-3.804-9.54-.662-3.384-.194-5.973 1.14-6.745 1.39-.805 4.02.129 6.778 2.578 2.086 1.853 4.228 4.638 6.066 7.814 1.885 3.255 3.297 6.553 3.846 9.328.696 3.512.132 6.196-1.23 6.985-1.324.766-3.744-.045-6.326-2.266-2.18-1.877-4.515-4.777-6.47-8.154z"/></g></g></g></svg>