<?xml version="1.0" encoding="UTF-8"?>
<svg width="36px" height="36px" viewBox="0 0 36 36" version="1.1" xmlns="http://www.w3.org/2000/svg" xmlns:xlink="http://www.w3.org/1999/xlink">
    <!-- Generator: Sketch 52.5 (67469) - http://www.bohemiancoding.com/sketch -->
    <title>Rockstar_Games_Logo</title>
    <desc>Created with Sketch.</desc>
    <g id="Page-1" stroke="none" stroke-width="1" fill="none" fill-rule="evenodd">
        <g id="Главная" transform="translate(-510.000000, -1868.000000)">
            <g id="2" transform="translate(0.000000, 1086.000000)">
                <g id="1" transform="translate(275.000000, 304.000000)">
                    <g transform="translate(124.000000, 423.000000)" id="steam">
                        <g transform="translate(63.000000, 55.000000)">
                            <g id="Rockstar_Games_Logo" transform="translate(48.000000, 0.000000)">
                                <circle id="Oval" fill="#FFAB00" cx="18" cy="18" r="18"></circle>
                                <polyline id="path10" fill="#FFFFFF" fill-rule="nonzero" points="28 22.4683794 24.8162055 22.4683794 24.2648221 19 22.2193676 22.4328063 19 22.4328063 20.9565217 24.4960474 19.3557312 27.9644269 22.8774704 25.8656126 25.6343874 28 25.1185771 24.4960474"></polyline>
                                <path d="M31,21.9228346 L26.0295056,21.9228346 L25.2408293,17.0330709 L22.3429027,21.8866142 L21.7926635,21.8866142 C21.4625199,21.3251969 21.3341308,20.5102362 21.3341308,20.0031496 C21.3341308,19.1700787 21.3891547,18.3551181 21.3891547,17.2866142 C21.3891547,15.8740157 20.9673046,15.1314961 19.8484848,14.8598425 L19.8484848,14.823622 C22.2145136,14.4976378 23.2966507,12.9401575 23.2966507,10.7669291 C23.2966507,7.67007874 21.2057416,7 18.4728868,7 L11.1180223,7 L8,21.5606299 L11.9066986,21.5606299 L13.0438596,16.2543307 L15.6483254,16.2543307 C17.0422648,16.2543307 17.6108453,16.9244094 17.6108453,18.2102362 C17.6108453,19.188189 17.5007974,19.9669291 17.5007974,20.7094488 C17.5007974,20.9811024 17.5558214,21.6330709 17.7575758,21.8866142 L20.5821372,24.8385827 L18.1427432,30 L23.3516746,26.9393701 L27.2400319,29.8913386 L26.5247209,25.019685 L31,21.9228346 Z M16.8221691,13.5377953 L13.7041467,13.5377953 L14.4561404,10.0244094 L17.354067,10.0244094 C18.3811802,10.0244094 19.4633174,10.296063 19.4633174,11.5275591 C19.4633174,13.1031496 18.2344498,13.5377953 16.8221691,13.5377953 M23.4250399,26.088189 L19.7934609,28.2251969 L21.4625199,24.711811 L19.4449761,22.6110236 L22.7647528,22.6110236 L24.8556619,19.115748 L25.4242424,22.6472441 L28.7256778,22.6472441 L25.754386,24.6937008 L26.2862839,28.2795276 L23.4250399,26.088189 Z" id="path12" fill="#040301" fill-rule="nonzero"></path>
                            </g>
                        </g>
                    </g>
                </g>
            </g>
        </g>
    </g>
</svg>