<svg xmlns="http://www.w3.org/2000/svg" width="30" height="22" viewBox="0 0 30 22"><defs><clipPath id="7lwba"><path d="M1 3a2 2 0 0 1 2-2h24a2 2 0 0 1 2 2v16a2 2 0 0 1-2 2H3a2 2 0 0 1-2-2z"/></clipPath><clipPath id="7lwbb"><path d="M1 3a2 2 0 0 1 2-2h24a2 2 0 0 1 2 2v16a2 2 0 0 1-2 2H3a2 2 0 0 1-2-2z"/></clipPath></defs><g><g><g><g><g><path fill="#fff" d="M1 3a2 2 0 0 1 2-2h24a2 2 0 0 1 2 2v16a2 2 0 0 1-2 2H3a2 2 0 0 1-2-2z"/></g></g><g><path fill="none" stroke="#f5f5f5" stroke-miterlimit="50" stroke-width=".5" d="M1.25 3.25a2 2 0 0 1 2-2h23.5a2 2 0 0 1 2 2v15.5a2 2 0 0 1-2 2H3.25a2 2 0 0 1-2-2z"/></g></g><g><g/><g clip-path="url(#7lwba)"><path fill="#0c47b7" d="M1 7.67h28v6.667H1z"/></g></g><g><g/><g clip-path="url(#7lwbb)"><path fill="#e53b35" d="M1 14.33h28v6.667H1z"/></g></g></g></g></svg>