<?xml version="1.0" encoding="UTF-8"?>
<svg width="36px" height="36px" viewBox="0 0 36 36" version="1.1" xmlns="http://www.w3.org/2000/svg" xmlns:xlink="http://www.w3.org/1999/xlink">
    <!-- Generator: Sketch 52.5 (67469) - http://www.bohemiancoding.com/sketch -->
    <title>Shape</title>
    <desc>Created with Sketch.</desc>
    <g id="Page-1" stroke="none" stroke-width="1" fill="none" fill-rule="evenodd">
        <g id="Главная" transform="translate(-462.000000, -1868.000000)" fill="#FFFFFF" fill-rule="nonzero">
            <g id="2" transform="translate(0.000000, 1086.000000)">
                <g id="1" transform="translate(275.000000, 304.000000)">
                    <g transform="translate(124.000000, 423.000000)" id="steam">
                        <g transform="translate(63.000000, 55.000000)">
                            <path d="M36,18 C36,27.9435484 27.9290323,36 18,36 C9.71129032,36 2.75806452,30.4620968 0.9,22.5 L7.2,26.1 C7.9983871,28.0887097 10.0669355,29.8524194 12.6,29.7 C15.3798387,29.8524194 17.7532258,27.5008065 18,24.3 L23.4,19.8 C27.5443548,20.2427419 30.716129,17.1798387 30.6,13.5 C30.716129,9.61693548 27.6677419,6.57580645 24.3,6.3 C20.1629032,6.57580645 17.1145161,9.62419355 17.1,13.5 L12.6,19.8 C11.6927419,19.6040323 10.5895161,19.916129 9.9,20.7 L0,16.2 C0.740322581,7.28709677 8.49919355,0 18,0 C27.9290323,0 36,8.05645161 36,18 Z M10.8,27.9 L9,26.1 C9.40233225,27.3999767 10.0970185,28.1053476 10.8,28.8 C12.8835359,29.3488699 15.1016738,28.365271 16.2,26.1 C16.2932948,25.3068931 16.3004732,24.2080287 16.2,23.4 C15.5252017,22.2100934 14.8001793,21.426288 13.5,20.7 C12.9409634,20.5963764 11.9503387,20.6117451 10.8,20.7 L13.5,21.6 C14.7571087,22.5943117 15.431882,24.3386629 14.4,26.1 C14.240261,27.3893564 12.6107552,28.1040025 10.8,27.9 Z M24.3,18 C21.8192308,18 19.8,15.9775281 19.8,13.5 C19.8,11.0224719 21.8192308,9 24.3,9 C26.7807692,9 28.8,11.0224719 28.8,13.5 C28.8,15.9775281 26.7879808,18 24.3,18 Z M24.3,17.1 C26.2880597,17.1 27.9,15.4846154 27.9,13.5 C27.9,11.5076923 26.2880597,9.9 24.3,9.9 C22.3119403,9.9 20.7,11.5153846 20.7,13.5 C20.7076759,15.4846154 22.3196162,17.1 24.3,17.1 Z" id="Shape"></path>
                        </g>
                    </g>
                </g>
            </g>
        </g>
    </g>
</svg>