<svg xmlns="http://www.w3.org/2000/svg" width="52" height="52" viewBox="0 0 52 52"><defs><linearGradient id="edr4a" x1="26.86" x2="31.5" y1="25.58" y2="33" gradientUnits="userSpaceOnUse"><stop offset="0" stop-color="#eff7fc"/><stop offset="1" stop-color="#fff"/></linearGradient></defs><g><g><g><path fill="#2aa2d5" d="M26 52c14.36 0 26-11.64 26-26S40.36 0 26 0 0 11.64 0 26s11.64 26 26 26z"/></g><g><g><path fill="#c8daea" d="M21.11 35.09c-.724 0-.594-.28-.854-.966l-2.116-6.98 13.142-8.204 1.54.408-1.28 3.49z"/></g><g><path fill="#a9c9dd" d="M21.11 35.092c.557 0 .798-.26 1.114-.557.482-.464 6.682-6.497 6.682-6.497l-3.805-.928-3.527 2.228-.464 5.568z"/></g><g><path fill="url(#edr4a)" d="M21.48 29.408l8.985 6.627c1.02.557 1.763.278 2.023-.947l3.657-17.226c.371-1.503-.576-2.172-1.56-1.726l-21.458 8.279c-1.466.594-1.447 1.41-.26 1.763l5.514 1.727 12.752-8.038c.594-.371 1.15-.167.705.241z"/></g></g></g></g></svg>