<svg xmlns="http://www.w3.org/2000/svg" width="32" height="32" viewBox="0 0 32 32"><g><g><g><path fill="#4dc8f1" d="M16 32c8.837 0 16-7.163 16-16S24.837 0 16 0 0 7.163 0 16s7.163 16 16 16z"/></g><g><path fill="#fff" d="M23.26 12.487C23.48 17.457 19.822 23 13.346 23A9.778 9.778 0 0 1 8 21.412a6.946 6.946 0 0 0 5.163-1.464c-1.526-.028-2.814-1.05-3.257-2.454a3.454 3.454 0 0 0 1.574-.06c-1.677-.342-2.835-1.873-2.797-3.51.47.264 1.008.423 1.58.441-1.553-1.051-1.993-3.13-1.08-4.718 1.72 2.138 4.29 3.545 7.19 3.693C15.862 11.129 17.518 9 19.77 9a3.46 3.46 0 0 1 2.545 1.116 6.92 6.92 0 0 0 2.215-.858 3.533 3.533 0 0 1-1.533 1.955A6.894 6.894 0 0 0 25 10.657a7.134 7.134 0 0 1-1.74 1.83"/></g></g></g></svg>