<svg xmlns="http://www.w3.org/2000/svg" width="32" height="32" viewBox="0 0 32 32"><defs><clipPath id="6dvfa"><path d="M15.905 31.81c8.785 0 15.906-7.12 15.906-15.905C31.81 7.121 24.69 0 15.905 0 7.121 0 0 7.121 0 15.905c0 8.785 7.121 15.906 15.905 15.906z"/></clipPath></defs><g><g><g><g><path fill="#2d42a3" d="M15.905 31.81c8.785 0 15.906-7.12 15.906-15.905C31.81 7.121 24.69 0 15.905 0 7.121 0 0 7.121 0 15.905c0 8.785 7.121 15.906 15.905 15.906z"/></g><g clip-path="url(#6dvfa)"><path fill="#fff" d="M-1.09 6.526L1.063 3.4l30.76 21.894-2.155 3.127z"/></g><g clip-path="url(#6dvfa)"><path fill="#ed5565" d="M-.73 6.005L.707 3.92l30.758 21.894L30.03 27.9z"/></g><g clip-path="url(#6dvfa)"><path fill="#fff" d="M31.624 6.779l-2.17-3.149L-1.51 25.672l2.168 3.149z"/></g><g clip-path="url(#6dvfa)"><path fill="#ed5565" d="M31.26 6.248L29.815 4.15-1.15 26.19l1.445 2.1z"/></g><g clip-path="url(#6dvfa)"><path fill="#fff" d="M0 19.707V12.11h31.813v7.597z"/></g><g clip-path="url(#6dvfa)"><path fill="#fff" d="M12.11 0h7.597v31.81H12.11z"/></g><g clip-path="url(#6dvfa)"><path fill="#ed5565" d="M0 18.192V13.61h31.813v4.582z"/></g><g clip-path="url(#6dvfa)"><path fill="#ed5565" d="M13.62 0h4.58v31.81h-4.58z"/></g></g></g></g></svg>